G04 #@! TF.GenerationSoftware,KiCad,Pcbnew,5.0.1-33cea8e~68~ubuntu18.04.1*
G04 #@! TF.CreationDate,2018-11-10T13:26:22+01:00*
G04 #@! TF.ProjectId,Tiny-up5k,54696E792D7570356B2E6B696361645F,rev?*
G04 #@! TF.SameCoordinates,Original*
G04 #@! TF.FileFunction,Soldermask,Top*
G04 #@! TF.FilePolarity,Negative*
%FSLAX46Y46*%
G04 Gerber Fmt 4.6, Leading zero omitted, Abs format (unit mm)*
G04 Created by KiCad (PCBNEW 5.0.1-33cea8e~68~ubuntu18.04.1) date za 10 nov 2018 13:26:22 CET*
%MOMM*%
%LPD*%
G01*
G04 APERTURE LIST*
%ADD10C,0.100000*%
G04 APERTURE END LIST*
D10*
G36*
X158932432Y-129932122D02*
X159102081Y-129983585D01*
X159258433Y-130067156D01*
X159395475Y-130179625D01*
X159507944Y-130316667D01*
X159591515Y-130473019D01*
X159642978Y-130642668D01*
X159660354Y-130819100D01*
X159642978Y-130995532D01*
X159591515Y-131165181D01*
X159507944Y-131321533D01*
X159395475Y-131458575D01*
X159258433Y-131571044D01*
X159102081Y-131654615D01*
X158932432Y-131706078D01*
X158800211Y-131719100D01*
X158711789Y-131719100D01*
X158579568Y-131706078D01*
X158409919Y-131654615D01*
X158253567Y-131571044D01*
X158116525Y-131458575D01*
X158004056Y-131321533D01*
X157920485Y-131165181D01*
X157869022Y-130995532D01*
X157851646Y-130819100D01*
X157869022Y-130642668D01*
X157920485Y-130473019D01*
X158004056Y-130316667D01*
X158116525Y-130179625D01*
X158253567Y-130067156D01*
X158409919Y-129983585D01*
X158579568Y-129932122D01*
X158711789Y-129919100D01*
X158800211Y-129919100D01*
X158932432Y-129932122D01*
X158932432Y-129932122D01*
G37*
G36*
X143692432Y-129932122D02*
X143862081Y-129983585D01*
X144018433Y-130067156D01*
X144155475Y-130179625D01*
X144267944Y-130316667D01*
X144351515Y-130473019D01*
X144402978Y-130642668D01*
X144420354Y-130819100D01*
X144402978Y-130995532D01*
X144351515Y-131165181D01*
X144267944Y-131321533D01*
X144155475Y-131458575D01*
X144018433Y-131571044D01*
X143862081Y-131654615D01*
X143692432Y-131706078D01*
X143560211Y-131719100D01*
X143471789Y-131719100D01*
X143339568Y-131706078D01*
X143169919Y-131654615D01*
X143013567Y-131571044D01*
X142876525Y-131458575D01*
X142764056Y-131321533D01*
X142680485Y-131165181D01*
X142629022Y-130995532D01*
X142611646Y-130819100D01*
X142629022Y-130642668D01*
X142680485Y-130473019D01*
X142764056Y-130316667D01*
X142876525Y-130179625D01*
X143013567Y-130067156D01*
X143169919Y-129983585D01*
X143339568Y-129932122D01*
X143471789Y-129919100D01*
X143560211Y-129919100D01*
X143692432Y-129932122D01*
X143692432Y-129932122D01*
G37*
G36*
X149930000Y-130623100D02*
X148930000Y-130623100D01*
X148930000Y-128823100D01*
X149930000Y-128823100D01*
X149930000Y-130623100D01*
X149930000Y-130623100D01*
G37*
G36*
X153330000Y-130623100D02*
X152330000Y-130623100D01*
X152330000Y-128823100D01*
X153330000Y-128823100D01*
X153330000Y-130623100D01*
X153330000Y-130623100D01*
G37*
G36*
X143692432Y-127392122D02*
X143862081Y-127443585D01*
X144018433Y-127527156D01*
X144155475Y-127639625D01*
X144267944Y-127776667D01*
X144351515Y-127933019D01*
X144402978Y-128102668D01*
X144420354Y-128279100D01*
X144402978Y-128455532D01*
X144351515Y-128625181D01*
X144267944Y-128781533D01*
X144155475Y-128918575D01*
X144018433Y-129031044D01*
X143862081Y-129114615D01*
X143692432Y-129166078D01*
X143560211Y-129179100D01*
X143471789Y-129179100D01*
X143339568Y-129166078D01*
X143169919Y-129114615D01*
X143013567Y-129031044D01*
X142876525Y-128918575D01*
X142764056Y-128781533D01*
X142680485Y-128625181D01*
X142629022Y-128455532D01*
X142611646Y-128279100D01*
X142629022Y-128102668D01*
X142680485Y-127933019D01*
X142764056Y-127776667D01*
X142876525Y-127639625D01*
X143013567Y-127527156D01*
X143169919Y-127443585D01*
X143339568Y-127392122D01*
X143471789Y-127379100D01*
X143560211Y-127379100D01*
X143692432Y-127392122D01*
X143692432Y-127392122D01*
G37*
G36*
X158932432Y-127392122D02*
X159102081Y-127443585D01*
X159258433Y-127527156D01*
X159395475Y-127639625D01*
X159507944Y-127776667D01*
X159591515Y-127933019D01*
X159642978Y-128102668D01*
X159660354Y-128279100D01*
X159642978Y-128455532D01*
X159591515Y-128625181D01*
X159507944Y-128781533D01*
X159395475Y-128918575D01*
X159258433Y-129031044D01*
X159102081Y-129114615D01*
X158932432Y-129166078D01*
X158800211Y-129179100D01*
X158711789Y-129179100D01*
X158579568Y-129166078D01*
X158409919Y-129114615D01*
X158253567Y-129031044D01*
X158116525Y-128918575D01*
X158004056Y-128781533D01*
X157920485Y-128625181D01*
X157869022Y-128455532D01*
X157851646Y-128279100D01*
X157869022Y-128102668D01*
X157920485Y-127933019D01*
X158004056Y-127776667D01*
X158116525Y-127639625D01*
X158253567Y-127527156D01*
X158409919Y-127443585D01*
X158579568Y-127392122D01*
X158711789Y-127379100D01*
X158800211Y-127379100D01*
X158932432Y-127392122D01*
X158932432Y-127392122D01*
G37*
G36*
X143692432Y-124852122D02*
X143862081Y-124903585D01*
X144018433Y-124987156D01*
X144155475Y-125099625D01*
X144267944Y-125236667D01*
X144351515Y-125393019D01*
X144402978Y-125562668D01*
X144420354Y-125739100D01*
X144402978Y-125915532D01*
X144351515Y-126085181D01*
X144267944Y-126241533D01*
X144155475Y-126378575D01*
X144018433Y-126491044D01*
X143862081Y-126574615D01*
X143692432Y-126626078D01*
X143560211Y-126639100D01*
X143471789Y-126639100D01*
X143339568Y-126626078D01*
X143169919Y-126574615D01*
X143013567Y-126491044D01*
X142876525Y-126378575D01*
X142764056Y-126241533D01*
X142680485Y-126085181D01*
X142629022Y-125915532D01*
X142611646Y-125739100D01*
X142629022Y-125562668D01*
X142680485Y-125393019D01*
X142764056Y-125236667D01*
X142876525Y-125099625D01*
X143013567Y-124987156D01*
X143169919Y-124903585D01*
X143339568Y-124852122D01*
X143471789Y-124839100D01*
X143560211Y-124839100D01*
X143692432Y-124852122D01*
X143692432Y-124852122D01*
G37*
G36*
X158932432Y-124852122D02*
X159102081Y-124903585D01*
X159258433Y-124987156D01*
X159395475Y-125099625D01*
X159507944Y-125236667D01*
X159591515Y-125393019D01*
X159642978Y-125562668D01*
X159660354Y-125739100D01*
X159642978Y-125915532D01*
X159591515Y-126085181D01*
X159507944Y-126241533D01*
X159395475Y-126378575D01*
X159258433Y-126491044D01*
X159102081Y-126574615D01*
X158932432Y-126626078D01*
X158800211Y-126639100D01*
X158711789Y-126639100D01*
X158579568Y-126626078D01*
X158409919Y-126574615D01*
X158253567Y-126491044D01*
X158116525Y-126378575D01*
X158004056Y-126241533D01*
X157920485Y-126085181D01*
X157869022Y-125915532D01*
X157851646Y-125739100D01*
X157869022Y-125562668D01*
X157920485Y-125393019D01*
X158004056Y-125236667D01*
X158116525Y-125099625D01*
X158253567Y-124987156D01*
X158409919Y-124903585D01*
X158579568Y-124852122D01*
X158711789Y-124839100D01*
X158800211Y-124839100D01*
X158932432Y-124852122D01*
X158932432Y-124852122D01*
G37*
G36*
X150105000Y-123560000D02*
X150107402Y-123584386D01*
X150114515Y-123607835D01*
X150126066Y-123629446D01*
X150141612Y-123648388D01*
X150160554Y-123663934D01*
X150182165Y-123675485D01*
X150205614Y-123682598D01*
X150230000Y-123685000D01*
X152030000Y-123685000D01*
X152054386Y-123682598D01*
X152077835Y-123675485D01*
X152099446Y-123663934D01*
X152118388Y-123648388D01*
X152133934Y-123629446D01*
X152145485Y-123607835D01*
X152152598Y-123584386D01*
X152155000Y-123560000D01*
X152155000Y-123510000D01*
X153005000Y-123510000D01*
X153005000Y-125410000D01*
X152155000Y-125410000D01*
X152155000Y-125360000D01*
X152152598Y-125335614D01*
X152145485Y-125312165D01*
X152133934Y-125290554D01*
X152118388Y-125271612D01*
X152099446Y-125256066D01*
X152077835Y-125244515D01*
X152054386Y-125237402D01*
X152030000Y-125235000D01*
X150230000Y-125235000D01*
X150205614Y-125237402D01*
X150182165Y-125244515D01*
X150160554Y-125256066D01*
X150141612Y-125271612D01*
X150126066Y-125290554D01*
X150114515Y-125312165D01*
X150107402Y-125335614D01*
X150105000Y-125360000D01*
X150105000Y-125410000D01*
X149255000Y-125410000D01*
X149255000Y-123510000D01*
X150105000Y-123510000D01*
X150105000Y-123560000D01*
X150105000Y-123560000D01*
G37*
G36*
X143692432Y-122312122D02*
X143862081Y-122363585D01*
X144018433Y-122447156D01*
X144155475Y-122559625D01*
X144267944Y-122696667D01*
X144351515Y-122853019D01*
X144402978Y-123022668D01*
X144420354Y-123199100D01*
X144402978Y-123375532D01*
X144351515Y-123545181D01*
X144267944Y-123701533D01*
X144155475Y-123838575D01*
X144018433Y-123951044D01*
X143862081Y-124034615D01*
X143692432Y-124086078D01*
X143560211Y-124099100D01*
X143471789Y-124099100D01*
X143339568Y-124086078D01*
X143169919Y-124034615D01*
X143013567Y-123951044D01*
X142876525Y-123838575D01*
X142764056Y-123701533D01*
X142680485Y-123545181D01*
X142629022Y-123375532D01*
X142611646Y-123199100D01*
X142629022Y-123022668D01*
X142680485Y-122853019D01*
X142764056Y-122696667D01*
X142876525Y-122559625D01*
X143013567Y-122447156D01*
X143169919Y-122363585D01*
X143339568Y-122312122D01*
X143471789Y-122299100D01*
X143560211Y-122299100D01*
X143692432Y-122312122D01*
X143692432Y-122312122D01*
G37*
G36*
X158932432Y-122312122D02*
X159102081Y-122363585D01*
X159258433Y-122447156D01*
X159395475Y-122559625D01*
X159507944Y-122696667D01*
X159591515Y-122853019D01*
X159642978Y-123022668D01*
X159660354Y-123199100D01*
X159642978Y-123375532D01*
X159591515Y-123545181D01*
X159507944Y-123701533D01*
X159395475Y-123838575D01*
X159258433Y-123951044D01*
X159102081Y-124034615D01*
X158932432Y-124086078D01*
X158800211Y-124099100D01*
X158711789Y-124099100D01*
X158579568Y-124086078D01*
X158409919Y-124034615D01*
X158253567Y-123951044D01*
X158116525Y-123838575D01*
X158004056Y-123701533D01*
X157920485Y-123545181D01*
X157869022Y-123375532D01*
X157851646Y-123199100D01*
X157869022Y-123022668D01*
X157920485Y-122853019D01*
X158004056Y-122696667D01*
X158116525Y-122559625D01*
X158253567Y-122447156D01*
X158409919Y-122363585D01*
X158579568Y-122312122D01*
X158711789Y-122299100D01*
X158800211Y-122299100D01*
X158932432Y-122312122D01*
X158932432Y-122312122D01*
G37*
G36*
X150605000Y-122349000D02*
X149505000Y-122349000D01*
X149505000Y-121349000D01*
X150605000Y-121349000D01*
X150605000Y-122349000D01*
X150605000Y-122349000D01*
G37*
G36*
X152755000Y-122349000D02*
X151655000Y-122349000D01*
X151655000Y-121349000D01*
X152755000Y-121349000D01*
X152755000Y-122349000D01*
X152755000Y-122349000D01*
G37*
G36*
X158932432Y-119772122D02*
X159102081Y-119823585D01*
X159258433Y-119907156D01*
X159395475Y-120019625D01*
X159507944Y-120156667D01*
X159591515Y-120313019D01*
X159642978Y-120482668D01*
X159660354Y-120659100D01*
X159642978Y-120835532D01*
X159591515Y-121005181D01*
X159507944Y-121161533D01*
X159395475Y-121298575D01*
X159258433Y-121411044D01*
X159102081Y-121494615D01*
X158932432Y-121546078D01*
X158800211Y-121559100D01*
X158711789Y-121559100D01*
X158579568Y-121546078D01*
X158409919Y-121494615D01*
X158253567Y-121411044D01*
X158116525Y-121298575D01*
X158004056Y-121161533D01*
X157920485Y-121005181D01*
X157869022Y-120835532D01*
X157851646Y-120659100D01*
X157869022Y-120482668D01*
X157920485Y-120313019D01*
X158004056Y-120156667D01*
X158116525Y-120019625D01*
X158253567Y-119907156D01*
X158409919Y-119823585D01*
X158579568Y-119772122D01*
X158711789Y-119759100D01*
X158800211Y-119759100D01*
X158932432Y-119772122D01*
X158932432Y-119772122D01*
G37*
G36*
X143692432Y-119772122D02*
X143862081Y-119823585D01*
X144018433Y-119907156D01*
X144155475Y-120019625D01*
X144267944Y-120156667D01*
X144351515Y-120313019D01*
X144402978Y-120482668D01*
X144420354Y-120659100D01*
X144402978Y-120835532D01*
X144351515Y-121005181D01*
X144267944Y-121161533D01*
X144155475Y-121298575D01*
X144018433Y-121411044D01*
X143862081Y-121494615D01*
X143692432Y-121546078D01*
X143560211Y-121559100D01*
X143471789Y-121559100D01*
X143339568Y-121546078D01*
X143169919Y-121494615D01*
X143013567Y-121411044D01*
X142876525Y-121298575D01*
X142764056Y-121161533D01*
X142680485Y-121005181D01*
X142629022Y-120835532D01*
X142611646Y-120659100D01*
X142629022Y-120482668D01*
X142680485Y-120313019D01*
X142764056Y-120156667D01*
X142876525Y-120019625D01*
X143013567Y-119907156D01*
X143169919Y-119823585D01*
X143339568Y-119772122D01*
X143471789Y-119759100D01*
X143560211Y-119759100D01*
X143692432Y-119772122D01*
X143692432Y-119772122D01*
G37*
G36*
X150605000Y-120799000D02*
X149505000Y-120799000D01*
X149505000Y-119799000D01*
X150605000Y-119799000D01*
X150605000Y-120799000D01*
X150605000Y-120799000D01*
G37*
G36*
X152755000Y-120799000D02*
X151655000Y-120799000D01*
X151655000Y-119799000D01*
X152755000Y-119799000D01*
X152755000Y-120799000D01*
X152755000Y-120799000D01*
G37*
G36*
X143692432Y-117232122D02*
X143862081Y-117283585D01*
X144018433Y-117367156D01*
X144155475Y-117479625D01*
X144267944Y-117616667D01*
X144351515Y-117773019D01*
X144402978Y-117942668D01*
X144420354Y-118119100D01*
X144402978Y-118295532D01*
X144351515Y-118465181D01*
X144267944Y-118621533D01*
X144155475Y-118758575D01*
X144018433Y-118871044D01*
X143862081Y-118954615D01*
X143692432Y-119006078D01*
X143560211Y-119019100D01*
X143471789Y-119019100D01*
X143339568Y-119006078D01*
X143169919Y-118954615D01*
X143013567Y-118871044D01*
X142876525Y-118758575D01*
X142764056Y-118621533D01*
X142680485Y-118465181D01*
X142629022Y-118295532D01*
X142611646Y-118119100D01*
X142629022Y-117942668D01*
X142680485Y-117773019D01*
X142764056Y-117616667D01*
X142876525Y-117479625D01*
X143013567Y-117367156D01*
X143169919Y-117283585D01*
X143339568Y-117232122D01*
X143471789Y-117219100D01*
X143560211Y-117219100D01*
X143692432Y-117232122D01*
X143692432Y-117232122D01*
G37*
G36*
X158932432Y-117232122D02*
X159102081Y-117283585D01*
X159258433Y-117367156D01*
X159395475Y-117479625D01*
X159507944Y-117616667D01*
X159591515Y-117773019D01*
X159642978Y-117942668D01*
X159660354Y-118119100D01*
X159642978Y-118295532D01*
X159591515Y-118465181D01*
X159507944Y-118621533D01*
X159395475Y-118758575D01*
X159258433Y-118871044D01*
X159102081Y-118954615D01*
X158932432Y-119006078D01*
X158800211Y-119019100D01*
X158711789Y-119019100D01*
X158579568Y-119006078D01*
X158409919Y-118954615D01*
X158253567Y-118871044D01*
X158116525Y-118758575D01*
X158004056Y-118621533D01*
X157920485Y-118465181D01*
X157869022Y-118295532D01*
X157851646Y-118119100D01*
X157869022Y-117942668D01*
X157920485Y-117773019D01*
X158004056Y-117616667D01*
X158116525Y-117479625D01*
X158253567Y-117367156D01*
X158409919Y-117283585D01*
X158579568Y-117232122D01*
X158711789Y-117219100D01*
X158800211Y-117219100D01*
X158932432Y-117232122D01*
X158932432Y-117232122D01*
G37*
G36*
X148534761Y-109995073D02*
X148539335Y-109996461D01*
X148543550Y-109998714D01*
X148550700Y-110004582D01*
X148571075Y-110018196D01*
X148593714Y-110027573D01*
X148617747Y-110032354D01*
X148642251Y-110032354D01*
X148666285Y-110027574D01*
X148688924Y-110018197D01*
X148709300Y-110004582D01*
X148716450Y-109998714D01*
X148720665Y-109996461D01*
X148725239Y-109995073D01*
X148736138Y-109994000D01*
X149023862Y-109994000D01*
X149034761Y-109995073D01*
X149039335Y-109996461D01*
X149043550Y-109998714D01*
X149050700Y-110004582D01*
X149071075Y-110018196D01*
X149093714Y-110027573D01*
X149117747Y-110032354D01*
X149142251Y-110032354D01*
X149166285Y-110027574D01*
X149188924Y-110018197D01*
X149209300Y-110004582D01*
X149216450Y-109998714D01*
X149220665Y-109996461D01*
X149225239Y-109995073D01*
X149236138Y-109994000D01*
X149523862Y-109994000D01*
X149534761Y-109995073D01*
X149539335Y-109996461D01*
X149543550Y-109998714D01*
X149550700Y-110004582D01*
X149571075Y-110018196D01*
X149593714Y-110027573D01*
X149617747Y-110032354D01*
X149642251Y-110032354D01*
X149666285Y-110027574D01*
X149688924Y-110018197D01*
X149709300Y-110004582D01*
X149716450Y-109998714D01*
X149720665Y-109996461D01*
X149725239Y-109995073D01*
X149736138Y-109994000D01*
X150023862Y-109994000D01*
X150034761Y-109995073D01*
X150039335Y-109996461D01*
X150043550Y-109998714D01*
X150050700Y-110004582D01*
X150071075Y-110018196D01*
X150093714Y-110027573D01*
X150117747Y-110032354D01*
X150142251Y-110032354D01*
X150166285Y-110027574D01*
X150188924Y-110018197D01*
X150209300Y-110004582D01*
X150216450Y-109998714D01*
X150220665Y-109996461D01*
X150225239Y-109995073D01*
X150236138Y-109994000D01*
X150523862Y-109994000D01*
X150534761Y-109995073D01*
X150539335Y-109996461D01*
X150543550Y-109998714D01*
X150550700Y-110004582D01*
X150571075Y-110018196D01*
X150593714Y-110027573D01*
X150617747Y-110032354D01*
X150642251Y-110032354D01*
X150666285Y-110027574D01*
X150688924Y-110018197D01*
X150709300Y-110004582D01*
X150716450Y-109998714D01*
X150720665Y-109996461D01*
X150725239Y-109995073D01*
X150736138Y-109994000D01*
X151023862Y-109994000D01*
X151034761Y-109995073D01*
X151039335Y-109996461D01*
X151043550Y-109998714D01*
X151050700Y-110004582D01*
X151071075Y-110018196D01*
X151093714Y-110027573D01*
X151117747Y-110032354D01*
X151142251Y-110032354D01*
X151166285Y-110027574D01*
X151188924Y-110018197D01*
X151209300Y-110004582D01*
X151216450Y-109998714D01*
X151220665Y-109996461D01*
X151225239Y-109995073D01*
X151236138Y-109994000D01*
X151523862Y-109994000D01*
X151534761Y-109995073D01*
X151539335Y-109996461D01*
X151543550Y-109998714D01*
X151550700Y-110004582D01*
X151571075Y-110018196D01*
X151593714Y-110027573D01*
X151617747Y-110032354D01*
X151642251Y-110032354D01*
X151666285Y-110027574D01*
X151688924Y-110018197D01*
X151709300Y-110004582D01*
X151716450Y-109998714D01*
X151720665Y-109996461D01*
X151725239Y-109995073D01*
X151736138Y-109994000D01*
X152023862Y-109994000D01*
X152034761Y-109995073D01*
X152039335Y-109996461D01*
X152043550Y-109998714D01*
X152050700Y-110004582D01*
X152071075Y-110018196D01*
X152093714Y-110027573D01*
X152117747Y-110032354D01*
X152142251Y-110032354D01*
X152166285Y-110027574D01*
X152188924Y-110018197D01*
X152209300Y-110004582D01*
X152216450Y-109998714D01*
X152220665Y-109996461D01*
X152225239Y-109995073D01*
X152236138Y-109994000D01*
X152523862Y-109994000D01*
X152534761Y-109995073D01*
X152539335Y-109996461D01*
X152543550Y-109998714D01*
X152550700Y-110004582D01*
X152571075Y-110018196D01*
X152593714Y-110027573D01*
X152617747Y-110032354D01*
X152642251Y-110032354D01*
X152666285Y-110027574D01*
X152688924Y-110018197D01*
X152709300Y-110004582D01*
X152716450Y-109998714D01*
X152720665Y-109996461D01*
X152725239Y-109995073D01*
X152736138Y-109994000D01*
X153023862Y-109994000D01*
X153034761Y-109995073D01*
X153039335Y-109996461D01*
X153043550Y-109998714D01*
X153050700Y-110004582D01*
X153071075Y-110018196D01*
X153093714Y-110027573D01*
X153117747Y-110032354D01*
X153142251Y-110032354D01*
X153166285Y-110027574D01*
X153188924Y-110018197D01*
X153209300Y-110004582D01*
X153216450Y-109998714D01*
X153220665Y-109996461D01*
X153225239Y-109995073D01*
X153236138Y-109994000D01*
X153523862Y-109994000D01*
X153534761Y-109995073D01*
X153539335Y-109996461D01*
X153543550Y-109998714D01*
X153550700Y-110004582D01*
X153571075Y-110018196D01*
X153593714Y-110027573D01*
X153617747Y-110032354D01*
X153642251Y-110032354D01*
X153666285Y-110027574D01*
X153688924Y-110018197D01*
X153709300Y-110004582D01*
X153716450Y-109998714D01*
X153720665Y-109996461D01*
X153725239Y-109995073D01*
X153736138Y-109994000D01*
X154023862Y-109994000D01*
X154034761Y-109995073D01*
X154039335Y-109996461D01*
X154043553Y-109998716D01*
X154047250Y-110001750D01*
X154050284Y-110005447D01*
X154052539Y-110009665D01*
X154053927Y-110014239D01*
X154055000Y-110025138D01*
X154055000Y-110869000D01*
X154057402Y-110893386D01*
X154064515Y-110916835D01*
X154076066Y-110938446D01*
X154091612Y-110957388D01*
X154110554Y-110972934D01*
X154132165Y-110984485D01*
X154155614Y-110991598D01*
X154180000Y-110994000D01*
X155023862Y-110994000D01*
X155034761Y-110995073D01*
X155039335Y-110996461D01*
X155043553Y-110998716D01*
X155047250Y-111001750D01*
X155050284Y-111005447D01*
X155052539Y-111009665D01*
X155053927Y-111014239D01*
X155055000Y-111025138D01*
X155055000Y-111312862D01*
X155053927Y-111323761D01*
X155052539Y-111328335D01*
X155050286Y-111332550D01*
X155044418Y-111339700D01*
X155030804Y-111360075D01*
X155021427Y-111382714D01*
X155016646Y-111406747D01*
X155016646Y-111431251D01*
X155021426Y-111455285D01*
X155030803Y-111477924D01*
X155044418Y-111498300D01*
X155050286Y-111505450D01*
X155052539Y-111509665D01*
X155053927Y-111514239D01*
X155055000Y-111525138D01*
X155055000Y-111812862D01*
X155053927Y-111823761D01*
X155052539Y-111828335D01*
X155050286Y-111832550D01*
X155044418Y-111839700D01*
X155030804Y-111860075D01*
X155021427Y-111882714D01*
X155016646Y-111906747D01*
X155016646Y-111931251D01*
X155021426Y-111955285D01*
X155030803Y-111977924D01*
X155044418Y-111998300D01*
X155050286Y-112005450D01*
X155052539Y-112009665D01*
X155053927Y-112014239D01*
X155055000Y-112025138D01*
X155055000Y-112312862D01*
X155053927Y-112323761D01*
X155052539Y-112328335D01*
X155050286Y-112332550D01*
X155044418Y-112339700D01*
X155030804Y-112360075D01*
X155021427Y-112382714D01*
X155016646Y-112406747D01*
X155016646Y-112431251D01*
X155021426Y-112455285D01*
X155030803Y-112477924D01*
X155044418Y-112498300D01*
X155050286Y-112505450D01*
X155052539Y-112509665D01*
X155053927Y-112514239D01*
X155055000Y-112525138D01*
X155055000Y-112812862D01*
X155053927Y-112823761D01*
X155052539Y-112828335D01*
X155050286Y-112832550D01*
X155044418Y-112839700D01*
X155030804Y-112860075D01*
X155021427Y-112882714D01*
X155016646Y-112906747D01*
X155016646Y-112931251D01*
X155021426Y-112955285D01*
X155030803Y-112977924D01*
X155044418Y-112998300D01*
X155050286Y-113005450D01*
X155052539Y-113009665D01*
X155053927Y-113014239D01*
X155055000Y-113025138D01*
X155055000Y-113312862D01*
X155053927Y-113323761D01*
X155052539Y-113328335D01*
X155050286Y-113332550D01*
X155044418Y-113339700D01*
X155030804Y-113360075D01*
X155021427Y-113382714D01*
X155016646Y-113406747D01*
X155016646Y-113431251D01*
X155021426Y-113455285D01*
X155030803Y-113477924D01*
X155044418Y-113498300D01*
X155050286Y-113505450D01*
X155052539Y-113509665D01*
X155053927Y-113514239D01*
X155055000Y-113525138D01*
X155055000Y-113812862D01*
X155053927Y-113823761D01*
X155052539Y-113828335D01*
X155050286Y-113832550D01*
X155044418Y-113839700D01*
X155030804Y-113860075D01*
X155021427Y-113882714D01*
X155016646Y-113906747D01*
X155016646Y-113931251D01*
X155021426Y-113955285D01*
X155030803Y-113977924D01*
X155044418Y-113998300D01*
X155050286Y-114005450D01*
X155052539Y-114009665D01*
X155053927Y-114014239D01*
X155055000Y-114025138D01*
X155055000Y-114312862D01*
X155053927Y-114323761D01*
X155052539Y-114328335D01*
X155050286Y-114332550D01*
X155044418Y-114339700D01*
X155030804Y-114360075D01*
X155021427Y-114382714D01*
X155016646Y-114406747D01*
X155016646Y-114431251D01*
X155021426Y-114455285D01*
X155030803Y-114477924D01*
X155044418Y-114498300D01*
X155050286Y-114505450D01*
X155052539Y-114509665D01*
X155053927Y-114514239D01*
X155055000Y-114525138D01*
X155055000Y-114812862D01*
X155053927Y-114823761D01*
X155052539Y-114828335D01*
X155050286Y-114832550D01*
X155044418Y-114839700D01*
X155030804Y-114860075D01*
X155021427Y-114882714D01*
X155016646Y-114906747D01*
X155016646Y-114931251D01*
X155021426Y-114955285D01*
X155030803Y-114977924D01*
X155044418Y-114998300D01*
X155050286Y-115005450D01*
X155052539Y-115009665D01*
X155053927Y-115014239D01*
X155055000Y-115025138D01*
X155055000Y-115312862D01*
X155053927Y-115323761D01*
X155052539Y-115328335D01*
X155050286Y-115332550D01*
X155044418Y-115339700D01*
X155030804Y-115360075D01*
X155021427Y-115382714D01*
X155016646Y-115406747D01*
X155016646Y-115431251D01*
X155021426Y-115455285D01*
X155030803Y-115477924D01*
X155044418Y-115498300D01*
X155050286Y-115505450D01*
X155052539Y-115509665D01*
X155053927Y-115514239D01*
X155055000Y-115525138D01*
X155055000Y-115812862D01*
X155053927Y-115823761D01*
X155052539Y-115828335D01*
X155050286Y-115832550D01*
X155044418Y-115839700D01*
X155030804Y-115860075D01*
X155021427Y-115882714D01*
X155016646Y-115906747D01*
X155016646Y-115931251D01*
X155021426Y-115955285D01*
X155030803Y-115977924D01*
X155044418Y-115998300D01*
X155050286Y-116005450D01*
X155052539Y-116009665D01*
X155053927Y-116014239D01*
X155055000Y-116025138D01*
X155055000Y-116312862D01*
X155053927Y-116323761D01*
X155052539Y-116328335D01*
X155050286Y-116332550D01*
X155044418Y-116339700D01*
X155030804Y-116360075D01*
X155021427Y-116382714D01*
X155016646Y-116406747D01*
X155016646Y-116431251D01*
X155021426Y-116455285D01*
X155030803Y-116477924D01*
X155044418Y-116498300D01*
X155050286Y-116505450D01*
X155052539Y-116509665D01*
X155053927Y-116514239D01*
X155055000Y-116525138D01*
X155055000Y-116812862D01*
X155053927Y-116823761D01*
X155052539Y-116828335D01*
X155050284Y-116832553D01*
X155047250Y-116836250D01*
X155043553Y-116839284D01*
X155039335Y-116841539D01*
X155034761Y-116842927D01*
X155023862Y-116844000D01*
X154180000Y-116844000D01*
X154155614Y-116846402D01*
X154132165Y-116853515D01*
X154110554Y-116865066D01*
X154091612Y-116880612D01*
X154076066Y-116899554D01*
X154064515Y-116921165D01*
X154057402Y-116944614D01*
X154055000Y-116969000D01*
X154055000Y-117812862D01*
X154053927Y-117823761D01*
X154052539Y-117828335D01*
X154050284Y-117832553D01*
X154047250Y-117836250D01*
X154043553Y-117839284D01*
X154039335Y-117841539D01*
X154034761Y-117842927D01*
X154023862Y-117844000D01*
X153736138Y-117844000D01*
X153725239Y-117842927D01*
X153720665Y-117841539D01*
X153716450Y-117839286D01*
X153709300Y-117833418D01*
X153688925Y-117819804D01*
X153666286Y-117810427D01*
X153642253Y-117805646D01*
X153617749Y-117805646D01*
X153593715Y-117810426D01*
X153571076Y-117819803D01*
X153550700Y-117833418D01*
X153543550Y-117839286D01*
X153539335Y-117841539D01*
X153534761Y-117842927D01*
X153523862Y-117844000D01*
X153236138Y-117844000D01*
X153225239Y-117842927D01*
X153220665Y-117841539D01*
X153216450Y-117839286D01*
X153209300Y-117833418D01*
X153188925Y-117819804D01*
X153166286Y-117810427D01*
X153142253Y-117805646D01*
X153117749Y-117805646D01*
X153093715Y-117810426D01*
X153071076Y-117819803D01*
X153050700Y-117833418D01*
X153043550Y-117839286D01*
X153039335Y-117841539D01*
X153034761Y-117842927D01*
X153023862Y-117844000D01*
X152736138Y-117844000D01*
X152725239Y-117842927D01*
X152720665Y-117841539D01*
X152716450Y-117839286D01*
X152709300Y-117833418D01*
X152688925Y-117819804D01*
X152666286Y-117810427D01*
X152642253Y-117805646D01*
X152617749Y-117805646D01*
X152593715Y-117810426D01*
X152571076Y-117819803D01*
X152550700Y-117833418D01*
X152543550Y-117839286D01*
X152539335Y-117841539D01*
X152534761Y-117842927D01*
X152523862Y-117844000D01*
X152236138Y-117844000D01*
X152225239Y-117842927D01*
X152220665Y-117841539D01*
X152216450Y-117839286D01*
X152209300Y-117833418D01*
X152188925Y-117819804D01*
X152166286Y-117810427D01*
X152142253Y-117805646D01*
X152117749Y-117805646D01*
X152093715Y-117810426D01*
X152071076Y-117819803D01*
X152050700Y-117833418D01*
X152043550Y-117839286D01*
X152039335Y-117841539D01*
X152034761Y-117842927D01*
X152023862Y-117844000D01*
X151736138Y-117844000D01*
X151725239Y-117842927D01*
X151720665Y-117841539D01*
X151716450Y-117839286D01*
X151709300Y-117833418D01*
X151688925Y-117819804D01*
X151666286Y-117810427D01*
X151642253Y-117805646D01*
X151617749Y-117805646D01*
X151593715Y-117810426D01*
X151571076Y-117819803D01*
X151550700Y-117833418D01*
X151543550Y-117839286D01*
X151539335Y-117841539D01*
X151534761Y-117842927D01*
X151523862Y-117844000D01*
X151236138Y-117844000D01*
X151225239Y-117842927D01*
X151220665Y-117841539D01*
X151216450Y-117839286D01*
X151209300Y-117833418D01*
X151188925Y-117819804D01*
X151166286Y-117810427D01*
X151142253Y-117805646D01*
X151117749Y-117805646D01*
X151093715Y-117810426D01*
X151071076Y-117819803D01*
X151050700Y-117833418D01*
X151043550Y-117839286D01*
X151039335Y-117841539D01*
X151034761Y-117842927D01*
X151023862Y-117844000D01*
X150736138Y-117844000D01*
X150725239Y-117842927D01*
X150720665Y-117841539D01*
X150716450Y-117839286D01*
X150709300Y-117833418D01*
X150688925Y-117819804D01*
X150666286Y-117810427D01*
X150642253Y-117805646D01*
X150617749Y-117805646D01*
X150593715Y-117810426D01*
X150571076Y-117819803D01*
X150550700Y-117833418D01*
X150543550Y-117839286D01*
X150539335Y-117841539D01*
X150534761Y-117842927D01*
X150523862Y-117844000D01*
X150236138Y-117844000D01*
X150225239Y-117842927D01*
X150220665Y-117841539D01*
X150216450Y-117839286D01*
X150209300Y-117833418D01*
X150188925Y-117819804D01*
X150166286Y-117810427D01*
X150142253Y-117805646D01*
X150117749Y-117805646D01*
X150093715Y-117810426D01*
X150071076Y-117819803D01*
X150050700Y-117833418D01*
X150043550Y-117839286D01*
X150039335Y-117841539D01*
X150034761Y-117842927D01*
X150023862Y-117844000D01*
X149736138Y-117844000D01*
X149725239Y-117842927D01*
X149720665Y-117841539D01*
X149716450Y-117839286D01*
X149709300Y-117833418D01*
X149688925Y-117819804D01*
X149666286Y-117810427D01*
X149642253Y-117805646D01*
X149617749Y-117805646D01*
X149593715Y-117810426D01*
X149571076Y-117819803D01*
X149550700Y-117833418D01*
X149543550Y-117839286D01*
X149539335Y-117841539D01*
X149534761Y-117842927D01*
X149523862Y-117844000D01*
X149236138Y-117844000D01*
X149225239Y-117842927D01*
X149220665Y-117841539D01*
X149216450Y-117839286D01*
X149209300Y-117833418D01*
X149188925Y-117819804D01*
X149166286Y-117810427D01*
X149142253Y-117805646D01*
X149117749Y-117805646D01*
X149093715Y-117810426D01*
X149071076Y-117819803D01*
X149050700Y-117833418D01*
X149043550Y-117839286D01*
X149039335Y-117841539D01*
X149034761Y-117842927D01*
X149023862Y-117844000D01*
X148736138Y-117844000D01*
X148725239Y-117842927D01*
X148720665Y-117841539D01*
X148716450Y-117839286D01*
X148709300Y-117833418D01*
X148688925Y-117819804D01*
X148666286Y-117810427D01*
X148642253Y-117805646D01*
X148617749Y-117805646D01*
X148593715Y-117810426D01*
X148571076Y-117819803D01*
X148550700Y-117833418D01*
X148543550Y-117839286D01*
X148539335Y-117841539D01*
X148534761Y-117842927D01*
X148523862Y-117844000D01*
X148236138Y-117844000D01*
X148225239Y-117842927D01*
X148220665Y-117841539D01*
X148216447Y-117839284D01*
X148212750Y-117836250D01*
X148209716Y-117832553D01*
X148207461Y-117828335D01*
X148206073Y-117823761D01*
X148205000Y-117812862D01*
X148205000Y-116969000D01*
X148202598Y-116944614D01*
X148195485Y-116921165D01*
X148183934Y-116899554D01*
X148168388Y-116880612D01*
X148149446Y-116865066D01*
X148127835Y-116853515D01*
X148104386Y-116846402D01*
X148080000Y-116844000D01*
X147236138Y-116844000D01*
X147225239Y-116842927D01*
X147220665Y-116841539D01*
X147216447Y-116839284D01*
X147212750Y-116836250D01*
X147209716Y-116832553D01*
X147207461Y-116828335D01*
X147206073Y-116823761D01*
X147205000Y-116812862D01*
X147205000Y-116525138D01*
X147206073Y-116514239D01*
X147207461Y-116509665D01*
X147209714Y-116505450D01*
X147215582Y-116498300D01*
X147229196Y-116477925D01*
X147238573Y-116455286D01*
X147243354Y-116431253D01*
X147243354Y-116406749D01*
X147238574Y-116382715D01*
X147229197Y-116360076D01*
X147215582Y-116339700D01*
X147209714Y-116332550D01*
X147207461Y-116328335D01*
X147206073Y-116323761D01*
X147205000Y-116312862D01*
X147205000Y-116025138D01*
X147206073Y-116014239D01*
X147207461Y-116009665D01*
X147209714Y-116005450D01*
X147215582Y-115998300D01*
X147229196Y-115977925D01*
X147238573Y-115955286D01*
X147243354Y-115931253D01*
X147243354Y-115906749D01*
X147238574Y-115882715D01*
X147229197Y-115860076D01*
X147215582Y-115839700D01*
X147209714Y-115832550D01*
X147207461Y-115828335D01*
X147206073Y-115823761D01*
X147205000Y-115812862D01*
X147205000Y-115525138D01*
X147206073Y-115514239D01*
X147207461Y-115509665D01*
X147209714Y-115505450D01*
X147215582Y-115498300D01*
X147229196Y-115477925D01*
X147238573Y-115455286D01*
X147243354Y-115431253D01*
X147243354Y-115406749D01*
X147238574Y-115382715D01*
X147229197Y-115360076D01*
X147215582Y-115339700D01*
X147209714Y-115332550D01*
X147207461Y-115328335D01*
X147206073Y-115323761D01*
X147205000Y-115312862D01*
X147205000Y-115025138D01*
X147206073Y-115014239D01*
X147207461Y-115009665D01*
X147209714Y-115005450D01*
X147215582Y-114998300D01*
X147229196Y-114977925D01*
X147238573Y-114955286D01*
X147243354Y-114931253D01*
X147243354Y-114906749D01*
X147238574Y-114882715D01*
X147229197Y-114860076D01*
X147215582Y-114839700D01*
X147209714Y-114832550D01*
X147207461Y-114828335D01*
X147206073Y-114823761D01*
X147205000Y-114812862D01*
X147205000Y-114525138D01*
X147206073Y-114514239D01*
X147207461Y-114509665D01*
X147209714Y-114505450D01*
X147215582Y-114498300D01*
X147229196Y-114477925D01*
X147238573Y-114455286D01*
X147243354Y-114431253D01*
X147243354Y-114406749D01*
X147238574Y-114382715D01*
X147229197Y-114360076D01*
X147215582Y-114339700D01*
X147209714Y-114332550D01*
X147207461Y-114328335D01*
X147206073Y-114323761D01*
X147205000Y-114312862D01*
X147205000Y-114025138D01*
X147206073Y-114014239D01*
X147207461Y-114009665D01*
X147209714Y-114005450D01*
X147215582Y-113998300D01*
X147229196Y-113977925D01*
X147238573Y-113955286D01*
X147243354Y-113931253D01*
X147243354Y-113906749D01*
X147238574Y-113882715D01*
X147229197Y-113860076D01*
X147215582Y-113839700D01*
X147209714Y-113832550D01*
X147207461Y-113828335D01*
X147206073Y-113823761D01*
X147205000Y-113812862D01*
X147205000Y-113525138D01*
X147206073Y-113514239D01*
X147207461Y-113509665D01*
X147209714Y-113505450D01*
X147215582Y-113498300D01*
X147229196Y-113477925D01*
X147238573Y-113455286D01*
X147243354Y-113431253D01*
X147243354Y-113406749D01*
X147238574Y-113382715D01*
X147229197Y-113360076D01*
X147215582Y-113339700D01*
X147209714Y-113332550D01*
X147207461Y-113328335D01*
X147206073Y-113323761D01*
X147205000Y-113312862D01*
X147205000Y-113025138D01*
X147206073Y-113014239D01*
X147207461Y-113009665D01*
X147209714Y-113005450D01*
X147215582Y-112998300D01*
X147229196Y-112977925D01*
X147238573Y-112955286D01*
X147243354Y-112931253D01*
X147243354Y-112906749D01*
X147238574Y-112882715D01*
X147229197Y-112860076D01*
X147215582Y-112839700D01*
X147209714Y-112832550D01*
X147207461Y-112828335D01*
X147206073Y-112823761D01*
X147205000Y-112812862D01*
X147205000Y-112525138D01*
X147206073Y-112514239D01*
X147207461Y-112509665D01*
X147209714Y-112505450D01*
X147215582Y-112498300D01*
X147229196Y-112477925D01*
X147238573Y-112455286D01*
X147243354Y-112431253D01*
X147243354Y-112406749D01*
X147238574Y-112382715D01*
X147229197Y-112360076D01*
X147215582Y-112339700D01*
X147209714Y-112332550D01*
X147207461Y-112328335D01*
X147206073Y-112323761D01*
X147205000Y-112312862D01*
X147205000Y-112025138D01*
X147206073Y-112014239D01*
X147207461Y-112009665D01*
X147209714Y-112005450D01*
X147215582Y-111998300D01*
X147229196Y-111977925D01*
X147238573Y-111955286D01*
X147243354Y-111931253D01*
X147243354Y-111906749D01*
X147238574Y-111882715D01*
X147229197Y-111860076D01*
X147215582Y-111839700D01*
X147209714Y-111832550D01*
X147207461Y-111828335D01*
X147206073Y-111823761D01*
X147205000Y-111812862D01*
X147205000Y-111525138D01*
X147206073Y-111514239D01*
X147207461Y-111509665D01*
X147209714Y-111505450D01*
X147215582Y-111498300D01*
X147229196Y-111477925D01*
X147238573Y-111455286D01*
X147243354Y-111431253D01*
X147243354Y-111406749D01*
X147243354Y-111406747D01*
X148141646Y-111406747D01*
X148141646Y-111431251D01*
X148146426Y-111455285D01*
X148155803Y-111477924D01*
X148169418Y-111498300D01*
X148175286Y-111505450D01*
X148177539Y-111509665D01*
X148178927Y-111514239D01*
X148180000Y-111525138D01*
X148180000Y-111812862D01*
X148178927Y-111823761D01*
X148177539Y-111828335D01*
X148175286Y-111832550D01*
X148169418Y-111839700D01*
X148155804Y-111860075D01*
X148146427Y-111882714D01*
X148141646Y-111906747D01*
X148141646Y-111931251D01*
X148146426Y-111955285D01*
X148155803Y-111977924D01*
X148169418Y-111998300D01*
X148175286Y-112005450D01*
X148177539Y-112009665D01*
X148178927Y-112014239D01*
X148180000Y-112025138D01*
X148180000Y-112312862D01*
X148178927Y-112323761D01*
X148177539Y-112328335D01*
X148175286Y-112332550D01*
X148169418Y-112339700D01*
X148155804Y-112360075D01*
X148146427Y-112382714D01*
X148141646Y-112406747D01*
X148141646Y-112431251D01*
X148146426Y-112455285D01*
X148155803Y-112477924D01*
X148169418Y-112498300D01*
X148175286Y-112505450D01*
X148177539Y-112509665D01*
X148178927Y-112514239D01*
X148180000Y-112525138D01*
X148180000Y-112812862D01*
X148178927Y-112823761D01*
X148177539Y-112828335D01*
X148175286Y-112832550D01*
X148169418Y-112839700D01*
X148155804Y-112860075D01*
X148146427Y-112882714D01*
X148141646Y-112906747D01*
X148141646Y-112931251D01*
X148146426Y-112955285D01*
X148155803Y-112977924D01*
X148169418Y-112998300D01*
X148175286Y-113005450D01*
X148177539Y-113009665D01*
X148178927Y-113014239D01*
X148180000Y-113025138D01*
X148180000Y-113312862D01*
X148178927Y-113323761D01*
X148177539Y-113328335D01*
X148175286Y-113332550D01*
X148169418Y-113339700D01*
X148155804Y-113360075D01*
X148146427Y-113382714D01*
X148141646Y-113406747D01*
X148141646Y-113431251D01*
X148146426Y-113455285D01*
X148155803Y-113477924D01*
X148169418Y-113498300D01*
X148175286Y-113505450D01*
X148177539Y-113509665D01*
X148178927Y-113514239D01*
X148180000Y-113525138D01*
X148180000Y-113812862D01*
X148178927Y-113823761D01*
X148177539Y-113828335D01*
X148175286Y-113832550D01*
X148169418Y-113839700D01*
X148155804Y-113860075D01*
X148146427Y-113882714D01*
X148141646Y-113906747D01*
X148141646Y-113931251D01*
X148146426Y-113955285D01*
X148155803Y-113977924D01*
X148169418Y-113998300D01*
X148175286Y-114005450D01*
X148177539Y-114009665D01*
X148178927Y-114014239D01*
X148180000Y-114025138D01*
X148180000Y-114312862D01*
X148178927Y-114323761D01*
X148177539Y-114328335D01*
X148175286Y-114332550D01*
X148169418Y-114339700D01*
X148155804Y-114360075D01*
X148146427Y-114382714D01*
X148141646Y-114406747D01*
X148141646Y-114431251D01*
X148146426Y-114455285D01*
X148155803Y-114477924D01*
X148169418Y-114498300D01*
X148175286Y-114505450D01*
X148177539Y-114509665D01*
X148178927Y-114514239D01*
X148180000Y-114525138D01*
X148180000Y-114812862D01*
X148178927Y-114823761D01*
X148177539Y-114828335D01*
X148175286Y-114832550D01*
X148169418Y-114839700D01*
X148155804Y-114860075D01*
X148146427Y-114882714D01*
X148141646Y-114906747D01*
X148141646Y-114931251D01*
X148146426Y-114955285D01*
X148155803Y-114977924D01*
X148169418Y-114998300D01*
X148175286Y-115005450D01*
X148177539Y-115009665D01*
X148178927Y-115014239D01*
X148180000Y-115025138D01*
X148180000Y-115312862D01*
X148178927Y-115323761D01*
X148177539Y-115328335D01*
X148175286Y-115332550D01*
X148169418Y-115339700D01*
X148155804Y-115360075D01*
X148146427Y-115382714D01*
X148141646Y-115406747D01*
X148141646Y-115431251D01*
X148146426Y-115455285D01*
X148155803Y-115477924D01*
X148169418Y-115498300D01*
X148175286Y-115505450D01*
X148177539Y-115509665D01*
X148178927Y-115514239D01*
X148180000Y-115525138D01*
X148180000Y-115812862D01*
X148178927Y-115823761D01*
X148177539Y-115828335D01*
X148175286Y-115832550D01*
X148169418Y-115839700D01*
X148155804Y-115860075D01*
X148146427Y-115882714D01*
X148141646Y-115906747D01*
X148141646Y-115931251D01*
X148146426Y-115955285D01*
X148155803Y-115977924D01*
X148169418Y-115998300D01*
X148175286Y-116005450D01*
X148177539Y-116009665D01*
X148178927Y-116014239D01*
X148180000Y-116025138D01*
X148180000Y-116312862D01*
X148178927Y-116323761D01*
X148177539Y-116328335D01*
X148175286Y-116332550D01*
X148169418Y-116339700D01*
X148155804Y-116360075D01*
X148146427Y-116382714D01*
X148141646Y-116406747D01*
X148141646Y-116431251D01*
X148146426Y-116455285D01*
X148155803Y-116477924D01*
X148169418Y-116498300D01*
X148175286Y-116505450D01*
X148177539Y-116509665D01*
X148178927Y-116514239D01*
X148180000Y-116525138D01*
X148180000Y-116744000D01*
X148182402Y-116768386D01*
X148189515Y-116791835D01*
X148201066Y-116813446D01*
X148216612Y-116832388D01*
X148235554Y-116847934D01*
X148257165Y-116859485D01*
X148280614Y-116866598D01*
X148305000Y-116869000D01*
X148523862Y-116869000D01*
X148534761Y-116870073D01*
X148539335Y-116871461D01*
X148543550Y-116873714D01*
X148550700Y-116879582D01*
X148571075Y-116893196D01*
X148593714Y-116902573D01*
X148617747Y-116907354D01*
X148642251Y-116907354D01*
X148666285Y-116902574D01*
X148688924Y-116893197D01*
X148709300Y-116879582D01*
X148716450Y-116873714D01*
X148720665Y-116871461D01*
X148725239Y-116870073D01*
X148736138Y-116869000D01*
X149023862Y-116869000D01*
X149034761Y-116870073D01*
X149039335Y-116871461D01*
X149043550Y-116873714D01*
X149050700Y-116879582D01*
X149071075Y-116893196D01*
X149093714Y-116902573D01*
X149117747Y-116907354D01*
X149142251Y-116907354D01*
X149166285Y-116902574D01*
X149188924Y-116893197D01*
X149209300Y-116879582D01*
X149216450Y-116873714D01*
X149220665Y-116871461D01*
X149225239Y-116870073D01*
X149236138Y-116869000D01*
X149523862Y-116869000D01*
X149534761Y-116870073D01*
X149539335Y-116871461D01*
X149543550Y-116873714D01*
X149550700Y-116879582D01*
X149571075Y-116893196D01*
X149593714Y-116902573D01*
X149617747Y-116907354D01*
X149642251Y-116907354D01*
X149666285Y-116902574D01*
X149688924Y-116893197D01*
X149709300Y-116879582D01*
X149716450Y-116873714D01*
X149720665Y-116871461D01*
X149725239Y-116870073D01*
X149736138Y-116869000D01*
X150023862Y-116869000D01*
X150034761Y-116870073D01*
X150039335Y-116871461D01*
X150043550Y-116873714D01*
X150050700Y-116879582D01*
X150071075Y-116893196D01*
X150093714Y-116902573D01*
X150117747Y-116907354D01*
X150142251Y-116907354D01*
X150166285Y-116902574D01*
X150188924Y-116893197D01*
X150209300Y-116879582D01*
X150216450Y-116873714D01*
X150220665Y-116871461D01*
X150225239Y-116870073D01*
X150236138Y-116869000D01*
X150523862Y-116869000D01*
X150534761Y-116870073D01*
X150539335Y-116871461D01*
X150543550Y-116873714D01*
X150550700Y-116879582D01*
X150571075Y-116893196D01*
X150593714Y-116902573D01*
X150617747Y-116907354D01*
X150642251Y-116907354D01*
X150666285Y-116902574D01*
X150688924Y-116893197D01*
X150709300Y-116879582D01*
X150716450Y-116873714D01*
X150720665Y-116871461D01*
X150725239Y-116870073D01*
X150736138Y-116869000D01*
X151023862Y-116869000D01*
X151034761Y-116870073D01*
X151039335Y-116871461D01*
X151043550Y-116873714D01*
X151050700Y-116879582D01*
X151071075Y-116893196D01*
X151093714Y-116902573D01*
X151117747Y-116907354D01*
X151142251Y-116907354D01*
X151166285Y-116902574D01*
X151188924Y-116893197D01*
X151209300Y-116879582D01*
X151216450Y-116873714D01*
X151220665Y-116871461D01*
X151225239Y-116870073D01*
X151236138Y-116869000D01*
X151523862Y-116869000D01*
X151534761Y-116870073D01*
X151539335Y-116871461D01*
X151543550Y-116873714D01*
X151550700Y-116879582D01*
X151571075Y-116893196D01*
X151593714Y-116902573D01*
X151617747Y-116907354D01*
X151642251Y-116907354D01*
X151666285Y-116902574D01*
X151688924Y-116893197D01*
X151709300Y-116879582D01*
X151716450Y-116873714D01*
X151720665Y-116871461D01*
X151725239Y-116870073D01*
X151736138Y-116869000D01*
X152023862Y-116869000D01*
X152034761Y-116870073D01*
X152039335Y-116871461D01*
X152043550Y-116873714D01*
X152050700Y-116879582D01*
X152071075Y-116893196D01*
X152093714Y-116902573D01*
X152117747Y-116907354D01*
X152142251Y-116907354D01*
X152166285Y-116902574D01*
X152188924Y-116893197D01*
X152209300Y-116879582D01*
X152216450Y-116873714D01*
X152220665Y-116871461D01*
X152225239Y-116870073D01*
X152236138Y-116869000D01*
X152523862Y-116869000D01*
X152534761Y-116870073D01*
X152539335Y-116871461D01*
X152543550Y-116873714D01*
X152550700Y-116879582D01*
X152571075Y-116893196D01*
X152593714Y-116902573D01*
X152617747Y-116907354D01*
X152642251Y-116907354D01*
X152666285Y-116902574D01*
X152688924Y-116893197D01*
X152709300Y-116879582D01*
X152716450Y-116873714D01*
X152720665Y-116871461D01*
X152725239Y-116870073D01*
X152736138Y-116869000D01*
X153023862Y-116869000D01*
X153034761Y-116870073D01*
X153039335Y-116871461D01*
X153043550Y-116873714D01*
X153050700Y-116879582D01*
X153071075Y-116893196D01*
X153093714Y-116902573D01*
X153117747Y-116907354D01*
X153142251Y-116907354D01*
X153166285Y-116902574D01*
X153188924Y-116893197D01*
X153209300Y-116879582D01*
X153216450Y-116873714D01*
X153220665Y-116871461D01*
X153225239Y-116870073D01*
X153236138Y-116869000D01*
X153523862Y-116869000D01*
X153534761Y-116870073D01*
X153539335Y-116871461D01*
X153543550Y-116873714D01*
X153550700Y-116879582D01*
X153571075Y-116893196D01*
X153593714Y-116902573D01*
X153617747Y-116907354D01*
X153642251Y-116907354D01*
X153666285Y-116902574D01*
X153688924Y-116893197D01*
X153709300Y-116879582D01*
X153716450Y-116873714D01*
X153720665Y-116871461D01*
X153725239Y-116870073D01*
X153736138Y-116869000D01*
X153955000Y-116869000D01*
X153979386Y-116866598D01*
X154002835Y-116859485D01*
X154024446Y-116847934D01*
X154043388Y-116832388D01*
X154058934Y-116813446D01*
X154070485Y-116791835D01*
X154077598Y-116768386D01*
X154080000Y-116744000D01*
X154080000Y-116525138D01*
X154081073Y-116514239D01*
X154082461Y-116509665D01*
X154084714Y-116505450D01*
X154090582Y-116498300D01*
X154104196Y-116477925D01*
X154113573Y-116455286D01*
X154118354Y-116431253D01*
X154118354Y-116406749D01*
X154113574Y-116382715D01*
X154104197Y-116360076D01*
X154090582Y-116339700D01*
X154084714Y-116332550D01*
X154082461Y-116328335D01*
X154081073Y-116323761D01*
X154080000Y-116312862D01*
X154080000Y-116025138D01*
X154081073Y-116014239D01*
X154082461Y-116009665D01*
X154084714Y-116005450D01*
X154090582Y-115998300D01*
X154104196Y-115977925D01*
X154113573Y-115955286D01*
X154118354Y-115931253D01*
X154118354Y-115906749D01*
X154113574Y-115882715D01*
X154104197Y-115860076D01*
X154090582Y-115839700D01*
X154084714Y-115832550D01*
X154082461Y-115828335D01*
X154081073Y-115823761D01*
X154080000Y-115812862D01*
X154080000Y-115525138D01*
X154081073Y-115514239D01*
X154082461Y-115509665D01*
X154084714Y-115505450D01*
X154090582Y-115498300D01*
X154104196Y-115477925D01*
X154113573Y-115455286D01*
X154118354Y-115431253D01*
X154118354Y-115406749D01*
X154113574Y-115382715D01*
X154104197Y-115360076D01*
X154090582Y-115339700D01*
X154084714Y-115332550D01*
X154082461Y-115328335D01*
X154081073Y-115323761D01*
X154080000Y-115312862D01*
X154080000Y-115025138D01*
X154081073Y-115014239D01*
X154082461Y-115009665D01*
X154084714Y-115005450D01*
X154090582Y-114998300D01*
X154104196Y-114977925D01*
X154113573Y-114955286D01*
X154118354Y-114931253D01*
X154118354Y-114906749D01*
X154113574Y-114882715D01*
X154104197Y-114860076D01*
X154090582Y-114839700D01*
X154084714Y-114832550D01*
X154082461Y-114828335D01*
X154081073Y-114823761D01*
X154080000Y-114812862D01*
X154080000Y-114525138D01*
X154081073Y-114514239D01*
X154082461Y-114509665D01*
X154084714Y-114505450D01*
X154090582Y-114498300D01*
X154104196Y-114477925D01*
X154113573Y-114455286D01*
X154118354Y-114431253D01*
X154118354Y-114406749D01*
X154113574Y-114382715D01*
X154104197Y-114360076D01*
X154090582Y-114339700D01*
X154084714Y-114332550D01*
X154082461Y-114328335D01*
X154081073Y-114323761D01*
X154080000Y-114312862D01*
X154080000Y-114025138D01*
X154081073Y-114014239D01*
X154082461Y-114009665D01*
X154084714Y-114005450D01*
X154090582Y-113998300D01*
X154104196Y-113977925D01*
X154113573Y-113955286D01*
X154118354Y-113931253D01*
X154118354Y-113906749D01*
X154113574Y-113882715D01*
X154104197Y-113860076D01*
X154090582Y-113839700D01*
X154084714Y-113832550D01*
X154082461Y-113828335D01*
X154081073Y-113823761D01*
X154080000Y-113812862D01*
X154080000Y-113525138D01*
X154081073Y-113514239D01*
X154082461Y-113509665D01*
X154084714Y-113505450D01*
X154090582Y-113498300D01*
X154104196Y-113477925D01*
X154113573Y-113455286D01*
X154118354Y-113431253D01*
X154118354Y-113406749D01*
X154113574Y-113382715D01*
X154104197Y-113360076D01*
X154090582Y-113339700D01*
X154084714Y-113332550D01*
X154082461Y-113328335D01*
X154081073Y-113323761D01*
X154080000Y-113312862D01*
X154080000Y-113025138D01*
X154081073Y-113014239D01*
X154082461Y-113009665D01*
X154084714Y-113005450D01*
X154090582Y-112998300D01*
X154104196Y-112977925D01*
X154113573Y-112955286D01*
X154118354Y-112931253D01*
X154118354Y-112906749D01*
X154113574Y-112882715D01*
X154104197Y-112860076D01*
X154090582Y-112839700D01*
X154084714Y-112832550D01*
X154082461Y-112828335D01*
X154081073Y-112823761D01*
X154080000Y-112812862D01*
X154080000Y-112525138D01*
X154081073Y-112514239D01*
X154082461Y-112509665D01*
X154084714Y-112505450D01*
X154090582Y-112498300D01*
X154104196Y-112477925D01*
X154113573Y-112455286D01*
X154118354Y-112431253D01*
X154118354Y-112406749D01*
X154113574Y-112382715D01*
X154104197Y-112360076D01*
X154090582Y-112339700D01*
X154084714Y-112332550D01*
X154082461Y-112328335D01*
X154081073Y-112323761D01*
X154080000Y-112312862D01*
X154080000Y-112025138D01*
X154081073Y-112014239D01*
X154082461Y-112009665D01*
X154084714Y-112005450D01*
X154090582Y-111998300D01*
X154104196Y-111977925D01*
X154113573Y-111955286D01*
X154118354Y-111931253D01*
X154118354Y-111906749D01*
X154113574Y-111882715D01*
X154104197Y-111860076D01*
X154090582Y-111839700D01*
X154084714Y-111832550D01*
X154082461Y-111828335D01*
X154081073Y-111823761D01*
X154080000Y-111812862D01*
X154080000Y-111525138D01*
X154081073Y-111514239D01*
X154082461Y-111509665D01*
X154084714Y-111505450D01*
X154090582Y-111498300D01*
X154104196Y-111477925D01*
X154113573Y-111455286D01*
X154118354Y-111431253D01*
X154118354Y-111406749D01*
X154113574Y-111382715D01*
X154104197Y-111360076D01*
X154090582Y-111339700D01*
X154084714Y-111332550D01*
X154082461Y-111328335D01*
X154081073Y-111323761D01*
X154080000Y-111312862D01*
X154080000Y-111094000D01*
X154077598Y-111069614D01*
X154070485Y-111046165D01*
X154058934Y-111024554D01*
X154043388Y-111005612D01*
X154024446Y-110990066D01*
X154002835Y-110978515D01*
X153979386Y-110971402D01*
X153955000Y-110969000D01*
X153736138Y-110969000D01*
X153725239Y-110967927D01*
X153720665Y-110966539D01*
X153716450Y-110964286D01*
X153709300Y-110958418D01*
X153688925Y-110944804D01*
X153666286Y-110935427D01*
X153642253Y-110930646D01*
X153617749Y-110930646D01*
X153593715Y-110935426D01*
X153571076Y-110944803D01*
X153550700Y-110958418D01*
X153543550Y-110964286D01*
X153539335Y-110966539D01*
X153534761Y-110967927D01*
X153523862Y-110969000D01*
X153236138Y-110969000D01*
X153225239Y-110967927D01*
X153220665Y-110966539D01*
X153216450Y-110964286D01*
X153209300Y-110958418D01*
X153188925Y-110944804D01*
X153166286Y-110935427D01*
X153142253Y-110930646D01*
X153117749Y-110930646D01*
X153093715Y-110935426D01*
X153071076Y-110944803D01*
X153050700Y-110958418D01*
X153043550Y-110964286D01*
X153039335Y-110966539D01*
X153034761Y-110967927D01*
X153023862Y-110969000D01*
X152736138Y-110969000D01*
X152725239Y-110967927D01*
X152720665Y-110966539D01*
X152716450Y-110964286D01*
X152709300Y-110958418D01*
X152688925Y-110944804D01*
X152666286Y-110935427D01*
X152642253Y-110930646D01*
X152617749Y-110930646D01*
X152593715Y-110935426D01*
X152571076Y-110944803D01*
X152550700Y-110958418D01*
X152543550Y-110964286D01*
X152539335Y-110966539D01*
X152534761Y-110967927D01*
X152523862Y-110969000D01*
X152236138Y-110969000D01*
X152225239Y-110967927D01*
X152220665Y-110966539D01*
X152216450Y-110964286D01*
X152209300Y-110958418D01*
X152188925Y-110944804D01*
X152166286Y-110935427D01*
X152142253Y-110930646D01*
X152117749Y-110930646D01*
X152093715Y-110935426D01*
X152071076Y-110944803D01*
X152050700Y-110958418D01*
X152043550Y-110964286D01*
X152039335Y-110966539D01*
X152034761Y-110967927D01*
X152023862Y-110969000D01*
X151736138Y-110969000D01*
X151725239Y-110967927D01*
X151720665Y-110966539D01*
X151716450Y-110964286D01*
X151709300Y-110958418D01*
X151688925Y-110944804D01*
X151666286Y-110935427D01*
X151642253Y-110930646D01*
X151617749Y-110930646D01*
X151593715Y-110935426D01*
X151571076Y-110944803D01*
X151550700Y-110958418D01*
X151543550Y-110964286D01*
X151539335Y-110966539D01*
X151534761Y-110967927D01*
X151523862Y-110969000D01*
X151236138Y-110969000D01*
X151225239Y-110967927D01*
X151220665Y-110966539D01*
X151216450Y-110964286D01*
X151209300Y-110958418D01*
X151188925Y-110944804D01*
X151166286Y-110935427D01*
X151142253Y-110930646D01*
X151117749Y-110930646D01*
X151093715Y-110935426D01*
X151071076Y-110944803D01*
X151050700Y-110958418D01*
X151043550Y-110964286D01*
X151039335Y-110966539D01*
X151034761Y-110967927D01*
X151023862Y-110969000D01*
X150736138Y-110969000D01*
X150725239Y-110967927D01*
X150720665Y-110966539D01*
X150716450Y-110964286D01*
X150709300Y-110958418D01*
X150688925Y-110944804D01*
X150666286Y-110935427D01*
X150642253Y-110930646D01*
X150617749Y-110930646D01*
X150593715Y-110935426D01*
X150571076Y-110944803D01*
X150550700Y-110958418D01*
X150543550Y-110964286D01*
X150539335Y-110966539D01*
X150534761Y-110967927D01*
X150523862Y-110969000D01*
X150236138Y-110969000D01*
X150225239Y-110967927D01*
X150220665Y-110966539D01*
X150216450Y-110964286D01*
X150209300Y-110958418D01*
X150188925Y-110944804D01*
X150166286Y-110935427D01*
X150142253Y-110930646D01*
X150117749Y-110930646D01*
X150093715Y-110935426D01*
X150071076Y-110944803D01*
X150050700Y-110958418D01*
X150043550Y-110964286D01*
X150039335Y-110966539D01*
X150034761Y-110967927D01*
X150023862Y-110969000D01*
X149736138Y-110969000D01*
X149725239Y-110967927D01*
X149720665Y-110966539D01*
X149716450Y-110964286D01*
X149709300Y-110958418D01*
X149688925Y-110944804D01*
X149666286Y-110935427D01*
X149642253Y-110930646D01*
X149617749Y-110930646D01*
X149593715Y-110935426D01*
X149571076Y-110944803D01*
X149550700Y-110958418D01*
X149543550Y-110964286D01*
X149539335Y-110966539D01*
X149534761Y-110967927D01*
X149523862Y-110969000D01*
X149236138Y-110969000D01*
X149225239Y-110967927D01*
X149220665Y-110966539D01*
X149216450Y-110964286D01*
X149209300Y-110958418D01*
X149188925Y-110944804D01*
X149166286Y-110935427D01*
X149142253Y-110930646D01*
X149117749Y-110930646D01*
X149093715Y-110935426D01*
X149071076Y-110944803D01*
X149050700Y-110958418D01*
X149043550Y-110964286D01*
X149039335Y-110966539D01*
X149034761Y-110967927D01*
X149023862Y-110969000D01*
X148736138Y-110969000D01*
X148725239Y-110967927D01*
X148720665Y-110966539D01*
X148716450Y-110964286D01*
X148709300Y-110958418D01*
X148688925Y-110944804D01*
X148666286Y-110935427D01*
X148642253Y-110930646D01*
X148617749Y-110930646D01*
X148593715Y-110935426D01*
X148571076Y-110944803D01*
X148550700Y-110958418D01*
X148543550Y-110964286D01*
X148539335Y-110966539D01*
X148534761Y-110967927D01*
X148523862Y-110969000D01*
X148305000Y-110969000D01*
X148280614Y-110971402D01*
X148257165Y-110978515D01*
X148235554Y-110990066D01*
X148216612Y-111005612D01*
X148201066Y-111024554D01*
X148189515Y-111046165D01*
X148182402Y-111069614D01*
X148180000Y-111094000D01*
X148180000Y-111312862D01*
X148178927Y-111323761D01*
X148177539Y-111328335D01*
X148175286Y-111332550D01*
X148169418Y-111339700D01*
X148155804Y-111360075D01*
X148146427Y-111382714D01*
X148141646Y-111406747D01*
X147243354Y-111406747D01*
X147238574Y-111382715D01*
X147229197Y-111360076D01*
X147215582Y-111339700D01*
X147209714Y-111332550D01*
X147207461Y-111328335D01*
X147206073Y-111323761D01*
X147205000Y-111312862D01*
X147205000Y-111025138D01*
X147206073Y-111014239D01*
X147207461Y-111009665D01*
X147209716Y-111005447D01*
X147212750Y-111001750D01*
X147216447Y-110998716D01*
X147220665Y-110996461D01*
X147225239Y-110995073D01*
X147236138Y-110994000D01*
X148080000Y-110994000D01*
X148104386Y-110991598D01*
X148127835Y-110984485D01*
X148149446Y-110972934D01*
X148168388Y-110957388D01*
X148183934Y-110938446D01*
X148195485Y-110916835D01*
X148202598Y-110893386D01*
X148205000Y-110869000D01*
X148205000Y-110025138D01*
X148206073Y-110014239D01*
X148207461Y-110009665D01*
X148209716Y-110005447D01*
X148212750Y-110001750D01*
X148216447Y-109998716D01*
X148220665Y-109996461D01*
X148225239Y-109995073D01*
X148236138Y-109994000D01*
X148523862Y-109994000D01*
X148534761Y-109995073D01*
X148534761Y-109995073D01*
G37*
G36*
X153640590Y-111297321D02*
X153667115Y-111305368D01*
X153691561Y-111318434D01*
X153712984Y-111336016D01*
X153730566Y-111357439D01*
X153743632Y-111381885D01*
X153751679Y-111408410D01*
X153755000Y-111442132D01*
X153755000Y-116395868D01*
X153751679Y-116429590D01*
X153743632Y-116456115D01*
X153730566Y-116480561D01*
X153712984Y-116501984D01*
X153691561Y-116519566D01*
X153667115Y-116532632D01*
X153640590Y-116540679D01*
X153606868Y-116544000D01*
X148653132Y-116544000D01*
X148619410Y-116540679D01*
X148592885Y-116532632D01*
X148568439Y-116519566D01*
X148547016Y-116501984D01*
X148529434Y-116480561D01*
X148516368Y-116456115D01*
X148508321Y-116429590D01*
X148505000Y-116395868D01*
X148505000Y-111442132D01*
X148508321Y-111408410D01*
X148516368Y-111381885D01*
X148529434Y-111357439D01*
X148547016Y-111336016D01*
X148568439Y-111318434D01*
X148592885Y-111305368D01*
X148619410Y-111297321D01*
X148653132Y-111294000D01*
X153606868Y-111294000D01*
X153640590Y-111297321D01*
X153640590Y-111297321D01*
G37*
G36*
X143692432Y-114692122D02*
X143862081Y-114743585D01*
X144018433Y-114827156D01*
X144155475Y-114939625D01*
X144267944Y-115076667D01*
X144351515Y-115233019D01*
X144402978Y-115402668D01*
X144420354Y-115579100D01*
X144402978Y-115755532D01*
X144351515Y-115925181D01*
X144267944Y-116081533D01*
X144155475Y-116218575D01*
X144018433Y-116331044D01*
X143862081Y-116414615D01*
X143692432Y-116466078D01*
X143560211Y-116479100D01*
X143471789Y-116479100D01*
X143339568Y-116466078D01*
X143169919Y-116414615D01*
X143013567Y-116331044D01*
X142876525Y-116218575D01*
X142764056Y-116081533D01*
X142680485Y-115925181D01*
X142629022Y-115755532D01*
X142611646Y-115579100D01*
X142629022Y-115402668D01*
X142680485Y-115233019D01*
X142764056Y-115076667D01*
X142876525Y-114939625D01*
X143013567Y-114827156D01*
X143169919Y-114743585D01*
X143339568Y-114692122D01*
X143471789Y-114679100D01*
X143560211Y-114679100D01*
X143692432Y-114692122D01*
X143692432Y-114692122D01*
G37*
G36*
X158932432Y-114692122D02*
X159102081Y-114743585D01*
X159258433Y-114827156D01*
X159395475Y-114939625D01*
X159507944Y-115076667D01*
X159591515Y-115233019D01*
X159642978Y-115402668D01*
X159660354Y-115579100D01*
X159642978Y-115755532D01*
X159591515Y-115925181D01*
X159507944Y-116081533D01*
X159395475Y-116218575D01*
X159258433Y-116331044D01*
X159102081Y-116414615D01*
X158932432Y-116466078D01*
X158800211Y-116479100D01*
X158711789Y-116479100D01*
X158579568Y-116466078D01*
X158409919Y-116414615D01*
X158253567Y-116331044D01*
X158116525Y-116218575D01*
X158004056Y-116081533D01*
X157920485Y-115925181D01*
X157869022Y-115755532D01*
X157851646Y-115579100D01*
X157869022Y-115402668D01*
X157920485Y-115233019D01*
X158004056Y-115076667D01*
X158116525Y-114939625D01*
X158253567Y-114827156D01*
X158409919Y-114743585D01*
X158579568Y-114692122D01*
X158711789Y-114679100D01*
X158800211Y-114679100D01*
X158932432Y-114692122D01*
X158932432Y-114692122D01*
G37*
G36*
X143692432Y-112152122D02*
X143862081Y-112203585D01*
X144018433Y-112287156D01*
X144155475Y-112399625D01*
X144267944Y-112536667D01*
X144351515Y-112693019D01*
X144402978Y-112862668D01*
X144420354Y-113039100D01*
X144402978Y-113215532D01*
X144351515Y-113385181D01*
X144267944Y-113541533D01*
X144155475Y-113678575D01*
X144018433Y-113791044D01*
X143862081Y-113874615D01*
X143692432Y-113926078D01*
X143560211Y-113939100D01*
X143471789Y-113939100D01*
X143339568Y-113926078D01*
X143169919Y-113874615D01*
X143013567Y-113791044D01*
X142876525Y-113678575D01*
X142764056Y-113541533D01*
X142680485Y-113385181D01*
X142629022Y-113215532D01*
X142611646Y-113039100D01*
X142629022Y-112862668D01*
X142680485Y-112693019D01*
X142764056Y-112536667D01*
X142876525Y-112399625D01*
X143013567Y-112287156D01*
X143169919Y-112203585D01*
X143339568Y-112152122D01*
X143471789Y-112139100D01*
X143560211Y-112139100D01*
X143692432Y-112152122D01*
X143692432Y-112152122D01*
G37*
G36*
X158932432Y-112152122D02*
X159102081Y-112203585D01*
X159258433Y-112287156D01*
X159395475Y-112399625D01*
X159507944Y-112536667D01*
X159591515Y-112693019D01*
X159642978Y-112862668D01*
X159660354Y-113039100D01*
X159642978Y-113215532D01*
X159591515Y-113385181D01*
X159507944Y-113541533D01*
X159395475Y-113678575D01*
X159258433Y-113791044D01*
X159102081Y-113874615D01*
X158932432Y-113926078D01*
X158800211Y-113939100D01*
X158711789Y-113939100D01*
X158579568Y-113926078D01*
X158409919Y-113874615D01*
X158253567Y-113791044D01*
X158116525Y-113678575D01*
X158004056Y-113541533D01*
X157920485Y-113385181D01*
X157869022Y-113215532D01*
X157851646Y-113039100D01*
X157869022Y-112862668D01*
X157920485Y-112693019D01*
X158004056Y-112536667D01*
X158116525Y-112399625D01*
X158253567Y-112287156D01*
X158409919Y-112203585D01*
X158579568Y-112152122D01*
X158711789Y-112139100D01*
X158800211Y-112139100D01*
X158932432Y-112152122D01*
X158932432Y-112152122D01*
G37*
G36*
X158932432Y-109612122D02*
X159102081Y-109663585D01*
X159258433Y-109747156D01*
X159395475Y-109859625D01*
X159507944Y-109996667D01*
X159591515Y-110153019D01*
X159642978Y-110322668D01*
X159660354Y-110499100D01*
X159642978Y-110675532D01*
X159591515Y-110845181D01*
X159507944Y-111001533D01*
X159395475Y-111138575D01*
X159258433Y-111251044D01*
X159102081Y-111334615D01*
X158932432Y-111386078D01*
X158800211Y-111399100D01*
X158711789Y-111399100D01*
X158579568Y-111386078D01*
X158409919Y-111334615D01*
X158253567Y-111251044D01*
X158116525Y-111138575D01*
X158004056Y-111001533D01*
X157920485Y-110845181D01*
X157869022Y-110675532D01*
X157851646Y-110499100D01*
X157869022Y-110322668D01*
X157920485Y-110153019D01*
X158004056Y-109996667D01*
X158116525Y-109859625D01*
X158253567Y-109747156D01*
X158409919Y-109663585D01*
X158579568Y-109612122D01*
X158711789Y-109599100D01*
X158800211Y-109599100D01*
X158932432Y-109612122D01*
X158932432Y-109612122D01*
G37*
G36*
X143692432Y-109612122D02*
X143862081Y-109663585D01*
X144018433Y-109747156D01*
X144155475Y-109859625D01*
X144267944Y-109996667D01*
X144351515Y-110153019D01*
X144402978Y-110322668D01*
X144420354Y-110499100D01*
X144402978Y-110675532D01*
X144351515Y-110845181D01*
X144267944Y-111001533D01*
X144155475Y-111138575D01*
X144018433Y-111251044D01*
X143862081Y-111334615D01*
X143692432Y-111386078D01*
X143560211Y-111399100D01*
X143471789Y-111399100D01*
X143339568Y-111386078D01*
X143169919Y-111334615D01*
X143013567Y-111251044D01*
X142876525Y-111138575D01*
X142764056Y-111001533D01*
X142680485Y-110845181D01*
X142629022Y-110675532D01*
X142611646Y-110499100D01*
X142629022Y-110322668D01*
X142680485Y-110153019D01*
X142764056Y-109996667D01*
X142876525Y-109859625D01*
X143013567Y-109747156D01*
X143169919Y-109663585D01*
X143339568Y-109612122D01*
X143471789Y-109599100D01*
X143560211Y-109599100D01*
X143692432Y-109612122D01*
X143692432Y-109612122D01*
G37*
G36*
X143692432Y-107072122D02*
X143862081Y-107123585D01*
X144018433Y-107207156D01*
X144155475Y-107319625D01*
X144267944Y-107456667D01*
X144351515Y-107613019D01*
X144402978Y-107782668D01*
X144420354Y-107959100D01*
X144402978Y-108135532D01*
X144351515Y-108305181D01*
X144267944Y-108461533D01*
X144155475Y-108598575D01*
X144018433Y-108711044D01*
X143862081Y-108794615D01*
X143692432Y-108846078D01*
X143560211Y-108859100D01*
X143471789Y-108859100D01*
X143339568Y-108846078D01*
X143169919Y-108794615D01*
X143013567Y-108711044D01*
X142876525Y-108598575D01*
X142764056Y-108461533D01*
X142680485Y-108305181D01*
X142629022Y-108135532D01*
X142611646Y-107959100D01*
X142629022Y-107782668D01*
X142680485Y-107613019D01*
X142764056Y-107456667D01*
X142876525Y-107319625D01*
X143013567Y-107207156D01*
X143169919Y-107123585D01*
X143339568Y-107072122D01*
X143471789Y-107059100D01*
X143560211Y-107059100D01*
X143692432Y-107072122D01*
X143692432Y-107072122D01*
G37*
G36*
X158932432Y-107072122D02*
X159102081Y-107123585D01*
X159258433Y-107207156D01*
X159395475Y-107319625D01*
X159507944Y-107456667D01*
X159591515Y-107613019D01*
X159642978Y-107782668D01*
X159660354Y-107959100D01*
X159642978Y-108135532D01*
X159591515Y-108305181D01*
X159507944Y-108461533D01*
X159395475Y-108598575D01*
X159258433Y-108711044D01*
X159102081Y-108794615D01*
X158932432Y-108846078D01*
X158800211Y-108859100D01*
X158711789Y-108859100D01*
X158579568Y-108846078D01*
X158409919Y-108794615D01*
X158253567Y-108711044D01*
X158116525Y-108598575D01*
X158004056Y-108461533D01*
X157920485Y-108305181D01*
X157869022Y-108135532D01*
X157851646Y-107959100D01*
X157869022Y-107782668D01*
X157920485Y-107613019D01*
X158004056Y-107456667D01*
X158116525Y-107319625D01*
X158253567Y-107207156D01*
X158409919Y-107123585D01*
X158579568Y-107072122D01*
X158711789Y-107059100D01*
X158800211Y-107059100D01*
X158932432Y-107072122D01*
X158932432Y-107072122D01*
G37*
G36*
X153824340Y-108156206D02*
X153844866Y-108162433D01*
X153863773Y-108172539D01*
X153880354Y-108186146D01*
X153893961Y-108202727D01*
X153904067Y-108221634D01*
X153910294Y-108242160D01*
X153913000Y-108269638D01*
X153913000Y-108727362D01*
X153910294Y-108754840D01*
X153904067Y-108775366D01*
X153893961Y-108794273D01*
X153880354Y-108810854D01*
X153863773Y-108824461D01*
X153844866Y-108834567D01*
X153824340Y-108840794D01*
X153796862Y-108843500D01*
X153289138Y-108843500D01*
X153261660Y-108840794D01*
X153241134Y-108834567D01*
X153222227Y-108824461D01*
X153205646Y-108810854D01*
X153192039Y-108794273D01*
X153181933Y-108775366D01*
X153175706Y-108754840D01*
X153173000Y-108727362D01*
X153173000Y-108269638D01*
X153175706Y-108242160D01*
X153181933Y-108221634D01*
X153192039Y-108202727D01*
X153205646Y-108186146D01*
X153222227Y-108172539D01*
X153241134Y-108162433D01*
X153261660Y-108156206D01*
X153289138Y-108153500D01*
X153796862Y-108153500D01*
X153824340Y-108156206D01*
X153824340Y-108156206D01*
G37*
G36*
X148871340Y-108156206D02*
X148891866Y-108162433D01*
X148910773Y-108172539D01*
X148927354Y-108186146D01*
X148940961Y-108202727D01*
X148951067Y-108221634D01*
X148957294Y-108242160D01*
X148960000Y-108269638D01*
X148960000Y-108727362D01*
X148957294Y-108754840D01*
X148951067Y-108775366D01*
X148940961Y-108794273D01*
X148927354Y-108810854D01*
X148910773Y-108824461D01*
X148891866Y-108834567D01*
X148871340Y-108840794D01*
X148843862Y-108843500D01*
X148336138Y-108843500D01*
X148308660Y-108840794D01*
X148288134Y-108834567D01*
X148269227Y-108824461D01*
X148252646Y-108810854D01*
X148239039Y-108794273D01*
X148228933Y-108775366D01*
X148222706Y-108754840D01*
X148220000Y-108727362D01*
X148220000Y-108269638D01*
X148222706Y-108242160D01*
X148228933Y-108221634D01*
X148239039Y-108202727D01*
X148252646Y-108186146D01*
X148269227Y-108172539D01*
X148288134Y-108162433D01*
X148308660Y-108156206D01*
X148336138Y-108153500D01*
X148843862Y-108153500D01*
X148871340Y-108156206D01*
X148871340Y-108156206D01*
G37*
G36*
X147347340Y-108156206D02*
X147367866Y-108162433D01*
X147386773Y-108172539D01*
X147403354Y-108186146D01*
X147416961Y-108202727D01*
X147427067Y-108221634D01*
X147433294Y-108242160D01*
X147436000Y-108269638D01*
X147436000Y-108727362D01*
X147433294Y-108754840D01*
X147427067Y-108775366D01*
X147416961Y-108794273D01*
X147403354Y-108810854D01*
X147386773Y-108824461D01*
X147367866Y-108834567D01*
X147347340Y-108840794D01*
X147319862Y-108843500D01*
X146812138Y-108843500D01*
X146784660Y-108840794D01*
X146764134Y-108834567D01*
X146745227Y-108824461D01*
X146728646Y-108810854D01*
X146715039Y-108794273D01*
X146704933Y-108775366D01*
X146698706Y-108754840D01*
X146696000Y-108727362D01*
X146696000Y-108269638D01*
X146698706Y-108242160D01*
X146704933Y-108221634D01*
X146715039Y-108202727D01*
X146728646Y-108186146D01*
X146745227Y-108172539D01*
X146764134Y-108162433D01*
X146784660Y-108156206D01*
X146812138Y-108153500D01*
X147319862Y-108153500D01*
X147347340Y-108156206D01*
X147347340Y-108156206D01*
G37*
G36*
X152300340Y-108156206D02*
X152320866Y-108162433D01*
X152339773Y-108172539D01*
X152356354Y-108186146D01*
X152369961Y-108202727D01*
X152380067Y-108221634D01*
X152386294Y-108242160D01*
X152389000Y-108269638D01*
X152389000Y-108727362D01*
X152386294Y-108754840D01*
X152380067Y-108775366D01*
X152369961Y-108794273D01*
X152356354Y-108810854D01*
X152339773Y-108824461D01*
X152320866Y-108834567D01*
X152300340Y-108840794D01*
X152272862Y-108843500D01*
X151765138Y-108843500D01*
X151737660Y-108840794D01*
X151717134Y-108834567D01*
X151698227Y-108824461D01*
X151681646Y-108810854D01*
X151668039Y-108794273D01*
X151657933Y-108775366D01*
X151651706Y-108754840D01*
X151649000Y-108727362D01*
X151649000Y-108269638D01*
X151651706Y-108242160D01*
X151657933Y-108221634D01*
X151668039Y-108202727D01*
X151681646Y-108186146D01*
X151698227Y-108172539D01*
X151717134Y-108162433D01*
X151737660Y-108156206D01*
X151765138Y-108153500D01*
X152272862Y-108153500D01*
X152300340Y-108156206D01*
X152300340Y-108156206D01*
G37*
G36*
X153824340Y-107186206D02*
X153844866Y-107192433D01*
X153863773Y-107202539D01*
X153880354Y-107216146D01*
X153893961Y-107232727D01*
X153904067Y-107251634D01*
X153910294Y-107272160D01*
X153913000Y-107299638D01*
X153913000Y-107757362D01*
X153910294Y-107784840D01*
X153904067Y-107805366D01*
X153893961Y-107824273D01*
X153880354Y-107840854D01*
X153863773Y-107854461D01*
X153844866Y-107864567D01*
X153824340Y-107870794D01*
X153796862Y-107873500D01*
X153289138Y-107873500D01*
X153261660Y-107870794D01*
X153241134Y-107864567D01*
X153222227Y-107854461D01*
X153205646Y-107840854D01*
X153192039Y-107824273D01*
X153181933Y-107805366D01*
X153175706Y-107784840D01*
X153173000Y-107757362D01*
X153173000Y-107299638D01*
X153175706Y-107272160D01*
X153181933Y-107251634D01*
X153192039Y-107232727D01*
X153205646Y-107216146D01*
X153222227Y-107202539D01*
X153241134Y-107192433D01*
X153261660Y-107186206D01*
X153289138Y-107183500D01*
X153796862Y-107183500D01*
X153824340Y-107186206D01*
X153824340Y-107186206D01*
G37*
G36*
X148871340Y-107186206D02*
X148891866Y-107192433D01*
X148910773Y-107202539D01*
X148927354Y-107216146D01*
X148940961Y-107232727D01*
X148951067Y-107251634D01*
X148957294Y-107272160D01*
X148960000Y-107299638D01*
X148960000Y-107757362D01*
X148957294Y-107784840D01*
X148951067Y-107805366D01*
X148940961Y-107824273D01*
X148927354Y-107840854D01*
X148910773Y-107854461D01*
X148891866Y-107864567D01*
X148871340Y-107870794D01*
X148843862Y-107873500D01*
X148336138Y-107873500D01*
X148308660Y-107870794D01*
X148288134Y-107864567D01*
X148269227Y-107854461D01*
X148252646Y-107840854D01*
X148239039Y-107824273D01*
X148228933Y-107805366D01*
X148222706Y-107784840D01*
X148220000Y-107757362D01*
X148220000Y-107299638D01*
X148222706Y-107272160D01*
X148228933Y-107251634D01*
X148239039Y-107232727D01*
X148252646Y-107216146D01*
X148269227Y-107202539D01*
X148288134Y-107192433D01*
X148308660Y-107186206D01*
X148336138Y-107183500D01*
X148843862Y-107183500D01*
X148871340Y-107186206D01*
X148871340Y-107186206D01*
G37*
G36*
X152300340Y-107186206D02*
X152320866Y-107192433D01*
X152339773Y-107202539D01*
X152356354Y-107216146D01*
X152369961Y-107232727D01*
X152380067Y-107251634D01*
X152386294Y-107272160D01*
X152389000Y-107299638D01*
X152389000Y-107757362D01*
X152386294Y-107784840D01*
X152380067Y-107805366D01*
X152369961Y-107824273D01*
X152356354Y-107840854D01*
X152339773Y-107854461D01*
X152320866Y-107864567D01*
X152300340Y-107870794D01*
X152272862Y-107873500D01*
X151765138Y-107873500D01*
X151737660Y-107870794D01*
X151717134Y-107864567D01*
X151698227Y-107854461D01*
X151681646Y-107840854D01*
X151668039Y-107824273D01*
X151657933Y-107805366D01*
X151651706Y-107784840D01*
X151649000Y-107757362D01*
X151649000Y-107299638D01*
X151651706Y-107272160D01*
X151657933Y-107251634D01*
X151668039Y-107232727D01*
X151681646Y-107216146D01*
X151698227Y-107202539D01*
X151717134Y-107192433D01*
X151737660Y-107186206D01*
X151765138Y-107183500D01*
X152272862Y-107183500D01*
X152300340Y-107186206D01*
X152300340Y-107186206D01*
G37*
G36*
X147347340Y-107186206D02*
X147367866Y-107192433D01*
X147386773Y-107202539D01*
X147403354Y-107216146D01*
X147416961Y-107232727D01*
X147427067Y-107251634D01*
X147433294Y-107272160D01*
X147436000Y-107299638D01*
X147436000Y-107757362D01*
X147433294Y-107784840D01*
X147427067Y-107805366D01*
X147416961Y-107824273D01*
X147403354Y-107840854D01*
X147386773Y-107854461D01*
X147367866Y-107864567D01*
X147347340Y-107870794D01*
X147319862Y-107873500D01*
X146812138Y-107873500D01*
X146784660Y-107870794D01*
X146764134Y-107864567D01*
X146745227Y-107854461D01*
X146728646Y-107840854D01*
X146715039Y-107824273D01*
X146704933Y-107805366D01*
X146698706Y-107784840D01*
X146696000Y-107757362D01*
X146696000Y-107299638D01*
X146698706Y-107272160D01*
X146704933Y-107251634D01*
X146715039Y-107232727D01*
X146728646Y-107216146D01*
X146745227Y-107202539D01*
X146764134Y-107192433D01*
X146784660Y-107186206D01*
X146812138Y-107183500D01*
X147319862Y-107183500D01*
X147347340Y-107186206D01*
X147347340Y-107186206D01*
G37*
G36*
X143692432Y-104532122D02*
X143862081Y-104583585D01*
X144018433Y-104667156D01*
X144155475Y-104779625D01*
X144267944Y-104916667D01*
X144351515Y-105073019D01*
X144402978Y-105242668D01*
X144420354Y-105419100D01*
X144402978Y-105595532D01*
X144351515Y-105765181D01*
X144267944Y-105921533D01*
X144155475Y-106058575D01*
X144018433Y-106171044D01*
X143862081Y-106254615D01*
X143692432Y-106306078D01*
X143560211Y-106319100D01*
X143471789Y-106319100D01*
X143339568Y-106306078D01*
X143169919Y-106254615D01*
X143013567Y-106171044D01*
X142876525Y-106058575D01*
X142764056Y-105921533D01*
X142680485Y-105765181D01*
X142629022Y-105595532D01*
X142611646Y-105419100D01*
X142629022Y-105242668D01*
X142680485Y-105073019D01*
X142764056Y-104916667D01*
X142876525Y-104779625D01*
X143013567Y-104667156D01*
X143169919Y-104583585D01*
X143339568Y-104532122D01*
X143471789Y-104519100D01*
X143560211Y-104519100D01*
X143692432Y-104532122D01*
X143692432Y-104532122D01*
G37*
G36*
X158932432Y-104532122D02*
X159102081Y-104583585D01*
X159258433Y-104667156D01*
X159395475Y-104779625D01*
X159507944Y-104916667D01*
X159591515Y-105073019D01*
X159642978Y-105242668D01*
X159660354Y-105419100D01*
X159642978Y-105595532D01*
X159591515Y-105765181D01*
X159507944Y-105921533D01*
X159395475Y-106058575D01*
X159258433Y-106171044D01*
X159102081Y-106254615D01*
X158932432Y-106306078D01*
X158800211Y-106319100D01*
X158711789Y-106319100D01*
X158579568Y-106306078D01*
X158409919Y-106254615D01*
X158253567Y-106171044D01*
X158116525Y-106058575D01*
X158004056Y-105921533D01*
X157920485Y-105765181D01*
X157869022Y-105595532D01*
X157851646Y-105419100D01*
X157869022Y-105242668D01*
X157920485Y-105073019D01*
X158004056Y-104916667D01*
X158116525Y-104779625D01*
X158253567Y-104667156D01*
X158409919Y-104583585D01*
X158579568Y-104532122D01*
X158711789Y-104519100D01*
X158800211Y-104519100D01*
X158932432Y-104532122D01*
X158932432Y-104532122D01*
G37*
G36*
X147138000Y-106288000D02*
X145978000Y-106288000D01*
X145978000Y-103638000D01*
X147138000Y-103638000D01*
X147138000Y-106288000D01*
X147138000Y-106288000D01*
G37*
G36*
X149338000Y-106288000D02*
X148178000Y-106288000D01*
X148178000Y-105538000D01*
X149338000Y-105538000D01*
X149338000Y-106288000D01*
X149338000Y-106288000D01*
G37*
G36*
X154590000Y-106227000D02*
X153430000Y-106227000D01*
X153430000Y-105477000D01*
X154590000Y-105477000D01*
X154590000Y-106227000D01*
X154590000Y-106227000D01*
G37*
G36*
X156790000Y-106227000D02*
X155630000Y-106227000D01*
X155630000Y-103577000D01*
X156790000Y-103577000D01*
X156790000Y-106227000D01*
X156790000Y-106227000D01*
G37*
G36*
X149338000Y-104388000D02*
X148178000Y-104388000D01*
X148178000Y-103638000D01*
X149338000Y-103638000D01*
X149338000Y-104388000D01*
X149338000Y-104388000D01*
G37*
G36*
X154590000Y-104327000D02*
X153430000Y-104327000D01*
X153430000Y-103577000D01*
X154590000Y-103577000D01*
X154590000Y-104327000D01*
X154590000Y-104327000D01*
G37*
G36*
X158932432Y-101992122D02*
X159102081Y-102043585D01*
X159258433Y-102127156D01*
X159395475Y-102239625D01*
X159507944Y-102376667D01*
X159591515Y-102533019D01*
X159642978Y-102702668D01*
X159660354Y-102879100D01*
X159642978Y-103055532D01*
X159591515Y-103225181D01*
X159507944Y-103381533D01*
X159395475Y-103518575D01*
X159258433Y-103631044D01*
X159102081Y-103714615D01*
X158932432Y-103766078D01*
X158800211Y-103779100D01*
X158711789Y-103779100D01*
X158579568Y-103766078D01*
X158409919Y-103714615D01*
X158253567Y-103631044D01*
X158116525Y-103518575D01*
X158004056Y-103381533D01*
X157920485Y-103225181D01*
X157869022Y-103055532D01*
X157851646Y-102879100D01*
X157869022Y-102702668D01*
X157920485Y-102533019D01*
X158004056Y-102376667D01*
X158116525Y-102239625D01*
X158253567Y-102127156D01*
X158409919Y-102043585D01*
X158579568Y-101992122D01*
X158711789Y-101979100D01*
X158800211Y-101979100D01*
X158932432Y-101992122D01*
X158932432Y-101992122D01*
G37*
G36*
X143692432Y-101992122D02*
X143862081Y-102043585D01*
X144018433Y-102127156D01*
X144155475Y-102239625D01*
X144267944Y-102376667D01*
X144351515Y-102533019D01*
X144402978Y-102702668D01*
X144420354Y-102879100D01*
X144402978Y-103055532D01*
X144351515Y-103225181D01*
X144267944Y-103381533D01*
X144155475Y-103518575D01*
X144018433Y-103631044D01*
X143862081Y-103714615D01*
X143692432Y-103766078D01*
X143560211Y-103779100D01*
X143471789Y-103779100D01*
X143339568Y-103766078D01*
X143169919Y-103714615D01*
X143013567Y-103631044D01*
X142876525Y-103518575D01*
X142764056Y-103381533D01*
X142680485Y-103225181D01*
X142629022Y-103055532D01*
X142611646Y-102879100D01*
X142629022Y-102702668D01*
X142680485Y-102533019D01*
X142764056Y-102376667D01*
X142876525Y-102239625D01*
X143013567Y-102127156D01*
X143169919Y-102043585D01*
X143339568Y-101992122D01*
X143471789Y-101979100D01*
X143560211Y-101979100D01*
X143692432Y-101992122D01*
X143692432Y-101992122D01*
G37*
G36*
X155343000Y-102925500D02*
X154743000Y-102925500D01*
X154743000Y-101925500D01*
X155343000Y-101925500D01*
X155343000Y-102925500D01*
X155343000Y-102925500D01*
G37*
G36*
X153843000Y-102925500D02*
X153243000Y-102925500D01*
X153243000Y-101925500D01*
X153843000Y-101925500D01*
X153843000Y-102925500D01*
X153843000Y-102925500D01*
G37*
G36*
X149454000Y-99709000D02*
X149456402Y-99733386D01*
X149463515Y-99756835D01*
X149475066Y-99778446D01*
X149490612Y-99797388D01*
X149509554Y-99812934D01*
X149531165Y-99824485D01*
X149554614Y-99831598D01*
X149579000Y-99834000D01*
X152719000Y-99834000D01*
X152743386Y-99831598D01*
X152766835Y-99824485D01*
X152788446Y-99812934D01*
X152807388Y-99797388D01*
X152822934Y-99778446D01*
X152834485Y-99756835D01*
X152841598Y-99733386D01*
X152844000Y-99709000D01*
X152844000Y-99389000D01*
X154094000Y-99389000D01*
X154094000Y-100939000D01*
X152824000Y-100939000D01*
X152799614Y-100941402D01*
X152776165Y-100948515D01*
X152754554Y-100960066D01*
X152735612Y-100975612D01*
X152720066Y-100994554D01*
X152708515Y-101016165D01*
X152701402Y-101039614D01*
X152699000Y-101064000D01*
X152699000Y-101334000D01*
X149599000Y-101334000D01*
X149599000Y-101064000D01*
X149596598Y-101039614D01*
X149589485Y-101016165D01*
X149577934Y-100994554D01*
X149562388Y-100975612D01*
X149543446Y-100960066D01*
X149521835Y-100948515D01*
X149498386Y-100941402D01*
X149474000Y-100939000D01*
X148204000Y-100939000D01*
X148204000Y-99389000D01*
X149454000Y-99389000D01*
X149454000Y-99709000D01*
X149454000Y-99709000D01*
G37*
G36*
X143692432Y-99452122D02*
X143862081Y-99503585D01*
X144018433Y-99587156D01*
X144155475Y-99699625D01*
X144267944Y-99836667D01*
X144351515Y-99993019D01*
X144402978Y-100162668D01*
X144420354Y-100339100D01*
X144402978Y-100515532D01*
X144351515Y-100685181D01*
X144267944Y-100841533D01*
X144155475Y-100978575D01*
X144018433Y-101091044D01*
X143862081Y-101174615D01*
X143692432Y-101226078D01*
X143560211Y-101239100D01*
X143471789Y-101239100D01*
X143339568Y-101226078D01*
X143169919Y-101174615D01*
X143013567Y-101091044D01*
X142876525Y-100978575D01*
X142764056Y-100841533D01*
X142680485Y-100685181D01*
X142629022Y-100515532D01*
X142611646Y-100339100D01*
X142629022Y-100162668D01*
X142680485Y-99993019D01*
X142764056Y-99836667D01*
X142876525Y-99699625D01*
X143013567Y-99587156D01*
X143169919Y-99503585D01*
X143339568Y-99452122D01*
X143471789Y-99439100D01*
X143560211Y-99439100D01*
X143692432Y-99452122D01*
X143692432Y-99452122D01*
G37*
G36*
X158932432Y-99452122D02*
X159102081Y-99503585D01*
X159258433Y-99587156D01*
X159395475Y-99699625D01*
X159507944Y-99836667D01*
X159591515Y-99993019D01*
X159642978Y-100162668D01*
X159660354Y-100339100D01*
X159642978Y-100515532D01*
X159591515Y-100685181D01*
X159507944Y-100841533D01*
X159395475Y-100978575D01*
X159258433Y-101091044D01*
X159102081Y-101174615D01*
X158932432Y-101226078D01*
X158800211Y-101239100D01*
X158711789Y-101239100D01*
X158579568Y-101226078D01*
X158409919Y-101174615D01*
X158253567Y-101091044D01*
X158116525Y-100978575D01*
X158004056Y-100841533D01*
X157920485Y-100685181D01*
X157869022Y-100515532D01*
X157851646Y-100339100D01*
X157869022Y-100162668D01*
X157920485Y-99993019D01*
X158004056Y-99836667D01*
X158116525Y-99699625D01*
X158253567Y-99587156D01*
X158409919Y-99503585D01*
X158579568Y-99452122D01*
X158711789Y-99439100D01*
X158800211Y-99439100D01*
X158932432Y-99452122D01*
X158932432Y-99452122D01*
G37*
G36*
X155763992Y-99999576D02*
X155797883Y-100009857D01*
X155829111Y-100026548D01*
X155856485Y-100049015D01*
X155878952Y-100076389D01*
X155895643Y-100107617D01*
X155905924Y-100141508D01*
X155910000Y-100182891D01*
X155910000Y-100858109D01*
X155905924Y-100899492D01*
X155895643Y-100933383D01*
X155878952Y-100964611D01*
X155856485Y-100991985D01*
X155829111Y-101014452D01*
X155797883Y-101031143D01*
X155763992Y-101041424D01*
X155722609Y-101045500D01*
X155122391Y-101045500D01*
X155081008Y-101041424D01*
X155047117Y-101031143D01*
X155015889Y-101014452D01*
X154988515Y-100991985D01*
X154966048Y-100964611D01*
X154949357Y-100933383D01*
X154939076Y-100899492D01*
X154935000Y-100858109D01*
X154935000Y-100182891D01*
X154939076Y-100141508D01*
X154949357Y-100107617D01*
X154966048Y-100076389D01*
X154988515Y-100049015D01*
X155015889Y-100026548D01*
X155047117Y-100009857D01*
X155081008Y-99999576D01*
X155122391Y-99995500D01*
X155722609Y-99995500D01*
X155763992Y-99999576D01*
X155763992Y-99999576D01*
G37*
G36*
X157338992Y-99999576D02*
X157372883Y-100009857D01*
X157404111Y-100026548D01*
X157431485Y-100049015D01*
X157453952Y-100076389D01*
X157470643Y-100107617D01*
X157480924Y-100141508D01*
X157485000Y-100182891D01*
X157485000Y-100858109D01*
X157480924Y-100899492D01*
X157470643Y-100933383D01*
X157453952Y-100964611D01*
X157431485Y-100991985D01*
X157404111Y-101014452D01*
X157372883Y-101031143D01*
X157338992Y-101041424D01*
X157297609Y-101045500D01*
X156697391Y-101045500D01*
X156656008Y-101041424D01*
X156622117Y-101031143D01*
X156590889Y-101014452D01*
X156563515Y-100991985D01*
X156541048Y-100964611D01*
X156524357Y-100933383D01*
X156514076Y-100899492D01*
X156510000Y-100858109D01*
X156510000Y-100182891D01*
X156514076Y-100141508D01*
X156524357Y-100107617D01*
X156541048Y-100076389D01*
X156563515Y-100049015D01*
X156590889Y-100026548D01*
X156622117Y-100009857D01*
X156656008Y-99999576D01*
X156697391Y-99995500D01*
X157297609Y-99995500D01*
X157338992Y-99999576D01*
X157338992Y-99999576D01*
G37*
G36*
X147686716Y-96942319D02*
X147686719Y-96942320D01*
X147686720Y-96942320D01*
X147795108Y-96975199D01*
X147795110Y-96975200D01*
X147895000Y-97028593D01*
X147982554Y-97100446D01*
X148054407Y-97188000D01*
X148054408Y-97188002D01*
X148107801Y-97287892D01*
X148140680Y-97396280D01*
X148140681Y-97396284D01*
X148149000Y-97480750D01*
X148149000Y-98387250D01*
X148140681Y-98471716D01*
X148140680Y-98471719D01*
X148140680Y-98471720D01*
X148132655Y-98498176D01*
X148107800Y-98580110D01*
X148054409Y-98679997D01*
X148046030Y-98690207D01*
X147982554Y-98767554D01*
X147945891Y-98797641D01*
X147894999Y-98839407D01*
X147894997Y-98839408D01*
X147795107Y-98892801D01*
X147686719Y-98925680D01*
X147686718Y-98925680D01*
X147686715Y-98925681D01*
X147574000Y-98936782D01*
X147461284Y-98925681D01*
X147461281Y-98925680D01*
X147461280Y-98925680D01*
X147352892Y-98892801D01*
X147352890Y-98892800D01*
X147253003Y-98839409D01*
X147242793Y-98831030D01*
X147165446Y-98767554D01*
X147093594Y-98680000D01*
X147093593Y-98679999D01*
X147040200Y-98580109D01*
X147007321Y-98471720D01*
X147007320Y-98471719D01*
X147007320Y-98471718D01*
X147007319Y-98471715D01*
X146999000Y-98387249D01*
X146999000Y-97480751D01*
X147007320Y-97396284D01*
X147007321Y-97396280D01*
X147040200Y-97287892D01*
X147093593Y-97188002D01*
X147093594Y-97188000D01*
X147165447Y-97100446D01*
X147253001Y-97028593D01*
X147352891Y-96975200D01*
X147352893Y-96975199D01*
X147461281Y-96942320D01*
X147461282Y-96942320D01*
X147461285Y-96942319D01*
X147574000Y-96931218D01*
X147686716Y-96942319D01*
X147686716Y-96942319D01*
G37*
G36*
X154836715Y-96942319D02*
X154836718Y-96942320D01*
X154836719Y-96942320D01*
X154945107Y-96975199D01*
X154945109Y-96975200D01*
X155044999Y-97028593D01*
X155095891Y-97070358D01*
X155132554Y-97100446D01*
X155196030Y-97177793D01*
X155204409Y-97188003D01*
X155224389Y-97225383D01*
X155257801Y-97287892D01*
X155290680Y-97396280D01*
X155290681Y-97396284D01*
X155299000Y-97480750D01*
X155299000Y-98387250D01*
X155290681Y-98471716D01*
X155290680Y-98471719D01*
X155290680Y-98471720D01*
X155282655Y-98498176D01*
X155257800Y-98580110D01*
X155204407Y-98680000D01*
X155132554Y-98767554D01*
X155045000Y-98839407D01*
X155044998Y-98839408D01*
X154945108Y-98892801D01*
X154836720Y-98925680D01*
X154836719Y-98925680D01*
X154836716Y-98925681D01*
X154724000Y-98936782D01*
X154611285Y-98925681D01*
X154611282Y-98925680D01*
X154611281Y-98925680D01*
X154502893Y-98892801D01*
X154403003Y-98839408D01*
X154403001Y-98839407D01*
X154315447Y-98767554D01*
X154243594Y-98680000D01*
X154190201Y-98580110D01*
X154165347Y-98498176D01*
X154157321Y-98471720D01*
X154157321Y-98471719D01*
X154157320Y-98471716D01*
X154149000Y-98387249D01*
X154149000Y-97480751D01*
X154157319Y-97396285D01*
X154157320Y-97396281D01*
X154190199Y-97287893D01*
X154243592Y-97188003D01*
X154243593Y-97188001D01*
X154315444Y-97100449D01*
X154315446Y-97100446D01*
X154403002Y-97028592D01*
X154403001Y-97028592D01*
X154403003Y-97028591D01*
X154502890Y-96975200D01*
X154502892Y-96975199D01*
X154611280Y-96942320D01*
X154611281Y-96942320D01*
X154611284Y-96942319D01*
X154724000Y-96931218D01*
X154836715Y-96942319D01*
X154836715Y-96942319D01*
G37*
G36*
X150949000Y-98934000D02*
X149099000Y-98934000D01*
X149099000Y-96934000D01*
X150949000Y-96934000D01*
X150949000Y-98934000D01*
X150949000Y-98934000D01*
G37*
G36*
X153199000Y-98934000D02*
X151349000Y-98934000D01*
X151349000Y-96934000D01*
X153199000Y-96934000D01*
X153199000Y-98934000D01*
X153199000Y-98934000D01*
G37*
G36*
X159018521Y-96933686D02*
X159182309Y-97001529D01*
X159329720Y-97100026D01*
X159455074Y-97225380D01*
X159553571Y-97372791D01*
X159621414Y-97536579D01*
X159656000Y-97710456D01*
X159656000Y-97887744D01*
X159621414Y-98061621D01*
X159553571Y-98225409D01*
X159455074Y-98372820D01*
X159329720Y-98498174D01*
X159182309Y-98596671D01*
X159018521Y-98664514D01*
X158844644Y-98699100D01*
X158667356Y-98699100D01*
X158493479Y-98664514D01*
X158329691Y-98596671D01*
X158182280Y-98498174D01*
X158056926Y-98372820D01*
X157958429Y-98225409D01*
X157890586Y-98061621D01*
X157856000Y-97887744D01*
X157856000Y-97710456D01*
X157890586Y-97536579D01*
X157958429Y-97372791D01*
X158056926Y-97225380D01*
X158182280Y-97100026D01*
X158329691Y-97001529D01*
X158493479Y-96933686D01*
X158667356Y-96899100D01*
X158844644Y-96899100D01*
X159018521Y-96933686D01*
X159018521Y-96933686D01*
G37*
G36*
X144416000Y-98699100D02*
X142616000Y-98699100D01*
X142616000Y-96899100D01*
X144416000Y-96899100D01*
X144416000Y-98699100D01*
X144416000Y-98699100D01*
G37*
M02*
