G04 #@! TF.GenerationSoftware,KiCad,Pcbnew,5.0.1-33cea8e~68~ubuntu18.04.1*
G04 #@! TF.CreationDate,2018-11-10T13:26:22+01:00*
G04 #@! TF.ProjectId,Tiny-up5k,54696E792D7570356B2E6B696361645F,rev?*
G04 #@! TF.SameCoordinates,Original*
G04 #@! TF.FileFunction,Legend,Bot*
G04 #@! TF.FilePolarity,Positive*
%FSLAX46Y46*%
G04 Gerber Fmt 4.6, Leading zero omitted, Abs format (unit mm)*
G04 Created by KiCad (PCBNEW 5.0.1-33cea8e~68~ubuntu18.04.1) date za 10 nov 2018 13:26:22 CET*
%MOMM*%
%LPD*%
G01*
G04 APERTURE LIST*
%ADD10C,0.300000*%
%ADD11C,0.175000*%
%ADD12C,0.200000*%
%ADD13C,0.120000*%
%ADD14C,0.150000*%
G04 APERTURE END LIST*
D10*
X154110428Y-115434357D02*
X154110428Y-114577214D01*
X152610428Y-115005785D02*
X154110428Y-115005785D01*
X152610428Y-114077214D02*
X153610428Y-114077214D01*
X154110428Y-114077214D02*
X154039000Y-114148642D01*
X153967571Y-114077214D01*
X154039000Y-114005785D01*
X154110428Y-114077214D01*
X153967571Y-114077214D01*
X153610428Y-113362928D02*
X152610428Y-113362928D01*
X153467571Y-113362928D02*
X153539000Y-113291500D01*
X153610428Y-113148642D01*
X153610428Y-112934357D01*
X153539000Y-112791500D01*
X153396142Y-112720071D01*
X152610428Y-112720071D01*
X153610428Y-112148642D02*
X152610428Y-111791500D01*
X153610428Y-111434357D02*
X152610428Y-111791500D01*
X152253285Y-111934357D01*
X152181857Y-112005785D01*
X152110428Y-112148642D01*
X153181857Y-110862928D02*
X153181857Y-109720071D01*
X153610428Y-108362928D02*
X152610428Y-108362928D01*
X153610428Y-109005785D02*
X152824714Y-109005785D01*
X152681857Y-108934357D01*
X152610428Y-108791500D01*
X152610428Y-108577214D01*
X152681857Y-108434357D01*
X152753285Y-108362928D01*
X153610428Y-107648642D02*
X152110428Y-107648642D01*
X153539000Y-107648642D02*
X153610428Y-107505785D01*
X153610428Y-107220071D01*
X153539000Y-107077214D01*
X153467571Y-107005785D01*
X153324714Y-106934357D01*
X152896142Y-106934357D01*
X152753285Y-107005785D01*
X152681857Y-107077214D01*
X152610428Y-107220071D01*
X152610428Y-107505785D01*
X152681857Y-107648642D01*
X154110428Y-105577214D02*
X154110428Y-106291500D01*
X153396142Y-106362928D01*
X153467571Y-106291500D01*
X153539000Y-106148642D01*
X153539000Y-105791500D01*
X153467571Y-105648642D01*
X153396142Y-105577214D01*
X153253285Y-105505785D01*
X152896142Y-105505785D01*
X152753285Y-105577214D01*
X152681857Y-105648642D01*
X152610428Y-105791500D01*
X152610428Y-106148642D01*
X152681857Y-106291500D01*
X152753285Y-106362928D01*
X152610428Y-104862928D02*
X154110428Y-104862928D01*
X153181857Y-104720071D02*
X152610428Y-104291500D01*
X153610428Y-104291500D02*
X153039000Y-104862928D01*
D11*
X145390000Y-98332433D02*
X145423333Y-98399100D01*
X145423333Y-98499100D01*
X145390000Y-98599100D01*
X145323333Y-98665766D01*
X145256666Y-98699100D01*
X145123333Y-98732433D01*
X145023333Y-98732433D01*
X144890000Y-98699100D01*
X144823333Y-98665766D01*
X144756666Y-98599100D01*
X144723333Y-98499100D01*
X144723333Y-98432433D01*
X144756666Y-98332433D01*
X144790000Y-98299100D01*
X145023333Y-98299100D01*
X145023333Y-98432433D01*
X144723333Y-97999100D02*
X145423333Y-97999100D01*
X144723333Y-97599100D01*
X145423333Y-97599100D01*
X144723333Y-97265766D02*
X145423333Y-97265766D01*
X145423333Y-97099100D01*
X145390000Y-96999100D01*
X145323333Y-96932433D01*
X145256666Y-96899100D01*
X145123333Y-96865766D01*
X145023333Y-96865766D01*
X144890000Y-96899100D01*
X144823333Y-96932433D01*
X144756666Y-96999100D01*
X144723333Y-97099100D01*
X144723333Y-97265766D01*
D12*
X144678095Y-100110528D02*
X144678095Y-100567671D01*
X144678095Y-100339100D02*
X145478095Y-100339100D01*
X145363809Y-100415290D01*
X145287619Y-100491480D01*
X145249523Y-100567671D01*
X145401904Y-103107671D02*
X145440000Y-103069576D01*
X145478095Y-102993385D01*
X145478095Y-102802909D01*
X145440000Y-102726719D01*
X145401904Y-102688623D01*
X145325714Y-102650528D01*
X145249523Y-102650528D01*
X145135238Y-102688623D01*
X144678095Y-103145766D01*
X144678095Y-102650528D01*
X156114619Y-127895309D02*
X156000333Y-127933404D01*
X155809857Y-127933404D01*
X155733666Y-127895309D01*
X155695571Y-127857214D01*
X155657476Y-127781023D01*
X155657476Y-127704833D01*
X155695571Y-127628642D01*
X155733666Y-127590547D01*
X155809857Y-127552452D01*
X155962238Y-127514357D01*
X156038428Y-127476261D01*
X156076523Y-127438166D01*
X156114619Y-127361976D01*
X156114619Y-127285785D01*
X156076523Y-127209595D01*
X156038428Y-127171500D01*
X155962238Y-127133404D01*
X155771761Y-127133404D01*
X155657476Y-127171500D01*
X155314619Y-127933404D02*
X155314619Y-127133404D01*
X155124142Y-127133404D01*
X155009857Y-127171500D01*
X154933666Y-127247690D01*
X154895571Y-127323880D01*
X154857476Y-127476261D01*
X154857476Y-127590547D01*
X154895571Y-127742928D01*
X154933666Y-127819119D01*
X155009857Y-127895309D01*
X155124142Y-127933404D01*
X155314619Y-127933404D01*
X154362238Y-127133404D02*
X154209857Y-127133404D01*
X154133666Y-127171500D01*
X154057476Y-127247690D01*
X154019380Y-127400071D01*
X154019380Y-127666738D01*
X154057476Y-127819119D01*
X154133666Y-127895309D01*
X154209857Y-127933404D01*
X154362238Y-127933404D01*
X154438428Y-127895309D01*
X154514619Y-127819119D01*
X154552714Y-127666738D01*
X154552714Y-127400071D01*
X154514619Y-127247690D01*
X154438428Y-127171500D01*
X154362238Y-127133404D01*
D11*
X157615333Y-98515766D02*
X156915333Y-98282433D01*
X157615333Y-98049100D01*
X156915333Y-97815766D02*
X157382000Y-97815766D01*
X157615333Y-97815766D02*
X157582000Y-97849100D01*
X157548666Y-97815766D01*
X157582000Y-97782433D01*
X157615333Y-97815766D01*
X157548666Y-97815766D01*
X157382000Y-97482433D02*
X156915333Y-97482433D01*
X157315333Y-97482433D02*
X157348666Y-97449100D01*
X157382000Y-97382433D01*
X157382000Y-97282433D01*
X157348666Y-97215766D01*
X157282000Y-97182433D01*
X156915333Y-97182433D01*
X157582000Y-100872433D02*
X157615333Y-100939100D01*
X157615333Y-101039100D01*
X157582000Y-101139100D01*
X157515333Y-101205766D01*
X157448666Y-101239100D01*
X157315333Y-101272433D01*
X157215333Y-101272433D01*
X157082000Y-101239100D01*
X157015333Y-101205766D01*
X156948666Y-101139100D01*
X156915333Y-101039100D01*
X156915333Y-100972433D01*
X156948666Y-100872433D01*
X156982000Y-100839100D01*
X157215333Y-100839100D01*
X157215333Y-100972433D01*
X156915333Y-100539100D02*
X157615333Y-100539100D01*
X156915333Y-100139100D01*
X157615333Y-100139100D01*
X156915333Y-99805766D02*
X157615333Y-99805766D01*
X157615333Y-99639100D01*
X157582000Y-99539100D01*
X157515333Y-99472433D01*
X157448666Y-99439100D01*
X157315333Y-99405766D01*
X157215333Y-99405766D01*
X157082000Y-99439100D01*
X157015333Y-99472433D01*
X156948666Y-99539100D01*
X156915333Y-99639100D01*
X156915333Y-99805766D01*
X157615333Y-103879100D02*
X157615333Y-103445766D01*
X157348666Y-103679100D01*
X157348666Y-103579100D01*
X157315333Y-103512433D01*
X157282000Y-103479100D01*
X157215333Y-103445766D01*
X157048666Y-103445766D01*
X156982000Y-103479100D01*
X156948666Y-103512433D01*
X156915333Y-103579100D01*
X156915333Y-103779100D01*
X156948666Y-103845766D01*
X156982000Y-103879100D01*
X156982000Y-103145766D02*
X156948666Y-103112433D01*
X156915333Y-103145766D01*
X156948666Y-103179100D01*
X156982000Y-103145766D01*
X156915333Y-103145766D01*
X157615333Y-102879100D02*
X157615333Y-102445766D01*
X157348666Y-102679100D01*
X157348666Y-102579100D01*
X157315333Y-102512433D01*
X157282000Y-102479100D01*
X157215333Y-102445766D01*
X157048666Y-102445766D01*
X156982000Y-102479100D01*
X156948666Y-102512433D01*
X156915333Y-102579100D01*
X156915333Y-102779100D01*
X156948666Y-102845766D01*
X156982000Y-102879100D01*
X157382000Y-102212433D02*
X156915333Y-102045766D01*
X157382000Y-101879100D01*
D12*
X155441547Y-125545809D02*
X155327261Y-125583904D01*
X155136785Y-125583904D01*
X155060595Y-125545809D01*
X155022500Y-125507714D01*
X154984404Y-125431523D01*
X154984404Y-125355333D01*
X155022500Y-125279142D01*
X155060595Y-125241047D01*
X155136785Y-125202952D01*
X155289166Y-125164857D01*
X155365357Y-125126761D01*
X155403452Y-125088666D01*
X155441547Y-125012476D01*
X155441547Y-124936285D01*
X155403452Y-124860095D01*
X155365357Y-124822000D01*
X155289166Y-124783904D01*
X155098690Y-124783904D01*
X154984404Y-124822000D01*
X154641547Y-125583904D02*
X154641547Y-124783904D01*
X154451071Y-124783904D01*
X154336785Y-124822000D01*
X154260595Y-124898190D01*
X154222500Y-124974380D01*
X154184404Y-125126761D01*
X154184404Y-125241047D01*
X154222500Y-125393428D01*
X154260595Y-125469619D01*
X154336785Y-125545809D01*
X154451071Y-125583904D01*
X154641547Y-125583904D01*
X153841547Y-125583904D02*
X153841547Y-124783904D01*
X156032071Y-130562309D02*
X155917785Y-130600404D01*
X155727309Y-130600404D01*
X155651119Y-130562309D01*
X155613023Y-130524214D01*
X155574928Y-130448023D01*
X155574928Y-130371833D01*
X155613023Y-130295642D01*
X155651119Y-130257547D01*
X155727309Y-130219452D01*
X155879690Y-130181357D01*
X155955880Y-130143261D01*
X155993976Y-130105166D01*
X156032071Y-130028976D01*
X156032071Y-129952785D01*
X155993976Y-129876595D01*
X155955880Y-129838500D01*
X155879690Y-129800404D01*
X155689214Y-129800404D01*
X155574928Y-129838500D01*
X154774928Y-130524214D02*
X154813023Y-130562309D01*
X154927309Y-130600404D01*
X155003500Y-130600404D01*
X155117785Y-130562309D01*
X155193976Y-130486119D01*
X155232071Y-130409928D01*
X155270166Y-130257547D01*
X155270166Y-130143261D01*
X155232071Y-129990880D01*
X155193976Y-129914690D01*
X155117785Y-129838500D01*
X155003500Y-129800404D01*
X154927309Y-129800404D01*
X154813023Y-129838500D01*
X154774928Y-129876595D01*
X154432071Y-130600404D02*
X154432071Y-129800404D01*
X153974928Y-130600404D02*
X154317785Y-130143261D01*
X153974928Y-129800404D02*
X154432071Y-130257547D01*
X147739023Y-129711500D02*
X147815214Y-129673404D01*
X147929500Y-129673404D01*
X148043785Y-129711500D01*
X148119976Y-129787690D01*
X148158071Y-129863880D01*
X148196166Y-130016261D01*
X148196166Y-130130547D01*
X148158071Y-130282928D01*
X148119976Y-130359119D01*
X148043785Y-130435309D01*
X147929500Y-130473404D01*
X147853309Y-130473404D01*
X147739023Y-130435309D01*
X147700928Y-130397214D01*
X147700928Y-130130547D01*
X147853309Y-130130547D01*
X147358071Y-130473404D02*
X147358071Y-129673404D01*
X146900928Y-130473404D01*
X146900928Y-129673404D01*
X146519976Y-130473404D02*
X146519976Y-129673404D01*
X146329500Y-129673404D01*
X146215214Y-129711500D01*
X146139023Y-129787690D01*
X146100928Y-129863880D01*
X146062833Y-130016261D01*
X146062833Y-130130547D01*
X146100928Y-130282928D01*
X146139023Y-130359119D01*
X146215214Y-130435309D01*
X146329500Y-130473404D01*
X146519976Y-130473404D01*
X148246976Y-127260404D02*
X147751738Y-127260404D01*
X148018404Y-127565166D01*
X147904119Y-127565166D01*
X147827928Y-127603261D01*
X147789833Y-127641357D01*
X147751738Y-127717547D01*
X147751738Y-127908023D01*
X147789833Y-127984214D01*
X147827928Y-128022309D01*
X147904119Y-128060404D01*
X148132690Y-128060404D01*
X148208880Y-128022309D01*
X148246976Y-127984214D01*
X147523166Y-127260404D02*
X147256500Y-128060404D01*
X146989833Y-127260404D01*
X146799357Y-127260404D02*
X146304119Y-127260404D01*
X146570785Y-127565166D01*
X146456500Y-127565166D01*
X146380309Y-127603261D01*
X146342214Y-127641357D01*
X146304119Y-127717547D01*
X146304119Y-127908023D01*
X146342214Y-127984214D01*
X146380309Y-128022309D01*
X146456500Y-128060404D01*
X146685071Y-128060404D01*
X146761261Y-128022309D01*
X146799357Y-127984214D01*
X148437523Y-125545809D02*
X148323238Y-125583904D01*
X148132761Y-125583904D01*
X148056571Y-125545809D01*
X148018476Y-125507714D01*
X147980380Y-125431523D01*
X147980380Y-125355333D01*
X148018476Y-125279142D01*
X148056571Y-125241047D01*
X148132761Y-125202952D01*
X148285142Y-125164857D01*
X148361333Y-125126761D01*
X148399428Y-125088666D01*
X148437523Y-125012476D01*
X148437523Y-124936285D01*
X148399428Y-124860095D01*
X148361333Y-124822000D01*
X148285142Y-124783904D01*
X148094666Y-124783904D01*
X147980380Y-124822000D01*
X147675619Y-125545809D02*
X147561333Y-125583904D01*
X147370857Y-125583904D01*
X147294666Y-125545809D01*
X147256571Y-125507714D01*
X147218476Y-125431523D01*
X147218476Y-125355333D01*
X147256571Y-125279142D01*
X147294666Y-125241047D01*
X147370857Y-125202952D01*
X147523238Y-125164857D01*
X147599428Y-125126761D01*
X147637523Y-125088666D01*
X147675619Y-125012476D01*
X147675619Y-124936285D01*
X147637523Y-124860095D01*
X147599428Y-124822000D01*
X147523238Y-124783904D01*
X147332761Y-124783904D01*
X147218476Y-124822000D01*
X145478095Y-105685766D02*
X145478095Y-105190528D01*
X145173333Y-105457195D01*
X145173333Y-105342909D01*
X145135238Y-105266719D01*
X145097142Y-105228623D01*
X145020952Y-105190528D01*
X144830476Y-105190528D01*
X144754285Y-105228623D01*
X144716190Y-105266719D01*
X144678095Y-105342909D01*
X144678095Y-105571480D01*
X144716190Y-105647671D01*
X144754285Y-105685766D01*
X145211428Y-107806719D02*
X144678095Y-107806719D01*
X145516190Y-107997195D02*
X144944761Y-108187671D01*
X144944761Y-107692433D01*
X145478095Y-110308623D02*
X145478095Y-110689576D01*
X145097142Y-110727671D01*
X145135238Y-110689576D01*
X145173333Y-110613385D01*
X145173333Y-110422909D01*
X145135238Y-110346719D01*
X145097142Y-110308623D01*
X145020952Y-110270528D01*
X144830476Y-110270528D01*
X144754285Y-110308623D01*
X144716190Y-110346719D01*
X144678095Y-110422909D01*
X144678095Y-110613385D01*
X144716190Y-110689576D01*
X144754285Y-110727671D01*
X145478095Y-112886719D02*
X145478095Y-113039100D01*
X145440000Y-113115290D01*
X145401904Y-113153385D01*
X145287619Y-113229576D01*
X145135238Y-113267671D01*
X144830476Y-113267671D01*
X144754285Y-113229576D01*
X144716190Y-113191480D01*
X144678095Y-113115290D01*
X144678095Y-112962909D01*
X144716190Y-112886719D01*
X144754285Y-112848623D01*
X144830476Y-112810528D01*
X145020952Y-112810528D01*
X145097142Y-112848623D01*
X145135238Y-112886719D01*
X145173333Y-112962909D01*
X145173333Y-113115290D01*
X145135238Y-113191480D01*
X145097142Y-113229576D01*
X145020952Y-113267671D01*
X145478095Y-115845766D02*
X145478095Y-115312433D01*
X144678095Y-115655290D01*
X145135238Y-118195290D02*
X145173333Y-118271480D01*
X145211428Y-118309576D01*
X145287619Y-118347671D01*
X145325714Y-118347671D01*
X145401904Y-118309576D01*
X145440000Y-118271480D01*
X145478095Y-118195290D01*
X145478095Y-118042909D01*
X145440000Y-117966719D01*
X145401904Y-117928623D01*
X145325714Y-117890528D01*
X145287619Y-117890528D01*
X145211428Y-117928623D01*
X145173333Y-117966719D01*
X145135238Y-118042909D01*
X145135238Y-118195290D01*
X145097142Y-118271480D01*
X145059047Y-118309576D01*
X144982857Y-118347671D01*
X144830476Y-118347671D01*
X144754285Y-118309576D01*
X144716190Y-118271480D01*
X144678095Y-118195290D01*
X144678095Y-118042909D01*
X144716190Y-117966719D01*
X144754285Y-117928623D01*
X144830476Y-117890528D01*
X144982857Y-117890528D01*
X145059047Y-117928623D01*
X145097142Y-117966719D01*
X145135238Y-118042909D01*
X144678095Y-120811480D02*
X144678095Y-120659100D01*
X144716190Y-120582909D01*
X144754285Y-120544814D01*
X144868571Y-120468623D01*
X145020952Y-120430528D01*
X145325714Y-120430528D01*
X145401904Y-120468623D01*
X145440000Y-120506719D01*
X145478095Y-120582909D01*
X145478095Y-120735290D01*
X145440000Y-120811480D01*
X145401904Y-120849576D01*
X145325714Y-120887671D01*
X145135238Y-120887671D01*
X145059047Y-120849576D01*
X145020952Y-120811480D01*
X144982857Y-120735290D01*
X144982857Y-120582909D01*
X145020952Y-120506719D01*
X145059047Y-120468623D01*
X145135238Y-120430528D01*
X144678095Y-123351480D02*
X144678095Y-123808623D01*
X144678095Y-123580052D02*
X145478095Y-123580052D01*
X145363809Y-123656242D01*
X145287619Y-123732433D01*
X145249523Y-123808623D01*
X145478095Y-122856242D02*
X145478095Y-122780052D01*
X145440000Y-122703861D01*
X145401904Y-122665766D01*
X145325714Y-122627671D01*
X145173333Y-122589576D01*
X144982857Y-122589576D01*
X144830476Y-122627671D01*
X144754285Y-122665766D01*
X144716190Y-122703861D01*
X144678095Y-122780052D01*
X144678095Y-122856242D01*
X144716190Y-122932433D01*
X144754285Y-122970528D01*
X144830476Y-123008623D01*
X144982857Y-123046719D01*
X145173333Y-123046719D01*
X145325714Y-123008623D01*
X145401904Y-122970528D01*
X145440000Y-122932433D01*
X145478095Y-122856242D01*
X144678095Y-125891480D02*
X144678095Y-126348623D01*
X144678095Y-126120052D02*
X145478095Y-126120052D01*
X145363809Y-126196242D01*
X145287619Y-126272433D01*
X145249523Y-126348623D01*
X144678095Y-125129576D02*
X144678095Y-125586719D01*
X144678095Y-125358147D02*
X145478095Y-125358147D01*
X145363809Y-125434338D01*
X145287619Y-125510528D01*
X145249523Y-125586719D01*
X144678095Y-128431480D02*
X144678095Y-128888623D01*
X144678095Y-128660052D02*
X145478095Y-128660052D01*
X145363809Y-128736242D01*
X145287619Y-128812433D01*
X145249523Y-128888623D01*
X145401904Y-128126719D02*
X145440000Y-128088623D01*
X145478095Y-128012433D01*
X145478095Y-127821957D01*
X145440000Y-127745766D01*
X145401904Y-127707671D01*
X145325714Y-127669576D01*
X145249523Y-127669576D01*
X145135238Y-127707671D01*
X144678095Y-128164814D01*
X144678095Y-127669576D01*
X144678095Y-130971480D02*
X144678095Y-131428623D01*
X144678095Y-131200052D02*
X145478095Y-131200052D01*
X145363809Y-131276242D01*
X145287619Y-131352433D01*
X145249523Y-131428623D01*
X145478095Y-130704814D02*
X145478095Y-130209576D01*
X145173333Y-130476242D01*
X145173333Y-130361957D01*
X145135238Y-130285766D01*
X145097142Y-130247671D01*
X145020952Y-130209576D01*
X144830476Y-130209576D01*
X144754285Y-130247671D01*
X144716190Y-130285766D01*
X144678095Y-130361957D01*
X144678095Y-130590528D01*
X144716190Y-130666719D01*
X144754285Y-130704814D01*
X157593904Y-106028623D02*
X157632000Y-105990528D01*
X157670095Y-105914338D01*
X157670095Y-105723861D01*
X157632000Y-105647671D01*
X157593904Y-105609576D01*
X157517714Y-105571480D01*
X157441523Y-105571480D01*
X157327238Y-105609576D01*
X156870095Y-106066719D01*
X156870095Y-105571480D01*
X157403428Y-104885766D02*
X156870095Y-104885766D01*
X157708190Y-105076242D02*
X157136761Y-105266719D01*
X157136761Y-104771480D01*
X157593904Y-108568623D02*
X157632000Y-108530528D01*
X157670095Y-108454338D01*
X157670095Y-108263861D01*
X157632000Y-108187671D01*
X157593904Y-108149576D01*
X157517714Y-108111480D01*
X157441523Y-108111480D01*
X157327238Y-108149576D01*
X156870095Y-108606719D01*
X156870095Y-108111480D01*
X157670095Y-107844814D02*
X157670095Y-107349576D01*
X157365333Y-107616242D01*
X157365333Y-107501957D01*
X157327238Y-107425766D01*
X157289142Y-107387671D01*
X157212952Y-107349576D01*
X157022476Y-107349576D01*
X156946285Y-107387671D01*
X156908190Y-107425766D01*
X156870095Y-107501957D01*
X156870095Y-107730528D01*
X156908190Y-107806719D01*
X156946285Y-107844814D01*
X157593904Y-111108623D02*
X157632000Y-111070528D01*
X157670095Y-110994338D01*
X157670095Y-110803861D01*
X157632000Y-110727671D01*
X157593904Y-110689576D01*
X157517714Y-110651480D01*
X157441523Y-110651480D01*
X157327238Y-110689576D01*
X156870095Y-111146719D01*
X156870095Y-110651480D01*
X157593904Y-110346719D02*
X157632000Y-110308623D01*
X157670095Y-110232433D01*
X157670095Y-110041957D01*
X157632000Y-109965766D01*
X157593904Y-109927671D01*
X157517714Y-109889576D01*
X157441523Y-109889576D01*
X157327238Y-109927671D01*
X156870095Y-110384814D01*
X156870095Y-109889576D01*
X157593904Y-113648623D02*
X157632000Y-113610528D01*
X157670095Y-113534338D01*
X157670095Y-113343861D01*
X157632000Y-113267671D01*
X157593904Y-113229576D01*
X157517714Y-113191480D01*
X157441523Y-113191480D01*
X157327238Y-113229576D01*
X156870095Y-113686719D01*
X156870095Y-113191480D01*
X156870095Y-112429576D02*
X156870095Y-112886719D01*
X156870095Y-112658147D02*
X157670095Y-112658147D01*
X157555809Y-112734338D01*
X157479619Y-112810528D01*
X157441523Y-112886719D01*
X157593904Y-116188623D02*
X157632000Y-116150528D01*
X157670095Y-116074338D01*
X157670095Y-115883861D01*
X157632000Y-115807671D01*
X157593904Y-115769576D01*
X157517714Y-115731480D01*
X157441523Y-115731480D01*
X157327238Y-115769576D01*
X156870095Y-116226719D01*
X156870095Y-115731480D01*
X157670095Y-115236242D02*
X157670095Y-115160052D01*
X157632000Y-115083861D01*
X157593904Y-115045766D01*
X157517714Y-115007671D01*
X157365333Y-114969576D01*
X157174857Y-114969576D01*
X157022476Y-115007671D01*
X156946285Y-115045766D01*
X156908190Y-115083861D01*
X156870095Y-115160052D01*
X156870095Y-115236242D01*
X156908190Y-115312433D01*
X156946285Y-115350528D01*
X157022476Y-115388623D01*
X157174857Y-115426719D01*
X157365333Y-115426719D01*
X157517714Y-115388623D01*
X157593904Y-115350528D01*
X157632000Y-115312433D01*
X157670095Y-115236242D01*
X156870095Y-118271480D02*
X156870095Y-118728623D01*
X156870095Y-118500052D02*
X157670095Y-118500052D01*
X157555809Y-118576242D01*
X157479619Y-118652433D01*
X157441523Y-118728623D01*
X156870095Y-117890528D02*
X156870095Y-117738147D01*
X156908190Y-117661957D01*
X156946285Y-117623861D01*
X157060571Y-117547671D01*
X157212952Y-117509576D01*
X157517714Y-117509576D01*
X157593904Y-117547671D01*
X157632000Y-117585766D01*
X157670095Y-117661957D01*
X157670095Y-117814338D01*
X157632000Y-117890528D01*
X157593904Y-117928623D01*
X157517714Y-117966719D01*
X157327238Y-117966719D01*
X157251047Y-117928623D01*
X157212952Y-117890528D01*
X157174857Y-117814338D01*
X157174857Y-117661957D01*
X157212952Y-117585766D01*
X157251047Y-117547671D01*
X157327238Y-117509576D01*
X156870095Y-120811480D02*
X156870095Y-121268623D01*
X156870095Y-121040052D02*
X157670095Y-121040052D01*
X157555809Y-121116242D01*
X157479619Y-121192433D01*
X157441523Y-121268623D01*
X157327238Y-120354338D02*
X157365333Y-120430528D01*
X157403428Y-120468623D01*
X157479619Y-120506719D01*
X157517714Y-120506719D01*
X157593904Y-120468623D01*
X157632000Y-120430528D01*
X157670095Y-120354338D01*
X157670095Y-120201957D01*
X157632000Y-120125766D01*
X157593904Y-120087671D01*
X157517714Y-120049576D01*
X157479619Y-120049576D01*
X157403428Y-120087671D01*
X157365333Y-120125766D01*
X157327238Y-120201957D01*
X157327238Y-120354338D01*
X157289142Y-120430528D01*
X157251047Y-120468623D01*
X157174857Y-120506719D01*
X157022476Y-120506719D01*
X156946285Y-120468623D01*
X156908190Y-120430528D01*
X156870095Y-120354338D01*
X156870095Y-120201957D01*
X156908190Y-120125766D01*
X156946285Y-120087671D01*
X157022476Y-120049576D01*
X157174857Y-120049576D01*
X157251047Y-120087671D01*
X157289142Y-120125766D01*
X157327238Y-120201957D01*
X156870095Y-123351480D02*
X156870095Y-123808623D01*
X156870095Y-123580052D02*
X157670095Y-123580052D01*
X157555809Y-123656242D01*
X157479619Y-123732433D01*
X157441523Y-123808623D01*
X157670095Y-123084814D02*
X157670095Y-122551480D01*
X156870095Y-122894338D01*
X156870095Y-125891480D02*
X156870095Y-126348623D01*
X156870095Y-126120052D02*
X157670095Y-126120052D01*
X157555809Y-126196242D01*
X157479619Y-126272433D01*
X157441523Y-126348623D01*
X157670095Y-125205766D02*
X157670095Y-125358147D01*
X157632000Y-125434338D01*
X157593904Y-125472433D01*
X157479619Y-125548623D01*
X157327238Y-125586719D01*
X157022476Y-125586719D01*
X156946285Y-125548623D01*
X156908190Y-125510528D01*
X156870095Y-125434338D01*
X156870095Y-125281957D01*
X156908190Y-125205766D01*
X156946285Y-125167671D01*
X157022476Y-125129576D01*
X157212952Y-125129576D01*
X157289142Y-125167671D01*
X157327238Y-125205766D01*
X157365333Y-125281957D01*
X157365333Y-125434338D01*
X157327238Y-125510528D01*
X157289142Y-125548623D01*
X157212952Y-125586719D01*
X156870095Y-128431480D02*
X156870095Y-128888623D01*
X156870095Y-128660052D02*
X157670095Y-128660052D01*
X157555809Y-128736242D01*
X157479619Y-128812433D01*
X157441523Y-128888623D01*
X157670095Y-127707671D02*
X157670095Y-128088623D01*
X157289142Y-128126719D01*
X157327238Y-128088623D01*
X157365333Y-128012433D01*
X157365333Y-127821957D01*
X157327238Y-127745766D01*
X157289142Y-127707671D01*
X157212952Y-127669576D01*
X157022476Y-127669576D01*
X156946285Y-127707671D01*
X156908190Y-127745766D01*
X156870095Y-127821957D01*
X156870095Y-128012433D01*
X156908190Y-128088623D01*
X156946285Y-128126719D01*
X156870095Y-130971480D02*
X156870095Y-131428623D01*
X156870095Y-131200052D02*
X157670095Y-131200052D01*
X157555809Y-131276242D01*
X157479619Y-131352433D01*
X157441523Y-131428623D01*
X157403428Y-130285766D02*
X156870095Y-130285766D01*
X157708190Y-130476242D02*
X157136761Y-130666719D01*
X157136761Y-130171480D01*
D13*
G04 #@! TO.C,J5*
X148545000Y-132775000D02*
X153745000Y-132775000D01*
X148545000Y-125035000D02*
X153745000Y-125035000D01*
X147105000Y-132205000D02*
X148545000Y-132205000D01*
X148545000Y-132775000D02*
X148545000Y-132205000D01*
X153745000Y-132775000D02*
X153745000Y-132205000D01*
X148545000Y-125605000D02*
X148545000Y-125035000D01*
X153745000Y-125605000D02*
X153745000Y-125035000D01*
X148545000Y-130685000D02*
X148545000Y-129665000D01*
X153745000Y-130685000D02*
X153745000Y-129665000D01*
X148545000Y-128145000D02*
X148545000Y-127125000D01*
X153745000Y-128145000D02*
X153745000Y-127125000D01*
G04 #@! TO.C,C12*
D14*
X150439357Y-112561642D02*
X150486976Y-112609261D01*
X150629833Y-112656880D01*
X150725071Y-112656880D01*
X150867928Y-112609261D01*
X150963166Y-112514023D01*
X151010785Y-112418785D01*
X151058404Y-112228309D01*
X151058404Y-112085452D01*
X151010785Y-111894976D01*
X150963166Y-111799738D01*
X150867928Y-111704500D01*
X150725071Y-111656880D01*
X150629833Y-111656880D01*
X150486976Y-111704500D01*
X150439357Y-111752119D01*
X149486976Y-112656880D02*
X150058404Y-112656880D01*
X149772690Y-112656880D02*
X149772690Y-111656880D01*
X149867928Y-111799738D01*
X149963166Y-111894976D01*
X150058404Y-111942595D01*
X149106023Y-111752119D02*
X149058404Y-111704500D01*
X148963166Y-111656880D01*
X148725071Y-111656880D01*
X148629833Y-111704500D01*
X148582214Y-111752119D01*
X148534595Y-111847357D01*
X148534595Y-111942595D01*
X148582214Y-112085452D01*
X149153642Y-112656880D01*
X148534595Y-112656880D01*
G04 #@! TO.C,C1*
X156059166Y-103036642D02*
X156106785Y-103084261D01*
X156249642Y-103131880D01*
X156344880Y-103131880D01*
X156487738Y-103084261D01*
X156582976Y-102989023D01*
X156630595Y-102893785D01*
X156678214Y-102703309D01*
X156678214Y-102560452D01*
X156630595Y-102369976D01*
X156582976Y-102274738D01*
X156487738Y-102179500D01*
X156344880Y-102131880D01*
X156249642Y-102131880D01*
X156106785Y-102179500D01*
X156059166Y-102227119D01*
X155106785Y-103131880D02*
X155678214Y-103131880D01*
X155392500Y-103131880D02*
X155392500Y-102131880D01*
X155487738Y-102274738D01*
X155582976Y-102369976D01*
X155678214Y-102417595D01*
G04 #@! TO.C,C2*
X156102666Y-109050242D02*
X156150285Y-109097861D01*
X156293142Y-109145480D01*
X156388380Y-109145480D01*
X156531238Y-109097861D01*
X156626476Y-109002623D01*
X156674095Y-108907385D01*
X156721714Y-108716909D01*
X156721714Y-108574052D01*
X156674095Y-108383576D01*
X156626476Y-108288338D01*
X156531238Y-108193100D01*
X156388380Y-108145480D01*
X156293142Y-108145480D01*
X156150285Y-108193100D01*
X156102666Y-108240719D01*
X155721714Y-108240719D02*
X155674095Y-108193100D01*
X155578857Y-108145480D01*
X155340761Y-108145480D01*
X155245523Y-108193100D01*
X155197904Y-108240719D01*
X155150285Y-108335957D01*
X155150285Y-108431195D01*
X155197904Y-108574052D01*
X155769333Y-109145480D01*
X155150285Y-109145480D01*
G04 #@! TO.C,C3*
X148756666Y-109577142D02*
X148804285Y-109624761D01*
X148947142Y-109672380D01*
X149042380Y-109672380D01*
X149185238Y-109624761D01*
X149280476Y-109529523D01*
X149328095Y-109434285D01*
X149375714Y-109243809D01*
X149375714Y-109100952D01*
X149328095Y-108910476D01*
X149280476Y-108815238D01*
X149185238Y-108720000D01*
X149042380Y-108672380D01*
X148947142Y-108672380D01*
X148804285Y-108720000D01*
X148756666Y-108767619D01*
X148423333Y-108672380D02*
X147804285Y-108672380D01*
X148137619Y-109053333D01*
X147994761Y-109053333D01*
X147899523Y-109100952D01*
X147851904Y-109148571D01*
X147804285Y-109243809D01*
X147804285Y-109481904D01*
X147851904Y-109577142D01*
X147899523Y-109624761D01*
X147994761Y-109672380D01*
X148280476Y-109672380D01*
X148375714Y-109624761D01*
X148423333Y-109577142D01*
G04 #@! TO.C,C4*
X156122666Y-105513142D02*
X156170285Y-105560761D01*
X156313142Y-105608380D01*
X156408380Y-105608380D01*
X156551238Y-105560761D01*
X156646476Y-105465523D01*
X156694095Y-105370285D01*
X156741714Y-105179809D01*
X156741714Y-105036952D01*
X156694095Y-104846476D01*
X156646476Y-104751238D01*
X156551238Y-104656000D01*
X156408380Y-104608380D01*
X156313142Y-104608380D01*
X156170285Y-104656000D01*
X156122666Y-104703619D01*
X155265523Y-104941714D02*
X155265523Y-105608380D01*
X155503619Y-104560761D02*
X155741714Y-105275047D01*
X155122666Y-105275047D01*
G04 #@! TO.C,C5*
X155002666Y-119964142D02*
X155050285Y-120011761D01*
X155193142Y-120059380D01*
X155288380Y-120059380D01*
X155431238Y-120011761D01*
X155526476Y-119916523D01*
X155574095Y-119821285D01*
X155621714Y-119630809D01*
X155621714Y-119487952D01*
X155574095Y-119297476D01*
X155526476Y-119202238D01*
X155431238Y-119107000D01*
X155288380Y-119059380D01*
X155193142Y-119059380D01*
X155050285Y-119107000D01*
X155002666Y-119154619D01*
X154097904Y-119059380D02*
X154574095Y-119059380D01*
X154621714Y-119535571D01*
X154574095Y-119487952D01*
X154478857Y-119440333D01*
X154240761Y-119440333D01*
X154145523Y-119487952D01*
X154097904Y-119535571D01*
X154050285Y-119630809D01*
X154050285Y-119868904D01*
X154097904Y-119964142D01*
X154145523Y-120011761D01*
X154240761Y-120059380D01*
X154478857Y-120059380D01*
X154574095Y-120011761D01*
X154621714Y-119964142D01*
G04 #@! TO.C,C6*
X148121642Y-119594333D02*
X148169261Y-119546714D01*
X148216880Y-119403857D01*
X148216880Y-119308619D01*
X148169261Y-119165761D01*
X148074023Y-119070523D01*
X147978785Y-119022904D01*
X147788309Y-118975285D01*
X147645452Y-118975285D01*
X147454976Y-119022904D01*
X147359738Y-119070523D01*
X147264500Y-119165761D01*
X147216880Y-119308619D01*
X147216880Y-119403857D01*
X147264500Y-119546714D01*
X147312119Y-119594333D01*
X147216880Y-120451476D02*
X147216880Y-120261000D01*
X147264500Y-120165761D01*
X147312119Y-120118142D01*
X147454976Y-120022904D01*
X147645452Y-119975285D01*
X148026404Y-119975285D01*
X148121642Y-120022904D01*
X148169261Y-120070523D01*
X148216880Y-120165761D01*
X148216880Y-120356238D01*
X148169261Y-120451476D01*
X148121642Y-120499095D01*
X148026404Y-120546714D01*
X147788309Y-120546714D01*
X147693071Y-120499095D01*
X147645452Y-120451476D01*
X147597833Y-120356238D01*
X147597833Y-120165761D01*
X147645452Y-120070523D01*
X147693071Y-120022904D01*
X147788309Y-119975285D01*
G04 #@! TO.C,C8*
X147613666Y-116689142D02*
X147661285Y-116736761D01*
X147804142Y-116784380D01*
X147899380Y-116784380D01*
X148042238Y-116736761D01*
X148137476Y-116641523D01*
X148185095Y-116546285D01*
X148232714Y-116355809D01*
X148232714Y-116212952D01*
X148185095Y-116022476D01*
X148137476Y-115927238D01*
X148042238Y-115832000D01*
X147899380Y-115784380D01*
X147804142Y-115784380D01*
X147661285Y-115832000D01*
X147613666Y-115879619D01*
X147042238Y-116212952D02*
X147137476Y-116165333D01*
X147185095Y-116117714D01*
X147232714Y-116022476D01*
X147232714Y-115974857D01*
X147185095Y-115879619D01*
X147137476Y-115832000D01*
X147042238Y-115784380D01*
X146851761Y-115784380D01*
X146756523Y-115832000D01*
X146708904Y-115879619D01*
X146661285Y-115974857D01*
X146661285Y-116022476D01*
X146708904Y-116117714D01*
X146756523Y-116165333D01*
X146851761Y-116212952D01*
X147042238Y-116212952D01*
X147137476Y-116260571D01*
X147185095Y-116308190D01*
X147232714Y-116403428D01*
X147232714Y-116593904D01*
X147185095Y-116689142D01*
X147137476Y-116736761D01*
X147042238Y-116784380D01*
X146851761Y-116784380D01*
X146756523Y-116736761D01*
X146708904Y-116689142D01*
X146661285Y-116593904D01*
X146661285Y-116403428D01*
X146708904Y-116308190D01*
X146756523Y-116260571D01*
X146851761Y-116212952D01*
G04 #@! TO.C,C9*
X153455642Y-116736833D02*
X153503261Y-116689214D01*
X153550880Y-116546357D01*
X153550880Y-116451119D01*
X153503261Y-116308261D01*
X153408023Y-116213023D01*
X153312785Y-116165404D01*
X153122309Y-116117785D01*
X152979452Y-116117785D01*
X152788976Y-116165404D01*
X152693738Y-116213023D01*
X152598500Y-116308261D01*
X152550880Y-116451119D01*
X152550880Y-116546357D01*
X152598500Y-116689214D01*
X152646119Y-116736833D01*
X153550880Y-117213023D02*
X153550880Y-117403500D01*
X153503261Y-117498738D01*
X153455642Y-117546357D01*
X153312785Y-117641595D01*
X153122309Y-117689214D01*
X152741357Y-117689214D01*
X152646119Y-117641595D01*
X152598500Y-117593976D01*
X152550880Y-117498738D01*
X152550880Y-117308261D01*
X152598500Y-117213023D01*
X152646119Y-117165404D01*
X152741357Y-117117785D01*
X152979452Y-117117785D01*
X153074690Y-117165404D01*
X153122309Y-117213023D01*
X153169928Y-117308261D01*
X153169928Y-117498738D01*
X153122309Y-117593976D01*
X153074690Y-117641595D01*
X152979452Y-117689214D01*
G04 #@! TO.C,C10*
X147200857Y-107735642D02*
X147248476Y-107783261D01*
X147391333Y-107830880D01*
X147486571Y-107830880D01*
X147629428Y-107783261D01*
X147724666Y-107688023D01*
X147772285Y-107592785D01*
X147819904Y-107402309D01*
X147819904Y-107259452D01*
X147772285Y-107068976D01*
X147724666Y-106973738D01*
X147629428Y-106878500D01*
X147486571Y-106830880D01*
X147391333Y-106830880D01*
X147248476Y-106878500D01*
X147200857Y-106926119D01*
X146248476Y-107830880D02*
X146819904Y-107830880D01*
X146534190Y-107830880D02*
X146534190Y-106830880D01*
X146629428Y-106973738D01*
X146724666Y-107068976D01*
X146819904Y-107116595D01*
X145629428Y-106830880D02*
X145534190Y-106830880D01*
X145438952Y-106878500D01*
X145391333Y-106926119D01*
X145343714Y-107021357D01*
X145296095Y-107211833D01*
X145296095Y-107449928D01*
X145343714Y-107640404D01*
X145391333Y-107735642D01*
X145438952Y-107783261D01*
X145534190Y-107830880D01*
X145629428Y-107830880D01*
X145724666Y-107783261D01*
X145772285Y-107735642D01*
X145819904Y-107640404D01*
X145867523Y-107449928D01*
X145867523Y-107211833D01*
X145819904Y-107021357D01*
X145772285Y-106926119D01*
X145724666Y-106878500D01*
X145629428Y-106830880D01*
G04 #@! TO.C,C11*
X149550357Y-110720142D02*
X149597976Y-110767761D01*
X149740833Y-110815380D01*
X149836071Y-110815380D01*
X149978928Y-110767761D01*
X150074166Y-110672523D01*
X150121785Y-110577285D01*
X150169404Y-110386809D01*
X150169404Y-110243952D01*
X150121785Y-110053476D01*
X150074166Y-109958238D01*
X149978928Y-109863000D01*
X149836071Y-109815380D01*
X149740833Y-109815380D01*
X149597976Y-109863000D01*
X149550357Y-109910619D01*
X148597976Y-110815380D02*
X149169404Y-110815380D01*
X148883690Y-110815380D02*
X148883690Y-109815380D01*
X148978928Y-109958238D01*
X149074166Y-110053476D01*
X149169404Y-110101095D01*
X147645595Y-110815380D02*
X148217023Y-110815380D01*
X147931309Y-110815380D02*
X147931309Y-109815380D01*
X148026547Y-109958238D01*
X148121785Y-110053476D01*
X148217023Y-110101095D01*
G04 #@! TO.C,C13*
X151995142Y-115879642D02*
X152042761Y-115832023D01*
X152090380Y-115689166D01*
X152090380Y-115593928D01*
X152042761Y-115451071D01*
X151947523Y-115355833D01*
X151852285Y-115308214D01*
X151661809Y-115260595D01*
X151518952Y-115260595D01*
X151328476Y-115308214D01*
X151233238Y-115355833D01*
X151138000Y-115451071D01*
X151090380Y-115593928D01*
X151090380Y-115689166D01*
X151138000Y-115832023D01*
X151185619Y-115879642D01*
X152090380Y-116832023D02*
X152090380Y-116260595D01*
X152090380Y-116546309D02*
X151090380Y-116546309D01*
X151233238Y-116451071D01*
X151328476Y-116355833D01*
X151376095Y-116260595D01*
X151090380Y-117165357D02*
X151090380Y-117784404D01*
X151471333Y-117451071D01*
X151471333Y-117593928D01*
X151518952Y-117689166D01*
X151566571Y-117736785D01*
X151661809Y-117784404D01*
X151899904Y-117784404D01*
X151995142Y-117736785D01*
X152042761Y-117689166D01*
X152090380Y-117593928D01*
X152090380Y-117308214D01*
X152042761Y-117212976D01*
X151995142Y-117165357D01*
G04 #@! TO.C,C14*
X151287857Y-122277142D02*
X151335476Y-122324761D01*
X151478333Y-122372380D01*
X151573571Y-122372380D01*
X151716428Y-122324761D01*
X151811666Y-122229523D01*
X151859285Y-122134285D01*
X151906904Y-121943809D01*
X151906904Y-121800952D01*
X151859285Y-121610476D01*
X151811666Y-121515238D01*
X151716428Y-121420000D01*
X151573571Y-121372380D01*
X151478333Y-121372380D01*
X151335476Y-121420000D01*
X151287857Y-121467619D01*
X150335476Y-122372380D02*
X150906904Y-122372380D01*
X150621190Y-122372380D02*
X150621190Y-121372380D01*
X150716428Y-121515238D01*
X150811666Y-121610476D01*
X150906904Y-121658095D01*
X149478333Y-121705714D02*
X149478333Y-122372380D01*
X149716428Y-121324761D02*
X149954523Y-122039047D01*
X149335476Y-122039047D01*
G04 #@! TO.C,R1*
X150121880Y-100353833D02*
X149645690Y-100020500D01*
X150121880Y-99782404D02*
X149121880Y-99782404D01*
X149121880Y-100163357D01*
X149169500Y-100258595D01*
X149217119Y-100306214D01*
X149312357Y-100353833D01*
X149455214Y-100353833D01*
X149550452Y-100306214D01*
X149598071Y-100258595D01*
X149645690Y-100163357D01*
X149645690Y-99782404D01*
X150121880Y-101306214D02*
X150121880Y-100734785D01*
X150121880Y-101020500D02*
X149121880Y-101020500D01*
X149264738Y-100925261D01*
X149359976Y-100830023D01*
X149407595Y-100734785D01*
G04 #@! TO.C,R2*
X151582380Y-100290333D02*
X151106190Y-99957000D01*
X151582380Y-99718904D02*
X150582380Y-99718904D01*
X150582380Y-100099857D01*
X150630000Y-100195095D01*
X150677619Y-100242714D01*
X150772857Y-100290333D01*
X150915714Y-100290333D01*
X151010952Y-100242714D01*
X151058571Y-100195095D01*
X151106190Y-100099857D01*
X151106190Y-99718904D01*
X150677619Y-100671285D02*
X150630000Y-100718904D01*
X150582380Y-100814142D01*
X150582380Y-101052238D01*
X150630000Y-101147476D01*
X150677619Y-101195095D01*
X150772857Y-101242714D01*
X150868095Y-101242714D01*
X151010952Y-101195095D01*
X151582380Y-100623666D01*
X151582380Y-101242714D01*
G04 #@! TO.C,R3*
X152979380Y-100353833D02*
X152503190Y-100020500D01*
X152979380Y-99782404D02*
X151979380Y-99782404D01*
X151979380Y-100163357D01*
X152027000Y-100258595D01*
X152074619Y-100306214D01*
X152169857Y-100353833D01*
X152312714Y-100353833D01*
X152407952Y-100306214D01*
X152455571Y-100258595D01*
X152503190Y-100163357D01*
X152503190Y-99782404D01*
X151979380Y-100687166D02*
X151979380Y-101306214D01*
X152360333Y-100972880D01*
X152360333Y-101115738D01*
X152407952Y-101210976D01*
X152455571Y-101258595D01*
X152550809Y-101306214D01*
X152788904Y-101306214D01*
X152884142Y-101258595D01*
X152931761Y-101210976D01*
X152979380Y-101115738D01*
X152979380Y-100830023D01*
X152931761Y-100734785D01*
X152884142Y-100687166D01*
G04 #@! TO.C,R4*
X150375880Y-116482833D02*
X149899690Y-116149500D01*
X150375880Y-115911404D02*
X149375880Y-115911404D01*
X149375880Y-116292357D01*
X149423500Y-116387595D01*
X149471119Y-116435214D01*
X149566357Y-116482833D01*
X149709214Y-116482833D01*
X149804452Y-116435214D01*
X149852071Y-116387595D01*
X149899690Y-116292357D01*
X149899690Y-115911404D01*
X149709214Y-117339976D02*
X150375880Y-117339976D01*
X149328261Y-117101880D02*
X150042547Y-116863785D01*
X150042547Y-117482833D01*
G04 #@! TO.C,R5*
X148375666Y-124404380D02*
X148709000Y-123928190D01*
X148947095Y-124404380D02*
X148947095Y-123404380D01*
X148566142Y-123404380D01*
X148470904Y-123452000D01*
X148423285Y-123499619D01*
X148375666Y-123594857D01*
X148375666Y-123737714D01*
X148423285Y-123832952D01*
X148470904Y-123880571D01*
X148566142Y-123928190D01*
X148947095Y-123928190D01*
X147470904Y-123404380D02*
X147947095Y-123404380D01*
X147994714Y-123880571D01*
X147947095Y-123832952D01*
X147851857Y-123785333D01*
X147613761Y-123785333D01*
X147518523Y-123832952D01*
X147470904Y-123880571D01*
X147423285Y-123975809D01*
X147423285Y-124213904D01*
X147470904Y-124309142D01*
X147518523Y-124356761D01*
X147613761Y-124404380D01*
X147851857Y-124404380D01*
X147947095Y-124356761D01*
X147994714Y-124309142D01*
G04 #@! TO.C,R6*
X153138166Y-124785380D02*
X153471500Y-124309190D01*
X153709595Y-124785380D02*
X153709595Y-123785380D01*
X153328642Y-123785380D01*
X153233404Y-123833000D01*
X153185785Y-123880619D01*
X153138166Y-123975857D01*
X153138166Y-124118714D01*
X153185785Y-124213952D01*
X153233404Y-124261571D01*
X153328642Y-124309190D01*
X153709595Y-124309190D01*
X152281023Y-123785380D02*
X152471500Y-123785380D01*
X152566738Y-123833000D01*
X152614357Y-123880619D01*
X152709595Y-124023476D01*
X152757214Y-124213952D01*
X152757214Y-124594904D01*
X152709595Y-124690142D01*
X152661976Y-124737761D01*
X152566738Y-124785380D01*
X152376261Y-124785380D01*
X152281023Y-124737761D01*
X152233404Y-124690142D01*
X152185785Y-124594904D01*
X152185785Y-124356809D01*
X152233404Y-124261571D01*
X152281023Y-124213952D01*
X152376261Y-124166333D01*
X152566738Y-124166333D01*
X152661976Y-124213952D01*
X152709595Y-124261571D01*
X152757214Y-124356809D01*
G04 #@! TO.C,R7*
X147237380Y-122076333D02*
X146761190Y-121743000D01*
X147237380Y-121504904D02*
X146237380Y-121504904D01*
X146237380Y-121885857D01*
X146285000Y-121981095D01*
X146332619Y-122028714D01*
X146427857Y-122076333D01*
X146570714Y-122076333D01*
X146665952Y-122028714D01*
X146713571Y-121981095D01*
X146761190Y-121885857D01*
X146761190Y-121504904D01*
X146237380Y-122409666D02*
X146237380Y-123076333D01*
X147237380Y-122647761D01*
G04 #@! TO.C,R10*
X153169857Y-123070880D02*
X153503190Y-122594690D01*
X153741285Y-123070880D02*
X153741285Y-122070880D01*
X153360333Y-122070880D01*
X153265095Y-122118500D01*
X153217476Y-122166119D01*
X153169857Y-122261357D01*
X153169857Y-122404214D01*
X153217476Y-122499452D01*
X153265095Y-122547071D01*
X153360333Y-122594690D01*
X153741285Y-122594690D01*
X152217476Y-123070880D02*
X152788904Y-123070880D01*
X152503190Y-123070880D02*
X152503190Y-122070880D01*
X152598428Y-122213738D01*
X152693666Y-122308976D01*
X152788904Y-122356595D01*
X151598428Y-122070880D02*
X151503190Y-122070880D01*
X151407952Y-122118500D01*
X151360333Y-122166119D01*
X151312714Y-122261357D01*
X151265095Y-122451833D01*
X151265095Y-122689928D01*
X151312714Y-122880404D01*
X151360333Y-122975642D01*
X151407952Y-123023261D01*
X151503190Y-123070880D01*
X151598428Y-123070880D01*
X151693666Y-123023261D01*
X151741285Y-122975642D01*
X151788904Y-122880404D01*
X151836523Y-122689928D01*
X151836523Y-122451833D01*
X151788904Y-122261357D01*
X151741285Y-122166119D01*
X151693666Y-122118500D01*
X151598428Y-122070880D01*
G04 #@! TO.C,J5*
X151478333Y-124356880D02*
X151478333Y-125071166D01*
X151525952Y-125214023D01*
X151621190Y-125309261D01*
X151764047Y-125356880D01*
X151859285Y-125356880D01*
X150525952Y-124356880D02*
X151002142Y-124356880D01*
X151049761Y-124833071D01*
X151002142Y-124785452D01*
X150906904Y-124737833D01*
X150668809Y-124737833D01*
X150573571Y-124785452D01*
X150525952Y-124833071D01*
X150478333Y-124928309D01*
X150478333Y-125166404D01*
X150525952Y-125261642D01*
X150573571Y-125309261D01*
X150668809Y-125356880D01*
X150906904Y-125356880D01*
X151002142Y-125309261D01*
X151049761Y-125261642D01*
G04 #@! TD*
M02*
