G04 #@! TF.GenerationSoftware,KiCad,Pcbnew,5.0.1-33cea8e~68~ubuntu18.04.1*
G04 #@! TF.CreationDate,2018-11-09T20:27:09+01:00*
G04 #@! TF.ProjectId,Tiny-up5k,54696E792D7570356B2E6B696361645F,rev?*
G04 #@! TF.SameCoordinates,Original*
G04 #@! TF.FileFunction,Paste,Top*
G04 #@! TF.FilePolarity,Positive*
%FSLAX46Y46*%
G04 Gerber Fmt 4.6, Leading zero omitted, Abs format (unit mm)*
G04 Created by KiCad (PCBNEW 5.0.1-33cea8e~68~ubuntu18.04.1) date vr 09 nov 2018 20:27:09 CET*
%MOMM*%
%LPD*%
G01*
G04 APERTURE LIST*
%ADD10R,0.500000X0.900000*%
%ADD11C,0.100000*%
%ADD12C,0.590000*%
%ADD13R,1.060000X0.650000*%
%ADD14R,0.900000X1.700000*%
%ADD15R,0.750000X0.300000*%
%ADD16R,0.710000X0.580000*%
%ADD17R,1.000000X0.900000*%
%ADD18R,1.750000X1.900000*%
%ADD19R,0.400000X1.400000*%
%ADD20R,1.150000X1.450000*%
%ADD21C,1.040000*%
%ADD22C,0.250000*%
%ADD23C,0.875000*%
G04 APERTURE END LIST*
D10*
G04 #@! TO.C,L1*
X155043000Y-102425500D03*
X153543000Y-102425500D03*
G04 #@! TD*
D11*
G04 #@! TO.C,D1*
G36*
X147252958Y-108204210D02*
X147267276Y-108206334D01*
X147281317Y-108209851D01*
X147294946Y-108214728D01*
X147308031Y-108220917D01*
X147320447Y-108228358D01*
X147332073Y-108236981D01*
X147342798Y-108246702D01*
X147352519Y-108257427D01*
X147361142Y-108269053D01*
X147368583Y-108281469D01*
X147374772Y-108294554D01*
X147379649Y-108308183D01*
X147383166Y-108322224D01*
X147385290Y-108336542D01*
X147386000Y-108351000D01*
X147386000Y-108646000D01*
X147385290Y-108660458D01*
X147383166Y-108674776D01*
X147379649Y-108688817D01*
X147374772Y-108702446D01*
X147368583Y-108715531D01*
X147361142Y-108727947D01*
X147352519Y-108739573D01*
X147342798Y-108750298D01*
X147332073Y-108760019D01*
X147320447Y-108768642D01*
X147308031Y-108776083D01*
X147294946Y-108782272D01*
X147281317Y-108787149D01*
X147267276Y-108790666D01*
X147252958Y-108792790D01*
X147238500Y-108793500D01*
X146893500Y-108793500D01*
X146879042Y-108792790D01*
X146864724Y-108790666D01*
X146850683Y-108787149D01*
X146837054Y-108782272D01*
X146823969Y-108776083D01*
X146811553Y-108768642D01*
X146799927Y-108760019D01*
X146789202Y-108750298D01*
X146779481Y-108739573D01*
X146770858Y-108727947D01*
X146763417Y-108715531D01*
X146757228Y-108702446D01*
X146752351Y-108688817D01*
X146748834Y-108674776D01*
X146746710Y-108660458D01*
X146746000Y-108646000D01*
X146746000Y-108351000D01*
X146746710Y-108336542D01*
X146748834Y-108322224D01*
X146752351Y-108308183D01*
X146757228Y-108294554D01*
X146763417Y-108281469D01*
X146770858Y-108269053D01*
X146779481Y-108257427D01*
X146789202Y-108246702D01*
X146799927Y-108236981D01*
X146811553Y-108228358D01*
X146823969Y-108220917D01*
X146837054Y-108214728D01*
X146850683Y-108209851D01*
X146864724Y-108206334D01*
X146879042Y-108204210D01*
X146893500Y-108203500D01*
X147238500Y-108203500D01*
X147252958Y-108204210D01*
X147252958Y-108204210D01*
G37*
D12*
X147066000Y-108498500D03*
D11*
G36*
X147252958Y-107234210D02*
X147267276Y-107236334D01*
X147281317Y-107239851D01*
X147294946Y-107244728D01*
X147308031Y-107250917D01*
X147320447Y-107258358D01*
X147332073Y-107266981D01*
X147342798Y-107276702D01*
X147352519Y-107287427D01*
X147361142Y-107299053D01*
X147368583Y-107311469D01*
X147374772Y-107324554D01*
X147379649Y-107338183D01*
X147383166Y-107352224D01*
X147385290Y-107366542D01*
X147386000Y-107381000D01*
X147386000Y-107676000D01*
X147385290Y-107690458D01*
X147383166Y-107704776D01*
X147379649Y-107718817D01*
X147374772Y-107732446D01*
X147368583Y-107745531D01*
X147361142Y-107757947D01*
X147352519Y-107769573D01*
X147342798Y-107780298D01*
X147332073Y-107790019D01*
X147320447Y-107798642D01*
X147308031Y-107806083D01*
X147294946Y-107812272D01*
X147281317Y-107817149D01*
X147267276Y-107820666D01*
X147252958Y-107822790D01*
X147238500Y-107823500D01*
X146893500Y-107823500D01*
X146879042Y-107822790D01*
X146864724Y-107820666D01*
X146850683Y-107817149D01*
X146837054Y-107812272D01*
X146823969Y-107806083D01*
X146811553Y-107798642D01*
X146799927Y-107790019D01*
X146789202Y-107780298D01*
X146779481Y-107769573D01*
X146770858Y-107757947D01*
X146763417Y-107745531D01*
X146757228Y-107732446D01*
X146752351Y-107718817D01*
X146748834Y-107704776D01*
X146746710Y-107690458D01*
X146746000Y-107676000D01*
X146746000Y-107381000D01*
X146746710Y-107366542D01*
X146748834Y-107352224D01*
X146752351Y-107338183D01*
X146757228Y-107324554D01*
X146763417Y-107311469D01*
X146770858Y-107299053D01*
X146779481Y-107287427D01*
X146789202Y-107276702D01*
X146799927Y-107266981D01*
X146811553Y-107258358D01*
X146823969Y-107250917D01*
X146837054Y-107244728D01*
X146850683Y-107239851D01*
X146864724Y-107236334D01*
X146879042Y-107234210D01*
X146893500Y-107233500D01*
X147238500Y-107233500D01*
X147252958Y-107234210D01*
X147252958Y-107234210D01*
G37*
D12*
X147066000Y-107528500D03*
G04 #@! TD*
D11*
G04 #@! TO.C,D2*
G36*
X153729958Y-107234210D02*
X153744276Y-107236334D01*
X153758317Y-107239851D01*
X153771946Y-107244728D01*
X153785031Y-107250917D01*
X153797447Y-107258358D01*
X153809073Y-107266981D01*
X153819798Y-107276702D01*
X153829519Y-107287427D01*
X153838142Y-107299053D01*
X153845583Y-107311469D01*
X153851772Y-107324554D01*
X153856649Y-107338183D01*
X153860166Y-107352224D01*
X153862290Y-107366542D01*
X153863000Y-107381000D01*
X153863000Y-107676000D01*
X153862290Y-107690458D01*
X153860166Y-107704776D01*
X153856649Y-107718817D01*
X153851772Y-107732446D01*
X153845583Y-107745531D01*
X153838142Y-107757947D01*
X153829519Y-107769573D01*
X153819798Y-107780298D01*
X153809073Y-107790019D01*
X153797447Y-107798642D01*
X153785031Y-107806083D01*
X153771946Y-107812272D01*
X153758317Y-107817149D01*
X153744276Y-107820666D01*
X153729958Y-107822790D01*
X153715500Y-107823500D01*
X153370500Y-107823500D01*
X153356042Y-107822790D01*
X153341724Y-107820666D01*
X153327683Y-107817149D01*
X153314054Y-107812272D01*
X153300969Y-107806083D01*
X153288553Y-107798642D01*
X153276927Y-107790019D01*
X153266202Y-107780298D01*
X153256481Y-107769573D01*
X153247858Y-107757947D01*
X153240417Y-107745531D01*
X153234228Y-107732446D01*
X153229351Y-107718817D01*
X153225834Y-107704776D01*
X153223710Y-107690458D01*
X153223000Y-107676000D01*
X153223000Y-107381000D01*
X153223710Y-107366542D01*
X153225834Y-107352224D01*
X153229351Y-107338183D01*
X153234228Y-107324554D01*
X153240417Y-107311469D01*
X153247858Y-107299053D01*
X153256481Y-107287427D01*
X153266202Y-107276702D01*
X153276927Y-107266981D01*
X153288553Y-107258358D01*
X153300969Y-107250917D01*
X153314054Y-107244728D01*
X153327683Y-107239851D01*
X153341724Y-107236334D01*
X153356042Y-107234210D01*
X153370500Y-107233500D01*
X153715500Y-107233500D01*
X153729958Y-107234210D01*
X153729958Y-107234210D01*
G37*
D12*
X153543000Y-107528500D03*
D11*
G36*
X153729958Y-108204210D02*
X153744276Y-108206334D01*
X153758317Y-108209851D01*
X153771946Y-108214728D01*
X153785031Y-108220917D01*
X153797447Y-108228358D01*
X153809073Y-108236981D01*
X153819798Y-108246702D01*
X153829519Y-108257427D01*
X153838142Y-108269053D01*
X153845583Y-108281469D01*
X153851772Y-108294554D01*
X153856649Y-108308183D01*
X153860166Y-108322224D01*
X153862290Y-108336542D01*
X153863000Y-108351000D01*
X153863000Y-108646000D01*
X153862290Y-108660458D01*
X153860166Y-108674776D01*
X153856649Y-108688817D01*
X153851772Y-108702446D01*
X153845583Y-108715531D01*
X153838142Y-108727947D01*
X153829519Y-108739573D01*
X153819798Y-108750298D01*
X153809073Y-108760019D01*
X153797447Y-108768642D01*
X153785031Y-108776083D01*
X153771946Y-108782272D01*
X153758317Y-108787149D01*
X153744276Y-108790666D01*
X153729958Y-108792790D01*
X153715500Y-108793500D01*
X153370500Y-108793500D01*
X153356042Y-108792790D01*
X153341724Y-108790666D01*
X153327683Y-108787149D01*
X153314054Y-108782272D01*
X153300969Y-108776083D01*
X153288553Y-108768642D01*
X153276927Y-108760019D01*
X153266202Y-108750298D01*
X153256481Y-108739573D01*
X153247858Y-108727947D01*
X153240417Y-108715531D01*
X153234228Y-108702446D01*
X153229351Y-108688817D01*
X153225834Y-108674776D01*
X153223710Y-108660458D01*
X153223000Y-108646000D01*
X153223000Y-108351000D01*
X153223710Y-108336542D01*
X153225834Y-108322224D01*
X153229351Y-108308183D01*
X153234228Y-108294554D01*
X153240417Y-108281469D01*
X153247858Y-108269053D01*
X153256481Y-108257427D01*
X153266202Y-108246702D01*
X153276927Y-108236981D01*
X153288553Y-108228358D01*
X153300969Y-108220917D01*
X153314054Y-108214728D01*
X153327683Y-108209851D01*
X153341724Y-108206334D01*
X153356042Y-108204210D01*
X153370500Y-108203500D01*
X153715500Y-108203500D01*
X153729958Y-108204210D01*
X153729958Y-108204210D01*
G37*
D12*
X153543000Y-108498500D03*
G04 #@! TD*
D13*
G04 #@! TO.C,U2*
X154010000Y-105852000D03*
X154010000Y-103952000D03*
X156210000Y-103952000D03*
X156210000Y-104902000D03*
X156210000Y-105852000D03*
G04 #@! TD*
G04 #@! TO.C,U4*
X146558000Y-104013000D03*
X146558000Y-104963000D03*
X146558000Y-105913000D03*
X148758000Y-105913000D03*
X148758000Y-104013000D03*
G04 #@! TD*
D14*
G04 #@! TO.C,SW1*
X149430000Y-129723100D03*
X152830000Y-129723100D03*
G04 #@! TD*
D15*
G04 #@! TO.C,U5*
X152580000Y-125210000D03*
X152580000Y-124710000D03*
X152580000Y-124210000D03*
X152580000Y-123710000D03*
X149680000Y-123710000D03*
X149680000Y-124210000D03*
X149680000Y-124710000D03*
X149680000Y-125210000D03*
D16*
X151567500Y-124097500D03*
X150692500Y-124097500D03*
X150692500Y-124822500D03*
X151567500Y-124822500D03*
G04 #@! TD*
D17*
G04 #@! TO.C,U3*
X150055000Y-121849000D03*
X152205000Y-121849000D03*
X152205000Y-120299000D03*
X150055000Y-120299000D03*
G04 #@! TD*
D18*
G04 #@! TO.C,U6*
X150024000Y-97934000D03*
D19*
X151799000Y-100584000D03*
X152449000Y-100584000D03*
X149849000Y-100584000D03*
X150499000Y-100584000D03*
X151149000Y-100584000D03*
D18*
X152274000Y-97934000D03*
D20*
X148829000Y-100164000D03*
X153469000Y-100164000D03*
G04 #@! TD*
D11*
G04 #@! TO.C,U1*
G36*
X153359504Y-111465204D02*
X153383773Y-111468804D01*
X153407571Y-111474765D01*
X153430671Y-111483030D01*
X153452849Y-111493520D01*
X153473893Y-111506133D01*
X153493598Y-111520747D01*
X153511777Y-111537223D01*
X153528253Y-111555402D01*
X153542867Y-111575107D01*
X153555480Y-111596151D01*
X153565970Y-111618329D01*
X153574235Y-111641429D01*
X153580196Y-111665227D01*
X153583796Y-111689496D01*
X153585000Y-111714000D01*
X153585000Y-112254000D01*
X153583796Y-112278504D01*
X153580196Y-112302773D01*
X153574235Y-112326571D01*
X153565970Y-112349671D01*
X153555480Y-112371849D01*
X153542867Y-112392893D01*
X153528253Y-112412598D01*
X153511777Y-112430777D01*
X153493598Y-112447253D01*
X153473893Y-112461867D01*
X153452849Y-112474480D01*
X153430671Y-112484970D01*
X153407571Y-112493235D01*
X153383773Y-112499196D01*
X153359504Y-112502796D01*
X153335000Y-112504000D01*
X152795000Y-112504000D01*
X152770496Y-112502796D01*
X152746227Y-112499196D01*
X152722429Y-112493235D01*
X152699329Y-112484970D01*
X152677151Y-112474480D01*
X152656107Y-112461867D01*
X152636402Y-112447253D01*
X152618223Y-112430777D01*
X152601747Y-112412598D01*
X152587133Y-112392893D01*
X152574520Y-112371849D01*
X152564030Y-112349671D01*
X152555765Y-112326571D01*
X152549804Y-112302773D01*
X152546204Y-112278504D01*
X152545000Y-112254000D01*
X152545000Y-111714000D01*
X152546204Y-111689496D01*
X152549804Y-111665227D01*
X152555765Y-111641429D01*
X152564030Y-111618329D01*
X152574520Y-111596151D01*
X152587133Y-111575107D01*
X152601747Y-111555402D01*
X152618223Y-111537223D01*
X152636402Y-111520747D01*
X152656107Y-111506133D01*
X152677151Y-111493520D01*
X152699329Y-111483030D01*
X152722429Y-111474765D01*
X152746227Y-111468804D01*
X152770496Y-111465204D01*
X152795000Y-111464000D01*
X153335000Y-111464000D01*
X153359504Y-111465204D01*
X153359504Y-111465204D01*
G37*
D21*
X153065000Y-111984000D03*
D11*
G36*
X152069504Y-111465204D02*
X152093773Y-111468804D01*
X152117571Y-111474765D01*
X152140671Y-111483030D01*
X152162849Y-111493520D01*
X152183893Y-111506133D01*
X152203598Y-111520747D01*
X152221777Y-111537223D01*
X152238253Y-111555402D01*
X152252867Y-111575107D01*
X152265480Y-111596151D01*
X152275970Y-111618329D01*
X152284235Y-111641429D01*
X152290196Y-111665227D01*
X152293796Y-111689496D01*
X152295000Y-111714000D01*
X152295000Y-112254000D01*
X152293796Y-112278504D01*
X152290196Y-112302773D01*
X152284235Y-112326571D01*
X152275970Y-112349671D01*
X152265480Y-112371849D01*
X152252867Y-112392893D01*
X152238253Y-112412598D01*
X152221777Y-112430777D01*
X152203598Y-112447253D01*
X152183893Y-112461867D01*
X152162849Y-112474480D01*
X152140671Y-112484970D01*
X152117571Y-112493235D01*
X152093773Y-112499196D01*
X152069504Y-112502796D01*
X152045000Y-112504000D01*
X151505000Y-112504000D01*
X151480496Y-112502796D01*
X151456227Y-112499196D01*
X151432429Y-112493235D01*
X151409329Y-112484970D01*
X151387151Y-112474480D01*
X151366107Y-112461867D01*
X151346402Y-112447253D01*
X151328223Y-112430777D01*
X151311747Y-112412598D01*
X151297133Y-112392893D01*
X151284520Y-112371849D01*
X151274030Y-112349671D01*
X151265765Y-112326571D01*
X151259804Y-112302773D01*
X151256204Y-112278504D01*
X151255000Y-112254000D01*
X151255000Y-111714000D01*
X151256204Y-111689496D01*
X151259804Y-111665227D01*
X151265765Y-111641429D01*
X151274030Y-111618329D01*
X151284520Y-111596151D01*
X151297133Y-111575107D01*
X151311747Y-111555402D01*
X151328223Y-111537223D01*
X151346402Y-111520747D01*
X151366107Y-111506133D01*
X151387151Y-111493520D01*
X151409329Y-111483030D01*
X151432429Y-111474765D01*
X151456227Y-111468804D01*
X151480496Y-111465204D01*
X151505000Y-111464000D01*
X152045000Y-111464000D01*
X152069504Y-111465204D01*
X152069504Y-111465204D01*
G37*
D21*
X151775000Y-111984000D03*
D11*
G36*
X150779504Y-111465204D02*
X150803773Y-111468804D01*
X150827571Y-111474765D01*
X150850671Y-111483030D01*
X150872849Y-111493520D01*
X150893893Y-111506133D01*
X150913598Y-111520747D01*
X150931777Y-111537223D01*
X150948253Y-111555402D01*
X150962867Y-111575107D01*
X150975480Y-111596151D01*
X150985970Y-111618329D01*
X150994235Y-111641429D01*
X151000196Y-111665227D01*
X151003796Y-111689496D01*
X151005000Y-111714000D01*
X151005000Y-112254000D01*
X151003796Y-112278504D01*
X151000196Y-112302773D01*
X150994235Y-112326571D01*
X150985970Y-112349671D01*
X150975480Y-112371849D01*
X150962867Y-112392893D01*
X150948253Y-112412598D01*
X150931777Y-112430777D01*
X150913598Y-112447253D01*
X150893893Y-112461867D01*
X150872849Y-112474480D01*
X150850671Y-112484970D01*
X150827571Y-112493235D01*
X150803773Y-112499196D01*
X150779504Y-112502796D01*
X150755000Y-112504000D01*
X150215000Y-112504000D01*
X150190496Y-112502796D01*
X150166227Y-112499196D01*
X150142429Y-112493235D01*
X150119329Y-112484970D01*
X150097151Y-112474480D01*
X150076107Y-112461867D01*
X150056402Y-112447253D01*
X150038223Y-112430777D01*
X150021747Y-112412598D01*
X150007133Y-112392893D01*
X149994520Y-112371849D01*
X149984030Y-112349671D01*
X149975765Y-112326571D01*
X149969804Y-112302773D01*
X149966204Y-112278504D01*
X149965000Y-112254000D01*
X149965000Y-111714000D01*
X149966204Y-111689496D01*
X149969804Y-111665227D01*
X149975765Y-111641429D01*
X149984030Y-111618329D01*
X149994520Y-111596151D01*
X150007133Y-111575107D01*
X150021747Y-111555402D01*
X150038223Y-111537223D01*
X150056402Y-111520747D01*
X150076107Y-111506133D01*
X150097151Y-111493520D01*
X150119329Y-111483030D01*
X150142429Y-111474765D01*
X150166227Y-111468804D01*
X150190496Y-111465204D01*
X150215000Y-111464000D01*
X150755000Y-111464000D01*
X150779504Y-111465204D01*
X150779504Y-111465204D01*
G37*
D21*
X150485000Y-111984000D03*
D11*
G36*
X149489504Y-111465204D02*
X149513773Y-111468804D01*
X149537571Y-111474765D01*
X149560671Y-111483030D01*
X149582849Y-111493520D01*
X149603893Y-111506133D01*
X149623598Y-111520747D01*
X149641777Y-111537223D01*
X149658253Y-111555402D01*
X149672867Y-111575107D01*
X149685480Y-111596151D01*
X149695970Y-111618329D01*
X149704235Y-111641429D01*
X149710196Y-111665227D01*
X149713796Y-111689496D01*
X149715000Y-111714000D01*
X149715000Y-112254000D01*
X149713796Y-112278504D01*
X149710196Y-112302773D01*
X149704235Y-112326571D01*
X149695970Y-112349671D01*
X149685480Y-112371849D01*
X149672867Y-112392893D01*
X149658253Y-112412598D01*
X149641777Y-112430777D01*
X149623598Y-112447253D01*
X149603893Y-112461867D01*
X149582849Y-112474480D01*
X149560671Y-112484970D01*
X149537571Y-112493235D01*
X149513773Y-112499196D01*
X149489504Y-112502796D01*
X149465000Y-112504000D01*
X148925000Y-112504000D01*
X148900496Y-112502796D01*
X148876227Y-112499196D01*
X148852429Y-112493235D01*
X148829329Y-112484970D01*
X148807151Y-112474480D01*
X148786107Y-112461867D01*
X148766402Y-112447253D01*
X148748223Y-112430777D01*
X148731747Y-112412598D01*
X148717133Y-112392893D01*
X148704520Y-112371849D01*
X148694030Y-112349671D01*
X148685765Y-112326571D01*
X148679804Y-112302773D01*
X148676204Y-112278504D01*
X148675000Y-112254000D01*
X148675000Y-111714000D01*
X148676204Y-111689496D01*
X148679804Y-111665227D01*
X148685765Y-111641429D01*
X148694030Y-111618329D01*
X148704520Y-111596151D01*
X148717133Y-111575107D01*
X148731747Y-111555402D01*
X148748223Y-111537223D01*
X148766402Y-111520747D01*
X148786107Y-111506133D01*
X148807151Y-111493520D01*
X148829329Y-111483030D01*
X148852429Y-111474765D01*
X148876227Y-111468804D01*
X148900496Y-111465204D01*
X148925000Y-111464000D01*
X149465000Y-111464000D01*
X149489504Y-111465204D01*
X149489504Y-111465204D01*
G37*
D21*
X149195000Y-111984000D03*
D11*
G36*
X153359504Y-112755204D02*
X153383773Y-112758804D01*
X153407571Y-112764765D01*
X153430671Y-112773030D01*
X153452849Y-112783520D01*
X153473893Y-112796133D01*
X153493598Y-112810747D01*
X153511777Y-112827223D01*
X153528253Y-112845402D01*
X153542867Y-112865107D01*
X153555480Y-112886151D01*
X153565970Y-112908329D01*
X153574235Y-112931429D01*
X153580196Y-112955227D01*
X153583796Y-112979496D01*
X153585000Y-113004000D01*
X153585000Y-113544000D01*
X153583796Y-113568504D01*
X153580196Y-113592773D01*
X153574235Y-113616571D01*
X153565970Y-113639671D01*
X153555480Y-113661849D01*
X153542867Y-113682893D01*
X153528253Y-113702598D01*
X153511777Y-113720777D01*
X153493598Y-113737253D01*
X153473893Y-113751867D01*
X153452849Y-113764480D01*
X153430671Y-113774970D01*
X153407571Y-113783235D01*
X153383773Y-113789196D01*
X153359504Y-113792796D01*
X153335000Y-113794000D01*
X152795000Y-113794000D01*
X152770496Y-113792796D01*
X152746227Y-113789196D01*
X152722429Y-113783235D01*
X152699329Y-113774970D01*
X152677151Y-113764480D01*
X152656107Y-113751867D01*
X152636402Y-113737253D01*
X152618223Y-113720777D01*
X152601747Y-113702598D01*
X152587133Y-113682893D01*
X152574520Y-113661849D01*
X152564030Y-113639671D01*
X152555765Y-113616571D01*
X152549804Y-113592773D01*
X152546204Y-113568504D01*
X152545000Y-113544000D01*
X152545000Y-113004000D01*
X152546204Y-112979496D01*
X152549804Y-112955227D01*
X152555765Y-112931429D01*
X152564030Y-112908329D01*
X152574520Y-112886151D01*
X152587133Y-112865107D01*
X152601747Y-112845402D01*
X152618223Y-112827223D01*
X152636402Y-112810747D01*
X152656107Y-112796133D01*
X152677151Y-112783520D01*
X152699329Y-112773030D01*
X152722429Y-112764765D01*
X152746227Y-112758804D01*
X152770496Y-112755204D01*
X152795000Y-112754000D01*
X153335000Y-112754000D01*
X153359504Y-112755204D01*
X153359504Y-112755204D01*
G37*
D21*
X153065000Y-113274000D03*
D11*
G36*
X152069504Y-112755204D02*
X152093773Y-112758804D01*
X152117571Y-112764765D01*
X152140671Y-112773030D01*
X152162849Y-112783520D01*
X152183893Y-112796133D01*
X152203598Y-112810747D01*
X152221777Y-112827223D01*
X152238253Y-112845402D01*
X152252867Y-112865107D01*
X152265480Y-112886151D01*
X152275970Y-112908329D01*
X152284235Y-112931429D01*
X152290196Y-112955227D01*
X152293796Y-112979496D01*
X152295000Y-113004000D01*
X152295000Y-113544000D01*
X152293796Y-113568504D01*
X152290196Y-113592773D01*
X152284235Y-113616571D01*
X152275970Y-113639671D01*
X152265480Y-113661849D01*
X152252867Y-113682893D01*
X152238253Y-113702598D01*
X152221777Y-113720777D01*
X152203598Y-113737253D01*
X152183893Y-113751867D01*
X152162849Y-113764480D01*
X152140671Y-113774970D01*
X152117571Y-113783235D01*
X152093773Y-113789196D01*
X152069504Y-113792796D01*
X152045000Y-113794000D01*
X151505000Y-113794000D01*
X151480496Y-113792796D01*
X151456227Y-113789196D01*
X151432429Y-113783235D01*
X151409329Y-113774970D01*
X151387151Y-113764480D01*
X151366107Y-113751867D01*
X151346402Y-113737253D01*
X151328223Y-113720777D01*
X151311747Y-113702598D01*
X151297133Y-113682893D01*
X151284520Y-113661849D01*
X151274030Y-113639671D01*
X151265765Y-113616571D01*
X151259804Y-113592773D01*
X151256204Y-113568504D01*
X151255000Y-113544000D01*
X151255000Y-113004000D01*
X151256204Y-112979496D01*
X151259804Y-112955227D01*
X151265765Y-112931429D01*
X151274030Y-112908329D01*
X151284520Y-112886151D01*
X151297133Y-112865107D01*
X151311747Y-112845402D01*
X151328223Y-112827223D01*
X151346402Y-112810747D01*
X151366107Y-112796133D01*
X151387151Y-112783520D01*
X151409329Y-112773030D01*
X151432429Y-112764765D01*
X151456227Y-112758804D01*
X151480496Y-112755204D01*
X151505000Y-112754000D01*
X152045000Y-112754000D01*
X152069504Y-112755204D01*
X152069504Y-112755204D01*
G37*
D21*
X151775000Y-113274000D03*
D11*
G36*
X150779504Y-112755204D02*
X150803773Y-112758804D01*
X150827571Y-112764765D01*
X150850671Y-112773030D01*
X150872849Y-112783520D01*
X150893893Y-112796133D01*
X150913598Y-112810747D01*
X150931777Y-112827223D01*
X150948253Y-112845402D01*
X150962867Y-112865107D01*
X150975480Y-112886151D01*
X150985970Y-112908329D01*
X150994235Y-112931429D01*
X151000196Y-112955227D01*
X151003796Y-112979496D01*
X151005000Y-113004000D01*
X151005000Y-113544000D01*
X151003796Y-113568504D01*
X151000196Y-113592773D01*
X150994235Y-113616571D01*
X150985970Y-113639671D01*
X150975480Y-113661849D01*
X150962867Y-113682893D01*
X150948253Y-113702598D01*
X150931777Y-113720777D01*
X150913598Y-113737253D01*
X150893893Y-113751867D01*
X150872849Y-113764480D01*
X150850671Y-113774970D01*
X150827571Y-113783235D01*
X150803773Y-113789196D01*
X150779504Y-113792796D01*
X150755000Y-113794000D01*
X150215000Y-113794000D01*
X150190496Y-113792796D01*
X150166227Y-113789196D01*
X150142429Y-113783235D01*
X150119329Y-113774970D01*
X150097151Y-113764480D01*
X150076107Y-113751867D01*
X150056402Y-113737253D01*
X150038223Y-113720777D01*
X150021747Y-113702598D01*
X150007133Y-113682893D01*
X149994520Y-113661849D01*
X149984030Y-113639671D01*
X149975765Y-113616571D01*
X149969804Y-113592773D01*
X149966204Y-113568504D01*
X149965000Y-113544000D01*
X149965000Y-113004000D01*
X149966204Y-112979496D01*
X149969804Y-112955227D01*
X149975765Y-112931429D01*
X149984030Y-112908329D01*
X149994520Y-112886151D01*
X150007133Y-112865107D01*
X150021747Y-112845402D01*
X150038223Y-112827223D01*
X150056402Y-112810747D01*
X150076107Y-112796133D01*
X150097151Y-112783520D01*
X150119329Y-112773030D01*
X150142429Y-112764765D01*
X150166227Y-112758804D01*
X150190496Y-112755204D01*
X150215000Y-112754000D01*
X150755000Y-112754000D01*
X150779504Y-112755204D01*
X150779504Y-112755204D01*
G37*
D21*
X150485000Y-113274000D03*
D11*
G36*
X149489504Y-112755204D02*
X149513773Y-112758804D01*
X149537571Y-112764765D01*
X149560671Y-112773030D01*
X149582849Y-112783520D01*
X149603893Y-112796133D01*
X149623598Y-112810747D01*
X149641777Y-112827223D01*
X149658253Y-112845402D01*
X149672867Y-112865107D01*
X149685480Y-112886151D01*
X149695970Y-112908329D01*
X149704235Y-112931429D01*
X149710196Y-112955227D01*
X149713796Y-112979496D01*
X149715000Y-113004000D01*
X149715000Y-113544000D01*
X149713796Y-113568504D01*
X149710196Y-113592773D01*
X149704235Y-113616571D01*
X149695970Y-113639671D01*
X149685480Y-113661849D01*
X149672867Y-113682893D01*
X149658253Y-113702598D01*
X149641777Y-113720777D01*
X149623598Y-113737253D01*
X149603893Y-113751867D01*
X149582849Y-113764480D01*
X149560671Y-113774970D01*
X149537571Y-113783235D01*
X149513773Y-113789196D01*
X149489504Y-113792796D01*
X149465000Y-113794000D01*
X148925000Y-113794000D01*
X148900496Y-113792796D01*
X148876227Y-113789196D01*
X148852429Y-113783235D01*
X148829329Y-113774970D01*
X148807151Y-113764480D01*
X148786107Y-113751867D01*
X148766402Y-113737253D01*
X148748223Y-113720777D01*
X148731747Y-113702598D01*
X148717133Y-113682893D01*
X148704520Y-113661849D01*
X148694030Y-113639671D01*
X148685765Y-113616571D01*
X148679804Y-113592773D01*
X148676204Y-113568504D01*
X148675000Y-113544000D01*
X148675000Y-113004000D01*
X148676204Y-112979496D01*
X148679804Y-112955227D01*
X148685765Y-112931429D01*
X148694030Y-112908329D01*
X148704520Y-112886151D01*
X148717133Y-112865107D01*
X148731747Y-112845402D01*
X148748223Y-112827223D01*
X148766402Y-112810747D01*
X148786107Y-112796133D01*
X148807151Y-112783520D01*
X148829329Y-112773030D01*
X148852429Y-112764765D01*
X148876227Y-112758804D01*
X148900496Y-112755204D01*
X148925000Y-112754000D01*
X149465000Y-112754000D01*
X149489504Y-112755204D01*
X149489504Y-112755204D01*
G37*
D21*
X149195000Y-113274000D03*
D11*
G36*
X153359504Y-114045204D02*
X153383773Y-114048804D01*
X153407571Y-114054765D01*
X153430671Y-114063030D01*
X153452849Y-114073520D01*
X153473893Y-114086133D01*
X153493598Y-114100747D01*
X153511777Y-114117223D01*
X153528253Y-114135402D01*
X153542867Y-114155107D01*
X153555480Y-114176151D01*
X153565970Y-114198329D01*
X153574235Y-114221429D01*
X153580196Y-114245227D01*
X153583796Y-114269496D01*
X153585000Y-114294000D01*
X153585000Y-114834000D01*
X153583796Y-114858504D01*
X153580196Y-114882773D01*
X153574235Y-114906571D01*
X153565970Y-114929671D01*
X153555480Y-114951849D01*
X153542867Y-114972893D01*
X153528253Y-114992598D01*
X153511777Y-115010777D01*
X153493598Y-115027253D01*
X153473893Y-115041867D01*
X153452849Y-115054480D01*
X153430671Y-115064970D01*
X153407571Y-115073235D01*
X153383773Y-115079196D01*
X153359504Y-115082796D01*
X153335000Y-115084000D01*
X152795000Y-115084000D01*
X152770496Y-115082796D01*
X152746227Y-115079196D01*
X152722429Y-115073235D01*
X152699329Y-115064970D01*
X152677151Y-115054480D01*
X152656107Y-115041867D01*
X152636402Y-115027253D01*
X152618223Y-115010777D01*
X152601747Y-114992598D01*
X152587133Y-114972893D01*
X152574520Y-114951849D01*
X152564030Y-114929671D01*
X152555765Y-114906571D01*
X152549804Y-114882773D01*
X152546204Y-114858504D01*
X152545000Y-114834000D01*
X152545000Y-114294000D01*
X152546204Y-114269496D01*
X152549804Y-114245227D01*
X152555765Y-114221429D01*
X152564030Y-114198329D01*
X152574520Y-114176151D01*
X152587133Y-114155107D01*
X152601747Y-114135402D01*
X152618223Y-114117223D01*
X152636402Y-114100747D01*
X152656107Y-114086133D01*
X152677151Y-114073520D01*
X152699329Y-114063030D01*
X152722429Y-114054765D01*
X152746227Y-114048804D01*
X152770496Y-114045204D01*
X152795000Y-114044000D01*
X153335000Y-114044000D01*
X153359504Y-114045204D01*
X153359504Y-114045204D01*
G37*
D21*
X153065000Y-114564000D03*
D11*
G36*
X152069504Y-114045204D02*
X152093773Y-114048804D01*
X152117571Y-114054765D01*
X152140671Y-114063030D01*
X152162849Y-114073520D01*
X152183893Y-114086133D01*
X152203598Y-114100747D01*
X152221777Y-114117223D01*
X152238253Y-114135402D01*
X152252867Y-114155107D01*
X152265480Y-114176151D01*
X152275970Y-114198329D01*
X152284235Y-114221429D01*
X152290196Y-114245227D01*
X152293796Y-114269496D01*
X152295000Y-114294000D01*
X152295000Y-114834000D01*
X152293796Y-114858504D01*
X152290196Y-114882773D01*
X152284235Y-114906571D01*
X152275970Y-114929671D01*
X152265480Y-114951849D01*
X152252867Y-114972893D01*
X152238253Y-114992598D01*
X152221777Y-115010777D01*
X152203598Y-115027253D01*
X152183893Y-115041867D01*
X152162849Y-115054480D01*
X152140671Y-115064970D01*
X152117571Y-115073235D01*
X152093773Y-115079196D01*
X152069504Y-115082796D01*
X152045000Y-115084000D01*
X151505000Y-115084000D01*
X151480496Y-115082796D01*
X151456227Y-115079196D01*
X151432429Y-115073235D01*
X151409329Y-115064970D01*
X151387151Y-115054480D01*
X151366107Y-115041867D01*
X151346402Y-115027253D01*
X151328223Y-115010777D01*
X151311747Y-114992598D01*
X151297133Y-114972893D01*
X151284520Y-114951849D01*
X151274030Y-114929671D01*
X151265765Y-114906571D01*
X151259804Y-114882773D01*
X151256204Y-114858504D01*
X151255000Y-114834000D01*
X151255000Y-114294000D01*
X151256204Y-114269496D01*
X151259804Y-114245227D01*
X151265765Y-114221429D01*
X151274030Y-114198329D01*
X151284520Y-114176151D01*
X151297133Y-114155107D01*
X151311747Y-114135402D01*
X151328223Y-114117223D01*
X151346402Y-114100747D01*
X151366107Y-114086133D01*
X151387151Y-114073520D01*
X151409329Y-114063030D01*
X151432429Y-114054765D01*
X151456227Y-114048804D01*
X151480496Y-114045204D01*
X151505000Y-114044000D01*
X152045000Y-114044000D01*
X152069504Y-114045204D01*
X152069504Y-114045204D01*
G37*
D21*
X151775000Y-114564000D03*
D11*
G36*
X150779504Y-114045204D02*
X150803773Y-114048804D01*
X150827571Y-114054765D01*
X150850671Y-114063030D01*
X150872849Y-114073520D01*
X150893893Y-114086133D01*
X150913598Y-114100747D01*
X150931777Y-114117223D01*
X150948253Y-114135402D01*
X150962867Y-114155107D01*
X150975480Y-114176151D01*
X150985970Y-114198329D01*
X150994235Y-114221429D01*
X151000196Y-114245227D01*
X151003796Y-114269496D01*
X151005000Y-114294000D01*
X151005000Y-114834000D01*
X151003796Y-114858504D01*
X151000196Y-114882773D01*
X150994235Y-114906571D01*
X150985970Y-114929671D01*
X150975480Y-114951849D01*
X150962867Y-114972893D01*
X150948253Y-114992598D01*
X150931777Y-115010777D01*
X150913598Y-115027253D01*
X150893893Y-115041867D01*
X150872849Y-115054480D01*
X150850671Y-115064970D01*
X150827571Y-115073235D01*
X150803773Y-115079196D01*
X150779504Y-115082796D01*
X150755000Y-115084000D01*
X150215000Y-115084000D01*
X150190496Y-115082796D01*
X150166227Y-115079196D01*
X150142429Y-115073235D01*
X150119329Y-115064970D01*
X150097151Y-115054480D01*
X150076107Y-115041867D01*
X150056402Y-115027253D01*
X150038223Y-115010777D01*
X150021747Y-114992598D01*
X150007133Y-114972893D01*
X149994520Y-114951849D01*
X149984030Y-114929671D01*
X149975765Y-114906571D01*
X149969804Y-114882773D01*
X149966204Y-114858504D01*
X149965000Y-114834000D01*
X149965000Y-114294000D01*
X149966204Y-114269496D01*
X149969804Y-114245227D01*
X149975765Y-114221429D01*
X149984030Y-114198329D01*
X149994520Y-114176151D01*
X150007133Y-114155107D01*
X150021747Y-114135402D01*
X150038223Y-114117223D01*
X150056402Y-114100747D01*
X150076107Y-114086133D01*
X150097151Y-114073520D01*
X150119329Y-114063030D01*
X150142429Y-114054765D01*
X150166227Y-114048804D01*
X150190496Y-114045204D01*
X150215000Y-114044000D01*
X150755000Y-114044000D01*
X150779504Y-114045204D01*
X150779504Y-114045204D01*
G37*
D21*
X150485000Y-114564000D03*
D11*
G36*
X149489504Y-114045204D02*
X149513773Y-114048804D01*
X149537571Y-114054765D01*
X149560671Y-114063030D01*
X149582849Y-114073520D01*
X149603893Y-114086133D01*
X149623598Y-114100747D01*
X149641777Y-114117223D01*
X149658253Y-114135402D01*
X149672867Y-114155107D01*
X149685480Y-114176151D01*
X149695970Y-114198329D01*
X149704235Y-114221429D01*
X149710196Y-114245227D01*
X149713796Y-114269496D01*
X149715000Y-114294000D01*
X149715000Y-114834000D01*
X149713796Y-114858504D01*
X149710196Y-114882773D01*
X149704235Y-114906571D01*
X149695970Y-114929671D01*
X149685480Y-114951849D01*
X149672867Y-114972893D01*
X149658253Y-114992598D01*
X149641777Y-115010777D01*
X149623598Y-115027253D01*
X149603893Y-115041867D01*
X149582849Y-115054480D01*
X149560671Y-115064970D01*
X149537571Y-115073235D01*
X149513773Y-115079196D01*
X149489504Y-115082796D01*
X149465000Y-115084000D01*
X148925000Y-115084000D01*
X148900496Y-115082796D01*
X148876227Y-115079196D01*
X148852429Y-115073235D01*
X148829329Y-115064970D01*
X148807151Y-115054480D01*
X148786107Y-115041867D01*
X148766402Y-115027253D01*
X148748223Y-115010777D01*
X148731747Y-114992598D01*
X148717133Y-114972893D01*
X148704520Y-114951849D01*
X148694030Y-114929671D01*
X148685765Y-114906571D01*
X148679804Y-114882773D01*
X148676204Y-114858504D01*
X148675000Y-114834000D01*
X148675000Y-114294000D01*
X148676204Y-114269496D01*
X148679804Y-114245227D01*
X148685765Y-114221429D01*
X148694030Y-114198329D01*
X148704520Y-114176151D01*
X148717133Y-114155107D01*
X148731747Y-114135402D01*
X148748223Y-114117223D01*
X148766402Y-114100747D01*
X148786107Y-114086133D01*
X148807151Y-114073520D01*
X148829329Y-114063030D01*
X148852429Y-114054765D01*
X148876227Y-114048804D01*
X148900496Y-114045204D01*
X148925000Y-114044000D01*
X149465000Y-114044000D01*
X149489504Y-114045204D01*
X149489504Y-114045204D01*
G37*
D21*
X149195000Y-114564000D03*
D11*
G36*
X153359504Y-115335204D02*
X153383773Y-115338804D01*
X153407571Y-115344765D01*
X153430671Y-115353030D01*
X153452849Y-115363520D01*
X153473893Y-115376133D01*
X153493598Y-115390747D01*
X153511777Y-115407223D01*
X153528253Y-115425402D01*
X153542867Y-115445107D01*
X153555480Y-115466151D01*
X153565970Y-115488329D01*
X153574235Y-115511429D01*
X153580196Y-115535227D01*
X153583796Y-115559496D01*
X153585000Y-115584000D01*
X153585000Y-116124000D01*
X153583796Y-116148504D01*
X153580196Y-116172773D01*
X153574235Y-116196571D01*
X153565970Y-116219671D01*
X153555480Y-116241849D01*
X153542867Y-116262893D01*
X153528253Y-116282598D01*
X153511777Y-116300777D01*
X153493598Y-116317253D01*
X153473893Y-116331867D01*
X153452849Y-116344480D01*
X153430671Y-116354970D01*
X153407571Y-116363235D01*
X153383773Y-116369196D01*
X153359504Y-116372796D01*
X153335000Y-116374000D01*
X152795000Y-116374000D01*
X152770496Y-116372796D01*
X152746227Y-116369196D01*
X152722429Y-116363235D01*
X152699329Y-116354970D01*
X152677151Y-116344480D01*
X152656107Y-116331867D01*
X152636402Y-116317253D01*
X152618223Y-116300777D01*
X152601747Y-116282598D01*
X152587133Y-116262893D01*
X152574520Y-116241849D01*
X152564030Y-116219671D01*
X152555765Y-116196571D01*
X152549804Y-116172773D01*
X152546204Y-116148504D01*
X152545000Y-116124000D01*
X152545000Y-115584000D01*
X152546204Y-115559496D01*
X152549804Y-115535227D01*
X152555765Y-115511429D01*
X152564030Y-115488329D01*
X152574520Y-115466151D01*
X152587133Y-115445107D01*
X152601747Y-115425402D01*
X152618223Y-115407223D01*
X152636402Y-115390747D01*
X152656107Y-115376133D01*
X152677151Y-115363520D01*
X152699329Y-115353030D01*
X152722429Y-115344765D01*
X152746227Y-115338804D01*
X152770496Y-115335204D01*
X152795000Y-115334000D01*
X153335000Y-115334000D01*
X153359504Y-115335204D01*
X153359504Y-115335204D01*
G37*
D21*
X153065000Y-115854000D03*
D11*
G36*
X152069504Y-115335204D02*
X152093773Y-115338804D01*
X152117571Y-115344765D01*
X152140671Y-115353030D01*
X152162849Y-115363520D01*
X152183893Y-115376133D01*
X152203598Y-115390747D01*
X152221777Y-115407223D01*
X152238253Y-115425402D01*
X152252867Y-115445107D01*
X152265480Y-115466151D01*
X152275970Y-115488329D01*
X152284235Y-115511429D01*
X152290196Y-115535227D01*
X152293796Y-115559496D01*
X152295000Y-115584000D01*
X152295000Y-116124000D01*
X152293796Y-116148504D01*
X152290196Y-116172773D01*
X152284235Y-116196571D01*
X152275970Y-116219671D01*
X152265480Y-116241849D01*
X152252867Y-116262893D01*
X152238253Y-116282598D01*
X152221777Y-116300777D01*
X152203598Y-116317253D01*
X152183893Y-116331867D01*
X152162849Y-116344480D01*
X152140671Y-116354970D01*
X152117571Y-116363235D01*
X152093773Y-116369196D01*
X152069504Y-116372796D01*
X152045000Y-116374000D01*
X151505000Y-116374000D01*
X151480496Y-116372796D01*
X151456227Y-116369196D01*
X151432429Y-116363235D01*
X151409329Y-116354970D01*
X151387151Y-116344480D01*
X151366107Y-116331867D01*
X151346402Y-116317253D01*
X151328223Y-116300777D01*
X151311747Y-116282598D01*
X151297133Y-116262893D01*
X151284520Y-116241849D01*
X151274030Y-116219671D01*
X151265765Y-116196571D01*
X151259804Y-116172773D01*
X151256204Y-116148504D01*
X151255000Y-116124000D01*
X151255000Y-115584000D01*
X151256204Y-115559496D01*
X151259804Y-115535227D01*
X151265765Y-115511429D01*
X151274030Y-115488329D01*
X151284520Y-115466151D01*
X151297133Y-115445107D01*
X151311747Y-115425402D01*
X151328223Y-115407223D01*
X151346402Y-115390747D01*
X151366107Y-115376133D01*
X151387151Y-115363520D01*
X151409329Y-115353030D01*
X151432429Y-115344765D01*
X151456227Y-115338804D01*
X151480496Y-115335204D01*
X151505000Y-115334000D01*
X152045000Y-115334000D01*
X152069504Y-115335204D01*
X152069504Y-115335204D01*
G37*
D21*
X151775000Y-115854000D03*
D11*
G36*
X150779504Y-115335204D02*
X150803773Y-115338804D01*
X150827571Y-115344765D01*
X150850671Y-115353030D01*
X150872849Y-115363520D01*
X150893893Y-115376133D01*
X150913598Y-115390747D01*
X150931777Y-115407223D01*
X150948253Y-115425402D01*
X150962867Y-115445107D01*
X150975480Y-115466151D01*
X150985970Y-115488329D01*
X150994235Y-115511429D01*
X151000196Y-115535227D01*
X151003796Y-115559496D01*
X151005000Y-115584000D01*
X151005000Y-116124000D01*
X151003796Y-116148504D01*
X151000196Y-116172773D01*
X150994235Y-116196571D01*
X150985970Y-116219671D01*
X150975480Y-116241849D01*
X150962867Y-116262893D01*
X150948253Y-116282598D01*
X150931777Y-116300777D01*
X150913598Y-116317253D01*
X150893893Y-116331867D01*
X150872849Y-116344480D01*
X150850671Y-116354970D01*
X150827571Y-116363235D01*
X150803773Y-116369196D01*
X150779504Y-116372796D01*
X150755000Y-116374000D01*
X150215000Y-116374000D01*
X150190496Y-116372796D01*
X150166227Y-116369196D01*
X150142429Y-116363235D01*
X150119329Y-116354970D01*
X150097151Y-116344480D01*
X150076107Y-116331867D01*
X150056402Y-116317253D01*
X150038223Y-116300777D01*
X150021747Y-116282598D01*
X150007133Y-116262893D01*
X149994520Y-116241849D01*
X149984030Y-116219671D01*
X149975765Y-116196571D01*
X149969804Y-116172773D01*
X149966204Y-116148504D01*
X149965000Y-116124000D01*
X149965000Y-115584000D01*
X149966204Y-115559496D01*
X149969804Y-115535227D01*
X149975765Y-115511429D01*
X149984030Y-115488329D01*
X149994520Y-115466151D01*
X150007133Y-115445107D01*
X150021747Y-115425402D01*
X150038223Y-115407223D01*
X150056402Y-115390747D01*
X150076107Y-115376133D01*
X150097151Y-115363520D01*
X150119329Y-115353030D01*
X150142429Y-115344765D01*
X150166227Y-115338804D01*
X150190496Y-115335204D01*
X150215000Y-115334000D01*
X150755000Y-115334000D01*
X150779504Y-115335204D01*
X150779504Y-115335204D01*
G37*
D21*
X150485000Y-115854000D03*
D11*
G36*
X149489504Y-115335204D02*
X149513773Y-115338804D01*
X149537571Y-115344765D01*
X149560671Y-115353030D01*
X149582849Y-115363520D01*
X149603893Y-115376133D01*
X149623598Y-115390747D01*
X149641777Y-115407223D01*
X149658253Y-115425402D01*
X149672867Y-115445107D01*
X149685480Y-115466151D01*
X149695970Y-115488329D01*
X149704235Y-115511429D01*
X149710196Y-115535227D01*
X149713796Y-115559496D01*
X149715000Y-115584000D01*
X149715000Y-116124000D01*
X149713796Y-116148504D01*
X149710196Y-116172773D01*
X149704235Y-116196571D01*
X149695970Y-116219671D01*
X149685480Y-116241849D01*
X149672867Y-116262893D01*
X149658253Y-116282598D01*
X149641777Y-116300777D01*
X149623598Y-116317253D01*
X149603893Y-116331867D01*
X149582849Y-116344480D01*
X149560671Y-116354970D01*
X149537571Y-116363235D01*
X149513773Y-116369196D01*
X149489504Y-116372796D01*
X149465000Y-116374000D01*
X148925000Y-116374000D01*
X148900496Y-116372796D01*
X148876227Y-116369196D01*
X148852429Y-116363235D01*
X148829329Y-116354970D01*
X148807151Y-116344480D01*
X148786107Y-116331867D01*
X148766402Y-116317253D01*
X148748223Y-116300777D01*
X148731747Y-116282598D01*
X148717133Y-116262893D01*
X148704520Y-116241849D01*
X148694030Y-116219671D01*
X148685765Y-116196571D01*
X148679804Y-116172773D01*
X148676204Y-116148504D01*
X148675000Y-116124000D01*
X148675000Y-115584000D01*
X148676204Y-115559496D01*
X148679804Y-115535227D01*
X148685765Y-115511429D01*
X148694030Y-115488329D01*
X148704520Y-115466151D01*
X148717133Y-115445107D01*
X148731747Y-115425402D01*
X148748223Y-115407223D01*
X148766402Y-115390747D01*
X148786107Y-115376133D01*
X148807151Y-115363520D01*
X148829329Y-115353030D01*
X148852429Y-115344765D01*
X148876227Y-115338804D01*
X148900496Y-115335204D01*
X148925000Y-115334000D01*
X149465000Y-115334000D01*
X149489504Y-115335204D01*
X149489504Y-115335204D01*
G37*
D21*
X149195000Y-115854000D03*
D11*
G36*
X153948626Y-110044301D02*
X153954693Y-110045201D01*
X153960643Y-110046691D01*
X153966418Y-110048758D01*
X153971962Y-110051380D01*
X153977223Y-110054533D01*
X153982150Y-110058187D01*
X153986694Y-110062306D01*
X153990813Y-110066850D01*
X153994467Y-110071777D01*
X153997620Y-110077038D01*
X154000242Y-110082582D01*
X154002309Y-110088357D01*
X154003799Y-110094307D01*
X154004699Y-110100374D01*
X154005000Y-110106500D01*
X154005000Y-110856500D01*
X154004699Y-110862626D01*
X154003799Y-110868693D01*
X154002309Y-110874643D01*
X154000242Y-110880418D01*
X153997620Y-110885962D01*
X153994467Y-110891223D01*
X153990813Y-110896150D01*
X153986694Y-110900694D01*
X153982150Y-110904813D01*
X153977223Y-110908467D01*
X153971962Y-110911620D01*
X153966418Y-110914242D01*
X153960643Y-110916309D01*
X153954693Y-110917799D01*
X153948626Y-110918699D01*
X153942500Y-110919000D01*
X153817500Y-110919000D01*
X153811374Y-110918699D01*
X153805307Y-110917799D01*
X153799357Y-110916309D01*
X153793582Y-110914242D01*
X153788038Y-110911620D01*
X153782777Y-110908467D01*
X153777850Y-110904813D01*
X153773306Y-110900694D01*
X153769187Y-110896150D01*
X153765533Y-110891223D01*
X153762380Y-110885962D01*
X153759758Y-110880418D01*
X153757691Y-110874643D01*
X153756201Y-110868693D01*
X153755301Y-110862626D01*
X153755000Y-110856500D01*
X153755000Y-110106500D01*
X153755301Y-110100374D01*
X153756201Y-110094307D01*
X153757691Y-110088357D01*
X153759758Y-110082582D01*
X153762380Y-110077038D01*
X153765533Y-110071777D01*
X153769187Y-110066850D01*
X153773306Y-110062306D01*
X153777850Y-110058187D01*
X153782777Y-110054533D01*
X153788038Y-110051380D01*
X153793582Y-110048758D01*
X153799357Y-110046691D01*
X153805307Y-110045201D01*
X153811374Y-110044301D01*
X153817500Y-110044000D01*
X153942500Y-110044000D01*
X153948626Y-110044301D01*
X153948626Y-110044301D01*
G37*
D22*
X153880000Y-110481500D03*
D11*
G36*
X153448626Y-110044301D02*
X153454693Y-110045201D01*
X153460643Y-110046691D01*
X153466418Y-110048758D01*
X153471962Y-110051380D01*
X153477223Y-110054533D01*
X153482150Y-110058187D01*
X153486694Y-110062306D01*
X153490813Y-110066850D01*
X153494467Y-110071777D01*
X153497620Y-110077038D01*
X153500242Y-110082582D01*
X153502309Y-110088357D01*
X153503799Y-110094307D01*
X153504699Y-110100374D01*
X153505000Y-110106500D01*
X153505000Y-110856500D01*
X153504699Y-110862626D01*
X153503799Y-110868693D01*
X153502309Y-110874643D01*
X153500242Y-110880418D01*
X153497620Y-110885962D01*
X153494467Y-110891223D01*
X153490813Y-110896150D01*
X153486694Y-110900694D01*
X153482150Y-110904813D01*
X153477223Y-110908467D01*
X153471962Y-110911620D01*
X153466418Y-110914242D01*
X153460643Y-110916309D01*
X153454693Y-110917799D01*
X153448626Y-110918699D01*
X153442500Y-110919000D01*
X153317500Y-110919000D01*
X153311374Y-110918699D01*
X153305307Y-110917799D01*
X153299357Y-110916309D01*
X153293582Y-110914242D01*
X153288038Y-110911620D01*
X153282777Y-110908467D01*
X153277850Y-110904813D01*
X153273306Y-110900694D01*
X153269187Y-110896150D01*
X153265533Y-110891223D01*
X153262380Y-110885962D01*
X153259758Y-110880418D01*
X153257691Y-110874643D01*
X153256201Y-110868693D01*
X153255301Y-110862626D01*
X153255000Y-110856500D01*
X153255000Y-110106500D01*
X153255301Y-110100374D01*
X153256201Y-110094307D01*
X153257691Y-110088357D01*
X153259758Y-110082582D01*
X153262380Y-110077038D01*
X153265533Y-110071777D01*
X153269187Y-110066850D01*
X153273306Y-110062306D01*
X153277850Y-110058187D01*
X153282777Y-110054533D01*
X153288038Y-110051380D01*
X153293582Y-110048758D01*
X153299357Y-110046691D01*
X153305307Y-110045201D01*
X153311374Y-110044301D01*
X153317500Y-110044000D01*
X153442500Y-110044000D01*
X153448626Y-110044301D01*
X153448626Y-110044301D01*
G37*
D22*
X153380000Y-110481500D03*
D11*
G36*
X152948626Y-110044301D02*
X152954693Y-110045201D01*
X152960643Y-110046691D01*
X152966418Y-110048758D01*
X152971962Y-110051380D01*
X152977223Y-110054533D01*
X152982150Y-110058187D01*
X152986694Y-110062306D01*
X152990813Y-110066850D01*
X152994467Y-110071777D01*
X152997620Y-110077038D01*
X153000242Y-110082582D01*
X153002309Y-110088357D01*
X153003799Y-110094307D01*
X153004699Y-110100374D01*
X153005000Y-110106500D01*
X153005000Y-110856500D01*
X153004699Y-110862626D01*
X153003799Y-110868693D01*
X153002309Y-110874643D01*
X153000242Y-110880418D01*
X152997620Y-110885962D01*
X152994467Y-110891223D01*
X152990813Y-110896150D01*
X152986694Y-110900694D01*
X152982150Y-110904813D01*
X152977223Y-110908467D01*
X152971962Y-110911620D01*
X152966418Y-110914242D01*
X152960643Y-110916309D01*
X152954693Y-110917799D01*
X152948626Y-110918699D01*
X152942500Y-110919000D01*
X152817500Y-110919000D01*
X152811374Y-110918699D01*
X152805307Y-110917799D01*
X152799357Y-110916309D01*
X152793582Y-110914242D01*
X152788038Y-110911620D01*
X152782777Y-110908467D01*
X152777850Y-110904813D01*
X152773306Y-110900694D01*
X152769187Y-110896150D01*
X152765533Y-110891223D01*
X152762380Y-110885962D01*
X152759758Y-110880418D01*
X152757691Y-110874643D01*
X152756201Y-110868693D01*
X152755301Y-110862626D01*
X152755000Y-110856500D01*
X152755000Y-110106500D01*
X152755301Y-110100374D01*
X152756201Y-110094307D01*
X152757691Y-110088357D01*
X152759758Y-110082582D01*
X152762380Y-110077038D01*
X152765533Y-110071777D01*
X152769187Y-110066850D01*
X152773306Y-110062306D01*
X152777850Y-110058187D01*
X152782777Y-110054533D01*
X152788038Y-110051380D01*
X152793582Y-110048758D01*
X152799357Y-110046691D01*
X152805307Y-110045201D01*
X152811374Y-110044301D01*
X152817500Y-110044000D01*
X152942500Y-110044000D01*
X152948626Y-110044301D01*
X152948626Y-110044301D01*
G37*
D22*
X152880000Y-110481500D03*
D11*
G36*
X152448626Y-110044301D02*
X152454693Y-110045201D01*
X152460643Y-110046691D01*
X152466418Y-110048758D01*
X152471962Y-110051380D01*
X152477223Y-110054533D01*
X152482150Y-110058187D01*
X152486694Y-110062306D01*
X152490813Y-110066850D01*
X152494467Y-110071777D01*
X152497620Y-110077038D01*
X152500242Y-110082582D01*
X152502309Y-110088357D01*
X152503799Y-110094307D01*
X152504699Y-110100374D01*
X152505000Y-110106500D01*
X152505000Y-110856500D01*
X152504699Y-110862626D01*
X152503799Y-110868693D01*
X152502309Y-110874643D01*
X152500242Y-110880418D01*
X152497620Y-110885962D01*
X152494467Y-110891223D01*
X152490813Y-110896150D01*
X152486694Y-110900694D01*
X152482150Y-110904813D01*
X152477223Y-110908467D01*
X152471962Y-110911620D01*
X152466418Y-110914242D01*
X152460643Y-110916309D01*
X152454693Y-110917799D01*
X152448626Y-110918699D01*
X152442500Y-110919000D01*
X152317500Y-110919000D01*
X152311374Y-110918699D01*
X152305307Y-110917799D01*
X152299357Y-110916309D01*
X152293582Y-110914242D01*
X152288038Y-110911620D01*
X152282777Y-110908467D01*
X152277850Y-110904813D01*
X152273306Y-110900694D01*
X152269187Y-110896150D01*
X152265533Y-110891223D01*
X152262380Y-110885962D01*
X152259758Y-110880418D01*
X152257691Y-110874643D01*
X152256201Y-110868693D01*
X152255301Y-110862626D01*
X152255000Y-110856500D01*
X152255000Y-110106500D01*
X152255301Y-110100374D01*
X152256201Y-110094307D01*
X152257691Y-110088357D01*
X152259758Y-110082582D01*
X152262380Y-110077038D01*
X152265533Y-110071777D01*
X152269187Y-110066850D01*
X152273306Y-110062306D01*
X152277850Y-110058187D01*
X152282777Y-110054533D01*
X152288038Y-110051380D01*
X152293582Y-110048758D01*
X152299357Y-110046691D01*
X152305307Y-110045201D01*
X152311374Y-110044301D01*
X152317500Y-110044000D01*
X152442500Y-110044000D01*
X152448626Y-110044301D01*
X152448626Y-110044301D01*
G37*
D22*
X152380000Y-110481500D03*
D11*
G36*
X151948626Y-110044301D02*
X151954693Y-110045201D01*
X151960643Y-110046691D01*
X151966418Y-110048758D01*
X151971962Y-110051380D01*
X151977223Y-110054533D01*
X151982150Y-110058187D01*
X151986694Y-110062306D01*
X151990813Y-110066850D01*
X151994467Y-110071777D01*
X151997620Y-110077038D01*
X152000242Y-110082582D01*
X152002309Y-110088357D01*
X152003799Y-110094307D01*
X152004699Y-110100374D01*
X152005000Y-110106500D01*
X152005000Y-110856500D01*
X152004699Y-110862626D01*
X152003799Y-110868693D01*
X152002309Y-110874643D01*
X152000242Y-110880418D01*
X151997620Y-110885962D01*
X151994467Y-110891223D01*
X151990813Y-110896150D01*
X151986694Y-110900694D01*
X151982150Y-110904813D01*
X151977223Y-110908467D01*
X151971962Y-110911620D01*
X151966418Y-110914242D01*
X151960643Y-110916309D01*
X151954693Y-110917799D01*
X151948626Y-110918699D01*
X151942500Y-110919000D01*
X151817500Y-110919000D01*
X151811374Y-110918699D01*
X151805307Y-110917799D01*
X151799357Y-110916309D01*
X151793582Y-110914242D01*
X151788038Y-110911620D01*
X151782777Y-110908467D01*
X151777850Y-110904813D01*
X151773306Y-110900694D01*
X151769187Y-110896150D01*
X151765533Y-110891223D01*
X151762380Y-110885962D01*
X151759758Y-110880418D01*
X151757691Y-110874643D01*
X151756201Y-110868693D01*
X151755301Y-110862626D01*
X151755000Y-110856500D01*
X151755000Y-110106500D01*
X151755301Y-110100374D01*
X151756201Y-110094307D01*
X151757691Y-110088357D01*
X151759758Y-110082582D01*
X151762380Y-110077038D01*
X151765533Y-110071777D01*
X151769187Y-110066850D01*
X151773306Y-110062306D01*
X151777850Y-110058187D01*
X151782777Y-110054533D01*
X151788038Y-110051380D01*
X151793582Y-110048758D01*
X151799357Y-110046691D01*
X151805307Y-110045201D01*
X151811374Y-110044301D01*
X151817500Y-110044000D01*
X151942500Y-110044000D01*
X151948626Y-110044301D01*
X151948626Y-110044301D01*
G37*
D22*
X151880000Y-110481500D03*
D11*
G36*
X151448626Y-110044301D02*
X151454693Y-110045201D01*
X151460643Y-110046691D01*
X151466418Y-110048758D01*
X151471962Y-110051380D01*
X151477223Y-110054533D01*
X151482150Y-110058187D01*
X151486694Y-110062306D01*
X151490813Y-110066850D01*
X151494467Y-110071777D01*
X151497620Y-110077038D01*
X151500242Y-110082582D01*
X151502309Y-110088357D01*
X151503799Y-110094307D01*
X151504699Y-110100374D01*
X151505000Y-110106500D01*
X151505000Y-110856500D01*
X151504699Y-110862626D01*
X151503799Y-110868693D01*
X151502309Y-110874643D01*
X151500242Y-110880418D01*
X151497620Y-110885962D01*
X151494467Y-110891223D01*
X151490813Y-110896150D01*
X151486694Y-110900694D01*
X151482150Y-110904813D01*
X151477223Y-110908467D01*
X151471962Y-110911620D01*
X151466418Y-110914242D01*
X151460643Y-110916309D01*
X151454693Y-110917799D01*
X151448626Y-110918699D01*
X151442500Y-110919000D01*
X151317500Y-110919000D01*
X151311374Y-110918699D01*
X151305307Y-110917799D01*
X151299357Y-110916309D01*
X151293582Y-110914242D01*
X151288038Y-110911620D01*
X151282777Y-110908467D01*
X151277850Y-110904813D01*
X151273306Y-110900694D01*
X151269187Y-110896150D01*
X151265533Y-110891223D01*
X151262380Y-110885962D01*
X151259758Y-110880418D01*
X151257691Y-110874643D01*
X151256201Y-110868693D01*
X151255301Y-110862626D01*
X151255000Y-110856500D01*
X151255000Y-110106500D01*
X151255301Y-110100374D01*
X151256201Y-110094307D01*
X151257691Y-110088357D01*
X151259758Y-110082582D01*
X151262380Y-110077038D01*
X151265533Y-110071777D01*
X151269187Y-110066850D01*
X151273306Y-110062306D01*
X151277850Y-110058187D01*
X151282777Y-110054533D01*
X151288038Y-110051380D01*
X151293582Y-110048758D01*
X151299357Y-110046691D01*
X151305307Y-110045201D01*
X151311374Y-110044301D01*
X151317500Y-110044000D01*
X151442500Y-110044000D01*
X151448626Y-110044301D01*
X151448626Y-110044301D01*
G37*
D22*
X151380000Y-110481500D03*
D11*
G36*
X150948626Y-110044301D02*
X150954693Y-110045201D01*
X150960643Y-110046691D01*
X150966418Y-110048758D01*
X150971962Y-110051380D01*
X150977223Y-110054533D01*
X150982150Y-110058187D01*
X150986694Y-110062306D01*
X150990813Y-110066850D01*
X150994467Y-110071777D01*
X150997620Y-110077038D01*
X151000242Y-110082582D01*
X151002309Y-110088357D01*
X151003799Y-110094307D01*
X151004699Y-110100374D01*
X151005000Y-110106500D01*
X151005000Y-110856500D01*
X151004699Y-110862626D01*
X151003799Y-110868693D01*
X151002309Y-110874643D01*
X151000242Y-110880418D01*
X150997620Y-110885962D01*
X150994467Y-110891223D01*
X150990813Y-110896150D01*
X150986694Y-110900694D01*
X150982150Y-110904813D01*
X150977223Y-110908467D01*
X150971962Y-110911620D01*
X150966418Y-110914242D01*
X150960643Y-110916309D01*
X150954693Y-110917799D01*
X150948626Y-110918699D01*
X150942500Y-110919000D01*
X150817500Y-110919000D01*
X150811374Y-110918699D01*
X150805307Y-110917799D01*
X150799357Y-110916309D01*
X150793582Y-110914242D01*
X150788038Y-110911620D01*
X150782777Y-110908467D01*
X150777850Y-110904813D01*
X150773306Y-110900694D01*
X150769187Y-110896150D01*
X150765533Y-110891223D01*
X150762380Y-110885962D01*
X150759758Y-110880418D01*
X150757691Y-110874643D01*
X150756201Y-110868693D01*
X150755301Y-110862626D01*
X150755000Y-110856500D01*
X150755000Y-110106500D01*
X150755301Y-110100374D01*
X150756201Y-110094307D01*
X150757691Y-110088357D01*
X150759758Y-110082582D01*
X150762380Y-110077038D01*
X150765533Y-110071777D01*
X150769187Y-110066850D01*
X150773306Y-110062306D01*
X150777850Y-110058187D01*
X150782777Y-110054533D01*
X150788038Y-110051380D01*
X150793582Y-110048758D01*
X150799357Y-110046691D01*
X150805307Y-110045201D01*
X150811374Y-110044301D01*
X150817500Y-110044000D01*
X150942500Y-110044000D01*
X150948626Y-110044301D01*
X150948626Y-110044301D01*
G37*
D22*
X150880000Y-110481500D03*
D11*
G36*
X150448626Y-110044301D02*
X150454693Y-110045201D01*
X150460643Y-110046691D01*
X150466418Y-110048758D01*
X150471962Y-110051380D01*
X150477223Y-110054533D01*
X150482150Y-110058187D01*
X150486694Y-110062306D01*
X150490813Y-110066850D01*
X150494467Y-110071777D01*
X150497620Y-110077038D01*
X150500242Y-110082582D01*
X150502309Y-110088357D01*
X150503799Y-110094307D01*
X150504699Y-110100374D01*
X150505000Y-110106500D01*
X150505000Y-110856500D01*
X150504699Y-110862626D01*
X150503799Y-110868693D01*
X150502309Y-110874643D01*
X150500242Y-110880418D01*
X150497620Y-110885962D01*
X150494467Y-110891223D01*
X150490813Y-110896150D01*
X150486694Y-110900694D01*
X150482150Y-110904813D01*
X150477223Y-110908467D01*
X150471962Y-110911620D01*
X150466418Y-110914242D01*
X150460643Y-110916309D01*
X150454693Y-110917799D01*
X150448626Y-110918699D01*
X150442500Y-110919000D01*
X150317500Y-110919000D01*
X150311374Y-110918699D01*
X150305307Y-110917799D01*
X150299357Y-110916309D01*
X150293582Y-110914242D01*
X150288038Y-110911620D01*
X150282777Y-110908467D01*
X150277850Y-110904813D01*
X150273306Y-110900694D01*
X150269187Y-110896150D01*
X150265533Y-110891223D01*
X150262380Y-110885962D01*
X150259758Y-110880418D01*
X150257691Y-110874643D01*
X150256201Y-110868693D01*
X150255301Y-110862626D01*
X150255000Y-110856500D01*
X150255000Y-110106500D01*
X150255301Y-110100374D01*
X150256201Y-110094307D01*
X150257691Y-110088357D01*
X150259758Y-110082582D01*
X150262380Y-110077038D01*
X150265533Y-110071777D01*
X150269187Y-110066850D01*
X150273306Y-110062306D01*
X150277850Y-110058187D01*
X150282777Y-110054533D01*
X150288038Y-110051380D01*
X150293582Y-110048758D01*
X150299357Y-110046691D01*
X150305307Y-110045201D01*
X150311374Y-110044301D01*
X150317500Y-110044000D01*
X150442500Y-110044000D01*
X150448626Y-110044301D01*
X150448626Y-110044301D01*
G37*
D22*
X150380000Y-110481500D03*
D11*
G36*
X149948626Y-110044301D02*
X149954693Y-110045201D01*
X149960643Y-110046691D01*
X149966418Y-110048758D01*
X149971962Y-110051380D01*
X149977223Y-110054533D01*
X149982150Y-110058187D01*
X149986694Y-110062306D01*
X149990813Y-110066850D01*
X149994467Y-110071777D01*
X149997620Y-110077038D01*
X150000242Y-110082582D01*
X150002309Y-110088357D01*
X150003799Y-110094307D01*
X150004699Y-110100374D01*
X150005000Y-110106500D01*
X150005000Y-110856500D01*
X150004699Y-110862626D01*
X150003799Y-110868693D01*
X150002309Y-110874643D01*
X150000242Y-110880418D01*
X149997620Y-110885962D01*
X149994467Y-110891223D01*
X149990813Y-110896150D01*
X149986694Y-110900694D01*
X149982150Y-110904813D01*
X149977223Y-110908467D01*
X149971962Y-110911620D01*
X149966418Y-110914242D01*
X149960643Y-110916309D01*
X149954693Y-110917799D01*
X149948626Y-110918699D01*
X149942500Y-110919000D01*
X149817500Y-110919000D01*
X149811374Y-110918699D01*
X149805307Y-110917799D01*
X149799357Y-110916309D01*
X149793582Y-110914242D01*
X149788038Y-110911620D01*
X149782777Y-110908467D01*
X149777850Y-110904813D01*
X149773306Y-110900694D01*
X149769187Y-110896150D01*
X149765533Y-110891223D01*
X149762380Y-110885962D01*
X149759758Y-110880418D01*
X149757691Y-110874643D01*
X149756201Y-110868693D01*
X149755301Y-110862626D01*
X149755000Y-110856500D01*
X149755000Y-110106500D01*
X149755301Y-110100374D01*
X149756201Y-110094307D01*
X149757691Y-110088357D01*
X149759758Y-110082582D01*
X149762380Y-110077038D01*
X149765533Y-110071777D01*
X149769187Y-110066850D01*
X149773306Y-110062306D01*
X149777850Y-110058187D01*
X149782777Y-110054533D01*
X149788038Y-110051380D01*
X149793582Y-110048758D01*
X149799357Y-110046691D01*
X149805307Y-110045201D01*
X149811374Y-110044301D01*
X149817500Y-110044000D01*
X149942500Y-110044000D01*
X149948626Y-110044301D01*
X149948626Y-110044301D01*
G37*
D22*
X149880000Y-110481500D03*
D11*
G36*
X149448626Y-110044301D02*
X149454693Y-110045201D01*
X149460643Y-110046691D01*
X149466418Y-110048758D01*
X149471962Y-110051380D01*
X149477223Y-110054533D01*
X149482150Y-110058187D01*
X149486694Y-110062306D01*
X149490813Y-110066850D01*
X149494467Y-110071777D01*
X149497620Y-110077038D01*
X149500242Y-110082582D01*
X149502309Y-110088357D01*
X149503799Y-110094307D01*
X149504699Y-110100374D01*
X149505000Y-110106500D01*
X149505000Y-110856500D01*
X149504699Y-110862626D01*
X149503799Y-110868693D01*
X149502309Y-110874643D01*
X149500242Y-110880418D01*
X149497620Y-110885962D01*
X149494467Y-110891223D01*
X149490813Y-110896150D01*
X149486694Y-110900694D01*
X149482150Y-110904813D01*
X149477223Y-110908467D01*
X149471962Y-110911620D01*
X149466418Y-110914242D01*
X149460643Y-110916309D01*
X149454693Y-110917799D01*
X149448626Y-110918699D01*
X149442500Y-110919000D01*
X149317500Y-110919000D01*
X149311374Y-110918699D01*
X149305307Y-110917799D01*
X149299357Y-110916309D01*
X149293582Y-110914242D01*
X149288038Y-110911620D01*
X149282777Y-110908467D01*
X149277850Y-110904813D01*
X149273306Y-110900694D01*
X149269187Y-110896150D01*
X149265533Y-110891223D01*
X149262380Y-110885962D01*
X149259758Y-110880418D01*
X149257691Y-110874643D01*
X149256201Y-110868693D01*
X149255301Y-110862626D01*
X149255000Y-110856500D01*
X149255000Y-110106500D01*
X149255301Y-110100374D01*
X149256201Y-110094307D01*
X149257691Y-110088357D01*
X149259758Y-110082582D01*
X149262380Y-110077038D01*
X149265533Y-110071777D01*
X149269187Y-110066850D01*
X149273306Y-110062306D01*
X149277850Y-110058187D01*
X149282777Y-110054533D01*
X149288038Y-110051380D01*
X149293582Y-110048758D01*
X149299357Y-110046691D01*
X149305307Y-110045201D01*
X149311374Y-110044301D01*
X149317500Y-110044000D01*
X149442500Y-110044000D01*
X149448626Y-110044301D01*
X149448626Y-110044301D01*
G37*
D22*
X149380000Y-110481500D03*
D11*
G36*
X148948626Y-110044301D02*
X148954693Y-110045201D01*
X148960643Y-110046691D01*
X148966418Y-110048758D01*
X148971962Y-110051380D01*
X148977223Y-110054533D01*
X148982150Y-110058187D01*
X148986694Y-110062306D01*
X148990813Y-110066850D01*
X148994467Y-110071777D01*
X148997620Y-110077038D01*
X149000242Y-110082582D01*
X149002309Y-110088357D01*
X149003799Y-110094307D01*
X149004699Y-110100374D01*
X149005000Y-110106500D01*
X149005000Y-110856500D01*
X149004699Y-110862626D01*
X149003799Y-110868693D01*
X149002309Y-110874643D01*
X149000242Y-110880418D01*
X148997620Y-110885962D01*
X148994467Y-110891223D01*
X148990813Y-110896150D01*
X148986694Y-110900694D01*
X148982150Y-110904813D01*
X148977223Y-110908467D01*
X148971962Y-110911620D01*
X148966418Y-110914242D01*
X148960643Y-110916309D01*
X148954693Y-110917799D01*
X148948626Y-110918699D01*
X148942500Y-110919000D01*
X148817500Y-110919000D01*
X148811374Y-110918699D01*
X148805307Y-110917799D01*
X148799357Y-110916309D01*
X148793582Y-110914242D01*
X148788038Y-110911620D01*
X148782777Y-110908467D01*
X148777850Y-110904813D01*
X148773306Y-110900694D01*
X148769187Y-110896150D01*
X148765533Y-110891223D01*
X148762380Y-110885962D01*
X148759758Y-110880418D01*
X148757691Y-110874643D01*
X148756201Y-110868693D01*
X148755301Y-110862626D01*
X148755000Y-110856500D01*
X148755000Y-110106500D01*
X148755301Y-110100374D01*
X148756201Y-110094307D01*
X148757691Y-110088357D01*
X148759758Y-110082582D01*
X148762380Y-110077038D01*
X148765533Y-110071777D01*
X148769187Y-110066850D01*
X148773306Y-110062306D01*
X148777850Y-110058187D01*
X148782777Y-110054533D01*
X148788038Y-110051380D01*
X148793582Y-110048758D01*
X148799357Y-110046691D01*
X148805307Y-110045201D01*
X148811374Y-110044301D01*
X148817500Y-110044000D01*
X148942500Y-110044000D01*
X148948626Y-110044301D01*
X148948626Y-110044301D01*
G37*
D22*
X148880000Y-110481500D03*
D11*
G36*
X148448626Y-110044301D02*
X148454693Y-110045201D01*
X148460643Y-110046691D01*
X148466418Y-110048758D01*
X148471962Y-110051380D01*
X148477223Y-110054533D01*
X148482150Y-110058187D01*
X148486694Y-110062306D01*
X148490813Y-110066850D01*
X148494467Y-110071777D01*
X148497620Y-110077038D01*
X148500242Y-110082582D01*
X148502309Y-110088357D01*
X148503799Y-110094307D01*
X148504699Y-110100374D01*
X148505000Y-110106500D01*
X148505000Y-110856500D01*
X148504699Y-110862626D01*
X148503799Y-110868693D01*
X148502309Y-110874643D01*
X148500242Y-110880418D01*
X148497620Y-110885962D01*
X148494467Y-110891223D01*
X148490813Y-110896150D01*
X148486694Y-110900694D01*
X148482150Y-110904813D01*
X148477223Y-110908467D01*
X148471962Y-110911620D01*
X148466418Y-110914242D01*
X148460643Y-110916309D01*
X148454693Y-110917799D01*
X148448626Y-110918699D01*
X148442500Y-110919000D01*
X148317500Y-110919000D01*
X148311374Y-110918699D01*
X148305307Y-110917799D01*
X148299357Y-110916309D01*
X148293582Y-110914242D01*
X148288038Y-110911620D01*
X148282777Y-110908467D01*
X148277850Y-110904813D01*
X148273306Y-110900694D01*
X148269187Y-110896150D01*
X148265533Y-110891223D01*
X148262380Y-110885962D01*
X148259758Y-110880418D01*
X148257691Y-110874643D01*
X148256201Y-110868693D01*
X148255301Y-110862626D01*
X148255000Y-110856500D01*
X148255000Y-110106500D01*
X148255301Y-110100374D01*
X148256201Y-110094307D01*
X148257691Y-110088357D01*
X148259758Y-110082582D01*
X148262380Y-110077038D01*
X148265533Y-110071777D01*
X148269187Y-110066850D01*
X148273306Y-110062306D01*
X148277850Y-110058187D01*
X148282777Y-110054533D01*
X148288038Y-110051380D01*
X148293582Y-110048758D01*
X148299357Y-110046691D01*
X148305307Y-110045201D01*
X148311374Y-110044301D01*
X148317500Y-110044000D01*
X148442500Y-110044000D01*
X148448626Y-110044301D01*
X148448626Y-110044301D01*
G37*
D22*
X148380000Y-110481500D03*
D11*
G36*
X148073626Y-111044301D02*
X148079693Y-111045201D01*
X148085643Y-111046691D01*
X148091418Y-111048758D01*
X148096962Y-111051380D01*
X148102223Y-111054533D01*
X148107150Y-111058187D01*
X148111694Y-111062306D01*
X148115813Y-111066850D01*
X148119467Y-111071777D01*
X148122620Y-111077038D01*
X148125242Y-111082582D01*
X148127309Y-111088357D01*
X148128799Y-111094307D01*
X148129699Y-111100374D01*
X148130000Y-111106500D01*
X148130000Y-111231500D01*
X148129699Y-111237626D01*
X148128799Y-111243693D01*
X148127309Y-111249643D01*
X148125242Y-111255418D01*
X148122620Y-111260962D01*
X148119467Y-111266223D01*
X148115813Y-111271150D01*
X148111694Y-111275694D01*
X148107150Y-111279813D01*
X148102223Y-111283467D01*
X148096962Y-111286620D01*
X148091418Y-111289242D01*
X148085643Y-111291309D01*
X148079693Y-111292799D01*
X148073626Y-111293699D01*
X148067500Y-111294000D01*
X147317500Y-111294000D01*
X147311374Y-111293699D01*
X147305307Y-111292799D01*
X147299357Y-111291309D01*
X147293582Y-111289242D01*
X147288038Y-111286620D01*
X147282777Y-111283467D01*
X147277850Y-111279813D01*
X147273306Y-111275694D01*
X147269187Y-111271150D01*
X147265533Y-111266223D01*
X147262380Y-111260962D01*
X147259758Y-111255418D01*
X147257691Y-111249643D01*
X147256201Y-111243693D01*
X147255301Y-111237626D01*
X147255000Y-111231500D01*
X147255000Y-111106500D01*
X147255301Y-111100374D01*
X147256201Y-111094307D01*
X147257691Y-111088357D01*
X147259758Y-111082582D01*
X147262380Y-111077038D01*
X147265533Y-111071777D01*
X147269187Y-111066850D01*
X147273306Y-111062306D01*
X147277850Y-111058187D01*
X147282777Y-111054533D01*
X147288038Y-111051380D01*
X147293582Y-111048758D01*
X147299357Y-111046691D01*
X147305307Y-111045201D01*
X147311374Y-111044301D01*
X147317500Y-111044000D01*
X148067500Y-111044000D01*
X148073626Y-111044301D01*
X148073626Y-111044301D01*
G37*
D22*
X147692500Y-111169000D03*
D11*
G36*
X148073626Y-111544301D02*
X148079693Y-111545201D01*
X148085643Y-111546691D01*
X148091418Y-111548758D01*
X148096962Y-111551380D01*
X148102223Y-111554533D01*
X148107150Y-111558187D01*
X148111694Y-111562306D01*
X148115813Y-111566850D01*
X148119467Y-111571777D01*
X148122620Y-111577038D01*
X148125242Y-111582582D01*
X148127309Y-111588357D01*
X148128799Y-111594307D01*
X148129699Y-111600374D01*
X148130000Y-111606500D01*
X148130000Y-111731500D01*
X148129699Y-111737626D01*
X148128799Y-111743693D01*
X148127309Y-111749643D01*
X148125242Y-111755418D01*
X148122620Y-111760962D01*
X148119467Y-111766223D01*
X148115813Y-111771150D01*
X148111694Y-111775694D01*
X148107150Y-111779813D01*
X148102223Y-111783467D01*
X148096962Y-111786620D01*
X148091418Y-111789242D01*
X148085643Y-111791309D01*
X148079693Y-111792799D01*
X148073626Y-111793699D01*
X148067500Y-111794000D01*
X147317500Y-111794000D01*
X147311374Y-111793699D01*
X147305307Y-111792799D01*
X147299357Y-111791309D01*
X147293582Y-111789242D01*
X147288038Y-111786620D01*
X147282777Y-111783467D01*
X147277850Y-111779813D01*
X147273306Y-111775694D01*
X147269187Y-111771150D01*
X147265533Y-111766223D01*
X147262380Y-111760962D01*
X147259758Y-111755418D01*
X147257691Y-111749643D01*
X147256201Y-111743693D01*
X147255301Y-111737626D01*
X147255000Y-111731500D01*
X147255000Y-111606500D01*
X147255301Y-111600374D01*
X147256201Y-111594307D01*
X147257691Y-111588357D01*
X147259758Y-111582582D01*
X147262380Y-111577038D01*
X147265533Y-111571777D01*
X147269187Y-111566850D01*
X147273306Y-111562306D01*
X147277850Y-111558187D01*
X147282777Y-111554533D01*
X147288038Y-111551380D01*
X147293582Y-111548758D01*
X147299357Y-111546691D01*
X147305307Y-111545201D01*
X147311374Y-111544301D01*
X147317500Y-111544000D01*
X148067500Y-111544000D01*
X148073626Y-111544301D01*
X148073626Y-111544301D01*
G37*
D22*
X147692500Y-111669000D03*
D11*
G36*
X148073626Y-112044301D02*
X148079693Y-112045201D01*
X148085643Y-112046691D01*
X148091418Y-112048758D01*
X148096962Y-112051380D01*
X148102223Y-112054533D01*
X148107150Y-112058187D01*
X148111694Y-112062306D01*
X148115813Y-112066850D01*
X148119467Y-112071777D01*
X148122620Y-112077038D01*
X148125242Y-112082582D01*
X148127309Y-112088357D01*
X148128799Y-112094307D01*
X148129699Y-112100374D01*
X148130000Y-112106500D01*
X148130000Y-112231500D01*
X148129699Y-112237626D01*
X148128799Y-112243693D01*
X148127309Y-112249643D01*
X148125242Y-112255418D01*
X148122620Y-112260962D01*
X148119467Y-112266223D01*
X148115813Y-112271150D01*
X148111694Y-112275694D01*
X148107150Y-112279813D01*
X148102223Y-112283467D01*
X148096962Y-112286620D01*
X148091418Y-112289242D01*
X148085643Y-112291309D01*
X148079693Y-112292799D01*
X148073626Y-112293699D01*
X148067500Y-112294000D01*
X147317500Y-112294000D01*
X147311374Y-112293699D01*
X147305307Y-112292799D01*
X147299357Y-112291309D01*
X147293582Y-112289242D01*
X147288038Y-112286620D01*
X147282777Y-112283467D01*
X147277850Y-112279813D01*
X147273306Y-112275694D01*
X147269187Y-112271150D01*
X147265533Y-112266223D01*
X147262380Y-112260962D01*
X147259758Y-112255418D01*
X147257691Y-112249643D01*
X147256201Y-112243693D01*
X147255301Y-112237626D01*
X147255000Y-112231500D01*
X147255000Y-112106500D01*
X147255301Y-112100374D01*
X147256201Y-112094307D01*
X147257691Y-112088357D01*
X147259758Y-112082582D01*
X147262380Y-112077038D01*
X147265533Y-112071777D01*
X147269187Y-112066850D01*
X147273306Y-112062306D01*
X147277850Y-112058187D01*
X147282777Y-112054533D01*
X147288038Y-112051380D01*
X147293582Y-112048758D01*
X147299357Y-112046691D01*
X147305307Y-112045201D01*
X147311374Y-112044301D01*
X147317500Y-112044000D01*
X148067500Y-112044000D01*
X148073626Y-112044301D01*
X148073626Y-112044301D01*
G37*
D22*
X147692500Y-112169000D03*
D11*
G36*
X148073626Y-112544301D02*
X148079693Y-112545201D01*
X148085643Y-112546691D01*
X148091418Y-112548758D01*
X148096962Y-112551380D01*
X148102223Y-112554533D01*
X148107150Y-112558187D01*
X148111694Y-112562306D01*
X148115813Y-112566850D01*
X148119467Y-112571777D01*
X148122620Y-112577038D01*
X148125242Y-112582582D01*
X148127309Y-112588357D01*
X148128799Y-112594307D01*
X148129699Y-112600374D01*
X148130000Y-112606500D01*
X148130000Y-112731500D01*
X148129699Y-112737626D01*
X148128799Y-112743693D01*
X148127309Y-112749643D01*
X148125242Y-112755418D01*
X148122620Y-112760962D01*
X148119467Y-112766223D01*
X148115813Y-112771150D01*
X148111694Y-112775694D01*
X148107150Y-112779813D01*
X148102223Y-112783467D01*
X148096962Y-112786620D01*
X148091418Y-112789242D01*
X148085643Y-112791309D01*
X148079693Y-112792799D01*
X148073626Y-112793699D01*
X148067500Y-112794000D01*
X147317500Y-112794000D01*
X147311374Y-112793699D01*
X147305307Y-112792799D01*
X147299357Y-112791309D01*
X147293582Y-112789242D01*
X147288038Y-112786620D01*
X147282777Y-112783467D01*
X147277850Y-112779813D01*
X147273306Y-112775694D01*
X147269187Y-112771150D01*
X147265533Y-112766223D01*
X147262380Y-112760962D01*
X147259758Y-112755418D01*
X147257691Y-112749643D01*
X147256201Y-112743693D01*
X147255301Y-112737626D01*
X147255000Y-112731500D01*
X147255000Y-112606500D01*
X147255301Y-112600374D01*
X147256201Y-112594307D01*
X147257691Y-112588357D01*
X147259758Y-112582582D01*
X147262380Y-112577038D01*
X147265533Y-112571777D01*
X147269187Y-112566850D01*
X147273306Y-112562306D01*
X147277850Y-112558187D01*
X147282777Y-112554533D01*
X147288038Y-112551380D01*
X147293582Y-112548758D01*
X147299357Y-112546691D01*
X147305307Y-112545201D01*
X147311374Y-112544301D01*
X147317500Y-112544000D01*
X148067500Y-112544000D01*
X148073626Y-112544301D01*
X148073626Y-112544301D01*
G37*
D22*
X147692500Y-112669000D03*
D11*
G36*
X148073626Y-113044301D02*
X148079693Y-113045201D01*
X148085643Y-113046691D01*
X148091418Y-113048758D01*
X148096962Y-113051380D01*
X148102223Y-113054533D01*
X148107150Y-113058187D01*
X148111694Y-113062306D01*
X148115813Y-113066850D01*
X148119467Y-113071777D01*
X148122620Y-113077038D01*
X148125242Y-113082582D01*
X148127309Y-113088357D01*
X148128799Y-113094307D01*
X148129699Y-113100374D01*
X148130000Y-113106500D01*
X148130000Y-113231500D01*
X148129699Y-113237626D01*
X148128799Y-113243693D01*
X148127309Y-113249643D01*
X148125242Y-113255418D01*
X148122620Y-113260962D01*
X148119467Y-113266223D01*
X148115813Y-113271150D01*
X148111694Y-113275694D01*
X148107150Y-113279813D01*
X148102223Y-113283467D01*
X148096962Y-113286620D01*
X148091418Y-113289242D01*
X148085643Y-113291309D01*
X148079693Y-113292799D01*
X148073626Y-113293699D01*
X148067500Y-113294000D01*
X147317500Y-113294000D01*
X147311374Y-113293699D01*
X147305307Y-113292799D01*
X147299357Y-113291309D01*
X147293582Y-113289242D01*
X147288038Y-113286620D01*
X147282777Y-113283467D01*
X147277850Y-113279813D01*
X147273306Y-113275694D01*
X147269187Y-113271150D01*
X147265533Y-113266223D01*
X147262380Y-113260962D01*
X147259758Y-113255418D01*
X147257691Y-113249643D01*
X147256201Y-113243693D01*
X147255301Y-113237626D01*
X147255000Y-113231500D01*
X147255000Y-113106500D01*
X147255301Y-113100374D01*
X147256201Y-113094307D01*
X147257691Y-113088357D01*
X147259758Y-113082582D01*
X147262380Y-113077038D01*
X147265533Y-113071777D01*
X147269187Y-113066850D01*
X147273306Y-113062306D01*
X147277850Y-113058187D01*
X147282777Y-113054533D01*
X147288038Y-113051380D01*
X147293582Y-113048758D01*
X147299357Y-113046691D01*
X147305307Y-113045201D01*
X147311374Y-113044301D01*
X147317500Y-113044000D01*
X148067500Y-113044000D01*
X148073626Y-113044301D01*
X148073626Y-113044301D01*
G37*
D22*
X147692500Y-113169000D03*
D11*
G36*
X148073626Y-113544301D02*
X148079693Y-113545201D01*
X148085643Y-113546691D01*
X148091418Y-113548758D01*
X148096962Y-113551380D01*
X148102223Y-113554533D01*
X148107150Y-113558187D01*
X148111694Y-113562306D01*
X148115813Y-113566850D01*
X148119467Y-113571777D01*
X148122620Y-113577038D01*
X148125242Y-113582582D01*
X148127309Y-113588357D01*
X148128799Y-113594307D01*
X148129699Y-113600374D01*
X148130000Y-113606500D01*
X148130000Y-113731500D01*
X148129699Y-113737626D01*
X148128799Y-113743693D01*
X148127309Y-113749643D01*
X148125242Y-113755418D01*
X148122620Y-113760962D01*
X148119467Y-113766223D01*
X148115813Y-113771150D01*
X148111694Y-113775694D01*
X148107150Y-113779813D01*
X148102223Y-113783467D01*
X148096962Y-113786620D01*
X148091418Y-113789242D01*
X148085643Y-113791309D01*
X148079693Y-113792799D01*
X148073626Y-113793699D01*
X148067500Y-113794000D01*
X147317500Y-113794000D01*
X147311374Y-113793699D01*
X147305307Y-113792799D01*
X147299357Y-113791309D01*
X147293582Y-113789242D01*
X147288038Y-113786620D01*
X147282777Y-113783467D01*
X147277850Y-113779813D01*
X147273306Y-113775694D01*
X147269187Y-113771150D01*
X147265533Y-113766223D01*
X147262380Y-113760962D01*
X147259758Y-113755418D01*
X147257691Y-113749643D01*
X147256201Y-113743693D01*
X147255301Y-113737626D01*
X147255000Y-113731500D01*
X147255000Y-113606500D01*
X147255301Y-113600374D01*
X147256201Y-113594307D01*
X147257691Y-113588357D01*
X147259758Y-113582582D01*
X147262380Y-113577038D01*
X147265533Y-113571777D01*
X147269187Y-113566850D01*
X147273306Y-113562306D01*
X147277850Y-113558187D01*
X147282777Y-113554533D01*
X147288038Y-113551380D01*
X147293582Y-113548758D01*
X147299357Y-113546691D01*
X147305307Y-113545201D01*
X147311374Y-113544301D01*
X147317500Y-113544000D01*
X148067500Y-113544000D01*
X148073626Y-113544301D01*
X148073626Y-113544301D01*
G37*
D22*
X147692500Y-113669000D03*
D11*
G36*
X148073626Y-114044301D02*
X148079693Y-114045201D01*
X148085643Y-114046691D01*
X148091418Y-114048758D01*
X148096962Y-114051380D01*
X148102223Y-114054533D01*
X148107150Y-114058187D01*
X148111694Y-114062306D01*
X148115813Y-114066850D01*
X148119467Y-114071777D01*
X148122620Y-114077038D01*
X148125242Y-114082582D01*
X148127309Y-114088357D01*
X148128799Y-114094307D01*
X148129699Y-114100374D01*
X148130000Y-114106500D01*
X148130000Y-114231500D01*
X148129699Y-114237626D01*
X148128799Y-114243693D01*
X148127309Y-114249643D01*
X148125242Y-114255418D01*
X148122620Y-114260962D01*
X148119467Y-114266223D01*
X148115813Y-114271150D01*
X148111694Y-114275694D01*
X148107150Y-114279813D01*
X148102223Y-114283467D01*
X148096962Y-114286620D01*
X148091418Y-114289242D01*
X148085643Y-114291309D01*
X148079693Y-114292799D01*
X148073626Y-114293699D01*
X148067500Y-114294000D01*
X147317500Y-114294000D01*
X147311374Y-114293699D01*
X147305307Y-114292799D01*
X147299357Y-114291309D01*
X147293582Y-114289242D01*
X147288038Y-114286620D01*
X147282777Y-114283467D01*
X147277850Y-114279813D01*
X147273306Y-114275694D01*
X147269187Y-114271150D01*
X147265533Y-114266223D01*
X147262380Y-114260962D01*
X147259758Y-114255418D01*
X147257691Y-114249643D01*
X147256201Y-114243693D01*
X147255301Y-114237626D01*
X147255000Y-114231500D01*
X147255000Y-114106500D01*
X147255301Y-114100374D01*
X147256201Y-114094307D01*
X147257691Y-114088357D01*
X147259758Y-114082582D01*
X147262380Y-114077038D01*
X147265533Y-114071777D01*
X147269187Y-114066850D01*
X147273306Y-114062306D01*
X147277850Y-114058187D01*
X147282777Y-114054533D01*
X147288038Y-114051380D01*
X147293582Y-114048758D01*
X147299357Y-114046691D01*
X147305307Y-114045201D01*
X147311374Y-114044301D01*
X147317500Y-114044000D01*
X148067500Y-114044000D01*
X148073626Y-114044301D01*
X148073626Y-114044301D01*
G37*
D22*
X147692500Y-114169000D03*
D11*
G36*
X148073626Y-114544301D02*
X148079693Y-114545201D01*
X148085643Y-114546691D01*
X148091418Y-114548758D01*
X148096962Y-114551380D01*
X148102223Y-114554533D01*
X148107150Y-114558187D01*
X148111694Y-114562306D01*
X148115813Y-114566850D01*
X148119467Y-114571777D01*
X148122620Y-114577038D01*
X148125242Y-114582582D01*
X148127309Y-114588357D01*
X148128799Y-114594307D01*
X148129699Y-114600374D01*
X148130000Y-114606500D01*
X148130000Y-114731500D01*
X148129699Y-114737626D01*
X148128799Y-114743693D01*
X148127309Y-114749643D01*
X148125242Y-114755418D01*
X148122620Y-114760962D01*
X148119467Y-114766223D01*
X148115813Y-114771150D01*
X148111694Y-114775694D01*
X148107150Y-114779813D01*
X148102223Y-114783467D01*
X148096962Y-114786620D01*
X148091418Y-114789242D01*
X148085643Y-114791309D01*
X148079693Y-114792799D01*
X148073626Y-114793699D01*
X148067500Y-114794000D01*
X147317500Y-114794000D01*
X147311374Y-114793699D01*
X147305307Y-114792799D01*
X147299357Y-114791309D01*
X147293582Y-114789242D01*
X147288038Y-114786620D01*
X147282777Y-114783467D01*
X147277850Y-114779813D01*
X147273306Y-114775694D01*
X147269187Y-114771150D01*
X147265533Y-114766223D01*
X147262380Y-114760962D01*
X147259758Y-114755418D01*
X147257691Y-114749643D01*
X147256201Y-114743693D01*
X147255301Y-114737626D01*
X147255000Y-114731500D01*
X147255000Y-114606500D01*
X147255301Y-114600374D01*
X147256201Y-114594307D01*
X147257691Y-114588357D01*
X147259758Y-114582582D01*
X147262380Y-114577038D01*
X147265533Y-114571777D01*
X147269187Y-114566850D01*
X147273306Y-114562306D01*
X147277850Y-114558187D01*
X147282777Y-114554533D01*
X147288038Y-114551380D01*
X147293582Y-114548758D01*
X147299357Y-114546691D01*
X147305307Y-114545201D01*
X147311374Y-114544301D01*
X147317500Y-114544000D01*
X148067500Y-114544000D01*
X148073626Y-114544301D01*
X148073626Y-114544301D01*
G37*
D22*
X147692500Y-114669000D03*
D11*
G36*
X148073626Y-115044301D02*
X148079693Y-115045201D01*
X148085643Y-115046691D01*
X148091418Y-115048758D01*
X148096962Y-115051380D01*
X148102223Y-115054533D01*
X148107150Y-115058187D01*
X148111694Y-115062306D01*
X148115813Y-115066850D01*
X148119467Y-115071777D01*
X148122620Y-115077038D01*
X148125242Y-115082582D01*
X148127309Y-115088357D01*
X148128799Y-115094307D01*
X148129699Y-115100374D01*
X148130000Y-115106500D01*
X148130000Y-115231500D01*
X148129699Y-115237626D01*
X148128799Y-115243693D01*
X148127309Y-115249643D01*
X148125242Y-115255418D01*
X148122620Y-115260962D01*
X148119467Y-115266223D01*
X148115813Y-115271150D01*
X148111694Y-115275694D01*
X148107150Y-115279813D01*
X148102223Y-115283467D01*
X148096962Y-115286620D01*
X148091418Y-115289242D01*
X148085643Y-115291309D01*
X148079693Y-115292799D01*
X148073626Y-115293699D01*
X148067500Y-115294000D01*
X147317500Y-115294000D01*
X147311374Y-115293699D01*
X147305307Y-115292799D01*
X147299357Y-115291309D01*
X147293582Y-115289242D01*
X147288038Y-115286620D01*
X147282777Y-115283467D01*
X147277850Y-115279813D01*
X147273306Y-115275694D01*
X147269187Y-115271150D01*
X147265533Y-115266223D01*
X147262380Y-115260962D01*
X147259758Y-115255418D01*
X147257691Y-115249643D01*
X147256201Y-115243693D01*
X147255301Y-115237626D01*
X147255000Y-115231500D01*
X147255000Y-115106500D01*
X147255301Y-115100374D01*
X147256201Y-115094307D01*
X147257691Y-115088357D01*
X147259758Y-115082582D01*
X147262380Y-115077038D01*
X147265533Y-115071777D01*
X147269187Y-115066850D01*
X147273306Y-115062306D01*
X147277850Y-115058187D01*
X147282777Y-115054533D01*
X147288038Y-115051380D01*
X147293582Y-115048758D01*
X147299357Y-115046691D01*
X147305307Y-115045201D01*
X147311374Y-115044301D01*
X147317500Y-115044000D01*
X148067500Y-115044000D01*
X148073626Y-115044301D01*
X148073626Y-115044301D01*
G37*
D22*
X147692500Y-115169000D03*
D11*
G36*
X148073626Y-115544301D02*
X148079693Y-115545201D01*
X148085643Y-115546691D01*
X148091418Y-115548758D01*
X148096962Y-115551380D01*
X148102223Y-115554533D01*
X148107150Y-115558187D01*
X148111694Y-115562306D01*
X148115813Y-115566850D01*
X148119467Y-115571777D01*
X148122620Y-115577038D01*
X148125242Y-115582582D01*
X148127309Y-115588357D01*
X148128799Y-115594307D01*
X148129699Y-115600374D01*
X148130000Y-115606500D01*
X148130000Y-115731500D01*
X148129699Y-115737626D01*
X148128799Y-115743693D01*
X148127309Y-115749643D01*
X148125242Y-115755418D01*
X148122620Y-115760962D01*
X148119467Y-115766223D01*
X148115813Y-115771150D01*
X148111694Y-115775694D01*
X148107150Y-115779813D01*
X148102223Y-115783467D01*
X148096962Y-115786620D01*
X148091418Y-115789242D01*
X148085643Y-115791309D01*
X148079693Y-115792799D01*
X148073626Y-115793699D01*
X148067500Y-115794000D01*
X147317500Y-115794000D01*
X147311374Y-115793699D01*
X147305307Y-115792799D01*
X147299357Y-115791309D01*
X147293582Y-115789242D01*
X147288038Y-115786620D01*
X147282777Y-115783467D01*
X147277850Y-115779813D01*
X147273306Y-115775694D01*
X147269187Y-115771150D01*
X147265533Y-115766223D01*
X147262380Y-115760962D01*
X147259758Y-115755418D01*
X147257691Y-115749643D01*
X147256201Y-115743693D01*
X147255301Y-115737626D01*
X147255000Y-115731500D01*
X147255000Y-115606500D01*
X147255301Y-115600374D01*
X147256201Y-115594307D01*
X147257691Y-115588357D01*
X147259758Y-115582582D01*
X147262380Y-115577038D01*
X147265533Y-115571777D01*
X147269187Y-115566850D01*
X147273306Y-115562306D01*
X147277850Y-115558187D01*
X147282777Y-115554533D01*
X147288038Y-115551380D01*
X147293582Y-115548758D01*
X147299357Y-115546691D01*
X147305307Y-115545201D01*
X147311374Y-115544301D01*
X147317500Y-115544000D01*
X148067500Y-115544000D01*
X148073626Y-115544301D01*
X148073626Y-115544301D01*
G37*
D22*
X147692500Y-115669000D03*
D11*
G36*
X148073626Y-116044301D02*
X148079693Y-116045201D01*
X148085643Y-116046691D01*
X148091418Y-116048758D01*
X148096962Y-116051380D01*
X148102223Y-116054533D01*
X148107150Y-116058187D01*
X148111694Y-116062306D01*
X148115813Y-116066850D01*
X148119467Y-116071777D01*
X148122620Y-116077038D01*
X148125242Y-116082582D01*
X148127309Y-116088357D01*
X148128799Y-116094307D01*
X148129699Y-116100374D01*
X148130000Y-116106500D01*
X148130000Y-116231500D01*
X148129699Y-116237626D01*
X148128799Y-116243693D01*
X148127309Y-116249643D01*
X148125242Y-116255418D01*
X148122620Y-116260962D01*
X148119467Y-116266223D01*
X148115813Y-116271150D01*
X148111694Y-116275694D01*
X148107150Y-116279813D01*
X148102223Y-116283467D01*
X148096962Y-116286620D01*
X148091418Y-116289242D01*
X148085643Y-116291309D01*
X148079693Y-116292799D01*
X148073626Y-116293699D01*
X148067500Y-116294000D01*
X147317500Y-116294000D01*
X147311374Y-116293699D01*
X147305307Y-116292799D01*
X147299357Y-116291309D01*
X147293582Y-116289242D01*
X147288038Y-116286620D01*
X147282777Y-116283467D01*
X147277850Y-116279813D01*
X147273306Y-116275694D01*
X147269187Y-116271150D01*
X147265533Y-116266223D01*
X147262380Y-116260962D01*
X147259758Y-116255418D01*
X147257691Y-116249643D01*
X147256201Y-116243693D01*
X147255301Y-116237626D01*
X147255000Y-116231500D01*
X147255000Y-116106500D01*
X147255301Y-116100374D01*
X147256201Y-116094307D01*
X147257691Y-116088357D01*
X147259758Y-116082582D01*
X147262380Y-116077038D01*
X147265533Y-116071777D01*
X147269187Y-116066850D01*
X147273306Y-116062306D01*
X147277850Y-116058187D01*
X147282777Y-116054533D01*
X147288038Y-116051380D01*
X147293582Y-116048758D01*
X147299357Y-116046691D01*
X147305307Y-116045201D01*
X147311374Y-116044301D01*
X147317500Y-116044000D01*
X148067500Y-116044000D01*
X148073626Y-116044301D01*
X148073626Y-116044301D01*
G37*
D22*
X147692500Y-116169000D03*
D11*
G36*
X148073626Y-116544301D02*
X148079693Y-116545201D01*
X148085643Y-116546691D01*
X148091418Y-116548758D01*
X148096962Y-116551380D01*
X148102223Y-116554533D01*
X148107150Y-116558187D01*
X148111694Y-116562306D01*
X148115813Y-116566850D01*
X148119467Y-116571777D01*
X148122620Y-116577038D01*
X148125242Y-116582582D01*
X148127309Y-116588357D01*
X148128799Y-116594307D01*
X148129699Y-116600374D01*
X148130000Y-116606500D01*
X148130000Y-116731500D01*
X148129699Y-116737626D01*
X148128799Y-116743693D01*
X148127309Y-116749643D01*
X148125242Y-116755418D01*
X148122620Y-116760962D01*
X148119467Y-116766223D01*
X148115813Y-116771150D01*
X148111694Y-116775694D01*
X148107150Y-116779813D01*
X148102223Y-116783467D01*
X148096962Y-116786620D01*
X148091418Y-116789242D01*
X148085643Y-116791309D01*
X148079693Y-116792799D01*
X148073626Y-116793699D01*
X148067500Y-116794000D01*
X147317500Y-116794000D01*
X147311374Y-116793699D01*
X147305307Y-116792799D01*
X147299357Y-116791309D01*
X147293582Y-116789242D01*
X147288038Y-116786620D01*
X147282777Y-116783467D01*
X147277850Y-116779813D01*
X147273306Y-116775694D01*
X147269187Y-116771150D01*
X147265533Y-116766223D01*
X147262380Y-116760962D01*
X147259758Y-116755418D01*
X147257691Y-116749643D01*
X147256201Y-116743693D01*
X147255301Y-116737626D01*
X147255000Y-116731500D01*
X147255000Y-116606500D01*
X147255301Y-116600374D01*
X147256201Y-116594307D01*
X147257691Y-116588357D01*
X147259758Y-116582582D01*
X147262380Y-116577038D01*
X147265533Y-116571777D01*
X147269187Y-116566850D01*
X147273306Y-116562306D01*
X147277850Y-116558187D01*
X147282777Y-116554533D01*
X147288038Y-116551380D01*
X147293582Y-116548758D01*
X147299357Y-116546691D01*
X147305307Y-116545201D01*
X147311374Y-116544301D01*
X147317500Y-116544000D01*
X148067500Y-116544000D01*
X148073626Y-116544301D01*
X148073626Y-116544301D01*
G37*
D22*
X147692500Y-116669000D03*
D11*
G36*
X148448626Y-116919301D02*
X148454693Y-116920201D01*
X148460643Y-116921691D01*
X148466418Y-116923758D01*
X148471962Y-116926380D01*
X148477223Y-116929533D01*
X148482150Y-116933187D01*
X148486694Y-116937306D01*
X148490813Y-116941850D01*
X148494467Y-116946777D01*
X148497620Y-116952038D01*
X148500242Y-116957582D01*
X148502309Y-116963357D01*
X148503799Y-116969307D01*
X148504699Y-116975374D01*
X148505000Y-116981500D01*
X148505000Y-117731500D01*
X148504699Y-117737626D01*
X148503799Y-117743693D01*
X148502309Y-117749643D01*
X148500242Y-117755418D01*
X148497620Y-117760962D01*
X148494467Y-117766223D01*
X148490813Y-117771150D01*
X148486694Y-117775694D01*
X148482150Y-117779813D01*
X148477223Y-117783467D01*
X148471962Y-117786620D01*
X148466418Y-117789242D01*
X148460643Y-117791309D01*
X148454693Y-117792799D01*
X148448626Y-117793699D01*
X148442500Y-117794000D01*
X148317500Y-117794000D01*
X148311374Y-117793699D01*
X148305307Y-117792799D01*
X148299357Y-117791309D01*
X148293582Y-117789242D01*
X148288038Y-117786620D01*
X148282777Y-117783467D01*
X148277850Y-117779813D01*
X148273306Y-117775694D01*
X148269187Y-117771150D01*
X148265533Y-117766223D01*
X148262380Y-117760962D01*
X148259758Y-117755418D01*
X148257691Y-117749643D01*
X148256201Y-117743693D01*
X148255301Y-117737626D01*
X148255000Y-117731500D01*
X148255000Y-116981500D01*
X148255301Y-116975374D01*
X148256201Y-116969307D01*
X148257691Y-116963357D01*
X148259758Y-116957582D01*
X148262380Y-116952038D01*
X148265533Y-116946777D01*
X148269187Y-116941850D01*
X148273306Y-116937306D01*
X148277850Y-116933187D01*
X148282777Y-116929533D01*
X148288038Y-116926380D01*
X148293582Y-116923758D01*
X148299357Y-116921691D01*
X148305307Y-116920201D01*
X148311374Y-116919301D01*
X148317500Y-116919000D01*
X148442500Y-116919000D01*
X148448626Y-116919301D01*
X148448626Y-116919301D01*
G37*
D22*
X148380000Y-117356500D03*
D11*
G36*
X148948626Y-116919301D02*
X148954693Y-116920201D01*
X148960643Y-116921691D01*
X148966418Y-116923758D01*
X148971962Y-116926380D01*
X148977223Y-116929533D01*
X148982150Y-116933187D01*
X148986694Y-116937306D01*
X148990813Y-116941850D01*
X148994467Y-116946777D01*
X148997620Y-116952038D01*
X149000242Y-116957582D01*
X149002309Y-116963357D01*
X149003799Y-116969307D01*
X149004699Y-116975374D01*
X149005000Y-116981500D01*
X149005000Y-117731500D01*
X149004699Y-117737626D01*
X149003799Y-117743693D01*
X149002309Y-117749643D01*
X149000242Y-117755418D01*
X148997620Y-117760962D01*
X148994467Y-117766223D01*
X148990813Y-117771150D01*
X148986694Y-117775694D01*
X148982150Y-117779813D01*
X148977223Y-117783467D01*
X148971962Y-117786620D01*
X148966418Y-117789242D01*
X148960643Y-117791309D01*
X148954693Y-117792799D01*
X148948626Y-117793699D01*
X148942500Y-117794000D01*
X148817500Y-117794000D01*
X148811374Y-117793699D01*
X148805307Y-117792799D01*
X148799357Y-117791309D01*
X148793582Y-117789242D01*
X148788038Y-117786620D01*
X148782777Y-117783467D01*
X148777850Y-117779813D01*
X148773306Y-117775694D01*
X148769187Y-117771150D01*
X148765533Y-117766223D01*
X148762380Y-117760962D01*
X148759758Y-117755418D01*
X148757691Y-117749643D01*
X148756201Y-117743693D01*
X148755301Y-117737626D01*
X148755000Y-117731500D01*
X148755000Y-116981500D01*
X148755301Y-116975374D01*
X148756201Y-116969307D01*
X148757691Y-116963357D01*
X148759758Y-116957582D01*
X148762380Y-116952038D01*
X148765533Y-116946777D01*
X148769187Y-116941850D01*
X148773306Y-116937306D01*
X148777850Y-116933187D01*
X148782777Y-116929533D01*
X148788038Y-116926380D01*
X148793582Y-116923758D01*
X148799357Y-116921691D01*
X148805307Y-116920201D01*
X148811374Y-116919301D01*
X148817500Y-116919000D01*
X148942500Y-116919000D01*
X148948626Y-116919301D01*
X148948626Y-116919301D01*
G37*
D22*
X148880000Y-117356500D03*
D11*
G36*
X149448626Y-116919301D02*
X149454693Y-116920201D01*
X149460643Y-116921691D01*
X149466418Y-116923758D01*
X149471962Y-116926380D01*
X149477223Y-116929533D01*
X149482150Y-116933187D01*
X149486694Y-116937306D01*
X149490813Y-116941850D01*
X149494467Y-116946777D01*
X149497620Y-116952038D01*
X149500242Y-116957582D01*
X149502309Y-116963357D01*
X149503799Y-116969307D01*
X149504699Y-116975374D01*
X149505000Y-116981500D01*
X149505000Y-117731500D01*
X149504699Y-117737626D01*
X149503799Y-117743693D01*
X149502309Y-117749643D01*
X149500242Y-117755418D01*
X149497620Y-117760962D01*
X149494467Y-117766223D01*
X149490813Y-117771150D01*
X149486694Y-117775694D01*
X149482150Y-117779813D01*
X149477223Y-117783467D01*
X149471962Y-117786620D01*
X149466418Y-117789242D01*
X149460643Y-117791309D01*
X149454693Y-117792799D01*
X149448626Y-117793699D01*
X149442500Y-117794000D01*
X149317500Y-117794000D01*
X149311374Y-117793699D01*
X149305307Y-117792799D01*
X149299357Y-117791309D01*
X149293582Y-117789242D01*
X149288038Y-117786620D01*
X149282777Y-117783467D01*
X149277850Y-117779813D01*
X149273306Y-117775694D01*
X149269187Y-117771150D01*
X149265533Y-117766223D01*
X149262380Y-117760962D01*
X149259758Y-117755418D01*
X149257691Y-117749643D01*
X149256201Y-117743693D01*
X149255301Y-117737626D01*
X149255000Y-117731500D01*
X149255000Y-116981500D01*
X149255301Y-116975374D01*
X149256201Y-116969307D01*
X149257691Y-116963357D01*
X149259758Y-116957582D01*
X149262380Y-116952038D01*
X149265533Y-116946777D01*
X149269187Y-116941850D01*
X149273306Y-116937306D01*
X149277850Y-116933187D01*
X149282777Y-116929533D01*
X149288038Y-116926380D01*
X149293582Y-116923758D01*
X149299357Y-116921691D01*
X149305307Y-116920201D01*
X149311374Y-116919301D01*
X149317500Y-116919000D01*
X149442500Y-116919000D01*
X149448626Y-116919301D01*
X149448626Y-116919301D01*
G37*
D22*
X149380000Y-117356500D03*
D11*
G36*
X149948626Y-116919301D02*
X149954693Y-116920201D01*
X149960643Y-116921691D01*
X149966418Y-116923758D01*
X149971962Y-116926380D01*
X149977223Y-116929533D01*
X149982150Y-116933187D01*
X149986694Y-116937306D01*
X149990813Y-116941850D01*
X149994467Y-116946777D01*
X149997620Y-116952038D01*
X150000242Y-116957582D01*
X150002309Y-116963357D01*
X150003799Y-116969307D01*
X150004699Y-116975374D01*
X150005000Y-116981500D01*
X150005000Y-117731500D01*
X150004699Y-117737626D01*
X150003799Y-117743693D01*
X150002309Y-117749643D01*
X150000242Y-117755418D01*
X149997620Y-117760962D01*
X149994467Y-117766223D01*
X149990813Y-117771150D01*
X149986694Y-117775694D01*
X149982150Y-117779813D01*
X149977223Y-117783467D01*
X149971962Y-117786620D01*
X149966418Y-117789242D01*
X149960643Y-117791309D01*
X149954693Y-117792799D01*
X149948626Y-117793699D01*
X149942500Y-117794000D01*
X149817500Y-117794000D01*
X149811374Y-117793699D01*
X149805307Y-117792799D01*
X149799357Y-117791309D01*
X149793582Y-117789242D01*
X149788038Y-117786620D01*
X149782777Y-117783467D01*
X149777850Y-117779813D01*
X149773306Y-117775694D01*
X149769187Y-117771150D01*
X149765533Y-117766223D01*
X149762380Y-117760962D01*
X149759758Y-117755418D01*
X149757691Y-117749643D01*
X149756201Y-117743693D01*
X149755301Y-117737626D01*
X149755000Y-117731500D01*
X149755000Y-116981500D01*
X149755301Y-116975374D01*
X149756201Y-116969307D01*
X149757691Y-116963357D01*
X149759758Y-116957582D01*
X149762380Y-116952038D01*
X149765533Y-116946777D01*
X149769187Y-116941850D01*
X149773306Y-116937306D01*
X149777850Y-116933187D01*
X149782777Y-116929533D01*
X149788038Y-116926380D01*
X149793582Y-116923758D01*
X149799357Y-116921691D01*
X149805307Y-116920201D01*
X149811374Y-116919301D01*
X149817500Y-116919000D01*
X149942500Y-116919000D01*
X149948626Y-116919301D01*
X149948626Y-116919301D01*
G37*
D22*
X149880000Y-117356500D03*
D11*
G36*
X150448626Y-116919301D02*
X150454693Y-116920201D01*
X150460643Y-116921691D01*
X150466418Y-116923758D01*
X150471962Y-116926380D01*
X150477223Y-116929533D01*
X150482150Y-116933187D01*
X150486694Y-116937306D01*
X150490813Y-116941850D01*
X150494467Y-116946777D01*
X150497620Y-116952038D01*
X150500242Y-116957582D01*
X150502309Y-116963357D01*
X150503799Y-116969307D01*
X150504699Y-116975374D01*
X150505000Y-116981500D01*
X150505000Y-117731500D01*
X150504699Y-117737626D01*
X150503799Y-117743693D01*
X150502309Y-117749643D01*
X150500242Y-117755418D01*
X150497620Y-117760962D01*
X150494467Y-117766223D01*
X150490813Y-117771150D01*
X150486694Y-117775694D01*
X150482150Y-117779813D01*
X150477223Y-117783467D01*
X150471962Y-117786620D01*
X150466418Y-117789242D01*
X150460643Y-117791309D01*
X150454693Y-117792799D01*
X150448626Y-117793699D01*
X150442500Y-117794000D01*
X150317500Y-117794000D01*
X150311374Y-117793699D01*
X150305307Y-117792799D01*
X150299357Y-117791309D01*
X150293582Y-117789242D01*
X150288038Y-117786620D01*
X150282777Y-117783467D01*
X150277850Y-117779813D01*
X150273306Y-117775694D01*
X150269187Y-117771150D01*
X150265533Y-117766223D01*
X150262380Y-117760962D01*
X150259758Y-117755418D01*
X150257691Y-117749643D01*
X150256201Y-117743693D01*
X150255301Y-117737626D01*
X150255000Y-117731500D01*
X150255000Y-116981500D01*
X150255301Y-116975374D01*
X150256201Y-116969307D01*
X150257691Y-116963357D01*
X150259758Y-116957582D01*
X150262380Y-116952038D01*
X150265533Y-116946777D01*
X150269187Y-116941850D01*
X150273306Y-116937306D01*
X150277850Y-116933187D01*
X150282777Y-116929533D01*
X150288038Y-116926380D01*
X150293582Y-116923758D01*
X150299357Y-116921691D01*
X150305307Y-116920201D01*
X150311374Y-116919301D01*
X150317500Y-116919000D01*
X150442500Y-116919000D01*
X150448626Y-116919301D01*
X150448626Y-116919301D01*
G37*
D22*
X150380000Y-117356500D03*
D11*
G36*
X150948626Y-116919301D02*
X150954693Y-116920201D01*
X150960643Y-116921691D01*
X150966418Y-116923758D01*
X150971962Y-116926380D01*
X150977223Y-116929533D01*
X150982150Y-116933187D01*
X150986694Y-116937306D01*
X150990813Y-116941850D01*
X150994467Y-116946777D01*
X150997620Y-116952038D01*
X151000242Y-116957582D01*
X151002309Y-116963357D01*
X151003799Y-116969307D01*
X151004699Y-116975374D01*
X151005000Y-116981500D01*
X151005000Y-117731500D01*
X151004699Y-117737626D01*
X151003799Y-117743693D01*
X151002309Y-117749643D01*
X151000242Y-117755418D01*
X150997620Y-117760962D01*
X150994467Y-117766223D01*
X150990813Y-117771150D01*
X150986694Y-117775694D01*
X150982150Y-117779813D01*
X150977223Y-117783467D01*
X150971962Y-117786620D01*
X150966418Y-117789242D01*
X150960643Y-117791309D01*
X150954693Y-117792799D01*
X150948626Y-117793699D01*
X150942500Y-117794000D01*
X150817500Y-117794000D01*
X150811374Y-117793699D01*
X150805307Y-117792799D01*
X150799357Y-117791309D01*
X150793582Y-117789242D01*
X150788038Y-117786620D01*
X150782777Y-117783467D01*
X150777850Y-117779813D01*
X150773306Y-117775694D01*
X150769187Y-117771150D01*
X150765533Y-117766223D01*
X150762380Y-117760962D01*
X150759758Y-117755418D01*
X150757691Y-117749643D01*
X150756201Y-117743693D01*
X150755301Y-117737626D01*
X150755000Y-117731500D01*
X150755000Y-116981500D01*
X150755301Y-116975374D01*
X150756201Y-116969307D01*
X150757691Y-116963357D01*
X150759758Y-116957582D01*
X150762380Y-116952038D01*
X150765533Y-116946777D01*
X150769187Y-116941850D01*
X150773306Y-116937306D01*
X150777850Y-116933187D01*
X150782777Y-116929533D01*
X150788038Y-116926380D01*
X150793582Y-116923758D01*
X150799357Y-116921691D01*
X150805307Y-116920201D01*
X150811374Y-116919301D01*
X150817500Y-116919000D01*
X150942500Y-116919000D01*
X150948626Y-116919301D01*
X150948626Y-116919301D01*
G37*
D22*
X150880000Y-117356500D03*
D11*
G36*
X151448626Y-116919301D02*
X151454693Y-116920201D01*
X151460643Y-116921691D01*
X151466418Y-116923758D01*
X151471962Y-116926380D01*
X151477223Y-116929533D01*
X151482150Y-116933187D01*
X151486694Y-116937306D01*
X151490813Y-116941850D01*
X151494467Y-116946777D01*
X151497620Y-116952038D01*
X151500242Y-116957582D01*
X151502309Y-116963357D01*
X151503799Y-116969307D01*
X151504699Y-116975374D01*
X151505000Y-116981500D01*
X151505000Y-117731500D01*
X151504699Y-117737626D01*
X151503799Y-117743693D01*
X151502309Y-117749643D01*
X151500242Y-117755418D01*
X151497620Y-117760962D01*
X151494467Y-117766223D01*
X151490813Y-117771150D01*
X151486694Y-117775694D01*
X151482150Y-117779813D01*
X151477223Y-117783467D01*
X151471962Y-117786620D01*
X151466418Y-117789242D01*
X151460643Y-117791309D01*
X151454693Y-117792799D01*
X151448626Y-117793699D01*
X151442500Y-117794000D01*
X151317500Y-117794000D01*
X151311374Y-117793699D01*
X151305307Y-117792799D01*
X151299357Y-117791309D01*
X151293582Y-117789242D01*
X151288038Y-117786620D01*
X151282777Y-117783467D01*
X151277850Y-117779813D01*
X151273306Y-117775694D01*
X151269187Y-117771150D01*
X151265533Y-117766223D01*
X151262380Y-117760962D01*
X151259758Y-117755418D01*
X151257691Y-117749643D01*
X151256201Y-117743693D01*
X151255301Y-117737626D01*
X151255000Y-117731500D01*
X151255000Y-116981500D01*
X151255301Y-116975374D01*
X151256201Y-116969307D01*
X151257691Y-116963357D01*
X151259758Y-116957582D01*
X151262380Y-116952038D01*
X151265533Y-116946777D01*
X151269187Y-116941850D01*
X151273306Y-116937306D01*
X151277850Y-116933187D01*
X151282777Y-116929533D01*
X151288038Y-116926380D01*
X151293582Y-116923758D01*
X151299357Y-116921691D01*
X151305307Y-116920201D01*
X151311374Y-116919301D01*
X151317500Y-116919000D01*
X151442500Y-116919000D01*
X151448626Y-116919301D01*
X151448626Y-116919301D01*
G37*
D22*
X151380000Y-117356500D03*
D11*
G36*
X151948626Y-116919301D02*
X151954693Y-116920201D01*
X151960643Y-116921691D01*
X151966418Y-116923758D01*
X151971962Y-116926380D01*
X151977223Y-116929533D01*
X151982150Y-116933187D01*
X151986694Y-116937306D01*
X151990813Y-116941850D01*
X151994467Y-116946777D01*
X151997620Y-116952038D01*
X152000242Y-116957582D01*
X152002309Y-116963357D01*
X152003799Y-116969307D01*
X152004699Y-116975374D01*
X152005000Y-116981500D01*
X152005000Y-117731500D01*
X152004699Y-117737626D01*
X152003799Y-117743693D01*
X152002309Y-117749643D01*
X152000242Y-117755418D01*
X151997620Y-117760962D01*
X151994467Y-117766223D01*
X151990813Y-117771150D01*
X151986694Y-117775694D01*
X151982150Y-117779813D01*
X151977223Y-117783467D01*
X151971962Y-117786620D01*
X151966418Y-117789242D01*
X151960643Y-117791309D01*
X151954693Y-117792799D01*
X151948626Y-117793699D01*
X151942500Y-117794000D01*
X151817500Y-117794000D01*
X151811374Y-117793699D01*
X151805307Y-117792799D01*
X151799357Y-117791309D01*
X151793582Y-117789242D01*
X151788038Y-117786620D01*
X151782777Y-117783467D01*
X151777850Y-117779813D01*
X151773306Y-117775694D01*
X151769187Y-117771150D01*
X151765533Y-117766223D01*
X151762380Y-117760962D01*
X151759758Y-117755418D01*
X151757691Y-117749643D01*
X151756201Y-117743693D01*
X151755301Y-117737626D01*
X151755000Y-117731500D01*
X151755000Y-116981500D01*
X151755301Y-116975374D01*
X151756201Y-116969307D01*
X151757691Y-116963357D01*
X151759758Y-116957582D01*
X151762380Y-116952038D01*
X151765533Y-116946777D01*
X151769187Y-116941850D01*
X151773306Y-116937306D01*
X151777850Y-116933187D01*
X151782777Y-116929533D01*
X151788038Y-116926380D01*
X151793582Y-116923758D01*
X151799357Y-116921691D01*
X151805307Y-116920201D01*
X151811374Y-116919301D01*
X151817500Y-116919000D01*
X151942500Y-116919000D01*
X151948626Y-116919301D01*
X151948626Y-116919301D01*
G37*
D22*
X151880000Y-117356500D03*
D11*
G36*
X152448626Y-116919301D02*
X152454693Y-116920201D01*
X152460643Y-116921691D01*
X152466418Y-116923758D01*
X152471962Y-116926380D01*
X152477223Y-116929533D01*
X152482150Y-116933187D01*
X152486694Y-116937306D01*
X152490813Y-116941850D01*
X152494467Y-116946777D01*
X152497620Y-116952038D01*
X152500242Y-116957582D01*
X152502309Y-116963357D01*
X152503799Y-116969307D01*
X152504699Y-116975374D01*
X152505000Y-116981500D01*
X152505000Y-117731500D01*
X152504699Y-117737626D01*
X152503799Y-117743693D01*
X152502309Y-117749643D01*
X152500242Y-117755418D01*
X152497620Y-117760962D01*
X152494467Y-117766223D01*
X152490813Y-117771150D01*
X152486694Y-117775694D01*
X152482150Y-117779813D01*
X152477223Y-117783467D01*
X152471962Y-117786620D01*
X152466418Y-117789242D01*
X152460643Y-117791309D01*
X152454693Y-117792799D01*
X152448626Y-117793699D01*
X152442500Y-117794000D01*
X152317500Y-117794000D01*
X152311374Y-117793699D01*
X152305307Y-117792799D01*
X152299357Y-117791309D01*
X152293582Y-117789242D01*
X152288038Y-117786620D01*
X152282777Y-117783467D01*
X152277850Y-117779813D01*
X152273306Y-117775694D01*
X152269187Y-117771150D01*
X152265533Y-117766223D01*
X152262380Y-117760962D01*
X152259758Y-117755418D01*
X152257691Y-117749643D01*
X152256201Y-117743693D01*
X152255301Y-117737626D01*
X152255000Y-117731500D01*
X152255000Y-116981500D01*
X152255301Y-116975374D01*
X152256201Y-116969307D01*
X152257691Y-116963357D01*
X152259758Y-116957582D01*
X152262380Y-116952038D01*
X152265533Y-116946777D01*
X152269187Y-116941850D01*
X152273306Y-116937306D01*
X152277850Y-116933187D01*
X152282777Y-116929533D01*
X152288038Y-116926380D01*
X152293582Y-116923758D01*
X152299357Y-116921691D01*
X152305307Y-116920201D01*
X152311374Y-116919301D01*
X152317500Y-116919000D01*
X152442500Y-116919000D01*
X152448626Y-116919301D01*
X152448626Y-116919301D01*
G37*
D22*
X152380000Y-117356500D03*
D11*
G36*
X152948626Y-116919301D02*
X152954693Y-116920201D01*
X152960643Y-116921691D01*
X152966418Y-116923758D01*
X152971962Y-116926380D01*
X152977223Y-116929533D01*
X152982150Y-116933187D01*
X152986694Y-116937306D01*
X152990813Y-116941850D01*
X152994467Y-116946777D01*
X152997620Y-116952038D01*
X153000242Y-116957582D01*
X153002309Y-116963357D01*
X153003799Y-116969307D01*
X153004699Y-116975374D01*
X153005000Y-116981500D01*
X153005000Y-117731500D01*
X153004699Y-117737626D01*
X153003799Y-117743693D01*
X153002309Y-117749643D01*
X153000242Y-117755418D01*
X152997620Y-117760962D01*
X152994467Y-117766223D01*
X152990813Y-117771150D01*
X152986694Y-117775694D01*
X152982150Y-117779813D01*
X152977223Y-117783467D01*
X152971962Y-117786620D01*
X152966418Y-117789242D01*
X152960643Y-117791309D01*
X152954693Y-117792799D01*
X152948626Y-117793699D01*
X152942500Y-117794000D01*
X152817500Y-117794000D01*
X152811374Y-117793699D01*
X152805307Y-117792799D01*
X152799357Y-117791309D01*
X152793582Y-117789242D01*
X152788038Y-117786620D01*
X152782777Y-117783467D01*
X152777850Y-117779813D01*
X152773306Y-117775694D01*
X152769187Y-117771150D01*
X152765533Y-117766223D01*
X152762380Y-117760962D01*
X152759758Y-117755418D01*
X152757691Y-117749643D01*
X152756201Y-117743693D01*
X152755301Y-117737626D01*
X152755000Y-117731500D01*
X152755000Y-116981500D01*
X152755301Y-116975374D01*
X152756201Y-116969307D01*
X152757691Y-116963357D01*
X152759758Y-116957582D01*
X152762380Y-116952038D01*
X152765533Y-116946777D01*
X152769187Y-116941850D01*
X152773306Y-116937306D01*
X152777850Y-116933187D01*
X152782777Y-116929533D01*
X152788038Y-116926380D01*
X152793582Y-116923758D01*
X152799357Y-116921691D01*
X152805307Y-116920201D01*
X152811374Y-116919301D01*
X152817500Y-116919000D01*
X152942500Y-116919000D01*
X152948626Y-116919301D01*
X152948626Y-116919301D01*
G37*
D22*
X152880000Y-117356500D03*
D11*
G36*
X153448626Y-116919301D02*
X153454693Y-116920201D01*
X153460643Y-116921691D01*
X153466418Y-116923758D01*
X153471962Y-116926380D01*
X153477223Y-116929533D01*
X153482150Y-116933187D01*
X153486694Y-116937306D01*
X153490813Y-116941850D01*
X153494467Y-116946777D01*
X153497620Y-116952038D01*
X153500242Y-116957582D01*
X153502309Y-116963357D01*
X153503799Y-116969307D01*
X153504699Y-116975374D01*
X153505000Y-116981500D01*
X153505000Y-117731500D01*
X153504699Y-117737626D01*
X153503799Y-117743693D01*
X153502309Y-117749643D01*
X153500242Y-117755418D01*
X153497620Y-117760962D01*
X153494467Y-117766223D01*
X153490813Y-117771150D01*
X153486694Y-117775694D01*
X153482150Y-117779813D01*
X153477223Y-117783467D01*
X153471962Y-117786620D01*
X153466418Y-117789242D01*
X153460643Y-117791309D01*
X153454693Y-117792799D01*
X153448626Y-117793699D01*
X153442500Y-117794000D01*
X153317500Y-117794000D01*
X153311374Y-117793699D01*
X153305307Y-117792799D01*
X153299357Y-117791309D01*
X153293582Y-117789242D01*
X153288038Y-117786620D01*
X153282777Y-117783467D01*
X153277850Y-117779813D01*
X153273306Y-117775694D01*
X153269187Y-117771150D01*
X153265533Y-117766223D01*
X153262380Y-117760962D01*
X153259758Y-117755418D01*
X153257691Y-117749643D01*
X153256201Y-117743693D01*
X153255301Y-117737626D01*
X153255000Y-117731500D01*
X153255000Y-116981500D01*
X153255301Y-116975374D01*
X153256201Y-116969307D01*
X153257691Y-116963357D01*
X153259758Y-116957582D01*
X153262380Y-116952038D01*
X153265533Y-116946777D01*
X153269187Y-116941850D01*
X153273306Y-116937306D01*
X153277850Y-116933187D01*
X153282777Y-116929533D01*
X153288038Y-116926380D01*
X153293582Y-116923758D01*
X153299357Y-116921691D01*
X153305307Y-116920201D01*
X153311374Y-116919301D01*
X153317500Y-116919000D01*
X153442500Y-116919000D01*
X153448626Y-116919301D01*
X153448626Y-116919301D01*
G37*
D22*
X153380000Y-117356500D03*
D11*
G36*
X153948626Y-116919301D02*
X153954693Y-116920201D01*
X153960643Y-116921691D01*
X153966418Y-116923758D01*
X153971962Y-116926380D01*
X153977223Y-116929533D01*
X153982150Y-116933187D01*
X153986694Y-116937306D01*
X153990813Y-116941850D01*
X153994467Y-116946777D01*
X153997620Y-116952038D01*
X154000242Y-116957582D01*
X154002309Y-116963357D01*
X154003799Y-116969307D01*
X154004699Y-116975374D01*
X154005000Y-116981500D01*
X154005000Y-117731500D01*
X154004699Y-117737626D01*
X154003799Y-117743693D01*
X154002309Y-117749643D01*
X154000242Y-117755418D01*
X153997620Y-117760962D01*
X153994467Y-117766223D01*
X153990813Y-117771150D01*
X153986694Y-117775694D01*
X153982150Y-117779813D01*
X153977223Y-117783467D01*
X153971962Y-117786620D01*
X153966418Y-117789242D01*
X153960643Y-117791309D01*
X153954693Y-117792799D01*
X153948626Y-117793699D01*
X153942500Y-117794000D01*
X153817500Y-117794000D01*
X153811374Y-117793699D01*
X153805307Y-117792799D01*
X153799357Y-117791309D01*
X153793582Y-117789242D01*
X153788038Y-117786620D01*
X153782777Y-117783467D01*
X153777850Y-117779813D01*
X153773306Y-117775694D01*
X153769187Y-117771150D01*
X153765533Y-117766223D01*
X153762380Y-117760962D01*
X153759758Y-117755418D01*
X153757691Y-117749643D01*
X153756201Y-117743693D01*
X153755301Y-117737626D01*
X153755000Y-117731500D01*
X153755000Y-116981500D01*
X153755301Y-116975374D01*
X153756201Y-116969307D01*
X153757691Y-116963357D01*
X153759758Y-116957582D01*
X153762380Y-116952038D01*
X153765533Y-116946777D01*
X153769187Y-116941850D01*
X153773306Y-116937306D01*
X153777850Y-116933187D01*
X153782777Y-116929533D01*
X153788038Y-116926380D01*
X153793582Y-116923758D01*
X153799357Y-116921691D01*
X153805307Y-116920201D01*
X153811374Y-116919301D01*
X153817500Y-116919000D01*
X153942500Y-116919000D01*
X153948626Y-116919301D01*
X153948626Y-116919301D01*
G37*
D22*
X153880000Y-117356500D03*
D11*
G36*
X154948626Y-116544301D02*
X154954693Y-116545201D01*
X154960643Y-116546691D01*
X154966418Y-116548758D01*
X154971962Y-116551380D01*
X154977223Y-116554533D01*
X154982150Y-116558187D01*
X154986694Y-116562306D01*
X154990813Y-116566850D01*
X154994467Y-116571777D01*
X154997620Y-116577038D01*
X155000242Y-116582582D01*
X155002309Y-116588357D01*
X155003799Y-116594307D01*
X155004699Y-116600374D01*
X155005000Y-116606500D01*
X155005000Y-116731500D01*
X155004699Y-116737626D01*
X155003799Y-116743693D01*
X155002309Y-116749643D01*
X155000242Y-116755418D01*
X154997620Y-116760962D01*
X154994467Y-116766223D01*
X154990813Y-116771150D01*
X154986694Y-116775694D01*
X154982150Y-116779813D01*
X154977223Y-116783467D01*
X154971962Y-116786620D01*
X154966418Y-116789242D01*
X154960643Y-116791309D01*
X154954693Y-116792799D01*
X154948626Y-116793699D01*
X154942500Y-116794000D01*
X154192500Y-116794000D01*
X154186374Y-116793699D01*
X154180307Y-116792799D01*
X154174357Y-116791309D01*
X154168582Y-116789242D01*
X154163038Y-116786620D01*
X154157777Y-116783467D01*
X154152850Y-116779813D01*
X154148306Y-116775694D01*
X154144187Y-116771150D01*
X154140533Y-116766223D01*
X154137380Y-116760962D01*
X154134758Y-116755418D01*
X154132691Y-116749643D01*
X154131201Y-116743693D01*
X154130301Y-116737626D01*
X154130000Y-116731500D01*
X154130000Y-116606500D01*
X154130301Y-116600374D01*
X154131201Y-116594307D01*
X154132691Y-116588357D01*
X154134758Y-116582582D01*
X154137380Y-116577038D01*
X154140533Y-116571777D01*
X154144187Y-116566850D01*
X154148306Y-116562306D01*
X154152850Y-116558187D01*
X154157777Y-116554533D01*
X154163038Y-116551380D01*
X154168582Y-116548758D01*
X154174357Y-116546691D01*
X154180307Y-116545201D01*
X154186374Y-116544301D01*
X154192500Y-116544000D01*
X154942500Y-116544000D01*
X154948626Y-116544301D01*
X154948626Y-116544301D01*
G37*
D22*
X154567500Y-116669000D03*
D11*
G36*
X154948626Y-116044301D02*
X154954693Y-116045201D01*
X154960643Y-116046691D01*
X154966418Y-116048758D01*
X154971962Y-116051380D01*
X154977223Y-116054533D01*
X154982150Y-116058187D01*
X154986694Y-116062306D01*
X154990813Y-116066850D01*
X154994467Y-116071777D01*
X154997620Y-116077038D01*
X155000242Y-116082582D01*
X155002309Y-116088357D01*
X155003799Y-116094307D01*
X155004699Y-116100374D01*
X155005000Y-116106500D01*
X155005000Y-116231500D01*
X155004699Y-116237626D01*
X155003799Y-116243693D01*
X155002309Y-116249643D01*
X155000242Y-116255418D01*
X154997620Y-116260962D01*
X154994467Y-116266223D01*
X154990813Y-116271150D01*
X154986694Y-116275694D01*
X154982150Y-116279813D01*
X154977223Y-116283467D01*
X154971962Y-116286620D01*
X154966418Y-116289242D01*
X154960643Y-116291309D01*
X154954693Y-116292799D01*
X154948626Y-116293699D01*
X154942500Y-116294000D01*
X154192500Y-116294000D01*
X154186374Y-116293699D01*
X154180307Y-116292799D01*
X154174357Y-116291309D01*
X154168582Y-116289242D01*
X154163038Y-116286620D01*
X154157777Y-116283467D01*
X154152850Y-116279813D01*
X154148306Y-116275694D01*
X154144187Y-116271150D01*
X154140533Y-116266223D01*
X154137380Y-116260962D01*
X154134758Y-116255418D01*
X154132691Y-116249643D01*
X154131201Y-116243693D01*
X154130301Y-116237626D01*
X154130000Y-116231500D01*
X154130000Y-116106500D01*
X154130301Y-116100374D01*
X154131201Y-116094307D01*
X154132691Y-116088357D01*
X154134758Y-116082582D01*
X154137380Y-116077038D01*
X154140533Y-116071777D01*
X154144187Y-116066850D01*
X154148306Y-116062306D01*
X154152850Y-116058187D01*
X154157777Y-116054533D01*
X154163038Y-116051380D01*
X154168582Y-116048758D01*
X154174357Y-116046691D01*
X154180307Y-116045201D01*
X154186374Y-116044301D01*
X154192500Y-116044000D01*
X154942500Y-116044000D01*
X154948626Y-116044301D01*
X154948626Y-116044301D01*
G37*
D22*
X154567500Y-116169000D03*
D11*
G36*
X154948626Y-115544301D02*
X154954693Y-115545201D01*
X154960643Y-115546691D01*
X154966418Y-115548758D01*
X154971962Y-115551380D01*
X154977223Y-115554533D01*
X154982150Y-115558187D01*
X154986694Y-115562306D01*
X154990813Y-115566850D01*
X154994467Y-115571777D01*
X154997620Y-115577038D01*
X155000242Y-115582582D01*
X155002309Y-115588357D01*
X155003799Y-115594307D01*
X155004699Y-115600374D01*
X155005000Y-115606500D01*
X155005000Y-115731500D01*
X155004699Y-115737626D01*
X155003799Y-115743693D01*
X155002309Y-115749643D01*
X155000242Y-115755418D01*
X154997620Y-115760962D01*
X154994467Y-115766223D01*
X154990813Y-115771150D01*
X154986694Y-115775694D01*
X154982150Y-115779813D01*
X154977223Y-115783467D01*
X154971962Y-115786620D01*
X154966418Y-115789242D01*
X154960643Y-115791309D01*
X154954693Y-115792799D01*
X154948626Y-115793699D01*
X154942500Y-115794000D01*
X154192500Y-115794000D01*
X154186374Y-115793699D01*
X154180307Y-115792799D01*
X154174357Y-115791309D01*
X154168582Y-115789242D01*
X154163038Y-115786620D01*
X154157777Y-115783467D01*
X154152850Y-115779813D01*
X154148306Y-115775694D01*
X154144187Y-115771150D01*
X154140533Y-115766223D01*
X154137380Y-115760962D01*
X154134758Y-115755418D01*
X154132691Y-115749643D01*
X154131201Y-115743693D01*
X154130301Y-115737626D01*
X154130000Y-115731500D01*
X154130000Y-115606500D01*
X154130301Y-115600374D01*
X154131201Y-115594307D01*
X154132691Y-115588357D01*
X154134758Y-115582582D01*
X154137380Y-115577038D01*
X154140533Y-115571777D01*
X154144187Y-115566850D01*
X154148306Y-115562306D01*
X154152850Y-115558187D01*
X154157777Y-115554533D01*
X154163038Y-115551380D01*
X154168582Y-115548758D01*
X154174357Y-115546691D01*
X154180307Y-115545201D01*
X154186374Y-115544301D01*
X154192500Y-115544000D01*
X154942500Y-115544000D01*
X154948626Y-115544301D01*
X154948626Y-115544301D01*
G37*
D22*
X154567500Y-115669000D03*
D11*
G36*
X154948626Y-115044301D02*
X154954693Y-115045201D01*
X154960643Y-115046691D01*
X154966418Y-115048758D01*
X154971962Y-115051380D01*
X154977223Y-115054533D01*
X154982150Y-115058187D01*
X154986694Y-115062306D01*
X154990813Y-115066850D01*
X154994467Y-115071777D01*
X154997620Y-115077038D01*
X155000242Y-115082582D01*
X155002309Y-115088357D01*
X155003799Y-115094307D01*
X155004699Y-115100374D01*
X155005000Y-115106500D01*
X155005000Y-115231500D01*
X155004699Y-115237626D01*
X155003799Y-115243693D01*
X155002309Y-115249643D01*
X155000242Y-115255418D01*
X154997620Y-115260962D01*
X154994467Y-115266223D01*
X154990813Y-115271150D01*
X154986694Y-115275694D01*
X154982150Y-115279813D01*
X154977223Y-115283467D01*
X154971962Y-115286620D01*
X154966418Y-115289242D01*
X154960643Y-115291309D01*
X154954693Y-115292799D01*
X154948626Y-115293699D01*
X154942500Y-115294000D01*
X154192500Y-115294000D01*
X154186374Y-115293699D01*
X154180307Y-115292799D01*
X154174357Y-115291309D01*
X154168582Y-115289242D01*
X154163038Y-115286620D01*
X154157777Y-115283467D01*
X154152850Y-115279813D01*
X154148306Y-115275694D01*
X154144187Y-115271150D01*
X154140533Y-115266223D01*
X154137380Y-115260962D01*
X154134758Y-115255418D01*
X154132691Y-115249643D01*
X154131201Y-115243693D01*
X154130301Y-115237626D01*
X154130000Y-115231500D01*
X154130000Y-115106500D01*
X154130301Y-115100374D01*
X154131201Y-115094307D01*
X154132691Y-115088357D01*
X154134758Y-115082582D01*
X154137380Y-115077038D01*
X154140533Y-115071777D01*
X154144187Y-115066850D01*
X154148306Y-115062306D01*
X154152850Y-115058187D01*
X154157777Y-115054533D01*
X154163038Y-115051380D01*
X154168582Y-115048758D01*
X154174357Y-115046691D01*
X154180307Y-115045201D01*
X154186374Y-115044301D01*
X154192500Y-115044000D01*
X154942500Y-115044000D01*
X154948626Y-115044301D01*
X154948626Y-115044301D01*
G37*
D22*
X154567500Y-115169000D03*
D11*
G36*
X154948626Y-114544301D02*
X154954693Y-114545201D01*
X154960643Y-114546691D01*
X154966418Y-114548758D01*
X154971962Y-114551380D01*
X154977223Y-114554533D01*
X154982150Y-114558187D01*
X154986694Y-114562306D01*
X154990813Y-114566850D01*
X154994467Y-114571777D01*
X154997620Y-114577038D01*
X155000242Y-114582582D01*
X155002309Y-114588357D01*
X155003799Y-114594307D01*
X155004699Y-114600374D01*
X155005000Y-114606500D01*
X155005000Y-114731500D01*
X155004699Y-114737626D01*
X155003799Y-114743693D01*
X155002309Y-114749643D01*
X155000242Y-114755418D01*
X154997620Y-114760962D01*
X154994467Y-114766223D01*
X154990813Y-114771150D01*
X154986694Y-114775694D01*
X154982150Y-114779813D01*
X154977223Y-114783467D01*
X154971962Y-114786620D01*
X154966418Y-114789242D01*
X154960643Y-114791309D01*
X154954693Y-114792799D01*
X154948626Y-114793699D01*
X154942500Y-114794000D01*
X154192500Y-114794000D01*
X154186374Y-114793699D01*
X154180307Y-114792799D01*
X154174357Y-114791309D01*
X154168582Y-114789242D01*
X154163038Y-114786620D01*
X154157777Y-114783467D01*
X154152850Y-114779813D01*
X154148306Y-114775694D01*
X154144187Y-114771150D01*
X154140533Y-114766223D01*
X154137380Y-114760962D01*
X154134758Y-114755418D01*
X154132691Y-114749643D01*
X154131201Y-114743693D01*
X154130301Y-114737626D01*
X154130000Y-114731500D01*
X154130000Y-114606500D01*
X154130301Y-114600374D01*
X154131201Y-114594307D01*
X154132691Y-114588357D01*
X154134758Y-114582582D01*
X154137380Y-114577038D01*
X154140533Y-114571777D01*
X154144187Y-114566850D01*
X154148306Y-114562306D01*
X154152850Y-114558187D01*
X154157777Y-114554533D01*
X154163038Y-114551380D01*
X154168582Y-114548758D01*
X154174357Y-114546691D01*
X154180307Y-114545201D01*
X154186374Y-114544301D01*
X154192500Y-114544000D01*
X154942500Y-114544000D01*
X154948626Y-114544301D01*
X154948626Y-114544301D01*
G37*
D22*
X154567500Y-114669000D03*
D11*
G36*
X154948626Y-114044301D02*
X154954693Y-114045201D01*
X154960643Y-114046691D01*
X154966418Y-114048758D01*
X154971962Y-114051380D01*
X154977223Y-114054533D01*
X154982150Y-114058187D01*
X154986694Y-114062306D01*
X154990813Y-114066850D01*
X154994467Y-114071777D01*
X154997620Y-114077038D01*
X155000242Y-114082582D01*
X155002309Y-114088357D01*
X155003799Y-114094307D01*
X155004699Y-114100374D01*
X155005000Y-114106500D01*
X155005000Y-114231500D01*
X155004699Y-114237626D01*
X155003799Y-114243693D01*
X155002309Y-114249643D01*
X155000242Y-114255418D01*
X154997620Y-114260962D01*
X154994467Y-114266223D01*
X154990813Y-114271150D01*
X154986694Y-114275694D01*
X154982150Y-114279813D01*
X154977223Y-114283467D01*
X154971962Y-114286620D01*
X154966418Y-114289242D01*
X154960643Y-114291309D01*
X154954693Y-114292799D01*
X154948626Y-114293699D01*
X154942500Y-114294000D01*
X154192500Y-114294000D01*
X154186374Y-114293699D01*
X154180307Y-114292799D01*
X154174357Y-114291309D01*
X154168582Y-114289242D01*
X154163038Y-114286620D01*
X154157777Y-114283467D01*
X154152850Y-114279813D01*
X154148306Y-114275694D01*
X154144187Y-114271150D01*
X154140533Y-114266223D01*
X154137380Y-114260962D01*
X154134758Y-114255418D01*
X154132691Y-114249643D01*
X154131201Y-114243693D01*
X154130301Y-114237626D01*
X154130000Y-114231500D01*
X154130000Y-114106500D01*
X154130301Y-114100374D01*
X154131201Y-114094307D01*
X154132691Y-114088357D01*
X154134758Y-114082582D01*
X154137380Y-114077038D01*
X154140533Y-114071777D01*
X154144187Y-114066850D01*
X154148306Y-114062306D01*
X154152850Y-114058187D01*
X154157777Y-114054533D01*
X154163038Y-114051380D01*
X154168582Y-114048758D01*
X154174357Y-114046691D01*
X154180307Y-114045201D01*
X154186374Y-114044301D01*
X154192500Y-114044000D01*
X154942500Y-114044000D01*
X154948626Y-114044301D01*
X154948626Y-114044301D01*
G37*
D22*
X154567500Y-114169000D03*
D11*
G36*
X154948626Y-113544301D02*
X154954693Y-113545201D01*
X154960643Y-113546691D01*
X154966418Y-113548758D01*
X154971962Y-113551380D01*
X154977223Y-113554533D01*
X154982150Y-113558187D01*
X154986694Y-113562306D01*
X154990813Y-113566850D01*
X154994467Y-113571777D01*
X154997620Y-113577038D01*
X155000242Y-113582582D01*
X155002309Y-113588357D01*
X155003799Y-113594307D01*
X155004699Y-113600374D01*
X155005000Y-113606500D01*
X155005000Y-113731500D01*
X155004699Y-113737626D01*
X155003799Y-113743693D01*
X155002309Y-113749643D01*
X155000242Y-113755418D01*
X154997620Y-113760962D01*
X154994467Y-113766223D01*
X154990813Y-113771150D01*
X154986694Y-113775694D01*
X154982150Y-113779813D01*
X154977223Y-113783467D01*
X154971962Y-113786620D01*
X154966418Y-113789242D01*
X154960643Y-113791309D01*
X154954693Y-113792799D01*
X154948626Y-113793699D01*
X154942500Y-113794000D01*
X154192500Y-113794000D01*
X154186374Y-113793699D01*
X154180307Y-113792799D01*
X154174357Y-113791309D01*
X154168582Y-113789242D01*
X154163038Y-113786620D01*
X154157777Y-113783467D01*
X154152850Y-113779813D01*
X154148306Y-113775694D01*
X154144187Y-113771150D01*
X154140533Y-113766223D01*
X154137380Y-113760962D01*
X154134758Y-113755418D01*
X154132691Y-113749643D01*
X154131201Y-113743693D01*
X154130301Y-113737626D01*
X154130000Y-113731500D01*
X154130000Y-113606500D01*
X154130301Y-113600374D01*
X154131201Y-113594307D01*
X154132691Y-113588357D01*
X154134758Y-113582582D01*
X154137380Y-113577038D01*
X154140533Y-113571777D01*
X154144187Y-113566850D01*
X154148306Y-113562306D01*
X154152850Y-113558187D01*
X154157777Y-113554533D01*
X154163038Y-113551380D01*
X154168582Y-113548758D01*
X154174357Y-113546691D01*
X154180307Y-113545201D01*
X154186374Y-113544301D01*
X154192500Y-113544000D01*
X154942500Y-113544000D01*
X154948626Y-113544301D01*
X154948626Y-113544301D01*
G37*
D22*
X154567500Y-113669000D03*
D11*
G36*
X154948626Y-113044301D02*
X154954693Y-113045201D01*
X154960643Y-113046691D01*
X154966418Y-113048758D01*
X154971962Y-113051380D01*
X154977223Y-113054533D01*
X154982150Y-113058187D01*
X154986694Y-113062306D01*
X154990813Y-113066850D01*
X154994467Y-113071777D01*
X154997620Y-113077038D01*
X155000242Y-113082582D01*
X155002309Y-113088357D01*
X155003799Y-113094307D01*
X155004699Y-113100374D01*
X155005000Y-113106500D01*
X155005000Y-113231500D01*
X155004699Y-113237626D01*
X155003799Y-113243693D01*
X155002309Y-113249643D01*
X155000242Y-113255418D01*
X154997620Y-113260962D01*
X154994467Y-113266223D01*
X154990813Y-113271150D01*
X154986694Y-113275694D01*
X154982150Y-113279813D01*
X154977223Y-113283467D01*
X154971962Y-113286620D01*
X154966418Y-113289242D01*
X154960643Y-113291309D01*
X154954693Y-113292799D01*
X154948626Y-113293699D01*
X154942500Y-113294000D01*
X154192500Y-113294000D01*
X154186374Y-113293699D01*
X154180307Y-113292799D01*
X154174357Y-113291309D01*
X154168582Y-113289242D01*
X154163038Y-113286620D01*
X154157777Y-113283467D01*
X154152850Y-113279813D01*
X154148306Y-113275694D01*
X154144187Y-113271150D01*
X154140533Y-113266223D01*
X154137380Y-113260962D01*
X154134758Y-113255418D01*
X154132691Y-113249643D01*
X154131201Y-113243693D01*
X154130301Y-113237626D01*
X154130000Y-113231500D01*
X154130000Y-113106500D01*
X154130301Y-113100374D01*
X154131201Y-113094307D01*
X154132691Y-113088357D01*
X154134758Y-113082582D01*
X154137380Y-113077038D01*
X154140533Y-113071777D01*
X154144187Y-113066850D01*
X154148306Y-113062306D01*
X154152850Y-113058187D01*
X154157777Y-113054533D01*
X154163038Y-113051380D01*
X154168582Y-113048758D01*
X154174357Y-113046691D01*
X154180307Y-113045201D01*
X154186374Y-113044301D01*
X154192500Y-113044000D01*
X154942500Y-113044000D01*
X154948626Y-113044301D01*
X154948626Y-113044301D01*
G37*
D22*
X154567500Y-113169000D03*
D11*
G36*
X154948626Y-112544301D02*
X154954693Y-112545201D01*
X154960643Y-112546691D01*
X154966418Y-112548758D01*
X154971962Y-112551380D01*
X154977223Y-112554533D01*
X154982150Y-112558187D01*
X154986694Y-112562306D01*
X154990813Y-112566850D01*
X154994467Y-112571777D01*
X154997620Y-112577038D01*
X155000242Y-112582582D01*
X155002309Y-112588357D01*
X155003799Y-112594307D01*
X155004699Y-112600374D01*
X155005000Y-112606500D01*
X155005000Y-112731500D01*
X155004699Y-112737626D01*
X155003799Y-112743693D01*
X155002309Y-112749643D01*
X155000242Y-112755418D01*
X154997620Y-112760962D01*
X154994467Y-112766223D01*
X154990813Y-112771150D01*
X154986694Y-112775694D01*
X154982150Y-112779813D01*
X154977223Y-112783467D01*
X154971962Y-112786620D01*
X154966418Y-112789242D01*
X154960643Y-112791309D01*
X154954693Y-112792799D01*
X154948626Y-112793699D01*
X154942500Y-112794000D01*
X154192500Y-112794000D01*
X154186374Y-112793699D01*
X154180307Y-112792799D01*
X154174357Y-112791309D01*
X154168582Y-112789242D01*
X154163038Y-112786620D01*
X154157777Y-112783467D01*
X154152850Y-112779813D01*
X154148306Y-112775694D01*
X154144187Y-112771150D01*
X154140533Y-112766223D01*
X154137380Y-112760962D01*
X154134758Y-112755418D01*
X154132691Y-112749643D01*
X154131201Y-112743693D01*
X154130301Y-112737626D01*
X154130000Y-112731500D01*
X154130000Y-112606500D01*
X154130301Y-112600374D01*
X154131201Y-112594307D01*
X154132691Y-112588357D01*
X154134758Y-112582582D01*
X154137380Y-112577038D01*
X154140533Y-112571777D01*
X154144187Y-112566850D01*
X154148306Y-112562306D01*
X154152850Y-112558187D01*
X154157777Y-112554533D01*
X154163038Y-112551380D01*
X154168582Y-112548758D01*
X154174357Y-112546691D01*
X154180307Y-112545201D01*
X154186374Y-112544301D01*
X154192500Y-112544000D01*
X154942500Y-112544000D01*
X154948626Y-112544301D01*
X154948626Y-112544301D01*
G37*
D22*
X154567500Y-112669000D03*
D11*
G36*
X154948626Y-112044301D02*
X154954693Y-112045201D01*
X154960643Y-112046691D01*
X154966418Y-112048758D01*
X154971962Y-112051380D01*
X154977223Y-112054533D01*
X154982150Y-112058187D01*
X154986694Y-112062306D01*
X154990813Y-112066850D01*
X154994467Y-112071777D01*
X154997620Y-112077038D01*
X155000242Y-112082582D01*
X155002309Y-112088357D01*
X155003799Y-112094307D01*
X155004699Y-112100374D01*
X155005000Y-112106500D01*
X155005000Y-112231500D01*
X155004699Y-112237626D01*
X155003799Y-112243693D01*
X155002309Y-112249643D01*
X155000242Y-112255418D01*
X154997620Y-112260962D01*
X154994467Y-112266223D01*
X154990813Y-112271150D01*
X154986694Y-112275694D01*
X154982150Y-112279813D01*
X154977223Y-112283467D01*
X154971962Y-112286620D01*
X154966418Y-112289242D01*
X154960643Y-112291309D01*
X154954693Y-112292799D01*
X154948626Y-112293699D01*
X154942500Y-112294000D01*
X154192500Y-112294000D01*
X154186374Y-112293699D01*
X154180307Y-112292799D01*
X154174357Y-112291309D01*
X154168582Y-112289242D01*
X154163038Y-112286620D01*
X154157777Y-112283467D01*
X154152850Y-112279813D01*
X154148306Y-112275694D01*
X154144187Y-112271150D01*
X154140533Y-112266223D01*
X154137380Y-112260962D01*
X154134758Y-112255418D01*
X154132691Y-112249643D01*
X154131201Y-112243693D01*
X154130301Y-112237626D01*
X154130000Y-112231500D01*
X154130000Y-112106500D01*
X154130301Y-112100374D01*
X154131201Y-112094307D01*
X154132691Y-112088357D01*
X154134758Y-112082582D01*
X154137380Y-112077038D01*
X154140533Y-112071777D01*
X154144187Y-112066850D01*
X154148306Y-112062306D01*
X154152850Y-112058187D01*
X154157777Y-112054533D01*
X154163038Y-112051380D01*
X154168582Y-112048758D01*
X154174357Y-112046691D01*
X154180307Y-112045201D01*
X154186374Y-112044301D01*
X154192500Y-112044000D01*
X154942500Y-112044000D01*
X154948626Y-112044301D01*
X154948626Y-112044301D01*
G37*
D22*
X154567500Y-112169000D03*
D11*
G36*
X154948626Y-111544301D02*
X154954693Y-111545201D01*
X154960643Y-111546691D01*
X154966418Y-111548758D01*
X154971962Y-111551380D01*
X154977223Y-111554533D01*
X154982150Y-111558187D01*
X154986694Y-111562306D01*
X154990813Y-111566850D01*
X154994467Y-111571777D01*
X154997620Y-111577038D01*
X155000242Y-111582582D01*
X155002309Y-111588357D01*
X155003799Y-111594307D01*
X155004699Y-111600374D01*
X155005000Y-111606500D01*
X155005000Y-111731500D01*
X155004699Y-111737626D01*
X155003799Y-111743693D01*
X155002309Y-111749643D01*
X155000242Y-111755418D01*
X154997620Y-111760962D01*
X154994467Y-111766223D01*
X154990813Y-111771150D01*
X154986694Y-111775694D01*
X154982150Y-111779813D01*
X154977223Y-111783467D01*
X154971962Y-111786620D01*
X154966418Y-111789242D01*
X154960643Y-111791309D01*
X154954693Y-111792799D01*
X154948626Y-111793699D01*
X154942500Y-111794000D01*
X154192500Y-111794000D01*
X154186374Y-111793699D01*
X154180307Y-111792799D01*
X154174357Y-111791309D01*
X154168582Y-111789242D01*
X154163038Y-111786620D01*
X154157777Y-111783467D01*
X154152850Y-111779813D01*
X154148306Y-111775694D01*
X154144187Y-111771150D01*
X154140533Y-111766223D01*
X154137380Y-111760962D01*
X154134758Y-111755418D01*
X154132691Y-111749643D01*
X154131201Y-111743693D01*
X154130301Y-111737626D01*
X154130000Y-111731500D01*
X154130000Y-111606500D01*
X154130301Y-111600374D01*
X154131201Y-111594307D01*
X154132691Y-111588357D01*
X154134758Y-111582582D01*
X154137380Y-111577038D01*
X154140533Y-111571777D01*
X154144187Y-111566850D01*
X154148306Y-111562306D01*
X154152850Y-111558187D01*
X154157777Y-111554533D01*
X154163038Y-111551380D01*
X154168582Y-111548758D01*
X154174357Y-111546691D01*
X154180307Y-111545201D01*
X154186374Y-111544301D01*
X154192500Y-111544000D01*
X154942500Y-111544000D01*
X154948626Y-111544301D01*
X154948626Y-111544301D01*
G37*
D22*
X154567500Y-111669000D03*
D11*
G36*
X154948626Y-111044301D02*
X154954693Y-111045201D01*
X154960643Y-111046691D01*
X154966418Y-111048758D01*
X154971962Y-111051380D01*
X154977223Y-111054533D01*
X154982150Y-111058187D01*
X154986694Y-111062306D01*
X154990813Y-111066850D01*
X154994467Y-111071777D01*
X154997620Y-111077038D01*
X155000242Y-111082582D01*
X155002309Y-111088357D01*
X155003799Y-111094307D01*
X155004699Y-111100374D01*
X155005000Y-111106500D01*
X155005000Y-111231500D01*
X155004699Y-111237626D01*
X155003799Y-111243693D01*
X155002309Y-111249643D01*
X155000242Y-111255418D01*
X154997620Y-111260962D01*
X154994467Y-111266223D01*
X154990813Y-111271150D01*
X154986694Y-111275694D01*
X154982150Y-111279813D01*
X154977223Y-111283467D01*
X154971962Y-111286620D01*
X154966418Y-111289242D01*
X154960643Y-111291309D01*
X154954693Y-111292799D01*
X154948626Y-111293699D01*
X154942500Y-111294000D01*
X154192500Y-111294000D01*
X154186374Y-111293699D01*
X154180307Y-111292799D01*
X154174357Y-111291309D01*
X154168582Y-111289242D01*
X154163038Y-111286620D01*
X154157777Y-111283467D01*
X154152850Y-111279813D01*
X154148306Y-111275694D01*
X154144187Y-111271150D01*
X154140533Y-111266223D01*
X154137380Y-111260962D01*
X154134758Y-111255418D01*
X154132691Y-111249643D01*
X154131201Y-111243693D01*
X154130301Y-111237626D01*
X154130000Y-111231500D01*
X154130000Y-111106500D01*
X154130301Y-111100374D01*
X154131201Y-111094307D01*
X154132691Y-111088357D01*
X154134758Y-111082582D01*
X154137380Y-111077038D01*
X154140533Y-111071777D01*
X154144187Y-111066850D01*
X154148306Y-111062306D01*
X154152850Y-111058187D01*
X154157777Y-111054533D01*
X154163038Y-111051380D01*
X154168582Y-111048758D01*
X154174357Y-111046691D01*
X154180307Y-111045201D01*
X154186374Y-111044301D01*
X154192500Y-111044000D01*
X154942500Y-111044000D01*
X154948626Y-111044301D01*
X154948626Y-111044301D01*
G37*
D22*
X154567500Y-111169000D03*
G04 #@! TD*
D11*
G04 #@! TO.C,R8*
G36*
X148776958Y-108204210D02*
X148791276Y-108206334D01*
X148805317Y-108209851D01*
X148818946Y-108214728D01*
X148832031Y-108220917D01*
X148844447Y-108228358D01*
X148856073Y-108236981D01*
X148866798Y-108246702D01*
X148876519Y-108257427D01*
X148885142Y-108269053D01*
X148892583Y-108281469D01*
X148898772Y-108294554D01*
X148903649Y-108308183D01*
X148907166Y-108322224D01*
X148909290Y-108336542D01*
X148910000Y-108351000D01*
X148910000Y-108646000D01*
X148909290Y-108660458D01*
X148907166Y-108674776D01*
X148903649Y-108688817D01*
X148898772Y-108702446D01*
X148892583Y-108715531D01*
X148885142Y-108727947D01*
X148876519Y-108739573D01*
X148866798Y-108750298D01*
X148856073Y-108760019D01*
X148844447Y-108768642D01*
X148832031Y-108776083D01*
X148818946Y-108782272D01*
X148805317Y-108787149D01*
X148791276Y-108790666D01*
X148776958Y-108792790D01*
X148762500Y-108793500D01*
X148417500Y-108793500D01*
X148403042Y-108792790D01*
X148388724Y-108790666D01*
X148374683Y-108787149D01*
X148361054Y-108782272D01*
X148347969Y-108776083D01*
X148335553Y-108768642D01*
X148323927Y-108760019D01*
X148313202Y-108750298D01*
X148303481Y-108739573D01*
X148294858Y-108727947D01*
X148287417Y-108715531D01*
X148281228Y-108702446D01*
X148276351Y-108688817D01*
X148272834Y-108674776D01*
X148270710Y-108660458D01*
X148270000Y-108646000D01*
X148270000Y-108351000D01*
X148270710Y-108336542D01*
X148272834Y-108322224D01*
X148276351Y-108308183D01*
X148281228Y-108294554D01*
X148287417Y-108281469D01*
X148294858Y-108269053D01*
X148303481Y-108257427D01*
X148313202Y-108246702D01*
X148323927Y-108236981D01*
X148335553Y-108228358D01*
X148347969Y-108220917D01*
X148361054Y-108214728D01*
X148374683Y-108209851D01*
X148388724Y-108206334D01*
X148403042Y-108204210D01*
X148417500Y-108203500D01*
X148762500Y-108203500D01*
X148776958Y-108204210D01*
X148776958Y-108204210D01*
G37*
D12*
X148590000Y-108498500D03*
D11*
G36*
X148776958Y-107234210D02*
X148791276Y-107236334D01*
X148805317Y-107239851D01*
X148818946Y-107244728D01*
X148832031Y-107250917D01*
X148844447Y-107258358D01*
X148856073Y-107266981D01*
X148866798Y-107276702D01*
X148876519Y-107287427D01*
X148885142Y-107299053D01*
X148892583Y-107311469D01*
X148898772Y-107324554D01*
X148903649Y-107338183D01*
X148907166Y-107352224D01*
X148909290Y-107366542D01*
X148910000Y-107381000D01*
X148910000Y-107676000D01*
X148909290Y-107690458D01*
X148907166Y-107704776D01*
X148903649Y-107718817D01*
X148898772Y-107732446D01*
X148892583Y-107745531D01*
X148885142Y-107757947D01*
X148876519Y-107769573D01*
X148866798Y-107780298D01*
X148856073Y-107790019D01*
X148844447Y-107798642D01*
X148832031Y-107806083D01*
X148818946Y-107812272D01*
X148805317Y-107817149D01*
X148791276Y-107820666D01*
X148776958Y-107822790D01*
X148762500Y-107823500D01*
X148417500Y-107823500D01*
X148403042Y-107822790D01*
X148388724Y-107820666D01*
X148374683Y-107817149D01*
X148361054Y-107812272D01*
X148347969Y-107806083D01*
X148335553Y-107798642D01*
X148323927Y-107790019D01*
X148313202Y-107780298D01*
X148303481Y-107769573D01*
X148294858Y-107757947D01*
X148287417Y-107745531D01*
X148281228Y-107732446D01*
X148276351Y-107718817D01*
X148272834Y-107704776D01*
X148270710Y-107690458D01*
X148270000Y-107676000D01*
X148270000Y-107381000D01*
X148270710Y-107366542D01*
X148272834Y-107352224D01*
X148276351Y-107338183D01*
X148281228Y-107324554D01*
X148287417Y-107311469D01*
X148294858Y-107299053D01*
X148303481Y-107287427D01*
X148313202Y-107276702D01*
X148323927Y-107266981D01*
X148335553Y-107258358D01*
X148347969Y-107250917D01*
X148361054Y-107244728D01*
X148374683Y-107239851D01*
X148388724Y-107236334D01*
X148403042Y-107234210D01*
X148417500Y-107233500D01*
X148762500Y-107233500D01*
X148776958Y-107234210D01*
X148776958Y-107234210D01*
G37*
D12*
X148590000Y-107528500D03*
G04 #@! TD*
D11*
G04 #@! TO.C,R9*
G36*
X152205958Y-107234210D02*
X152220276Y-107236334D01*
X152234317Y-107239851D01*
X152247946Y-107244728D01*
X152261031Y-107250917D01*
X152273447Y-107258358D01*
X152285073Y-107266981D01*
X152295798Y-107276702D01*
X152305519Y-107287427D01*
X152314142Y-107299053D01*
X152321583Y-107311469D01*
X152327772Y-107324554D01*
X152332649Y-107338183D01*
X152336166Y-107352224D01*
X152338290Y-107366542D01*
X152339000Y-107381000D01*
X152339000Y-107676000D01*
X152338290Y-107690458D01*
X152336166Y-107704776D01*
X152332649Y-107718817D01*
X152327772Y-107732446D01*
X152321583Y-107745531D01*
X152314142Y-107757947D01*
X152305519Y-107769573D01*
X152295798Y-107780298D01*
X152285073Y-107790019D01*
X152273447Y-107798642D01*
X152261031Y-107806083D01*
X152247946Y-107812272D01*
X152234317Y-107817149D01*
X152220276Y-107820666D01*
X152205958Y-107822790D01*
X152191500Y-107823500D01*
X151846500Y-107823500D01*
X151832042Y-107822790D01*
X151817724Y-107820666D01*
X151803683Y-107817149D01*
X151790054Y-107812272D01*
X151776969Y-107806083D01*
X151764553Y-107798642D01*
X151752927Y-107790019D01*
X151742202Y-107780298D01*
X151732481Y-107769573D01*
X151723858Y-107757947D01*
X151716417Y-107745531D01*
X151710228Y-107732446D01*
X151705351Y-107718817D01*
X151701834Y-107704776D01*
X151699710Y-107690458D01*
X151699000Y-107676000D01*
X151699000Y-107381000D01*
X151699710Y-107366542D01*
X151701834Y-107352224D01*
X151705351Y-107338183D01*
X151710228Y-107324554D01*
X151716417Y-107311469D01*
X151723858Y-107299053D01*
X151732481Y-107287427D01*
X151742202Y-107276702D01*
X151752927Y-107266981D01*
X151764553Y-107258358D01*
X151776969Y-107250917D01*
X151790054Y-107244728D01*
X151803683Y-107239851D01*
X151817724Y-107236334D01*
X151832042Y-107234210D01*
X151846500Y-107233500D01*
X152191500Y-107233500D01*
X152205958Y-107234210D01*
X152205958Y-107234210D01*
G37*
D12*
X152019000Y-107528500D03*
D11*
G36*
X152205958Y-108204210D02*
X152220276Y-108206334D01*
X152234317Y-108209851D01*
X152247946Y-108214728D01*
X152261031Y-108220917D01*
X152273447Y-108228358D01*
X152285073Y-108236981D01*
X152295798Y-108246702D01*
X152305519Y-108257427D01*
X152314142Y-108269053D01*
X152321583Y-108281469D01*
X152327772Y-108294554D01*
X152332649Y-108308183D01*
X152336166Y-108322224D01*
X152338290Y-108336542D01*
X152339000Y-108351000D01*
X152339000Y-108646000D01*
X152338290Y-108660458D01*
X152336166Y-108674776D01*
X152332649Y-108688817D01*
X152327772Y-108702446D01*
X152321583Y-108715531D01*
X152314142Y-108727947D01*
X152305519Y-108739573D01*
X152295798Y-108750298D01*
X152285073Y-108760019D01*
X152273447Y-108768642D01*
X152261031Y-108776083D01*
X152247946Y-108782272D01*
X152234317Y-108787149D01*
X152220276Y-108790666D01*
X152205958Y-108792790D01*
X152191500Y-108793500D01*
X151846500Y-108793500D01*
X151832042Y-108792790D01*
X151817724Y-108790666D01*
X151803683Y-108787149D01*
X151790054Y-108782272D01*
X151776969Y-108776083D01*
X151764553Y-108768642D01*
X151752927Y-108760019D01*
X151742202Y-108750298D01*
X151732481Y-108739573D01*
X151723858Y-108727947D01*
X151716417Y-108715531D01*
X151710228Y-108702446D01*
X151705351Y-108688817D01*
X151701834Y-108674776D01*
X151699710Y-108660458D01*
X151699000Y-108646000D01*
X151699000Y-108351000D01*
X151699710Y-108336542D01*
X151701834Y-108322224D01*
X151705351Y-108308183D01*
X151710228Y-108294554D01*
X151716417Y-108281469D01*
X151723858Y-108269053D01*
X151732481Y-108257427D01*
X151742202Y-108246702D01*
X151752927Y-108236981D01*
X151764553Y-108228358D01*
X151776969Y-108220917D01*
X151790054Y-108214728D01*
X151803683Y-108209851D01*
X151817724Y-108206334D01*
X151832042Y-108204210D01*
X151846500Y-108203500D01*
X152191500Y-108203500D01*
X152205958Y-108204210D01*
X152205958Y-108204210D01*
G37*
D12*
X152019000Y-108498500D03*
G04 #@! TD*
D11*
G04 #@! TO.C,C17*
G36*
X155662691Y-100046553D02*
X155683926Y-100049703D01*
X155704750Y-100054919D01*
X155724962Y-100062151D01*
X155744368Y-100071330D01*
X155762781Y-100082366D01*
X155780024Y-100095154D01*
X155795930Y-100109570D01*
X155810346Y-100125476D01*
X155823134Y-100142719D01*
X155834170Y-100161132D01*
X155843349Y-100180538D01*
X155850581Y-100200750D01*
X155855797Y-100221574D01*
X155858947Y-100242809D01*
X155860000Y-100264250D01*
X155860000Y-100776750D01*
X155858947Y-100798191D01*
X155855797Y-100819426D01*
X155850581Y-100840250D01*
X155843349Y-100860462D01*
X155834170Y-100879868D01*
X155823134Y-100898281D01*
X155810346Y-100915524D01*
X155795930Y-100931430D01*
X155780024Y-100945846D01*
X155762781Y-100958634D01*
X155744368Y-100969670D01*
X155724962Y-100978849D01*
X155704750Y-100986081D01*
X155683926Y-100991297D01*
X155662691Y-100994447D01*
X155641250Y-100995500D01*
X155203750Y-100995500D01*
X155182309Y-100994447D01*
X155161074Y-100991297D01*
X155140250Y-100986081D01*
X155120038Y-100978849D01*
X155100632Y-100969670D01*
X155082219Y-100958634D01*
X155064976Y-100945846D01*
X155049070Y-100931430D01*
X155034654Y-100915524D01*
X155021866Y-100898281D01*
X155010830Y-100879868D01*
X155001651Y-100860462D01*
X154994419Y-100840250D01*
X154989203Y-100819426D01*
X154986053Y-100798191D01*
X154985000Y-100776750D01*
X154985000Y-100264250D01*
X154986053Y-100242809D01*
X154989203Y-100221574D01*
X154994419Y-100200750D01*
X155001651Y-100180538D01*
X155010830Y-100161132D01*
X155021866Y-100142719D01*
X155034654Y-100125476D01*
X155049070Y-100109570D01*
X155064976Y-100095154D01*
X155082219Y-100082366D01*
X155100632Y-100071330D01*
X155120038Y-100062151D01*
X155140250Y-100054919D01*
X155161074Y-100049703D01*
X155182309Y-100046553D01*
X155203750Y-100045500D01*
X155641250Y-100045500D01*
X155662691Y-100046553D01*
X155662691Y-100046553D01*
G37*
D23*
X155422500Y-100520500D03*
D11*
G36*
X157237691Y-100046553D02*
X157258926Y-100049703D01*
X157279750Y-100054919D01*
X157299962Y-100062151D01*
X157319368Y-100071330D01*
X157337781Y-100082366D01*
X157355024Y-100095154D01*
X157370930Y-100109570D01*
X157385346Y-100125476D01*
X157398134Y-100142719D01*
X157409170Y-100161132D01*
X157418349Y-100180538D01*
X157425581Y-100200750D01*
X157430797Y-100221574D01*
X157433947Y-100242809D01*
X157435000Y-100264250D01*
X157435000Y-100776750D01*
X157433947Y-100798191D01*
X157430797Y-100819426D01*
X157425581Y-100840250D01*
X157418349Y-100860462D01*
X157409170Y-100879868D01*
X157398134Y-100898281D01*
X157385346Y-100915524D01*
X157370930Y-100931430D01*
X157355024Y-100945846D01*
X157337781Y-100958634D01*
X157319368Y-100969670D01*
X157299962Y-100978849D01*
X157279750Y-100986081D01*
X157258926Y-100991297D01*
X157237691Y-100994447D01*
X157216250Y-100995500D01*
X156778750Y-100995500D01*
X156757309Y-100994447D01*
X156736074Y-100991297D01*
X156715250Y-100986081D01*
X156695038Y-100978849D01*
X156675632Y-100969670D01*
X156657219Y-100958634D01*
X156639976Y-100945846D01*
X156624070Y-100931430D01*
X156609654Y-100915524D01*
X156596866Y-100898281D01*
X156585830Y-100879868D01*
X156576651Y-100860462D01*
X156569419Y-100840250D01*
X156564203Y-100819426D01*
X156561053Y-100798191D01*
X156560000Y-100776750D01*
X156560000Y-100264250D01*
X156561053Y-100242809D01*
X156564203Y-100221574D01*
X156569419Y-100200750D01*
X156576651Y-100180538D01*
X156585830Y-100161132D01*
X156596866Y-100142719D01*
X156609654Y-100125476D01*
X156624070Y-100109570D01*
X156639976Y-100095154D01*
X156657219Y-100082366D01*
X156675632Y-100071330D01*
X156695038Y-100062151D01*
X156715250Y-100054919D01*
X156736074Y-100049703D01*
X156757309Y-100046553D01*
X156778750Y-100045500D01*
X157216250Y-100045500D01*
X157237691Y-100046553D01*
X157237691Y-100046553D01*
G37*
D23*
X156997500Y-100520500D03*
G04 #@! TD*
M02*
