M48
;DRILL file {KiCad 5.0.1-33cea8e~68~ubuntu18.04.1} date za 10 nov 2018 13:26:28 CET
;FORMAT={-:-/ absolute / inch / decimal}
FMAT,2
INCH,TZ
T1C0.0079
T2C0.0177
T3C0.0394
%
G90
G05
M72
T1
X5.675Y-4.4
X5.6964Y-5.1264
X5.7Y-4.395
X5.72Y-4.415
X5.72Y-4.415
X5.735Y-5.11
X5.7367Y-4.4317
X5.755Y-4.235
X5.7557Y-4.825
X5.7591Y-4.8759
X5.76Y-4.3944
X5.76Y-4.45
X5.76Y-4.635
X5.765Y-4.8
X5.78Y-4.4657
X5.78Y-4.5875
X5.785Y-4.88
X5.79Y-4.625
X5.82Y-4.13
X5.82Y-4.765
X5.83Y-4.865
X5.83Y-4.92
X5.86Y-4.9059
X5.8636Y-4.9314
X5.87Y-5.0133
X5.875Y-4.665
X5.9004Y-4.0996
X5.905Y-4.2725
X5.92Y-4.325
X5.93Y-4.665
X5.935Y-4.945
X5.935Y-4.975
X5.945Y-4.01
X5.95Y-4.485
X5.95Y-4.485
X5.95Y-4.82
X5.95Y-5.125
X5.955Y-4.79
X5.96Y-4.95
X5.965Y-5.005
X5.965Y-5.065
X5.975Y-4.01
X5.98Y-4.3
X6.Y-4.65
X6.01Y-4.47
X6.02Y-4.525
X6.04Y-4.78
X6.05Y-4.9321
X6.055Y-4.7
X6.0721Y-4.6628
X6.075Y-4.855
X6.085Y-4.215
X6.1Y-4.12
X6.1153Y-4.3978
X6.1175Y-4.3
X6.1396Y-4.4038
X6.1543Y-4.935
X6.1604Y-4.3846
X6.1887Y-4.0937
X6.195Y-4.14
T3
X5.6502Y-3.8504
X5.6502Y-3.9504
X5.6502Y-4.0504
X5.6502Y-4.1504
X5.6502Y-4.2504
X5.6502Y-4.3504
X5.6502Y-4.4504
X5.6502Y-4.5504
X5.6502Y-4.6504
X5.6502Y-4.7504
X5.6502Y-4.8504
X5.6502Y-4.9504
X5.6502Y-5.0504
X5.6502Y-5.1504
X6.2502Y-3.8504
X6.2502Y-3.9504
X6.2502Y-4.0504
X6.2502Y-4.1504
X6.2502Y-4.2504
X6.2502Y-4.3504
X6.2502Y-4.4504
X6.2502Y-4.5504
X6.2502Y-4.6504
X6.2502Y-4.7504
X6.2502Y-4.8504
X6.2502Y-4.9504
X6.2502Y-5.0504
X6.2502Y-5.1504
T2
X5.81Y-3.8714G85X5.81Y-3.8399
G05
X6.0915Y-3.8399G85X6.0915Y-3.8714
G05
T0
M30
