G04 #@! TF.GenerationSoftware,KiCad,Pcbnew,5.0.1-33cea8e~68~ubuntu18.04.1*
G04 #@! TF.CreationDate,2018-11-09T20:27:09+01:00*
G04 #@! TF.ProjectId,Tiny-up5k,54696E792D7570356B2E6B696361645F,rev?*
G04 #@! TF.SameCoordinates,Original*
G04 #@! TF.FileFunction,Other,Fab,Bot*
%FSLAX46Y46*%
G04 Gerber Fmt 4.6, Leading zero omitted, Abs format (unit mm)*
G04 Created by KiCad (PCBNEW 5.0.1-33cea8e~68~ubuntu18.04.1) date vr 09 nov 2018 20:27:09 CET*
%MOMM*%
%LPD*%
G01*
G04 APERTURE LIST*
%ADD10C,0.100000*%
%ADD11C,0.150000*%
%ADD12C,0.040000*%
G04 APERTURE END LIST*
D10*
G04 #@! TO.C,J5*
X153685000Y-125095000D02*
X148605000Y-125095000D01*
X149555000Y-132715000D02*
X153685000Y-132715000D01*
X148605000Y-125095000D02*
X148605000Y-131765000D01*
X148605000Y-131765000D02*
X149555000Y-132715000D01*
X153685000Y-132715000D02*
X153685000Y-125095000D01*
X148605000Y-131765000D02*
X147545000Y-131765000D01*
X147545000Y-131765000D02*
X147545000Y-131125000D01*
X147545000Y-131125000D02*
X148605000Y-131125000D01*
X153685000Y-131765000D02*
X154745000Y-131765000D01*
X154745000Y-131765000D02*
X154745000Y-131125000D01*
X154745000Y-131125000D02*
X153685000Y-131125000D01*
X148605000Y-129225000D02*
X147545000Y-129225000D01*
X147545000Y-129225000D02*
X147545000Y-128585000D01*
X147545000Y-128585000D02*
X148605000Y-128585000D01*
X153685000Y-129225000D02*
X154745000Y-129225000D01*
X154745000Y-129225000D02*
X154745000Y-128585000D01*
X154745000Y-128585000D02*
X153685000Y-128585000D01*
X148605000Y-126685000D02*
X147545000Y-126685000D01*
X147545000Y-126685000D02*
X147545000Y-126045000D01*
X147545000Y-126045000D02*
X148605000Y-126045000D01*
X153685000Y-126685000D02*
X154745000Y-126685000D01*
X154745000Y-126685000D02*
X154745000Y-126045000D01*
X154745000Y-126045000D02*
X153685000Y-126045000D01*
G04 #@! TO.C,C12*
X147843000Y-112018000D02*
X146843000Y-112018000D01*
X147843000Y-112518000D02*
X147843000Y-112018000D01*
X146843000Y-112518000D02*
X147843000Y-112518000D01*
X146843000Y-112018000D02*
X146843000Y-112518000D01*
G04 #@! TO.C,C1*
X155436000Y-103673100D02*
X155436000Y-104173100D01*
X155436000Y-104173100D02*
X156436000Y-104173100D01*
X156436000Y-104173100D02*
X156436000Y-103673100D01*
X156436000Y-103673100D02*
X155436000Y-103673100D01*
G04 #@! TO.C,C2*
X156436000Y-107273100D02*
X155436000Y-107273100D01*
X156436000Y-107773100D02*
X156436000Y-107273100D01*
X155436000Y-107773100D02*
X156436000Y-107773100D01*
X155436000Y-107273100D02*
X155436000Y-107773100D01*
G04 #@! TO.C,C3*
X150995000Y-109470000D02*
X150995000Y-108970000D01*
X150995000Y-108970000D02*
X149995000Y-108970000D01*
X149995000Y-108970000D02*
X149995000Y-109470000D01*
X149995000Y-109470000D02*
X150995000Y-109470000D01*
G04 #@! TO.C,C4*
X156436000Y-106073100D02*
X155436000Y-106073100D01*
X156436000Y-106573100D02*
X156436000Y-106073100D01*
X155436000Y-106573100D02*
X156436000Y-106573100D01*
X155436000Y-106073100D02*
X155436000Y-106573100D01*
G04 #@! TO.C,C5*
X154336000Y-121027000D02*
X155336000Y-121027000D01*
X154336000Y-120527000D02*
X154336000Y-121027000D01*
X155336000Y-120527000D02*
X154336000Y-120527000D01*
X155336000Y-121027000D02*
X155336000Y-120527000D01*
G04 #@! TO.C,C6*
X149094000Y-119261000D02*
X148594000Y-119261000D01*
X148594000Y-119261000D02*
X148594000Y-120261000D01*
X148594000Y-120261000D02*
X149094000Y-120261000D01*
X149094000Y-120261000D02*
X149094000Y-119261000D01*
G04 #@! TO.C,C8*
X147051000Y-117225000D02*
X147051000Y-117725000D01*
X147051000Y-117725000D02*
X148051000Y-117725000D01*
X148051000Y-117725000D02*
X148051000Y-117225000D01*
X148051000Y-117225000D02*
X147051000Y-117225000D01*
G04 #@! TO.C,C9*
X152904000Y-119499000D02*
X152904000Y-118499000D01*
X152404000Y-119499000D02*
X152904000Y-119499000D01*
X152404000Y-118499000D02*
X152404000Y-119499000D01*
X152904000Y-118499000D02*
X152404000Y-118499000D01*
G04 #@! TO.C,C10*
X146035000Y-108835000D02*
X147035000Y-108835000D01*
X146035000Y-108335000D02*
X146035000Y-108835000D01*
X147035000Y-108335000D02*
X146035000Y-108335000D01*
X147035000Y-108835000D02*
X147035000Y-108335000D01*
G04 #@! TO.C,C11*
X147035000Y-110613000D02*
X147035000Y-110113000D01*
X147035000Y-110113000D02*
X146035000Y-110113000D01*
X146035000Y-110113000D02*
X146035000Y-110613000D01*
X146035000Y-110613000D02*
X147035000Y-110613000D01*
G04 #@! TO.C,C13*
X151634000Y-118476000D02*
X151134000Y-118476000D01*
X151134000Y-118476000D02*
X151134000Y-119476000D01*
X151134000Y-119476000D02*
X151634000Y-119476000D01*
X151634000Y-119476000D02*
X151634000Y-118476000D01*
G04 #@! TO.C,C14*
X151145000Y-120400000D02*
X150145000Y-120400000D01*
X151145000Y-120900000D02*
X151145000Y-120400000D01*
X150145000Y-120900000D02*
X151145000Y-120900000D01*
X150145000Y-120400000D02*
X150145000Y-120900000D01*
G04 #@! TO.C,R1*
X150110000Y-103306500D02*
X150110000Y-102306500D01*
X149610000Y-103306500D02*
X150110000Y-103306500D01*
X149610000Y-102306500D02*
X149610000Y-103306500D01*
X150110000Y-102306500D02*
X149610000Y-102306500D01*
G04 #@! TO.C,R2*
X150753000Y-102312000D02*
X150753000Y-103312000D01*
X151253000Y-102312000D02*
X150753000Y-102312000D01*
X151253000Y-103312000D02*
X151253000Y-102312000D01*
X150753000Y-103312000D02*
X151253000Y-103312000D01*
G04 #@! TO.C,R3*
X151832500Y-102312000D02*
X151832500Y-103312000D01*
X152332500Y-102312000D02*
X151832500Y-102312000D01*
X152332500Y-103312000D02*
X152332500Y-102312000D01*
X151832500Y-103312000D02*
X152332500Y-103312000D01*
G04 #@! TO.C,R4*
X149737000Y-119303000D02*
X150237000Y-119303000D01*
X150237000Y-119303000D02*
X150237000Y-118303000D01*
X150237000Y-118303000D02*
X149737000Y-118303000D01*
X149737000Y-118303000D02*
X149737000Y-119303000D01*
G04 #@! TO.C,R5*
X147185000Y-125091000D02*
X147185000Y-124591000D01*
X147185000Y-124591000D02*
X146185000Y-124591000D01*
X146185000Y-124591000D02*
X146185000Y-125091000D01*
X146185000Y-125091000D02*
X147185000Y-125091000D01*
G04 #@! TO.C,R6*
X154382000Y-124456000D02*
X155382000Y-124456000D01*
X154382000Y-123956000D02*
X154382000Y-124456000D01*
X155382000Y-123956000D02*
X154382000Y-123956000D01*
X155382000Y-124456000D02*
X155382000Y-123956000D01*
G04 #@! TO.C,R7*
X148205000Y-121743000D02*
X147705000Y-121743000D01*
X147705000Y-121743000D02*
X147705000Y-122743000D01*
X147705000Y-122743000D02*
X148205000Y-122743000D01*
X148205000Y-122743000D02*
X148205000Y-121743000D01*
G04 #@! TO.C,R10*
X155382000Y-122805000D02*
X155382000Y-122305000D01*
X155382000Y-122305000D02*
X154382000Y-122305000D01*
X154382000Y-122305000D02*
X154382000Y-122805000D01*
X154382000Y-122805000D02*
X155382000Y-122805000D01*
G04 #@! TD*
G04 #@! TO.C,J5*
D11*
X152621190Y-124487380D02*
X152621190Y-123487380D01*
X152240238Y-123487380D01*
X152145000Y-123535000D01*
X152097380Y-123582619D01*
X152049761Y-123677857D01*
X152049761Y-123820714D01*
X152097380Y-123915952D01*
X152145000Y-123963571D01*
X152240238Y-124011190D01*
X152621190Y-124011190D01*
X151621190Y-124487380D02*
X151621190Y-123820714D01*
X151621190Y-124011190D02*
X151573571Y-123915952D01*
X151525952Y-123868333D01*
X151430714Y-123820714D01*
X151335476Y-123820714D01*
X150859285Y-124487380D02*
X150954523Y-124439761D01*
X151002142Y-124392142D01*
X151049761Y-124296904D01*
X151049761Y-124011190D01*
X151002142Y-123915952D01*
X150954523Y-123868333D01*
X150859285Y-123820714D01*
X150716428Y-123820714D01*
X150621190Y-123868333D01*
X150573571Y-123915952D01*
X150525952Y-124011190D01*
X150525952Y-124296904D01*
X150573571Y-124392142D01*
X150621190Y-124439761D01*
X150716428Y-124487380D01*
X150859285Y-124487380D01*
X149668809Y-123820714D02*
X149668809Y-124630238D01*
X149716428Y-124725476D01*
X149764047Y-124773095D01*
X149859285Y-124820714D01*
X150002142Y-124820714D01*
X150097380Y-124773095D01*
X149668809Y-124439761D02*
X149764047Y-124487380D01*
X149954523Y-124487380D01*
X150049761Y-124439761D01*
X150097380Y-124392142D01*
X150145000Y-124296904D01*
X150145000Y-124011190D01*
X150097380Y-123915952D01*
X150049761Y-123868333D01*
X149954523Y-123820714D01*
X149764047Y-123820714D01*
X149668809Y-123868333D01*
X150597380Y-128571666D02*
X151311666Y-128571666D01*
X151454523Y-128524047D01*
X151549761Y-128428809D01*
X151597380Y-128285952D01*
X151597380Y-128190714D01*
X150597380Y-129524047D02*
X150597380Y-129047857D01*
X151073571Y-129000238D01*
X151025952Y-129047857D01*
X150978333Y-129143095D01*
X150978333Y-129381190D01*
X151025952Y-129476428D01*
X151073571Y-129524047D01*
X151168809Y-129571666D01*
X151406904Y-129571666D01*
X151502142Y-129524047D01*
X151549761Y-129476428D01*
X151597380Y-129381190D01*
X151597380Y-129143095D01*
X151549761Y-129047857D01*
X151502142Y-129000238D01*
G04 #@! TO.C,C12*
X148414428Y-111550380D02*
X148985857Y-111550380D01*
X148700142Y-111550380D02*
X148700142Y-110550380D01*
X148795380Y-110693238D01*
X148890619Y-110788476D01*
X148985857Y-110836095D01*
X147795380Y-110550380D02*
X147700142Y-110550380D01*
X147604904Y-110598000D01*
X147557285Y-110645619D01*
X147509666Y-110740857D01*
X147462047Y-110931333D01*
X147462047Y-111169428D01*
X147509666Y-111359904D01*
X147557285Y-111455142D01*
X147604904Y-111502761D01*
X147700142Y-111550380D01*
X147795380Y-111550380D01*
X147890619Y-111502761D01*
X147938238Y-111455142D01*
X147985857Y-111359904D01*
X148033476Y-111169428D01*
X148033476Y-110931333D01*
X147985857Y-110740857D01*
X147938238Y-110645619D01*
X147890619Y-110598000D01*
X147795380Y-110550380D01*
X147033476Y-110883714D02*
X147033476Y-111550380D01*
X147033476Y-110978952D02*
X146985857Y-110931333D01*
X146890619Y-110883714D01*
X146747761Y-110883714D01*
X146652523Y-110931333D01*
X146604904Y-111026571D01*
X146604904Y-111550380D01*
X145795380Y-111026571D02*
X146128714Y-111026571D01*
X146128714Y-111550380D02*
X146128714Y-110550380D01*
X145652523Y-110550380D01*
D12*
X147503714Y-112357285D02*
X147515619Y-112369190D01*
X147551333Y-112381095D01*
X147575142Y-112381095D01*
X147610857Y-112369190D01*
X147634666Y-112345380D01*
X147646571Y-112321571D01*
X147658476Y-112273952D01*
X147658476Y-112238238D01*
X147646571Y-112190619D01*
X147634666Y-112166809D01*
X147610857Y-112143000D01*
X147575142Y-112131095D01*
X147551333Y-112131095D01*
X147515619Y-112143000D01*
X147503714Y-112154904D01*
X147265619Y-112381095D02*
X147408476Y-112381095D01*
X147337047Y-112381095D02*
X147337047Y-112131095D01*
X147360857Y-112166809D01*
X147384666Y-112190619D01*
X147408476Y-112202523D01*
X147170380Y-112154904D02*
X147158476Y-112143000D01*
X147134666Y-112131095D01*
X147075142Y-112131095D01*
X147051333Y-112143000D01*
X147039428Y-112154904D01*
X147027523Y-112178714D01*
X147027523Y-112202523D01*
X147039428Y-112238238D01*
X147182285Y-112381095D01*
X147027523Y-112381095D01*
G04 #@! TO.C,C1*
D11*
X156531238Y-103205480D02*
X157102666Y-103205480D01*
X156816952Y-103205480D02*
X156816952Y-102205480D01*
X156912190Y-102348338D01*
X157007428Y-102443576D01*
X157102666Y-102491195D01*
X155674095Y-102538814D02*
X155674095Y-103205480D01*
X156102666Y-102538814D02*
X156102666Y-103062623D01*
X156055047Y-103157861D01*
X155959809Y-103205480D01*
X155816952Y-103205480D01*
X155721714Y-103157861D01*
X155674095Y-103110242D01*
X154864571Y-102681671D02*
X155197904Y-102681671D01*
X155197904Y-103205480D02*
X155197904Y-102205480D01*
X154721714Y-102205480D01*
D12*
X155977666Y-104012385D02*
X155989571Y-104024290D01*
X156025285Y-104036195D01*
X156049095Y-104036195D01*
X156084809Y-104024290D01*
X156108619Y-104000480D01*
X156120523Y-103976671D01*
X156132428Y-103929052D01*
X156132428Y-103893338D01*
X156120523Y-103845719D01*
X156108619Y-103821909D01*
X156084809Y-103798100D01*
X156049095Y-103786195D01*
X156025285Y-103786195D01*
X155989571Y-103798100D01*
X155977666Y-103810004D01*
X155739571Y-104036195D02*
X155882428Y-104036195D01*
X155811000Y-104036195D02*
X155811000Y-103786195D01*
X155834809Y-103821909D01*
X155858619Y-103845719D01*
X155882428Y-103857623D01*
G04 #@! TO.C,C2*
D11*
X156531238Y-106805480D02*
X157102666Y-106805480D01*
X156816952Y-106805480D02*
X156816952Y-105805480D01*
X156912190Y-105948338D01*
X157007428Y-106043576D01*
X157102666Y-106091195D01*
X155674095Y-106138814D02*
X155674095Y-106805480D01*
X156102666Y-106138814D02*
X156102666Y-106662623D01*
X156055047Y-106757861D01*
X155959809Y-106805480D01*
X155816952Y-106805480D01*
X155721714Y-106757861D01*
X155674095Y-106710242D01*
X154864571Y-106281671D02*
X155197904Y-106281671D01*
X155197904Y-106805480D02*
X155197904Y-105805480D01*
X154721714Y-105805480D01*
D12*
X155977666Y-107612385D02*
X155989571Y-107624290D01*
X156025285Y-107636195D01*
X156049095Y-107636195D01*
X156084809Y-107624290D01*
X156108619Y-107600480D01*
X156120523Y-107576671D01*
X156132428Y-107529052D01*
X156132428Y-107493338D01*
X156120523Y-107445719D01*
X156108619Y-107421909D01*
X156084809Y-107398100D01*
X156049095Y-107386195D01*
X156025285Y-107386195D01*
X155989571Y-107398100D01*
X155977666Y-107410004D01*
X155882428Y-107410004D02*
X155870523Y-107398100D01*
X155846714Y-107386195D01*
X155787190Y-107386195D01*
X155763380Y-107398100D01*
X155751476Y-107410004D01*
X155739571Y-107433814D01*
X155739571Y-107457623D01*
X155751476Y-107493338D01*
X155894333Y-107636195D01*
X155739571Y-107636195D01*
G04 #@! TO.C,C3*
D11*
X151090238Y-110815380D02*
X151661666Y-110815380D01*
X151375952Y-110815380D02*
X151375952Y-109815380D01*
X151471190Y-109958238D01*
X151566428Y-110053476D01*
X151661666Y-110101095D01*
X150233095Y-110148714D02*
X150233095Y-110815380D01*
X150661666Y-110148714D02*
X150661666Y-110672523D01*
X150614047Y-110767761D01*
X150518809Y-110815380D01*
X150375952Y-110815380D01*
X150280714Y-110767761D01*
X150233095Y-110720142D01*
X149423571Y-110291571D02*
X149756904Y-110291571D01*
X149756904Y-110815380D02*
X149756904Y-109815380D01*
X149280714Y-109815380D01*
D12*
X150536666Y-109309285D02*
X150548571Y-109321190D01*
X150584285Y-109333095D01*
X150608095Y-109333095D01*
X150643809Y-109321190D01*
X150667619Y-109297380D01*
X150679523Y-109273571D01*
X150691428Y-109225952D01*
X150691428Y-109190238D01*
X150679523Y-109142619D01*
X150667619Y-109118809D01*
X150643809Y-109095000D01*
X150608095Y-109083095D01*
X150584285Y-109083095D01*
X150548571Y-109095000D01*
X150536666Y-109106904D01*
X150453333Y-109083095D02*
X150298571Y-109083095D01*
X150381904Y-109178333D01*
X150346190Y-109178333D01*
X150322380Y-109190238D01*
X150310476Y-109202142D01*
X150298571Y-109225952D01*
X150298571Y-109285476D01*
X150310476Y-109309285D01*
X150322380Y-109321190D01*
X150346190Y-109333095D01*
X150417619Y-109333095D01*
X150441428Y-109321190D01*
X150453333Y-109309285D01*
G04 #@! TO.C,C4*
D11*
X156531238Y-105605480D02*
X157102666Y-105605480D01*
X156816952Y-105605480D02*
X156816952Y-104605480D01*
X156912190Y-104748338D01*
X157007428Y-104843576D01*
X157102666Y-104891195D01*
X155674095Y-104938814D02*
X155674095Y-105605480D01*
X156102666Y-104938814D02*
X156102666Y-105462623D01*
X156055047Y-105557861D01*
X155959809Y-105605480D01*
X155816952Y-105605480D01*
X155721714Y-105557861D01*
X155674095Y-105510242D01*
X154864571Y-105081671D02*
X155197904Y-105081671D01*
X155197904Y-105605480D02*
X155197904Y-104605480D01*
X154721714Y-104605480D01*
D12*
X155977666Y-106412385D02*
X155989571Y-106424290D01*
X156025285Y-106436195D01*
X156049095Y-106436195D01*
X156084809Y-106424290D01*
X156108619Y-106400480D01*
X156120523Y-106376671D01*
X156132428Y-106329052D01*
X156132428Y-106293338D01*
X156120523Y-106245719D01*
X156108619Y-106221909D01*
X156084809Y-106198100D01*
X156049095Y-106186195D01*
X156025285Y-106186195D01*
X155989571Y-106198100D01*
X155977666Y-106210004D01*
X155763380Y-106269528D02*
X155763380Y-106436195D01*
X155822904Y-106174290D02*
X155882428Y-106352861D01*
X155727666Y-106352861D01*
G04 #@! TO.C,C5*
D11*
X156383619Y-122399380D02*
X156955047Y-122399380D01*
X156669333Y-122399380D02*
X156669333Y-121399380D01*
X156764571Y-121542238D01*
X156859809Y-121637476D01*
X156955047Y-121685095D01*
X155764571Y-121399380D02*
X155669333Y-121399380D01*
X155574095Y-121447000D01*
X155526476Y-121494619D01*
X155478857Y-121589857D01*
X155431238Y-121780333D01*
X155431238Y-122018428D01*
X155478857Y-122208904D01*
X155526476Y-122304142D01*
X155574095Y-122351761D01*
X155669333Y-122399380D01*
X155764571Y-122399380D01*
X155859809Y-122351761D01*
X155907428Y-122304142D01*
X155955047Y-122208904D01*
X156002666Y-122018428D01*
X156002666Y-121780333D01*
X155955047Y-121589857D01*
X155907428Y-121494619D01*
X155859809Y-121447000D01*
X155764571Y-121399380D01*
X154812190Y-121399380D02*
X154716952Y-121399380D01*
X154621714Y-121447000D01*
X154574095Y-121494619D01*
X154526476Y-121589857D01*
X154478857Y-121780333D01*
X154478857Y-122018428D01*
X154526476Y-122208904D01*
X154574095Y-122304142D01*
X154621714Y-122351761D01*
X154716952Y-122399380D01*
X154812190Y-122399380D01*
X154907428Y-122351761D01*
X154955047Y-122304142D01*
X155002666Y-122208904D01*
X155050285Y-122018428D01*
X155050285Y-121780333D01*
X155002666Y-121589857D01*
X154955047Y-121494619D01*
X154907428Y-121447000D01*
X154812190Y-121399380D01*
X154050285Y-121732714D02*
X154050285Y-122399380D01*
X154050285Y-121827952D02*
X154002666Y-121780333D01*
X153907428Y-121732714D01*
X153764571Y-121732714D01*
X153669333Y-121780333D01*
X153621714Y-121875571D01*
X153621714Y-122399380D01*
X152812190Y-121875571D02*
X153145523Y-121875571D01*
X153145523Y-122399380D02*
X153145523Y-121399380D01*
X152669333Y-121399380D01*
D12*
X154877666Y-120866285D02*
X154889571Y-120878190D01*
X154925285Y-120890095D01*
X154949095Y-120890095D01*
X154984809Y-120878190D01*
X155008619Y-120854380D01*
X155020523Y-120830571D01*
X155032428Y-120782952D01*
X155032428Y-120747238D01*
X155020523Y-120699619D01*
X155008619Y-120675809D01*
X154984809Y-120652000D01*
X154949095Y-120640095D01*
X154925285Y-120640095D01*
X154889571Y-120652000D01*
X154877666Y-120663904D01*
X154651476Y-120640095D02*
X154770523Y-120640095D01*
X154782428Y-120759142D01*
X154770523Y-120747238D01*
X154746714Y-120735333D01*
X154687190Y-120735333D01*
X154663380Y-120747238D01*
X154651476Y-120759142D01*
X154639571Y-120782952D01*
X154639571Y-120842476D01*
X154651476Y-120866285D01*
X154663380Y-120878190D01*
X154687190Y-120890095D01*
X154746714Y-120890095D01*
X154770523Y-120878190D01*
X154782428Y-120866285D01*
G04 #@! TO.C,C6*
D11*
X150466380Y-118689571D02*
X150466380Y-118118142D01*
X150466380Y-118403857D02*
X149466380Y-118403857D01*
X149609238Y-118308619D01*
X149704476Y-118213380D01*
X149752095Y-118118142D01*
X149466380Y-119308619D02*
X149466380Y-119403857D01*
X149514000Y-119499095D01*
X149561619Y-119546714D01*
X149656857Y-119594333D01*
X149847333Y-119641952D01*
X150085428Y-119641952D01*
X150275904Y-119594333D01*
X150371142Y-119546714D01*
X150418761Y-119499095D01*
X150466380Y-119403857D01*
X150466380Y-119308619D01*
X150418761Y-119213380D01*
X150371142Y-119165761D01*
X150275904Y-119118142D01*
X150085428Y-119070523D01*
X149847333Y-119070523D01*
X149656857Y-119118142D01*
X149561619Y-119165761D01*
X149514000Y-119213380D01*
X149466380Y-119308619D01*
X149799714Y-120070523D02*
X150466380Y-120070523D01*
X149894952Y-120070523D02*
X149847333Y-120118142D01*
X149799714Y-120213380D01*
X149799714Y-120356238D01*
X149847333Y-120451476D01*
X149942571Y-120499095D01*
X150466380Y-120499095D01*
X149942571Y-121308619D02*
X149942571Y-120975285D01*
X150466380Y-120975285D02*
X149466380Y-120975285D01*
X149466380Y-121451476D01*
D12*
X148933285Y-119719333D02*
X148945190Y-119707428D01*
X148957095Y-119671714D01*
X148957095Y-119647904D01*
X148945190Y-119612190D01*
X148921380Y-119588380D01*
X148897571Y-119576476D01*
X148849952Y-119564571D01*
X148814238Y-119564571D01*
X148766619Y-119576476D01*
X148742809Y-119588380D01*
X148719000Y-119612190D01*
X148707095Y-119647904D01*
X148707095Y-119671714D01*
X148719000Y-119707428D01*
X148730904Y-119719333D01*
X148707095Y-119933619D02*
X148707095Y-119886000D01*
X148719000Y-119862190D01*
X148730904Y-119850285D01*
X148766619Y-119826476D01*
X148814238Y-119814571D01*
X148909476Y-119814571D01*
X148933285Y-119826476D01*
X148945190Y-119838380D01*
X148957095Y-119862190D01*
X148957095Y-119909809D01*
X148945190Y-119933619D01*
X148933285Y-119945523D01*
X148909476Y-119957428D01*
X148849952Y-119957428D01*
X148826142Y-119945523D01*
X148814238Y-119933619D01*
X148802333Y-119909809D01*
X148802333Y-119862190D01*
X148814238Y-119838380D01*
X148826142Y-119826476D01*
X148849952Y-119814571D01*
G04 #@! TO.C,C8*
D11*
X149098619Y-116757380D02*
X149670047Y-116757380D01*
X149384333Y-116757380D02*
X149384333Y-115757380D01*
X149479571Y-115900238D01*
X149574809Y-115995476D01*
X149670047Y-116043095D01*
X148479571Y-115757380D02*
X148384333Y-115757380D01*
X148289095Y-115805000D01*
X148241476Y-115852619D01*
X148193857Y-115947857D01*
X148146238Y-116138333D01*
X148146238Y-116376428D01*
X148193857Y-116566904D01*
X148241476Y-116662142D01*
X148289095Y-116709761D01*
X148384333Y-116757380D01*
X148479571Y-116757380D01*
X148574809Y-116709761D01*
X148622428Y-116662142D01*
X148670047Y-116566904D01*
X148717666Y-116376428D01*
X148717666Y-116138333D01*
X148670047Y-115947857D01*
X148622428Y-115852619D01*
X148574809Y-115805000D01*
X148479571Y-115757380D01*
X147527190Y-115757380D02*
X147431952Y-115757380D01*
X147336714Y-115805000D01*
X147289095Y-115852619D01*
X147241476Y-115947857D01*
X147193857Y-116138333D01*
X147193857Y-116376428D01*
X147241476Y-116566904D01*
X147289095Y-116662142D01*
X147336714Y-116709761D01*
X147431952Y-116757380D01*
X147527190Y-116757380D01*
X147622428Y-116709761D01*
X147670047Y-116662142D01*
X147717666Y-116566904D01*
X147765285Y-116376428D01*
X147765285Y-116138333D01*
X147717666Y-115947857D01*
X147670047Y-115852619D01*
X147622428Y-115805000D01*
X147527190Y-115757380D01*
X146765285Y-116090714D02*
X146765285Y-116757380D01*
X146765285Y-116185952D02*
X146717666Y-116138333D01*
X146622428Y-116090714D01*
X146479571Y-116090714D01*
X146384333Y-116138333D01*
X146336714Y-116233571D01*
X146336714Y-116757380D01*
X145527190Y-116233571D02*
X145860523Y-116233571D01*
X145860523Y-116757380D02*
X145860523Y-115757380D01*
X145384333Y-115757380D01*
D12*
X147592666Y-117564285D02*
X147604571Y-117576190D01*
X147640285Y-117588095D01*
X147664095Y-117588095D01*
X147699809Y-117576190D01*
X147723619Y-117552380D01*
X147735523Y-117528571D01*
X147747428Y-117480952D01*
X147747428Y-117445238D01*
X147735523Y-117397619D01*
X147723619Y-117373809D01*
X147699809Y-117350000D01*
X147664095Y-117338095D01*
X147640285Y-117338095D01*
X147604571Y-117350000D01*
X147592666Y-117361904D01*
X147449809Y-117445238D02*
X147473619Y-117433333D01*
X147485523Y-117421428D01*
X147497428Y-117397619D01*
X147497428Y-117385714D01*
X147485523Y-117361904D01*
X147473619Y-117350000D01*
X147449809Y-117338095D01*
X147402190Y-117338095D01*
X147378380Y-117350000D01*
X147366476Y-117361904D01*
X147354571Y-117385714D01*
X147354571Y-117397619D01*
X147366476Y-117421428D01*
X147378380Y-117433333D01*
X147402190Y-117445238D01*
X147449809Y-117445238D01*
X147473619Y-117457142D01*
X147485523Y-117469047D01*
X147497428Y-117492857D01*
X147497428Y-117540476D01*
X147485523Y-117564285D01*
X147473619Y-117576190D01*
X147449809Y-117588095D01*
X147402190Y-117588095D01*
X147378380Y-117576190D01*
X147366476Y-117564285D01*
X147354571Y-117540476D01*
X147354571Y-117492857D01*
X147366476Y-117469047D01*
X147378380Y-117457142D01*
X147402190Y-117445238D01*
G04 #@! TO.C,C9*
D11*
X154276380Y-117451380D02*
X154276380Y-116879952D01*
X154276380Y-117165666D02*
X153276380Y-117165666D01*
X153419238Y-117070428D01*
X153514476Y-116975190D01*
X153562095Y-116879952D01*
X153276380Y-118070428D02*
X153276380Y-118165666D01*
X153324000Y-118260904D01*
X153371619Y-118308523D01*
X153466857Y-118356142D01*
X153657333Y-118403761D01*
X153895428Y-118403761D01*
X154085904Y-118356142D01*
X154181142Y-118308523D01*
X154228761Y-118260904D01*
X154276380Y-118165666D01*
X154276380Y-118070428D01*
X154228761Y-117975190D01*
X154181142Y-117927571D01*
X154085904Y-117879952D01*
X153895428Y-117832333D01*
X153657333Y-117832333D01*
X153466857Y-117879952D01*
X153371619Y-117927571D01*
X153324000Y-117975190D01*
X153276380Y-118070428D01*
X153276380Y-119022809D02*
X153276380Y-119118047D01*
X153324000Y-119213285D01*
X153371619Y-119260904D01*
X153466857Y-119308523D01*
X153657333Y-119356142D01*
X153895428Y-119356142D01*
X154085904Y-119308523D01*
X154181142Y-119260904D01*
X154228761Y-119213285D01*
X154276380Y-119118047D01*
X154276380Y-119022809D01*
X154228761Y-118927571D01*
X154181142Y-118879952D01*
X154085904Y-118832333D01*
X153895428Y-118784714D01*
X153657333Y-118784714D01*
X153466857Y-118832333D01*
X153371619Y-118879952D01*
X153324000Y-118927571D01*
X153276380Y-119022809D01*
X153609714Y-119784714D02*
X154276380Y-119784714D01*
X153704952Y-119784714D02*
X153657333Y-119832333D01*
X153609714Y-119927571D01*
X153609714Y-120070428D01*
X153657333Y-120165666D01*
X153752571Y-120213285D01*
X154276380Y-120213285D01*
X153752571Y-121022809D02*
X153752571Y-120689476D01*
X154276380Y-120689476D02*
X153276380Y-120689476D01*
X153276380Y-121165666D01*
D12*
X152743285Y-118957333D02*
X152755190Y-118945428D01*
X152767095Y-118909714D01*
X152767095Y-118885904D01*
X152755190Y-118850190D01*
X152731380Y-118826380D01*
X152707571Y-118814476D01*
X152659952Y-118802571D01*
X152624238Y-118802571D01*
X152576619Y-118814476D01*
X152552809Y-118826380D01*
X152529000Y-118850190D01*
X152517095Y-118885904D01*
X152517095Y-118909714D01*
X152529000Y-118945428D01*
X152540904Y-118957333D01*
X152767095Y-119076380D02*
X152767095Y-119124000D01*
X152755190Y-119147809D01*
X152743285Y-119159714D01*
X152707571Y-119183523D01*
X152659952Y-119195428D01*
X152564714Y-119195428D01*
X152540904Y-119183523D01*
X152529000Y-119171619D01*
X152517095Y-119147809D01*
X152517095Y-119100190D01*
X152529000Y-119076380D01*
X152540904Y-119064476D01*
X152564714Y-119052571D01*
X152624238Y-119052571D01*
X152648047Y-119064476D01*
X152659952Y-119076380D01*
X152671857Y-119100190D01*
X152671857Y-119147809D01*
X152659952Y-119171619D01*
X152648047Y-119183523D01*
X152624238Y-119195428D01*
G04 #@! TO.C,C10*
D11*
X148105619Y-107957880D02*
X148677047Y-107957880D01*
X148391333Y-107957880D02*
X148391333Y-106957880D01*
X148486571Y-107100738D01*
X148581809Y-107195976D01*
X148677047Y-107243595D01*
X147486571Y-106957880D02*
X147391333Y-106957880D01*
X147296095Y-107005500D01*
X147248476Y-107053119D01*
X147200857Y-107148357D01*
X147153238Y-107338833D01*
X147153238Y-107576928D01*
X147200857Y-107767404D01*
X147248476Y-107862642D01*
X147296095Y-107910261D01*
X147391333Y-107957880D01*
X147486571Y-107957880D01*
X147581809Y-107910261D01*
X147629428Y-107862642D01*
X147677047Y-107767404D01*
X147724666Y-107576928D01*
X147724666Y-107338833D01*
X147677047Y-107148357D01*
X147629428Y-107053119D01*
X147581809Y-107005500D01*
X147486571Y-106957880D01*
X146534190Y-106957880D02*
X146438952Y-106957880D01*
X146343714Y-107005500D01*
X146296095Y-107053119D01*
X146248476Y-107148357D01*
X146200857Y-107338833D01*
X146200857Y-107576928D01*
X146248476Y-107767404D01*
X146296095Y-107862642D01*
X146343714Y-107910261D01*
X146438952Y-107957880D01*
X146534190Y-107957880D01*
X146629428Y-107910261D01*
X146677047Y-107862642D01*
X146724666Y-107767404D01*
X146772285Y-107576928D01*
X146772285Y-107338833D01*
X146724666Y-107148357D01*
X146677047Y-107053119D01*
X146629428Y-107005500D01*
X146534190Y-106957880D01*
X145772285Y-107291214D02*
X145772285Y-107957880D01*
X145772285Y-107386452D02*
X145724666Y-107338833D01*
X145629428Y-107291214D01*
X145486571Y-107291214D01*
X145391333Y-107338833D01*
X145343714Y-107434071D01*
X145343714Y-107957880D01*
X144534190Y-107434071D02*
X144867523Y-107434071D01*
X144867523Y-107957880D02*
X144867523Y-106957880D01*
X144391333Y-106957880D01*
D12*
X146695714Y-108674285D02*
X146707619Y-108686190D01*
X146743333Y-108698095D01*
X146767142Y-108698095D01*
X146802857Y-108686190D01*
X146826666Y-108662380D01*
X146838571Y-108638571D01*
X146850476Y-108590952D01*
X146850476Y-108555238D01*
X146838571Y-108507619D01*
X146826666Y-108483809D01*
X146802857Y-108460000D01*
X146767142Y-108448095D01*
X146743333Y-108448095D01*
X146707619Y-108460000D01*
X146695714Y-108471904D01*
X146457619Y-108698095D02*
X146600476Y-108698095D01*
X146529047Y-108698095D02*
X146529047Y-108448095D01*
X146552857Y-108483809D01*
X146576666Y-108507619D01*
X146600476Y-108519523D01*
X146302857Y-108448095D02*
X146279047Y-108448095D01*
X146255238Y-108460000D01*
X146243333Y-108471904D01*
X146231428Y-108495714D01*
X146219523Y-108543333D01*
X146219523Y-108602857D01*
X146231428Y-108650476D01*
X146243333Y-108674285D01*
X146255238Y-108686190D01*
X146279047Y-108698095D01*
X146302857Y-108698095D01*
X146326666Y-108686190D01*
X146338571Y-108674285D01*
X146350476Y-108650476D01*
X146362380Y-108602857D01*
X146362380Y-108543333D01*
X146350476Y-108495714D01*
X146338571Y-108471904D01*
X146326666Y-108460000D01*
X146302857Y-108448095D01*
G04 #@! TO.C,C11*
D11*
X148082619Y-111985380D02*
X148654047Y-111985380D01*
X148368333Y-111985380D02*
X148368333Y-110985380D01*
X148463571Y-111128238D01*
X148558809Y-111223476D01*
X148654047Y-111271095D01*
X147463571Y-110985380D02*
X147368333Y-110985380D01*
X147273095Y-111033000D01*
X147225476Y-111080619D01*
X147177857Y-111175857D01*
X147130238Y-111366333D01*
X147130238Y-111604428D01*
X147177857Y-111794904D01*
X147225476Y-111890142D01*
X147273095Y-111937761D01*
X147368333Y-111985380D01*
X147463571Y-111985380D01*
X147558809Y-111937761D01*
X147606428Y-111890142D01*
X147654047Y-111794904D01*
X147701666Y-111604428D01*
X147701666Y-111366333D01*
X147654047Y-111175857D01*
X147606428Y-111080619D01*
X147558809Y-111033000D01*
X147463571Y-110985380D01*
X146511190Y-110985380D02*
X146415952Y-110985380D01*
X146320714Y-111033000D01*
X146273095Y-111080619D01*
X146225476Y-111175857D01*
X146177857Y-111366333D01*
X146177857Y-111604428D01*
X146225476Y-111794904D01*
X146273095Y-111890142D01*
X146320714Y-111937761D01*
X146415952Y-111985380D01*
X146511190Y-111985380D01*
X146606428Y-111937761D01*
X146654047Y-111890142D01*
X146701666Y-111794904D01*
X146749285Y-111604428D01*
X146749285Y-111366333D01*
X146701666Y-111175857D01*
X146654047Y-111080619D01*
X146606428Y-111033000D01*
X146511190Y-110985380D01*
X145749285Y-111318714D02*
X145749285Y-111985380D01*
X145749285Y-111413952D02*
X145701666Y-111366333D01*
X145606428Y-111318714D01*
X145463571Y-111318714D01*
X145368333Y-111366333D01*
X145320714Y-111461571D01*
X145320714Y-111985380D01*
X144511190Y-111461571D02*
X144844523Y-111461571D01*
X144844523Y-111985380D02*
X144844523Y-110985380D01*
X144368333Y-110985380D01*
D12*
X146695714Y-110452285D02*
X146707619Y-110464190D01*
X146743333Y-110476095D01*
X146767142Y-110476095D01*
X146802857Y-110464190D01*
X146826666Y-110440380D01*
X146838571Y-110416571D01*
X146850476Y-110368952D01*
X146850476Y-110333238D01*
X146838571Y-110285619D01*
X146826666Y-110261809D01*
X146802857Y-110238000D01*
X146767142Y-110226095D01*
X146743333Y-110226095D01*
X146707619Y-110238000D01*
X146695714Y-110249904D01*
X146457619Y-110476095D02*
X146600476Y-110476095D01*
X146529047Y-110476095D02*
X146529047Y-110226095D01*
X146552857Y-110261809D01*
X146576666Y-110285619D01*
X146600476Y-110297523D01*
X146219523Y-110476095D02*
X146362380Y-110476095D01*
X146290952Y-110476095D02*
X146290952Y-110226095D01*
X146314761Y-110261809D01*
X146338571Y-110285619D01*
X146362380Y-110297523D01*
G04 #@! TO.C,C13*
D11*
X153006380Y-117904571D02*
X153006380Y-117333142D01*
X153006380Y-117618857D02*
X152006380Y-117618857D01*
X152149238Y-117523619D01*
X152244476Y-117428380D01*
X152292095Y-117333142D01*
X152006380Y-118523619D02*
X152006380Y-118618857D01*
X152054000Y-118714095D01*
X152101619Y-118761714D01*
X152196857Y-118809333D01*
X152387333Y-118856952D01*
X152625428Y-118856952D01*
X152815904Y-118809333D01*
X152911142Y-118761714D01*
X152958761Y-118714095D01*
X153006380Y-118618857D01*
X153006380Y-118523619D01*
X152958761Y-118428380D01*
X152911142Y-118380761D01*
X152815904Y-118333142D01*
X152625428Y-118285523D01*
X152387333Y-118285523D01*
X152196857Y-118333142D01*
X152101619Y-118380761D01*
X152054000Y-118428380D01*
X152006380Y-118523619D01*
X152339714Y-119285523D02*
X153006380Y-119285523D01*
X152434952Y-119285523D02*
X152387333Y-119333142D01*
X152339714Y-119428380D01*
X152339714Y-119571238D01*
X152387333Y-119666476D01*
X152482571Y-119714095D01*
X153006380Y-119714095D01*
X152482571Y-120523619D02*
X152482571Y-120190285D01*
X153006380Y-120190285D02*
X152006380Y-120190285D01*
X152006380Y-120666476D01*
D12*
X151473285Y-118815285D02*
X151485190Y-118803380D01*
X151497095Y-118767666D01*
X151497095Y-118743857D01*
X151485190Y-118708142D01*
X151461380Y-118684333D01*
X151437571Y-118672428D01*
X151389952Y-118660523D01*
X151354238Y-118660523D01*
X151306619Y-118672428D01*
X151282809Y-118684333D01*
X151259000Y-118708142D01*
X151247095Y-118743857D01*
X151247095Y-118767666D01*
X151259000Y-118803380D01*
X151270904Y-118815285D01*
X151497095Y-119053380D02*
X151497095Y-118910523D01*
X151497095Y-118981952D02*
X151247095Y-118981952D01*
X151282809Y-118958142D01*
X151306619Y-118934333D01*
X151318523Y-118910523D01*
X151247095Y-119136714D02*
X151247095Y-119291476D01*
X151342333Y-119208142D01*
X151342333Y-119243857D01*
X151354238Y-119267666D01*
X151366142Y-119279571D01*
X151389952Y-119291476D01*
X151449476Y-119291476D01*
X151473285Y-119279571D01*
X151485190Y-119267666D01*
X151497095Y-119243857D01*
X151497095Y-119172428D01*
X151485190Y-119148619D01*
X151473285Y-119136714D01*
G04 #@! TO.C,C14*
D11*
X151716428Y-119932380D02*
X152287857Y-119932380D01*
X152002142Y-119932380D02*
X152002142Y-118932380D01*
X152097380Y-119075238D01*
X152192619Y-119170476D01*
X152287857Y-119218095D01*
X151097380Y-118932380D02*
X151002142Y-118932380D01*
X150906904Y-118980000D01*
X150859285Y-119027619D01*
X150811666Y-119122857D01*
X150764047Y-119313333D01*
X150764047Y-119551428D01*
X150811666Y-119741904D01*
X150859285Y-119837142D01*
X150906904Y-119884761D01*
X151002142Y-119932380D01*
X151097380Y-119932380D01*
X151192619Y-119884761D01*
X151240238Y-119837142D01*
X151287857Y-119741904D01*
X151335476Y-119551428D01*
X151335476Y-119313333D01*
X151287857Y-119122857D01*
X151240238Y-119027619D01*
X151192619Y-118980000D01*
X151097380Y-118932380D01*
X150335476Y-119265714D02*
X150335476Y-119932380D01*
X150335476Y-119360952D02*
X150287857Y-119313333D01*
X150192619Y-119265714D01*
X150049761Y-119265714D01*
X149954523Y-119313333D01*
X149906904Y-119408571D01*
X149906904Y-119932380D01*
X149097380Y-119408571D02*
X149430714Y-119408571D01*
X149430714Y-119932380D02*
X149430714Y-118932380D01*
X148954523Y-118932380D01*
D12*
X150805714Y-120739285D02*
X150817619Y-120751190D01*
X150853333Y-120763095D01*
X150877142Y-120763095D01*
X150912857Y-120751190D01*
X150936666Y-120727380D01*
X150948571Y-120703571D01*
X150960476Y-120655952D01*
X150960476Y-120620238D01*
X150948571Y-120572619D01*
X150936666Y-120548809D01*
X150912857Y-120525000D01*
X150877142Y-120513095D01*
X150853333Y-120513095D01*
X150817619Y-120525000D01*
X150805714Y-120536904D01*
X150567619Y-120763095D02*
X150710476Y-120763095D01*
X150639047Y-120763095D02*
X150639047Y-120513095D01*
X150662857Y-120548809D01*
X150686666Y-120572619D01*
X150710476Y-120584523D01*
X150353333Y-120596428D02*
X150353333Y-120763095D01*
X150412857Y-120501190D02*
X150472380Y-120679761D01*
X150317619Y-120679761D01*
G04 #@! TO.C,R1*
D11*
X151482380Y-101973166D02*
X151482380Y-101401738D01*
X151482380Y-101687452D02*
X150482380Y-101687452D01*
X150625238Y-101592214D01*
X150720476Y-101496976D01*
X150768095Y-101401738D01*
X151387142Y-102401738D02*
X151434761Y-102449357D01*
X151482380Y-102401738D01*
X151434761Y-102354119D01*
X151387142Y-102401738D01*
X151482380Y-102401738D01*
X150482380Y-103354119D02*
X150482380Y-102877928D01*
X150958571Y-102830309D01*
X150910952Y-102877928D01*
X150863333Y-102973166D01*
X150863333Y-103211261D01*
X150910952Y-103306500D01*
X150958571Y-103354119D01*
X151053809Y-103401738D01*
X151291904Y-103401738D01*
X151387142Y-103354119D01*
X151434761Y-103306500D01*
X151482380Y-103211261D01*
X151482380Y-102973166D01*
X151434761Y-102877928D01*
X151387142Y-102830309D01*
X151482380Y-103830309D02*
X150482380Y-103830309D01*
X151101428Y-103925547D02*
X151482380Y-104211261D01*
X150815714Y-104211261D02*
X151196666Y-103830309D01*
D12*
X149973095Y-102764833D02*
X149854047Y-102681500D01*
X149973095Y-102621976D02*
X149723095Y-102621976D01*
X149723095Y-102717214D01*
X149735000Y-102741023D01*
X149746904Y-102752928D01*
X149770714Y-102764833D01*
X149806428Y-102764833D01*
X149830238Y-102752928D01*
X149842142Y-102741023D01*
X149854047Y-102717214D01*
X149854047Y-102621976D01*
X149973095Y-103002928D02*
X149973095Y-102860071D01*
X149973095Y-102931500D02*
X149723095Y-102931500D01*
X149758809Y-102907690D01*
X149782619Y-102883880D01*
X149794523Y-102860071D01*
G04 #@! TO.C,R2*
D11*
X149285380Y-102526285D02*
X149285380Y-102335809D01*
X149333000Y-102240571D01*
X149380619Y-102192952D01*
X149523476Y-102097714D01*
X149713952Y-102050095D01*
X150094904Y-102050095D01*
X150190142Y-102097714D01*
X150237761Y-102145333D01*
X150285380Y-102240571D01*
X150285380Y-102431047D01*
X150237761Y-102526285D01*
X150190142Y-102573904D01*
X150094904Y-102621523D01*
X149856809Y-102621523D01*
X149761571Y-102573904D01*
X149713952Y-102526285D01*
X149666333Y-102431047D01*
X149666333Y-102240571D01*
X149713952Y-102145333D01*
X149761571Y-102097714D01*
X149856809Y-102050095D01*
X149713952Y-103192952D02*
X149666333Y-103097714D01*
X149618714Y-103050095D01*
X149523476Y-103002476D01*
X149475857Y-103002476D01*
X149380619Y-103050095D01*
X149333000Y-103097714D01*
X149285380Y-103192952D01*
X149285380Y-103383428D01*
X149333000Y-103478666D01*
X149380619Y-103526285D01*
X149475857Y-103573904D01*
X149523476Y-103573904D01*
X149618714Y-103526285D01*
X149666333Y-103478666D01*
X149713952Y-103383428D01*
X149713952Y-103192952D01*
X149761571Y-103097714D01*
X149809190Y-103050095D01*
X149904428Y-103002476D01*
X150094904Y-103002476D01*
X150190142Y-103050095D01*
X150237761Y-103097714D01*
X150285380Y-103192952D01*
X150285380Y-103383428D01*
X150237761Y-103478666D01*
X150190142Y-103526285D01*
X150094904Y-103573904D01*
X149904428Y-103573904D01*
X149809190Y-103526285D01*
X149761571Y-103478666D01*
X149713952Y-103383428D01*
D12*
X151116095Y-102770333D02*
X150997047Y-102687000D01*
X151116095Y-102627476D02*
X150866095Y-102627476D01*
X150866095Y-102722714D01*
X150878000Y-102746523D01*
X150889904Y-102758428D01*
X150913714Y-102770333D01*
X150949428Y-102770333D01*
X150973238Y-102758428D01*
X150985142Y-102746523D01*
X150997047Y-102722714D01*
X150997047Y-102627476D01*
X150889904Y-102865571D02*
X150878000Y-102877476D01*
X150866095Y-102901285D01*
X150866095Y-102960809D01*
X150878000Y-102984619D01*
X150889904Y-102996523D01*
X150913714Y-103008428D01*
X150937523Y-103008428D01*
X150973238Y-102996523D01*
X151116095Y-102853666D01*
X151116095Y-103008428D01*
G04 #@! TO.C,R3*
D11*
X150364880Y-102526285D02*
X150364880Y-102335809D01*
X150412500Y-102240571D01*
X150460119Y-102192952D01*
X150602976Y-102097714D01*
X150793452Y-102050095D01*
X151174404Y-102050095D01*
X151269642Y-102097714D01*
X151317261Y-102145333D01*
X151364880Y-102240571D01*
X151364880Y-102431047D01*
X151317261Y-102526285D01*
X151269642Y-102573904D01*
X151174404Y-102621523D01*
X150936309Y-102621523D01*
X150841071Y-102573904D01*
X150793452Y-102526285D01*
X150745833Y-102431047D01*
X150745833Y-102240571D01*
X150793452Y-102145333D01*
X150841071Y-102097714D01*
X150936309Y-102050095D01*
X150793452Y-103192952D02*
X150745833Y-103097714D01*
X150698214Y-103050095D01*
X150602976Y-103002476D01*
X150555357Y-103002476D01*
X150460119Y-103050095D01*
X150412500Y-103097714D01*
X150364880Y-103192952D01*
X150364880Y-103383428D01*
X150412500Y-103478666D01*
X150460119Y-103526285D01*
X150555357Y-103573904D01*
X150602976Y-103573904D01*
X150698214Y-103526285D01*
X150745833Y-103478666D01*
X150793452Y-103383428D01*
X150793452Y-103192952D01*
X150841071Y-103097714D01*
X150888690Y-103050095D01*
X150983928Y-103002476D01*
X151174404Y-103002476D01*
X151269642Y-103050095D01*
X151317261Y-103097714D01*
X151364880Y-103192952D01*
X151364880Y-103383428D01*
X151317261Y-103478666D01*
X151269642Y-103526285D01*
X151174404Y-103573904D01*
X150983928Y-103573904D01*
X150888690Y-103526285D01*
X150841071Y-103478666D01*
X150793452Y-103383428D01*
D12*
X152195595Y-102770333D02*
X152076547Y-102687000D01*
X152195595Y-102627476D02*
X151945595Y-102627476D01*
X151945595Y-102722714D01*
X151957500Y-102746523D01*
X151969404Y-102758428D01*
X151993214Y-102770333D01*
X152028928Y-102770333D01*
X152052738Y-102758428D01*
X152064642Y-102746523D01*
X152076547Y-102722714D01*
X152076547Y-102627476D01*
X151945595Y-102853666D02*
X151945595Y-103008428D01*
X152040833Y-102925095D01*
X152040833Y-102960809D01*
X152052738Y-102984619D01*
X152064642Y-102996523D01*
X152088452Y-103008428D01*
X152147976Y-103008428D01*
X152171785Y-102996523D01*
X152183690Y-102984619D01*
X152195595Y-102960809D01*
X152195595Y-102889380D01*
X152183690Y-102865571D01*
X152171785Y-102853666D01*
G04 #@! TO.C,R4*
D11*
X149269380Y-118136333D02*
X149269380Y-117564904D01*
X149269380Y-117850619D02*
X148269380Y-117850619D01*
X148412238Y-117755380D01*
X148507476Y-117660142D01*
X148555095Y-117564904D01*
X148269380Y-118755380D02*
X148269380Y-118850619D01*
X148317000Y-118945857D01*
X148364619Y-118993476D01*
X148459857Y-119041095D01*
X148650333Y-119088714D01*
X148888428Y-119088714D01*
X149078904Y-119041095D01*
X149174142Y-118993476D01*
X149221761Y-118945857D01*
X149269380Y-118850619D01*
X149269380Y-118755380D01*
X149221761Y-118660142D01*
X149174142Y-118612523D01*
X149078904Y-118564904D01*
X148888428Y-118517285D01*
X148650333Y-118517285D01*
X148459857Y-118564904D01*
X148364619Y-118612523D01*
X148317000Y-118660142D01*
X148269380Y-118755380D01*
X148269380Y-119707761D02*
X148269380Y-119803000D01*
X148317000Y-119898238D01*
X148364619Y-119945857D01*
X148459857Y-119993476D01*
X148650333Y-120041095D01*
X148888428Y-120041095D01*
X149078904Y-119993476D01*
X149174142Y-119945857D01*
X149221761Y-119898238D01*
X149269380Y-119803000D01*
X149269380Y-119707761D01*
X149221761Y-119612523D01*
X149174142Y-119564904D01*
X149078904Y-119517285D01*
X148888428Y-119469666D01*
X148650333Y-119469666D01*
X148459857Y-119517285D01*
X148364619Y-119564904D01*
X148317000Y-119612523D01*
X148269380Y-119707761D01*
D12*
X150100095Y-118761333D02*
X149981047Y-118678000D01*
X150100095Y-118618476D02*
X149850095Y-118618476D01*
X149850095Y-118713714D01*
X149862000Y-118737523D01*
X149873904Y-118749428D01*
X149897714Y-118761333D01*
X149933428Y-118761333D01*
X149957238Y-118749428D01*
X149969142Y-118737523D01*
X149981047Y-118713714D01*
X149981047Y-118618476D01*
X149933428Y-118975619D02*
X150100095Y-118975619D01*
X149838190Y-118916095D02*
X150016761Y-118856571D01*
X150016761Y-119011333D01*
G04 #@! TO.C,R5*
D11*
X147280238Y-126463380D02*
X147851666Y-126463380D01*
X147565952Y-126463380D02*
X147565952Y-125463380D01*
X147661190Y-125606238D01*
X147756428Y-125701476D01*
X147851666Y-125749095D01*
X146661190Y-125463380D02*
X146565952Y-125463380D01*
X146470714Y-125511000D01*
X146423095Y-125558619D01*
X146375476Y-125653857D01*
X146327857Y-125844333D01*
X146327857Y-126082428D01*
X146375476Y-126272904D01*
X146423095Y-126368142D01*
X146470714Y-126415761D01*
X146565952Y-126463380D01*
X146661190Y-126463380D01*
X146756428Y-126415761D01*
X146804047Y-126368142D01*
X146851666Y-126272904D01*
X146899285Y-126082428D01*
X146899285Y-125844333D01*
X146851666Y-125653857D01*
X146804047Y-125558619D01*
X146756428Y-125511000D01*
X146661190Y-125463380D01*
X145899285Y-126463380D02*
X145899285Y-125463380D01*
X145804047Y-126082428D02*
X145518333Y-126463380D01*
X145518333Y-125796714D02*
X145899285Y-126177666D01*
D12*
X146726666Y-124954095D02*
X146810000Y-124835047D01*
X146869523Y-124954095D02*
X146869523Y-124704095D01*
X146774285Y-124704095D01*
X146750476Y-124716000D01*
X146738571Y-124727904D01*
X146726666Y-124751714D01*
X146726666Y-124787428D01*
X146738571Y-124811238D01*
X146750476Y-124823142D01*
X146774285Y-124835047D01*
X146869523Y-124835047D01*
X146500476Y-124704095D02*
X146619523Y-124704095D01*
X146631428Y-124823142D01*
X146619523Y-124811238D01*
X146595714Y-124799333D01*
X146536190Y-124799333D01*
X146512380Y-124811238D01*
X146500476Y-124823142D01*
X146488571Y-124846952D01*
X146488571Y-124906476D01*
X146500476Y-124930285D01*
X146512380Y-124942190D01*
X146536190Y-124954095D01*
X146595714Y-124954095D01*
X146619523Y-124942190D01*
X146631428Y-124930285D01*
G04 #@! TO.C,R6*
D11*
X155477238Y-125828380D02*
X156048666Y-125828380D01*
X155762952Y-125828380D02*
X155762952Y-124828380D01*
X155858190Y-124971238D01*
X155953428Y-125066476D01*
X156048666Y-125114095D01*
X154858190Y-124828380D02*
X154762952Y-124828380D01*
X154667714Y-124876000D01*
X154620095Y-124923619D01*
X154572476Y-125018857D01*
X154524857Y-125209333D01*
X154524857Y-125447428D01*
X154572476Y-125637904D01*
X154620095Y-125733142D01*
X154667714Y-125780761D01*
X154762952Y-125828380D01*
X154858190Y-125828380D01*
X154953428Y-125780761D01*
X155001047Y-125733142D01*
X155048666Y-125637904D01*
X155096285Y-125447428D01*
X155096285Y-125209333D01*
X155048666Y-125018857D01*
X155001047Y-124923619D01*
X154953428Y-124876000D01*
X154858190Y-124828380D01*
X154096285Y-125828380D02*
X154096285Y-124828380D01*
X154001047Y-125447428D02*
X153715333Y-125828380D01*
X153715333Y-125161714D02*
X154096285Y-125542666D01*
D12*
X154923666Y-124319095D02*
X155007000Y-124200047D01*
X155066523Y-124319095D02*
X155066523Y-124069095D01*
X154971285Y-124069095D01*
X154947476Y-124081000D01*
X154935571Y-124092904D01*
X154923666Y-124116714D01*
X154923666Y-124152428D01*
X154935571Y-124176238D01*
X154947476Y-124188142D01*
X154971285Y-124200047D01*
X155066523Y-124200047D01*
X154709380Y-124069095D02*
X154757000Y-124069095D01*
X154780809Y-124081000D01*
X154792714Y-124092904D01*
X154816523Y-124128619D01*
X154828428Y-124176238D01*
X154828428Y-124271476D01*
X154816523Y-124295285D01*
X154804619Y-124307190D01*
X154780809Y-124319095D01*
X154733190Y-124319095D01*
X154709380Y-124307190D01*
X154697476Y-124295285D01*
X154685571Y-124271476D01*
X154685571Y-124211952D01*
X154697476Y-124188142D01*
X154709380Y-124176238D01*
X154733190Y-124164333D01*
X154780809Y-124164333D01*
X154804619Y-124176238D01*
X154816523Y-124188142D01*
X154828428Y-124211952D01*
G04 #@! TO.C,R7*
D11*
X149577380Y-121647761D02*
X149577380Y-121076333D01*
X149577380Y-121362047D02*
X148577380Y-121362047D01*
X148720238Y-121266809D01*
X148815476Y-121171571D01*
X148863095Y-121076333D01*
X148577380Y-122266809D02*
X148577380Y-122362047D01*
X148625000Y-122457285D01*
X148672619Y-122504904D01*
X148767857Y-122552523D01*
X148958333Y-122600142D01*
X149196428Y-122600142D01*
X149386904Y-122552523D01*
X149482142Y-122504904D01*
X149529761Y-122457285D01*
X149577380Y-122362047D01*
X149577380Y-122266809D01*
X149529761Y-122171571D01*
X149482142Y-122123952D01*
X149386904Y-122076333D01*
X149196428Y-122028714D01*
X148958333Y-122028714D01*
X148767857Y-122076333D01*
X148672619Y-122123952D01*
X148625000Y-122171571D01*
X148577380Y-122266809D01*
X149577380Y-123028714D02*
X148577380Y-123028714D01*
X149196428Y-123123952D02*
X149577380Y-123409666D01*
X148910714Y-123409666D02*
X149291666Y-123028714D01*
D12*
X148068095Y-122201333D02*
X147949047Y-122118000D01*
X148068095Y-122058476D02*
X147818095Y-122058476D01*
X147818095Y-122153714D01*
X147830000Y-122177523D01*
X147841904Y-122189428D01*
X147865714Y-122201333D01*
X147901428Y-122201333D01*
X147925238Y-122189428D01*
X147937142Y-122177523D01*
X147949047Y-122153714D01*
X147949047Y-122058476D01*
X147818095Y-122284666D02*
X147818095Y-122451333D01*
X148068095Y-122344190D01*
G04 #@! TO.C,R10*
D11*
X155477238Y-124177380D02*
X156048666Y-124177380D01*
X155762952Y-124177380D02*
X155762952Y-123177380D01*
X155858190Y-123320238D01*
X155953428Y-123415476D01*
X156048666Y-123463095D01*
X154858190Y-123177380D02*
X154762952Y-123177380D01*
X154667714Y-123225000D01*
X154620095Y-123272619D01*
X154572476Y-123367857D01*
X154524857Y-123558333D01*
X154524857Y-123796428D01*
X154572476Y-123986904D01*
X154620095Y-124082142D01*
X154667714Y-124129761D01*
X154762952Y-124177380D01*
X154858190Y-124177380D01*
X154953428Y-124129761D01*
X155001047Y-124082142D01*
X155048666Y-123986904D01*
X155096285Y-123796428D01*
X155096285Y-123558333D01*
X155048666Y-123367857D01*
X155001047Y-123272619D01*
X154953428Y-123225000D01*
X154858190Y-123177380D01*
X154096285Y-124177380D02*
X154096285Y-123177380D01*
X154001047Y-123796428D02*
X153715333Y-124177380D01*
X153715333Y-123510714D02*
X154096285Y-123891666D01*
D12*
X155042714Y-122668095D02*
X155126047Y-122549047D01*
X155185571Y-122668095D02*
X155185571Y-122418095D01*
X155090333Y-122418095D01*
X155066523Y-122430000D01*
X155054619Y-122441904D01*
X155042714Y-122465714D01*
X155042714Y-122501428D01*
X155054619Y-122525238D01*
X155066523Y-122537142D01*
X155090333Y-122549047D01*
X155185571Y-122549047D01*
X154804619Y-122668095D02*
X154947476Y-122668095D01*
X154876047Y-122668095D02*
X154876047Y-122418095D01*
X154899857Y-122453809D01*
X154923666Y-122477619D01*
X154947476Y-122489523D01*
X154649857Y-122418095D02*
X154626047Y-122418095D01*
X154602238Y-122430000D01*
X154590333Y-122441904D01*
X154578428Y-122465714D01*
X154566523Y-122513333D01*
X154566523Y-122572857D01*
X154578428Y-122620476D01*
X154590333Y-122644285D01*
X154602238Y-122656190D01*
X154626047Y-122668095D01*
X154649857Y-122668095D01*
X154673666Y-122656190D01*
X154685571Y-122644285D01*
X154697476Y-122620476D01*
X154709380Y-122572857D01*
X154709380Y-122513333D01*
X154697476Y-122465714D01*
X154685571Y-122441904D01*
X154673666Y-122430000D01*
X154649857Y-122418095D01*
G04 #@! TD*
M02*
