G04 #@! TF.GenerationSoftware,KiCad,Pcbnew,5.0.1-33cea8e~68~ubuntu18.04.1*
G04 #@! TF.CreationDate,2018-11-10T13:26:22+01:00*
G04 #@! TF.ProjectId,Tiny-up5k,54696E792D7570356B2E6B696361645F,rev?*
G04 #@! TF.SameCoordinates,Original*
G04 #@! TF.FileFunction,Other,Fab,Bot*
%FSLAX46Y46*%
G04 Gerber Fmt 4.6, Leading zero omitted, Abs format (unit mm)*
G04 Created by KiCad (PCBNEW 5.0.1-33cea8e~68~ubuntu18.04.1) date za 10 nov 2018 13:26:22 CET*
%MOMM*%
%LPD*%
G01*
G04 APERTURE LIST*
%ADD10C,0.100000*%
%ADD11C,0.150000*%
%ADD12C,0.040000*%
G04 APERTURE END LIST*
D10*
G04 #@! TO.C,C12*
X147843000Y-112018000D02*
X146843000Y-112018000D01*
X147843000Y-112518000D02*
X147843000Y-112018000D01*
X146843000Y-112518000D02*
X147843000Y-112518000D01*
X146843000Y-112018000D02*
X146843000Y-112518000D01*
G04 #@! TO.C,C1*
X155436000Y-103673100D02*
X155436000Y-104173100D01*
X155436000Y-104173100D02*
X156436000Y-104173100D01*
X156436000Y-104173100D02*
X156436000Y-103673100D01*
X156436000Y-103673100D02*
X155436000Y-103673100D01*
G04 #@! TO.C,C2*
X156436000Y-107273100D02*
X155436000Y-107273100D01*
X156436000Y-107773100D02*
X156436000Y-107273100D01*
X155436000Y-107773100D02*
X156436000Y-107773100D01*
X155436000Y-107273100D02*
X155436000Y-107773100D01*
G04 #@! TO.C,C3*
X150995000Y-109470000D02*
X150995000Y-108970000D01*
X150995000Y-108970000D02*
X149995000Y-108970000D01*
X149995000Y-108970000D02*
X149995000Y-109470000D01*
X149995000Y-109470000D02*
X150995000Y-109470000D01*
G04 #@! TO.C,C4*
X156436000Y-106073100D02*
X155436000Y-106073100D01*
X156436000Y-106573100D02*
X156436000Y-106073100D01*
X155436000Y-106573100D02*
X156436000Y-106573100D01*
X155436000Y-106073100D02*
X155436000Y-106573100D01*
G04 #@! TO.C,C5*
X154336000Y-121027000D02*
X155336000Y-121027000D01*
X154336000Y-120527000D02*
X154336000Y-121027000D01*
X155336000Y-120527000D02*
X154336000Y-120527000D01*
X155336000Y-121027000D02*
X155336000Y-120527000D01*
G04 #@! TO.C,C6*
X149094000Y-119261000D02*
X148594000Y-119261000D01*
X148594000Y-119261000D02*
X148594000Y-120261000D01*
X148594000Y-120261000D02*
X149094000Y-120261000D01*
X149094000Y-120261000D02*
X149094000Y-119261000D01*
G04 #@! TO.C,C8*
X147051000Y-117225000D02*
X147051000Y-117725000D01*
X147051000Y-117725000D02*
X148051000Y-117725000D01*
X148051000Y-117725000D02*
X148051000Y-117225000D01*
X148051000Y-117225000D02*
X147051000Y-117225000D01*
G04 #@! TO.C,C9*
X152904000Y-119499000D02*
X152904000Y-118499000D01*
X152404000Y-119499000D02*
X152904000Y-119499000D01*
X152404000Y-118499000D02*
X152404000Y-119499000D01*
X152904000Y-118499000D02*
X152404000Y-118499000D01*
G04 #@! TO.C,C10*
X146035000Y-108835000D02*
X147035000Y-108835000D01*
X146035000Y-108335000D02*
X146035000Y-108835000D01*
X147035000Y-108335000D02*
X146035000Y-108335000D01*
X147035000Y-108835000D02*
X147035000Y-108335000D01*
G04 #@! TO.C,C11*
X147035000Y-110613000D02*
X147035000Y-110113000D01*
X147035000Y-110113000D02*
X146035000Y-110113000D01*
X146035000Y-110113000D02*
X146035000Y-110613000D01*
X146035000Y-110613000D02*
X147035000Y-110613000D01*
G04 #@! TO.C,C13*
X151634000Y-118476000D02*
X151134000Y-118476000D01*
X151134000Y-118476000D02*
X151134000Y-119476000D01*
X151134000Y-119476000D02*
X151634000Y-119476000D01*
X151634000Y-119476000D02*
X151634000Y-118476000D01*
G04 #@! TO.C,C14*
X151145000Y-120400000D02*
X150145000Y-120400000D01*
X151145000Y-120900000D02*
X151145000Y-120400000D01*
X150145000Y-120900000D02*
X151145000Y-120900000D01*
X150145000Y-120400000D02*
X150145000Y-120900000D01*
G04 #@! TO.C,R1*
X150110000Y-103306500D02*
X150110000Y-102306500D01*
X149610000Y-103306500D02*
X150110000Y-103306500D01*
X149610000Y-102306500D02*
X149610000Y-103306500D01*
X150110000Y-102306500D02*
X149610000Y-102306500D01*
G04 #@! TO.C,R2*
X150753000Y-102312000D02*
X150753000Y-103312000D01*
X151253000Y-102312000D02*
X150753000Y-102312000D01*
X151253000Y-103312000D02*
X151253000Y-102312000D01*
X150753000Y-103312000D02*
X151253000Y-103312000D01*
G04 #@! TO.C,R3*
X151832500Y-102312000D02*
X151832500Y-103312000D01*
X152332500Y-102312000D02*
X151832500Y-102312000D01*
X152332500Y-103312000D02*
X152332500Y-102312000D01*
X151832500Y-103312000D02*
X152332500Y-103312000D01*
G04 #@! TO.C,R4*
X149737000Y-119303000D02*
X150237000Y-119303000D01*
X150237000Y-119303000D02*
X150237000Y-118303000D01*
X150237000Y-118303000D02*
X149737000Y-118303000D01*
X149737000Y-118303000D02*
X149737000Y-119303000D01*
G04 #@! TO.C,R5*
X147185000Y-125091000D02*
X147185000Y-124591000D01*
X147185000Y-124591000D02*
X146185000Y-124591000D01*
X146185000Y-124591000D02*
X146185000Y-125091000D01*
X146185000Y-125091000D02*
X147185000Y-125091000D01*
G04 #@! TO.C,R6*
X154382000Y-124456000D02*
X155382000Y-124456000D01*
X154382000Y-123956000D02*
X154382000Y-124456000D01*
X155382000Y-123956000D02*
X154382000Y-123956000D01*
X155382000Y-124456000D02*
X155382000Y-123956000D01*
G04 #@! TO.C,R7*
X148205000Y-121743000D02*
X147705000Y-121743000D01*
X147705000Y-121743000D02*
X147705000Y-122743000D01*
X147705000Y-122743000D02*
X148205000Y-122743000D01*
X148205000Y-122743000D02*
X148205000Y-121743000D01*
G04 #@! TO.C,R10*
X155382000Y-122805000D02*
X155382000Y-122305000D01*
X155382000Y-122305000D02*
X154382000Y-122305000D01*
X154382000Y-122305000D02*
X154382000Y-122805000D01*
X154382000Y-122805000D02*
X155382000Y-122805000D01*
G04 #@! TO.C,J5*
X153685000Y-125095000D02*
X148605000Y-125095000D01*
X149555000Y-132715000D02*
X153685000Y-132715000D01*
X148605000Y-125095000D02*
X148605000Y-131765000D01*
X148605000Y-131765000D02*
X149555000Y-132715000D01*
X153685000Y-132715000D02*
X153685000Y-125095000D01*
X148605000Y-131765000D02*
X147545000Y-131765000D01*
X147545000Y-131765000D02*
X147545000Y-131125000D01*
X147545000Y-131125000D02*
X148605000Y-131125000D01*
X153685000Y-131765000D02*
X154745000Y-131765000D01*
X154745000Y-131765000D02*
X154745000Y-131125000D01*
X154745000Y-131125000D02*
X153685000Y-131125000D01*
X148605000Y-129225000D02*
X147545000Y-129225000D01*
X147545000Y-129225000D02*
X147545000Y-128585000D01*
X147545000Y-128585000D02*
X148605000Y-128585000D01*
X153685000Y-129225000D02*
X154745000Y-129225000D01*
X154745000Y-129225000D02*
X154745000Y-128585000D01*
X154745000Y-128585000D02*
X153685000Y-128585000D01*
X148605000Y-126685000D02*
X147545000Y-126685000D01*
X147545000Y-126685000D02*
X147545000Y-126045000D01*
X147545000Y-126045000D02*
X148605000Y-126045000D01*
X153685000Y-126685000D02*
X154745000Y-126685000D01*
X154745000Y-126685000D02*
X154745000Y-126045000D01*
X154745000Y-126045000D02*
X153685000Y-126045000D01*
G04 #@! TD*
G04 #@! TO.C,C12*
D11*
X145406928Y-112720380D02*
X145978357Y-112720380D01*
X145692642Y-112720380D02*
X145692642Y-111720380D01*
X145787880Y-111863238D01*
X145883119Y-111958476D01*
X145978357Y-112006095D01*
X144787880Y-111720380D02*
X144692642Y-111720380D01*
X144597404Y-111768000D01*
X144549785Y-111815619D01*
X144502166Y-111910857D01*
X144454547Y-112101333D01*
X144454547Y-112339428D01*
X144502166Y-112529904D01*
X144549785Y-112625142D01*
X144597404Y-112672761D01*
X144692642Y-112720380D01*
X144787880Y-112720380D01*
X144883119Y-112672761D01*
X144930738Y-112625142D01*
X144978357Y-112529904D01*
X145025976Y-112339428D01*
X145025976Y-112101333D01*
X144978357Y-111910857D01*
X144930738Y-111815619D01*
X144883119Y-111768000D01*
X144787880Y-111720380D01*
X144025976Y-112053714D02*
X144025976Y-112720380D01*
X144025976Y-112148952D02*
X143978357Y-112101333D01*
X143883119Y-112053714D01*
X143740261Y-112053714D01*
X143645023Y-112101333D01*
X143597404Y-112196571D01*
X143597404Y-112720380D01*
X142787880Y-112196571D02*
X143121214Y-112196571D01*
X143121214Y-112720380D02*
X143121214Y-111720380D01*
X142645023Y-111720380D01*
D12*
X147503714Y-112357285D02*
X147515619Y-112369190D01*
X147551333Y-112381095D01*
X147575142Y-112381095D01*
X147610857Y-112369190D01*
X147634666Y-112345380D01*
X147646571Y-112321571D01*
X147658476Y-112273952D01*
X147658476Y-112238238D01*
X147646571Y-112190619D01*
X147634666Y-112166809D01*
X147610857Y-112143000D01*
X147575142Y-112131095D01*
X147551333Y-112131095D01*
X147515619Y-112143000D01*
X147503714Y-112154904D01*
X147265619Y-112381095D02*
X147408476Y-112381095D01*
X147337047Y-112381095D02*
X147337047Y-112131095D01*
X147360857Y-112166809D01*
X147384666Y-112190619D01*
X147408476Y-112202523D01*
X147170380Y-112154904D02*
X147158476Y-112143000D01*
X147134666Y-112131095D01*
X147075142Y-112131095D01*
X147051333Y-112143000D01*
X147039428Y-112154904D01*
X147027523Y-112178714D01*
X147027523Y-112202523D01*
X147039428Y-112238238D01*
X147182285Y-112381095D01*
X147027523Y-112381095D01*
G04 #@! TO.C,C1*
D11*
X159027738Y-104401880D02*
X159599166Y-104401880D01*
X159313452Y-104401880D02*
X159313452Y-103401880D01*
X159408690Y-103544738D01*
X159503928Y-103639976D01*
X159599166Y-103687595D01*
X158170595Y-103735214D02*
X158170595Y-104401880D01*
X158599166Y-103735214D02*
X158599166Y-104259023D01*
X158551547Y-104354261D01*
X158456309Y-104401880D01*
X158313452Y-104401880D01*
X158218214Y-104354261D01*
X158170595Y-104306642D01*
X157361071Y-103878071D02*
X157694404Y-103878071D01*
X157694404Y-104401880D02*
X157694404Y-103401880D01*
X157218214Y-103401880D01*
D12*
X155977666Y-104012385D02*
X155989571Y-104024290D01*
X156025285Y-104036195D01*
X156049095Y-104036195D01*
X156084809Y-104024290D01*
X156108619Y-104000480D01*
X156120523Y-103976671D01*
X156132428Y-103929052D01*
X156132428Y-103893338D01*
X156120523Y-103845719D01*
X156108619Y-103821909D01*
X156084809Y-103798100D01*
X156049095Y-103786195D01*
X156025285Y-103786195D01*
X155989571Y-103798100D01*
X155977666Y-103810004D01*
X155739571Y-104036195D02*
X155882428Y-104036195D01*
X155811000Y-104036195D02*
X155811000Y-103786195D01*
X155834809Y-103821909D01*
X155858619Y-103845719D01*
X155882428Y-103857623D01*
G04 #@! TO.C,C2*
D11*
X159091238Y-108021380D02*
X159662666Y-108021380D01*
X159376952Y-108021380D02*
X159376952Y-107021380D01*
X159472190Y-107164238D01*
X159567428Y-107259476D01*
X159662666Y-107307095D01*
X158234095Y-107354714D02*
X158234095Y-108021380D01*
X158662666Y-107354714D02*
X158662666Y-107878523D01*
X158615047Y-107973761D01*
X158519809Y-108021380D01*
X158376952Y-108021380D01*
X158281714Y-107973761D01*
X158234095Y-107926142D01*
X157424571Y-107497571D02*
X157757904Y-107497571D01*
X157757904Y-108021380D02*
X157757904Y-107021380D01*
X157281714Y-107021380D01*
D12*
X155977666Y-107612385D02*
X155989571Y-107624290D01*
X156025285Y-107636195D01*
X156049095Y-107636195D01*
X156084809Y-107624290D01*
X156108619Y-107600480D01*
X156120523Y-107576671D01*
X156132428Y-107529052D01*
X156132428Y-107493338D01*
X156120523Y-107445719D01*
X156108619Y-107421909D01*
X156084809Y-107398100D01*
X156049095Y-107386195D01*
X156025285Y-107386195D01*
X155989571Y-107398100D01*
X155977666Y-107410004D01*
X155882428Y-107410004D02*
X155870523Y-107398100D01*
X155846714Y-107386195D01*
X155787190Y-107386195D01*
X155763380Y-107398100D01*
X155751476Y-107410004D01*
X155739571Y-107433814D01*
X155739571Y-107457623D01*
X155751476Y-107493338D01*
X155894333Y-107636195D01*
X155739571Y-107636195D01*
G04 #@! TO.C,C3*
D11*
X151090238Y-110815380D02*
X151661666Y-110815380D01*
X151375952Y-110815380D02*
X151375952Y-109815380D01*
X151471190Y-109958238D01*
X151566428Y-110053476D01*
X151661666Y-110101095D01*
X150233095Y-110148714D02*
X150233095Y-110815380D01*
X150661666Y-110148714D02*
X150661666Y-110672523D01*
X150614047Y-110767761D01*
X150518809Y-110815380D01*
X150375952Y-110815380D01*
X150280714Y-110767761D01*
X150233095Y-110720142D01*
X149423571Y-110291571D02*
X149756904Y-110291571D01*
X149756904Y-110815380D02*
X149756904Y-109815380D01*
X149280714Y-109815380D01*
D12*
X150536666Y-109309285D02*
X150548571Y-109321190D01*
X150584285Y-109333095D01*
X150608095Y-109333095D01*
X150643809Y-109321190D01*
X150667619Y-109297380D01*
X150679523Y-109273571D01*
X150691428Y-109225952D01*
X150691428Y-109190238D01*
X150679523Y-109142619D01*
X150667619Y-109118809D01*
X150643809Y-109095000D01*
X150608095Y-109083095D01*
X150584285Y-109083095D01*
X150548571Y-109095000D01*
X150536666Y-109106904D01*
X150453333Y-109083095D02*
X150298571Y-109083095D01*
X150381904Y-109178333D01*
X150346190Y-109178333D01*
X150322380Y-109190238D01*
X150310476Y-109202142D01*
X150298571Y-109225952D01*
X150298571Y-109285476D01*
X150310476Y-109309285D01*
X150322380Y-109321190D01*
X150346190Y-109333095D01*
X150417619Y-109333095D01*
X150441428Y-109321190D01*
X150453333Y-109309285D01*
G04 #@! TO.C,C4*
D11*
X159091238Y-106814880D02*
X159662666Y-106814880D01*
X159376952Y-106814880D02*
X159376952Y-105814880D01*
X159472190Y-105957738D01*
X159567428Y-106052976D01*
X159662666Y-106100595D01*
X158234095Y-106148214D02*
X158234095Y-106814880D01*
X158662666Y-106148214D02*
X158662666Y-106672023D01*
X158615047Y-106767261D01*
X158519809Y-106814880D01*
X158376952Y-106814880D01*
X158281714Y-106767261D01*
X158234095Y-106719642D01*
X157424571Y-106291071D02*
X157757904Y-106291071D01*
X157757904Y-106814880D02*
X157757904Y-105814880D01*
X157281714Y-105814880D01*
D12*
X155977666Y-106412385D02*
X155989571Y-106424290D01*
X156025285Y-106436195D01*
X156049095Y-106436195D01*
X156084809Y-106424290D01*
X156108619Y-106400480D01*
X156120523Y-106376671D01*
X156132428Y-106329052D01*
X156132428Y-106293338D01*
X156120523Y-106245719D01*
X156108619Y-106221909D01*
X156084809Y-106198100D01*
X156049095Y-106186195D01*
X156025285Y-106186195D01*
X155989571Y-106198100D01*
X155977666Y-106210004D01*
X155763380Y-106269528D02*
X155763380Y-106436195D01*
X155822904Y-106174290D02*
X155882428Y-106352861D01*
X155727666Y-106352861D01*
G04 #@! TO.C,C5*
D11*
X159599119Y-121229380D02*
X160170547Y-121229380D01*
X159884833Y-121229380D02*
X159884833Y-120229380D01*
X159980071Y-120372238D01*
X160075309Y-120467476D01*
X160170547Y-120515095D01*
X158980071Y-120229380D02*
X158884833Y-120229380D01*
X158789595Y-120277000D01*
X158741976Y-120324619D01*
X158694357Y-120419857D01*
X158646738Y-120610333D01*
X158646738Y-120848428D01*
X158694357Y-121038904D01*
X158741976Y-121134142D01*
X158789595Y-121181761D01*
X158884833Y-121229380D01*
X158980071Y-121229380D01*
X159075309Y-121181761D01*
X159122928Y-121134142D01*
X159170547Y-121038904D01*
X159218166Y-120848428D01*
X159218166Y-120610333D01*
X159170547Y-120419857D01*
X159122928Y-120324619D01*
X159075309Y-120277000D01*
X158980071Y-120229380D01*
X158027690Y-120229380D02*
X157932452Y-120229380D01*
X157837214Y-120277000D01*
X157789595Y-120324619D01*
X157741976Y-120419857D01*
X157694357Y-120610333D01*
X157694357Y-120848428D01*
X157741976Y-121038904D01*
X157789595Y-121134142D01*
X157837214Y-121181761D01*
X157932452Y-121229380D01*
X158027690Y-121229380D01*
X158122928Y-121181761D01*
X158170547Y-121134142D01*
X158218166Y-121038904D01*
X158265785Y-120848428D01*
X158265785Y-120610333D01*
X158218166Y-120419857D01*
X158170547Y-120324619D01*
X158122928Y-120277000D01*
X158027690Y-120229380D01*
X157265785Y-120562714D02*
X157265785Y-121229380D01*
X157265785Y-120657952D02*
X157218166Y-120610333D01*
X157122928Y-120562714D01*
X156980071Y-120562714D01*
X156884833Y-120610333D01*
X156837214Y-120705571D01*
X156837214Y-121229380D01*
X156027690Y-120705571D02*
X156361023Y-120705571D01*
X156361023Y-121229380D02*
X156361023Y-120229380D01*
X155884833Y-120229380D01*
D12*
X154877666Y-120866285D02*
X154889571Y-120878190D01*
X154925285Y-120890095D01*
X154949095Y-120890095D01*
X154984809Y-120878190D01*
X155008619Y-120854380D01*
X155020523Y-120830571D01*
X155032428Y-120782952D01*
X155032428Y-120747238D01*
X155020523Y-120699619D01*
X155008619Y-120675809D01*
X154984809Y-120652000D01*
X154949095Y-120640095D01*
X154925285Y-120640095D01*
X154889571Y-120652000D01*
X154877666Y-120663904D01*
X154651476Y-120640095D02*
X154770523Y-120640095D01*
X154782428Y-120759142D01*
X154770523Y-120747238D01*
X154746714Y-120735333D01*
X154687190Y-120735333D01*
X154663380Y-120747238D01*
X154651476Y-120759142D01*
X154639571Y-120782952D01*
X154639571Y-120842476D01*
X154651476Y-120866285D01*
X154663380Y-120878190D01*
X154687190Y-120890095D01*
X154746714Y-120890095D01*
X154770523Y-120878190D01*
X154782428Y-120866285D01*
G04 #@! TO.C,C6*
D11*
X147057928Y-120213380D02*
X147629357Y-120213380D01*
X147343642Y-120213380D02*
X147343642Y-119213380D01*
X147438880Y-119356238D01*
X147534119Y-119451476D01*
X147629357Y-119499095D01*
X146438880Y-119213380D02*
X146343642Y-119213380D01*
X146248404Y-119261000D01*
X146200785Y-119308619D01*
X146153166Y-119403857D01*
X146105547Y-119594333D01*
X146105547Y-119832428D01*
X146153166Y-120022904D01*
X146200785Y-120118142D01*
X146248404Y-120165761D01*
X146343642Y-120213380D01*
X146438880Y-120213380D01*
X146534119Y-120165761D01*
X146581738Y-120118142D01*
X146629357Y-120022904D01*
X146676976Y-119832428D01*
X146676976Y-119594333D01*
X146629357Y-119403857D01*
X146581738Y-119308619D01*
X146534119Y-119261000D01*
X146438880Y-119213380D01*
X145676976Y-119546714D02*
X145676976Y-120213380D01*
X145676976Y-119641952D02*
X145629357Y-119594333D01*
X145534119Y-119546714D01*
X145391261Y-119546714D01*
X145296023Y-119594333D01*
X145248404Y-119689571D01*
X145248404Y-120213380D01*
X144438880Y-119689571D02*
X144772214Y-119689571D01*
X144772214Y-120213380D02*
X144772214Y-119213380D01*
X144296023Y-119213380D01*
D12*
X148933285Y-119719333D02*
X148945190Y-119707428D01*
X148957095Y-119671714D01*
X148957095Y-119647904D01*
X148945190Y-119612190D01*
X148921380Y-119588380D01*
X148897571Y-119576476D01*
X148849952Y-119564571D01*
X148814238Y-119564571D01*
X148766619Y-119576476D01*
X148742809Y-119588380D01*
X148719000Y-119612190D01*
X148707095Y-119647904D01*
X148707095Y-119671714D01*
X148719000Y-119707428D01*
X148730904Y-119719333D01*
X148707095Y-119933619D02*
X148707095Y-119886000D01*
X148719000Y-119862190D01*
X148730904Y-119850285D01*
X148766619Y-119826476D01*
X148814238Y-119814571D01*
X148909476Y-119814571D01*
X148933285Y-119826476D01*
X148945190Y-119838380D01*
X148957095Y-119862190D01*
X148957095Y-119909809D01*
X148945190Y-119933619D01*
X148933285Y-119945523D01*
X148909476Y-119957428D01*
X148849952Y-119957428D01*
X148826142Y-119945523D01*
X148814238Y-119933619D01*
X148802333Y-119909809D01*
X148802333Y-119862190D01*
X148814238Y-119838380D01*
X148826142Y-119826476D01*
X148849952Y-119814571D01*
G04 #@! TO.C,C8*
D11*
X145565619Y-117863880D02*
X146137047Y-117863880D01*
X145851333Y-117863880D02*
X145851333Y-116863880D01*
X145946571Y-117006738D01*
X146041809Y-117101976D01*
X146137047Y-117149595D01*
X144946571Y-116863880D02*
X144851333Y-116863880D01*
X144756095Y-116911500D01*
X144708476Y-116959119D01*
X144660857Y-117054357D01*
X144613238Y-117244833D01*
X144613238Y-117482928D01*
X144660857Y-117673404D01*
X144708476Y-117768642D01*
X144756095Y-117816261D01*
X144851333Y-117863880D01*
X144946571Y-117863880D01*
X145041809Y-117816261D01*
X145089428Y-117768642D01*
X145137047Y-117673404D01*
X145184666Y-117482928D01*
X145184666Y-117244833D01*
X145137047Y-117054357D01*
X145089428Y-116959119D01*
X145041809Y-116911500D01*
X144946571Y-116863880D01*
X143994190Y-116863880D02*
X143898952Y-116863880D01*
X143803714Y-116911500D01*
X143756095Y-116959119D01*
X143708476Y-117054357D01*
X143660857Y-117244833D01*
X143660857Y-117482928D01*
X143708476Y-117673404D01*
X143756095Y-117768642D01*
X143803714Y-117816261D01*
X143898952Y-117863880D01*
X143994190Y-117863880D01*
X144089428Y-117816261D01*
X144137047Y-117768642D01*
X144184666Y-117673404D01*
X144232285Y-117482928D01*
X144232285Y-117244833D01*
X144184666Y-117054357D01*
X144137047Y-116959119D01*
X144089428Y-116911500D01*
X143994190Y-116863880D01*
X143232285Y-117197214D02*
X143232285Y-117863880D01*
X143232285Y-117292452D02*
X143184666Y-117244833D01*
X143089428Y-117197214D01*
X142946571Y-117197214D01*
X142851333Y-117244833D01*
X142803714Y-117340071D01*
X142803714Y-117863880D01*
X141994190Y-117340071D02*
X142327523Y-117340071D01*
X142327523Y-117863880D02*
X142327523Y-116863880D01*
X141851333Y-116863880D01*
D12*
X147592666Y-117564285D02*
X147604571Y-117576190D01*
X147640285Y-117588095D01*
X147664095Y-117588095D01*
X147699809Y-117576190D01*
X147723619Y-117552380D01*
X147735523Y-117528571D01*
X147747428Y-117480952D01*
X147747428Y-117445238D01*
X147735523Y-117397619D01*
X147723619Y-117373809D01*
X147699809Y-117350000D01*
X147664095Y-117338095D01*
X147640285Y-117338095D01*
X147604571Y-117350000D01*
X147592666Y-117361904D01*
X147449809Y-117445238D02*
X147473619Y-117433333D01*
X147485523Y-117421428D01*
X147497428Y-117397619D01*
X147497428Y-117385714D01*
X147485523Y-117361904D01*
X147473619Y-117350000D01*
X147449809Y-117338095D01*
X147402190Y-117338095D01*
X147378380Y-117350000D01*
X147366476Y-117361904D01*
X147354571Y-117385714D01*
X147354571Y-117397619D01*
X147366476Y-117421428D01*
X147378380Y-117433333D01*
X147402190Y-117445238D01*
X147449809Y-117445238D01*
X147473619Y-117457142D01*
X147485523Y-117469047D01*
X147497428Y-117492857D01*
X147497428Y-117540476D01*
X147485523Y-117564285D01*
X147473619Y-117576190D01*
X147449809Y-117588095D01*
X147402190Y-117588095D01*
X147378380Y-117576190D01*
X147366476Y-117564285D01*
X147354571Y-117540476D01*
X147354571Y-117492857D01*
X147366476Y-117469047D01*
X147378380Y-117457142D01*
X147402190Y-117445238D01*
G04 #@! TO.C,C9*
D11*
X153169880Y-114022380D02*
X153169880Y-113450952D01*
X153169880Y-113736666D02*
X152169880Y-113736666D01*
X152312738Y-113641428D01*
X152407976Y-113546190D01*
X152455595Y-113450952D01*
X152169880Y-114641428D02*
X152169880Y-114736666D01*
X152217500Y-114831904D01*
X152265119Y-114879523D01*
X152360357Y-114927142D01*
X152550833Y-114974761D01*
X152788928Y-114974761D01*
X152979404Y-114927142D01*
X153074642Y-114879523D01*
X153122261Y-114831904D01*
X153169880Y-114736666D01*
X153169880Y-114641428D01*
X153122261Y-114546190D01*
X153074642Y-114498571D01*
X152979404Y-114450952D01*
X152788928Y-114403333D01*
X152550833Y-114403333D01*
X152360357Y-114450952D01*
X152265119Y-114498571D01*
X152217500Y-114546190D01*
X152169880Y-114641428D01*
X152169880Y-115593809D02*
X152169880Y-115689047D01*
X152217500Y-115784285D01*
X152265119Y-115831904D01*
X152360357Y-115879523D01*
X152550833Y-115927142D01*
X152788928Y-115927142D01*
X152979404Y-115879523D01*
X153074642Y-115831904D01*
X153122261Y-115784285D01*
X153169880Y-115689047D01*
X153169880Y-115593809D01*
X153122261Y-115498571D01*
X153074642Y-115450952D01*
X152979404Y-115403333D01*
X152788928Y-115355714D01*
X152550833Y-115355714D01*
X152360357Y-115403333D01*
X152265119Y-115450952D01*
X152217500Y-115498571D01*
X152169880Y-115593809D01*
X152503214Y-116355714D02*
X153169880Y-116355714D01*
X152598452Y-116355714D02*
X152550833Y-116403333D01*
X152503214Y-116498571D01*
X152503214Y-116641428D01*
X152550833Y-116736666D01*
X152646071Y-116784285D01*
X153169880Y-116784285D01*
X152646071Y-117593809D02*
X152646071Y-117260476D01*
X153169880Y-117260476D02*
X152169880Y-117260476D01*
X152169880Y-117736666D01*
D12*
X152743285Y-118957333D02*
X152755190Y-118945428D01*
X152767095Y-118909714D01*
X152767095Y-118885904D01*
X152755190Y-118850190D01*
X152731380Y-118826380D01*
X152707571Y-118814476D01*
X152659952Y-118802571D01*
X152624238Y-118802571D01*
X152576619Y-118814476D01*
X152552809Y-118826380D01*
X152529000Y-118850190D01*
X152517095Y-118885904D01*
X152517095Y-118909714D01*
X152529000Y-118945428D01*
X152540904Y-118957333D01*
X152767095Y-119076380D02*
X152767095Y-119124000D01*
X152755190Y-119147809D01*
X152743285Y-119159714D01*
X152707571Y-119183523D01*
X152659952Y-119195428D01*
X152564714Y-119195428D01*
X152540904Y-119183523D01*
X152529000Y-119171619D01*
X152517095Y-119147809D01*
X152517095Y-119100190D01*
X152529000Y-119076380D01*
X152540904Y-119064476D01*
X152564714Y-119052571D01*
X152624238Y-119052571D01*
X152648047Y-119064476D01*
X152659952Y-119076380D01*
X152671857Y-119100190D01*
X152671857Y-119147809D01*
X152659952Y-119171619D01*
X152648047Y-119183523D01*
X152624238Y-119195428D01*
G04 #@! TO.C,C10*
D11*
X144740119Y-109037380D02*
X145311547Y-109037380D01*
X145025833Y-109037380D02*
X145025833Y-108037380D01*
X145121071Y-108180238D01*
X145216309Y-108275476D01*
X145311547Y-108323095D01*
X144121071Y-108037380D02*
X144025833Y-108037380D01*
X143930595Y-108085000D01*
X143882976Y-108132619D01*
X143835357Y-108227857D01*
X143787738Y-108418333D01*
X143787738Y-108656428D01*
X143835357Y-108846904D01*
X143882976Y-108942142D01*
X143930595Y-108989761D01*
X144025833Y-109037380D01*
X144121071Y-109037380D01*
X144216309Y-108989761D01*
X144263928Y-108942142D01*
X144311547Y-108846904D01*
X144359166Y-108656428D01*
X144359166Y-108418333D01*
X144311547Y-108227857D01*
X144263928Y-108132619D01*
X144216309Y-108085000D01*
X144121071Y-108037380D01*
X143168690Y-108037380D02*
X143073452Y-108037380D01*
X142978214Y-108085000D01*
X142930595Y-108132619D01*
X142882976Y-108227857D01*
X142835357Y-108418333D01*
X142835357Y-108656428D01*
X142882976Y-108846904D01*
X142930595Y-108942142D01*
X142978214Y-108989761D01*
X143073452Y-109037380D01*
X143168690Y-109037380D01*
X143263928Y-108989761D01*
X143311547Y-108942142D01*
X143359166Y-108846904D01*
X143406785Y-108656428D01*
X143406785Y-108418333D01*
X143359166Y-108227857D01*
X143311547Y-108132619D01*
X143263928Y-108085000D01*
X143168690Y-108037380D01*
X142406785Y-108370714D02*
X142406785Y-109037380D01*
X142406785Y-108465952D02*
X142359166Y-108418333D01*
X142263928Y-108370714D01*
X142121071Y-108370714D01*
X142025833Y-108418333D01*
X141978214Y-108513571D01*
X141978214Y-109037380D01*
X141168690Y-108513571D02*
X141502023Y-108513571D01*
X141502023Y-109037380D02*
X141502023Y-108037380D01*
X141025833Y-108037380D01*
D12*
X146695714Y-108674285D02*
X146707619Y-108686190D01*
X146743333Y-108698095D01*
X146767142Y-108698095D01*
X146802857Y-108686190D01*
X146826666Y-108662380D01*
X146838571Y-108638571D01*
X146850476Y-108590952D01*
X146850476Y-108555238D01*
X146838571Y-108507619D01*
X146826666Y-108483809D01*
X146802857Y-108460000D01*
X146767142Y-108448095D01*
X146743333Y-108448095D01*
X146707619Y-108460000D01*
X146695714Y-108471904D01*
X146457619Y-108698095D02*
X146600476Y-108698095D01*
X146529047Y-108698095D02*
X146529047Y-108448095D01*
X146552857Y-108483809D01*
X146576666Y-108507619D01*
X146600476Y-108519523D01*
X146302857Y-108448095D02*
X146279047Y-108448095D01*
X146255238Y-108460000D01*
X146243333Y-108471904D01*
X146231428Y-108495714D01*
X146219523Y-108543333D01*
X146219523Y-108602857D01*
X146231428Y-108650476D01*
X146243333Y-108674285D01*
X146255238Y-108686190D01*
X146279047Y-108698095D01*
X146302857Y-108698095D01*
X146326666Y-108686190D01*
X146338571Y-108674285D01*
X146350476Y-108650476D01*
X146362380Y-108602857D01*
X146362380Y-108543333D01*
X146350476Y-108495714D01*
X146338571Y-108471904D01*
X146326666Y-108460000D01*
X146302857Y-108448095D01*
G04 #@! TO.C,C11*
D11*
X144549619Y-110815380D02*
X145121047Y-110815380D01*
X144835333Y-110815380D02*
X144835333Y-109815380D01*
X144930571Y-109958238D01*
X145025809Y-110053476D01*
X145121047Y-110101095D01*
X143930571Y-109815380D02*
X143835333Y-109815380D01*
X143740095Y-109863000D01*
X143692476Y-109910619D01*
X143644857Y-110005857D01*
X143597238Y-110196333D01*
X143597238Y-110434428D01*
X143644857Y-110624904D01*
X143692476Y-110720142D01*
X143740095Y-110767761D01*
X143835333Y-110815380D01*
X143930571Y-110815380D01*
X144025809Y-110767761D01*
X144073428Y-110720142D01*
X144121047Y-110624904D01*
X144168666Y-110434428D01*
X144168666Y-110196333D01*
X144121047Y-110005857D01*
X144073428Y-109910619D01*
X144025809Y-109863000D01*
X143930571Y-109815380D01*
X142978190Y-109815380D02*
X142882952Y-109815380D01*
X142787714Y-109863000D01*
X142740095Y-109910619D01*
X142692476Y-110005857D01*
X142644857Y-110196333D01*
X142644857Y-110434428D01*
X142692476Y-110624904D01*
X142740095Y-110720142D01*
X142787714Y-110767761D01*
X142882952Y-110815380D01*
X142978190Y-110815380D01*
X143073428Y-110767761D01*
X143121047Y-110720142D01*
X143168666Y-110624904D01*
X143216285Y-110434428D01*
X143216285Y-110196333D01*
X143168666Y-110005857D01*
X143121047Y-109910619D01*
X143073428Y-109863000D01*
X142978190Y-109815380D01*
X142216285Y-110148714D02*
X142216285Y-110815380D01*
X142216285Y-110243952D02*
X142168666Y-110196333D01*
X142073428Y-110148714D01*
X141930571Y-110148714D01*
X141835333Y-110196333D01*
X141787714Y-110291571D01*
X141787714Y-110815380D01*
X140978190Y-110291571D02*
X141311523Y-110291571D01*
X141311523Y-110815380D02*
X141311523Y-109815380D01*
X140835333Y-109815380D01*
D12*
X146695714Y-110452285D02*
X146707619Y-110464190D01*
X146743333Y-110476095D01*
X146767142Y-110476095D01*
X146802857Y-110464190D01*
X146826666Y-110440380D01*
X146838571Y-110416571D01*
X146850476Y-110368952D01*
X146850476Y-110333238D01*
X146838571Y-110285619D01*
X146826666Y-110261809D01*
X146802857Y-110238000D01*
X146767142Y-110226095D01*
X146743333Y-110226095D01*
X146707619Y-110238000D01*
X146695714Y-110249904D01*
X146457619Y-110476095D02*
X146600476Y-110476095D01*
X146529047Y-110476095D02*
X146529047Y-110226095D01*
X146552857Y-110261809D01*
X146576666Y-110285619D01*
X146600476Y-110297523D01*
X146219523Y-110476095D02*
X146362380Y-110476095D01*
X146290952Y-110476095D02*
X146290952Y-110226095D01*
X146314761Y-110261809D01*
X146338571Y-110285619D01*
X146362380Y-110297523D01*
G04 #@! TO.C,C13*
D11*
X151772880Y-113990571D02*
X151772880Y-113419142D01*
X151772880Y-113704857D02*
X150772880Y-113704857D01*
X150915738Y-113609619D01*
X151010976Y-113514380D01*
X151058595Y-113419142D01*
X150772880Y-114609619D02*
X150772880Y-114704857D01*
X150820500Y-114800095D01*
X150868119Y-114847714D01*
X150963357Y-114895333D01*
X151153833Y-114942952D01*
X151391928Y-114942952D01*
X151582404Y-114895333D01*
X151677642Y-114847714D01*
X151725261Y-114800095D01*
X151772880Y-114704857D01*
X151772880Y-114609619D01*
X151725261Y-114514380D01*
X151677642Y-114466761D01*
X151582404Y-114419142D01*
X151391928Y-114371523D01*
X151153833Y-114371523D01*
X150963357Y-114419142D01*
X150868119Y-114466761D01*
X150820500Y-114514380D01*
X150772880Y-114609619D01*
X151106214Y-115371523D02*
X151772880Y-115371523D01*
X151201452Y-115371523D02*
X151153833Y-115419142D01*
X151106214Y-115514380D01*
X151106214Y-115657238D01*
X151153833Y-115752476D01*
X151249071Y-115800095D01*
X151772880Y-115800095D01*
X151249071Y-116609619D02*
X151249071Y-116276285D01*
X151772880Y-116276285D02*
X150772880Y-116276285D01*
X150772880Y-116752476D01*
D12*
X151473285Y-118815285D02*
X151485190Y-118803380D01*
X151497095Y-118767666D01*
X151497095Y-118743857D01*
X151485190Y-118708142D01*
X151461380Y-118684333D01*
X151437571Y-118672428D01*
X151389952Y-118660523D01*
X151354238Y-118660523D01*
X151306619Y-118672428D01*
X151282809Y-118684333D01*
X151259000Y-118708142D01*
X151247095Y-118743857D01*
X151247095Y-118767666D01*
X151259000Y-118803380D01*
X151270904Y-118815285D01*
X151497095Y-119053380D02*
X151497095Y-118910523D01*
X151497095Y-118981952D02*
X151247095Y-118981952D01*
X151282809Y-118958142D01*
X151306619Y-118934333D01*
X151318523Y-118910523D01*
X151247095Y-119136714D02*
X151247095Y-119291476D01*
X151342333Y-119208142D01*
X151342333Y-119243857D01*
X151354238Y-119267666D01*
X151366142Y-119279571D01*
X151389952Y-119291476D01*
X151449476Y-119291476D01*
X151473285Y-119279571D01*
X151485190Y-119267666D01*
X151497095Y-119243857D01*
X151497095Y-119172428D01*
X151485190Y-119148619D01*
X151473285Y-119136714D01*
G04 #@! TO.C,C14*
D11*
X151693428Y-122308880D02*
X152264857Y-122308880D01*
X151979142Y-122308880D02*
X151979142Y-121308880D01*
X152074380Y-121451738D01*
X152169619Y-121546976D01*
X152264857Y-121594595D01*
X151074380Y-121308880D02*
X150979142Y-121308880D01*
X150883904Y-121356500D01*
X150836285Y-121404119D01*
X150788666Y-121499357D01*
X150741047Y-121689833D01*
X150741047Y-121927928D01*
X150788666Y-122118404D01*
X150836285Y-122213642D01*
X150883904Y-122261261D01*
X150979142Y-122308880D01*
X151074380Y-122308880D01*
X151169619Y-122261261D01*
X151217238Y-122213642D01*
X151264857Y-122118404D01*
X151312476Y-121927928D01*
X151312476Y-121689833D01*
X151264857Y-121499357D01*
X151217238Y-121404119D01*
X151169619Y-121356500D01*
X151074380Y-121308880D01*
X150312476Y-121642214D02*
X150312476Y-122308880D01*
X150312476Y-121737452D02*
X150264857Y-121689833D01*
X150169619Y-121642214D01*
X150026761Y-121642214D01*
X149931523Y-121689833D01*
X149883904Y-121785071D01*
X149883904Y-122308880D01*
X149074380Y-121785071D02*
X149407714Y-121785071D01*
X149407714Y-122308880D02*
X149407714Y-121308880D01*
X148931523Y-121308880D01*
D12*
X150805714Y-120739285D02*
X150817619Y-120751190D01*
X150853333Y-120763095D01*
X150877142Y-120763095D01*
X150912857Y-120751190D01*
X150936666Y-120727380D01*
X150948571Y-120703571D01*
X150960476Y-120655952D01*
X150960476Y-120620238D01*
X150948571Y-120572619D01*
X150936666Y-120548809D01*
X150912857Y-120525000D01*
X150877142Y-120513095D01*
X150853333Y-120513095D01*
X150817619Y-120525000D01*
X150805714Y-120536904D01*
X150567619Y-120763095D02*
X150710476Y-120763095D01*
X150639047Y-120763095D02*
X150639047Y-120513095D01*
X150662857Y-120548809D01*
X150686666Y-120572619D01*
X150710476Y-120584523D01*
X150353333Y-120596428D02*
X150353333Y-120763095D01*
X150412857Y-120501190D02*
X150472380Y-120679761D01*
X150317619Y-120679761D01*
G04 #@! TO.C,R1*
D11*
X148470833Y-103322380D02*
X149042261Y-103322380D01*
X148756547Y-103322380D02*
X148756547Y-102322380D01*
X148851785Y-102465238D01*
X148947023Y-102560476D01*
X149042261Y-102608095D01*
X148042261Y-103227142D02*
X147994642Y-103274761D01*
X148042261Y-103322380D01*
X148089880Y-103274761D01*
X148042261Y-103227142D01*
X148042261Y-103322380D01*
X147089880Y-102322380D02*
X147566071Y-102322380D01*
X147613690Y-102798571D01*
X147566071Y-102750952D01*
X147470833Y-102703333D01*
X147232738Y-102703333D01*
X147137500Y-102750952D01*
X147089880Y-102798571D01*
X147042261Y-102893809D01*
X147042261Y-103131904D01*
X147089880Y-103227142D01*
X147137500Y-103274761D01*
X147232738Y-103322380D01*
X147470833Y-103322380D01*
X147566071Y-103274761D01*
X147613690Y-103227142D01*
X146613690Y-103322380D02*
X146613690Y-102322380D01*
X146518452Y-102941428D02*
X146232738Y-103322380D01*
X146232738Y-102655714D02*
X146613690Y-103036666D01*
D12*
X149973095Y-102764833D02*
X149854047Y-102681500D01*
X149973095Y-102621976D02*
X149723095Y-102621976D01*
X149723095Y-102717214D01*
X149735000Y-102741023D01*
X149746904Y-102752928D01*
X149770714Y-102764833D01*
X149806428Y-102764833D01*
X149830238Y-102752928D01*
X149842142Y-102741023D01*
X149854047Y-102717214D01*
X149854047Y-102621976D01*
X149973095Y-103002928D02*
X149973095Y-102860071D01*
X149973095Y-102931500D02*
X149723095Y-102931500D01*
X149758809Y-102907690D01*
X149782619Y-102883880D01*
X149794523Y-102860071D01*
G04 #@! TO.C,R2*
D11*
X150518880Y-104489285D02*
X150518880Y-104298809D01*
X150566500Y-104203571D01*
X150614119Y-104155952D01*
X150756976Y-104060714D01*
X150947452Y-104013095D01*
X151328404Y-104013095D01*
X151423642Y-104060714D01*
X151471261Y-104108333D01*
X151518880Y-104203571D01*
X151518880Y-104394047D01*
X151471261Y-104489285D01*
X151423642Y-104536904D01*
X151328404Y-104584523D01*
X151090309Y-104584523D01*
X150995071Y-104536904D01*
X150947452Y-104489285D01*
X150899833Y-104394047D01*
X150899833Y-104203571D01*
X150947452Y-104108333D01*
X150995071Y-104060714D01*
X151090309Y-104013095D01*
X150947452Y-105155952D02*
X150899833Y-105060714D01*
X150852214Y-105013095D01*
X150756976Y-104965476D01*
X150709357Y-104965476D01*
X150614119Y-105013095D01*
X150566500Y-105060714D01*
X150518880Y-105155952D01*
X150518880Y-105346428D01*
X150566500Y-105441666D01*
X150614119Y-105489285D01*
X150709357Y-105536904D01*
X150756976Y-105536904D01*
X150852214Y-105489285D01*
X150899833Y-105441666D01*
X150947452Y-105346428D01*
X150947452Y-105155952D01*
X150995071Y-105060714D01*
X151042690Y-105013095D01*
X151137928Y-104965476D01*
X151328404Y-104965476D01*
X151423642Y-105013095D01*
X151471261Y-105060714D01*
X151518880Y-105155952D01*
X151518880Y-105346428D01*
X151471261Y-105441666D01*
X151423642Y-105489285D01*
X151328404Y-105536904D01*
X151137928Y-105536904D01*
X151042690Y-105489285D01*
X150995071Y-105441666D01*
X150947452Y-105346428D01*
D12*
X151116095Y-102770333D02*
X150997047Y-102687000D01*
X151116095Y-102627476D02*
X150866095Y-102627476D01*
X150866095Y-102722714D01*
X150878000Y-102746523D01*
X150889904Y-102758428D01*
X150913714Y-102770333D01*
X150949428Y-102770333D01*
X150973238Y-102758428D01*
X150985142Y-102746523D01*
X150997047Y-102722714D01*
X150997047Y-102627476D01*
X150889904Y-102865571D02*
X150878000Y-102877476D01*
X150866095Y-102901285D01*
X150866095Y-102960809D01*
X150878000Y-102984619D01*
X150889904Y-102996523D01*
X150913714Y-103008428D01*
X150937523Y-103008428D01*
X150973238Y-102996523D01*
X151116095Y-102853666D01*
X151116095Y-103008428D01*
G04 #@! TO.C,R3*
D11*
X151534880Y-100552285D02*
X151534880Y-100361809D01*
X151582500Y-100266571D01*
X151630119Y-100218952D01*
X151772976Y-100123714D01*
X151963452Y-100076095D01*
X152344404Y-100076095D01*
X152439642Y-100123714D01*
X152487261Y-100171333D01*
X152534880Y-100266571D01*
X152534880Y-100457047D01*
X152487261Y-100552285D01*
X152439642Y-100599904D01*
X152344404Y-100647523D01*
X152106309Y-100647523D01*
X152011071Y-100599904D01*
X151963452Y-100552285D01*
X151915833Y-100457047D01*
X151915833Y-100266571D01*
X151963452Y-100171333D01*
X152011071Y-100123714D01*
X152106309Y-100076095D01*
X151963452Y-101218952D02*
X151915833Y-101123714D01*
X151868214Y-101076095D01*
X151772976Y-101028476D01*
X151725357Y-101028476D01*
X151630119Y-101076095D01*
X151582500Y-101123714D01*
X151534880Y-101218952D01*
X151534880Y-101409428D01*
X151582500Y-101504666D01*
X151630119Y-101552285D01*
X151725357Y-101599904D01*
X151772976Y-101599904D01*
X151868214Y-101552285D01*
X151915833Y-101504666D01*
X151963452Y-101409428D01*
X151963452Y-101218952D01*
X152011071Y-101123714D01*
X152058690Y-101076095D01*
X152153928Y-101028476D01*
X152344404Y-101028476D01*
X152439642Y-101076095D01*
X152487261Y-101123714D01*
X152534880Y-101218952D01*
X152534880Y-101409428D01*
X152487261Y-101504666D01*
X152439642Y-101552285D01*
X152344404Y-101599904D01*
X152153928Y-101599904D01*
X152058690Y-101552285D01*
X152011071Y-101504666D01*
X151963452Y-101409428D01*
D12*
X152195595Y-102770333D02*
X152076547Y-102687000D01*
X152195595Y-102627476D02*
X151945595Y-102627476D01*
X151945595Y-102722714D01*
X151957500Y-102746523D01*
X151969404Y-102758428D01*
X151993214Y-102770333D01*
X152028928Y-102770333D01*
X152052738Y-102758428D01*
X152064642Y-102746523D01*
X152076547Y-102722714D01*
X152076547Y-102627476D01*
X151945595Y-102853666D02*
X151945595Y-103008428D01*
X152040833Y-102925095D01*
X152040833Y-102960809D01*
X152052738Y-102984619D01*
X152064642Y-102996523D01*
X152088452Y-103008428D01*
X152147976Y-103008428D01*
X152171785Y-102996523D01*
X152183690Y-102984619D01*
X152195595Y-102960809D01*
X152195595Y-102889380D01*
X152183690Y-102865571D01*
X152171785Y-102853666D01*
G04 #@! TO.C,R4*
D11*
X150375880Y-114014333D02*
X150375880Y-113442904D01*
X150375880Y-113728619D02*
X149375880Y-113728619D01*
X149518738Y-113633380D01*
X149613976Y-113538142D01*
X149661595Y-113442904D01*
X149375880Y-114633380D02*
X149375880Y-114728619D01*
X149423500Y-114823857D01*
X149471119Y-114871476D01*
X149566357Y-114919095D01*
X149756833Y-114966714D01*
X149994928Y-114966714D01*
X150185404Y-114919095D01*
X150280642Y-114871476D01*
X150328261Y-114823857D01*
X150375880Y-114728619D01*
X150375880Y-114633380D01*
X150328261Y-114538142D01*
X150280642Y-114490523D01*
X150185404Y-114442904D01*
X149994928Y-114395285D01*
X149756833Y-114395285D01*
X149566357Y-114442904D01*
X149471119Y-114490523D01*
X149423500Y-114538142D01*
X149375880Y-114633380D01*
X149375880Y-115585761D02*
X149375880Y-115681000D01*
X149423500Y-115776238D01*
X149471119Y-115823857D01*
X149566357Y-115871476D01*
X149756833Y-115919095D01*
X149994928Y-115919095D01*
X150185404Y-115871476D01*
X150280642Y-115823857D01*
X150328261Y-115776238D01*
X150375880Y-115681000D01*
X150375880Y-115585761D01*
X150328261Y-115490523D01*
X150280642Y-115442904D01*
X150185404Y-115395285D01*
X149994928Y-115347666D01*
X149756833Y-115347666D01*
X149566357Y-115395285D01*
X149471119Y-115442904D01*
X149423500Y-115490523D01*
X149375880Y-115585761D01*
D12*
X150100095Y-118761333D02*
X149981047Y-118678000D01*
X150100095Y-118618476D02*
X149850095Y-118618476D01*
X149850095Y-118713714D01*
X149862000Y-118737523D01*
X149873904Y-118749428D01*
X149897714Y-118761333D01*
X149933428Y-118761333D01*
X149957238Y-118749428D01*
X149969142Y-118737523D01*
X149981047Y-118713714D01*
X149981047Y-118618476D01*
X149933428Y-118975619D02*
X150100095Y-118975619D01*
X149838190Y-118916095D02*
X150016761Y-118856571D01*
X150016761Y-119011333D01*
G04 #@! TO.C,R5*
D11*
X144041738Y-125293380D02*
X144613166Y-125293380D01*
X144327452Y-125293380D02*
X144327452Y-124293380D01*
X144422690Y-124436238D01*
X144517928Y-124531476D01*
X144613166Y-124579095D01*
X143422690Y-124293380D02*
X143327452Y-124293380D01*
X143232214Y-124341000D01*
X143184595Y-124388619D01*
X143136976Y-124483857D01*
X143089357Y-124674333D01*
X143089357Y-124912428D01*
X143136976Y-125102904D01*
X143184595Y-125198142D01*
X143232214Y-125245761D01*
X143327452Y-125293380D01*
X143422690Y-125293380D01*
X143517928Y-125245761D01*
X143565547Y-125198142D01*
X143613166Y-125102904D01*
X143660785Y-124912428D01*
X143660785Y-124674333D01*
X143613166Y-124483857D01*
X143565547Y-124388619D01*
X143517928Y-124341000D01*
X143422690Y-124293380D01*
X142660785Y-125293380D02*
X142660785Y-124293380D01*
X142565547Y-124912428D02*
X142279833Y-125293380D01*
X142279833Y-124626714D02*
X142660785Y-125007666D01*
D12*
X146726666Y-124954095D02*
X146810000Y-124835047D01*
X146869523Y-124954095D02*
X146869523Y-124704095D01*
X146774285Y-124704095D01*
X146750476Y-124716000D01*
X146738571Y-124727904D01*
X146726666Y-124751714D01*
X146726666Y-124787428D01*
X146738571Y-124811238D01*
X146750476Y-124823142D01*
X146774285Y-124835047D01*
X146869523Y-124835047D01*
X146500476Y-124704095D02*
X146619523Y-124704095D01*
X146631428Y-124823142D01*
X146619523Y-124811238D01*
X146595714Y-124799333D01*
X146536190Y-124799333D01*
X146512380Y-124811238D01*
X146500476Y-124823142D01*
X146488571Y-124846952D01*
X146488571Y-124906476D01*
X146500476Y-124930285D01*
X146512380Y-124942190D01*
X146536190Y-124954095D01*
X146595714Y-124954095D01*
X146619523Y-124942190D01*
X146631428Y-124930285D01*
G04 #@! TO.C,R6*
D11*
X157948238Y-124594880D02*
X158519666Y-124594880D01*
X158233952Y-124594880D02*
X158233952Y-123594880D01*
X158329190Y-123737738D01*
X158424428Y-123832976D01*
X158519666Y-123880595D01*
X157329190Y-123594880D02*
X157233952Y-123594880D01*
X157138714Y-123642500D01*
X157091095Y-123690119D01*
X157043476Y-123785357D01*
X156995857Y-123975833D01*
X156995857Y-124213928D01*
X157043476Y-124404404D01*
X157091095Y-124499642D01*
X157138714Y-124547261D01*
X157233952Y-124594880D01*
X157329190Y-124594880D01*
X157424428Y-124547261D01*
X157472047Y-124499642D01*
X157519666Y-124404404D01*
X157567285Y-124213928D01*
X157567285Y-123975833D01*
X157519666Y-123785357D01*
X157472047Y-123690119D01*
X157424428Y-123642500D01*
X157329190Y-123594880D01*
X156567285Y-124594880D02*
X156567285Y-123594880D01*
X156472047Y-124213928D02*
X156186333Y-124594880D01*
X156186333Y-123928214D02*
X156567285Y-124309166D01*
D12*
X154923666Y-124319095D02*
X155007000Y-124200047D01*
X155066523Y-124319095D02*
X155066523Y-124069095D01*
X154971285Y-124069095D01*
X154947476Y-124081000D01*
X154935571Y-124092904D01*
X154923666Y-124116714D01*
X154923666Y-124152428D01*
X154935571Y-124176238D01*
X154947476Y-124188142D01*
X154971285Y-124200047D01*
X155066523Y-124200047D01*
X154709380Y-124069095D02*
X154757000Y-124069095D01*
X154780809Y-124081000D01*
X154792714Y-124092904D01*
X154816523Y-124128619D01*
X154828428Y-124176238D01*
X154828428Y-124271476D01*
X154816523Y-124295285D01*
X154804619Y-124307190D01*
X154780809Y-124319095D01*
X154733190Y-124319095D01*
X154709380Y-124307190D01*
X154697476Y-124295285D01*
X154685571Y-124271476D01*
X154685571Y-124211952D01*
X154697476Y-124188142D01*
X154709380Y-124176238D01*
X154733190Y-124164333D01*
X154780809Y-124164333D01*
X154804619Y-124176238D01*
X154816523Y-124188142D01*
X154828428Y-124211952D01*
G04 #@! TO.C,R7*
D11*
X146518238Y-122695380D02*
X147089666Y-122695380D01*
X146803952Y-122695380D02*
X146803952Y-121695380D01*
X146899190Y-121838238D01*
X146994428Y-121933476D01*
X147089666Y-121981095D01*
X145899190Y-121695380D02*
X145803952Y-121695380D01*
X145708714Y-121743000D01*
X145661095Y-121790619D01*
X145613476Y-121885857D01*
X145565857Y-122076333D01*
X145565857Y-122314428D01*
X145613476Y-122504904D01*
X145661095Y-122600142D01*
X145708714Y-122647761D01*
X145803952Y-122695380D01*
X145899190Y-122695380D01*
X145994428Y-122647761D01*
X146042047Y-122600142D01*
X146089666Y-122504904D01*
X146137285Y-122314428D01*
X146137285Y-122076333D01*
X146089666Y-121885857D01*
X146042047Y-121790619D01*
X145994428Y-121743000D01*
X145899190Y-121695380D01*
X145137285Y-122695380D02*
X145137285Y-121695380D01*
X145042047Y-122314428D02*
X144756333Y-122695380D01*
X144756333Y-122028714D02*
X145137285Y-122409666D01*
D12*
X148068095Y-122201333D02*
X147949047Y-122118000D01*
X148068095Y-122058476D02*
X147818095Y-122058476D01*
X147818095Y-122153714D01*
X147830000Y-122177523D01*
X147841904Y-122189428D01*
X147865714Y-122201333D01*
X147901428Y-122201333D01*
X147925238Y-122189428D01*
X147937142Y-122177523D01*
X147949047Y-122153714D01*
X147949047Y-122058476D01*
X147818095Y-122284666D02*
X147818095Y-122451333D01*
X148068095Y-122344190D01*
G04 #@! TO.C,R10*
D11*
X158075238Y-123007380D02*
X158646666Y-123007380D01*
X158360952Y-123007380D02*
X158360952Y-122007380D01*
X158456190Y-122150238D01*
X158551428Y-122245476D01*
X158646666Y-122293095D01*
X157456190Y-122007380D02*
X157360952Y-122007380D01*
X157265714Y-122055000D01*
X157218095Y-122102619D01*
X157170476Y-122197857D01*
X157122857Y-122388333D01*
X157122857Y-122626428D01*
X157170476Y-122816904D01*
X157218095Y-122912142D01*
X157265714Y-122959761D01*
X157360952Y-123007380D01*
X157456190Y-123007380D01*
X157551428Y-122959761D01*
X157599047Y-122912142D01*
X157646666Y-122816904D01*
X157694285Y-122626428D01*
X157694285Y-122388333D01*
X157646666Y-122197857D01*
X157599047Y-122102619D01*
X157551428Y-122055000D01*
X157456190Y-122007380D01*
X156694285Y-123007380D02*
X156694285Y-122007380D01*
X156599047Y-122626428D02*
X156313333Y-123007380D01*
X156313333Y-122340714D02*
X156694285Y-122721666D01*
D12*
X155042714Y-122668095D02*
X155126047Y-122549047D01*
X155185571Y-122668095D02*
X155185571Y-122418095D01*
X155090333Y-122418095D01*
X155066523Y-122430000D01*
X155054619Y-122441904D01*
X155042714Y-122465714D01*
X155042714Y-122501428D01*
X155054619Y-122525238D01*
X155066523Y-122537142D01*
X155090333Y-122549047D01*
X155185571Y-122549047D01*
X154804619Y-122668095D02*
X154947476Y-122668095D01*
X154876047Y-122668095D02*
X154876047Y-122418095D01*
X154899857Y-122453809D01*
X154923666Y-122477619D01*
X154947476Y-122489523D01*
X154649857Y-122418095D02*
X154626047Y-122418095D01*
X154602238Y-122430000D01*
X154590333Y-122441904D01*
X154578428Y-122465714D01*
X154566523Y-122513333D01*
X154566523Y-122572857D01*
X154578428Y-122620476D01*
X154590333Y-122644285D01*
X154602238Y-122656190D01*
X154626047Y-122668095D01*
X154649857Y-122668095D01*
X154673666Y-122656190D01*
X154685571Y-122644285D01*
X154697476Y-122620476D01*
X154709380Y-122572857D01*
X154709380Y-122513333D01*
X154697476Y-122465714D01*
X154685571Y-122441904D01*
X154673666Y-122430000D01*
X154649857Y-122418095D01*
G04 #@! TO.C,J5*
D11*
X152621190Y-124487380D02*
X152621190Y-123487380D01*
X152240238Y-123487380D01*
X152145000Y-123535000D01*
X152097380Y-123582619D01*
X152049761Y-123677857D01*
X152049761Y-123820714D01*
X152097380Y-123915952D01*
X152145000Y-123963571D01*
X152240238Y-124011190D01*
X152621190Y-124011190D01*
X151621190Y-124487380D02*
X151621190Y-123820714D01*
X151621190Y-124011190D02*
X151573571Y-123915952D01*
X151525952Y-123868333D01*
X151430714Y-123820714D01*
X151335476Y-123820714D01*
X150859285Y-124487380D02*
X150954523Y-124439761D01*
X151002142Y-124392142D01*
X151049761Y-124296904D01*
X151049761Y-124011190D01*
X151002142Y-123915952D01*
X150954523Y-123868333D01*
X150859285Y-123820714D01*
X150716428Y-123820714D01*
X150621190Y-123868333D01*
X150573571Y-123915952D01*
X150525952Y-124011190D01*
X150525952Y-124296904D01*
X150573571Y-124392142D01*
X150621190Y-124439761D01*
X150716428Y-124487380D01*
X150859285Y-124487380D01*
X149668809Y-123820714D02*
X149668809Y-124630238D01*
X149716428Y-124725476D01*
X149764047Y-124773095D01*
X149859285Y-124820714D01*
X150002142Y-124820714D01*
X150097380Y-124773095D01*
X149668809Y-124439761D02*
X149764047Y-124487380D01*
X149954523Y-124487380D01*
X150049761Y-124439761D01*
X150097380Y-124392142D01*
X150145000Y-124296904D01*
X150145000Y-124011190D01*
X150097380Y-123915952D01*
X150049761Y-123868333D01*
X149954523Y-123820714D01*
X149764047Y-123820714D01*
X149668809Y-123868333D01*
X151692619Y-129238333D02*
X150978333Y-129238333D01*
X150835476Y-129285952D01*
X150740238Y-129381190D01*
X150692619Y-129524047D01*
X150692619Y-129619285D01*
X151692619Y-128285952D02*
X151692619Y-128762142D01*
X151216428Y-128809761D01*
X151264047Y-128762142D01*
X151311666Y-128666904D01*
X151311666Y-128428809D01*
X151264047Y-128333571D01*
X151216428Y-128285952D01*
X151121190Y-128238333D01*
X150883095Y-128238333D01*
X150787857Y-128285952D01*
X150740238Y-128333571D01*
X150692619Y-128428809D01*
X150692619Y-128666904D01*
X150740238Y-128762142D01*
X150787857Y-128809761D01*
G04 #@! TD*
M02*
