G04 #@! TF.GenerationSoftware,KiCad,Pcbnew,5.0.1-33cea8e~68~ubuntu18.04.1*
G04 #@! TF.CreationDate,2018-11-09T20:27:09+01:00*
G04 #@! TF.ProjectId,Tiny-up5k,54696E792D7570356B2E6B696361645F,rev?*
G04 #@! TF.SameCoordinates,Original*
G04 #@! TF.FileFunction,Copper,L1,Top,Signal*
G04 #@! TF.FilePolarity,Positive*
%FSLAX46Y46*%
G04 Gerber Fmt 4.6, Leading zero omitted, Abs format (unit mm)*
G04 Created by KiCad (PCBNEW 5.0.1-33cea8e~68~ubuntu18.04.1) date vr 09 nov 2018 20:27:09 CET*
%MOMM*%
%LPD*%
G01*
G04 APERTURE LIST*
G04 #@! TA.AperFunction,ComponentPad*
%ADD10R,1.700000X1.700000*%
G04 #@! TD*
G04 #@! TA.AperFunction,ComponentPad*
%ADD11O,1.700000X1.700000*%
G04 #@! TD*
G04 #@! TA.AperFunction,SMDPad,CuDef*
%ADD12R,0.500000X0.900000*%
G04 #@! TD*
G04 #@! TA.AperFunction,ComponentPad*
%ADD13C,1.700000*%
G04 #@! TD*
G04 #@! TA.AperFunction,Conductor*
%ADD14C,0.100000*%
G04 #@! TD*
G04 #@! TA.AperFunction,SMDPad,CuDef*
%ADD15C,0.590000*%
G04 #@! TD*
G04 #@! TA.AperFunction,SMDPad,CuDef*
%ADD16R,1.060000X0.650000*%
G04 #@! TD*
G04 #@! TA.AperFunction,SMDPad,CuDef*
%ADD17R,0.900000X1.700000*%
G04 #@! TD*
G04 #@! TA.AperFunction,SMDPad,CuDef*
%ADD18R,0.750000X0.300000*%
G04 #@! TD*
G04 #@! TA.AperFunction,SMDPad,CuDef*
%ADD19R,1.750000X1.450000*%
G04 #@! TD*
G04 #@! TA.AperFunction,SMDPad,CuDef*
%ADD20R,1.000000X0.900000*%
G04 #@! TD*
G04 #@! TA.AperFunction,SMDPad,CuDef*
%ADD21R,1.750000X1.900000*%
G04 #@! TD*
G04 #@! TA.AperFunction,SMDPad,CuDef*
%ADD22R,0.400000X1.400000*%
G04 #@! TD*
G04 #@! TA.AperFunction,ComponentPad*
%ADD23O,1.050000X1.900000*%
G04 #@! TD*
G04 #@! TA.AperFunction,SMDPad,CuDef*
%ADD24R,1.150000X1.450000*%
G04 #@! TD*
G04 #@! TA.AperFunction,SMDPad,CuDef*
%ADD25C,5.150000*%
G04 #@! TD*
G04 #@! TA.AperFunction,SMDPad,CuDef*
%ADD26C,0.250000*%
G04 #@! TD*
G04 #@! TA.AperFunction,SMDPad,CuDef*
%ADD27C,0.875000*%
G04 #@! TD*
G04 #@! TA.AperFunction,ViaPad*
%ADD28C,0.500000*%
G04 #@! TD*
G04 #@! TA.AperFunction,Conductor*
%ADD29C,0.200000*%
G04 #@! TD*
G04 #@! TA.AperFunction,Conductor*
%ADD30C,0.150000*%
G04 #@! TD*
G04 #@! TA.AperFunction,Conductor*
%ADD31C,0.250000*%
G04 #@! TD*
G04 #@! TA.AperFunction,Conductor*
%ADD32C,0.254000*%
G04 #@! TD*
G04 APERTURE END LIST*
D10*
G04 #@! TO.P,J1,1*
G04 #@! TO.N,GND*
X143516000Y-97799100D03*
D11*
G04 #@! TO.P,J1,2*
G04 #@! TO.N,HL_02*
X143516000Y-100339100D03*
G04 #@! TO.P,J1,3*
G04 #@! TO.N,HL_03*
X143516000Y-102879100D03*
G04 #@! TO.P,J1,4*
G04 #@! TO.N,HL_04*
X143516000Y-105419100D03*
G04 #@! TO.P,J1,5*
G04 #@! TO.N,HL_05*
X143516000Y-107959100D03*
G04 #@! TO.P,J1,6*
G04 #@! TO.N,HL_06*
X143516000Y-110499100D03*
G04 #@! TO.P,J1,7*
G04 #@! TO.N,HL_07*
X143516000Y-113039100D03*
G04 #@! TO.P,J1,8*
G04 #@! TO.N,HL_08*
X143516000Y-115579100D03*
G04 #@! TO.P,J1,9*
G04 #@! TO.N,HL_09*
X143516000Y-118119100D03*
G04 #@! TO.P,J1,10*
G04 #@! TO.N,HL_10*
X143516000Y-120659100D03*
G04 #@! TO.P,J1,11*
G04 #@! TO.N,HL_11*
X143516000Y-123199100D03*
G04 #@! TO.P,J1,12*
G04 #@! TO.N,HL_12*
X143516000Y-125739100D03*
G04 #@! TO.P,J1,13*
G04 #@! TO.N,HL_13*
X143516000Y-128279100D03*
G04 #@! TO.P,J1,14*
G04 #@! TO.N,HL_14*
X143516000Y-130819100D03*
G04 #@! TD*
D12*
G04 #@! TO.P,L1,1*
G04 #@! TO.N,+5V*
X155043000Y-102425500D03*
G04 #@! TO.P,L1,2*
G04 #@! TO.N,Net-(L1-Pad2)*
X153543000Y-102425500D03*
G04 #@! TD*
D13*
G04 #@! TO.P,J2,1*
G04 #@! TO.N,+5V*
X158756000Y-97799100D03*
D11*
G04 #@! TO.P,J2,2*
G04 #@! TO.N,GND*
X158756000Y-100339100D03*
G04 #@! TO.P,J2,3*
G04 #@! TO.N,SPI_VCCIO1*
X158756000Y-102879100D03*
G04 #@! TO.P,J2,4*
G04 #@! TO.N,HR_04*
X158756000Y-105419100D03*
G04 #@! TO.P,J2,5*
G04 #@! TO.N,HR_05*
X158756000Y-107959100D03*
G04 #@! TO.P,J2,6*
G04 #@! TO.N,HR_06*
X158756000Y-110499100D03*
G04 #@! TO.P,J2,7*
G04 #@! TO.N,HR_07*
X158756000Y-113039100D03*
G04 #@! TO.P,J2,8*
G04 #@! TO.N,HR_08*
X158756000Y-115579100D03*
G04 #@! TO.P,J2,9*
G04 #@! TO.N,HR_09*
X158756000Y-118119100D03*
G04 #@! TO.P,J2,10*
G04 #@! TO.N,HR_10*
X158756000Y-120659100D03*
G04 #@! TO.P,J2,11*
G04 #@! TO.N,HR_11*
X158756000Y-123199100D03*
G04 #@! TO.P,J2,12*
G04 #@! TO.N,HR_12*
X158756000Y-125739100D03*
G04 #@! TO.P,J2,13*
G04 #@! TO.N,HR_13*
X158756000Y-128279100D03*
G04 #@! TO.P,J2,14*
G04 #@! TO.N,HR_14*
X158756000Y-130819100D03*
G04 #@! TD*
D14*
G04 #@! TO.N,SPI_VCCIO1*
G04 #@! TO.C,D1*
G36*
X147252958Y-108204210D02*
X147267276Y-108206334D01*
X147281317Y-108209851D01*
X147294946Y-108214728D01*
X147308031Y-108220917D01*
X147320447Y-108228358D01*
X147332073Y-108236981D01*
X147342798Y-108246702D01*
X147352519Y-108257427D01*
X147361142Y-108269053D01*
X147368583Y-108281469D01*
X147374772Y-108294554D01*
X147379649Y-108308183D01*
X147383166Y-108322224D01*
X147385290Y-108336542D01*
X147386000Y-108351000D01*
X147386000Y-108646000D01*
X147385290Y-108660458D01*
X147383166Y-108674776D01*
X147379649Y-108688817D01*
X147374772Y-108702446D01*
X147368583Y-108715531D01*
X147361142Y-108727947D01*
X147352519Y-108739573D01*
X147342798Y-108750298D01*
X147332073Y-108760019D01*
X147320447Y-108768642D01*
X147308031Y-108776083D01*
X147294946Y-108782272D01*
X147281317Y-108787149D01*
X147267276Y-108790666D01*
X147252958Y-108792790D01*
X147238500Y-108793500D01*
X146893500Y-108793500D01*
X146879042Y-108792790D01*
X146864724Y-108790666D01*
X146850683Y-108787149D01*
X146837054Y-108782272D01*
X146823969Y-108776083D01*
X146811553Y-108768642D01*
X146799927Y-108760019D01*
X146789202Y-108750298D01*
X146779481Y-108739573D01*
X146770858Y-108727947D01*
X146763417Y-108715531D01*
X146757228Y-108702446D01*
X146752351Y-108688817D01*
X146748834Y-108674776D01*
X146746710Y-108660458D01*
X146746000Y-108646000D01*
X146746000Y-108351000D01*
X146746710Y-108336542D01*
X146748834Y-108322224D01*
X146752351Y-108308183D01*
X146757228Y-108294554D01*
X146763417Y-108281469D01*
X146770858Y-108269053D01*
X146779481Y-108257427D01*
X146789202Y-108246702D01*
X146799927Y-108236981D01*
X146811553Y-108228358D01*
X146823969Y-108220917D01*
X146837054Y-108214728D01*
X146850683Y-108209851D01*
X146864724Y-108206334D01*
X146879042Y-108204210D01*
X146893500Y-108203500D01*
X147238500Y-108203500D01*
X147252958Y-108204210D01*
X147252958Y-108204210D01*
G37*
D15*
G04 #@! TD*
G04 #@! TO.P,D1,2*
G04 #@! TO.N,SPI_VCCIO1*
X147066000Y-108498500D03*
D14*
G04 #@! TO.N,Net-(D1-Pad1)*
G04 #@! TO.C,D1*
G36*
X147252958Y-107234210D02*
X147267276Y-107236334D01*
X147281317Y-107239851D01*
X147294946Y-107244728D01*
X147308031Y-107250917D01*
X147320447Y-107258358D01*
X147332073Y-107266981D01*
X147342798Y-107276702D01*
X147352519Y-107287427D01*
X147361142Y-107299053D01*
X147368583Y-107311469D01*
X147374772Y-107324554D01*
X147379649Y-107338183D01*
X147383166Y-107352224D01*
X147385290Y-107366542D01*
X147386000Y-107381000D01*
X147386000Y-107676000D01*
X147385290Y-107690458D01*
X147383166Y-107704776D01*
X147379649Y-107718817D01*
X147374772Y-107732446D01*
X147368583Y-107745531D01*
X147361142Y-107757947D01*
X147352519Y-107769573D01*
X147342798Y-107780298D01*
X147332073Y-107790019D01*
X147320447Y-107798642D01*
X147308031Y-107806083D01*
X147294946Y-107812272D01*
X147281317Y-107817149D01*
X147267276Y-107820666D01*
X147252958Y-107822790D01*
X147238500Y-107823500D01*
X146893500Y-107823500D01*
X146879042Y-107822790D01*
X146864724Y-107820666D01*
X146850683Y-107817149D01*
X146837054Y-107812272D01*
X146823969Y-107806083D01*
X146811553Y-107798642D01*
X146799927Y-107790019D01*
X146789202Y-107780298D01*
X146779481Y-107769573D01*
X146770858Y-107757947D01*
X146763417Y-107745531D01*
X146757228Y-107732446D01*
X146752351Y-107718817D01*
X146748834Y-107704776D01*
X146746710Y-107690458D01*
X146746000Y-107676000D01*
X146746000Y-107381000D01*
X146746710Y-107366542D01*
X146748834Y-107352224D01*
X146752351Y-107338183D01*
X146757228Y-107324554D01*
X146763417Y-107311469D01*
X146770858Y-107299053D01*
X146779481Y-107287427D01*
X146789202Y-107276702D01*
X146799927Y-107266981D01*
X146811553Y-107258358D01*
X146823969Y-107250917D01*
X146837054Y-107244728D01*
X146850683Y-107239851D01*
X146864724Y-107236334D01*
X146879042Y-107234210D01*
X146893500Y-107233500D01*
X147238500Y-107233500D01*
X147252958Y-107234210D01*
X147252958Y-107234210D01*
G37*
D15*
G04 #@! TD*
G04 #@! TO.P,D1,1*
G04 #@! TO.N,Net-(D1-Pad1)*
X147066000Y-107528500D03*
D14*
G04 #@! TO.N,Net-(D2-Pad1)*
G04 #@! TO.C,D2*
G36*
X153729958Y-107234210D02*
X153744276Y-107236334D01*
X153758317Y-107239851D01*
X153771946Y-107244728D01*
X153785031Y-107250917D01*
X153797447Y-107258358D01*
X153809073Y-107266981D01*
X153819798Y-107276702D01*
X153829519Y-107287427D01*
X153838142Y-107299053D01*
X153845583Y-107311469D01*
X153851772Y-107324554D01*
X153856649Y-107338183D01*
X153860166Y-107352224D01*
X153862290Y-107366542D01*
X153863000Y-107381000D01*
X153863000Y-107676000D01*
X153862290Y-107690458D01*
X153860166Y-107704776D01*
X153856649Y-107718817D01*
X153851772Y-107732446D01*
X153845583Y-107745531D01*
X153838142Y-107757947D01*
X153829519Y-107769573D01*
X153819798Y-107780298D01*
X153809073Y-107790019D01*
X153797447Y-107798642D01*
X153785031Y-107806083D01*
X153771946Y-107812272D01*
X153758317Y-107817149D01*
X153744276Y-107820666D01*
X153729958Y-107822790D01*
X153715500Y-107823500D01*
X153370500Y-107823500D01*
X153356042Y-107822790D01*
X153341724Y-107820666D01*
X153327683Y-107817149D01*
X153314054Y-107812272D01*
X153300969Y-107806083D01*
X153288553Y-107798642D01*
X153276927Y-107790019D01*
X153266202Y-107780298D01*
X153256481Y-107769573D01*
X153247858Y-107757947D01*
X153240417Y-107745531D01*
X153234228Y-107732446D01*
X153229351Y-107718817D01*
X153225834Y-107704776D01*
X153223710Y-107690458D01*
X153223000Y-107676000D01*
X153223000Y-107381000D01*
X153223710Y-107366542D01*
X153225834Y-107352224D01*
X153229351Y-107338183D01*
X153234228Y-107324554D01*
X153240417Y-107311469D01*
X153247858Y-107299053D01*
X153256481Y-107287427D01*
X153266202Y-107276702D01*
X153276927Y-107266981D01*
X153288553Y-107258358D01*
X153300969Y-107250917D01*
X153314054Y-107244728D01*
X153327683Y-107239851D01*
X153341724Y-107236334D01*
X153356042Y-107234210D01*
X153370500Y-107233500D01*
X153715500Y-107233500D01*
X153729958Y-107234210D01*
X153729958Y-107234210D01*
G37*
D15*
G04 #@! TD*
G04 #@! TO.P,D2,1*
G04 #@! TO.N,Net-(D2-Pad1)*
X153543000Y-107528500D03*
D14*
G04 #@! TO.N,LED*
G04 #@! TO.C,D2*
G36*
X153729958Y-108204210D02*
X153744276Y-108206334D01*
X153758317Y-108209851D01*
X153771946Y-108214728D01*
X153785031Y-108220917D01*
X153797447Y-108228358D01*
X153809073Y-108236981D01*
X153819798Y-108246702D01*
X153829519Y-108257427D01*
X153838142Y-108269053D01*
X153845583Y-108281469D01*
X153851772Y-108294554D01*
X153856649Y-108308183D01*
X153860166Y-108322224D01*
X153862290Y-108336542D01*
X153863000Y-108351000D01*
X153863000Y-108646000D01*
X153862290Y-108660458D01*
X153860166Y-108674776D01*
X153856649Y-108688817D01*
X153851772Y-108702446D01*
X153845583Y-108715531D01*
X153838142Y-108727947D01*
X153829519Y-108739573D01*
X153819798Y-108750298D01*
X153809073Y-108760019D01*
X153797447Y-108768642D01*
X153785031Y-108776083D01*
X153771946Y-108782272D01*
X153758317Y-108787149D01*
X153744276Y-108790666D01*
X153729958Y-108792790D01*
X153715500Y-108793500D01*
X153370500Y-108793500D01*
X153356042Y-108792790D01*
X153341724Y-108790666D01*
X153327683Y-108787149D01*
X153314054Y-108782272D01*
X153300969Y-108776083D01*
X153288553Y-108768642D01*
X153276927Y-108760019D01*
X153266202Y-108750298D01*
X153256481Y-108739573D01*
X153247858Y-108727947D01*
X153240417Y-108715531D01*
X153234228Y-108702446D01*
X153229351Y-108688817D01*
X153225834Y-108674776D01*
X153223710Y-108660458D01*
X153223000Y-108646000D01*
X153223000Y-108351000D01*
X153223710Y-108336542D01*
X153225834Y-108322224D01*
X153229351Y-108308183D01*
X153234228Y-108294554D01*
X153240417Y-108281469D01*
X153247858Y-108269053D01*
X153256481Y-108257427D01*
X153266202Y-108246702D01*
X153276927Y-108236981D01*
X153288553Y-108228358D01*
X153300969Y-108220917D01*
X153314054Y-108214728D01*
X153327683Y-108209851D01*
X153341724Y-108206334D01*
X153356042Y-108204210D01*
X153370500Y-108203500D01*
X153715500Y-108203500D01*
X153729958Y-108204210D01*
X153729958Y-108204210D01*
G37*
D15*
G04 #@! TD*
G04 #@! TO.P,D2,2*
G04 #@! TO.N,LED*
X153543000Y-108498500D03*
D16*
G04 #@! TO.P,U2,5*
G04 #@! TO.N,SPI_VCCIO1*
X154010000Y-105852000D03*
G04 #@! TO.P,U2,4*
G04 #@! TO.N,N/C*
X154010000Y-103952000D03*
G04 #@! TO.P,U2,3*
G04 #@! TO.N,+5V*
X156210000Y-103952000D03*
G04 #@! TO.P,U2,2*
G04 #@! TO.N,GND*
X156210000Y-104902000D03*
G04 #@! TO.P,U2,1*
G04 #@! TO.N,+5V*
X156210000Y-105852000D03*
G04 #@! TD*
G04 #@! TO.P,U4,1*
G04 #@! TO.N,SPI_VCCIO1*
X146558000Y-104013000D03*
G04 #@! TO.P,U4,2*
G04 #@! TO.N,GND*
X146558000Y-104963000D03*
G04 #@! TO.P,U4,3*
G04 #@! TO.N,SPI_VCCIO1*
X146558000Y-105913000D03*
G04 #@! TO.P,U4,4*
G04 #@! TO.N,N/C*
X148758000Y-105913000D03*
G04 #@! TO.P,U4,5*
G04 #@! TO.N,VCC_CORE*
X148758000Y-104013000D03*
G04 #@! TD*
D17*
G04 #@! TO.P,SW1,1*
G04 #@! TO.N,GND*
X149430000Y-129723100D03*
G04 #@! TO.P,SW1,2*
G04 #@! TO.N,CRESET_B*
X152830000Y-129723100D03*
G04 #@! TD*
D18*
G04 #@! TO.P,U5,1*
G04 #@! TO.N,SS*
X152580000Y-125210000D03*
G04 #@! TO.P,U5,2*
G04 #@! TO.N,SDI*
X152580000Y-124710000D03*
G04 #@! TO.P,U5,3*
G04 #@! TO.N,Net-(R10-Pad2)*
X152580000Y-124210000D03*
G04 #@! TO.P,U5,4*
G04 #@! TO.N,GND*
X152580000Y-123710000D03*
G04 #@! TO.P,U5,5*
G04 #@! TO.N,SDO*
X149680000Y-123710000D03*
G04 #@! TO.P,U5,6*
G04 #@! TO.N,SCK*
X149680000Y-124210000D03*
G04 #@! TO.P,U5,7*
G04 #@! TO.N,Net-(R7-Pad2)*
X149680000Y-124710000D03*
G04 #@! TO.P,U5,8*
G04 #@! TO.N,SPI_VCCIO1*
X149680000Y-125210000D03*
D19*
G04 #@! TO.P,U5,9*
G04 #@! TO.N,GND*
X151130000Y-124460000D03*
G04 #@! TD*
D20*
G04 #@! TO.P,U3,1*
G04 #@! TO.N,SPI_VCCIO1*
X150055000Y-121849000D03*
G04 #@! TO.P,U3,2*
G04 #@! TO.N,GND*
X152205000Y-121849000D03*
G04 #@! TO.P,U3,3*
G04 #@! TO.N,CLK*
X152205000Y-120299000D03*
G04 #@! TO.P,U3,4*
G04 #@! TO.N,SPI_VCCIO1*
X150055000Y-120299000D03*
G04 #@! TD*
D21*
G04 #@! TO.P,U6,6*
G04 #@! TO.N,GND*
X150024000Y-97934000D03*
D22*
G04 #@! TO.P,U6,2*
G04 #@! TO.N,Net-(R3-Pad2)*
X151799000Y-100584000D03*
G04 #@! TO.P,U6,1*
G04 #@! TO.N,Net-(L1-Pad2)*
X152449000Y-100584000D03*
G04 #@! TO.P,U6,5*
G04 #@! TO.N,GND*
X149849000Y-100584000D03*
G04 #@! TO.P,U6,4*
G04 #@! TO.N,N/C*
X150499000Y-100584000D03*
G04 #@! TO.P,U6,3*
G04 #@! TO.N,Net-(R1-Pad1)*
X151149000Y-100584000D03*
D21*
G04 #@! TO.P,U6,6*
G04 #@! TO.N,GND*
X152274000Y-97934000D03*
D23*
X154724000Y-97934000D03*
X147574000Y-97934000D03*
D24*
X148829000Y-100164000D03*
X153469000Y-100164000D03*
G04 #@! TD*
D14*
G04 #@! TO.N,GND*
G04 #@! TO.C,U1*
G36*
X153479503Y-111345204D02*
X153503772Y-111348804D01*
X153527570Y-111354765D01*
X153550670Y-111363030D01*
X153572849Y-111373520D01*
X153593892Y-111386133D01*
X153613598Y-111400748D01*
X153631776Y-111417224D01*
X153648252Y-111435402D01*
X153662867Y-111455108D01*
X153675480Y-111476151D01*
X153685970Y-111498330D01*
X153694235Y-111521430D01*
X153700196Y-111545228D01*
X153703796Y-111569497D01*
X153705000Y-111594001D01*
X153705000Y-116243999D01*
X153703796Y-116268503D01*
X153700196Y-116292772D01*
X153694235Y-116316570D01*
X153685970Y-116339670D01*
X153675480Y-116361849D01*
X153662867Y-116382892D01*
X153648252Y-116402598D01*
X153631776Y-116420776D01*
X153613598Y-116437252D01*
X153593892Y-116451867D01*
X153572849Y-116464480D01*
X153550670Y-116474970D01*
X153527570Y-116483235D01*
X153503772Y-116489196D01*
X153479503Y-116492796D01*
X153454999Y-116494000D01*
X148805001Y-116494000D01*
X148780497Y-116492796D01*
X148756228Y-116489196D01*
X148732430Y-116483235D01*
X148709330Y-116474970D01*
X148687151Y-116464480D01*
X148666108Y-116451867D01*
X148646402Y-116437252D01*
X148628224Y-116420776D01*
X148611748Y-116402598D01*
X148597133Y-116382892D01*
X148584520Y-116361849D01*
X148574030Y-116339670D01*
X148565765Y-116316570D01*
X148559804Y-116292772D01*
X148556204Y-116268503D01*
X148555000Y-116243999D01*
X148555000Y-111594001D01*
X148556204Y-111569497D01*
X148559804Y-111545228D01*
X148565765Y-111521430D01*
X148574030Y-111498330D01*
X148584520Y-111476151D01*
X148597133Y-111455108D01*
X148611748Y-111435402D01*
X148628224Y-111417224D01*
X148646402Y-111400748D01*
X148666108Y-111386133D01*
X148687151Y-111373520D01*
X148709330Y-111363030D01*
X148732430Y-111354765D01*
X148756228Y-111348804D01*
X148780497Y-111345204D01*
X148805001Y-111344000D01*
X153454999Y-111344000D01*
X153479503Y-111345204D01*
X153479503Y-111345204D01*
G37*
D25*
G04 #@! TD*
G04 #@! TO.P,U1,49*
G04 #@! TO.N,GND*
X151130000Y-113919000D03*
D14*
G04 #@! TO.N,SPI_VCCIO1*
G04 #@! TO.C,U1*
G36*
X153948626Y-110044301D02*
X153954693Y-110045201D01*
X153960643Y-110046691D01*
X153966418Y-110048758D01*
X153971962Y-110051380D01*
X153977223Y-110054533D01*
X153982150Y-110058187D01*
X153986694Y-110062306D01*
X153990813Y-110066850D01*
X153994467Y-110071777D01*
X153997620Y-110077038D01*
X154000242Y-110082582D01*
X154002309Y-110088357D01*
X154003799Y-110094307D01*
X154004699Y-110100374D01*
X154005000Y-110106500D01*
X154005000Y-110856500D01*
X154004699Y-110862626D01*
X154003799Y-110868693D01*
X154002309Y-110874643D01*
X154000242Y-110880418D01*
X153997620Y-110885962D01*
X153994467Y-110891223D01*
X153990813Y-110896150D01*
X153986694Y-110900694D01*
X153982150Y-110904813D01*
X153977223Y-110908467D01*
X153971962Y-110911620D01*
X153966418Y-110914242D01*
X153960643Y-110916309D01*
X153954693Y-110917799D01*
X153948626Y-110918699D01*
X153942500Y-110919000D01*
X153817500Y-110919000D01*
X153811374Y-110918699D01*
X153805307Y-110917799D01*
X153799357Y-110916309D01*
X153793582Y-110914242D01*
X153788038Y-110911620D01*
X153782777Y-110908467D01*
X153777850Y-110904813D01*
X153773306Y-110900694D01*
X153769187Y-110896150D01*
X153765533Y-110891223D01*
X153762380Y-110885962D01*
X153759758Y-110880418D01*
X153757691Y-110874643D01*
X153756201Y-110868693D01*
X153755301Y-110862626D01*
X153755000Y-110856500D01*
X153755000Y-110106500D01*
X153755301Y-110100374D01*
X153756201Y-110094307D01*
X153757691Y-110088357D01*
X153759758Y-110082582D01*
X153762380Y-110077038D01*
X153765533Y-110071777D01*
X153769187Y-110066850D01*
X153773306Y-110062306D01*
X153777850Y-110058187D01*
X153782777Y-110054533D01*
X153788038Y-110051380D01*
X153793582Y-110048758D01*
X153799357Y-110046691D01*
X153805307Y-110045201D01*
X153811374Y-110044301D01*
X153817500Y-110044000D01*
X153942500Y-110044000D01*
X153948626Y-110044301D01*
X153948626Y-110044301D01*
G37*
D26*
G04 #@! TD*
G04 #@! TO.P,U1,1*
G04 #@! TO.N,SPI_VCCIO1*
X153880000Y-110481500D03*
D14*
G04 #@! TO.N,HR_04*
G04 #@! TO.C,U1*
G36*
X153448626Y-110044301D02*
X153454693Y-110045201D01*
X153460643Y-110046691D01*
X153466418Y-110048758D01*
X153471962Y-110051380D01*
X153477223Y-110054533D01*
X153482150Y-110058187D01*
X153486694Y-110062306D01*
X153490813Y-110066850D01*
X153494467Y-110071777D01*
X153497620Y-110077038D01*
X153500242Y-110082582D01*
X153502309Y-110088357D01*
X153503799Y-110094307D01*
X153504699Y-110100374D01*
X153505000Y-110106500D01*
X153505000Y-110856500D01*
X153504699Y-110862626D01*
X153503799Y-110868693D01*
X153502309Y-110874643D01*
X153500242Y-110880418D01*
X153497620Y-110885962D01*
X153494467Y-110891223D01*
X153490813Y-110896150D01*
X153486694Y-110900694D01*
X153482150Y-110904813D01*
X153477223Y-110908467D01*
X153471962Y-110911620D01*
X153466418Y-110914242D01*
X153460643Y-110916309D01*
X153454693Y-110917799D01*
X153448626Y-110918699D01*
X153442500Y-110919000D01*
X153317500Y-110919000D01*
X153311374Y-110918699D01*
X153305307Y-110917799D01*
X153299357Y-110916309D01*
X153293582Y-110914242D01*
X153288038Y-110911620D01*
X153282777Y-110908467D01*
X153277850Y-110904813D01*
X153273306Y-110900694D01*
X153269187Y-110896150D01*
X153265533Y-110891223D01*
X153262380Y-110885962D01*
X153259758Y-110880418D01*
X153257691Y-110874643D01*
X153256201Y-110868693D01*
X153255301Y-110862626D01*
X153255000Y-110856500D01*
X153255000Y-110106500D01*
X153255301Y-110100374D01*
X153256201Y-110094307D01*
X153257691Y-110088357D01*
X153259758Y-110082582D01*
X153262380Y-110077038D01*
X153265533Y-110071777D01*
X153269187Y-110066850D01*
X153273306Y-110062306D01*
X153277850Y-110058187D01*
X153282777Y-110054533D01*
X153288038Y-110051380D01*
X153293582Y-110048758D01*
X153299357Y-110046691D01*
X153305307Y-110045201D01*
X153311374Y-110044301D01*
X153317500Y-110044000D01*
X153442500Y-110044000D01*
X153448626Y-110044301D01*
X153448626Y-110044301D01*
G37*
D26*
G04 #@! TD*
G04 #@! TO.P,U1,2*
G04 #@! TO.N,HR_04*
X153380000Y-110481500D03*
D14*
G04 #@! TO.N,LED*
G04 #@! TO.C,U1*
G36*
X152948626Y-110044301D02*
X152954693Y-110045201D01*
X152960643Y-110046691D01*
X152966418Y-110048758D01*
X152971962Y-110051380D01*
X152977223Y-110054533D01*
X152982150Y-110058187D01*
X152986694Y-110062306D01*
X152990813Y-110066850D01*
X152994467Y-110071777D01*
X152997620Y-110077038D01*
X153000242Y-110082582D01*
X153002309Y-110088357D01*
X153003799Y-110094307D01*
X153004699Y-110100374D01*
X153005000Y-110106500D01*
X153005000Y-110856500D01*
X153004699Y-110862626D01*
X153003799Y-110868693D01*
X153002309Y-110874643D01*
X153000242Y-110880418D01*
X152997620Y-110885962D01*
X152994467Y-110891223D01*
X152990813Y-110896150D01*
X152986694Y-110900694D01*
X152982150Y-110904813D01*
X152977223Y-110908467D01*
X152971962Y-110911620D01*
X152966418Y-110914242D01*
X152960643Y-110916309D01*
X152954693Y-110917799D01*
X152948626Y-110918699D01*
X152942500Y-110919000D01*
X152817500Y-110919000D01*
X152811374Y-110918699D01*
X152805307Y-110917799D01*
X152799357Y-110916309D01*
X152793582Y-110914242D01*
X152788038Y-110911620D01*
X152782777Y-110908467D01*
X152777850Y-110904813D01*
X152773306Y-110900694D01*
X152769187Y-110896150D01*
X152765533Y-110891223D01*
X152762380Y-110885962D01*
X152759758Y-110880418D01*
X152757691Y-110874643D01*
X152756201Y-110868693D01*
X152755301Y-110862626D01*
X152755000Y-110856500D01*
X152755000Y-110106500D01*
X152755301Y-110100374D01*
X152756201Y-110094307D01*
X152757691Y-110088357D01*
X152759758Y-110082582D01*
X152762380Y-110077038D01*
X152765533Y-110071777D01*
X152769187Y-110066850D01*
X152773306Y-110062306D01*
X152777850Y-110058187D01*
X152782777Y-110054533D01*
X152788038Y-110051380D01*
X152793582Y-110048758D01*
X152799357Y-110046691D01*
X152805307Y-110045201D01*
X152811374Y-110044301D01*
X152817500Y-110044000D01*
X152942500Y-110044000D01*
X152948626Y-110044301D01*
X152948626Y-110044301D01*
G37*
D26*
G04 #@! TD*
G04 #@! TO.P,U1,3*
G04 #@! TO.N,LED*
X152880000Y-110481500D03*
D14*
G04 #@! TO.N,N/C*
G04 #@! TO.C,U1*
G36*
X152448626Y-110044301D02*
X152454693Y-110045201D01*
X152460643Y-110046691D01*
X152466418Y-110048758D01*
X152471962Y-110051380D01*
X152477223Y-110054533D01*
X152482150Y-110058187D01*
X152486694Y-110062306D01*
X152490813Y-110066850D01*
X152494467Y-110071777D01*
X152497620Y-110077038D01*
X152500242Y-110082582D01*
X152502309Y-110088357D01*
X152503799Y-110094307D01*
X152504699Y-110100374D01*
X152505000Y-110106500D01*
X152505000Y-110856500D01*
X152504699Y-110862626D01*
X152503799Y-110868693D01*
X152502309Y-110874643D01*
X152500242Y-110880418D01*
X152497620Y-110885962D01*
X152494467Y-110891223D01*
X152490813Y-110896150D01*
X152486694Y-110900694D01*
X152482150Y-110904813D01*
X152477223Y-110908467D01*
X152471962Y-110911620D01*
X152466418Y-110914242D01*
X152460643Y-110916309D01*
X152454693Y-110917799D01*
X152448626Y-110918699D01*
X152442500Y-110919000D01*
X152317500Y-110919000D01*
X152311374Y-110918699D01*
X152305307Y-110917799D01*
X152299357Y-110916309D01*
X152293582Y-110914242D01*
X152288038Y-110911620D01*
X152282777Y-110908467D01*
X152277850Y-110904813D01*
X152273306Y-110900694D01*
X152269187Y-110896150D01*
X152265533Y-110891223D01*
X152262380Y-110885962D01*
X152259758Y-110880418D01*
X152257691Y-110874643D01*
X152256201Y-110868693D01*
X152255301Y-110862626D01*
X152255000Y-110856500D01*
X152255000Y-110106500D01*
X152255301Y-110100374D01*
X152256201Y-110094307D01*
X152257691Y-110088357D01*
X152259758Y-110082582D01*
X152262380Y-110077038D01*
X152265533Y-110071777D01*
X152269187Y-110066850D01*
X152273306Y-110062306D01*
X152277850Y-110058187D01*
X152282777Y-110054533D01*
X152288038Y-110051380D01*
X152293582Y-110048758D01*
X152299357Y-110046691D01*
X152305307Y-110045201D01*
X152311374Y-110044301D01*
X152317500Y-110044000D01*
X152442500Y-110044000D01*
X152448626Y-110044301D01*
X152448626Y-110044301D01*
G37*
D26*
G04 #@! TD*
G04 #@! TO.P,U1,4*
G04 #@! TO.N,N/C*
X152380000Y-110481500D03*
D14*
G04 #@! TO.N,VCC_CORE*
G04 #@! TO.C,U1*
G36*
X151948626Y-110044301D02*
X151954693Y-110045201D01*
X151960643Y-110046691D01*
X151966418Y-110048758D01*
X151971962Y-110051380D01*
X151977223Y-110054533D01*
X151982150Y-110058187D01*
X151986694Y-110062306D01*
X151990813Y-110066850D01*
X151994467Y-110071777D01*
X151997620Y-110077038D01*
X152000242Y-110082582D01*
X152002309Y-110088357D01*
X152003799Y-110094307D01*
X152004699Y-110100374D01*
X152005000Y-110106500D01*
X152005000Y-110856500D01*
X152004699Y-110862626D01*
X152003799Y-110868693D01*
X152002309Y-110874643D01*
X152000242Y-110880418D01*
X151997620Y-110885962D01*
X151994467Y-110891223D01*
X151990813Y-110896150D01*
X151986694Y-110900694D01*
X151982150Y-110904813D01*
X151977223Y-110908467D01*
X151971962Y-110911620D01*
X151966418Y-110914242D01*
X151960643Y-110916309D01*
X151954693Y-110917799D01*
X151948626Y-110918699D01*
X151942500Y-110919000D01*
X151817500Y-110919000D01*
X151811374Y-110918699D01*
X151805307Y-110917799D01*
X151799357Y-110916309D01*
X151793582Y-110914242D01*
X151788038Y-110911620D01*
X151782777Y-110908467D01*
X151777850Y-110904813D01*
X151773306Y-110900694D01*
X151769187Y-110896150D01*
X151765533Y-110891223D01*
X151762380Y-110885962D01*
X151759758Y-110880418D01*
X151757691Y-110874643D01*
X151756201Y-110868693D01*
X151755301Y-110862626D01*
X151755000Y-110856500D01*
X151755000Y-110106500D01*
X151755301Y-110100374D01*
X151756201Y-110094307D01*
X151757691Y-110088357D01*
X151759758Y-110082582D01*
X151762380Y-110077038D01*
X151765533Y-110071777D01*
X151769187Y-110066850D01*
X151773306Y-110062306D01*
X151777850Y-110058187D01*
X151782777Y-110054533D01*
X151788038Y-110051380D01*
X151793582Y-110048758D01*
X151799357Y-110046691D01*
X151805307Y-110045201D01*
X151811374Y-110044301D01*
X151817500Y-110044000D01*
X151942500Y-110044000D01*
X151948626Y-110044301D01*
X151948626Y-110044301D01*
G37*
D26*
G04 #@! TD*
G04 #@! TO.P,U1,5*
G04 #@! TO.N,VCC_CORE*
X151880000Y-110481500D03*
D14*
G04 #@! TO.N,N/C*
G04 #@! TO.C,U1*
G36*
X151448626Y-110044301D02*
X151454693Y-110045201D01*
X151460643Y-110046691D01*
X151466418Y-110048758D01*
X151471962Y-110051380D01*
X151477223Y-110054533D01*
X151482150Y-110058187D01*
X151486694Y-110062306D01*
X151490813Y-110066850D01*
X151494467Y-110071777D01*
X151497620Y-110077038D01*
X151500242Y-110082582D01*
X151502309Y-110088357D01*
X151503799Y-110094307D01*
X151504699Y-110100374D01*
X151505000Y-110106500D01*
X151505000Y-110856500D01*
X151504699Y-110862626D01*
X151503799Y-110868693D01*
X151502309Y-110874643D01*
X151500242Y-110880418D01*
X151497620Y-110885962D01*
X151494467Y-110891223D01*
X151490813Y-110896150D01*
X151486694Y-110900694D01*
X151482150Y-110904813D01*
X151477223Y-110908467D01*
X151471962Y-110911620D01*
X151466418Y-110914242D01*
X151460643Y-110916309D01*
X151454693Y-110917799D01*
X151448626Y-110918699D01*
X151442500Y-110919000D01*
X151317500Y-110919000D01*
X151311374Y-110918699D01*
X151305307Y-110917799D01*
X151299357Y-110916309D01*
X151293582Y-110914242D01*
X151288038Y-110911620D01*
X151282777Y-110908467D01*
X151277850Y-110904813D01*
X151273306Y-110900694D01*
X151269187Y-110896150D01*
X151265533Y-110891223D01*
X151262380Y-110885962D01*
X151259758Y-110880418D01*
X151257691Y-110874643D01*
X151256201Y-110868693D01*
X151255301Y-110862626D01*
X151255000Y-110856500D01*
X151255000Y-110106500D01*
X151255301Y-110100374D01*
X151256201Y-110094307D01*
X151257691Y-110088357D01*
X151259758Y-110082582D01*
X151262380Y-110077038D01*
X151265533Y-110071777D01*
X151269187Y-110066850D01*
X151273306Y-110062306D01*
X151277850Y-110058187D01*
X151282777Y-110054533D01*
X151288038Y-110051380D01*
X151293582Y-110048758D01*
X151299357Y-110046691D01*
X151305307Y-110045201D01*
X151311374Y-110044301D01*
X151317500Y-110044000D01*
X151442500Y-110044000D01*
X151448626Y-110044301D01*
X151448626Y-110044301D01*
G37*
D26*
G04 #@! TD*
G04 #@! TO.P,U1,6*
G04 #@! TO.N,N/C*
X151380000Y-110481500D03*
D14*
G04 #@! TO.N,N/C*
G04 #@! TO.C,U1*
G36*
X150948626Y-110044301D02*
X150954693Y-110045201D01*
X150960643Y-110046691D01*
X150966418Y-110048758D01*
X150971962Y-110051380D01*
X150977223Y-110054533D01*
X150982150Y-110058187D01*
X150986694Y-110062306D01*
X150990813Y-110066850D01*
X150994467Y-110071777D01*
X150997620Y-110077038D01*
X151000242Y-110082582D01*
X151002309Y-110088357D01*
X151003799Y-110094307D01*
X151004699Y-110100374D01*
X151005000Y-110106500D01*
X151005000Y-110856500D01*
X151004699Y-110862626D01*
X151003799Y-110868693D01*
X151002309Y-110874643D01*
X151000242Y-110880418D01*
X150997620Y-110885962D01*
X150994467Y-110891223D01*
X150990813Y-110896150D01*
X150986694Y-110900694D01*
X150982150Y-110904813D01*
X150977223Y-110908467D01*
X150971962Y-110911620D01*
X150966418Y-110914242D01*
X150960643Y-110916309D01*
X150954693Y-110917799D01*
X150948626Y-110918699D01*
X150942500Y-110919000D01*
X150817500Y-110919000D01*
X150811374Y-110918699D01*
X150805307Y-110917799D01*
X150799357Y-110916309D01*
X150793582Y-110914242D01*
X150788038Y-110911620D01*
X150782777Y-110908467D01*
X150777850Y-110904813D01*
X150773306Y-110900694D01*
X150769187Y-110896150D01*
X150765533Y-110891223D01*
X150762380Y-110885962D01*
X150759758Y-110880418D01*
X150757691Y-110874643D01*
X150756201Y-110868693D01*
X150755301Y-110862626D01*
X150755000Y-110856500D01*
X150755000Y-110106500D01*
X150755301Y-110100374D01*
X150756201Y-110094307D01*
X150757691Y-110088357D01*
X150759758Y-110082582D01*
X150762380Y-110077038D01*
X150765533Y-110071777D01*
X150769187Y-110066850D01*
X150773306Y-110062306D01*
X150777850Y-110058187D01*
X150782777Y-110054533D01*
X150788038Y-110051380D01*
X150793582Y-110048758D01*
X150799357Y-110046691D01*
X150805307Y-110045201D01*
X150811374Y-110044301D01*
X150817500Y-110044000D01*
X150942500Y-110044000D01*
X150948626Y-110044301D01*
X150948626Y-110044301D01*
G37*
D26*
G04 #@! TD*
G04 #@! TO.P,U1,7*
G04 #@! TO.N,N/C*
X150880000Y-110481500D03*
D14*
G04 #@! TO.N,CRESET_B*
G04 #@! TO.C,U1*
G36*
X150448626Y-110044301D02*
X150454693Y-110045201D01*
X150460643Y-110046691D01*
X150466418Y-110048758D01*
X150471962Y-110051380D01*
X150477223Y-110054533D01*
X150482150Y-110058187D01*
X150486694Y-110062306D01*
X150490813Y-110066850D01*
X150494467Y-110071777D01*
X150497620Y-110077038D01*
X150500242Y-110082582D01*
X150502309Y-110088357D01*
X150503799Y-110094307D01*
X150504699Y-110100374D01*
X150505000Y-110106500D01*
X150505000Y-110856500D01*
X150504699Y-110862626D01*
X150503799Y-110868693D01*
X150502309Y-110874643D01*
X150500242Y-110880418D01*
X150497620Y-110885962D01*
X150494467Y-110891223D01*
X150490813Y-110896150D01*
X150486694Y-110900694D01*
X150482150Y-110904813D01*
X150477223Y-110908467D01*
X150471962Y-110911620D01*
X150466418Y-110914242D01*
X150460643Y-110916309D01*
X150454693Y-110917799D01*
X150448626Y-110918699D01*
X150442500Y-110919000D01*
X150317500Y-110919000D01*
X150311374Y-110918699D01*
X150305307Y-110917799D01*
X150299357Y-110916309D01*
X150293582Y-110914242D01*
X150288038Y-110911620D01*
X150282777Y-110908467D01*
X150277850Y-110904813D01*
X150273306Y-110900694D01*
X150269187Y-110896150D01*
X150265533Y-110891223D01*
X150262380Y-110885962D01*
X150259758Y-110880418D01*
X150257691Y-110874643D01*
X150256201Y-110868693D01*
X150255301Y-110862626D01*
X150255000Y-110856500D01*
X150255000Y-110106500D01*
X150255301Y-110100374D01*
X150256201Y-110094307D01*
X150257691Y-110088357D01*
X150259758Y-110082582D01*
X150262380Y-110077038D01*
X150265533Y-110071777D01*
X150269187Y-110066850D01*
X150273306Y-110062306D01*
X150277850Y-110058187D01*
X150282777Y-110054533D01*
X150288038Y-110051380D01*
X150293582Y-110048758D01*
X150299357Y-110046691D01*
X150305307Y-110045201D01*
X150311374Y-110044301D01*
X150317500Y-110044000D01*
X150442500Y-110044000D01*
X150448626Y-110044301D01*
X150448626Y-110044301D01*
G37*
D26*
G04 #@! TD*
G04 #@! TO.P,U1,8*
G04 #@! TO.N,CRESET_B*
X150380000Y-110481500D03*
D14*
G04 #@! TO.N,HL_02*
G04 #@! TO.C,U1*
G36*
X149948626Y-110044301D02*
X149954693Y-110045201D01*
X149960643Y-110046691D01*
X149966418Y-110048758D01*
X149971962Y-110051380D01*
X149977223Y-110054533D01*
X149982150Y-110058187D01*
X149986694Y-110062306D01*
X149990813Y-110066850D01*
X149994467Y-110071777D01*
X149997620Y-110077038D01*
X150000242Y-110082582D01*
X150002309Y-110088357D01*
X150003799Y-110094307D01*
X150004699Y-110100374D01*
X150005000Y-110106500D01*
X150005000Y-110856500D01*
X150004699Y-110862626D01*
X150003799Y-110868693D01*
X150002309Y-110874643D01*
X150000242Y-110880418D01*
X149997620Y-110885962D01*
X149994467Y-110891223D01*
X149990813Y-110896150D01*
X149986694Y-110900694D01*
X149982150Y-110904813D01*
X149977223Y-110908467D01*
X149971962Y-110911620D01*
X149966418Y-110914242D01*
X149960643Y-110916309D01*
X149954693Y-110917799D01*
X149948626Y-110918699D01*
X149942500Y-110919000D01*
X149817500Y-110919000D01*
X149811374Y-110918699D01*
X149805307Y-110917799D01*
X149799357Y-110916309D01*
X149793582Y-110914242D01*
X149788038Y-110911620D01*
X149782777Y-110908467D01*
X149777850Y-110904813D01*
X149773306Y-110900694D01*
X149769187Y-110896150D01*
X149765533Y-110891223D01*
X149762380Y-110885962D01*
X149759758Y-110880418D01*
X149757691Y-110874643D01*
X149756201Y-110868693D01*
X149755301Y-110862626D01*
X149755000Y-110856500D01*
X149755000Y-110106500D01*
X149755301Y-110100374D01*
X149756201Y-110094307D01*
X149757691Y-110088357D01*
X149759758Y-110082582D01*
X149762380Y-110077038D01*
X149765533Y-110071777D01*
X149769187Y-110066850D01*
X149773306Y-110062306D01*
X149777850Y-110058187D01*
X149782777Y-110054533D01*
X149788038Y-110051380D01*
X149793582Y-110048758D01*
X149799357Y-110046691D01*
X149805307Y-110045201D01*
X149811374Y-110044301D01*
X149817500Y-110044000D01*
X149942500Y-110044000D01*
X149948626Y-110044301D01*
X149948626Y-110044301D01*
G37*
D26*
G04 #@! TD*
G04 #@! TO.P,U1,9*
G04 #@! TO.N,HL_02*
X149880000Y-110481500D03*
D14*
G04 #@! TO.N,HL_03*
G04 #@! TO.C,U1*
G36*
X149448626Y-110044301D02*
X149454693Y-110045201D01*
X149460643Y-110046691D01*
X149466418Y-110048758D01*
X149471962Y-110051380D01*
X149477223Y-110054533D01*
X149482150Y-110058187D01*
X149486694Y-110062306D01*
X149490813Y-110066850D01*
X149494467Y-110071777D01*
X149497620Y-110077038D01*
X149500242Y-110082582D01*
X149502309Y-110088357D01*
X149503799Y-110094307D01*
X149504699Y-110100374D01*
X149505000Y-110106500D01*
X149505000Y-110856500D01*
X149504699Y-110862626D01*
X149503799Y-110868693D01*
X149502309Y-110874643D01*
X149500242Y-110880418D01*
X149497620Y-110885962D01*
X149494467Y-110891223D01*
X149490813Y-110896150D01*
X149486694Y-110900694D01*
X149482150Y-110904813D01*
X149477223Y-110908467D01*
X149471962Y-110911620D01*
X149466418Y-110914242D01*
X149460643Y-110916309D01*
X149454693Y-110917799D01*
X149448626Y-110918699D01*
X149442500Y-110919000D01*
X149317500Y-110919000D01*
X149311374Y-110918699D01*
X149305307Y-110917799D01*
X149299357Y-110916309D01*
X149293582Y-110914242D01*
X149288038Y-110911620D01*
X149282777Y-110908467D01*
X149277850Y-110904813D01*
X149273306Y-110900694D01*
X149269187Y-110896150D01*
X149265533Y-110891223D01*
X149262380Y-110885962D01*
X149259758Y-110880418D01*
X149257691Y-110874643D01*
X149256201Y-110868693D01*
X149255301Y-110862626D01*
X149255000Y-110856500D01*
X149255000Y-110106500D01*
X149255301Y-110100374D01*
X149256201Y-110094307D01*
X149257691Y-110088357D01*
X149259758Y-110082582D01*
X149262380Y-110077038D01*
X149265533Y-110071777D01*
X149269187Y-110066850D01*
X149273306Y-110062306D01*
X149277850Y-110058187D01*
X149282777Y-110054533D01*
X149288038Y-110051380D01*
X149293582Y-110048758D01*
X149299357Y-110046691D01*
X149305307Y-110045201D01*
X149311374Y-110044301D01*
X149317500Y-110044000D01*
X149442500Y-110044000D01*
X149448626Y-110044301D01*
X149448626Y-110044301D01*
G37*
D26*
G04 #@! TD*
G04 #@! TO.P,U1,10*
G04 #@! TO.N,HL_03*
X149380000Y-110481500D03*
D14*
G04 #@! TO.N,HL_04*
G04 #@! TO.C,U1*
G36*
X148948626Y-110044301D02*
X148954693Y-110045201D01*
X148960643Y-110046691D01*
X148966418Y-110048758D01*
X148971962Y-110051380D01*
X148977223Y-110054533D01*
X148982150Y-110058187D01*
X148986694Y-110062306D01*
X148990813Y-110066850D01*
X148994467Y-110071777D01*
X148997620Y-110077038D01*
X149000242Y-110082582D01*
X149002309Y-110088357D01*
X149003799Y-110094307D01*
X149004699Y-110100374D01*
X149005000Y-110106500D01*
X149005000Y-110856500D01*
X149004699Y-110862626D01*
X149003799Y-110868693D01*
X149002309Y-110874643D01*
X149000242Y-110880418D01*
X148997620Y-110885962D01*
X148994467Y-110891223D01*
X148990813Y-110896150D01*
X148986694Y-110900694D01*
X148982150Y-110904813D01*
X148977223Y-110908467D01*
X148971962Y-110911620D01*
X148966418Y-110914242D01*
X148960643Y-110916309D01*
X148954693Y-110917799D01*
X148948626Y-110918699D01*
X148942500Y-110919000D01*
X148817500Y-110919000D01*
X148811374Y-110918699D01*
X148805307Y-110917799D01*
X148799357Y-110916309D01*
X148793582Y-110914242D01*
X148788038Y-110911620D01*
X148782777Y-110908467D01*
X148777850Y-110904813D01*
X148773306Y-110900694D01*
X148769187Y-110896150D01*
X148765533Y-110891223D01*
X148762380Y-110885962D01*
X148759758Y-110880418D01*
X148757691Y-110874643D01*
X148756201Y-110868693D01*
X148755301Y-110862626D01*
X148755000Y-110856500D01*
X148755000Y-110106500D01*
X148755301Y-110100374D01*
X148756201Y-110094307D01*
X148757691Y-110088357D01*
X148759758Y-110082582D01*
X148762380Y-110077038D01*
X148765533Y-110071777D01*
X148769187Y-110066850D01*
X148773306Y-110062306D01*
X148777850Y-110058187D01*
X148782777Y-110054533D01*
X148788038Y-110051380D01*
X148793582Y-110048758D01*
X148799357Y-110046691D01*
X148805307Y-110045201D01*
X148811374Y-110044301D01*
X148817500Y-110044000D01*
X148942500Y-110044000D01*
X148948626Y-110044301D01*
X148948626Y-110044301D01*
G37*
D26*
G04 #@! TD*
G04 #@! TO.P,U1,11*
G04 #@! TO.N,HL_04*
X148880000Y-110481500D03*
D14*
G04 #@! TO.N,HL_05*
G04 #@! TO.C,U1*
G36*
X148448626Y-110044301D02*
X148454693Y-110045201D01*
X148460643Y-110046691D01*
X148466418Y-110048758D01*
X148471962Y-110051380D01*
X148477223Y-110054533D01*
X148482150Y-110058187D01*
X148486694Y-110062306D01*
X148490813Y-110066850D01*
X148494467Y-110071777D01*
X148497620Y-110077038D01*
X148500242Y-110082582D01*
X148502309Y-110088357D01*
X148503799Y-110094307D01*
X148504699Y-110100374D01*
X148505000Y-110106500D01*
X148505000Y-110856500D01*
X148504699Y-110862626D01*
X148503799Y-110868693D01*
X148502309Y-110874643D01*
X148500242Y-110880418D01*
X148497620Y-110885962D01*
X148494467Y-110891223D01*
X148490813Y-110896150D01*
X148486694Y-110900694D01*
X148482150Y-110904813D01*
X148477223Y-110908467D01*
X148471962Y-110911620D01*
X148466418Y-110914242D01*
X148460643Y-110916309D01*
X148454693Y-110917799D01*
X148448626Y-110918699D01*
X148442500Y-110919000D01*
X148317500Y-110919000D01*
X148311374Y-110918699D01*
X148305307Y-110917799D01*
X148299357Y-110916309D01*
X148293582Y-110914242D01*
X148288038Y-110911620D01*
X148282777Y-110908467D01*
X148277850Y-110904813D01*
X148273306Y-110900694D01*
X148269187Y-110896150D01*
X148265533Y-110891223D01*
X148262380Y-110885962D01*
X148259758Y-110880418D01*
X148257691Y-110874643D01*
X148256201Y-110868693D01*
X148255301Y-110862626D01*
X148255000Y-110856500D01*
X148255000Y-110106500D01*
X148255301Y-110100374D01*
X148256201Y-110094307D01*
X148257691Y-110088357D01*
X148259758Y-110082582D01*
X148262380Y-110077038D01*
X148265533Y-110071777D01*
X148269187Y-110066850D01*
X148273306Y-110062306D01*
X148277850Y-110058187D01*
X148282777Y-110054533D01*
X148288038Y-110051380D01*
X148293582Y-110048758D01*
X148299357Y-110046691D01*
X148305307Y-110045201D01*
X148311374Y-110044301D01*
X148317500Y-110044000D01*
X148442500Y-110044000D01*
X148448626Y-110044301D01*
X148448626Y-110044301D01*
G37*
D26*
G04 #@! TD*
G04 #@! TO.P,U1,12*
G04 #@! TO.N,HL_05*
X148380000Y-110481500D03*
D14*
G04 #@! TO.N,HL_06*
G04 #@! TO.C,U1*
G36*
X148073626Y-111044301D02*
X148079693Y-111045201D01*
X148085643Y-111046691D01*
X148091418Y-111048758D01*
X148096962Y-111051380D01*
X148102223Y-111054533D01*
X148107150Y-111058187D01*
X148111694Y-111062306D01*
X148115813Y-111066850D01*
X148119467Y-111071777D01*
X148122620Y-111077038D01*
X148125242Y-111082582D01*
X148127309Y-111088357D01*
X148128799Y-111094307D01*
X148129699Y-111100374D01*
X148130000Y-111106500D01*
X148130000Y-111231500D01*
X148129699Y-111237626D01*
X148128799Y-111243693D01*
X148127309Y-111249643D01*
X148125242Y-111255418D01*
X148122620Y-111260962D01*
X148119467Y-111266223D01*
X148115813Y-111271150D01*
X148111694Y-111275694D01*
X148107150Y-111279813D01*
X148102223Y-111283467D01*
X148096962Y-111286620D01*
X148091418Y-111289242D01*
X148085643Y-111291309D01*
X148079693Y-111292799D01*
X148073626Y-111293699D01*
X148067500Y-111294000D01*
X147317500Y-111294000D01*
X147311374Y-111293699D01*
X147305307Y-111292799D01*
X147299357Y-111291309D01*
X147293582Y-111289242D01*
X147288038Y-111286620D01*
X147282777Y-111283467D01*
X147277850Y-111279813D01*
X147273306Y-111275694D01*
X147269187Y-111271150D01*
X147265533Y-111266223D01*
X147262380Y-111260962D01*
X147259758Y-111255418D01*
X147257691Y-111249643D01*
X147256201Y-111243693D01*
X147255301Y-111237626D01*
X147255000Y-111231500D01*
X147255000Y-111106500D01*
X147255301Y-111100374D01*
X147256201Y-111094307D01*
X147257691Y-111088357D01*
X147259758Y-111082582D01*
X147262380Y-111077038D01*
X147265533Y-111071777D01*
X147269187Y-111066850D01*
X147273306Y-111062306D01*
X147277850Y-111058187D01*
X147282777Y-111054533D01*
X147288038Y-111051380D01*
X147293582Y-111048758D01*
X147299357Y-111046691D01*
X147305307Y-111045201D01*
X147311374Y-111044301D01*
X147317500Y-111044000D01*
X148067500Y-111044000D01*
X148073626Y-111044301D01*
X148073626Y-111044301D01*
G37*
D26*
G04 #@! TD*
G04 #@! TO.P,U1,13*
G04 #@! TO.N,HL_06*
X147692500Y-111169000D03*
D14*
G04 #@! TO.N,SDI*
G04 #@! TO.C,U1*
G36*
X148073626Y-111544301D02*
X148079693Y-111545201D01*
X148085643Y-111546691D01*
X148091418Y-111548758D01*
X148096962Y-111551380D01*
X148102223Y-111554533D01*
X148107150Y-111558187D01*
X148111694Y-111562306D01*
X148115813Y-111566850D01*
X148119467Y-111571777D01*
X148122620Y-111577038D01*
X148125242Y-111582582D01*
X148127309Y-111588357D01*
X148128799Y-111594307D01*
X148129699Y-111600374D01*
X148130000Y-111606500D01*
X148130000Y-111731500D01*
X148129699Y-111737626D01*
X148128799Y-111743693D01*
X148127309Y-111749643D01*
X148125242Y-111755418D01*
X148122620Y-111760962D01*
X148119467Y-111766223D01*
X148115813Y-111771150D01*
X148111694Y-111775694D01*
X148107150Y-111779813D01*
X148102223Y-111783467D01*
X148096962Y-111786620D01*
X148091418Y-111789242D01*
X148085643Y-111791309D01*
X148079693Y-111792799D01*
X148073626Y-111793699D01*
X148067500Y-111794000D01*
X147317500Y-111794000D01*
X147311374Y-111793699D01*
X147305307Y-111792799D01*
X147299357Y-111791309D01*
X147293582Y-111789242D01*
X147288038Y-111786620D01*
X147282777Y-111783467D01*
X147277850Y-111779813D01*
X147273306Y-111775694D01*
X147269187Y-111771150D01*
X147265533Y-111766223D01*
X147262380Y-111760962D01*
X147259758Y-111755418D01*
X147257691Y-111749643D01*
X147256201Y-111743693D01*
X147255301Y-111737626D01*
X147255000Y-111731500D01*
X147255000Y-111606500D01*
X147255301Y-111600374D01*
X147256201Y-111594307D01*
X147257691Y-111588357D01*
X147259758Y-111582582D01*
X147262380Y-111577038D01*
X147265533Y-111571777D01*
X147269187Y-111566850D01*
X147273306Y-111562306D01*
X147277850Y-111558187D01*
X147282777Y-111554533D01*
X147288038Y-111551380D01*
X147293582Y-111548758D01*
X147299357Y-111546691D01*
X147305307Y-111545201D01*
X147311374Y-111544301D01*
X147317500Y-111544000D01*
X148067500Y-111544000D01*
X148073626Y-111544301D01*
X148073626Y-111544301D01*
G37*
D26*
G04 #@! TD*
G04 #@! TO.P,U1,14*
G04 #@! TO.N,SDI*
X147692500Y-111669000D03*
D14*
G04 #@! TO.N,SCK*
G04 #@! TO.C,U1*
G36*
X148073626Y-112044301D02*
X148079693Y-112045201D01*
X148085643Y-112046691D01*
X148091418Y-112048758D01*
X148096962Y-112051380D01*
X148102223Y-112054533D01*
X148107150Y-112058187D01*
X148111694Y-112062306D01*
X148115813Y-112066850D01*
X148119467Y-112071777D01*
X148122620Y-112077038D01*
X148125242Y-112082582D01*
X148127309Y-112088357D01*
X148128799Y-112094307D01*
X148129699Y-112100374D01*
X148130000Y-112106500D01*
X148130000Y-112231500D01*
X148129699Y-112237626D01*
X148128799Y-112243693D01*
X148127309Y-112249643D01*
X148125242Y-112255418D01*
X148122620Y-112260962D01*
X148119467Y-112266223D01*
X148115813Y-112271150D01*
X148111694Y-112275694D01*
X148107150Y-112279813D01*
X148102223Y-112283467D01*
X148096962Y-112286620D01*
X148091418Y-112289242D01*
X148085643Y-112291309D01*
X148079693Y-112292799D01*
X148073626Y-112293699D01*
X148067500Y-112294000D01*
X147317500Y-112294000D01*
X147311374Y-112293699D01*
X147305307Y-112292799D01*
X147299357Y-112291309D01*
X147293582Y-112289242D01*
X147288038Y-112286620D01*
X147282777Y-112283467D01*
X147277850Y-112279813D01*
X147273306Y-112275694D01*
X147269187Y-112271150D01*
X147265533Y-112266223D01*
X147262380Y-112260962D01*
X147259758Y-112255418D01*
X147257691Y-112249643D01*
X147256201Y-112243693D01*
X147255301Y-112237626D01*
X147255000Y-112231500D01*
X147255000Y-112106500D01*
X147255301Y-112100374D01*
X147256201Y-112094307D01*
X147257691Y-112088357D01*
X147259758Y-112082582D01*
X147262380Y-112077038D01*
X147265533Y-112071777D01*
X147269187Y-112066850D01*
X147273306Y-112062306D01*
X147277850Y-112058187D01*
X147282777Y-112054533D01*
X147288038Y-112051380D01*
X147293582Y-112048758D01*
X147299357Y-112046691D01*
X147305307Y-112045201D01*
X147311374Y-112044301D01*
X147317500Y-112044000D01*
X148067500Y-112044000D01*
X148073626Y-112044301D01*
X148073626Y-112044301D01*
G37*
D26*
G04 #@! TD*
G04 #@! TO.P,U1,15*
G04 #@! TO.N,SCK*
X147692500Y-112169000D03*
D14*
G04 #@! TO.N,SS*
G04 #@! TO.C,U1*
G36*
X148073626Y-112544301D02*
X148079693Y-112545201D01*
X148085643Y-112546691D01*
X148091418Y-112548758D01*
X148096962Y-112551380D01*
X148102223Y-112554533D01*
X148107150Y-112558187D01*
X148111694Y-112562306D01*
X148115813Y-112566850D01*
X148119467Y-112571777D01*
X148122620Y-112577038D01*
X148125242Y-112582582D01*
X148127309Y-112588357D01*
X148128799Y-112594307D01*
X148129699Y-112600374D01*
X148130000Y-112606500D01*
X148130000Y-112731500D01*
X148129699Y-112737626D01*
X148128799Y-112743693D01*
X148127309Y-112749643D01*
X148125242Y-112755418D01*
X148122620Y-112760962D01*
X148119467Y-112766223D01*
X148115813Y-112771150D01*
X148111694Y-112775694D01*
X148107150Y-112779813D01*
X148102223Y-112783467D01*
X148096962Y-112786620D01*
X148091418Y-112789242D01*
X148085643Y-112791309D01*
X148079693Y-112792799D01*
X148073626Y-112793699D01*
X148067500Y-112794000D01*
X147317500Y-112794000D01*
X147311374Y-112793699D01*
X147305307Y-112792799D01*
X147299357Y-112791309D01*
X147293582Y-112789242D01*
X147288038Y-112786620D01*
X147282777Y-112783467D01*
X147277850Y-112779813D01*
X147273306Y-112775694D01*
X147269187Y-112771150D01*
X147265533Y-112766223D01*
X147262380Y-112760962D01*
X147259758Y-112755418D01*
X147257691Y-112749643D01*
X147256201Y-112743693D01*
X147255301Y-112737626D01*
X147255000Y-112731500D01*
X147255000Y-112606500D01*
X147255301Y-112600374D01*
X147256201Y-112594307D01*
X147257691Y-112588357D01*
X147259758Y-112582582D01*
X147262380Y-112577038D01*
X147265533Y-112571777D01*
X147269187Y-112566850D01*
X147273306Y-112562306D01*
X147277850Y-112558187D01*
X147282777Y-112554533D01*
X147288038Y-112551380D01*
X147293582Y-112548758D01*
X147299357Y-112546691D01*
X147305307Y-112545201D01*
X147311374Y-112544301D01*
X147317500Y-112544000D01*
X148067500Y-112544000D01*
X148073626Y-112544301D01*
X148073626Y-112544301D01*
G37*
D26*
G04 #@! TD*
G04 #@! TO.P,U1,16*
G04 #@! TO.N,SS*
X147692500Y-112669000D03*
D14*
G04 #@! TO.N,SDO*
G04 #@! TO.C,U1*
G36*
X148073626Y-113044301D02*
X148079693Y-113045201D01*
X148085643Y-113046691D01*
X148091418Y-113048758D01*
X148096962Y-113051380D01*
X148102223Y-113054533D01*
X148107150Y-113058187D01*
X148111694Y-113062306D01*
X148115813Y-113066850D01*
X148119467Y-113071777D01*
X148122620Y-113077038D01*
X148125242Y-113082582D01*
X148127309Y-113088357D01*
X148128799Y-113094307D01*
X148129699Y-113100374D01*
X148130000Y-113106500D01*
X148130000Y-113231500D01*
X148129699Y-113237626D01*
X148128799Y-113243693D01*
X148127309Y-113249643D01*
X148125242Y-113255418D01*
X148122620Y-113260962D01*
X148119467Y-113266223D01*
X148115813Y-113271150D01*
X148111694Y-113275694D01*
X148107150Y-113279813D01*
X148102223Y-113283467D01*
X148096962Y-113286620D01*
X148091418Y-113289242D01*
X148085643Y-113291309D01*
X148079693Y-113292799D01*
X148073626Y-113293699D01*
X148067500Y-113294000D01*
X147317500Y-113294000D01*
X147311374Y-113293699D01*
X147305307Y-113292799D01*
X147299357Y-113291309D01*
X147293582Y-113289242D01*
X147288038Y-113286620D01*
X147282777Y-113283467D01*
X147277850Y-113279813D01*
X147273306Y-113275694D01*
X147269187Y-113271150D01*
X147265533Y-113266223D01*
X147262380Y-113260962D01*
X147259758Y-113255418D01*
X147257691Y-113249643D01*
X147256201Y-113243693D01*
X147255301Y-113237626D01*
X147255000Y-113231500D01*
X147255000Y-113106500D01*
X147255301Y-113100374D01*
X147256201Y-113094307D01*
X147257691Y-113088357D01*
X147259758Y-113082582D01*
X147262380Y-113077038D01*
X147265533Y-113071777D01*
X147269187Y-113066850D01*
X147273306Y-113062306D01*
X147277850Y-113058187D01*
X147282777Y-113054533D01*
X147288038Y-113051380D01*
X147293582Y-113048758D01*
X147299357Y-113046691D01*
X147305307Y-113045201D01*
X147311374Y-113044301D01*
X147317500Y-113044000D01*
X148067500Y-113044000D01*
X148073626Y-113044301D01*
X148073626Y-113044301D01*
G37*
D26*
G04 #@! TD*
G04 #@! TO.P,U1,17*
G04 #@! TO.N,SDO*
X147692500Y-113169000D03*
D14*
G04 #@! TO.N,HL_07*
G04 #@! TO.C,U1*
G36*
X148073626Y-113544301D02*
X148079693Y-113545201D01*
X148085643Y-113546691D01*
X148091418Y-113548758D01*
X148096962Y-113551380D01*
X148102223Y-113554533D01*
X148107150Y-113558187D01*
X148111694Y-113562306D01*
X148115813Y-113566850D01*
X148119467Y-113571777D01*
X148122620Y-113577038D01*
X148125242Y-113582582D01*
X148127309Y-113588357D01*
X148128799Y-113594307D01*
X148129699Y-113600374D01*
X148130000Y-113606500D01*
X148130000Y-113731500D01*
X148129699Y-113737626D01*
X148128799Y-113743693D01*
X148127309Y-113749643D01*
X148125242Y-113755418D01*
X148122620Y-113760962D01*
X148119467Y-113766223D01*
X148115813Y-113771150D01*
X148111694Y-113775694D01*
X148107150Y-113779813D01*
X148102223Y-113783467D01*
X148096962Y-113786620D01*
X148091418Y-113789242D01*
X148085643Y-113791309D01*
X148079693Y-113792799D01*
X148073626Y-113793699D01*
X148067500Y-113794000D01*
X147317500Y-113794000D01*
X147311374Y-113793699D01*
X147305307Y-113792799D01*
X147299357Y-113791309D01*
X147293582Y-113789242D01*
X147288038Y-113786620D01*
X147282777Y-113783467D01*
X147277850Y-113779813D01*
X147273306Y-113775694D01*
X147269187Y-113771150D01*
X147265533Y-113766223D01*
X147262380Y-113760962D01*
X147259758Y-113755418D01*
X147257691Y-113749643D01*
X147256201Y-113743693D01*
X147255301Y-113737626D01*
X147255000Y-113731500D01*
X147255000Y-113606500D01*
X147255301Y-113600374D01*
X147256201Y-113594307D01*
X147257691Y-113588357D01*
X147259758Y-113582582D01*
X147262380Y-113577038D01*
X147265533Y-113571777D01*
X147269187Y-113566850D01*
X147273306Y-113562306D01*
X147277850Y-113558187D01*
X147282777Y-113554533D01*
X147288038Y-113551380D01*
X147293582Y-113548758D01*
X147299357Y-113546691D01*
X147305307Y-113545201D01*
X147311374Y-113544301D01*
X147317500Y-113544000D01*
X148067500Y-113544000D01*
X148073626Y-113544301D01*
X148073626Y-113544301D01*
G37*
D26*
G04 #@! TD*
G04 #@! TO.P,U1,18*
G04 #@! TO.N,HL_07*
X147692500Y-113669000D03*
D14*
G04 #@! TO.N,HL_08*
G04 #@! TO.C,U1*
G36*
X148073626Y-114044301D02*
X148079693Y-114045201D01*
X148085643Y-114046691D01*
X148091418Y-114048758D01*
X148096962Y-114051380D01*
X148102223Y-114054533D01*
X148107150Y-114058187D01*
X148111694Y-114062306D01*
X148115813Y-114066850D01*
X148119467Y-114071777D01*
X148122620Y-114077038D01*
X148125242Y-114082582D01*
X148127309Y-114088357D01*
X148128799Y-114094307D01*
X148129699Y-114100374D01*
X148130000Y-114106500D01*
X148130000Y-114231500D01*
X148129699Y-114237626D01*
X148128799Y-114243693D01*
X148127309Y-114249643D01*
X148125242Y-114255418D01*
X148122620Y-114260962D01*
X148119467Y-114266223D01*
X148115813Y-114271150D01*
X148111694Y-114275694D01*
X148107150Y-114279813D01*
X148102223Y-114283467D01*
X148096962Y-114286620D01*
X148091418Y-114289242D01*
X148085643Y-114291309D01*
X148079693Y-114292799D01*
X148073626Y-114293699D01*
X148067500Y-114294000D01*
X147317500Y-114294000D01*
X147311374Y-114293699D01*
X147305307Y-114292799D01*
X147299357Y-114291309D01*
X147293582Y-114289242D01*
X147288038Y-114286620D01*
X147282777Y-114283467D01*
X147277850Y-114279813D01*
X147273306Y-114275694D01*
X147269187Y-114271150D01*
X147265533Y-114266223D01*
X147262380Y-114260962D01*
X147259758Y-114255418D01*
X147257691Y-114249643D01*
X147256201Y-114243693D01*
X147255301Y-114237626D01*
X147255000Y-114231500D01*
X147255000Y-114106500D01*
X147255301Y-114100374D01*
X147256201Y-114094307D01*
X147257691Y-114088357D01*
X147259758Y-114082582D01*
X147262380Y-114077038D01*
X147265533Y-114071777D01*
X147269187Y-114066850D01*
X147273306Y-114062306D01*
X147277850Y-114058187D01*
X147282777Y-114054533D01*
X147288038Y-114051380D01*
X147293582Y-114048758D01*
X147299357Y-114046691D01*
X147305307Y-114045201D01*
X147311374Y-114044301D01*
X147317500Y-114044000D01*
X148067500Y-114044000D01*
X148073626Y-114044301D01*
X148073626Y-114044301D01*
G37*
D26*
G04 #@! TD*
G04 #@! TO.P,U1,19*
G04 #@! TO.N,HL_08*
X147692500Y-114169000D03*
D14*
G04 #@! TO.N,HL_09*
G04 #@! TO.C,U1*
G36*
X148073626Y-114544301D02*
X148079693Y-114545201D01*
X148085643Y-114546691D01*
X148091418Y-114548758D01*
X148096962Y-114551380D01*
X148102223Y-114554533D01*
X148107150Y-114558187D01*
X148111694Y-114562306D01*
X148115813Y-114566850D01*
X148119467Y-114571777D01*
X148122620Y-114577038D01*
X148125242Y-114582582D01*
X148127309Y-114588357D01*
X148128799Y-114594307D01*
X148129699Y-114600374D01*
X148130000Y-114606500D01*
X148130000Y-114731500D01*
X148129699Y-114737626D01*
X148128799Y-114743693D01*
X148127309Y-114749643D01*
X148125242Y-114755418D01*
X148122620Y-114760962D01*
X148119467Y-114766223D01*
X148115813Y-114771150D01*
X148111694Y-114775694D01*
X148107150Y-114779813D01*
X148102223Y-114783467D01*
X148096962Y-114786620D01*
X148091418Y-114789242D01*
X148085643Y-114791309D01*
X148079693Y-114792799D01*
X148073626Y-114793699D01*
X148067500Y-114794000D01*
X147317500Y-114794000D01*
X147311374Y-114793699D01*
X147305307Y-114792799D01*
X147299357Y-114791309D01*
X147293582Y-114789242D01*
X147288038Y-114786620D01*
X147282777Y-114783467D01*
X147277850Y-114779813D01*
X147273306Y-114775694D01*
X147269187Y-114771150D01*
X147265533Y-114766223D01*
X147262380Y-114760962D01*
X147259758Y-114755418D01*
X147257691Y-114749643D01*
X147256201Y-114743693D01*
X147255301Y-114737626D01*
X147255000Y-114731500D01*
X147255000Y-114606500D01*
X147255301Y-114600374D01*
X147256201Y-114594307D01*
X147257691Y-114588357D01*
X147259758Y-114582582D01*
X147262380Y-114577038D01*
X147265533Y-114571777D01*
X147269187Y-114566850D01*
X147273306Y-114562306D01*
X147277850Y-114558187D01*
X147282777Y-114554533D01*
X147288038Y-114551380D01*
X147293582Y-114548758D01*
X147299357Y-114546691D01*
X147305307Y-114545201D01*
X147311374Y-114544301D01*
X147317500Y-114544000D01*
X148067500Y-114544000D01*
X148073626Y-114544301D01*
X148073626Y-114544301D01*
G37*
D26*
G04 #@! TD*
G04 #@! TO.P,U1,20*
G04 #@! TO.N,HL_09*
X147692500Y-114669000D03*
D14*
G04 #@! TO.N,HL_10*
G04 #@! TO.C,U1*
G36*
X148073626Y-115044301D02*
X148079693Y-115045201D01*
X148085643Y-115046691D01*
X148091418Y-115048758D01*
X148096962Y-115051380D01*
X148102223Y-115054533D01*
X148107150Y-115058187D01*
X148111694Y-115062306D01*
X148115813Y-115066850D01*
X148119467Y-115071777D01*
X148122620Y-115077038D01*
X148125242Y-115082582D01*
X148127309Y-115088357D01*
X148128799Y-115094307D01*
X148129699Y-115100374D01*
X148130000Y-115106500D01*
X148130000Y-115231500D01*
X148129699Y-115237626D01*
X148128799Y-115243693D01*
X148127309Y-115249643D01*
X148125242Y-115255418D01*
X148122620Y-115260962D01*
X148119467Y-115266223D01*
X148115813Y-115271150D01*
X148111694Y-115275694D01*
X148107150Y-115279813D01*
X148102223Y-115283467D01*
X148096962Y-115286620D01*
X148091418Y-115289242D01*
X148085643Y-115291309D01*
X148079693Y-115292799D01*
X148073626Y-115293699D01*
X148067500Y-115294000D01*
X147317500Y-115294000D01*
X147311374Y-115293699D01*
X147305307Y-115292799D01*
X147299357Y-115291309D01*
X147293582Y-115289242D01*
X147288038Y-115286620D01*
X147282777Y-115283467D01*
X147277850Y-115279813D01*
X147273306Y-115275694D01*
X147269187Y-115271150D01*
X147265533Y-115266223D01*
X147262380Y-115260962D01*
X147259758Y-115255418D01*
X147257691Y-115249643D01*
X147256201Y-115243693D01*
X147255301Y-115237626D01*
X147255000Y-115231500D01*
X147255000Y-115106500D01*
X147255301Y-115100374D01*
X147256201Y-115094307D01*
X147257691Y-115088357D01*
X147259758Y-115082582D01*
X147262380Y-115077038D01*
X147265533Y-115071777D01*
X147269187Y-115066850D01*
X147273306Y-115062306D01*
X147277850Y-115058187D01*
X147282777Y-115054533D01*
X147288038Y-115051380D01*
X147293582Y-115048758D01*
X147299357Y-115046691D01*
X147305307Y-115045201D01*
X147311374Y-115044301D01*
X147317500Y-115044000D01*
X148067500Y-115044000D01*
X148073626Y-115044301D01*
X148073626Y-115044301D01*
G37*
D26*
G04 #@! TD*
G04 #@! TO.P,U1,21*
G04 #@! TO.N,HL_10*
X147692500Y-115169000D03*
D14*
G04 #@! TO.N,SPI_VCCIO1*
G04 #@! TO.C,U1*
G36*
X148073626Y-115544301D02*
X148079693Y-115545201D01*
X148085643Y-115546691D01*
X148091418Y-115548758D01*
X148096962Y-115551380D01*
X148102223Y-115554533D01*
X148107150Y-115558187D01*
X148111694Y-115562306D01*
X148115813Y-115566850D01*
X148119467Y-115571777D01*
X148122620Y-115577038D01*
X148125242Y-115582582D01*
X148127309Y-115588357D01*
X148128799Y-115594307D01*
X148129699Y-115600374D01*
X148130000Y-115606500D01*
X148130000Y-115731500D01*
X148129699Y-115737626D01*
X148128799Y-115743693D01*
X148127309Y-115749643D01*
X148125242Y-115755418D01*
X148122620Y-115760962D01*
X148119467Y-115766223D01*
X148115813Y-115771150D01*
X148111694Y-115775694D01*
X148107150Y-115779813D01*
X148102223Y-115783467D01*
X148096962Y-115786620D01*
X148091418Y-115789242D01*
X148085643Y-115791309D01*
X148079693Y-115792799D01*
X148073626Y-115793699D01*
X148067500Y-115794000D01*
X147317500Y-115794000D01*
X147311374Y-115793699D01*
X147305307Y-115792799D01*
X147299357Y-115791309D01*
X147293582Y-115789242D01*
X147288038Y-115786620D01*
X147282777Y-115783467D01*
X147277850Y-115779813D01*
X147273306Y-115775694D01*
X147269187Y-115771150D01*
X147265533Y-115766223D01*
X147262380Y-115760962D01*
X147259758Y-115755418D01*
X147257691Y-115749643D01*
X147256201Y-115743693D01*
X147255301Y-115737626D01*
X147255000Y-115731500D01*
X147255000Y-115606500D01*
X147255301Y-115600374D01*
X147256201Y-115594307D01*
X147257691Y-115588357D01*
X147259758Y-115582582D01*
X147262380Y-115577038D01*
X147265533Y-115571777D01*
X147269187Y-115566850D01*
X147273306Y-115562306D01*
X147277850Y-115558187D01*
X147282777Y-115554533D01*
X147288038Y-115551380D01*
X147293582Y-115548758D01*
X147299357Y-115546691D01*
X147305307Y-115545201D01*
X147311374Y-115544301D01*
X147317500Y-115544000D01*
X148067500Y-115544000D01*
X148073626Y-115544301D01*
X148073626Y-115544301D01*
G37*
D26*
G04 #@! TD*
G04 #@! TO.P,U1,22*
G04 #@! TO.N,SPI_VCCIO1*
X147692500Y-115669000D03*
D14*
G04 #@! TO.N,HL_11*
G04 #@! TO.C,U1*
G36*
X148073626Y-116044301D02*
X148079693Y-116045201D01*
X148085643Y-116046691D01*
X148091418Y-116048758D01*
X148096962Y-116051380D01*
X148102223Y-116054533D01*
X148107150Y-116058187D01*
X148111694Y-116062306D01*
X148115813Y-116066850D01*
X148119467Y-116071777D01*
X148122620Y-116077038D01*
X148125242Y-116082582D01*
X148127309Y-116088357D01*
X148128799Y-116094307D01*
X148129699Y-116100374D01*
X148130000Y-116106500D01*
X148130000Y-116231500D01*
X148129699Y-116237626D01*
X148128799Y-116243693D01*
X148127309Y-116249643D01*
X148125242Y-116255418D01*
X148122620Y-116260962D01*
X148119467Y-116266223D01*
X148115813Y-116271150D01*
X148111694Y-116275694D01*
X148107150Y-116279813D01*
X148102223Y-116283467D01*
X148096962Y-116286620D01*
X148091418Y-116289242D01*
X148085643Y-116291309D01*
X148079693Y-116292799D01*
X148073626Y-116293699D01*
X148067500Y-116294000D01*
X147317500Y-116294000D01*
X147311374Y-116293699D01*
X147305307Y-116292799D01*
X147299357Y-116291309D01*
X147293582Y-116289242D01*
X147288038Y-116286620D01*
X147282777Y-116283467D01*
X147277850Y-116279813D01*
X147273306Y-116275694D01*
X147269187Y-116271150D01*
X147265533Y-116266223D01*
X147262380Y-116260962D01*
X147259758Y-116255418D01*
X147257691Y-116249643D01*
X147256201Y-116243693D01*
X147255301Y-116237626D01*
X147255000Y-116231500D01*
X147255000Y-116106500D01*
X147255301Y-116100374D01*
X147256201Y-116094307D01*
X147257691Y-116088357D01*
X147259758Y-116082582D01*
X147262380Y-116077038D01*
X147265533Y-116071777D01*
X147269187Y-116066850D01*
X147273306Y-116062306D01*
X147277850Y-116058187D01*
X147282777Y-116054533D01*
X147288038Y-116051380D01*
X147293582Y-116048758D01*
X147299357Y-116046691D01*
X147305307Y-116045201D01*
X147311374Y-116044301D01*
X147317500Y-116044000D01*
X148067500Y-116044000D01*
X148073626Y-116044301D01*
X148073626Y-116044301D01*
G37*
D26*
G04 #@! TD*
G04 #@! TO.P,U1,23*
G04 #@! TO.N,HL_11*
X147692500Y-116169000D03*
D14*
G04 #@! TO.N,SPI_VCCIO1*
G04 #@! TO.C,U1*
G36*
X148073626Y-116544301D02*
X148079693Y-116545201D01*
X148085643Y-116546691D01*
X148091418Y-116548758D01*
X148096962Y-116551380D01*
X148102223Y-116554533D01*
X148107150Y-116558187D01*
X148111694Y-116562306D01*
X148115813Y-116566850D01*
X148119467Y-116571777D01*
X148122620Y-116577038D01*
X148125242Y-116582582D01*
X148127309Y-116588357D01*
X148128799Y-116594307D01*
X148129699Y-116600374D01*
X148130000Y-116606500D01*
X148130000Y-116731500D01*
X148129699Y-116737626D01*
X148128799Y-116743693D01*
X148127309Y-116749643D01*
X148125242Y-116755418D01*
X148122620Y-116760962D01*
X148119467Y-116766223D01*
X148115813Y-116771150D01*
X148111694Y-116775694D01*
X148107150Y-116779813D01*
X148102223Y-116783467D01*
X148096962Y-116786620D01*
X148091418Y-116789242D01*
X148085643Y-116791309D01*
X148079693Y-116792799D01*
X148073626Y-116793699D01*
X148067500Y-116794000D01*
X147317500Y-116794000D01*
X147311374Y-116793699D01*
X147305307Y-116792799D01*
X147299357Y-116791309D01*
X147293582Y-116789242D01*
X147288038Y-116786620D01*
X147282777Y-116783467D01*
X147277850Y-116779813D01*
X147273306Y-116775694D01*
X147269187Y-116771150D01*
X147265533Y-116766223D01*
X147262380Y-116760962D01*
X147259758Y-116755418D01*
X147257691Y-116749643D01*
X147256201Y-116743693D01*
X147255301Y-116737626D01*
X147255000Y-116731500D01*
X147255000Y-116606500D01*
X147255301Y-116600374D01*
X147256201Y-116594307D01*
X147257691Y-116588357D01*
X147259758Y-116582582D01*
X147262380Y-116577038D01*
X147265533Y-116571777D01*
X147269187Y-116566850D01*
X147273306Y-116562306D01*
X147277850Y-116558187D01*
X147282777Y-116554533D01*
X147288038Y-116551380D01*
X147293582Y-116548758D01*
X147299357Y-116546691D01*
X147305307Y-116545201D01*
X147311374Y-116544301D01*
X147317500Y-116544000D01*
X148067500Y-116544000D01*
X148073626Y-116544301D01*
X148073626Y-116544301D01*
G37*
D26*
G04 #@! TD*
G04 #@! TO.P,U1,24*
G04 #@! TO.N,SPI_VCCIO1*
X147692500Y-116669000D03*
D14*
G04 #@! TO.N,HL_12*
G04 #@! TO.C,U1*
G36*
X148448626Y-116919301D02*
X148454693Y-116920201D01*
X148460643Y-116921691D01*
X148466418Y-116923758D01*
X148471962Y-116926380D01*
X148477223Y-116929533D01*
X148482150Y-116933187D01*
X148486694Y-116937306D01*
X148490813Y-116941850D01*
X148494467Y-116946777D01*
X148497620Y-116952038D01*
X148500242Y-116957582D01*
X148502309Y-116963357D01*
X148503799Y-116969307D01*
X148504699Y-116975374D01*
X148505000Y-116981500D01*
X148505000Y-117731500D01*
X148504699Y-117737626D01*
X148503799Y-117743693D01*
X148502309Y-117749643D01*
X148500242Y-117755418D01*
X148497620Y-117760962D01*
X148494467Y-117766223D01*
X148490813Y-117771150D01*
X148486694Y-117775694D01*
X148482150Y-117779813D01*
X148477223Y-117783467D01*
X148471962Y-117786620D01*
X148466418Y-117789242D01*
X148460643Y-117791309D01*
X148454693Y-117792799D01*
X148448626Y-117793699D01*
X148442500Y-117794000D01*
X148317500Y-117794000D01*
X148311374Y-117793699D01*
X148305307Y-117792799D01*
X148299357Y-117791309D01*
X148293582Y-117789242D01*
X148288038Y-117786620D01*
X148282777Y-117783467D01*
X148277850Y-117779813D01*
X148273306Y-117775694D01*
X148269187Y-117771150D01*
X148265533Y-117766223D01*
X148262380Y-117760962D01*
X148259758Y-117755418D01*
X148257691Y-117749643D01*
X148256201Y-117743693D01*
X148255301Y-117737626D01*
X148255000Y-117731500D01*
X148255000Y-116981500D01*
X148255301Y-116975374D01*
X148256201Y-116969307D01*
X148257691Y-116963357D01*
X148259758Y-116957582D01*
X148262380Y-116952038D01*
X148265533Y-116946777D01*
X148269187Y-116941850D01*
X148273306Y-116937306D01*
X148277850Y-116933187D01*
X148282777Y-116929533D01*
X148288038Y-116926380D01*
X148293582Y-116923758D01*
X148299357Y-116921691D01*
X148305307Y-116920201D01*
X148311374Y-116919301D01*
X148317500Y-116919000D01*
X148442500Y-116919000D01*
X148448626Y-116919301D01*
X148448626Y-116919301D01*
G37*
D26*
G04 #@! TD*
G04 #@! TO.P,U1,25*
G04 #@! TO.N,HL_12*
X148380000Y-117356500D03*
D14*
G04 #@! TO.N,HL_13*
G04 #@! TO.C,U1*
G36*
X148948626Y-116919301D02*
X148954693Y-116920201D01*
X148960643Y-116921691D01*
X148966418Y-116923758D01*
X148971962Y-116926380D01*
X148977223Y-116929533D01*
X148982150Y-116933187D01*
X148986694Y-116937306D01*
X148990813Y-116941850D01*
X148994467Y-116946777D01*
X148997620Y-116952038D01*
X149000242Y-116957582D01*
X149002309Y-116963357D01*
X149003799Y-116969307D01*
X149004699Y-116975374D01*
X149005000Y-116981500D01*
X149005000Y-117731500D01*
X149004699Y-117737626D01*
X149003799Y-117743693D01*
X149002309Y-117749643D01*
X149000242Y-117755418D01*
X148997620Y-117760962D01*
X148994467Y-117766223D01*
X148990813Y-117771150D01*
X148986694Y-117775694D01*
X148982150Y-117779813D01*
X148977223Y-117783467D01*
X148971962Y-117786620D01*
X148966418Y-117789242D01*
X148960643Y-117791309D01*
X148954693Y-117792799D01*
X148948626Y-117793699D01*
X148942500Y-117794000D01*
X148817500Y-117794000D01*
X148811374Y-117793699D01*
X148805307Y-117792799D01*
X148799357Y-117791309D01*
X148793582Y-117789242D01*
X148788038Y-117786620D01*
X148782777Y-117783467D01*
X148777850Y-117779813D01*
X148773306Y-117775694D01*
X148769187Y-117771150D01*
X148765533Y-117766223D01*
X148762380Y-117760962D01*
X148759758Y-117755418D01*
X148757691Y-117749643D01*
X148756201Y-117743693D01*
X148755301Y-117737626D01*
X148755000Y-117731500D01*
X148755000Y-116981500D01*
X148755301Y-116975374D01*
X148756201Y-116969307D01*
X148757691Y-116963357D01*
X148759758Y-116957582D01*
X148762380Y-116952038D01*
X148765533Y-116946777D01*
X148769187Y-116941850D01*
X148773306Y-116937306D01*
X148777850Y-116933187D01*
X148782777Y-116929533D01*
X148788038Y-116926380D01*
X148793582Y-116923758D01*
X148799357Y-116921691D01*
X148805307Y-116920201D01*
X148811374Y-116919301D01*
X148817500Y-116919000D01*
X148942500Y-116919000D01*
X148948626Y-116919301D01*
X148948626Y-116919301D01*
G37*
D26*
G04 #@! TD*
G04 #@! TO.P,U1,26*
G04 #@! TO.N,HL_13*
X148880000Y-117356500D03*
D14*
G04 #@! TO.N,HL_14*
G04 #@! TO.C,U1*
G36*
X149448626Y-116919301D02*
X149454693Y-116920201D01*
X149460643Y-116921691D01*
X149466418Y-116923758D01*
X149471962Y-116926380D01*
X149477223Y-116929533D01*
X149482150Y-116933187D01*
X149486694Y-116937306D01*
X149490813Y-116941850D01*
X149494467Y-116946777D01*
X149497620Y-116952038D01*
X149500242Y-116957582D01*
X149502309Y-116963357D01*
X149503799Y-116969307D01*
X149504699Y-116975374D01*
X149505000Y-116981500D01*
X149505000Y-117731500D01*
X149504699Y-117737626D01*
X149503799Y-117743693D01*
X149502309Y-117749643D01*
X149500242Y-117755418D01*
X149497620Y-117760962D01*
X149494467Y-117766223D01*
X149490813Y-117771150D01*
X149486694Y-117775694D01*
X149482150Y-117779813D01*
X149477223Y-117783467D01*
X149471962Y-117786620D01*
X149466418Y-117789242D01*
X149460643Y-117791309D01*
X149454693Y-117792799D01*
X149448626Y-117793699D01*
X149442500Y-117794000D01*
X149317500Y-117794000D01*
X149311374Y-117793699D01*
X149305307Y-117792799D01*
X149299357Y-117791309D01*
X149293582Y-117789242D01*
X149288038Y-117786620D01*
X149282777Y-117783467D01*
X149277850Y-117779813D01*
X149273306Y-117775694D01*
X149269187Y-117771150D01*
X149265533Y-117766223D01*
X149262380Y-117760962D01*
X149259758Y-117755418D01*
X149257691Y-117749643D01*
X149256201Y-117743693D01*
X149255301Y-117737626D01*
X149255000Y-117731500D01*
X149255000Y-116981500D01*
X149255301Y-116975374D01*
X149256201Y-116969307D01*
X149257691Y-116963357D01*
X149259758Y-116957582D01*
X149262380Y-116952038D01*
X149265533Y-116946777D01*
X149269187Y-116941850D01*
X149273306Y-116937306D01*
X149277850Y-116933187D01*
X149282777Y-116929533D01*
X149288038Y-116926380D01*
X149293582Y-116923758D01*
X149299357Y-116921691D01*
X149305307Y-116920201D01*
X149311374Y-116919301D01*
X149317500Y-116919000D01*
X149442500Y-116919000D01*
X149448626Y-116919301D01*
X149448626Y-116919301D01*
G37*
D26*
G04 #@! TD*
G04 #@! TO.P,U1,27*
G04 #@! TO.N,HL_14*
X149380000Y-117356500D03*
D14*
G04 #@! TO.N,N/C*
G04 #@! TO.C,U1*
G36*
X149948626Y-116919301D02*
X149954693Y-116920201D01*
X149960643Y-116921691D01*
X149966418Y-116923758D01*
X149971962Y-116926380D01*
X149977223Y-116929533D01*
X149982150Y-116933187D01*
X149986694Y-116937306D01*
X149990813Y-116941850D01*
X149994467Y-116946777D01*
X149997620Y-116952038D01*
X150000242Y-116957582D01*
X150002309Y-116963357D01*
X150003799Y-116969307D01*
X150004699Y-116975374D01*
X150005000Y-116981500D01*
X150005000Y-117731500D01*
X150004699Y-117737626D01*
X150003799Y-117743693D01*
X150002309Y-117749643D01*
X150000242Y-117755418D01*
X149997620Y-117760962D01*
X149994467Y-117766223D01*
X149990813Y-117771150D01*
X149986694Y-117775694D01*
X149982150Y-117779813D01*
X149977223Y-117783467D01*
X149971962Y-117786620D01*
X149966418Y-117789242D01*
X149960643Y-117791309D01*
X149954693Y-117792799D01*
X149948626Y-117793699D01*
X149942500Y-117794000D01*
X149817500Y-117794000D01*
X149811374Y-117793699D01*
X149805307Y-117792799D01*
X149799357Y-117791309D01*
X149793582Y-117789242D01*
X149788038Y-117786620D01*
X149782777Y-117783467D01*
X149777850Y-117779813D01*
X149773306Y-117775694D01*
X149769187Y-117771150D01*
X149765533Y-117766223D01*
X149762380Y-117760962D01*
X149759758Y-117755418D01*
X149757691Y-117749643D01*
X149756201Y-117743693D01*
X149755301Y-117737626D01*
X149755000Y-117731500D01*
X149755000Y-116981500D01*
X149755301Y-116975374D01*
X149756201Y-116969307D01*
X149757691Y-116963357D01*
X149759758Y-116957582D01*
X149762380Y-116952038D01*
X149765533Y-116946777D01*
X149769187Y-116941850D01*
X149773306Y-116937306D01*
X149777850Y-116933187D01*
X149782777Y-116929533D01*
X149788038Y-116926380D01*
X149793582Y-116923758D01*
X149799357Y-116921691D01*
X149805307Y-116920201D01*
X149811374Y-116919301D01*
X149817500Y-116919000D01*
X149942500Y-116919000D01*
X149948626Y-116919301D01*
X149948626Y-116919301D01*
G37*
D26*
G04 #@! TD*
G04 #@! TO.P,U1,28*
G04 #@! TO.N,N/C*
X149880000Y-117356500D03*
D14*
G04 #@! TO.N,VCCPLL*
G04 #@! TO.C,U1*
G36*
X150448626Y-116919301D02*
X150454693Y-116920201D01*
X150460643Y-116921691D01*
X150466418Y-116923758D01*
X150471962Y-116926380D01*
X150477223Y-116929533D01*
X150482150Y-116933187D01*
X150486694Y-116937306D01*
X150490813Y-116941850D01*
X150494467Y-116946777D01*
X150497620Y-116952038D01*
X150500242Y-116957582D01*
X150502309Y-116963357D01*
X150503799Y-116969307D01*
X150504699Y-116975374D01*
X150505000Y-116981500D01*
X150505000Y-117731500D01*
X150504699Y-117737626D01*
X150503799Y-117743693D01*
X150502309Y-117749643D01*
X150500242Y-117755418D01*
X150497620Y-117760962D01*
X150494467Y-117766223D01*
X150490813Y-117771150D01*
X150486694Y-117775694D01*
X150482150Y-117779813D01*
X150477223Y-117783467D01*
X150471962Y-117786620D01*
X150466418Y-117789242D01*
X150460643Y-117791309D01*
X150454693Y-117792799D01*
X150448626Y-117793699D01*
X150442500Y-117794000D01*
X150317500Y-117794000D01*
X150311374Y-117793699D01*
X150305307Y-117792799D01*
X150299357Y-117791309D01*
X150293582Y-117789242D01*
X150288038Y-117786620D01*
X150282777Y-117783467D01*
X150277850Y-117779813D01*
X150273306Y-117775694D01*
X150269187Y-117771150D01*
X150265533Y-117766223D01*
X150262380Y-117760962D01*
X150259758Y-117755418D01*
X150257691Y-117749643D01*
X150256201Y-117743693D01*
X150255301Y-117737626D01*
X150255000Y-117731500D01*
X150255000Y-116981500D01*
X150255301Y-116975374D01*
X150256201Y-116969307D01*
X150257691Y-116963357D01*
X150259758Y-116957582D01*
X150262380Y-116952038D01*
X150265533Y-116946777D01*
X150269187Y-116941850D01*
X150273306Y-116937306D01*
X150277850Y-116933187D01*
X150282777Y-116929533D01*
X150288038Y-116926380D01*
X150293582Y-116923758D01*
X150299357Y-116921691D01*
X150305307Y-116920201D01*
X150311374Y-116919301D01*
X150317500Y-116919000D01*
X150442500Y-116919000D01*
X150448626Y-116919301D01*
X150448626Y-116919301D01*
G37*
D26*
G04 #@! TD*
G04 #@! TO.P,U1,29*
G04 #@! TO.N,VCCPLL*
X150380000Y-117356500D03*
D14*
G04 #@! TO.N,VCC_CORE*
G04 #@! TO.C,U1*
G36*
X150948626Y-116919301D02*
X150954693Y-116920201D01*
X150960643Y-116921691D01*
X150966418Y-116923758D01*
X150971962Y-116926380D01*
X150977223Y-116929533D01*
X150982150Y-116933187D01*
X150986694Y-116937306D01*
X150990813Y-116941850D01*
X150994467Y-116946777D01*
X150997620Y-116952038D01*
X151000242Y-116957582D01*
X151002309Y-116963357D01*
X151003799Y-116969307D01*
X151004699Y-116975374D01*
X151005000Y-116981500D01*
X151005000Y-117731500D01*
X151004699Y-117737626D01*
X151003799Y-117743693D01*
X151002309Y-117749643D01*
X151000242Y-117755418D01*
X150997620Y-117760962D01*
X150994467Y-117766223D01*
X150990813Y-117771150D01*
X150986694Y-117775694D01*
X150982150Y-117779813D01*
X150977223Y-117783467D01*
X150971962Y-117786620D01*
X150966418Y-117789242D01*
X150960643Y-117791309D01*
X150954693Y-117792799D01*
X150948626Y-117793699D01*
X150942500Y-117794000D01*
X150817500Y-117794000D01*
X150811374Y-117793699D01*
X150805307Y-117792799D01*
X150799357Y-117791309D01*
X150793582Y-117789242D01*
X150788038Y-117786620D01*
X150782777Y-117783467D01*
X150777850Y-117779813D01*
X150773306Y-117775694D01*
X150769187Y-117771150D01*
X150765533Y-117766223D01*
X150762380Y-117760962D01*
X150759758Y-117755418D01*
X150757691Y-117749643D01*
X150756201Y-117743693D01*
X150755301Y-117737626D01*
X150755000Y-117731500D01*
X150755000Y-116981500D01*
X150755301Y-116975374D01*
X150756201Y-116969307D01*
X150757691Y-116963357D01*
X150759758Y-116957582D01*
X150762380Y-116952038D01*
X150765533Y-116946777D01*
X150769187Y-116941850D01*
X150773306Y-116937306D01*
X150777850Y-116933187D01*
X150782777Y-116929533D01*
X150788038Y-116926380D01*
X150793582Y-116923758D01*
X150799357Y-116921691D01*
X150805307Y-116920201D01*
X150811374Y-116919301D01*
X150817500Y-116919000D01*
X150942500Y-116919000D01*
X150948626Y-116919301D01*
X150948626Y-116919301D01*
G37*
D26*
G04 #@! TD*
G04 #@! TO.P,U1,30*
G04 #@! TO.N,VCC_CORE*
X150880000Y-117356500D03*
D14*
G04 #@! TO.N,N/C*
G04 #@! TO.C,U1*
G36*
X151448626Y-116919301D02*
X151454693Y-116920201D01*
X151460643Y-116921691D01*
X151466418Y-116923758D01*
X151471962Y-116926380D01*
X151477223Y-116929533D01*
X151482150Y-116933187D01*
X151486694Y-116937306D01*
X151490813Y-116941850D01*
X151494467Y-116946777D01*
X151497620Y-116952038D01*
X151500242Y-116957582D01*
X151502309Y-116963357D01*
X151503799Y-116969307D01*
X151504699Y-116975374D01*
X151505000Y-116981500D01*
X151505000Y-117731500D01*
X151504699Y-117737626D01*
X151503799Y-117743693D01*
X151502309Y-117749643D01*
X151500242Y-117755418D01*
X151497620Y-117760962D01*
X151494467Y-117766223D01*
X151490813Y-117771150D01*
X151486694Y-117775694D01*
X151482150Y-117779813D01*
X151477223Y-117783467D01*
X151471962Y-117786620D01*
X151466418Y-117789242D01*
X151460643Y-117791309D01*
X151454693Y-117792799D01*
X151448626Y-117793699D01*
X151442500Y-117794000D01*
X151317500Y-117794000D01*
X151311374Y-117793699D01*
X151305307Y-117792799D01*
X151299357Y-117791309D01*
X151293582Y-117789242D01*
X151288038Y-117786620D01*
X151282777Y-117783467D01*
X151277850Y-117779813D01*
X151273306Y-117775694D01*
X151269187Y-117771150D01*
X151265533Y-117766223D01*
X151262380Y-117760962D01*
X151259758Y-117755418D01*
X151257691Y-117749643D01*
X151256201Y-117743693D01*
X151255301Y-117737626D01*
X151255000Y-117731500D01*
X151255000Y-116981500D01*
X151255301Y-116975374D01*
X151256201Y-116969307D01*
X151257691Y-116963357D01*
X151259758Y-116957582D01*
X151262380Y-116952038D01*
X151265533Y-116946777D01*
X151269187Y-116941850D01*
X151273306Y-116937306D01*
X151277850Y-116933187D01*
X151282777Y-116929533D01*
X151288038Y-116926380D01*
X151293582Y-116923758D01*
X151299357Y-116921691D01*
X151305307Y-116920201D01*
X151311374Y-116919301D01*
X151317500Y-116919000D01*
X151442500Y-116919000D01*
X151448626Y-116919301D01*
X151448626Y-116919301D01*
G37*
D26*
G04 #@! TD*
G04 #@! TO.P,U1,31*
G04 #@! TO.N,N/C*
X151380000Y-117356500D03*
D14*
G04 #@! TO.N,N/C*
G04 #@! TO.C,U1*
G36*
X151948626Y-116919301D02*
X151954693Y-116920201D01*
X151960643Y-116921691D01*
X151966418Y-116923758D01*
X151971962Y-116926380D01*
X151977223Y-116929533D01*
X151982150Y-116933187D01*
X151986694Y-116937306D01*
X151990813Y-116941850D01*
X151994467Y-116946777D01*
X151997620Y-116952038D01*
X152000242Y-116957582D01*
X152002309Y-116963357D01*
X152003799Y-116969307D01*
X152004699Y-116975374D01*
X152005000Y-116981500D01*
X152005000Y-117731500D01*
X152004699Y-117737626D01*
X152003799Y-117743693D01*
X152002309Y-117749643D01*
X152000242Y-117755418D01*
X151997620Y-117760962D01*
X151994467Y-117766223D01*
X151990813Y-117771150D01*
X151986694Y-117775694D01*
X151982150Y-117779813D01*
X151977223Y-117783467D01*
X151971962Y-117786620D01*
X151966418Y-117789242D01*
X151960643Y-117791309D01*
X151954693Y-117792799D01*
X151948626Y-117793699D01*
X151942500Y-117794000D01*
X151817500Y-117794000D01*
X151811374Y-117793699D01*
X151805307Y-117792799D01*
X151799357Y-117791309D01*
X151793582Y-117789242D01*
X151788038Y-117786620D01*
X151782777Y-117783467D01*
X151777850Y-117779813D01*
X151773306Y-117775694D01*
X151769187Y-117771150D01*
X151765533Y-117766223D01*
X151762380Y-117760962D01*
X151759758Y-117755418D01*
X151757691Y-117749643D01*
X151756201Y-117743693D01*
X151755301Y-117737626D01*
X151755000Y-117731500D01*
X151755000Y-116981500D01*
X151755301Y-116975374D01*
X151756201Y-116969307D01*
X151757691Y-116963357D01*
X151759758Y-116957582D01*
X151762380Y-116952038D01*
X151765533Y-116946777D01*
X151769187Y-116941850D01*
X151773306Y-116937306D01*
X151777850Y-116933187D01*
X151782777Y-116929533D01*
X151788038Y-116926380D01*
X151793582Y-116923758D01*
X151799357Y-116921691D01*
X151805307Y-116920201D01*
X151811374Y-116919301D01*
X151817500Y-116919000D01*
X151942500Y-116919000D01*
X151948626Y-116919301D01*
X151948626Y-116919301D01*
G37*
D26*
G04 #@! TD*
G04 #@! TO.P,U1,32*
G04 #@! TO.N,N/C*
X151880000Y-117356500D03*
D14*
G04 #@! TO.N,SPI_VCCIO1*
G04 #@! TO.C,U1*
G36*
X152448626Y-116919301D02*
X152454693Y-116920201D01*
X152460643Y-116921691D01*
X152466418Y-116923758D01*
X152471962Y-116926380D01*
X152477223Y-116929533D01*
X152482150Y-116933187D01*
X152486694Y-116937306D01*
X152490813Y-116941850D01*
X152494467Y-116946777D01*
X152497620Y-116952038D01*
X152500242Y-116957582D01*
X152502309Y-116963357D01*
X152503799Y-116969307D01*
X152504699Y-116975374D01*
X152505000Y-116981500D01*
X152505000Y-117731500D01*
X152504699Y-117737626D01*
X152503799Y-117743693D01*
X152502309Y-117749643D01*
X152500242Y-117755418D01*
X152497620Y-117760962D01*
X152494467Y-117766223D01*
X152490813Y-117771150D01*
X152486694Y-117775694D01*
X152482150Y-117779813D01*
X152477223Y-117783467D01*
X152471962Y-117786620D01*
X152466418Y-117789242D01*
X152460643Y-117791309D01*
X152454693Y-117792799D01*
X152448626Y-117793699D01*
X152442500Y-117794000D01*
X152317500Y-117794000D01*
X152311374Y-117793699D01*
X152305307Y-117792799D01*
X152299357Y-117791309D01*
X152293582Y-117789242D01*
X152288038Y-117786620D01*
X152282777Y-117783467D01*
X152277850Y-117779813D01*
X152273306Y-117775694D01*
X152269187Y-117771150D01*
X152265533Y-117766223D01*
X152262380Y-117760962D01*
X152259758Y-117755418D01*
X152257691Y-117749643D01*
X152256201Y-117743693D01*
X152255301Y-117737626D01*
X152255000Y-117731500D01*
X152255000Y-116981500D01*
X152255301Y-116975374D01*
X152256201Y-116969307D01*
X152257691Y-116963357D01*
X152259758Y-116957582D01*
X152262380Y-116952038D01*
X152265533Y-116946777D01*
X152269187Y-116941850D01*
X152273306Y-116937306D01*
X152277850Y-116933187D01*
X152282777Y-116929533D01*
X152288038Y-116926380D01*
X152293582Y-116923758D01*
X152299357Y-116921691D01*
X152305307Y-116920201D01*
X152311374Y-116919301D01*
X152317500Y-116919000D01*
X152442500Y-116919000D01*
X152448626Y-116919301D01*
X152448626Y-116919301D01*
G37*
D26*
G04 #@! TD*
G04 #@! TO.P,U1,33*
G04 #@! TO.N,SPI_VCCIO1*
X152380000Y-117356500D03*
D14*
G04 #@! TO.N,HR_14*
G04 #@! TO.C,U1*
G36*
X152948626Y-116919301D02*
X152954693Y-116920201D01*
X152960643Y-116921691D01*
X152966418Y-116923758D01*
X152971962Y-116926380D01*
X152977223Y-116929533D01*
X152982150Y-116933187D01*
X152986694Y-116937306D01*
X152990813Y-116941850D01*
X152994467Y-116946777D01*
X152997620Y-116952038D01*
X153000242Y-116957582D01*
X153002309Y-116963357D01*
X153003799Y-116969307D01*
X153004699Y-116975374D01*
X153005000Y-116981500D01*
X153005000Y-117731500D01*
X153004699Y-117737626D01*
X153003799Y-117743693D01*
X153002309Y-117749643D01*
X153000242Y-117755418D01*
X152997620Y-117760962D01*
X152994467Y-117766223D01*
X152990813Y-117771150D01*
X152986694Y-117775694D01*
X152982150Y-117779813D01*
X152977223Y-117783467D01*
X152971962Y-117786620D01*
X152966418Y-117789242D01*
X152960643Y-117791309D01*
X152954693Y-117792799D01*
X152948626Y-117793699D01*
X152942500Y-117794000D01*
X152817500Y-117794000D01*
X152811374Y-117793699D01*
X152805307Y-117792799D01*
X152799357Y-117791309D01*
X152793582Y-117789242D01*
X152788038Y-117786620D01*
X152782777Y-117783467D01*
X152777850Y-117779813D01*
X152773306Y-117775694D01*
X152769187Y-117771150D01*
X152765533Y-117766223D01*
X152762380Y-117760962D01*
X152759758Y-117755418D01*
X152757691Y-117749643D01*
X152756201Y-117743693D01*
X152755301Y-117737626D01*
X152755000Y-117731500D01*
X152755000Y-116981500D01*
X152755301Y-116975374D01*
X152756201Y-116969307D01*
X152757691Y-116963357D01*
X152759758Y-116957582D01*
X152762380Y-116952038D01*
X152765533Y-116946777D01*
X152769187Y-116941850D01*
X152773306Y-116937306D01*
X152777850Y-116933187D01*
X152782777Y-116929533D01*
X152788038Y-116926380D01*
X152793582Y-116923758D01*
X152799357Y-116921691D01*
X152805307Y-116920201D01*
X152811374Y-116919301D01*
X152817500Y-116919000D01*
X152942500Y-116919000D01*
X152948626Y-116919301D01*
X152948626Y-116919301D01*
G37*
D26*
G04 #@! TD*
G04 #@! TO.P,U1,34*
G04 #@! TO.N,HR_14*
X152880000Y-117356500D03*
D14*
G04 #@! TO.N,CLK*
G04 #@! TO.C,U1*
G36*
X153448626Y-116919301D02*
X153454693Y-116920201D01*
X153460643Y-116921691D01*
X153466418Y-116923758D01*
X153471962Y-116926380D01*
X153477223Y-116929533D01*
X153482150Y-116933187D01*
X153486694Y-116937306D01*
X153490813Y-116941850D01*
X153494467Y-116946777D01*
X153497620Y-116952038D01*
X153500242Y-116957582D01*
X153502309Y-116963357D01*
X153503799Y-116969307D01*
X153504699Y-116975374D01*
X153505000Y-116981500D01*
X153505000Y-117731500D01*
X153504699Y-117737626D01*
X153503799Y-117743693D01*
X153502309Y-117749643D01*
X153500242Y-117755418D01*
X153497620Y-117760962D01*
X153494467Y-117766223D01*
X153490813Y-117771150D01*
X153486694Y-117775694D01*
X153482150Y-117779813D01*
X153477223Y-117783467D01*
X153471962Y-117786620D01*
X153466418Y-117789242D01*
X153460643Y-117791309D01*
X153454693Y-117792799D01*
X153448626Y-117793699D01*
X153442500Y-117794000D01*
X153317500Y-117794000D01*
X153311374Y-117793699D01*
X153305307Y-117792799D01*
X153299357Y-117791309D01*
X153293582Y-117789242D01*
X153288038Y-117786620D01*
X153282777Y-117783467D01*
X153277850Y-117779813D01*
X153273306Y-117775694D01*
X153269187Y-117771150D01*
X153265533Y-117766223D01*
X153262380Y-117760962D01*
X153259758Y-117755418D01*
X153257691Y-117749643D01*
X153256201Y-117743693D01*
X153255301Y-117737626D01*
X153255000Y-117731500D01*
X153255000Y-116981500D01*
X153255301Y-116975374D01*
X153256201Y-116969307D01*
X153257691Y-116963357D01*
X153259758Y-116957582D01*
X153262380Y-116952038D01*
X153265533Y-116946777D01*
X153269187Y-116941850D01*
X153273306Y-116937306D01*
X153277850Y-116933187D01*
X153282777Y-116929533D01*
X153288038Y-116926380D01*
X153293582Y-116923758D01*
X153299357Y-116921691D01*
X153305307Y-116920201D01*
X153311374Y-116919301D01*
X153317500Y-116919000D01*
X153442500Y-116919000D01*
X153448626Y-116919301D01*
X153448626Y-116919301D01*
G37*
D26*
G04 #@! TD*
G04 #@! TO.P,U1,35*
G04 #@! TO.N,CLK*
X153380000Y-117356500D03*
D14*
G04 #@! TO.N,HR_13*
G04 #@! TO.C,U1*
G36*
X153948626Y-116919301D02*
X153954693Y-116920201D01*
X153960643Y-116921691D01*
X153966418Y-116923758D01*
X153971962Y-116926380D01*
X153977223Y-116929533D01*
X153982150Y-116933187D01*
X153986694Y-116937306D01*
X153990813Y-116941850D01*
X153994467Y-116946777D01*
X153997620Y-116952038D01*
X154000242Y-116957582D01*
X154002309Y-116963357D01*
X154003799Y-116969307D01*
X154004699Y-116975374D01*
X154005000Y-116981500D01*
X154005000Y-117731500D01*
X154004699Y-117737626D01*
X154003799Y-117743693D01*
X154002309Y-117749643D01*
X154000242Y-117755418D01*
X153997620Y-117760962D01*
X153994467Y-117766223D01*
X153990813Y-117771150D01*
X153986694Y-117775694D01*
X153982150Y-117779813D01*
X153977223Y-117783467D01*
X153971962Y-117786620D01*
X153966418Y-117789242D01*
X153960643Y-117791309D01*
X153954693Y-117792799D01*
X153948626Y-117793699D01*
X153942500Y-117794000D01*
X153817500Y-117794000D01*
X153811374Y-117793699D01*
X153805307Y-117792799D01*
X153799357Y-117791309D01*
X153793582Y-117789242D01*
X153788038Y-117786620D01*
X153782777Y-117783467D01*
X153777850Y-117779813D01*
X153773306Y-117775694D01*
X153769187Y-117771150D01*
X153765533Y-117766223D01*
X153762380Y-117760962D01*
X153759758Y-117755418D01*
X153757691Y-117749643D01*
X153756201Y-117743693D01*
X153755301Y-117737626D01*
X153755000Y-117731500D01*
X153755000Y-116981500D01*
X153755301Y-116975374D01*
X153756201Y-116969307D01*
X153757691Y-116963357D01*
X153759758Y-116957582D01*
X153762380Y-116952038D01*
X153765533Y-116946777D01*
X153769187Y-116941850D01*
X153773306Y-116937306D01*
X153777850Y-116933187D01*
X153782777Y-116929533D01*
X153788038Y-116926380D01*
X153793582Y-116923758D01*
X153799357Y-116921691D01*
X153805307Y-116920201D01*
X153811374Y-116919301D01*
X153817500Y-116919000D01*
X153942500Y-116919000D01*
X153948626Y-116919301D01*
X153948626Y-116919301D01*
G37*
D26*
G04 #@! TD*
G04 #@! TO.P,U1,36*
G04 #@! TO.N,HR_13*
X153880000Y-117356500D03*
D14*
G04 #@! TO.N,HR_12*
G04 #@! TO.C,U1*
G36*
X154948626Y-116544301D02*
X154954693Y-116545201D01*
X154960643Y-116546691D01*
X154966418Y-116548758D01*
X154971962Y-116551380D01*
X154977223Y-116554533D01*
X154982150Y-116558187D01*
X154986694Y-116562306D01*
X154990813Y-116566850D01*
X154994467Y-116571777D01*
X154997620Y-116577038D01*
X155000242Y-116582582D01*
X155002309Y-116588357D01*
X155003799Y-116594307D01*
X155004699Y-116600374D01*
X155005000Y-116606500D01*
X155005000Y-116731500D01*
X155004699Y-116737626D01*
X155003799Y-116743693D01*
X155002309Y-116749643D01*
X155000242Y-116755418D01*
X154997620Y-116760962D01*
X154994467Y-116766223D01*
X154990813Y-116771150D01*
X154986694Y-116775694D01*
X154982150Y-116779813D01*
X154977223Y-116783467D01*
X154971962Y-116786620D01*
X154966418Y-116789242D01*
X154960643Y-116791309D01*
X154954693Y-116792799D01*
X154948626Y-116793699D01*
X154942500Y-116794000D01*
X154192500Y-116794000D01*
X154186374Y-116793699D01*
X154180307Y-116792799D01*
X154174357Y-116791309D01*
X154168582Y-116789242D01*
X154163038Y-116786620D01*
X154157777Y-116783467D01*
X154152850Y-116779813D01*
X154148306Y-116775694D01*
X154144187Y-116771150D01*
X154140533Y-116766223D01*
X154137380Y-116760962D01*
X154134758Y-116755418D01*
X154132691Y-116749643D01*
X154131201Y-116743693D01*
X154130301Y-116737626D01*
X154130000Y-116731500D01*
X154130000Y-116606500D01*
X154130301Y-116600374D01*
X154131201Y-116594307D01*
X154132691Y-116588357D01*
X154134758Y-116582582D01*
X154137380Y-116577038D01*
X154140533Y-116571777D01*
X154144187Y-116566850D01*
X154148306Y-116562306D01*
X154152850Y-116558187D01*
X154157777Y-116554533D01*
X154163038Y-116551380D01*
X154168582Y-116548758D01*
X154174357Y-116546691D01*
X154180307Y-116545201D01*
X154186374Y-116544301D01*
X154192500Y-116544000D01*
X154942500Y-116544000D01*
X154948626Y-116544301D01*
X154948626Y-116544301D01*
G37*
D26*
G04 #@! TD*
G04 #@! TO.P,U1,37*
G04 #@! TO.N,HR_12*
X154567500Y-116669000D03*
D14*
G04 #@! TO.N,HR_11*
G04 #@! TO.C,U1*
G36*
X154948626Y-116044301D02*
X154954693Y-116045201D01*
X154960643Y-116046691D01*
X154966418Y-116048758D01*
X154971962Y-116051380D01*
X154977223Y-116054533D01*
X154982150Y-116058187D01*
X154986694Y-116062306D01*
X154990813Y-116066850D01*
X154994467Y-116071777D01*
X154997620Y-116077038D01*
X155000242Y-116082582D01*
X155002309Y-116088357D01*
X155003799Y-116094307D01*
X155004699Y-116100374D01*
X155005000Y-116106500D01*
X155005000Y-116231500D01*
X155004699Y-116237626D01*
X155003799Y-116243693D01*
X155002309Y-116249643D01*
X155000242Y-116255418D01*
X154997620Y-116260962D01*
X154994467Y-116266223D01*
X154990813Y-116271150D01*
X154986694Y-116275694D01*
X154982150Y-116279813D01*
X154977223Y-116283467D01*
X154971962Y-116286620D01*
X154966418Y-116289242D01*
X154960643Y-116291309D01*
X154954693Y-116292799D01*
X154948626Y-116293699D01*
X154942500Y-116294000D01*
X154192500Y-116294000D01*
X154186374Y-116293699D01*
X154180307Y-116292799D01*
X154174357Y-116291309D01*
X154168582Y-116289242D01*
X154163038Y-116286620D01*
X154157777Y-116283467D01*
X154152850Y-116279813D01*
X154148306Y-116275694D01*
X154144187Y-116271150D01*
X154140533Y-116266223D01*
X154137380Y-116260962D01*
X154134758Y-116255418D01*
X154132691Y-116249643D01*
X154131201Y-116243693D01*
X154130301Y-116237626D01*
X154130000Y-116231500D01*
X154130000Y-116106500D01*
X154130301Y-116100374D01*
X154131201Y-116094307D01*
X154132691Y-116088357D01*
X154134758Y-116082582D01*
X154137380Y-116077038D01*
X154140533Y-116071777D01*
X154144187Y-116066850D01*
X154148306Y-116062306D01*
X154152850Y-116058187D01*
X154157777Y-116054533D01*
X154163038Y-116051380D01*
X154168582Y-116048758D01*
X154174357Y-116046691D01*
X154180307Y-116045201D01*
X154186374Y-116044301D01*
X154192500Y-116044000D01*
X154942500Y-116044000D01*
X154948626Y-116044301D01*
X154948626Y-116044301D01*
G37*
D26*
G04 #@! TD*
G04 #@! TO.P,U1,38*
G04 #@! TO.N,HR_11*
X154567500Y-116169000D03*
D14*
G04 #@! TO.N,HR_10*
G04 #@! TO.C,U1*
G36*
X154948626Y-115544301D02*
X154954693Y-115545201D01*
X154960643Y-115546691D01*
X154966418Y-115548758D01*
X154971962Y-115551380D01*
X154977223Y-115554533D01*
X154982150Y-115558187D01*
X154986694Y-115562306D01*
X154990813Y-115566850D01*
X154994467Y-115571777D01*
X154997620Y-115577038D01*
X155000242Y-115582582D01*
X155002309Y-115588357D01*
X155003799Y-115594307D01*
X155004699Y-115600374D01*
X155005000Y-115606500D01*
X155005000Y-115731500D01*
X155004699Y-115737626D01*
X155003799Y-115743693D01*
X155002309Y-115749643D01*
X155000242Y-115755418D01*
X154997620Y-115760962D01*
X154994467Y-115766223D01*
X154990813Y-115771150D01*
X154986694Y-115775694D01*
X154982150Y-115779813D01*
X154977223Y-115783467D01*
X154971962Y-115786620D01*
X154966418Y-115789242D01*
X154960643Y-115791309D01*
X154954693Y-115792799D01*
X154948626Y-115793699D01*
X154942500Y-115794000D01*
X154192500Y-115794000D01*
X154186374Y-115793699D01*
X154180307Y-115792799D01*
X154174357Y-115791309D01*
X154168582Y-115789242D01*
X154163038Y-115786620D01*
X154157777Y-115783467D01*
X154152850Y-115779813D01*
X154148306Y-115775694D01*
X154144187Y-115771150D01*
X154140533Y-115766223D01*
X154137380Y-115760962D01*
X154134758Y-115755418D01*
X154132691Y-115749643D01*
X154131201Y-115743693D01*
X154130301Y-115737626D01*
X154130000Y-115731500D01*
X154130000Y-115606500D01*
X154130301Y-115600374D01*
X154131201Y-115594307D01*
X154132691Y-115588357D01*
X154134758Y-115582582D01*
X154137380Y-115577038D01*
X154140533Y-115571777D01*
X154144187Y-115566850D01*
X154148306Y-115562306D01*
X154152850Y-115558187D01*
X154157777Y-115554533D01*
X154163038Y-115551380D01*
X154168582Y-115548758D01*
X154174357Y-115546691D01*
X154180307Y-115545201D01*
X154186374Y-115544301D01*
X154192500Y-115544000D01*
X154942500Y-115544000D01*
X154948626Y-115544301D01*
X154948626Y-115544301D01*
G37*
D26*
G04 #@! TD*
G04 #@! TO.P,U1,39*
G04 #@! TO.N,HR_10*
X154567500Y-115669000D03*
D14*
G04 #@! TO.N,HR_09*
G04 #@! TO.C,U1*
G36*
X154948626Y-115044301D02*
X154954693Y-115045201D01*
X154960643Y-115046691D01*
X154966418Y-115048758D01*
X154971962Y-115051380D01*
X154977223Y-115054533D01*
X154982150Y-115058187D01*
X154986694Y-115062306D01*
X154990813Y-115066850D01*
X154994467Y-115071777D01*
X154997620Y-115077038D01*
X155000242Y-115082582D01*
X155002309Y-115088357D01*
X155003799Y-115094307D01*
X155004699Y-115100374D01*
X155005000Y-115106500D01*
X155005000Y-115231500D01*
X155004699Y-115237626D01*
X155003799Y-115243693D01*
X155002309Y-115249643D01*
X155000242Y-115255418D01*
X154997620Y-115260962D01*
X154994467Y-115266223D01*
X154990813Y-115271150D01*
X154986694Y-115275694D01*
X154982150Y-115279813D01*
X154977223Y-115283467D01*
X154971962Y-115286620D01*
X154966418Y-115289242D01*
X154960643Y-115291309D01*
X154954693Y-115292799D01*
X154948626Y-115293699D01*
X154942500Y-115294000D01*
X154192500Y-115294000D01*
X154186374Y-115293699D01*
X154180307Y-115292799D01*
X154174357Y-115291309D01*
X154168582Y-115289242D01*
X154163038Y-115286620D01*
X154157777Y-115283467D01*
X154152850Y-115279813D01*
X154148306Y-115275694D01*
X154144187Y-115271150D01*
X154140533Y-115266223D01*
X154137380Y-115260962D01*
X154134758Y-115255418D01*
X154132691Y-115249643D01*
X154131201Y-115243693D01*
X154130301Y-115237626D01*
X154130000Y-115231500D01*
X154130000Y-115106500D01*
X154130301Y-115100374D01*
X154131201Y-115094307D01*
X154132691Y-115088357D01*
X154134758Y-115082582D01*
X154137380Y-115077038D01*
X154140533Y-115071777D01*
X154144187Y-115066850D01*
X154148306Y-115062306D01*
X154152850Y-115058187D01*
X154157777Y-115054533D01*
X154163038Y-115051380D01*
X154168582Y-115048758D01*
X154174357Y-115046691D01*
X154180307Y-115045201D01*
X154186374Y-115044301D01*
X154192500Y-115044000D01*
X154942500Y-115044000D01*
X154948626Y-115044301D01*
X154948626Y-115044301D01*
G37*
D26*
G04 #@! TD*
G04 #@! TO.P,U1,40*
G04 #@! TO.N,HR_09*
X154567500Y-115169000D03*
D14*
G04 #@! TO.N,HR_08*
G04 #@! TO.C,U1*
G36*
X154948626Y-114544301D02*
X154954693Y-114545201D01*
X154960643Y-114546691D01*
X154966418Y-114548758D01*
X154971962Y-114551380D01*
X154977223Y-114554533D01*
X154982150Y-114558187D01*
X154986694Y-114562306D01*
X154990813Y-114566850D01*
X154994467Y-114571777D01*
X154997620Y-114577038D01*
X155000242Y-114582582D01*
X155002309Y-114588357D01*
X155003799Y-114594307D01*
X155004699Y-114600374D01*
X155005000Y-114606500D01*
X155005000Y-114731500D01*
X155004699Y-114737626D01*
X155003799Y-114743693D01*
X155002309Y-114749643D01*
X155000242Y-114755418D01*
X154997620Y-114760962D01*
X154994467Y-114766223D01*
X154990813Y-114771150D01*
X154986694Y-114775694D01*
X154982150Y-114779813D01*
X154977223Y-114783467D01*
X154971962Y-114786620D01*
X154966418Y-114789242D01*
X154960643Y-114791309D01*
X154954693Y-114792799D01*
X154948626Y-114793699D01*
X154942500Y-114794000D01*
X154192500Y-114794000D01*
X154186374Y-114793699D01*
X154180307Y-114792799D01*
X154174357Y-114791309D01*
X154168582Y-114789242D01*
X154163038Y-114786620D01*
X154157777Y-114783467D01*
X154152850Y-114779813D01*
X154148306Y-114775694D01*
X154144187Y-114771150D01*
X154140533Y-114766223D01*
X154137380Y-114760962D01*
X154134758Y-114755418D01*
X154132691Y-114749643D01*
X154131201Y-114743693D01*
X154130301Y-114737626D01*
X154130000Y-114731500D01*
X154130000Y-114606500D01*
X154130301Y-114600374D01*
X154131201Y-114594307D01*
X154132691Y-114588357D01*
X154134758Y-114582582D01*
X154137380Y-114577038D01*
X154140533Y-114571777D01*
X154144187Y-114566850D01*
X154148306Y-114562306D01*
X154152850Y-114558187D01*
X154157777Y-114554533D01*
X154163038Y-114551380D01*
X154168582Y-114548758D01*
X154174357Y-114546691D01*
X154180307Y-114545201D01*
X154186374Y-114544301D01*
X154192500Y-114544000D01*
X154942500Y-114544000D01*
X154948626Y-114544301D01*
X154948626Y-114544301D01*
G37*
D26*
G04 #@! TD*
G04 #@! TO.P,U1,41*
G04 #@! TO.N,HR_08*
X154567500Y-114669000D03*
D14*
G04 #@! TO.N,HR_07*
G04 #@! TO.C,U1*
G36*
X154948626Y-114044301D02*
X154954693Y-114045201D01*
X154960643Y-114046691D01*
X154966418Y-114048758D01*
X154971962Y-114051380D01*
X154977223Y-114054533D01*
X154982150Y-114058187D01*
X154986694Y-114062306D01*
X154990813Y-114066850D01*
X154994467Y-114071777D01*
X154997620Y-114077038D01*
X155000242Y-114082582D01*
X155002309Y-114088357D01*
X155003799Y-114094307D01*
X155004699Y-114100374D01*
X155005000Y-114106500D01*
X155005000Y-114231500D01*
X155004699Y-114237626D01*
X155003799Y-114243693D01*
X155002309Y-114249643D01*
X155000242Y-114255418D01*
X154997620Y-114260962D01*
X154994467Y-114266223D01*
X154990813Y-114271150D01*
X154986694Y-114275694D01*
X154982150Y-114279813D01*
X154977223Y-114283467D01*
X154971962Y-114286620D01*
X154966418Y-114289242D01*
X154960643Y-114291309D01*
X154954693Y-114292799D01*
X154948626Y-114293699D01*
X154942500Y-114294000D01*
X154192500Y-114294000D01*
X154186374Y-114293699D01*
X154180307Y-114292799D01*
X154174357Y-114291309D01*
X154168582Y-114289242D01*
X154163038Y-114286620D01*
X154157777Y-114283467D01*
X154152850Y-114279813D01*
X154148306Y-114275694D01*
X154144187Y-114271150D01*
X154140533Y-114266223D01*
X154137380Y-114260962D01*
X154134758Y-114255418D01*
X154132691Y-114249643D01*
X154131201Y-114243693D01*
X154130301Y-114237626D01*
X154130000Y-114231500D01*
X154130000Y-114106500D01*
X154130301Y-114100374D01*
X154131201Y-114094307D01*
X154132691Y-114088357D01*
X154134758Y-114082582D01*
X154137380Y-114077038D01*
X154140533Y-114071777D01*
X154144187Y-114066850D01*
X154148306Y-114062306D01*
X154152850Y-114058187D01*
X154157777Y-114054533D01*
X154163038Y-114051380D01*
X154168582Y-114048758D01*
X154174357Y-114046691D01*
X154180307Y-114045201D01*
X154186374Y-114044301D01*
X154192500Y-114044000D01*
X154942500Y-114044000D01*
X154948626Y-114044301D01*
X154948626Y-114044301D01*
G37*
D26*
G04 #@! TD*
G04 #@! TO.P,U1,42*
G04 #@! TO.N,HR_07*
X154567500Y-114169000D03*
D14*
G04 #@! TO.N,HR_06*
G04 #@! TO.C,U1*
G36*
X154948626Y-113544301D02*
X154954693Y-113545201D01*
X154960643Y-113546691D01*
X154966418Y-113548758D01*
X154971962Y-113551380D01*
X154977223Y-113554533D01*
X154982150Y-113558187D01*
X154986694Y-113562306D01*
X154990813Y-113566850D01*
X154994467Y-113571777D01*
X154997620Y-113577038D01*
X155000242Y-113582582D01*
X155002309Y-113588357D01*
X155003799Y-113594307D01*
X155004699Y-113600374D01*
X155005000Y-113606500D01*
X155005000Y-113731500D01*
X155004699Y-113737626D01*
X155003799Y-113743693D01*
X155002309Y-113749643D01*
X155000242Y-113755418D01*
X154997620Y-113760962D01*
X154994467Y-113766223D01*
X154990813Y-113771150D01*
X154986694Y-113775694D01*
X154982150Y-113779813D01*
X154977223Y-113783467D01*
X154971962Y-113786620D01*
X154966418Y-113789242D01*
X154960643Y-113791309D01*
X154954693Y-113792799D01*
X154948626Y-113793699D01*
X154942500Y-113794000D01*
X154192500Y-113794000D01*
X154186374Y-113793699D01*
X154180307Y-113792799D01*
X154174357Y-113791309D01*
X154168582Y-113789242D01*
X154163038Y-113786620D01*
X154157777Y-113783467D01*
X154152850Y-113779813D01*
X154148306Y-113775694D01*
X154144187Y-113771150D01*
X154140533Y-113766223D01*
X154137380Y-113760962D01*
X154134758Y-113755418D01*
X154132691Y-113749643D01*
X154131201Y-113743693D01*
X154130301Y-113737626D01*
X154130000Y-113731500D01*
X154130000Y-113606500D01*
X154130301Y-113600374D01*
X154131201Y-113594307D01*
X154132691Y-113588357D01*
X154134758Y-113582582D01*
X154137380Y-113577038D01*
X154140533Y-113571777D01*
X154144187Y-113566850D01*
X154148306Y-113562306D01*
X154152850Y-113558187D01*
X154157777Y-113554533D01*
X154163038Y-113551380D01*
X154168582Y-113548758D01*
X154174357Y-113546691D01*
X154180307Y-113545201D01*
X154186374Y-113544301D01*
X154192500Y-113544000D01*
X154942500Y-113544000D01*
X154948626Y-113544301D01*
X154948626Y-113544301D01*
G37*
D26*
G04 #@! TD*
G04 #@! TO.P,U1,43*
G04 #@! TO.N,HR_06*
X154567500Y-113669000D03*
D14*
G04 #@! TO.N,HR_05*
G04 #@! TO.C,U1*
G36*
X154948626Y-113044301D02*
X154954693Y-113045201D01*
X154960643Y-113046691D01*
X154966418Y-113048758D01*
X154971962Y-113051380D01*
X154977223Y-113054533D01*
X154982150Y-113058187D01*
X154986694Y-113062306D01*
X154990813Y-113066850D01*
X154994467Y-113071777D01*
X154997620Y-113077038D01*
X155000242Y-113082582D01*
X155002309Y-113088357D01*
X155003799Y-113094307D01*
X155004699Y-113100374D01*
X155005000Y-113106500D01*
X155005000Y-113231500D01*
X155004699Y-113237626D01*
X155003799Y-113243693D01*
X155002309Y-113249643D01*
X155000242Y-113255418D01*
X154997620Y-113260962D01*
X154994467Y-113266223D01*
X154990813Y-113271150D01*
X154986694Y-113275694D01*
X154982150Y-113279813D01*
X154977223Y-113283467D01*
X154971962Y-113286620D01*
X154966418Y-113289242D01*
X154960643Y-113291309D01*
X154954693Y-113292799D01*
X154948626Y-113293699D01*
X154942500Y-113294000D01*
X154192500Y-113294000D01*
X154186374Y-113293699D01*
X154180307Y-113292799D01*
X154174357Y-113291309D01*
X154168582Y-113289242D01*
X154163038Y-113286620D01*
X154157777Y-113283467D01*
X154152850Y-113279813D01*
X154148306Y-113275694D01*
X154144187Y-113271150D01*
X154140533Y-113266223D01*
X154137380Y-113260962D01*
X154134758Y-113255418D01*
X154132691Y-113249643D01*
X154131201Y-113243693D01*
X154130301Y-113237626D01*
X154130000Y-113231500D01*
X154130000Y-113106500D01*
X154130301Y-113100374D01*
X154131201Y-113094307D01*
X154132691Y-113088357D01*
X154134758Y-113082582D01*
X154137380Y-113077038D01*
X154140533Y-113071777D01*
X154144187Y-113066850D01*
X154148306Y-113062306D01*
X154152850Y-113058187D01*
X154157777Y-113054533D01*
X154163038Y-113051380D01*
X154168582Y-113048758D01*
X154174357Y-113046691D01*
X154180307Y-113045201D01*
X154186374Y-113044301D01*
X154192500Y-113044000D01*
X154942500Y-113044000D01*
X154948626Y-113044301D01*
X154948626Y-113044301D01*
G37*
D26*
G04 #@! TD*
G04 #@! TO.P,U1,44*
G04 #@! TO.N,HR_05*
X154567500Y-113169000D03*
D14*
G04 #@! TO.N,USB_P*
G04 #@! TO.C,U1*
G36*
X154948626Y-112544301D02*
X154954693Y-112545201D01*
X154960643Y-112546691D01*
X154966418Y-112548758D01*
X154971962Y-112551380D01*
X154977223Y-112554533D01*
X154982150Y-112558187D01*
X154986694Y-112562306D01*
X154990813Y-112566850D01*
X154994467Y-112571777D01*
X154997620Y-112577038D01*
X155000242Y-112582582D01*
X155002309Y-112588357D01*
X155003799Y-112594307D01*
X155004699Y-112600374D01*
X155005000Y-112606500D01*
X155005000Y-112731500D01*
X155004699Y-112737626D01*
X155003799Y-112743693D01*
X155002309Y-112749643D01*
X155000242Y-112755418D01*
X154997620Y-112760962D01*
X154994467Y-112766223D01*
X154990813Y-112771150D01*
X154986694Y-112775694D01*
X154982150Y-112779813D01*
X154977223Y-112783467D01*
X154971962Y-112786620D01*
X154966418Y-112789242D01*
X154960643Y-112791309D01*
X154954693Y-112792799D01*
X154948626Y-112793699D01*
X154942500Y-112794000D01*
X154192500Y-112794000D01*
X154186374Y-112793699D01*
X154180307Y-112792799D01*
X154174357Y-112791309D01*
X154168582Y-112789242D01*
X154163038Y-112786620D01*
X154157777Y-112783467D01*
X154152850Y-112779813D01*
X154148306Y-112775694D01*
X154144187Y-112771150D01*
X154140533Y-112766223D01*
X154137380Y-112760962D01*
X154134758Y-112755418D01*
X154132691Y-112749643D01*
X154131201Y-112743693D01*
X154130301Y-112737626D01*
X154130000Y-112731500D01*
X154130000Y-112606500D01*
X154130301Y-112600374D01*
X154131201Y-112594307D01*
X154132691Y-112588357D01*
X154134758Y-112582582D01*
X154137380Y-112577038D01*
X154140533Y-112571777D01*
X154144187Y-112566850D01*
X154148306Y-112562306D01*
X154152850Y-112558187D01*
X154157777Y-112554533D01*
X154163038Y-112551380D01*
X154168582Y-112548758D01*
X154174357Y-112546691D01*
X154180307Y-112545201D01*
X154186374Y-112544301D01*
X154192500Y-112544000D01*
X154942500Y-112544000D01*
X154948626Y-112544301D01*
X154948626Y-112544301D01*
G37*
D26*
G04 #@! TD*
G04 #@! TO.P,U1,45*
G04 #@! TO.N,USB_P*
X154567500Y-112669000D03*
D14*
G04 #@! TO.N,N/C*
G04 #@! TO.C,U1*
G36*
X154948626Y-112044301D02*
X154954693Y-112045201D01*
X154960643Y-112046691D01*
X154966418Y-112048758D01*
X154971962Y-112051380D01*
X154977223Y-112054533D01*
X154982150Y-112058187D01*
X154986694Y-112062306D01*
X154990813Y-112066850D01*
X154994467Y-112071777D01*
X154997620Y-112077038D01*
X155000242Y-112082582D01*
X155002309Y-112088357D01*
X155003799Y-112094307D01*
X155004699Y-112100374D01*
X155005000Y-112106500D01*
X155005000Y-112231500D01*
X155004699Y-112237626D01*
X155003799Y-112243693D01*
X155002309Y-112249643D01*
X155000242Y-112255418D01*
X154997620Y-112260962D01*
X154994467Y-112266223D01*
X154990813Y-112271150D01*
X154986694Y-112275694D01*
X154982150Y-112279813D01*
X154977223Y-112283467D01*
X154971962Y-112286620D01*
X154966418Y-112289242D01*
X154960643Y-112291309D01*
X154954693Y-112292799D01*
X154948626Y-112293699D01*
X154942500Y-112294000D01*
X154192500Y-112294000D01*
X154186374Y-112293699D01*
X154180307Y-112292799D01*
X154174357Y-112291309D01*
X154168582Y-112289242D01*
X154163038Y-112286620D01*
X154157777Y-112283467D01*
X154152850Y-112279813D01*
X154148306Y-112275694D01*
X154144187Y-112271150D01*
X154140533Y-112266223D01*
X154137380Y-112260962D01*
X154134758Y-112255418D01*
X154132691Y-112249643D01*
X154131201Y-112243693D01*
X154130301Y-112237626D01*
X154130000Y-112231500D01*
X154130000Y-112106500D01*
X154130301Y-112100374D01*
X154131201Y-112094307D01*
X154132691Y-112088357D01*
X154134758Y-112082582D01*
X154137380Y-112077038D01*
X154140533Y-112071777D01*
X154144187Y-112066850D01*
X154148306Y-112062306D01*
X154152850Y-112058187D01*
X154157777Y-112054533D01*
X154163038Y-112051380D01*
X154168582Y-112048758D01*
X154174357Y-112046691D01*
X154180307Y-112045201D01*
X154186374Y-112044301D01*
X154192500Y-112044000D01*
X154942500Y-112044000D01*
X154948626Y-112044301D01*
X154948626Y-112044301D01*
G37*
D26*
G04 #@! TD*
G04 #@! TO.P,U1,46*
G04 #@! TO.N,N/C*
X154567500Y-112169000D03*
D14*
G04 #@! TO.N,USB_PU*
G04 #@! TO.C,U1*
G36*
X154948626Y-111544301D02*
X154954693Y-111545201D01*
X154960643Y-111546691D01*
X154966418Y-111548758D01*
X154971962Y-111551380D01*
X154977223Y-111554533D01*
X154982150Y-111558187D01*
X154986694Y-111562306D01*
X154990813Y-111566850D01*
X154994467Y-111571777D01*
X154997620Y-111577038D01*
X155000242Y-111582582D01*
X155002309Y-111588357D01*
X155003799Y-111594307D01*
X155004699Y-111600374D01*
X155005000Y-111606500D01*
X155005000Y-111731500D01*
X155004699Y-111737626D01*
X155003799Y-111743693D01*
X155002309Y-111749643D01*
X155000242Y-111755418D01*
X154997620Y-111760962D01*
X154994467Y-111766223D01*
X154990813Y-111771150D01*
X154986694Y-111775694D01*
X154982150Y-111779813D01*
X154977223Y-111783467D01*
X154971962Y-111786620D01*
X154966418Y-111789242D01*
X154960643Y-111791309D01*
X154954693Y-111792799D01*
X154948626Y-111793699D01*
X154942500Y-111794000D01*
X154192500Y-111794000D01*
X154186374Y-111793699D01*
X154180307Y-111792799D01*
X154174357Y-111791309D01*
X154168582Y-111789242D01*
X154163038Y-111786620D01*
X154157777Y-111783467D01*
X154152850Y-111779813D01*
X154148306Y-111775694D01*
X154144187Y-111771150D01*
X154140533Y-111766223D01*
X154137380Y-111760962D01*
X154134758Y-111755418D01*
X154132691Y-111749643D01*
X154131201Y-111743693D01*
X154130301Y-111737626D01*
X154130000Y-111731500D01*
X154130000Y-111606500D01*
X154130301Y-111600374D01*
X154131201Y-111594307D01*
X154132691Y-111588357D01*
X154134758Y-111582582D01*
X154137380Y-111577038D01*
X154140533Y-111571777D01*
X154144187Y-111566850D01*
X154148306Y-111562306D01*
X154152850Y-111558187D01*
X154157777Y-111554533D01*
X154163038Y-111551380D01*
X154168582Y-111548758D01*
X154174357Y-111546691D01*
X154180307Y-111545201D01*
X154186374Y-111544301D01*
X154192500Y-111544000D01*
X154942500Y-111544000D01*
X154948626Y-111544301D01*
X154948626Y-111544301D01*
G37*
D26*
G04 #@! TD*
G04 #@! TO.P,U1,47*
G04 #@! TO.N,USB_PU*
X154567500Y-111669000D03*
D14*
G04 #@! TO.N,USB_N*
G04 #@! TO.C,U1*
G36*
X154948626Y-111044301D02*
X154954693Y-111045201D01*
X154960643Y-111046691D01*
X154966418Y-111048758D01*
X154971962Y-111051380D01*
X154977223Y-111054533D01*
X154982150Y-111058187D01*
X154986694Y-111062306D01*
X154990813Y-111066850D01*
X154994467Y-111071777D01*
X154997620Y-111077038D01*
X155000242Y-111082582D01*
X155002309Y-111088357D01*
X155003799Y-111094307D01*
X155004699Y-111100374D01*
X155005000Y-111106500D01*
X155005000Y-111231500D01*
X155004699Y-111237626D01*
X155003799Y-111243693D01*
X155002309Y-111249643D01*
X155000242Y-111255418D01*
X154997620Y-111260962D01*
X154994467Y-111266223D01*
X154990813Y-111271150D01*
X154986694Y-111275694D01*
X154982150Y-111279813D01*
X154977223Y-111283467D01*
X154971962Y-111286620D01*
X154966418Y-111289242D01*
X154960643Y-111291309D01*
X154954693Y-111292799D01*
X154948626Y-111293699D01*
X154942500Y-111294000D01*
X154192500Y-111294000D01*
X154186374Y-111293699D01*
X154180307Y-111292799D01*
X154174357Y-111291309D01*
X154168582Y-111289242D01*
X154163038Y-111286620D01*
X154157777Y-111283467D01*
X154152850Y-111279813D01*
X154148306Y-111275694D01*
X154144187Y-111271150D01*
X154140533Y-111266223D01*
X154137380Y-111260962D01*
X154134758Y-111255418D01*
X154132691Y-111249643D01*
X154131201Y-111243693D01*
X154130301Y-111237626D01*
X154130000Y-111231500D01*
X154130000Y-111106500D01*
X154130301Y-111100374D01*
X154131201Y-111094307D01*
X154132691Y-111088357D01*
X154134758Y-111082582D01*
X154137380Y-111077038D01*
X154140533Y-111071777D01*
X154144187Y-111066850D01*
X154148306Y-111062306D01*
X154152850Y-111058187D01*
X154157777Y-111054533D01*
X154163038Y-111051380D01*
X154168582Y-111048758D01*
X154174357Y-111046691D01*
X154180307Y-111045201D01*
X154186374Y-111044301D01*
X154192500Y-111044000D01*
X154942500Y-111044000D01*
X154948626Y-111044301D01*
X154948626Y-111044301D01*
G37*
D26*
G04 #@! TD*
G04 #@! TO.P,U1,48*
G04 #@! TO.N,USB_N*
X154567500Y-111169000D03*
D14*
G04 #@! TO.N,GND*
G04 #@! TO.C,R8*
G36*
X148776958Y-108204210D02*
X148791276Y-108206334D01*
X148805317Y-108209851D01*
X148818946Y-108214728D01*
X148832031Y-108220917D01*
X148844447Y-108228358D01*
X148856073Y-108236981D01*
X148866798Y-108246702D01*
X148876519Y-108257427D01*
X148885142Y-108269053D01*
X148892583Y-108281469D01*
X148898772Y-108294554D01*
X148903649Y-108308183D01*
X148907166Y-108322224D01*
X148909290Y-108336542D01*
X148910000Y-108351000D01*
X148910000Y-108646000D01*
X148909290Y-108660458D01*
X148907166Y-108674776D01*
X148903649Y-108688817D01*
X148898772Y-108702446D01*
X148892583Y-108715531D01*
X148885142Y-108727947D01*
X148876519Y-108739573D01*
X148866798Y-108750298D01*
X148856073Y-108760019D01*
X148844447Y-108768642D01*
X148832031Y-108776083D01*
X148818946Y-108782272D01*
X148805317Y-108787149D01*
X148791276Y-108790666D01*
X148776958Y-108792790D01*
X148762500Y-108793500D01*
X148417500Y-108793500D01*
X148403042Y-108792790D01*
X148388724Y-108790666D01*
X148374683Y-108787149D01*
X148361054Y-108782272D01*
X148347969Y-108776083D01*
X148335553Y-108768642D01*
X148323927Y-108760019D01*
X148313202Y-108750298D01*
X148303481Y-108739573D01*
X148294858Y-108727947D01*
X148287417Y-108715531D01*
X148281228Y-108702446D01*
X148276351Y-108688817D01*
X148272834Y-108674776D01*
X148270710Y-108660458D01*
X148270000Y-108646000D01*
X148270000Y-108351000D01*
X148270710Y-108336542D01*
X148272834Y-108322224D01*
X148276351Y-108308183D01*
X148281228Y-108294554D01*
X148287417Y-108281469D01*
X148294858Y-108269053D01*
X148303481Y-108257427D01*
X148313202Y-108246702D01*
X148323927Y-108236981D01*
X148335553Y-108228358D01*
X148347969Y-108220917D01*
X148361054Y-108214728D01*
X148374683Y-108209851D01*
X148388724Y-108206334D01*
X148403042Y-108204210D01*
X148417500Y-108203500D01*
X148762500Y-108203500D01*
X148776958Y-108204210D01*
X148776958Y-108204210D01*
G37*
D15*
G04 #@! TD*
G04 #@! TO.P,R8,2*
G04 #@! TO.N,GND*
X148590000Y-108498500D03*
D14*
G04 #@! TO.N,Net-(D1-Pad1)*
G04 #@! TO.C,R8*
G36*
X148776958Y-107234210D02*
X148791276Y-107236334D01*
X148805317Y-107239851D01*
X148818946Y-107244728D01*
X148832031Y-107250917D01*
X148844447Y-107258358D01*
X148856073Y-107266981D01*
X148866798Y-107276702D01*
X148876519Y-107287427D01*
X148885142Y-107299053D01*
X148892583Y-107311469D01*
X148898772Y-107324554D01*
X148903649Y-107338183D01*
X148907166Y-107352224D01*
X148909290Y-107366542D01*
X148910000Y-107381000D01*
X148910000Y-107676000D01*
X148909290Y-107690458D01*
X148907166Y-107704776D01*
X148903649Y-107718817D01*
X148898772Y-107732446D01*
X148892583Y-107745531D01*
X148885142Y-107757947D01*
X148876519Y-107769573D01*
X148866798Y-107780298D01*
X148856073Y-107790019D01*
X148844447Y-107798642D01*
X148832031Y-107806083D01*
X148818946Y-107812272D01*
X148805317Y-107817149D01*
X148791276Y-107820666D01*
X148776958Y-107822790D01*
X148762500Y-107823500D01*
X148417500Y-107823500D01*
X148403042Y-107822790D01*
X148388724Y-107820666D01*
X148374683Y-107817149D01*
X148361054Y-107812272D01*
X148347969Y-107806083D01*
X148335553Y-107798642D01*
X148323927Y-107790019D01*
X148313202Y-107780298D01*
X148303481Y-107769573D01*
X148294858Y-107757947D01*
X148287417Y-107745531D01*
X148281228Y-107732446D01*
X148276351Y-107718817D01*
X148272834Y-107704776D01*
X148270710Y-107690458D01*
X148270000Y-107676000D01*
X148270000Y-107381000D01*
X148270710Y-107366542D01*
X148272834Y-107352224D01*
X148276351Y-107338183D01*
X148281228Y-107324554D01*
X148287417Y-107311469D01*
X148294858Y-107299053D01*
X148303481Y-107287427D01*
X148313202Y-107276702D01*
X148323927Y-107266981D01*
X148335553Y-107258358D01*
X148347969Y-107250917D01*
X148361054Y-107244728D01*
X148374683Y-107239851D01*
X148388724Y-107236334D01*
X148403042Y-107234210D01*
X148417500Y-107233500D01*
X148762500Y-107233500D01*
X148776958Y-107234210D01*
X148776958Y-107234210D01*
G37*
D15*
G04 #@! TD*
G04 #@! TO.P,R8,1*
G04 #@! TO.N,Net-(D1-Pad1)*
X148590000Y-107528500D03*
D14*
G04 #@! TO.N,Net-(D2-Pad1)*
G04 #@! TO.C,R9*
G36*
X152205958Y-107234210D02*
X152220276Y-107236334D01*
X152234317Y-107239851D01*
X152247946Y-107244728D01*
X152261031Y-107250917D01*
X152273447Y-107258358D01*
X152285073Y-107266981D01*
X152295798Y-107276702D01*
X152305519Y-107287427D01*
X152314142Y-107299053D01*
X152321583Y-107311469D01*
X152327772Y-107324554D01*
X152332649Y-107338183D01*
X152336166Y-107352224D01*
X152338290Y-107366542D01*
X152339000Y-107381000D01*
X152339000Y-107676000D01*
X152338290Y-107690458D01*
X152336166Y-107704776D01*
X152332649Y-107718817D01*
X152327772Y-107732446D01*
X152321583Y-107745531D01*
X152314142Y-107757947D01*
X152305519Y-107769573D01*
X152295798Y-107780298D01*
X152285073Y-107790019D01*
X152273447Y-107798642D01*
X152261031Y-107806083D01*
X152247946Y-107812272D01*
X152234317Y-107817149D01*
X152220276Y-107820666D01*
X152205958Y-107822790D01*
X152191500Y-107823500D01*
X151846500Y-107823500D01*
X151832042Y-107822790D01*
X151817724Y-107820666D01*
X151803683Y-107817149D01*
X151790054Y-107812272D01*
X151776969Y-107806083D01*
X151764553Y-107798642D01*
X151752927Y-107790019D01*
X151742202Y-107780298D01*
X151732481Y-107769573D01*
X151723858Y-107757947D01*
X151716417Y-107745531D01*
X151710228Y-107732446D01*
X151705351Y-107718817D01*
X151701834Y-107704776D01*
X151699710Y-107690458D01*
X151699000Y-107676000D01*
X151699000Y-107381000D01*
X151699710Y-107366542D01*
X151701834Y-107352224D01*
X151705351Y-107338183D01*
X151710228Y-107324554D01*
X151716417Y-107311469D01*
X151723858Y-107299053D01*
X151732481Y-107287427D01*
X151742202Y-107276702D01*
X151752927Y-107266981D01*
X151764553Y-107258358D01*
X151776969Y-107250917D01*
X151790054Y-107244728D01*
X151803683Y-107239851D01*
X151817724Y-107236334D01*
X151832042Y-107234210D01*
X151846500Y-107233500D01*
X152191500Y-107233500D01*
X152205958Y-107234210D01*
X152205958Y-107234210D01*
G37*
D15*
G04 #@! TD*
G04 #@! TO.P,R9,1*
G04 #@! TO.N,Net-(D2-Pad1)*
X152019000Y-107528500D03*
D14*
G04 #@! TO.N,GND*
G04 #@! TO.C,R9*
G36*
X152205958Y-108204210D02*
X152220276Y-108206334D01*
X152234317Y-108209851D01*
X152247946Y-108214728D01*
X152261031Y-108220917D01*
X152273447Y-108228358D01*
X152285073Y-108236981D01*
X152295798Y-108246702D01*
X152305519Y-108257427D01*
X152314142Y-108269053D01*
X152321583Y-108281469D01*
X152327772Y-108294554D01*
X152332649Y-108308183D01*
X152336166Y-108322224D01*
X152338290Y-108336542D01*
X152339000Y-108351000D01*
X152339000Y-108646000D01*
X152338290Y-108660458D01*
X152336166Y-108674776D01*
X152332649Y-108688817D01*
X152327772Y-108702446D01*
X152321583Y-108715531D01*
X152314142Y-108727947D01*
X152305519Y-108739573D01*
X152295798Y-108750298D01*
X152285073Y-108760019D01*
X152273447Y-108768642D01*
X152261031Y-108776083D01*
X152247946Y-108782272D01*
X152234317Y-108787149D01*
X152220276Y-108790666D01*
X152205958Y-108792790D01*
X152191500Y-108793500D01*
X151846500Y-108793500D01*
X151832042Y-108792790D01*
X151817724Y-108790666D01*
X151803683Y-108787149D01*
X151790054Y-108782272D01*
X151776969Y-108776083D01*
X151764553Y-108768642D01*
X151752927Y-108760019D01*
X151742202Y-108750298D01*
X151732481Y-108739573D01*
X151723858Y-108727947D01*
X151716417Y-108715531D01*
X151710228Y-108702446D01*
X151705351Y-108688817D01*
X151701834Y-108674776D01*
X151699710Y-108660458D01*
X151699000Y-108646000D01*
X151699000Y-108351000D01*
X151699710Y-108336542D01*
X151701834Y-108322224D01*
X151705351Y-108308183D01*
X151710228Y-108294554D01*
X151716417Y-108281469D01*
X151723858Y-108269053D01*
X151732481Y-108257427D01*
X151742202Y-108246702D01*
X151752927Y-108236981D01*
X151764553Y-108228358D01*
X151776969Y-108220917D01*
X151790054Y-108214728D01*
X151803683Y-108209851D01*
X151817724Y-108206334D01*
X151832042Y-108204210D01*
X151846500Y-108203500D01*
X152191500Y-108203500D01*
X152205958Y-108204210D01*
X152205958Y-108204210D01*
G37*
D15*
G04 #@! TD*
G04 #@! TO.P,R9,2*
G04 #@! TO.N,GND*
X152019000Y-108498500D03*
D14*
G04 #@! TO.N,+5V*
G04 #@! TO.C,C17*
G36*
X155662691Y-100046553D02*
X155683926Y-100049703D01*
X155704750Y-100054919D01*
X155724962Y-100062151D01*
X155744368Y-100071330D01*
X155762781Y-100082366D01*
X155780024Y-100095154D01*
X155795930Y-100109570D01*
X155810346Y-100125476D01*
X155823134Y-100142719D01*
X155834170Y-100161132D01*
X155843349Y-100180538D01*
X155850581Y-100200750D01*
X155855797Y-100221574D01*
X155858947Y-100242809D01*
X155860000Y-100264250D01*
X155860000Y-100776750D01*
X155858947Y-100798191D01*
X155855797Y-100819426D01*
X155850581Y-100840250D01*
X155843349Y-100860462D01*
X155834170Y-100879868D01*
X155823134Y-100898281D01*
X155810346Y-100915524D01*
X155795930Y-100931430D01*
X155780024Y-100945846D01*
X155762781Y-100958634D01*
X155744368Y-100969670D01*
X155724962Y-100978849D01*
X155704750Y-100986081D01*
X155683926Y-100991297D01*
X155662691Y-100994447D01*
X155641250Y-100995500D01*
X155203750Y-100995500D01*
X155182309Y-100994447D01*
X155161074Y-100991297D01*
X155140250Y-100986081D01*
X155120038Y-100978849D01*
X155100632Y-100969670D01*
X155082219Y-100958634D01*
X155064976Y-100945846D01*
X155049070Y-100931430D01*
X155034654Y-100915524D01*
X155021866Y-100898281D01*
X155010830Y-100879868D01*
X155001651Y-100860462D01*
X154994419Y-100840250D01*
X154989203Y-100819426D01*
X154986053Y-100798191D01*
X154985000Y-100776750D01*
X154985000Y-100264250D01*
X154986053Y-100242809D01*
X154989203Y-100221574D01*
X154994419Y-100200750D01*
X155001651Y-100180538D01*
X155010830Y-100161132D01*
X155021866Y-100142719D01*
X155034654Y-100125476D01*
X155049070Y-100109570D01*
X155064976Y-100095154D01*
X155082219Y-100082366D01*
X155100632Y-100071330D01*
X155120038Y-100062151D01*
X155140250Y-100054919D01*
X155161074Y-100049703D01*
X155182309Y-100046553D01*
X155203750Y-100045500D01*
X155641250Y-100045500D01*
X155662691Y-100046553D01*
X155662691Y-100046553D01*
G37*
D27*
G04 #@! TD*
G04 #@! TO.P,C17,1*
G04 #@! TO.N,+5V*
X155422500Y-100520500D03*
D14*
G04 #@! TO.N,GND*
G04 #@! TO.C,C17*
G36*
X157237691Y-100046553D02*
X157258926Y-100049703D01*
X157279750Y-100054919D01*
X157299962Y-100062151D01*
X157319368Y-100071330D01*
X157337781Y-100082366D01*
X157355024Y-100095154D01*
X157370930Y-100109570D01*
X157385346Y-100125476D01*
X157398134Y-100142719D01*
X157409170Y-100161132D01*
X157418349Y-100180538D01*
X157425581Y-100200750D01*
X157430797Y-100221574D01*
X157433947Y-100242809D01*
X157435000Y-100264250D01*
X157435000Y-100776750D01*
X157433947Y-100798191D01*
X157430797Y-100819426D01*
X157425581Y-100840250D01*
X157418349Y-100860462D01*
X157409170Y-100879868D01*
X157398134Y-100898281D01*
X157385346Y-100915524D01*
X157370930Y-100931430D01*
X157355024Y-100945846D01*
X157337781Y-100958634D01*
X157319368Y-100969670D01*
X157299962Y-100978849D01*
X157279750Y-100986081D01*
X157258926Y-100991297D01*
X157237691Y-100994447D01*
X157216250Y-100995500D01*
X156778750Y-100995500D01*
X156757309Y-100994447D01*
X156736074Y-100991297D01*
X156715250Y-100986081D01*
X156695038Y-100978849D01*
X156675632Y-100969670D01*
X156657219Y-100958634D01*
X156639976Y-100945846D01*
X156624070Y-100931430D01*
X156609654Y-100915524D01*
X156596866Y-100898281D01*
X156585830Y-100879868D01*
X156576651Y-100860462D01*
X156569419Y-100840250D01*
X156564203Y-100819426D01*
X156561053Y-100798191D01*
X156560000Y-100776750D01*
X156560000Y-100264250D01*
X156561053Y-100242809D01*
X156564203Y-100221574D01*
X156569419Y-100200750D01*
X156576651Y-100180538D01*
X156585830Y-100161132D01*
X156596866Y-100142719D01*
X156609654Y-100125476D01*
X156624070Y-100109570D01*
X156639976Y-100095154D01*
X156657219Y-100082366D01*
X156675632Y-100071330D01*
X156695038Y-100062151D01*
X156715250Y-100054919D01*
X156736074Y-100049703D01*
X156757309Y-100046553D01*
X156778750Y-100045500D01*
X157216250Y-100045500D01*
X157237691Y-100046553D01*
X157237691Y-100046553D01*
G37*
D27*
G04 #@! TD*
G04 #@! TO.P,C17,2*
G04 #@! TO.N,GND*
X156997500Y-100520500D03*
D28*
G04 #@! TO.N,+5V*
X154940000Y-104648000D03*
G04 #@! TO.N,CLK*
X153968843Y-118192157D03*
X153924000Y-119761000D03*
G04 #@! TO.N,SCK*
X145713000Y-112566000D03*
X146939000Y-123952000D03*
X149098000Y-127337000D03*
G04 #@! TO.N,CRESET_B*
X156318000Y-125349000D03*
X146304000Y-111619000D03*
X144780000Y-111633000D03*
X144689393Y-130211393D03*
X150368000Y-109855000D03*
G04 #@! TO.N,SDI*
X145288000Y-112141000D03*
X145288000Y-112141000D03*
X145669000Y-129794000D03*
X153670000Y-125275000D03*
G04 #@! TO.N,SS*
X146304000Y-113030000D03*
X146196000Y-122555000D03*
X146281761Y-123847239D03*
X150749000Y-126365000D03*
G04 #@! TO.N,GND*
X152908000Y-114935000D03*
X152654000Y-113538000D03*
X157193029Y-103980029D03*
X151130000Y-113919000D03*
X151130000Y-113919000D03*
X147828000Y-104902000D03*
X151257000Y-121666000D03*
X157353000Y-105156000D03*
X151130000Y-130175000D03*
X153416000Y-121412000D03*
X151511000Y-128651000D03*
X151384000Y-125730000D03*
X149987000Y-108521500D03*
G04 #@! TO.N,SDO*
X146812000Y-113430000D03*
X146431000Y-121920000D03*
X148082000Y-123571000D03*
X148082000Y-124968000D03*
X151511000Y-127127000D03*
G04 #@! TO.N,USB_P*
X155944834Y-111855869D03*
G04 #@! TO.N,USB_N*
X156475166Y-111367834D03*
G04 #@! TO.N,USB_PU*
X155327568Y-111705165D03*
G04 #@! TO.N,SPI_VCCIO1*
X147066000Y-117475000D03*
X154559000Y-107061000D03*
X152400000Y-118110000D03*
X144145000Y-111760000D03*
X147828000Y-121031000D03*
X148936343Y-125256657D03*
X151130000Y-122428000D03*
X150749000Y-125603000D03*
X155384500Y-109220000D03*
X146177000Y-107569000D03*
G04 #@! TO.N,VCC_CORE*
X149868907Y-104131093D03*
X150622000Y-118491000D03*
X151892000Y-109220000D03*
G04 #@! TO.N,VCCPLL*
X149225000Y-118491000D03*
G04 #@! TO.N,HL_11*
X146304000Y-117729000D03*
X146812000Y-116522500D03*
G04 #@! TO.N,Net-(R7-Pad2)*
X148844000Y-124610000D03*
G04 #@! TO.N,Net-(R10-Pad2)*
X154305000Y-123317000D03*
G04 #@! TO.N,Net-(R1-Pad1)*
X151003000Y-101854000D03*
G04 #@! TO.N,Net-(R3-Pad2)*
X151765000Y-101854000D03*
G04 #@! TD*
D14*
G04 #@! TO.N,+5V*
X155810000Y-103952000D02*
X156210000Y-103952000D01*
D29*
X155043000Y-100900000D02*
X155422500Y-100520500D01*
X155043000Y-102425500D02*
X155043000Y-100900000D01*
X156210000Y-103142500D02*
X156210000Y-103427000D01*
X156210000Y-103427000D02*
X156210000Y-103952000D01*
X155493000Y-102425500D02*
X156210000Y-103142500D01*
X155043000Y-102425500D02*
X155493000Y-102425500D01*
X154940000Y-105001553D02*
X155790447Y-105852000D01*
X155790447Y-105852000D02*
X156210000Y-105852000D01*
X154940000Y-104648000D02*
X154940000Y-105001553D01*
X155636000Y-103952000D02*
X154940000Y-104648000D01*
X156210000Y-103952000D02*
X155636000Y-103952000D01*
D14*
G04 #@! TO.N,CLK*
X153903157Y-118192157D02*
X153968843Y-118192157D01*
X153380000Y-117294000D02*
X153380000Y-117669000D01*
X153380000Y-117669000D02*
X153903157Y-118192157D01*
X152613000Y-119761000D02*
X152400000Y-119974000D01*
X153924000Y-119761000D02*
X152613000Y-119761000D01*
G04 #@! TO.N,SCK*
X146983000Y-112566000D02*
X145713000Y-112566000D01*
X147755000Y-112169000D02*
X147380000Y-112169000D01*
X147380000Y-112169000D02*
X146983000Y-112566000D01*
X146939000Y-123952000D02*
X147197000Y-124210000D01*
X147681999Y-124775999D02*
X147681999Y-126726999D01*
X148247998Y-124210000D02*
X147681999Y-124775999D01*
X148844000Y-124210000D02*
X148247998Y-124210000D01*
X148844000Y-124210000D02*
X149680000Y-124210000D01*
X147197000Y-124210000D02*
X148844000Y-124210000D01*
X147681999Y-126726999D02*
X148336000Y-127381000D01*
X148336000Y-127381000D02*
X149054000Y-127381000D01*
X149054000Y-127381000D02*
X149098000Y-127337000D01*
G04 #@! TO.N,CRESET_B*
X153380000Y-129723100D02*
X153450900Y-129794000D01*
X152830000Y-129723100D02*
X153380000Y-129723100D01*
X153450900Y-129794000D02*
X156464000Y-129794000D01*
X156464000Y-129794000D02*
X156464000Y-125495000D01*
X156464000Y-125495000D02*
X156318000Y-125349000D01*
D30*
X146304000Y-111619000D02*
X144921000Y-111619000D01*
X144921000Y-111619000D02*
X144907000Y-111633000D01*
X152230000Y-129723100D02*
X152830000Y-129723100D01*
X151204999Y-130748101D02*
X152230000Y-129723100D01*
X145226101Y-130748101D02*
X151204999Y-130748101D01*
X144689393Y-130211393D02*
X145226101Y-130748101D01*
D14*
X150380000Y-110481500D02*
X150380000Y-109867000D01*
X150380000Y-109867000D02*
X150368000Y-109855000D01*
D30*
G04 #@! TO.N,SDI*
X147330000Y-111669000D02*
X146858000Y-112141000D01*
X147755000Y-111669000D02*
X147330000Y-111669000D01*
X146858000Y-112141000D02*
X145288000Y-112141000D01*
X153105000Y-124710000D02*
X152580000Y-124710000D01*
X153670000Y-127635000D02*
X153670000Y-125275000D01*
X153543000Y-127762000D02*
X153670000Y-127635000D01*
X147701000Y-127762000D02*
X153543000Y-127762000D01*
X145669000Y-129794000D02*
X147701000Y-127762000D01*
X153670000Y-125275000D02*
X153105000Y-124710000D01*
D14*
G04 #@! TO.N,SS*
X147019000Y-113030000D02*
X146304000Y-113030000D01*
X147755000Y-112669000D02*
X147380000Y-112669000D01*
X147380000Y-112669000D02*
X147019000Y-113030000D01*
X146196000Y-122908553D02*
X146304000Y-123016553D01*
X146196000Y-122555000D02*
X146196000Y-122908553D01*
X146304000Y-123016553D02*
X146304000Y-123825000D01*
X146304000Y-123825000D02*
X146281761Y-123847239D01*
X152580000Y-125460000D02*
X152580000Y-125210000D01*
X151675000Y-126365000D02*
X152580000Y-125460000D01*
X150749000Y-126365000D02*
X151675000Y-126365000D01*
D30*
G04 #@! TO.N,GND*
X157193029Y-104123971D02*
X157193029Y-103980029D01*
X156210000Y-104902000D02*
X156415000Y-104902000D01*
X156415000Y-104902000D02*
X157193029Y-104123971D01*
D14*
X151961000Y-108400000D02*
X152019000Y-108342000D01*
D30*
X146558000Y-104963000D02*
X147767000Y-104963000D01*
X147767000Y-104963000D02*
X147828000Y-104902000D01*
X151280000Y-124460000D02*
X151130000Y-124460000D01*
X152400000Y-123340000D02*
X151280000Y-124460000D01*
X152400000Y-122174000D02*
X152400000Y-123340000D01*
X152580000Y-123410000D02*
X152580000Y-123710000D01*
X152510000Y-123340000D02*
X152580000Y-123410000D01*
X152400000Y-123340000D02*
X152510000Y-123340000D01*
X151892000Y-121666000D02*
X152400000Y-122174000D01*
X151257000Y-121666000D02*
X151892000Y-121666000D01*
D14*
X157099000Y-104902000D02*
X156210000Y-104902000D01*
X157353000Y-105156000D02*
X157099000Y-104902000D01*
X149430000Y-129723100D02*
X150678100Y-129723100D01*
X150678100Y-129723100D02*
X151130000Y-130175000D01*
X152654000Y-122174000D02*
X152400000Y-122174000D01*
X153416000Y-121412000D02*
X152654000Y-122174000D01*
X150678100Y-129723100D02*
X150678100Y-129483900D01*
X150678100Y-129483900D02*
X151511000Y-128651000D01*
X151384000Y-124714000D02*
X151130000Y-124460000D01*
X151384000Y-125730000D02*
X151384000Y-124714000D01*
X147288100Y-97799100D02*
X147462000Y-97973000D01*
X149912000Y-97973000D02*
X149912000Y-98048000D01*
X149737000Y-100548000D02*
X149737000Y-100623000D01*
X148717000Y-100203000D02*
X149392000Y-100203000D01*
X152162000Y-97973000D02*
X152162000Y-98048000D01*
X147462000Y-97973000D02*
X148087000Y-97973000D01*
X153357000Y-100053000D02*
X153357000Y-100203000D01*
X154612000Y-97973000D02*
X154612000Y-98798000D01*
D29*
X158574600Y-100520500D02*
X158756000Y-100339100D01*
X156997500Y-100520500D02*
X158574600Y-100520500D01*
X147439100Y-97799100D02*
X147574000Y-97934000D01*
X143516000Y-97799100D02*
X147439100Y-97799100D01*
X148299000Y-97934000D02*
X150024000Y-97934000D01*
X150024000Y-97934000D02*
X152274000Y-97934000D01*
X153349000Y-97934000D02*
X154724000Y-97934000D01*
X153469000Y-99239000D02*
X153469000Y-100164000D01*
X153469000Y-98464000D02*
X153469000Y-99239000D01*
X153999000Y-97934000D02*
X153469000Y-98464000D01*
X154724000Y-97934000D02*
X153999000Y-97934000D01*
X148829000Y-98464000D02*
X148829000Y-99239000D01*
X148299000Y-97934000D02*
X148829000Y-98464000D01*
X148829000Y-99239000D02*
X148829000Y-100164000D01*
X147574000Y-97934000D02*
X148299000Y-97934000D01*
X148949000Y-97934000D02*
X150024000Y-97934000D01*
X148829000Y-98054000D02*
X148949000Y-97934000D01*
X148829000Y-100164000D02*
X148829000Y-98054000D01*
X153469000Y-98054000D02*
X153349000Y-97934000D01*
X153349000Y-97934000D02*
X152274000Y-97934000D01*
X153469000Y-100164000D02*
X153469000Y-98054000D01*
X149429000Y-100164000D02*
X149849000Y-100584000D01*
X148829000Y-100164000D02*
X149429000Y-100164000D01*
D31*
X148590000Y-108498500D02*
X149964000Y-108498500D01*
X149964000Y-108498500D02*
X149987000Y-108521500D01*
X150010000Y-108498500D02*
X149987000Y-108521500D01*
X152019000Y-108498500D02*
X150010000Y-108498500D01*
D14*
G04 #@! TO.N,SDO*
X147138000Y-113411000D02*
X147066000Y-113411000D01*
X147755000Y-113169000D02*
X147380000Y-113169000D01*
X147380000Y-113169000D02*
X147138000Y-113411000D01*
X147066000Y-113411000D02*
X147047000Y-113430000D01*
X147047000Y-113430000D02*
X146812000Y-113430000D01*
X148221000Y-123710000D02*
X148082000Y-123571000D01*
X146431000Y-121920000D02*
X148221000Y-123710000D01*
X148082000Y-123571000D02*
X149680000Y-123710000D01*
X148082000Y-124968000D02*
X150241000Y-127127000D01*
X150241000Y-127127000D02*
X151511000Y-127127000D01*
G04 #@! TO.N,USB_P*
X155516387Y-112669000D02*
X155944834Y-112240553D01*
X154505000Y-112669000D02*
X155516387Y-112669000D01*
X155944834Y-112240553D02*
X155944834Y-111855869D01*
X155944834Y-111855869D02*
X155944834Y-111887000D01*
D29*
G04 #@! TO.N,USB_N*
X155555000Y-111169000D02*
X154505000Y-111169000D01*
X156263033Y-111367834D02*
X156064199Y-111169000D01*
X156475166Y-111367834D02*
X156263033Y-111367834D01*
X156064199Y-111169000D02*
X155555000Y-111169000D01*
D14*
G04 #@! TO.N,USB_PU*
X154541165Y-111705165D02*
X154505000Y-111669000D01*
X155327568Y-111705165D02*
X154541165Y-111705165D01*
G04 #@! TO.N,LED*
X153035000Y-110326500D02*
X152880000Y-110481500D01*
D31*
X152880000Y-109161500D02*
X153543000Y-108498500D01*
X152880000Y-110481500D02*
X152880000Y-109161500D01*
G04 #@! TO.N,Net-(D1-Pad1)*
X148590000Y-107528500D02*
X147066000Y-107528500D01*
G04 #@! TO.N,Net-(D2-Pad1)*
X153543000Y-107528500D02*
X152019000Y-107528500D01*
D30*
G04 #@! TO.N,SPI_VCCIO1*
X154010000Y-105852000D02*
X154010000Y-106512000D01*
X154010000Y-106512000D02*
X154559000Y-107061000D01*
X154010000Y-106327000D02*
X154010000Y-105852000D01*
X153880000Y-110544000D02*
X153880000Y-110419000D01*
D14*
X152400000Y-117314000D02*
X152380000Y-117294000D01*
X152400000Y-118110000D02*
X152400000Y-117314000D01*
X147755000Y-116669000D02*
X147380000Y-116669000D01*
X149860000Y-122174000D02*
X149760000Y-122174000D01*
X149680000Y-125210000D02*
X148983000Y-125210000D01*
X148983000Y-125210000D02*
X148936343Y-125256657D01*
X149860000Y-122174000D02*
X150876000Y-122174000D01*
X150876000Y-122174000D02*
X151130000Y-122428000D01*
X149680000Y-125460000D02*
X149680000Y-125210000D01*
X149823000Y-125603000D02*
X149680000Y-125460000D01*
X150749000Y-125603000D02*
X149823000Y-125603000D01*
X148280010Y-116319526D02*
X148126246Y-116473290D01*
X148280010Y-115719010D02*
X148280010Y-116319526D01*
X148230000Y-115669000D02*
X148280010Y-115719010D01*
X147888210Y-116473290D02*
X147692500Y-116669000D01*
X148126246Y-116473290D02*
X147888210Y-116473290D01*
X147692500Y-115669000D02*
X148230000Y-115669000D01*
X147066000Y-117295500D02*
X147066000Y-117475000D01*
X147692500Y-116669000D02*
X147066000Y-117295500D01*
X154123000Y-110481500D02*
X153880000Y-110481500D01*
X155384500Y-109220000D02*
X154123000Y-110481500D01*
D31*
X150055000Y-121149000D02*
X150055000Y-121849000D01*
X149937000Y-121031000D02*
X150055000Y-121149000D01*
X147828000Y-121031000D02*
X149937000Y-121031000D01*
X150055000Y-120299000D02*
X150055000Y-121849000D01*
X147066000Y-108498500D02*
X147066000Y-108458000D01*
X147066000Y-108458000D02*
X146177000Y-107569000D01*
D30*
G04 #@! TO.N,VCC_CORE*
X148758000Y-104013000D02*
X149750814Y-104013000D01*
X149750814Y-104013000D02*
X149868907Y-104131093D01*
D14*
X150876000Y-117898000D02*
X150876000Y-118237000D01*
X150880000Y-117356500D02*
X150880000Y-117894000D01*
X150880000Y-117894000D02*
X150876000Y-117898000D01*
D30*
X150880000Y-118233000D02*
X150876000Y-118237000D01*
X150876000Y-118237000D02*
X150622000Y-118491000D01*
D14*
X151892000Y-110469500D02*
X151880000Y-110481500D01*
X151892000Y-109220000D02*
X151892000Y-110469500D01*
G04 #@! TO.N,VCCPLL*
X149225000Y-118491000D02*
X149474999Y-118241001D01*
X150184290Y-117552210D02*
X150184290Y-117912710D01*
X150380000Y-117356500D02*
X150184290Y-117552210D01*
X149855999Y-118241001D02*
X149606000Y-118241001D01*
X150184290Y-117912710D02*
X149855999Y-118241001D01*
X149474999Y-118241001D02*
X149606000Y-118241001D01*
X149606000Y-118241001D02*
X149807999Y-118241001D01*
D29*
G04 #@! TO.N,HL_02*
X144866011Y-105833733D02*
X144866011Y-101689111D01*
X145166020Y-106133742D02*
X144866011Y-105833733D01*
X144866011Y-101689111D02*
X143516000Y-100339100D01*
X145166021Y-108165743D02*
X145166020Y-106133742D01*
D14*
X149684290Y-110285790D02*
X149684290Y-109933290D01*
X149880000Y-110481500D02*
X149684290Y-110285790D01*
X149684290Y-109933290D02*
X149098000Y-109347000D01*
X145166021Y-108307165D02*
X145166021Y-108165743D01*
X146205856Y-109347000D02*
X145166021Y-108307165D01*
X149098000Y-109347000D02*
X146205856Y-109347000D01*
D29*
G04 #@! TO.N,HL_03*
X144365999Y-103729099D02*
X143516000Y-102879100D01*
X144566001Y-105958001D02*
X144566001Y-103929101D01*
X144566001Y-103929101D02*
X144365999Y-103729099D01*
X144866011Y-106258011D02*
X144566001Y-105958001D01*
X144866011Y-108290011D02*
X144866011Y-106258011D01*
D14*
X149380000Y-109944000D02*
X149380000Y-110481500D01*
X149380000Y-109944000D02*
X149100500Y-109664500D01*
X146240500Y-109664500D02*
X145605500Y-109029500D01*
X149100500Y-109664500D02*
X146240500Y-109664500D01*
X144866011Y-108290011D02*
X145605500Y-109029500D01*
X145605500Y-109029500D02*
X145669000Y-109093000D01*
D29*
G04 #@! TO.N,HL_04*
X144365999Y-106269099D02*
X143516000Y-105419100D01*
X144566001Y-106469101D02*
X144365999Y-106269099D01*
X144566001Y-108584823D02*
X144566001Y-106469101D01*
X148880000Y-110544000D02*
X148879999Y-110068999D01*
D14*
X148880000Y-109944000D02*
X148880000Y-110481500D01*
X148829990Y-109893990D02*
X148880000Y-109944000D01*
X145875168Y-109893990D02*
X148829990Y-109893990D01*
X144566001Y-108584823D02*
X145875168Y-109893990D01*
D29*
G04 #@! TO.N,HL_05*
X146100900Y-110544000D02*
X143516000Y-107959100D01*
X148380000Y-110544000D02*
X146100900Y-110544000D01*
G04 #@! TO.N,HL_06*
X144185900Y-111169000D02*
X143516000Y-110499100D01*
X147755000Y-111169000D02*
X144185900Y-111169000D01*
D14*
G04 #@! TO.N,HL_07*
X147380000Y-113669000D02*
X147193000Y-113856000D01*
X147755000Y-113669000D02*
X147380000Y-113669000D01*
X147193000Y-113856000D02*
X144463000Y-113856000D01*
X144365999Y-113889099D02*
X143516000Y-113039100D01*
X144429901Y-113889099D02*
X144365999Y-113889099D01*
X144463000Y-113856000D02*
X144429901Y-113889099D01*
G04 #@! TO.N,HL_08*
X144926100Y-114169000D02*
X144922100Y-114173000D01*
X147755000Y-114169000D02*
X144926100Y-114169000D01*
X144922100Y-114173000D02*
X144399000Y-114173000D01*
X144399000Y-114696100D02*
X143516000Y-115579100D01*
X144399000Y-114173000D02*
X144399000Y-114696100D01*
G04 #@! TO.N,HL_09*
X146966100Y-114669000D02*
X143516000Y-118119100D01*
X147755000Y-114669000D02*
X146966100Y-114669000D01*
G04 #@! TO.N,HL_10*
X144365999Y-119809101D02*
X143516000Y-120659100D01*
X144516001Y-119659099D02*
X144365999Y-119809101D01*
X144516001Y-118032999D02*
X144516001Y-119659099D01*
X147380000Y-115169000D02*
X144516001Y-118032999D01*
X147755000Y-115169000D02*
X147380000Y-115169000D01*
G04 #@! TO.N,HL_11*
X144365999Y-122349101D02*
X143516000Y-123199100D01*
X144716011Y-121999089D02*
X144365999Y-122349101D01*
X144716011Y-118832989D02*
X144766011Y-118832989D01*
X144766011Y-118832989D02*
X144716011Y-121999089D01*
X144889455Y-118832989D02*
X144766011Y-118832989D01*
X145950446Y-117771998D02*
X144889455Y-118832989D01*
X146303999Y-117771998D02*
X145950446Y-117771998D01*
X146969790Y-116364710D02*
X146812000Y-116522500D01*
X147692500Y-116169000D02*
X147496790Y-116364710D01*
X147496790Y-116364710D02*
X146969790Y-116364710D01*
G04 #@! TO.N,HL_12*
X144365999Y-124889101D02*
X143516000Y-125739100D01*
X144919498Y-124335602D02*
X143516000Y-125739100D01*
X144919498Y-121780502D02*
X144919498Y-124335602D01*
X148380000Y-117294000D02*
X148130000Y-117294000D01*
X148130000Y-117294000D02*
X146806000Y-118618000D01*
X144941914Y-120361086D02*
X144941914Y-121758086D01*
X144941914Y-121758086D02*
X144919498Y-121780502D01*
X146685000Y-118618000D02*
X144941914Y-120361086D01*
X146806000Y-118618000D02*
X146685000Y-118618000D01*
G04 #@! TO.N,HL_13*
X148880000Y-117294000D02*
X148880000Y-117669000D01*
X148880000Y-117294000D02*
X148880000Y-117489002D01*
X148684290Y-117790246D02*
X148684290Y-117552210D01*
X148684290Y-117552210D02*
X148880000Y-117356500D01*
X145247458Y-121227078D02*
X148684290Y-117790246D01*
X145141924Y-121227078D02*
X145247458Y-121227078D01*
X145141924Y-126653176D02*
X145141924Y-121227078D01*
X143516000Y-128279100D02*
X145141924Y-126653176D01*
G04 #@! TO.N,HL_14*
X145796000Y-128539100D02*
X143516000Y-130819100D01*
X145796000Y-121253000D02*
X145796000Y-128539100D01*
X149184290Y-117552210D02*
X149380000Y-117356500D01*
X149184290Y-117864710D02*
X149184290Y-117552210D01*
X145796000Y-121253000D02*
X149184290Y-117864710D01*
G04 #@! TO.N,HR_04*
X153380000Y-109944000D02*
X153380000Y-110481500D01*
X157054901Y-106269099D02*
X153380000Y-109944000D01*
X157906001Y-106269099D02*
X157054901Y-106269099D01*
X158756000Y-105419100D02*
X157906001Y-106269099D01*
G04 #@! TO.N,HR_05*
X157906001Y-108809099D02*
X158756000Y-107959100D01*
X157755999Y-108959101D02*
X157906001Y-108809099D01*
X157755999Y-110712244D02*
X157755999Y-108959101D01*
X154763210Y-112973290D02*
X155494953Y-112973290D01*
X155494953Y-112973290D02*
X157755999Y-110712244D01*
X154567500Y-113169000D02*
X154763210Y-112973290D01*
G04 #@! TO.N,HR_06*
X154505000Y-113669000D02*
X154880000Y-113669000D01*
X155586100Y-113669000D02*
X158756000Y-110499100D01*
X154567500Y-113669000D02*
X155586100Y-113669000D01*
G04 #@! TO.N,HR_07*
X157906001Y-113889099D02*
X158756000Y-113039100D01*
X157430390Y-114364710D02*
X157906001Y-113889099D01*
X154763210Y-114364710D02*
X157430390Y-114364710D01*
X154567500Y-114169000D02*
X154763210Y-114364710D01*
G04 #@! TO.N,HR_08*
X157845900Y-114669000D02*
X154567500Y-114669000D01*
X158756000Y-115579100D02*
X157845900Y-114669000D01*
G04 #@! TO.N,HR_09*
X157906001Y-117269101D02*
X158756000Y-118119100D01*
X157906001Y-116695001D02*
X157906001Y-117269101D01*
X156380000Y-115169000D02*
X154567500Y-115169000D01*
X157906001Y-116695001D02*
X156380000Y-115169000D01*
G04 #@! TO.N,HR_10*
X156380000Y-115669000D02*
X154567500Y-115669000D01*
X157705991Y-116994991D02*
X156380000Y-115669000D01*
X158756000Y-120659100D02*
X157705991Y-119609091D01*
X157705991Y-119609091D02*
X157705991Y-116994991D01*
G04 #@! TO.N,HR_11*
X154763210Y-116364710D02*
X154567500Y-116169000D01*
X155075710Y-116364710D02*
X154763210Y-116364710D01*
X157505981Y-121949081D02*
X157505981Y-118794981D01*
X157505981Y-118794981D02*
X155075710Y-116364710D01*
X158756000Y-123199100D02*
X157505981Y-121949081D01*
G04 #@! TO.N,HR_12*
X158756000Y-125739100D02*
X157305971Y-124289071D01*
X157305971Y-119407471D02*
X154567500Y-116669000D01*
X157305971Y-124289071D02*
X157305971Y-119407471D01*
G04 #@! TO.N,HR_13*
X154130000Y-117294000D02*
X156972000Y-120136000D01*
X153880000Y-117294000D02*
X154130000Y-117294000D01*
X156972000Y-126495100D02*
X158756000Y-128279100D01*
X156972000Y-120136000D02*
X156972000Y-126495100D01*
G04 #@! TO.N,HR_14*
X152880000Y-117669000D02*
X156718000Y-121507000D01*
X152880000Y-117294000D02*
X152880000Y-117669000D01*
X156718000Y-128781100D02*
X158756000Y-130819100D01*
X156718000Y-121507000D02*
X156718000Y-128781100D01*
G04 #@! TO.N,Net-(R7-Pad2)*
X149580000Y-124610000D02*
X149680000Y-124710000D01*
X148844000Y-124610000D02*
X149580000Y-124610000D01*
G04 #@! TO.N,Net-(R10-Pad2)*
X152580000Y-124210000D02*
X153412000Y-124210000D01*
X153412000Y-124210000D02*
X154305000Y-123317000D01*
D29*
G04 #@! TO.N,Net-(L1-Pad2)*
X153543000Y-102178000D02*
X153543000Y-102425500D01*
X152449000Y-101084000D02*
X153543000Y-102178000D01*
X152449000Y-100584000D02*
X152449000Y-101084000D01*
D14*
G04 #@! TO.N,Net-(R1-Pad1)*
X151003000Y-100839000D02*
X151021000Y-100821000D01*
X151003000Y-101854000D02*
X151003000Y-100839000D01*
G04 #@! TO.N,Net-(R3-Pad2)*
X151671000Y-101406447D02*
X151671000Y-100821000D01*
X151765000Y-101500447D02*
X151671000Y-101406447D01*
X151765000Y-101854000D02*
X151765000Y-101500447D01*
G04 #@! TD*
D32*
G04 #@! TO.N,+5V*
G36*
X157647291Y-105878342D02*
X157656483Y-105892099D01*
X157092023Y-105892099D01*
X157054901Y-105884715D01*
X157017778Y-105892099D01*
X157017775Y-105892099D01*
X156907803Y-105913974D01*
X156901778Y-105918000D01*
X156063000Y-105918000D01*
X156063000Y-105725000D01*
X156083000Y-105725000D01*
X156083000Y-105705000D01*
X156337000Y-105705000D01*
X156337000Y-105725000D01*
X157216250Y-105725000D01*
X157217030Y-105724220D01*
X157238228Y-105733000D01*
X157467772Y-105733000D01*
X157606916Y-105675365D01*
X157647291Y-105878342D01*
X157647291Y-105878342D01*
G37*
X157647291Y-105878342D02*
X157656483Y-105892099D01*
X157092023Y-105892099D01*
X157054901Y-105884715D01*
X157017778Y-105892099D01*
X157017775Y-105892099D01*
X156907803Y-105913974D01*
X156901778Y-105918000D01*
X156063000Y-105918000D01*
X156063000Y-105725000D01*
X156083000Y-105725000D01*
X156083000Y-105705000D01*
X156337000Y-105705000D01*
X156337000Y-105725000D01*
X157216250Y-105725000D01*
X157217030Y-105724220D01*
X157238228Y-105733000D01*
X157467772Y-105733000D01*
X157606916Y-105675365D01*
X157647291Y-105878342D01*
G36*
X157907431Y-101187669D02*
X158296758Y-101447809D01*
X158423402Y-101473000D01*
X157988000Y-101473000D01*
X157939399Y-101482667D01*
X157898197Y-101510197D01*
X157870667Y-101551399D01*
X157861000Y-101600000D01*
X157861000Y-102100020D01*
X157647291Y-102419858D01*
X157555942Y-102879100D01*
X157647291Y-103338342D01*
X157861000Y-103658180D01*
X157861000Y-104640020D01*
X157777695Y-104764694D01*
X157679844Y-104666843D01*
X157467772Y-104579000D01*
X157306514Y-104579000D01*
X157343110Y-104542403D01*
X157519873Y-104469186D01*
X157682186Y-104306873D01*
X157770029Y-104094801D01*
X157770029Y-103865257D01*
X157682186Y-103653185D01*
X157519873Y-103490872D01*
X157340087Y-103416402D01*
X157278327Y-103267301D01*
X157099698Y-103088673D01*
X156866309Y-102992000D01*
X156495750Y-102992000D01*
X156337000Y-103150750D01*
X156337000Y-103825000D01*
X156357000Y-103825000D01*
X156357000Y-104079000D01*
X156337000Y-104079000D01*
X156337000Y-104099000D01*
X156083000Y-104099000D01*
X156083000Y-104079000D01*
X156063000Y-104079000D01*
X156063000Y-103825000D01*
X156083000Y-103825000D01*
X156083000Y-103150750D01*
X155928000Y-102995750D01*
X155928000Y-102711250D01*
X155769250Y-102552500D01*
X155168000Y-102552500D01*
X155168000Y-103240974D01*
X155141673Y-103267301D01*
X155045000Y-103500690D01*
X155045000Y-103666250D01*
X155075346Y-103696596D01*
X154858493Y-103552027D01*
X154848027Y-103499411D01*
X154816910Y-103452840D01*
X154918000Y-103351750D01*
X154918000Y-102552500D01*
X154896000Y-102552500D01*
X154896000Y-102298500D01*
X154918000Y-102298500D01*
X154918000Y-102278500D01*
X155168000Y-102278500D01*
X155168000Y-102298500D01*
X155769250Y-102298500D01*
X155928000Y-102139750D01*
X155928000Y-101849190D01*
X155837416Y-101630500D01*
X155986309Y-101630500D01*
X156219698Y-101533827D01*
X156398327Y-101355199D01*
X156457154Y-101213179D01*
X156567449Y-101286876D01*
X156778750Y-101328906D01*
X157216250Y-101328906D01*
X157427551Y-101286876D01*
X157606683Y-101167183D01*
X157726376Y-100988051D01*
X157734442Y-100947500D01*
X157746955Y-100947500D01*
X157907431Y-101187669D01*
X157907431Y-101187669D01*
G37*
X157907431Y-101187669D02*
X158296758Y-101447809D01*
X158423402Y-101473000D01*
X157988000Y-101473000D01*
X157939399Y-101482667D01*
X157898197Y-101510197D01*
X157870667Y-101551399D01*
X157861000Y-101600000D01*
X157861000Y-102100020D01*
X157647291Y-102419858D01*
X157555942Y-102879100D01*
X157647291Y-103338342D01*
X157861000Y-103658180D01*
X157861000Y-104640020D01*
X157777695Y-104764694D01*
X157679844Y-104666843D01*
X157467772Y-104579000D01*
X157306514Y-104579000D01*
X157343110Y-104542403D01*
X157519873Y-104469186D01*
X157682186Y-104306873D01*
X157770029Y-104094801D01*
X157770029Y-103865257D01*
X157682186Y-103653185D01*
X157519873Y-103490872D01*
X157340087Y-103416402D01*
X157278327Y-103267301D01*
X157099698Y-103088673D01*
X156866309Y-102992000D01*
X156495750Y-102992000D01*
X156337000Y-103150750D01*
X156337000Y-103825000D01*
X156357000Y-103825000D01*
X156357000Y-104079000D01*
X156337000Y-104079000D01*
X156337000Y-104099000D01*
X156083000Y-104099000D01*
X156083000Y-104079000D01*
X156063000Y-104079000D01*
X156063000Y-103825000D01*
X156083000Y-103825000D01*
X156083000Y-103150750D01*
X155928000Y-102995750D01*
X155928000Y-102711250D01*
X155769250Y-102552500D01*
X155168000Y-102552500D01*
X155168000Y-103240974D01*
X155141673Y-103267301D01*
X155045000Y-103500690D01*
X155045000Y-103666250D01*
X155075346Y-103696596D01*
X154858493Y-103552027D01*
X154848027Y-103499411D01*
X154816910Y-103452840D01*
X154918000Y-103351750D01*
X154918000Y-102552500D01*
X154896000Y-102552500D01*
X154896000Y-102298500D01*
X154918000Y-102298500D01*
X154918000Y-102278500D01*
X155168000Y-102278500D01*
X155168000Y-102298500D01*
X155769250Y-102298500D01*
X155928000Y-102139750D01*
X155928000Y-101849190D01*
X155837416Y-101630500D01*
X155986309Y-101630500D01*
X156219698Y-101533827D01*
X156398327Y-101355199D01*
X156457154Y-101213179D01*
X156567449Y-101286876D01*
X156778750Y-101328906D01*
X157216250Y-101328906D01*
X157427551Y-101286876D01*
X157606683Y-101167183D01*
X157726376Y-100988051D01*
X157734442Y-100947500D01*
X157746955Y-100947500D01*
X157907431Y-101187669D01*
G36*
X157259282Y-97570379D02*
X157285685Y-98160558D01*
X157460741Y-98583180D01*
X157712042Y-98663453D01*
X158576395Y-97799100D01*
X158562253Y-97784958D01*
X158741858Y-97605353D01*
X158756000Y-97619495D01*
X158770143Y-97605353D01*
X158949748Y-97784958D01*
X158935605Y-97799100D01*
X158949748Y-97813243D01*
X158770143Y-97992848D01*
X158756000Y-97978705D01*
X157891647Y-98843058D01*
X157971920Y-99094359D01*
X158329154Y-99223947D01*
X158296758Y-99230391D01*
X157907431Y-99490531D01*
X157647291Y-99879858D01*
X157638901Y-99922035D01*
X157606683Y-99873817D01*
X157427551Y-99754124D01*
X157216250Y-99712094D01*
X156778750Y-99712094D01*
X156567449Y-99754124D01*
X156457154Y-99827821D01*
X156398327Y-99685801D01*
X156219698Y-99507173D01*
X155986309Y-99410500D01*
X155708250Y-99410500D01*
X155549500Y-99569250D01*
X155549500Y-100393500D01*
X155569500Y-100393500D01*
X155569500Y-100647500D01*
X155549500Y-100647500D01*
X155549500Y-100667500D01*
X155295500Y-100667500D01*
X155295500Y-100647500D01*
X155275500Y-100647500D01*
X155275500Y-100393500D01*
X155295500Y-100393500D01*
X155295500Y-99569250D01*
X155136750Y-99410500D01*
X154858691Y-99410500D01*
X154625302Y-99507173D01*
X154446673Y-99685801D01*
X154377406Y-99853026D01*
X154377406Y-99439000D01*
X154352027Y-99311411D01*
X154305000Y-99241030D01*
X154305000Y-99103724D01*
X154391567Y-99161566D01*
X154724000Y-99227691D01*
X155056434Y-99161566D01*
X155338257Y-98973257D01*
X155526566Y-98691434D01*
X155576000Y-98442912D01*
X155576000Y-97425088D01*
X155526566Y-97176566D01*
X155427297Y-97028000D01*
X157456032Y-97028000D01*
X157259282Y-97570379D01*
X157259282Y-97570379D01*
G37*
X157259282Y-97570379D02*
X157285685Y-98160558D01*
X157460741Y-98583180D01*
X157712042Y-98663453D01*
X158576395Y-97799100D01*
X158562253Y-97784958D01*
X158741858Y-97605353D01*
X158756000Y-97619495D01*
X158770143Y-97605353D01*
X158949748Y-97784958D01*
X158935605Y-97799100D01*
X158949748Y-97813243D01*
X158770143Y-97992848D01*
X158756000Y-97978705D01*
X157891647Y-98843058D01*
X157971920Y-99094359D01*
X158329154Y-99223947D01*
X158296758Y-99230391D01*
X157907431Y-99490531D01*
X157647291Y-99879858D01*
X157638901Y-99922035D01*
X157606683Y-99873817D01*
X157427551Y-99754124D01*
X157216250Y-99712094D01*
X156778750Y-99712094D01*
X156567449Y-99754124D01*
X156457154Y-99827821D01*
X156398327Y-99685801D01*
X156219698Y-99507173D01*
X155986309Y-99410500D01*
X155708250Y-99410500D01*
X155549500Y-99569250D01*
X155549500Y-100393500D01*
X155569500Y-100393500D01*
X155569500Y-100647500D01*
X155549500Y-100647500D01*
X155549500Y-100667500D01*
X155295500Y-100667500D01*
X155295500Y-100647500D01*
X155275500Y-100647500D01*
X155275500Y-100393500D01*
X155295500Y-100393500D01*
X155295500Y-99569250D01*
X155136750Y-99410500D01*
X154858691Y-99410500D01*
X154625302Y-99507173D01*
X154446673Y-99685801D01*
X154377406Y-99853026D01*
X154377406Y-99439000D01*
X154352027Y-99311411D01*
X154305000Y-99241030D01*
X154305000Y-99103724D01*
X154391567Y-99161566D01*
X154724000Y-99227691D01*
X155056434Y-99161566D01*
X155338257Y-98973257D01*
X155526566Y-98691434D01*
X155576000Y-98442912D01*
X155576000Y-97425088D01*
X155526566Y-97176566D01*
X155427297Y-97028000D01*
X157456032Y-97028000D01*
X157259282Y-97570379D01*
D29*
G04 #@! TO.N,SPI_VCCIO1*
G36*
X152442500Y-117202500D02*
X152449123Y-117202500D01*
X152449123Y-117510500D01*
X152442500Y-117510500D01*
X152442500Y-118250000D01*
X152594500Y-118402000D01*
X152625938Y-118402000D01*
X152849404Y-118309438D01*
X152937434Y-118221408D01*
X153927026Y-119211000D01*
X153814598Y-119211000D01*
X153612450Y-119294733D01*
X153496183Y-119411000D01*
X152647462Y-119411000D01*
X152612999Y-119404145D01*
X152578536Y-119411000D01*
X152578532Y-119411000D01*
X152476437Y-119431308D01*
X152360665Y-119508665D01*
X152341140Y-119537887D01*
X152335903Y-119543123D01*
X151705000Y-119543123D01*
X151587946Y-119566407D01*
X151488712Y-119632712D01*
X151422407Y-119731946D01*
X151399123Y-119849000D01*
X151399123Y-120749000D01*
X151422407Y-120866054D01*
X151488712Y-120965288D01*
X151587946Y-121031593D01*
X151705000Y-121054877D01*
X152705000Y-121054877D01*
X152822054Y-121031593D01*
X152921288Y-120965288D01*
X152987593Y-120866054D01*
X153010877Y-120749000D01*
X153010877Y-120111000D01*
X153496183Y-120111000D01*
X153612450Y-120227267D01*
X153814598Y-120311000D01*
X154033402Y-120311000D01*
X154235550Y-120227267D01*
X154390267Y-120072550D01*
X154474000Y-119870402D01*
X154474000Y-119757974D01*
X156368000Y-121651975D01*
X156368000Y-124799000D01*
X156208598Y-124799000D01*
X156006450Y-124882733D01*
X155851733Y-125037450D01*
X155768000Y-125239598D01*
X155768000Y-125458402D01*
X155851733Y-125660550D01*
X156006450Y-125815267D01*
X156114001Y-125859816D01*
X156114000Y-129444000D01*
X153592279Y-129444000D01*
X153585877Y-129439723D01*
X153585877Y-128873100D01*
X153562593Y-128756046D01*
X153496288Y-128656812D01*
X153397054Y-128590507D01*
X153280000Y-128567223D01*
X152380000Y-128567223D01*
X152262946Y-128590507D01*
X152163712Y-128656812D01*
X152097407Y-128756046D01*
X152074123Y-128873100D01*
X152074123Y-129376246D01*
X151959641Y-129452741D01*
X151938722Y-129484048D01*
X151577794Y-129844977D01*
X151441550Y-129708733D01*
X151239402Y-129625000D01*
X151074973Y-129625000D01*
X151053473Y-129603500D01*
X151455974Y-129201000D01*
X151620402Y-129201000D01*
X151822550Y-129117267D01*
X151977267Y-128962550D01*
X152061000Y-128760402D01*
X152061000Y-128541598D01*
X151977267Y-128339450D01*
X151822550Y-128184733D01*
X151707313Y-128137000D01*
X153506074Y-128137000D01*
X153543000Y-128144345D01*
X153579926Y-128137000D01*
X153579931Y-128137000D01*
X153689317Y-128115242D01*
X153813359Y-128032359D01*
X153834280Y-128001049D01*
X153909050Y-127926279D01*
X153940359Y-127905359D01*
X154023242Y-127781317D01*
X154045000Y-127671931D01*
X154045000Y-127671927D01*
X154052345Y-127635001D01*
X154045000Y-127598075D01*
X154045000Y-125677817D01*
X154136267Y-125586550D01*
X154220000Y-125384402D01*
X154220000Y-125165598D01*
X154136267Y-124963450D01*
X153981550Y-124808733D01*
X153779402Y-124725000D01*
X153650329Y-124725000D01*
X153478882Y-124553552D01*
X153548563Y-124539692D01*
X153664335Y-124462335D01*
X153683862Y-124433111D01*
X154249974Y-123867000D01*
X154414402Y-123867000D01*
X154616550Y-123783267D01*
X154771267Y-123628550D01*
X154855000Y-123426402D01*
X154855000Y-123207598D01*
X154771267Y-123005450D01*
X154616550Y-122850733D01*
X154414402Y-122767000D01*
X154195598Y-122767000D01*
X153993450Y-122850733D01*
X153838733Y-123005450D01*
X153755000Y-123207598D01*
X153755000Y-123372026D01*
X153267027Y-123860000D01*
X153260877Y-123860000D01*
X153260877Y-123560000D01*
X153237593Y-123442946D01*
X153171288Y-123343712D01*
X153072054Y-123277407D01*
X152955000Y-123254123D01*
X152926854Y-123254123D01*
X152850359Y-123139641D01*
X152819050Y-123118721D01*
X152801280Y-123100951D01*
X152780359Y-123069641D01*
X152775000Y-123066060D01*
X152775000Y-122590953D01*
X152822054Y-122581593D01*
X152921288Y-122515288D01*
X152987593Y-122416054D01*
X153007625Y-122315348D01*
X153360974Y-121962000D01*
X153525402Y-121962000D01*
X153727550Y-121878267D01*
X153882267Y-121723550D01*
X153966000Y-121521402D01*
X153966000Y-121302598D01*
X153882267Y-121100450D01*
X153727550Y-120945733D01*
X153525402Y-120862000D01*
X153306598Y-120862000D01*
X153104450Y-120945733D01*
X152949733Y-121100450D01*
X152916879Y-121179766D01*
X152822054Y-121116407D01*
X152705000Y-121093123D01*
X151705000Y-121093123D01*
X151587946Y-121116407D01*
X151503540Y-121172805D01*
X151366402Y-121116000D01*
X151147598Y-121116000D01*
X151103447Y-121134288D01*
X151078475Y-121074000D01*
X151163000Y-120869938D01*
X151163000Y-120605000D01*
X151011000Y-120453000D01*
X150209000Y-120453000D01*
X150209000Y-121695000D01*
X150229000Y-121695000D01*
X150229000Y-122003000D01*
X150209000Y-122003000D01*
X150209000Y-122755000D01*
X150361000Y-122907000D01*
X150675939Y-122907000D01*
X150899405Y-122814437D01*
X151070438Y-122643404D01*
X151163000Y-122419938D01*
X151163000Y-122216000D01*
X151366402Y-122216000D01*
X151399123Y-122202446D01*
X151399123Y-122299000D01*
X151422407Y-122416054D01*
X151488712Y-122515288D01*
X151587946Y-122581593D01*
X151705000Y-122604877D01*
X152025000Y-122604877D01*
X152025001Y-123184668D01*
X151780547Y-123429123D01*
X150328357Y-123429123D01*
X150271288Y-123343712D01*
X150172054Y-123277407D01*
X150055000Y-123254123D01*
X149305000Y-123254123D01*
X149187946Y-123277407D01*
X149137001Y-123311447D01*
X148548605Y-123260266D01*
X148548267Y-123259450D01*
X148393550Y-123104733D01*
X148191402Y-123021000D01*
X148026974Y-123021000D01*
X147160974Y-122155000D01*
X148947000Y-122155000D01*
X148947000Y-122419938D01*
X149039562Y-122643404D01*
X149210595Y-122814437D01*
X149434061Y-122907000D01*
X149749000Y-122907000D01*
X149901000Y-122755000D01*
X149901000Y-122003000D01*
X149099000Y-122003000D01*
X148947000Y-122155000D01*
X147160974Y-122155000D01*
X146981000Y-121975027D01*
X146981000Y-121810598D01*
X146897267Y-121608450D01*
X146742550Y-121453733D01*
X146540402Y-121370000D01*
X146321598Y-121370000D01*
X146146000Y-121442736D01*
X146146000Y-121397973D01*
X146938973Y-120605000D01*
X148947000Y-120605000D01*
X148947000Y-120869938D01*
X149031525Y-121074000D01*
X148947000Y-121278062D01*
X148947000Y-121543000D01*
X149099000Y-121695000D01*
X149901000Y-121695000D01*
X149901000Y-120453000D01*
X149099000Y-120453000D01*
X148947000Y-120605000D01*
X146938973Y-120605000D01*
X147815911Y-119728062D01*
X148947000Y-119728062D01*
X148947000Y-119993000D01*
X149099000Y-120145000D01*
X149901000Y-120145000D01*
X149901000Y-119393000D01*
X150209000Y-119393000D01*
X150209000Y-120145000D01*
X151011000Y-120145000D01*
X151163000Y-119993000D01*
X151163000Y-119728062D01*
X151070438Y-119504596D01*
X150899405Y-119333563D01*
X150675939Y-119241000D01*
X150361000Y-119241000D01*
X150209000Y-119393000D01*
X149901000Y-119393000D01*
X149749000Y-119241000D01*
X149434061Y-119241000D01*
X149210595Y-119333563D01*
X149039562Y-119504596D01*
X148947000Y-119728062D01*
X147815911Y-119728062D01*
X148753663Y-118790311D01*
X148758733Y-118802550D01*
X148913450Y-118957267D01*
X149115598Y-119041000D01*
X149334402Y-119041000D01*
X149536550Y-118957267D01*
X149691267Y-118802550D01*
X149775000Y-118600402D01*
X149775000Y-118591001D01*
X149821535Y-118591001D01*
X149855999Y-118597856D01*
X149890463Y-118591001D01*
X149890467Y-118591001D01*
X149992562Y-118570693D01*
X150072000Y-118517614D01*
X150072000Y-118600402D01*
X150155733Y-118802550D01*
X150310450Y-118957267D01*
X150512598Y-119041000D01*
X150731402Y-119041000D01*
X150933550Y-118957267D01*
X151088267Y-118802550D01*
X151172000Y-118600402D01*
X151172000Y-118470971D01*
X151233241Y-118379317D01*
X151262345Y-118233000D01*
X151233241Y-118086682D01*
X151230494Y-118082570D01*
X151317500Y-118099877D01*
X151442500Y-118099877D01*
X151583472Y-118071836D01*
X151630000Y-118040747D01*
X151676528Y-118071836D01*
X151715173Y-118079523D01*
X151739563Y-118138405D01*
X151910596Y-118309438D01*
X152134062Y-118402000D01*
X152165500Y-118402000D01*
X152317500Y-118250000D01*
X152317500Y-117510500D01*
X152310877Y-117510500D01*
X152310877Y-117202500D01*
X152317500Y-117202500D01*
X152317500Y-117182500D01*
X152442500Y-117182500D01*
X152442500Y-117202500D01*
X152442500Y-117202500D01*
G37*
X152442500Y-117202500D02*
X152449123Y-117202500D01*
X152449123Y-117510500D01*
X152442500Y-117510500D01*
X152442500Y-118250000D01*
X152594500Y-118402000D01*
X152625938Y-118402000D01*
X152849404Y-118309438D01*
X152937434Y-118221408D01*
X153927026Y-119211000D01*
X153814598Y-119211000D01*
X153612450Y-119294733D01*
X153496183Y-119411000D01*
X152647462Y-119411000D01*
X152612999Y-119404145D01*
X152578536Y-119411000D01*
X152578532Y-119411000D01*
X152476437Y-119431308D01*
X152360665Y-119508665D01*
X152341140Y-119537887D01*
X152335903Y-119543123D01*
X151705000Y-119543123D01*
X151587946Y-119566407D01*
X151488712Y-119632712D01*
X151422407Y-119731946D01*
X151399123Y-119849000D01*
X151399123Y-120749000D01*
X151422407Y-120866054D01*
X151488712Y-120965288D01*
X151587946Y-121031593D01*
X151705000Y-121054877D01*
X152705000Y-121054877D01*
X152822054Y-121031593D01*
X152921288Y-120965288D01*
X152987593Y-120866054D01*
X153010877Y-120749000D01*
X153010877Y-120111000D01*
X153496183Y-120111000D01*
X153612450Y-120227267D01*
X153814598Y-120311000D01*
X154033402Y-120311000D01*
X154235550Y-120227267D01*
X154390267Y-120072550D01*
X154474000Y-119870402D01*
X154474000Y-119757974D01*
X156368000Y-121651975D01*
X156368000Y-124799000D01*
X156208598Y-124799000D01*
X156006450Y-124882733D01*
X155851733Y-125037450D01*
X155768000Y-125239598D01*
X155768000Y-125458402D01*
X155851733Y-125660550D01*
X156006450Y-125815267D01*
X156114001Y-125859816D01*
X156114000Y-129444000D01*
X153592279Y-129444000D01*
X153585877Y-129439723D01*
X153585877Y-128873100D01*
X153562593Y-128756046D01*
X153496288Y-128656812D01*
X153397054Y-128590507D01*
X153280000Y-128567223D01*
X152380000Y-128567223D01*
X152262946Y-128590507D01*
X152163712Y-128656812D01*
X152097407Y-128756046D01*
X152074123Y-128873100D01*
X152074123Y-129376246D01*
X151959641Y-129452741D01*
X151938722Y-129484048D01*
X151577794Y-129844977D01*
X151441550Y-129708733D01*
X151239402Y-129625000D01*
X151074973Y-129625000D01*
X151053473Y-129603500D01*
X151455974Y-129201000D01*
X151620402Y-129201000D01*
X151822550Y-129117267D01*
X151977267Y-128962550D01*
X152061000Y-128760402D01*
X152061000Y-128541598D01*
X151977267Y-128339450D01*
X151822550Y-128184733D01*
X151707313Y-128137000D01*
X153506074Y-128137000D01*
X153543000Y-128144345D01*
X153579926Y-128137000D01*
X153579931Y-128137000D01*
X153689317Y-128115242D01*
X153813359Y-128032359D01*
X153834280Y-128001049D01*
X153909050Y-127926279D01*
X153940359Y-127905359D01*
X154023242Y-127781317D01*
X154045000Y-127671931D01*
X154045000Y-127671927D01*
X154052345Y-127635001D01*
X154045000Y-127598075D01*
X154045000Y-125677817D01*
X154136267Y-125586550D01*
X154220000Y-125384402D01*
X154220000Y-125165598D01*
X154136267Y-124963450D01*
X153981550Y-124808733D01*
X153779402Y-124725000D01*
X153650329Y-124725000D01*
X153478882Y-124553552D01*
X153548563Y-124539692D01*
X153664335Y-124462335D01*
X153683862Y-124433111D01*
X154249974Y-123867000D01*
X154414402Y-123867000D01*
X154616550Y-123783267D01*
X154771267Y-123628550D01*
X154855000Y-123426402D01*
X154855000Y-123207598D01*
X154771267Y-123005450D01*
X154616550Y-122850733D01*
X154414402Y-122767000D01*
X154195598Y-122767000D01*
X153993450Y-122850733D01*
X153838733Y-123005450D01*
X153755000Y-123207598D01*
X153755000Y-123372026D01*
X153267027Y-123860000D01*
X153260877Y-123860000D01*
X153260877Y-123560000D01*
X153237593Y-123442946D01*
X153171288Y-123343712D01*
X153072054Y-123277407D01*
X152955000Y-123254123D01*
X152926854Y-123254123D01*
X152850359Y-123139641D01*
X152819050Y-123118721D01*
X152801280Y-123100951D01*
X152780359Y-123069641D01*
X152775000Y-123066060D01*
X152775000Y-122590953D01*
X152822054Y-122581593D01*
X152921288Y-122515288D01*
X152987593Y-122416054D01*
X153007625Y-122315348D01*
X153360974Y-121962000D01*
X153525402Y-121962000D01*
X153727550Y-121878267D01*
X153882267Y-121723550D01*
X153966000Y-121521402D01*
X153966000Y-121302598D01*
X153882267Y-121100450D01*
X153727550Y-120945733D01*
X153525402Y-120862000D01*
X153306598Y-120862000D01*
X153104450Y-120945733D01*
X152949733Y-121100450D01*
X152916879Y-121179766D01*
X152822054Y-121116407D01*
X152705000Y-121093123D01*
X151705000Y-121093123D01*
X151587946Y-121116407D01*
X151503540Y-121172805D01*
X151366402Y-121116000D01*
X151147598Y-121116000D01*
X151103447Y-121134288D01*
X151078475Y-121074000D01*
X151163000Y-120869938D01*
X151163000Y-120605000D01*
X151011000Y-120453000D01*
X150209000Y-120453000D01*
X150209000Y-121695000D01*
X150229000Y-121695000D01*
X150229000Y-122003000D01*
X150209000Y-122003000D01*
X150209000Y-122755000D01*
X150361000Y-122907000D01*
X150675939Y-122907000D01*
X150899405Y-122814437D01*
X151070438Y-122643404D01*
X151163000Y-122419938D01*
X151163000Y-122216000D01*
X151366402Y-122216000D01*
X151399123Y-122202446D01*
X151399123Y-122299000D01*
X151422407Y-122416054D01*
X151488712Y-122515288D01*
X151587946Y-122581593D01*
X151705000Y-122604877D01*
X152025000Y-122604877D01*
X152025001Y-123184668D01*
X151780547Y-123429123D01*
X150328357Y-123429123D01*
X150271288Y-123343712D01*
X150172054Y-123277407D01*
X150055000Y-123254123D01*
X149305000Y-123254123D01*
X149187946Y-123277407D01*
X149137001Y-123311447D01*
X148548605Y-123260266D01*
X148548267Y-123259450D01*
X148393550Y-123104733D01*
X148191402Y-123021000D01*
X148026974Y-123021000D01*
X147160974Y-122155000D01*
X148947000Y-122155000D01*
X148947000Y-122419938D01*
X149039562Y-122643404D01*
X149210595Y-122814437D01*
X149434061Y-122907000D01*
X149749000Y-122907000D01*
X149901000Y-122755000D01*
X149901000Y-122003000D01*
X149099000Y-122003000D01*
X148947000Y-122155000D01*
X147160974Y-122155000D01*
X146981000Y-121975027D01*
X146981000Y-121810598D01*
X146897267Y-121608450D01*
X146742550Y-121453733D01*
X146540402Y-121370000D01*
X146321598Y-121370000D01*
X146146000Y-121442736D01*
X146146000Y-121397973D01*
X146938973Y-120605000D01*
X148947000Y-120605000D01*
X148947000Y-120869938D01*
X149031525Y-121074000D01*
X148947000Y-121278062D01*
X148947000Y-121543000D01*
X149099000Y-121695000D01*
X149901000Y-121695000D01*
X149901000Y-120453000D01*
X149099000Y-120453000D01*
X148947000Y-120605000D01*
X146938973Y-120605000D01*
X147815911Y-119728062D01*
X148947000Y-119728062D01*
X148947000Y-119993000D01*
X149099000Y-120145000D01*
X149901000Y-120145000D01*
X149901000Y-119393000D01*
X150209000Y-119393000D01*
X150209000Y-120145000D01*
X151011000Y-120145000D01*
X151163000Y-119993000D01*
X151163000Y-119728062D01*
X151070438Y-119504596D01*
X150899405Y-119333563D01*
X150675939Y-119241000D01*
X150361000Y-119241000D01*
X150209000Y-119393000D01*
X149901000Y-119393000D01*
X149749000Y-119241000D01*
X149434061Y-119241000D01*
X149210595Y-119333563D01*
X149039562Y-119504596D01*
X148947000Y-119728062D01*
X147815911Y-119728062D01*
X148753663Y-118790311D01*
X148758733Y-118802550D01*
X148913450Y-118957267D01*
X149115598Y-119041000D01*
X149334402Y-119041000D01*
X149536550Y-118957267D01*
X149691267Y-118802550D01*
X149775000Y-118600402D01*
X149775000Y-118591001D01*
X149821535Y-118591001D01*
X149855999Y-118597856D01*
X149890463Y-118591001D01*
X149890467Y-118591001D01*
X149992562Y-118570693D01*
X150072000Y-118517614D01*
X150072000Y-118600402D01*
X150155733Y-118802550D01*
X150310450Y-118957267D01*
X150512598Y-119041000D01*
X150731402Y-119041000D01*
X150933550Y-118957267D01*
X151088267Y-118802550D01*
X151172000Y-118600402D01*
X151172000Y-118470971D01*
X151233241Y-118379317D01*
X151262345Y-118233000D01*
X151233241Y-118086682D01*
X151230494Y-118082570D01*
X151317500Y-118099877D01*
X151442500Y-118099877D01*
X151583472Y-118071836D01*
X151630000Y-118040747D01*
X151676528Y-118071836D01*
X151715173Y-118079523D01*
X151739563Y-118138405D01*
X151910596Y-118309438D01*
X152134062Y-118402000D01*
X152165500Y-118402000D01*
X152317500Y-118250000D01*
X152317500Y-117510500D01*
X152310877Y-117510500D01*
X152310877Y-117202500D01*
X152317500Y-117202500D01*
X152317500Y-117182500D01*
X152442500Y-117182500D01*
X152442500Y-117202500D01*
G36*
X149854000Y-125285000D02*
X149834000Y-125285000D01*
X149834000Y-125816000D01*
X149986000Y-125968000D01*
X150175939Y-125968000D01*
X150399405Y-125875437D01*
X150570438Y-125704404D01*
X150658883Y-125490877D01*
X150887733Y-125490877D01*
X150834000Y-125620598D01*
X150834000Y-125815000D01*
X150639598Y-125815000D01*
X150437450Y-125898733D01*
X150282733Y-126053450D01*
X150199000Y-126255598D01*
X150199000Y-126474402D01*
X150280760Y-126671786D01*
X149475487Y-125866513D01*
X149526000Y-125816000D01*
X149526000Y-125285000D01*
X149506000Y-125285000D01*
X149506000Y-125165877D01*
X149854000Y-125165877D01*
X149854000Y-125285000D01*
X149854000Y-125285000D01*
G37*
X149854000Y-125285000D02*
X149834000Y-125285000D01*
X149834000Y-125816000D01*
X149986000Y-125968000D01*
X150175939Y-125968000D01*
X150399405Y-125875437D01*
X150570438Y-125704404D01*
X150658883Y-125490877D01*
X150887733Y-125490877D01*
X150834000Y-125620598D01*
X150834000Y-125815000D01*
X150639598Y-125815000D01*
X150437450Y-125898733D01*
X150282733Y-126053450D01*
X150199000Y-126255598D01*
X150199000Y-126474402D01*
X150280760Y-126671786D01*
X149475487Y-125866513D01*
X149526000Y-125816000D01*
X149526000Y-125285000D01*
X149506000Y-125285000D01*
X149506000Y-125165877D01*
X149854000Y-125165877D01*
X149854000Y-125285000D01*
G36*
X146345733Y-116834050D02*
X146500450Y-116988767D01*
X146702598Y-117072500D01*
X146712264Y-117072500D01*
X146739563Y-117138405D01*
X146910596Y-117309438D01*
X147134062Y-117402000D01*
X147386500Y-117402000D01*
X147538498Y-117250002D01*
X147538498Y-117390528D01*
X146663632Y-118265395D01*
X146650536Y-118268000D01*
X146650532Y-118268000D01*
X146548437Y-118288308D01*
X146461885Y-118346140D01*
X146461883Y-118346142D01*
X146432665Y-118365665D01*
X146413142Y-118394883D01*
X145102271Y-119705755D01*
X145111752Y-119105395D01*
X145141790Y-119085324D01*
X145161317Y-119056100D01*
X146013452Y-118203966D01*
X146194598Y-118279000D01*
X146413402Y-118279000D01*
X146615550Y-118195267D01*
X146770267Y-118040550D01*
X146854000Y-117838402D01*
X146854000Y-117619598D01*
X146770267Y-117417450D01*
X146615550Y-117262733D01*
X146413402Y-117179000D01*
X146194598Y-117179000D01*
X145992450Y-117262733D01*
X145837733Y-117417450D01*
X145828654Y-117439368D01*
X145813883Y-117442306D01*
X145727331Y-117500138D01*
X145727329Y-117500140D01*
X145698111Y-117519663D01*
X145678588Y-117548881D01*
X144866001Y-118361470D01*
X144866001Y-118177972D01*
X146305955Y-116738018D01*
X146345733Y-116834050D01*
X146345733Y-116834050D01*
G37*
X146345733Y-116834050D02*
X146500450Y-116988767D01*
X146702598Y-117072500D01*
X146712264Y-117072500D01*
X146739563Y-117138405D01*
X146910596Y-117309438D01*
X147134062Y-117402000D01*
X147386500Y-117402000D01*
X147538498Y-117250002D01*
X147538498Y-117390528D01*
X146663632Y-118265395D01*
X146650536Y-118268000D01*
X146650532Y-118268000D01*
X146548437Y-118288308D01*
X146461885Y-118346140D01*
X146461883Y-118346142D01*
X146432665Y-118365665D01*
X146413142Y-118394883D01*
X145102271Y-119705755D01*
X145111752Y-119105395D01*
X145141790Y-119085324D01*
X145161317Y-119056100D01*
X146013452Y-118203966D01*
X146194598Y-118279000D01*
X146413402Y-118279000D01*
X146615550Y-118195267D01*
X146770267Y-118040550D01*
X146854000Y-117838402D01*
X146854000Y-117619598D01*
X146770267Y-117417450D01*
X146615550Y-117262733D01*
X146413402Y-117179000D01*
X146194598Y-117179000D01*
X145992450Y-117262733D01*
X145837733Y-117417450D01*
X145828654Y-117439368D01*
X145813883Y-117442306D01*
X145727331Y-117500138D01*
X145727329Y-117500140D01*
X145698111Y-117519663D01*
X145678588Y-117548881D01*
X144866001Y-118361470D01*
X144866001Y-118177972D01*
X146305955Y-116738018D01*
X146345733Y-116834050D01*
G36*
X147846500Y-116606500D02*
X147866500Y-116606500D01*
X147866500Y-116731500D01*
X147846500Y-116731500D01*
X147846500Y-116794000D01*
X147538500Y-116794000D01*
X147538500Y-116731500D01*
X147518500Y-116731500D01*
X147518500Y-116717247D01*
X147531254Y-116714710D01*
X147531258Y-116714710D01*
X147633353Y-116694402D01*
X147749125Y-116617045D01*
X147760596Y-116599877D01*
X147846500Y-116599877D01*
X147846500Y-116606500D01*
X147846500Y-116606500D01*
G37*
X147846500Y-116606500D02*
X147866500Y-116606500D01*
X147866500Y-116731500D01*
X147846500Y-116731500D01*
X147846500Y-116794000D01*
X147538500Y-116794000D01*
X147538500Y-116731500D01*
X147518500Y-116731500D01*
X147518500Y-116717247D01*
X147531254Y-116714710D01*
X147531258Y-116714710D01*
X147633353Y-116694402D01*
X147749125Y-116617045D01*
X147760596Y-116599877D01*
X147846500Y-116599877D01*
X147846500Y-116606500D01*
G36*
X147846500Y-115606500D02*
X147866500Y-115606500D01*
X147866500Y-115731500D01*
X147846500Y-115731500D01*
X147846500Y-115738123D01*
X147538500Y-115738123D01*
X147538500Y-115731500D01*
X147518500Y-115731500D01*
X147518500Y-115606500D01*
X147538500Y-115606500D01*
X147538500Y-115599877D01*
X147846500Y-115599877D01*
X147846500Y-115606500D01*
X147846500Y-115606500D01*
G37*
X147846500Y-115606500D02*
X147866500Y-115606500D01*
X147866500Y-115731500D01*
X147846500Y-115731500D01*
X147846500Y-115738123D01*
X147538500Y-115738123D01*
X147538500Y-115731500D01*
X147518500Y-115731500D01*
X147518500Y-115606500D01*
X147538500Y-115606500D01*
X147538500Y-115599877D01*
X147846500Y-115599877D01*
X147846500Y-115606500D01*
G36*
X142686897Y-111328203D02*
X143067293Y-111582376D01*
X143402739Y-111649100D01*
X143629261Y-111649100D01*
X143964707Y-111582376D01*
X144024644Y-111542327D01*
X144029828Y-111545791D01*
X144185900Y-111576836D01*
X144225294Y-111569000D01*
X144230000Y-111569000D01*
X144230000Y-111742402D01*
X144313733Y-111944550D01*
X144468450Y-112099267D01*
X144670598Y-112183000D01*
X144738000Y-112183000D01*
X144738000Y-112250402D01*
X144821733Y-112452550D01*
X144976450Y-112607267D01*
X145167569Y-112686431D01*
X145246733Y-112877550D01*
X145401450Y-113032267D01*
X145603598Y-113116000D01*
X145754000Y-113116000D01*
X145754000Y-113139402D01*
X145837733Y-113341550D01*
X145992450Y-113496267D01*
X146015947Y-113506000D01*
X144587120Y-113506000D01*
X144599276Y-113487807D01*
X144688529Y-113039100D01*
X144599276Y-112590393D01*
X144345103Y-112209997D01*
X143964707Y-111955824D01*
X143629261Y-111889100D01*
X143402739Y-111889100D01*
X143067293Y-111955824D01*
X142686897Y-112209997D01*
X142621000Y-112308619D01*
X142621000Y-111229581D01*
X142686897Y-111328203D01*
X142686897Y-111328203D01*
G37*
X142686897Y-111328203D02*
X143067293Y-111582376D01*
X143402739Y-111649100D01*
X143629261Y-111649100D01*
X143964707Y-111582376D01*
X144024644Y-111542327D01*
X144029828Y-111545791D01*
X144185900Y-111576836D01*
X144225294Y-111569000D01*
X144230000Y-111569000D01*
X144230000Y-111742402D01*
X144313733Y-111944550D01*
X144468450Y-112099267D01*
X144670598Y-112183000D01*
X144738000Y-112183000D01*
X144738000Y-112250402D01*
X144821733Y-112452550D01*
X144976450Y-112607267D01*
X145167569Y-112686431D01*
X145246733Y-112877550D01*
X145401450Y-113032267D01*
X145603598Y-113116000D01*
X145754000Y-113116000D01*
X145754000Y-113139402D01*
X145837733Y-113341550D01*
X145992450Y-113496267D01*
X146015947Y-113506000D01*
X144587120Y-113506000D01*
X144599276Y-113487807D01*
X144688529Y-113039100D01*
X144599276Y-112590393D01*
X144345103Y-112209997D01*
X143964707Y-111955824D01*
X143629261Y-111889100D01*
X143402739Y-111889100D01*
X143067293Y-111955824D01*
X142686897Y-112209997D01*
X142621000Y-112308619D01*
X142621000Y-111229581D01*
X142686897Y-111328203D01*
G36*
X159651000Y-107228619D02*
X159585103Y-107129997D01*
X159204707Y-106875824D01*
X158869261Y-106809100D01*
X158642739Y-106809100D01*
X158307293Y-106875824D01*
X157926897Y-107129997D01*
X157672724Y-107510393D01*
X157583471Y-107959100D01*
X157672724Y-108407807D01*
X157728638Y-108491489D01*
X157682890Y-108537237D01*
X157682887Y-108537239D01*
X157532885Y-108687241D01*
X157503665Y-108706766D01*
X157484140Y-108735987D01*
X157426307Y-108822539D01*
X157399144Y-108959101D01*
X157406000Y-108993569D01*
X157405999Y-110567270D01*
X156929209Y-111044060D01*
X156786716Y-110901567D01*
X156584568Y-110817834D01*
X156365764Y-110817834D01*
X156299624Y-110845230D01*
X156220271Y-110792209D01*
X156103593Y-110769000D01*
X156064199Y-110761164D01*
X156024805Y-110769000D01*
X155087716Y-110769000D01*
X155083472Y-110766164D01*
X154942500Y-110738123D01*
X154563623Y-110738123D01*
X154461000Y-110635500D01*
X153942500Y-110635500D01*
X153942500Y-110655500D01*
X153817500Y-110655500D01*
X153817500Y-110635500D01*
X153810877Y-110635500D01*
X153810877Y-110327500D01*
X153817500Y-110327500D01*
X153817500Y-110307500D01*
X153942500Y-110307500D01*
X153942500Y-110327500D01*
X154461000Y-110327500D01*
X154613000Y-110175500D01*
X154613000Y-109923061D01*
X154520437Y-109699595D01*
X154349404Y-109528562D01*
X154307690Y-109511284D01*
X157038975Y-106780000D01*
X159651000Y-106780000D01*
X159651000Y-107228619D01*
X159651000Y-107228619D01*
G37*
X159651000Y-107228619D02*
X159585103Y-107129997D01*
X159204707Y-106875824D01*
X158869261Y-106809100D01*
X158642739Y-106809100D01*
X158307293Y-106875824D01*
X157926897Y-107129997D01*
X157672724Y-107510393D01*
X157583471Y-107959100D01*
X157672724Y-108407807D01*
X157728638Y-108491489D01*
X157682890Y-108537237D01*
X157682887Y-108537239D01*
X157532885Y-108687241D01*
X157503665Y-108706766D01*
X157484140Y-108735987D01*
X157426307Y-108822539D01*
X157399144Y-108959101D01*
X157406000Y-108993569D01*
X157405999Y-110567270D01*
X156929209Y-111044060D01*
X156786716Y-110901567D01*
X156584568Y-110817834D01*
X156365764Y-110817834D01*
X156299624Y-110845230D01*
X156220271Y-110792209D01*
X156103593Y-110769000D01*
X156064199Y-110761164D01*
X156024805Y-110769000D01*
X155087716Y-110769000D01*
X155083472Y-110766164D01*
X154942500Y-110738123D01*
X154563623Y-110738123D01*
X154461000Y-110635500D01*
X153942500Y-110635500D01*
X153942500Y-110655500D01*
X153817500Y-110655500D01*
X153817500Y-110635500D01*
X153810877Y-110635500D01*
X153810877Y-110327500D01*
X153817500Y-110327500D01*
X153817500Y-110307500D01*
X153942500Y-110307500D01*
X153942500Y-110327500D01*
X154461000Y-110327500D01*
X154613000Y-110175500D01*
X154613000Y-109923061D01*
X154520437Y-109699595D01*
X154349404Y-109528562D01*
X154307690Y-109511284D01*
X157038975Y-106780000D01*
X159651000Y-106780000D01*
X159651000Y-107228619D01*
G36*
X146749000Y-98440250D02*
X146796868Y-98680898D01*
X146979209Y-98953791D01*
X147252101Y-99136132D01*
X147574000Y-99200162D01*
X147895898Y-99136132D01*
X148168791Y-98953791D01*
X148351132Y-98680899D01*
X148372548Y-98573233D01*
X148429000Y-98629686D01*
X148429001Y-98862209D01*
X148429000Y-99133123D01*
X148254000Y-99133123D01*
X148136946Y-99156407D01*
X148037712Y-99222712D01*
X147971407Y-99321946D01*
X147948123Y-99439000D01*
X147948123Y-100889000D01*
X147971407Y-101006054D01*
X148037712Y-101105288D01*
X148136946Y-101171593D01*
X148254000Y-101194877D01*
X149343123Y-101194877D01*
X149343123Y-101284000D01*
X149366407Y-101401054D01*
X149432712Y-101500288D01*
X149531946Y-101566593D01*
X149649000Y-101589877D01*
X150049000Y-101589877D01*
X150166054Y-101566593D01*
X150174000Y-101561284D01*
X150181946Y-101566593D01*
X150299000Y-101589877D01*
X150517088Y-101589877D01*
X150453000Y-101744598D01*
X150453000Y-101963402D01*
X150536733Y-102165550D01*
X150691450Y-102320267D01*
X150893598Y-102404000D01*
X151112402Y-102404000D01*
X151314550Y-102320267D01*
X151384000Y-102250817D01*
X151453450Y-102320267D01*
X151655598Y-102404000D01*
X151874402Y-102404000D01*
X152076550Y-102320267D01*
X152231267Y-102165550D01*
X152315000Y-101963402D01*
X152315000Y-101744598D01*
X152250912Y-101589877D01*
X152389193Y-101589877D01*
X152987123Y-102187808D01*
X152987123Y-102875500D01*
X153010407Y-102992554D01*
X153076712Y-103091788D01*
X153175946Y-103158093D01*
X153293000Y-103181377D01*
X153793000Y-103181377D01*
X153824000Y-103175211D01*
X153824000Y-103321123D01*
X153480000Y-103321123D01*
X153362946Y-103344407D01*
X153263712Y-103410712D01*
X153197407Y-103509946D01*
X153174123Y-103627000D01*
X153174123Y-104277000D01*
X153197407Y-104394054D01*
X153263712Y-104493288D01*
X153362946Y-104559593D01*
X153480000Y-104582877D01*
X153824000Y-104582877D01*
X153824000Y-105039000D01*
X153704000Y-104919000D01*
X153359061Y-104919000D01*
X153135595Y-105011563D01*
X152964562Y-105182596D01*
X152872000Y-105406062D01*
X152872000Y-105546000D01*
X153024000Y-105698000D01*
X153824000Y-105698000D01*
X153824000Y-106006000D01*
X153024000Y-106006000D01*
X152872000Y-106158000D01*
X152872000Y-106297938D01*
X152964562Y-106521404D01*
X153135595Y-106692437D01*
X153359061Y-106785000D01*
X153704000Y-106785000D01*
X153824000Y-106665000D01*
X153824000Y-106680000D01*
X153831612Y-106718268D01*
X153853289Y-106750711D01*
X153885732Y-106772388D01*
X153924000Y-106780000D01*
X154311000Y-106780000D01*
X154316000Y-106785000D01*
X154660939Y-106785000D01*
X154673010Y-106780000D01*
X156049025Y-106780000D01*
X154165364Y-108663663D01*
X154168877Y-108646000D01*
X154168877Y-108351000D01*
X154134366Y-108177500D01*
X154036086Y-108030414D01*
X154010772Y-108013500D01*
X154036086Y-107996586D01*
X154134366Y-107849500D01*
X154168877Y-107676000D01*
X154168877Y-107381000D01*
X154134366Y-107207500D01*
X154036086Y-107060414D01*
X153889000Y-106962134D01*
X153715500Y-106927623D01*
X153370500Y-106927623D01*
X153197000Y-106962134D01*
X153049914Y-107060414D01*
X153021125Y-107103500D01*
X152540875Y-107103500D01*
X152512086Y-107060414D01*
X152365000Y-106962134D01*
X152191500Y-106927623D01*
X151846500Y-106927623D01*
X151673000Y-106962134D01*
X151525914Y-107060414D01*
X151427634Y-107207500D01*
X151393123Y-107381000D01*
X151393123Y-107676000D01*
X151427634Y-107849500D01*
X151525914Y-107996586D01*
X151551228Y-108013500D01*
X151525914Y-108030414D01*
X151497125Y-108073500D01*
X150316817Y-108073500D01*
X150298550Y-108055233D01*
X150096402Y-107971500D01*
X149877598Y-107971500D01*
X149675450Y-108055233D01*
X149657183Y-108073500D01*
X149111875Y-108073500D01*
X149083086Y-108030414D01*
X149057772Y-108013500D01*
X149083086Y-107996586D01*
X149181366Y-107849500D01*
X149215877Y-107676000D01*
X149215877Y-107381000D01*
X149181366Y-107207500D01*
X149083086Y-107060414D01*
X148936000Y-106962134D01*
X148762500Y-106927623D01*
X148417500Y-106927623D01*
X148244000Y-106962134D01*
X148096914Y-107060414D01*
X148068125Y-107103500D01*
X147587875Y-107103500D01*
X147559086Y-107060414D01*
X147412000Y-106962134D01*
X147238500Y-106927623D01*
X146893500Y-106927623D01*
X146720000Y-106962134D01*
X146572914Y-107060414D01*
X146474634Y-107207500D01*
X146440123Y-107381000D01*
X146440123Y-107672104D01*
X146401596Y-107688062D01*
X146230563Y-107859095D01*
X146138000Y-108082561D01*
X146138000Y-108199000D01*
X146290000Y-108351000D01*
X146912000Y-108351000D01*
X146912000Y-108324500D01*
X147220000Y-108324500D01*
X147220000Y-108351000D01*
X147240000Y-108351000D01*
X147240000Y-108646000D01*
X147220000Y-108646000D01*
X147220000Y-108672500D01*
X146912000Y-108672500D01*
X146912000Y-108646000D01*
X146290000Y-108646000D01*
X146144915Y-108791085D01*
X145564850Y-108211021D01*
X145566021Y-108205136D01*
X145566020Y-106635862D01*
X145683595Y-106753437D01*
X145907061Y-106846000D01*
X146252000Y-106846000D01*
X146404000Y-106694000D01*
X146404000Y-106067000D01*
X146712000Y-106067000D01*
X146712000Y-106694000D01*
X146864000Y-106846000D01*
X147208939Y-106846000D01*
X147432405Y-106753437D01*
X147603438Y-106582404D01*
X147696000Y-106358938D01*
X147696000Y-106219000D01*
X147544000Y-106067000D01*
X146712000Y-106067000D01*
X146404000Y-106067000D01*
X146384000Y-106067000D01*
X146384000Y-105759000D01*
X146404000Y-105759000D01*
X146404000Y-105739000D01*
X146712000Y-105739000D01*
X146712000Y-105759000D01*
X147544000Y-105759000D01*
X147696000Y-105607000D01*
X147696000Y-105467062D01*
X147683789Y-105437581D01*
X147718598Y-105452000D01*
X147937402Y-105452000D01*
X147965974Y-105440165D01*
X147945407Y-105470946D01*
X147922123Y-105588000D01*
X147922123Y-106238000D01*
X147945407Y-106355054D01*
X148011712Y-106454288D01*
X148110946Y-106520593D01*
X148228000Y-106543877D01*
X149288000Y-106543877D01*
X149405054Y-106520593D01*
X149504288Y-106454288D01*
X149570593Y-106355054D01*
X149593877Y-106238000D01*
X149593877Y-105588000D01*
X149570593Y-105470946D01*
X149504288Y-105371712D01*
X149405054Y-105305407D01*
X149288000Y-105282123D01*
X148228000Y-105282123D01*
X148225121Y-105282696D01*
X148294267Y-105213550D01*
X148378000Y-105011402D01*
X148378000Y-104792598D01*
X148316397Y-104643877D01*
X149288000Y-104643877D01*
X149405054Y-104620593D01*
X149504288Y-104554288D01*
X149508292Y-104548295D01*
X149557357Y-104597360D01*
X149759505Y-104681093D01*
X149978309Y-104681093D01*
X150180457Y-104597360D01*
X150335174Y-104442643D01*
X150418907Y-104240495D01*
X150418907Y-104021691D01*
X150335174Y-103819543D01*
X150180457Y-103664826D01*
X149978309Y-103581093D01*
X149759505Y-103581093D01*
X149622120Y-103638000D01*
X149583931Y-103638000D01*
X149570593Y-103570946D01*
X149504288Y-103471712D01*
X149405054Y-103405407D01*
X149288000Y-103382123D01*
X148228000Y-103382123D01*
X148110946Y-103405407D01*
X148011712Y-103471712D01*
X147945407Y-103570946D01*
X147922123Y-103688000D01*
X147922123Y-104338000D01*
X147924908Y-104352000D01*
X147718598Y-104352000D01*
X147696000Y-104361360D01*
X147696000Y-104319000D01*
X147544000Y-104167000D01*
X146712000Y-104167000D01*
X146712000Y-104187000D01*
X146404000Y-104187000D01*
X146404000Y-104167000D01*
X145572000Y-104167000D01*
X145420000Y-104319000D01*
X145420000Y-104458938D01*
X145512562Y-104682404D01*
X145683595Y-104853437D01*
X145722123Y-104869396D01*
X145722123Y-105056604D01*
X145683595Y-105072563D01*
X145512562Y-105243596D01*
X145420000Y-105467062D01*
X145420000Y-105607000D01*
X145571998Y-105758998D01*
X145420000Y-105758998D01*
X145420000Y-105822037D01*
X145266011Y-105668049D01*
X145266011Y-103567062D01*
X145420000Y-103567062D01*
X145420000Y-103707000D01*
X145572000Y-103859000D01*
X146404000Y-103859000D01*
X146404000Y-103232000D01*
X146712000Y-103232000D01*
X146712000Y-103859000D01*
X147544000Y-103859000D01*
X147696000Y-103707000D01*
X147696000Y-103567062D01*
X147603438Y-103343596D01*
X147432405Y-103172563D01*
X147208939Y-103080000D01*
X146864000Y-103080000D01*
X146712000Y-103232000D01*
X146404000Y-103232000D01*
X146252000Y-103080000D01*
X145907061Y-103080000D01*
X145683595Y-103172563D01*
X145512562Y-103343596D01*
X145420000Y-103567062D01*
X145266011Y-103567062D01*
X145266011Y-101728505D01*
X145273847Y-101689111D01*
X145242802Y-101533039D01*
X145221024Y-101500446D01*
X145154395Y-101400727D01*
X145120995Y-101378410D01*
X144571685Y-100829100D01*
X144599276Y-100787807D01*
X144688529Y-100339100D01*
X144599276Y-99890393D01*
X144345103Y-99509997D01*
X143964707Y-99255824D01*
X143629261Y-99189100D01*
X143402739Y-99189100D01*
X143067293Y-99255824D01*
X142686897Y-99509997D01*
X142621000Y-99608619D01*
X142621000Y-98946026D01*
X142666000Y-98954977D01*
X144366000Y-98954977D01*
X144483054Y-98931693D01*
X144582288Y-98865388D01*
X144648593Y-98766154D01*
X144671877Y-98649100D01*
X144671877Y-98199100D01*
X146749000Y-98199100D01*
X146749000Y-98440250D01*
X146749000Y-98440250D01*
G37*
X146749000Y-98440250D02*
X146796868Y-98680898D01*
X146979209Y-98953791D01*
X147252101Y-99136132D01*
X147574000Y-99200162D01*
X147895898Y-99136132D01*
X148168791Y-98953791D01*
X148351132Y-98680899D01*
X148372548Y-98573233D01*
X148429000Y-98629686D01*
X148429001Y-98862209D01*
X148429000Y-99133123D01*
X148254000Y-99133123D01*
X148136946Y-99156407D01*
X148037712Y-99222712D01*
X147971407Y-99321946D01*
X147948123Y-99439000D01*
X147948123Y-100889000D01*
X147971407Y-101006054D01*
X148037712Y-101105288D01*
X148136946Y-101171593D01*
X148254000Y-101194877D01*
X149343123Y-101194877D01*
X149343123Y-101284000D01*
X149366407Y-101401054D01*
X149432712Y-101500288D01*
X149531946Y-101566593D01*
X149649000Y-101589877D01*
X150049000Y-101589877D01*
X150166054Y-101566593D01*
X150174000Y-101561284D01*
X150181946Y-101566593D01*
X150299000Y-101589877D01*
X150517088Y-101589877D01*
X150453000Y-101744598D01*
X150453000Y-101963402D01*
X150536733Y-102165550D01*
X150691450Y-102320267D01*
X150893598Y-102404000D01*
X151112402Y-102404000D01*
X151314550Y-102320267D01*
X151384000Y-102250817D01*
X151453450Y-102320267D01*
X151655598Y-102404000D01*
X151874402Y-102404000D01*
X152076550Y-102320267D01*
X152231267Y-102165550D01*
X152315000Y-101963402D01*
X152315000Y-101744598D01*
X152250912Y-101589877D01*
X152389193Y-101589877D01*
X152987123Y-102187808D01*
X152987123Y-102875500D01*
X153010407Y-102992554D01*
X153076712Y-103091788D01*
X153175946Y-103158093D01*
X153293000Y-103181377D01*
X153793000Y-103181377D01*
X153824000Y-103175211D01*
X153824000Y-103321123D01*
X153480000Y-103321123D01*
X153362946Y-103344407D01*
X153263712Y-103410712D01*
X153197407Y-103509946D01*
X153174123Y-103627000D01*
X153174123Y-104277000D01*
X153197407Y-104394054D01*
X153263712Y-104493288D01*
X153362946Y-104559593D01*
X153480000Y-104582877D01*
X153824000Y-104582877D01*
X153824000Y-105039000D01*
X153704000Y-104919000D01*
X153359061Y-104919000D01*
X153135595Y-105011563D01*
X152964562Y-105182596D01*
X152872000Y-105406062D01*
X152872000Y-105546000D01*
X153024000Y-105698000D01*
X153824000Y-105698000D01*
X153824000Y-106006000D01*
X153024000Y-106006000D01*
X152872000Y-106158000D01*
X152872000Y-106297938D01*
X152964562Y-106521404D01*
X153135595Y-106692437D01*
X153359061Y-106785000D01*
X153704000Y-106785000D01*
X153824000Y-106665000D01*
X153824000Y-106680000D01*
X153831612Y-106718268D01*
X153853289Y-106750711D01*
X153885732Y-106772388D01*
X153924000Y-106780000D01*
X154311000Y-106780000D01*
X154316000Y-106785000D01*
X154660939Y-106785000D01*
X154673010Y-106780000D01*
X156049025Y-106780000D01*
X154165364Y-108663663D01*
X154168877Y-108646000D01*
X154168877Y-108351000D01*
X154134366Y-108177500D01*
X154036086Y-108030414D01*
X154010772Y-108013500D01*
X154036086Y-107996586D01*
X154134366Y-107849500D01*
X154168877Y-107676000D01*
X154168877Y-107381000D01*
X154134366Y-107207500D01*
X154036086Y-107060414D01*
X153889000Y-106962134D01*
X153715500Y-106927623D01*
X153370500Y-106927623D01*
X153197000Y-106962134D01*
X153049914Y-107060414D01*
X153021125Y-107103500D01*
X152540875Y-107103500D01*
X152512086Y-107060414D01*
X152365000Y-106962134D01*
X152191500Y-106927623D01*
X151846500Y-106927623D01*
X151673000Y-106962134D01*
X151525914Y-107060414D01*
X151427634Y-107207500D01*
X151393123Y-107381000D01*
X151393123Y-107676000D01*
X151427634Y-107849500D01*
X151525914Y-107996586D01*
X151551228Y-108013500D01*
X151525914Y-108030414D01*
X151497125Y-108073500D01*
X150316817Y-108073500D01*
X150298550Y-108055233D01*
X150096402Y-107971500D01*
X149877598Y-107971500D01*
X149675450Y-108055233D01*
X149657183Y-108073500D01*
X149111875Y-108073500D01*
X149083086Y-108030414D01*
X149057772Y-108013500D01*
X149083086Y-107996586D01*
X149181366Y-107849500D01*
X149215877Y-107676000D01*
X149215877Y-107381000D01*
X149181366Y-107207500D01*
X149083086Y-107060414D01*
X148936000Y-106962134D01*
X148762500Y-106927623D01*
X148417500Y-106927623D01*
X148244000Y-106962134D01*
X148096914Y-107060414D01*
X148068125Y-107103500D01*
X147587875Y-107103500D01*
X147559086Y-107060414D01*
X147412000Y-106962134D01*
X147238500Y-106927623D01*
X146893500Y-106927623D01*
X146720000Y-106962134D01*
X146572914Y-107060414D01*
X146474634Y-107207500D01*
X146440123Y-107381000D01*
X146440123Y-107672104D01*
X146401596Y-107688062D01*
X146230563Y-107859095D01*
X146138000Y-108082561D01*
X146138000Y-108199000D01*
X146290000Y-108351000D01*
X146912000Y-108351000D01*
X146912000Y-108324500D01*
X147220000Y-108324500D01*
X147220000Y-108351000D01*
X147240000Y-108351000D01*
X147240000Y-108646000D01*
X147220000Y-108646000D01*
X147220000Y-108672500D01*
X146912000Y-108672500D01*
X146912000Y-108646000D01*
X146290000Y-108646000D01*
X146144915Y-108791085D01*
X145564850Y-108211021D01*
X145566021Y-108205136D01*
X145566020Y-106635862D01*
X145683595Y-106753437D01*
X145907061Y-106846000D01*
X146252000Y-106846000D01*
X146404000Y-106694000D01*
X146404000Y-106067000D01*
X146712000Y-106067000D01*
X146712000Y-106694000D01*
X146864000Y-106846000D01*
X147208939Y-106846000D01*
X147432405Y-106753437D01*
X147603438Y-106582404D01*
X147696000Y-106358938D01*
X147696000Y-106219000D01*
X147544000Y-106067000D01*
X146712000Y-106067000D01*
X146404000Y-106067000D01*
X146384000Y-106067000D01*
X146384000Y-105759000D01*
X146404000Y-105759000D01*
X146404000Y-105739000D01*
X146712000Y-105739000D01*
X146712000Y-105759000D01*
X147544000Y-105759000D01*
X147696000Y-105607000D01*
X147696000Y-105467062D01*
X147683789Y-105437581D01*
X147718598Y-105452000D01*
X147937402Y-105452000D01*
X147965974Y-105440165D01*
X147945407Y-105470946D01*
X147922123Y-105588000D01*
X147922123Y-106238000D01*
X147945407Y-106355054D01*
X148011712Y-106454288D01*
X148110946Y-106520593D01*
X148228000Y-106543877D01*
X149288000Y-106543877D01*
X149405054Y-106520593D01*
X149504288Y-106454288D01*
X149570593Y-106355054D01*
X149593877Y-106238000D01*
X149593877Y-105588000D01*
X149570593Y-105470946D01*
X149504288Y-105371712D01*
X149405054Y-105305407D01*
X149288000Y-105282123D01*
X148228000Y-105282123D01*
X148225121Y-105282696D01*
X148294267Y-105213550D01*
X148378000Y-105011402D01*
X148378000Y-104792598D01*
X148316397Y-104643877D01*
X149288000Y-104643877D01*
X149405054Y-104620593D01*
X149504288Y-104554288D01*
X149508292Y-104548295D01*
X149557357Y-104597360D01*
X149759505Y-104681093D01*
X149978309Y-104681093D01*
X150180457Y-104597360D01*
X150335174Y-104442643D01*
X150418907Y-104240495D01*
X150418907Y-104021691D01*
X150335174Y-103819543D01*
X150180457Y-103664826D01*
X149978309Y-103581093D01*
X149759505Y-103581093D01*
X149622120Y-103638000D01*
X149583931Y-103638000D01*
X149570593Y-103570946D01*
X149504288Y-103471712D01*
X149405054Y-103405407D01*
X149288000Y-103382123D01*
X148228000Y-103382123D01*
X148110946Y-103405407D01*
X148011712Y-103471712D01*
X147945407Y-103570946D01*
X147922123Y-103688000D01*
X147922123Y-104338000D01*
X147924908Y-104352000D01*
X147718598Y-104352000D01*
X147696000Y-104361360D01*
X147696000Y-104319000D01*
X147544000Y-104167000D01*
X146712000Y-104167000D01*
X146712000Y-104187000D01*
X146404000Y-104187000D01*
X146404000Y-104167000D01*
X145572000Y-104167000D01*
X145420000Y-104319000D01*
X145420000Y-104458938D01*
X145512562Y-104682404D01*
X145683595Y-104853437D01*
X145722123Y-104869396D01*
X145722123Y-105056604D01*
X145683595Y-105072563D01*
X145512562Y-105243596D01*
X145420000Y-105467062D01*
X145420000Y-105607000D01*
X145571998Y-105758998D01*
X145420000Y-105758998D01*
X145420000Y-105822037D01*
X145266011Y-105668049D01*
X145266011Y-103567062D01*
X145420000Y-103567062D01*
X145420000Y-103707000D01*
X145572000Y-103859000D01*
X146404000Y-103859000D01*
X146404000Y-103232000D01*
X146712000Y-103232000D01*
X146712000Y-103859000D01*
X147544000Y-103859000D01*
X147696000Y-103707000D01*
X147696000Y-103567062D01*
X147603438Y-103343596D01*
X147432405Y-103172563D01*
X147208939Y-103080000D01*
X146864000Y-103080000D01*
X146712000Y-103232000D01*
X146404000Y-103232000D01*
X146252000Y-103080000D01*
X145907061Y-103080000D01*
X145683595Y-103172563D01*
X145512562Y-103343596D01*
X145420000Y-103567062D01*
X145266011Y-103567062D01*
X145266011Y-101728505D01*
X145273847Y-101689111D01*
X145242802Y-101533039D01*
X145221024Y-101500446D01*
X145154395Y-101400727D01*
X145120995Y-101378410D01*
X144571685Y-100829100D01*
X144599276Y-100787807D01*
X144688529Y-100339100D01*
X144599276Y-99890393D01*
X144345103Y-99509997D01*
X143964707Y-99255824D01*
X143629261Y-99189100D01*
X143402739Y-99189100D01*
X143067293Y-99255824D01*
X142686897Y-99509997D01*
X142621000Y-99608619D01*
X142621000Y-98946026D01*
X142666000Y-98954977D01*
X144366000Y-98954977D01*
X144483054Y-98931693D01*
X144582288Y-98865388D01*
X144648593Y-98766154D01*
X144671877Y-98649100D01*
X144671877Y-98199100D01*
X146749000Y-98199100D01*
X146749000Y-98440250D01*
G04 #@! TD*
M02*
