G04 #@! TF.GenerationSoftware,KiCad,Pcbnew,5.0.1-33cea8e~68~ubuntu18.04.1*
G04 #@! TF.CreationDate,2018-11-09T20:27:09+01:00*
G04 #@! TF.ProjectId,Tiny-up5k,54696E792D7570356B2E6B696361645F,rev?*
G04 #@! TF.SameCoordinates,Original*
G04 #@! TF.FileFunction,Other,Fab,Top*
%FSLAX46Y46*%
G04 Gerber Fmt 4.6, Leading zero omitted, Abs format (unit mm)*
G04 Created by KiCad (PCBNEW 5.0.1-33cea8e~68~ubuntu18.04.1) date vr 09 nov 2018 20:27:09 CET*
%MOMM*%
%LPD*%
G01*
G04 APERTURE LIST*
%ADD10C,0.100000*%
%ADD11C,0.150000*%
%ADD12C,0.075000*%
%ADD13C,0.050000*%
%ADD14C,0.040000*%
%ADD15C,0.105000*%
%ADD16C,0.060000*%
G04 APERTURE END LIST*
D10*
G04 #@! TO.C,L1*
X155093000Y-102025500D02*
X155093000Y-102825500D01*
X153493000Y-102025500D02*
X155093000Y-102025500D01*
X153493000Y-102825500D02*
X153493000Y-102025500D01*
X155093000Y-102825500D02*
X153493000Y-102825500D01*
G04 #@! TO.C,D1*
X146816000Y-107713500D02*
X147316000Y-107713500D01*
X146816000Y-107613500D02*
X147316000Y-107613500D01*
X146816000Y-108513500D02*
X146816000Y-107513500D01*
X147316000Y-108513500D02*
X146816000Y-108513500D01*
X147316000Y-107513500D02*
X147316000Y-108513500D01*
X146816000Y-107513500D02*
X147316000Y-107513500D01*
G04 #@! TO.C,D2*
X153293000Y-107513500D02*
X153793000Y-107513500D01*
X153793000Y-107513500D02*
X153793000Y-108513500D01*
X153793000Y-108513500D02*
X153293000Y-108513500D01*
X153293000Y-108513500D02*
X153293000Y-107513500D01*
X153293000Y-107613500D02*
X153793000Y-107613500D01*
X153293000Y-107713500D02*
X153793000Y-107713500D01*
G04 #@! TO.C,U2*
X154210000Y-106452000D02*
X154210000Y-103352000D01*
X154210000Y-103352000D02*
X156010000Y-103352000D01*
X156010000Y-105802000D02*
X156010000Y-103352000D01*
X154210000Y-106452000D02*
X155360000Y-106452000D01*
X156010000Y-105802000D02*
X155360000Y-106452000D01*
G04 #@! TO.C,U4*
X146758000Y-104063000D02*
X147408000Y-103413000D01*
X148558000Y-103413000D02*
X147408000Y-103413000D01*
X146758000Y-104063000D02*
X146758000Y-106513000D01*
X148558000Y-106513000D02*
X146758000Y-106513000D01*
X148558000Y-103413000D02*
X148558000Y-106513000D01*
G04 #@! TO.C,SW1*
X149630000Y-128473100D02*
X152630000Y-128473100D01*
X152630000Y-128473100D02*
X152630000Y-130973100D01*
X152630000Y-130973100D02*
X149630000Y-130973100D01*
X149630000Y-130973100D02*
X149630000Y-128473100D01*
X151880000Y-129723100D02*
G75*
G03X151880000Y-129723100I-750000J0D01*
G01*
D11*
G04 #@! TO.C,U5*
X151630000Y-125460000D02*
X149630000Y-125460000D01*
X149630000Y-125460000D02*
X149630000Y-123460000D01*
X149630000Y-123460000D02*
X152630000Y-123460000D01*
X152630000Y-123460000D02*
X152630000Y-124460000D01*
X152630000Y-124460000D02*
X151630000Y-125460000D01*
D10*
G04 #@! TO.C,U3*
X149630000Y-119824000D02*
X152630000Y-119824000D01*
X152630000Y-119824000D02*
X152730000Y-119924000D01*
X152730000Y-119924000D02*
X152730000Y-122224000D01*
X152730000Y-122224000D02*
X152630000Y-122324000D01*
X152630000Y-122324000D02*
X149630000Y-122324000D01*
X149630000Y-122324000D02*
X149530000Y-122224000D01*
X149530000Y-122224000D02*
X149530000Y-119924000D01*
X149530000Y-119924000D02*
X149630000Y-119824000D01*
X149530000Y-121324000D02*
X150530000Y-122324000D01*
G04 #@! TO.C,U6*
X147449000Y-95184000D02*
X147449000Y-100734000D01*
X154149000Y-96484000D02*
X148149000Y-96484000D01*
X154849000Y-95184000D02*
X147449000Y-95184000D01*
X154849000Y-100734000D02*
X147449000Y-100734000D01*
X154849000Y-95184000D02*
X154849000Y-100734000D01*
X152449000Y-100884000D02*
X152649000Y-101084000D01*
X152249000Y-101084000D02*
X152449000Y-100884000D01*
X152649000Y-101294000D02*
X152249000Y-101294000D01*
X152649000Y-101294000D02*
X152649000Y-101084000D01*
X152249000Y-101294000D02*
X152249000Y-101084000D01*
G04 #@! TO.C,U1*
X154630000Y-111419000D02*
X154630000Y-117419000D01*
X154630000Y-117419000D02*
X147630000Y-117419000D01*
X147630000Y-117419000D02*
X147630000Y-110419000D01*
X147630000Y-110419000D02*
X153630000Y-110419000D01*
X153630000Y-110419000D02*
X154630000Y-111419000D01*
G04 #@! TO.C,R8*
X148340000Y-108513500D02*
X148340000Y-107513500D01*
X148840000Y-108513500D02*
X148340000Y-108513500D01*
X148840000Y-107513500D02*
X148840000Y-108513500D01*
X148340000Y-107513500D02*
X148840000Y-107513500D01*
G04 #@! TO.C,R9*
X151769000Y-107513500D02*
X152269000Y-107513500D01*
X152269000Y-107513500D02*
X152269000Y-108513500D01*
X152269000Y-108513500D02*
X151769000Y-108513500D01*
X151769000Y-108513500D02*
X151769000Y-107513500D01*
G04 #@! TO.C,C17*
X155410000Y-100920500D02*
X155410000Y-100120500D01*
X155410000Y-100120500D02*
X157010000Y-100120500D01*
X157010000Y-100120500D02*
X157010000Y-100920500D01*
X157010000Y-100920500D02*
X155410000Y-100920500D01*
G04 #@! TD*
G04 #@! TO.C,L1*
D12*
X154243000Y-102561214D02*
X154100142Y-102561214D01*
X154100142Y-102261214D01*
X154500142Y-102561214D02*
X154328714Y-102561214D01*
X154414428Y-102561214D02*
X154414428Y-102261214D01*
X154385857Y-102304071D01*
X154357285Y-102332642D01*
X154328714Y-102346928D01*
D13*
X154040619Y-101761214D02*
X154069190Y-101770738D01*
X154078714Y-101780261D01*
X154088238Y-101799309D01*
X154088238Y-101827880D01*
X154078714Y-101846928D01*
X154069190Y-101856452D01*
X154050142Y-101865976D01*
X153973952Y-101865976D01*
X153973952Y-101665976D01*
X154040619Y-101665976D01*
X154059666Y-101675500D01*
X154069190Y-101685023D01*
X154078714Y-101704071D01*
X154078714Y-101723119D01*
X154069190Y-101742166D01*
X154059666Y-101751690D01*
X154040619Y-101761214D01*
X153973952Y-101761214D01*
X154250142Y-101856452D02*
X154231095Y-101865976D01*
X154193000Y-101865976D01*
X154173952Y-101856452D01*
X154164428Y-101837404D01*
X154164428Y-101761214D01*
X154173952Y-101742166D01*
X154193000Y-101732642D01*
X154231095Y-101732642D01*
X154250142Y-101742166D01*
X154259666Y-101761214D01*
X154259666Y-101780261D01*
X154164428Y-101799309D01*
X154431095Y-101865976D02*
X154431095Y-101761214D01*
X154421571Y-101742166D01*
X154402523Y-101732642D01*
X154364428Y-101732642D01*
X154345380Y-101742166D01*
X154431095Y-101856452D02*
X154412047Y-101865976D01*
X154364428Y-101865976D01*
X154345380Y-101856452D01*
X154335857Y-101837404D01*
X154335857Y-101818357D01*
X154345380Y-101799309D01*
X154364428Y-101789785D01*
X154412047Y-101789785D01*
X154431095Y-101780261D01*
X154612047Y-101865976D02*
X154612047Y-101665976D01*
X154612047Y-101856452D02*
X154593000Y-101865976D01*
X154554904Y-101865976D01*
X154535857Y-101856452D01*
X154526333Y-101846928D01*
X154516809Y-101827880D01*
X154516809Y-101770738D01*
X154526333Y-101751690D01*
X154535857Y-101742166D01*
X154554904Y-101732642D01*
X154593000Y-101732642D01*
X154612047Y-101742166D01*
G04 #@! TO.C,D1*
D11*
X146348380Y-109346833D02*
X145348380Y-109346833D01*
X145348380Y-108965880D01*
X145396000Y-108870642D01*
X145443619Y-108823023D01*
X145538857Y-108775404D01*
X145681714Y-108775404D01*
X145776952Y-108823023D01*
X145824571Y-108870642D01*
X145872190Y-108965880D01*
X145872190Y-109346833D01*
X145348380Y-108442071D02*
X146348380Y-108203976D01*
X145634095Y-108013500D01*
X146348380Y-107823023D01*
X145348380Y-107584928D01*
X146348380Y-106632547D02*
X145872190Y-106965880D01*
X146348380Y-107203976D02*
X145348380Y-107203976D01*
X145348380Y-106823023D01*
X145396000Y-106727785D01*
X145443619Y-106680166D01*
X145538857Y-106632547D01*
X145681714Y-106632547D01*
X145776952Y-106680166D01*
X145824571Y-106727785D01*
X145872190Y-106823023D01*
X145872190Y-107203976D01*
D14*
X147179095Y-108198023D02*
X146929095Y-108198023D01*
X146929095Y-108138500D01*
X146941000Y-108102785D01*
X146964809Y-108078976D01*
X146988619Y-108067071D01*
X147036238Y-108055166D01*
X147071952Y-108055166D01*
X147119571Y-108067071D01*
X147143380Y-108078976D01*
X147167190Y-108102785D01*
X147179095Y-108138500D01*
X147179095Y-108198023D01*
X147179095Y-107817071D02*
X147179095Y-107959928D01*
X147179095Y-107888500D02*
X146929095Y-107888500D01*
X146964809Y-107912309D01*
X146988619Y-107936119D01*
X147000523Y-107959928D01*
G04 #@! TO.C,D2*
D11*
X151825380Y-109275404D02*
X152634904Y-109275404D01*
X152730142Y-109227785D01*
X152777761Y-109180166D01*
X152825380Y-109084928D01*
X152825380Y-108894452D01*
X152777761Y-108799214D01*
X152730142Y-108751595D01*
X152634904Y-108703976D01*
X151825380Y-108703976D01*
X152777761Y-108275404D02*
X152825380Y-108132547D01*
X152825380Y-107894452D01*
X152777761Y-107799214D01*
X152730142Y-107751595D01*
X152634904Y-107703976D01*
X152539666Y-107703976D01*
X152444428Y-107751595D01*
X152396809Y-107799214D01*
X152349190Y-107894452D01*
X152301571Y-108084928D01*
X152253952Y-108180166D01*
X152206333Y-108227785D01*
X152111095Y-108275404D01*
X152015857Y-108275404D01*
X151920619Y-108227785D01*
X151873000Y-108180166D01*
X151825380Y-108084928D01*
X151825380Y-107846833D01*
X151873000Y-107703976D01*
X152825380Y-106703976D02*
X152349190Y-107037309D01*
X152825380Y-107275404D02*
X151825380Y-107275404D01*
X151825380Y-106894452D01*
X151873000Y-106799214D01*
X151920619Y-106751595D01*
X152015857Y-106703976D01*
X152158714Y-106703976D01*
X152253952Y-106751595D01*
X152301571Y-106799214D01*
X152349190Y-106894452D01*
X152349190Y-107275404D01*
D14*
X153656095Y-108198023D02*
X153406095Y-108198023D01*
X153406095Y-108138500D01*
X153418000Y-108102785D01*
X153441809Y-108078976D01*
X153465619Y-108067071D01*
X153513238Y-108055166D01*
X153548952Y-108055166D01*
X153596571Y-108067071D01*
X153620380Y-108078976D01*
X153644190Y-108102785D01*
X153656095Y-108138500D01*
X153656095Y-108198023D01*
X153429904Y-107959928D02*
X153418000Y-107948023D01*
X153406095Y-107924214D01*
X153406095Y-107864690D01*
X153418000Y-107840880D01*
X153429904Y-107828976D01*
X153453714Y-107817071D01*
X153477523Y-107817071D01*
X153513238Y-107828976D01*
X153656095Y-107971833D01*
X153656095Y-107817071D01*
G04 #@! TO.C,U2*
D11*
X148848095Y-102454380D02*
X148848095Y-101454380D01*
X149181428Y-102168666D01*
X149514761Y-101454380D01*
X149514761Y-102454380D01*
X149990952Y-102454380D02*
X149990952Y-101454380D01*
X151038571Y-102359142D02*
X150990952Y-102406761D01*
X150848095Y-102454380D01*
X150752857Y-102454380D01*
X150610000Y-102406761D01*
X150514761Y-102311523D01*
X150467142Y-102216285D01*
X150419523Y-102025809D01*
X150419523Y-101882952D01*
X150467142Y-101692476D01*
X150514761Y-101597238D01*
X150610000Y-101502000D01*
X150752857Y-101454380D01*
X150848095Y-101454380D01*
X150990952Y-101502000D01*
X151038571Y-101549619D01*
X151943333Y-101454380D02*
X151467142Y-101454380D01*
X151419523Y-101930571D01*
X151467142Y-101882952D01*
X151562380Y-101835333D01*
X151800476Y-101835333D01*
X151895714Y-101882952D01*
X151943333Y-101930571D01*
X151990952Y-102025809D01*
X151990952Y-102263904D01*
X151943333Y-102359142D01*
X151895714Y-102406761D01*
X151800476Y-102454380D01*
X151562380Y-102454380D01*
X151467142Y-102406761D01*
X151419523Y-102359142D01*
X152895714Y-101454380D02*
X152419523Y-101454380D01*
X152371904Y-101930571D01*
X152419523Y-101882952D01*
X152514761Y-101835333D01*
X152752857Y-101835333D01*
X152848095Y-101882952D01*
X152895714Y-101930571D01*
X152943333Y-102025809D01*
X152943333Y-102263904D01*
X152895714Y-102359142D01*
X152848095Y-102406761D01*
X152752857Y-102454380D01*
X152514761Y-102454380D01*
X152419523Y-102406761D01*
X152371904Y-102359142D01*
X153562380Y-101454380D02*
X153657619Y-101454380D01*
X153752857Y-101502000D01*
X153800476Y-101549619D01*
X153848095Y-101644857D01*
X153895714Y-101835333D01*
X153895714Y-102073428D01*
X153848095Y-102263904D01*
X153800476Y-102359142D01*
X153752857Y-102406761D01*
X153657619Y-102454380D01*
X153562380Y-102454380D01*
X153467142Y-102406761D01*
X153419523Y-102359142D01*
X153371904Y-102263904D01*
X153324285Y-102073428D01*
X153324285Y-101835333D01*
X153371904Y-101644857D01*
X153419523Y-101549619D01*
X153467142Y-101502000D01*
X153562380Y-101454380D01*
X154752857Y-101787714D02*
X154752857Y-102454380D01*
X154514761Y-101406761D02*
X154276666Y-102121047D01*
X154895714Y-102121047D01*
X155276666Y-102073428D02*
X156038571Y-102073428D01*
X156419523Y-101454380D02*
X157038571Y-101454380D01*
X156705238Y-101835333D01*
X156848095Y-101835333D01*
X156943333Y-101882952D01*
X156990952Y-101930571D01*
X157038571Y-102025809D01*
X157038571Y-102263904D01*
X156990952Y-102359142D01*
X156943333Y-102406761D01*
X156848095Y-102454380D01*
X156562380Y-102454380D01*
X156467142Y-102406761D01*
X156419523Y-102359142D01*
X157467142Y-102359142D02*
X157514761Y-102406761D01*
X157467142Y-102454380D01*
X157419523Y-102406761D01*
X157467142Y-102359142D01*
X157467142Y-102454380D01*
X157848095Y-101454380D02*
X158467142Y-101454380D01*
X158133809Y-101835333D01*
X158276666Y-101835333D01*
X158371904Y-101882952D01*
X158419523Y-101930571D01*
X158467142Y-102025809D01*
X158467142Y-102263904D01*
X158419523Y-102359142D01*
X158371904Y-102406761D01*
X158276666Y-102454380D01*
X157990952Y-102454380D01*
X157895714Y-102406761D01*
X157848095Y-102359142D01*
X159086190Y-101978190D02*
X159086190Y-102454380D01*
X158752857Y-101454380D02*
X159086190Y-101978190D01*
X159419523Y-101454380D01*
X159752857Y-102454380D02*
X159752857Y-101454380D01*
X160086190Y-102168666D01*
X160419523Y-101454380D01*
X160419523Y-102454380D01*
X161371904Y-101454380D02*
X160895714Y-101454380D01*
X160848095Y-101930571D01*
X160895714Y-101882952D01*
X160990952Y-101835333D01*
X161229047Y-101835333D01*
X161324285Y-101882952D01*
X161371904Y-101930571D01*
X161419523Y-102025809D01*
X161419523Y-102263904D01*
X161371904Y-102359142D01*
X161324285Y-102406761D01*
X161229047Y-102454380D01*
X160990952Y-102454380D01*
X160895714Y-102406761D01*
X160848095Y-102359142D01*
D12*
X154836190Y-105282952D02*
X155240952Y-105282952D01*
X155288571Y-105259142D01*
X155312380Y-105235333D01*
X155336190Y-105187714D01*
X155336190Y-105092476D01*
X155312380Y-105044857D01*
X155288571Y-105021047D01*
X155240952Y-104997238D01*
X154836190Y-104997238D01*
X154883809Y-104782952D02*
X154860000Y-104759142D01*
X154836190Y-104711523D01*
X154836190Y-104592476D01*
X154860000Y-104544857D01*
X154883809Y-104521047D01*
X154931428Y-104497238D01*
X154979047Y-104497238D01*
X155050476Y-104521047D01*
X155336190Y-104806761D01*
X155336190Y-104497238D01*
G04 #@! TO.C,U4*
D11*
X141396095Y-108315380D02*
X141396095Y-107315380D01*
X141729428Y-108029666D01*
X142062761Y-107315380D01*
X142062761Y-108315380D01*
X142538952Y-108315380D02*
X142538952Y-107315380D01*
X143586571Y-108220142D02*
X143538952Y-108267761D01*
X143396095Y-108315380D01*
X143300857Y-108315380D01*
X143158000Y-108267761D01*
X143062761Y-108172523D01*
X143015142Y-108077285D01*
X142967523Y-107886809D01*
X142967523Y-107743952D01*
X143015142Y-107553476D01*
X143062761Y-107458238D01*
X143158000Y-107363000D01*
X143300857Y-107315380D01*
X143396095Y-107315380D01*
X143538952Y-107363000D01*
X143586571Y-107410619D01*
X144491333Y-107315380D02*
X144015142Y-107315380D01*
X143967523Y-107791571D01*
X144015142Y-107743952D01*
X144110380Y-107696333D01*
X144348476Y-107696333D01*
X144443714Y-107743952D01*
X144491333Y-107791571D01*
X144538952Y-107886809D01*
X144538952Y-108124904D01*
X144491333Y-108220142D01*
X144443714Y-108267761D01*
X144348476Y-108315380D01*
X144110380Y-108315380D01*
X144015142Y-108267761D01*
X143967523Y-108220142D01*
X145443714Y-107315380D02*
X144967523Y-107315380D01*
X144919904Y-107791571D01*
X144967523Y-107743952D01*
X145062761Y-107696333D01*
X145300857Y-107696333D01*
X145396095Y-107743952D01*
X145443714Y-107791571D01*
X145491333Y-107886809D01*
X145491333Y-108124904D01*
X145443714Y-108220142D01*
X145396095Y-108267761D01*
X145300857Y-108315380D01*
X145062761Y-108315380D01*
X144967523Y-108267761D01*
X144919904Y-108220142D01*
X146110380Y-107315380D02*
X146205619Y-107315380D01*
X146300857Y-107363000D01*
X146348476Y-107410619D01*
X146396095Y-107505857D01*
X146443714Y-107696333D01*
X146443714Y-107934428D01*
X146396095Y-108124904D01*
X146348476Y-108220142D01*
X146300857Y-108267761D01*
X146205619Y-108315380D01*
X146110380Y-108315380D01*
X146015142Y-108267761D01*
X145967523Y-108220142D01*
X145919904Y-108124904D01*
X145872285Y-107934428D01*
X145872285Y-107696333D01*
X145919904Y-107505857D01*
X145967523Y-107410619D01*
X146015142Y-107363000D01*
X146110380Y-107315380D01*
X147300857Y-107648714D02*
X147300857Y-108315380D01*
X147062761Y-107267761D02*
X146824666Y-107982047D01*
X147443714Y-107982047D01*
X147824666Y-107934428D02*
X148586571Y-107934428D01*
X149586571Y-108315380D02*
X149015142Y-108315380D01*
X149300857Y-108315380D02*
X149300857Y-107315380D01*
X149205619Y-107458238D01*
X149110380Y-107553476D01*
X149015142Y-107601095D01*
X150015142Y-108220142D02*
X150062761Y-108267761D01*
X150015142Y-108315380D01*
X149967523Y-108267761D01*
X150015142Y-108220142D01*
X150015142Y-108315380D01*
X150443714Y-107410619D02*
X150491333Y-107363000D01*
X150586571Y-107315380D01*
X150824666Y-107315380D01*
X150919904Y-107363000D01*
X150967523Y-107410619D01*
X151015142Y-107505857D01*
X151015142Y-107601095D01*
X150967523Y-107743952D01*
X150396095Y-108315380D01*
X151015142Y-108315380D01*
X151634190Y-107839190D02*
X151634190Y-108315380D01*
X151300857Y-107315380D02*
X151634190Y-107839190D01*
X151967523Y-107315380D01*
X152300857Y-108315380D02*
X152300857Y-107315380D01*
X152634190Y-108029666D01*
X152967523Y-107315380D01*
X152967523Y-108315380D01*
X153919904Y-107315380D02*
X153443714Y-107315380D01*
X153396095Y-107791571D01*
X153443714Y-107743952D01*
X153538952Y-107696333D01*
X153777047Y-107696333D01*
X153872285Y-107743952D01*
X153919904Y-107791571D01*
X153967523Y-107886809D01*
X153967523Y-108124904D01*
X153919904Y-108220142D01*
X153872285Y-108267761D01*
X153777047Y-108315380D01*
X153538952Y-108315380D01*
X153443714Y-108267761D01*
X153396095Y-108220142D01*
D12*
X147384190Y-105343952D02*
X147788952Y-105343952D01*
X147836571Y-105320142D01*
X147860380Y-105296333D01*
X147884190Y-105248714D01*
X147884190Y-105153476D01*
X147860380Y-105105857D01*
X147836571Y-105082047D01*
X147788952Y-105058238D01*
X147384190Y-105058238D01*
X147550857Y-104605857D02*
X147884190Y-104605857D01*
X147360380Y-104724904D02*
X147717523Y-104843952D01*
X147717523Y-104534428D01*
G04 #@! TO.C,SW1*
D11*
X148082380Y-132627861D02*
X148225238Y-132675480D01*
X148463333Y-132675480D01*
X148558571Y-132627861D01*
X148606190Y-132580242D01*
X148653809Y-132485004D01*
X148653809Y-132389766D01*
X148606190Y-132294528D01*
X148558571Y-132246909D01*
X148463333Y-132199290D01*
X148272857Y-132151671D01*
X148177619Y-132104052D01*
X148130000Y-132056433D01*
X148082380Y-131961195D01*
X148082380Y-131865957D01*
X148130000Y-131770719D01*
X148177619Y-131723100D01*
X148272857Y-131675480D01*
X148510952Y-131675480D01*
X148653809Y-131723100D01*
X148987142Y-131675480D02*
X149225238Y-132675480D01*
X149415714Y-131961195D01*
X149606190Y-132675480D01*
X149844285Y-131675480D01*
X149987142Y-132770719D02*
X150749047Y-132770719D01*
X150987142Y-132675480D02*
X150987142Y-131675480D01*
X151368095Y-131675480D01*
X151463333Y-131723100D01*
X151510952Y-131770719D01*
X151558571Y-131865957D01*
X151558571Y-132008814D01*
X151510952Y-132104052D01*
X151463333Y-132151671D01*
X151368095Y-132199290D01*
X150987142Y-132199290D01*
X152415714Y-132008814D02*
X152415714Y-132675480D01*
X151987142Y-132008814D02*
X151987142Y-132532623D01*
X152034761Y-132627861D01*
X152130000Y-132675480D01*
X152272857Y-132675480D01*
X152368095Y-132627861D01*
X152415714Y-132580242D01*
X152844285Y-132627861D02*
X152939523Y-132675480D01*
X153130000Y-132675480D01*
X153225238Y-132627861D01*
X153272857Y-132532623D01*
X153272857Y-132485004D01*
X153225238Y-132389766D01*
X153130000Y-132342147D01*
X152987142Y-132342147D01*
X152891904Y-132294528D01*
X152844285Y-132199290D01*
X152844285Y-132151671D01*
X152891904Y-132056433D01*
X152987142Y-132008814D01*
X153130000Y-132008814D01*
X153225238Y-132056433D01*
X153701428Y-132675480D02*
X153701428Y-131675480D01*
X154130000Y-132675480D02*
X154130000Y-132151671D01*
X154082380Y-132056433D01*
X153987142Y-132008814D01*
X153844285Y-132008814D01*
X153749047Y-132056433D01*
X153701428Y-132104052D01*
X151568666Y-128039761D02*
X151711523Y-128087380D01*
X151949619Y-128087380D01*
X152044857Y-128039761D01*
X152092476Y-127992142D01*
X152140095Y-127896904D01*
X152140095Y-127801666D01*
X152092476Y-127706428D01*
X152044857Y-127658809D01*
X151949619Y-127611190D01*
X151759142Y-127563571D01*
X151663904Y-127515952D01*
X151616285Y-127468333D01*
X151568666Y-127373095D01*
X151568666Y-127277857D01*
X151616285Y-127182619D01*
X151663904Y-127135000D01*
X151759142Y-127087380D01*
X151997238Y-127087380D01*
X152140095Y-127135000D01*
X152473428Y-127087380D02*
X152711523Y-128087380D01*
X152902000Y-127373095D01*
X153092476Y-128087380D01*
X153330571Y-127087380D01*
X154235333Y-128087380D02*
X153663904Y-128087380D01*
X153949619Y-128087380D02*
X153949619Y-127087380D01*
X153854380Y-127230238D01*
X153759142Y-127325476D01*
X153663904Y-127373095D01*
G04 #@! TO.C,U5*
X146725238Y-122576666D02*
X147201428Y-122576666D01*
X146630000Y-122862380D02*
X146963333Y-121862380D01*
X147296666Y-122862380D01*
X147487142Y-121862380D02*
X148058571Y-121862380D01*
X147772857Y-122862380D02*
X147772857Y-121862380D01*
X148344285Y-121957619D02*
X148391904Y-121910000D01*
X148487142Y-121862380D01*
X148725238Y-121862380D01*
X148820476Y-121910000D01*
X148868095Y-121957619D01*
X148915714Y-122052857D01*
X148915714Y-122148095D01*
X148868095Y-122290952D01*
X148296666Y-122862380D01*
X148915714Y-122862380D01*
X149820476Y-121862380D02*
X149344285Y-121862380D01*
X149296666Y-122338571D01*
X149344285Y-122290952D01*
X149439523Y-122243333D01*
X149677619Y-122243333D01*
X149772857Y-122290952D01*
X149820476Y-122338571D01*
X149868095Y-122433809D01*
X149868095Y-122671904D01*
X149820476Y-122767142D01*
X149772857Y-122814761D01*
X149677619Y-122862380D01*
X149439523Y-122862380D01*
X149344285Y-122814761D01*
X149296666Y-122767142D01*
X150201428Y-122862380D02*
X150725238Y-122195714D01*
X150201428Y-122195714D02*
X150725238Y-122862380D01*
X151010952Y-122862380D02*
X151534761Y-122195714D01*
X151010952Y-122195714D02*
X151534761Y-122862380D01*
X151820476Y-122862380D02*
X152344285Y-122195714D01*
X151820476Y-122195714D02*
X152344285Y-122862380D01*
X152725238Y-122481428D02*
X153487142Y-122481428D01*
X153963333Y-122862380D02*
X153963333Y-121862380D01*
X154296666Y-122576666D01*
X154630000Y-121862380D01*
X154630000Y-122862380D01*
X155058571Y-122576666D02*
X155534761Y-122576666D01*
X154963333Y-122862380D02*
X155296666Y-121862380D01*
X155630000Y-122862380D01*
D15*
X150596666Y-124076666D02*
X150596666Y-124643333D01*
X150630000Y-124710000D01*
X150663333Y-124743333D01*
X150730000Y-124776666D01*
X150863333Y-124776666D01*
X150930000Y-124743333D01*
X150963333Y-124710000D01*
X150996666Y-124643333D01*
X150996666Y-124076666D01*
X151663333Y-124076666D02*
X151330000Y-124076666D01*
X151296666Y-124410000D01*
X151330000Y-124376666D01*
X151396666Y-124343333D01*
X151563333Y-124343333D01*
X151630000Y-124376666D01*
X151663333Y-124410000D01*
X151696666Y-124476666D01*
X151696666Y-124643333D01*
X151663333Y-124710000D01*
X151630000Y-124743333D01*
X151563333Y-124776666D01*
X151396666Y-124776666D01*
X151330000Y-124743333D01*
X151296666Y-124710000D01*
G04 #@! TO.C,U3*
D11*
X141772857Y-123976380D02*
X141772857Y-122976380D01*
X142010952Y-122976380D01*
X142153809Y-123024000D01*
X142249047Y-123119238D01*
X142296666Y-123214476D01*
X142344285Y-123404952D01*
X142344285Y-123547809D01*
X142296666Y-123738285D01*
X142249047Y-123833523D01*
X142153809Y-123928761D01*
X142010952Y-123976380D01*
X141772857Y-123976380D01*
X142725238Y-123928761D02*
X142868095Y-123976380D01*
X143106190Y-123976380D01*
X143201428Y-123928761D01*
X143249047Y-123881142D01*
X143296666Y-123785904D01*
X143296666Y-123690666D01*
X143249047Y-123595428D01*
X143201428Y-123547809D01*
X143106190Y-123500190D01*
X142915714Y-123452571D01*
X142820476Y-123404952D01*
X142772857Y-123357333D01*
X142725238Y-123262095D01*
X142725238Y-123166857D01*
X142772857Y-123071619D01*
X142820476Y-123024000D01*
X142915714Y-122976380D01*
X143153809Y-122976380D01*
X143296666Y-123024000D01*
X144296666Y-123881142D02*
X144249047Y-123928761D01*
X144106190Y-123976380D01*
X144010952Y-123976380D01*
X143868095Y-123928761D01*
X143772857Y-123833523D01*
X143725238Y-123738285D01*
X143677619Y-123547809D01*
X143677619Y-123404952D01*
X143725238Y-123214476D01*
X143772857Y-123119238D01*
X143868095Y-123024000D01*
X144010952Y-122976380D01*
X144106190Y-122976380D01*
X144249047Y-123024000D01*
X144296666Y-123071619D01*
X145153809Y-122976380D02*
X144963333Y-122976380D01*
X144868095Y-123024000D01*
X144820476Y-123071619D01*
X144725238Y-123214476D01*
X144677619Y-123404952D01*
X144677619Y-123785904D01*
X144725238Y-123881142D01*
X144772857Y-123928761D01*
X144868095Y-123976380D01*
X145058571Y-123976380D01*
X145153809Y-123928761D01*
X145201428Y-123881142D01*
X145249047Y-123785904D01*
X145249047Y-123547809D01*
X145201428Y-123452571D01*
X145153809Y-123404952D01*
X145058571Y-123357333D01*
X144868095Y-123357333D01*
X144772857Y-123404952D01*
X144725238Y-123452571D01*
X144677619Y-123547809D01*
X145868095Y-122976380D02*
X145963333Y-122976380D01*
X146058571Y-123024000D01*
X146106190Y-123071619D01*
X146153809Y-123166857D01*
X146201428Y-123357333D01*
X146201428Y-123595428D01*
X146153809Y-123785904D01*
X146106190Y-123881142D01*
X146058571Y-123928761D01*
X145963333Y-123976380D01*
X145868095Y-123976380D01*
X145772857Y-123928761D01*
X145725238Y-123881142D01*
X145677619Y-123785904D01*
X145630000Y-123595428D01*
X145630000Y-123357333D01*
X145677619Y-123166857D01*
X145725238Y-123071619D01*
X145772857Y-123024000D01*
X145868095Y-122976380D01*
X146820476Y-122976380D02*
X146915714Y-122976380D01*
X147010952Y-123024000D01*
X147058571Y-123071619D01*
X147106190Y-123166857D01*
X147153809Y-123357333D01*
X147153809Y-123595428D01*
X147106190Y-123785904D01*
X147058571Y-123881142D01*
X147010952Y-123928761D01*
X146915714Y-123976380D01*
X146820476Y-123976380D01*
X146725238Y-123928761D01*
X146677619Y-123881142D01*
X146630000Y-123785904D01*
X146582380Y-123595428D01*
X146582380Y-123357333D01*
X146630000Y-123166857D01*
X146677619Y-123071619D01*
X146725238Y-123024000D01*
X146820476Y-122976380D01*
X148106190Y-123976380D02*
X147534761Y-123976380D01*
X147820476Y-123976380D02*
X147820476Y-122976380D01*
X147725238Y-123119238D01*
X147630000Y-123214476D01*
X147534761Y-123262095D01*
X149106190Y-123881142D02*
X149058571Y-123928761D01*
X148915714Y-123976380D01*
X148820476Y-123976380D01*
X148677619Y-123928761D01*
X148582380Y-123833523D01*
X148534761Y-123738285D01*
X148487142Y-123547809D01*
X148487142Y-123404952D01*
X148534761Y-123214476D01*
X148582380Y-123119238D01*
X148677619Y-123024000D01*
X148820476Y-122976380D01*
X148915714Y-122976380D01*
X149058571Y-123024000D01*
X149106190Y-123071619D01*
X149534761Y-123976380D02*
X149534761Y-122976380D01*
X149963333Y-123071619D02*
X150010952Y-123024000D01*
X150106190Y-122976380D01*
X150344285Y-122976380D01*
X150439523Y-123024000D01*
X150487142Y-123071619D01*
X150534761Y-123166857D01*
X150534761Y-123262095D01*
X150487142Y-123404952D01*
X149915714Y-123976380D01*
X150534761Y-123976380D01*
X150915714Y-123690666D02*
X151391904Y-123690666D01*
X150820476Y-123976380D02*
X151153809Y-122976380D01*
X151487142Y-123976380D01*
X151820476Y-123595428D02*
X152582380Y-123595428D01*
X153249047Y-122976380D02*
X153344285Y-122976380D01*
X153439523Y-123024000D01*
X153487142Y-123071619D01*
X153534761Y-123166857D01*
X153582380Y-123357333D01*
X153582380Y-123595428D01*
X153534761Y-123785904D01*
X153487142Y-123881142D01*
X153439523Y-123928761D01*
X153344285Y-123976380D01*
X153249047Y-123976380D01*
X153153809Y-123928761D01*
X153106190Y-123881142D01*
X153058571Y-123785904D01*
X153010952Y-123595428D01*
X153010952Y-123357333D01*
X153058571Y-123166857D01*
X153106190Y-123071619D01*
X153153809Y-123024000D01*
X153249047Y-122976380D01*
X154534761Y-123976380D02*
X153963333Y-123976380D01*
X154249047Y-123976380D02*
X154249047Y-122976380D01*
X154153809Y-123119238D01*
X154058571Y-123214476D01*
X153963333Y-123262095D01*
X155391904Y-122976380D02*
X155201428Y-122976380D01*
X155106190Y-123024000D01*
X155058571Y-123071619D01*
X154963333Y-123214476D01*
X154915714Y-123404952D01*
X154915714Y-123785904D01*
X154963333Y-123881142D01*
X155010952Y-123928761D01*
X155106190Y-123976380D01*
X155296666Y-123976380D01*
X155391904Y-123928761D01*
X155439523Y-123881142D01*
X155487142Y-123785904D01*
X155487142Y-123547809D01*
X155439523Y-123452571D01*
X155391904Y-123404952D01*
X155296666Y-123357333D01*
X155106190Y-123357333D01*
X155010952Y-123404952D01*
X154963333Y-123452571D01*
X154915714Y-123547809D01*
X155915714Y-123881142D02*
X155963333Y-123928761D01*
X155915714Y-123976380D01*
X155868095Y-123928761D01*
X155915714Y-123881142D01*
X155915714Y-123976380D01*
X156582380Y-122976380D02*
X156677619Y-122976380D01*
X156772857Y-123024000D01*
X156820476Y-123071619D01*
X156868095Y-123166857D01*
X156915714Y-123357333D01*
X156915714Y-123595428D01*
X156868095Y-123785904D01*
X156820476Y-123881142D01*
X156772857Y-123928761D01*
X156677619Y-123976380D01*
X156582380Y-123976380D01*
X156487142Y-123928761D01*
X156439523Y-123881142D01*
X156391904Y-123785904D01*
X156344285Y-123595428D01*
X156344285Y-123357333D01*
X156391904Y-123166857D01*
X156439523Y-123071619D01*
X156487142Y-123024000D01*
X156582380Y-122976380D01*
X157534761Y-122976380D02*
X157630000Y-122976380D01*
X157725238Y-123024000D01*
X157772857Y-123071619D01*
X157820476Y-123166857D01*
X157868095Y-123357333D01*
X157868095Y-123595428D01*
X157820476Y-123785904D01*
X157772857Y-123881142D01*
X157725238Y-123928761D01*
X157630000Y-123976380D01*
X157534761Y-123976380D01*
X157439523Y-123928761D01*
X157391904Y-123881142D01*
X157344285Y-123785904D01*
X157296666Y-123595428D01*
X157296666Y-123357333D01*
X157344285Y-123166857D01*
X157391904Y-123071619D01*
X157439523Y-123024000D01*
X157534761Y-122976380D01*
X158487142Y-122976380D02*
X158582380Y-122976380D01*
X158677619Y-123024000D01*
X158725238Y-123071619D01*
X158772857Y-123166857D01*
X158820476Y-123357333D01*
X158820476Y-123595428D01*
X158772857Y-123785904D01*
X158725238Y-123881142D01*
X158677619Y-123928761D01*
X158582380Y-123976380D01*
X158487142Y-123976380D01*
X158391904Y-123928761D01*
X158344285Y-123881142D01*
X158296666Y-123785904D01*
X158249047Y-123595428D01*
X158249047Y-123357333D01*
X158296666Y-123166857D01*
X158344285Y-123071619D01*
X158391904Y-123024000D01*
X158487142Y-122976380D01*
X159439523Y-122976380D02*
X159534761Y-122976380D01*
X159630000Y-123024000D01*
X159677619Y-123071619D01*
X159725238Y-123166857D01*
X159772857Y-123357333D01*
X159772857Y-123595428D01*
X159725238Y-123785904D01*
X159677619Y-123881142D01*
X159630000Y-123928761D01*
X159534761Y-123976380D01*
X159439523Y-123976380D01*
X159344285Y-123928761D01*
X159296666Y-123881142D01*
X159249047Y-123785904D01*
X159201428Y-123595428D01*
X159201428Y-123357333D01*
X159249047Y-123166857D01*
X159296666Y-123071619D01*
X159344285Y-123024000D01*
X159439523Y-122976380D01*
X160058571Y-122976380D02*
X160630000Y-122976380D01*
X160344285Y-123976380D02*
X160344285Y-122976380D01*
D15*
X150596666Y-120690666D02*
X150596666Y-121257333D01*
X150630000Y-121324000D01*
X150663333Y-121357333D01*
X150730000Y-121390666D01*
X150863333Y-121390666D01*
X150930000Y-121357333D01*
X150963333Y-121324000D01*
X150996666Y-121257333D01*
X150996666Y-120690666D01*
X151263333Y-120690666D02*
X151696666Y-120690666D01*
X151463333Y-120957333D01*
X151563333Y-120957333D01*
X151630000Y-120990666D01*
X151663333Y-121024000D01*
X151696666Y-121090666D01*
X151696666Y-121257333D01*
X151663333Y-121324000D01*
X151630000Y-121357333D01*
X151563333Y-121390666D01*
X151363333Y-121390666D01*
X151296666Y-121357333D01*
X151263333Y-121324000D01*
G04 #@! TO.C,U6*
D11*
X148101380Y-93386380D02*
X148101380Y-94195904D01*
X148149000Y-94291142D01*
X148196619Y-94338761D01*
X148291857Y-94386380D01*
X148482333Y-94386380D01*
X148577571Y-94338761D01*
X148625190Y-94291142D01*
X148672809Y-94195904D01*
X148672809Y-93386380D01*
X149101380Y-94338761D02*
X149244238Y-94386380D01*
X149482333Y-94386380D01*
X149577571Y-94338761D01*
X149625190Y-94291142D01*
X149672809Y-94195904D01*
X149672809Y-94100666D01*
X149625190Y-94005428D01*
X149577571Y-93957809D01*
X149482333Y-93910190D01*
X149291857Y-93862571D01*
X149196619Y-93814952D01*
X149149000Y-93767333D01*
X149101380Y-93672095D01*
X149101380Y-93576857D01*
X149149000Y-93481619D01*
X149196619Y-93434000D01*
X149291857Y-93386380D01*
X149529952Y-93386380D01*
X149672809Y-93434000D01*
X150434714Y-93862571D02*
X150577571Y-93910190D01*
X150625190Y-93957809D01*
X150672809Y-94053047D01*
X150672809Y-94195904D01*
X150625190Y-94291142D01*
X150577571Y-94338761D01*
X150482333Y-94386380D01*
X150101380Y-94386380D01*
X150101380Y-93386380D01*
X150434714Y-93386380D01*
X150529952Y-93434000D01*
X150577571Y-93481619D01*
X150625190Y-93576857D01*
X150625190Y-93672095D01*
X150577571Y-93767333D01*
X150529952Y-93814952D01*
X150434714Y-93862571D01*
X150101380Y-93862571D01*
X150863285Y-94481619D02*
X151625190Y-94481619D01*
X152053761Y-93386380D02*
X152244238Y-93386380D01*
X152339476Y-93434000D01*
X152434714Y-93529238D01*
X152482333Y-93719714D01*
X152482333Y-94053047D01*
X152434714Y-94243523D01*
X152339476Y-94338761D01*
X152244238Y-94386380D01*
X152053761Y-94386380D01*
X151958523Y-94338761D01*
X151863285Y-94243523D01*
X151815666Y-94053047D01*
X151815666Y-93719714D01*
X151863285Y-93529238D01*
X151958523Y-93434000D01*
X152053761Y-93386380D01*
X152768047Y-93386380D02*
X153339476Y-93386380D01*
X153053761Y-94386380D02*
X153053761Y-93386380D01*
X154196619Y-93434000D02*
X154101380Y-93386380D01*
X153958523Y-93386380D01*
X153815666Y-93434000D01*
X153720428Y-93529238D01*
X153672809Y-93624476D01*
X153625190Y-93814952D01*
X153625190Y-93957809D01*
X153672809Y-94148285D01*
X153720428Y-94243523D01*
X153815666Y-94338761D01*
X153958523Y-94386380D01*
X154053761Y-94386380D01*
X154196619Y-94338761D01*
X154244238Y-94291142D01*
X154244238Y-93957809D01*
X154053761Y-93957809D01*
X150387095Y-97736380D02*
X150387095Y-98545904D01*
X150434714Y-98641142D01*
X150482333Y-98688761D01*
X150577571Y-98736380D01*
X150768047Y-98736380D01*
X150863285Y-98688761D01*
X150910904Y-98641142D01*
X150958523Y-98545904D01*
X150958523Y-97736380D01*
X151863285Y-97736380D02*
X151672809Y-97736380D01*
X151577571Y-97784000D01*
X151529952Y-97831619D01*
X151434714Y-97974476D01*
X151387095Y-98164952D01*
X151387095Y-98545904D01*
X151434714Y-98641142D01*
X151482333Y-98688761D01*
X151577571Y-98736380D01*
X151768047Y-98736380D01*
X151863285Y-98688761D01*
X151910904Y-98641142D01*
X151958523Y-98545904D01*
X151958523Y-98307809D01*
X151910904Y-98212571D01*
X151863285Y-98164952D01*
X151768047Y-98117333D01*
X151577571Y-98117333D01*
X151482333Y-98164952D01*
X151434714Y-98212571D01*
X151387095Y-98307809D01*
G04 #@! TO.C,U1*
X146762380Y-121490428D02*
X145762380Y-121490428D01*
X146667142Y-120442809D02*
X146714761Y-120490428D01*
X146762380Y-120633285D01*
X146762380Y-120728523D01*
X146714761Y-120871380D01*
X146619523Y-120966619D01*
X146524285Y-121014238D01*
X146333809Y-121061857D01*
X146190952Y-121061857D01*
X146000476Y-121014238D01*
X145905238Y-120966619D01*
X145810000Y-120871380D01*
X145762380Y-120728523D01*
X145762380Y-120633285D01*
X145810000Y-120490428D01*
X145857619Y-120442809D01*
X146238571Y-120014238D02*
X146238571Y-119680904D01*
X146762380Y-119538047D02*
X146762380Y-120014238D01*
X145762380Y-120014238D01*
X145762380Y-119538047D01*
X146095714Y-118680904D02*
X146762380Y-118680904D01*
X145714761Y-118919000D02*
X146429047Y-119157095D01*
X146429047Y-118538047D01*
X145762380Y-117966619D02*
X145762380Y-117871380D01*
X145810000Y-117776142D01*
X145857619Y-117728523D01*
X145952857Y-117680904D01*
X146143333Y-117633285D01*
X146381428Y-117633285D01*
X146571904Y-117680904D01*
X146667142Y-117728523D01*
X146714761Y-117776142D01*
X146762380Y-117871380D01*
X146762380Y-117966619D01*
X146714761Y-118061857D01*
X146667142Y-118109476D01*
X146571904Y-118157095D01*
X146381428Y-118204714D01*
X146143333Y-118204714D01*
X145952857Y-118157095D01*
X145857619Y-118109476D01*
X145810000Y-118061857D01*
X145762380Y-117966619D01*
X145762380Y-117204714D02*
X146571904Y-117204714D01*
X146667142Y-117157095D01*
X146714761Y-117109476D01*
X146762380Y-117014238D01*
X146762380Y-116823761D01*
X146714761Y-116728523D01*
X146667142Y-116680904D01*
X146571904Y-116633285D01*
X145762380Y-116633285D01*
X146762380Y-116157095D02*
X145762380Y-116157095D01*
X145762380Y-115776142D01*
X145810000Y-115680904D01*
X145857619Y-115633285D01*
X145952857Y-115585666D01*
X146095714Y-115585666D01*
X146190952Y-115633285D01*
X146238571Y-115680904D01*
X146286190Y-115776142D01*
X146286190Y-116157095D01*
X145762380Y-114680904D02*
X145762380Y-115157095D01*
X146238571Y-115204714D01*
X146190952Y-115157095D01*
X146143333Y-115061857D01*
X146143333Y-114823761D01*
X146190952Y-114728523D01*
X146238571Y-114680904D01*
X146333809Y-114633285D01*
X146571904Y-114633285D01*
X146667142Y-114680904D01*
X146714761Y-114728523D01*
X146762380Y-114823761D01*
X146762380Y-115061857D01*
X146714761Y-115157095D01*
X146667142Y-115204714D01*
X146762380Y-114204714D02*
X145762380Y-114204714D01*
X146762380Y-113633285D02*
X146190952Y-114061857D01*
X145762380Y-113633285D02*
X146333809Y-114204714D01*
X146381428Y-113204714D02*
X146381428Y-112442809D01*
X146714761Y-112014238D02*
X146762380Y-111871380D01*
X146762380Y-111633285D01*
X146714761Y-111538047D01*
X146667142Y-111490428D01*
X146571904Y-111442809D01*
X146476666Y-111442809D01*
X146381428Y-111490428D01*
X146333809Y-111538047D01*
X146286190Y-111633285D01*
X146238571Y-111823761D01*
X146190952Y-111919000D01*
X146143333Y-111966619D01*
X146048095Y-112014238D01*
X145952857Y-112014238D01*
X145857619Y-111966619D01*
X145810000Y-111919000D01*
X145762380Y-111823761D01*
X145762380Y-111585666D01*
X145810000Y-111442809D01*
X145810000Y-110490428D02*
X145762380Y-110585666D01*
X145762380Y-110728523D01*
X145810000Y-110871380D01*
X145905238Y-110966619D01*
X146000476Y-111014238D01*
X146190952Y-111061857D01*
X146333809Y-111061857D01*
X146524285Y-111014238D01*
X146619523Y-110966619D01*
X146714761Y-110871380D01*
X146762380Y-110728523D01*
X146762380Y-110633285D01*
X146714761Y-110490428D01*
X146667142Y-110442809D01*
X146333809Y-110442809D01*
X146333809Y-110633285D01*
X146095714Y-109585666D02*
X146762380Y-109585666D01*
X145714761Y-109823761D02*
X146429047Y-110061857D01*
X146429047Y-109442809D01*
X146190952Y-108919000D02*
X146143333Y-109014238D01*
X146095714Y-109061857D01*
X146000476Y-109109476D01*
X145952857Y-109109476D01*
X145857619Y-109061857D01*
X145810000Y-109014238D01*
X145762380Y-108919000D01*
X145762380Y-108728523D01*
X145810000Y-108633285D01*
X145857619Y-108585666D01*
X145952857Y-108538047D01*
X146000476Y-108538047D01*
X146095714Y-108585666D01*
X146143333Y-108633285D01*
X146190952Y-108728523D01*
X146190952Y-108919000D01*
X146238571Y-109014238D01*
X146286190Y-109061857D01*
X146381428Y-109109476D01*
X146571904Y-109109476D01*
X146667142Y-109061857D01*
X146714761Y-109014238D01*
X146762380Y-108919000D01*
X146762380Y-108728523D01*
X146714761Y-108633285D01*
X146667142Y-108585666D01*
X146571904Y-108538047D01*
X146381428Y-108538047D01*
X146286190Y-108585666D01*
X146238571Y-108633285D01*
X146190952Y-108728523D01*
X146762380Y-108109476D02*
X145762380Y-108109476D01*
X145762380Y-107776142D02*
X145762380Y-107204714D01*
X146762380Y-107490428D02*
X145762380Y-107490428D01*
X146762380Y-106299952D02*
X146286190Y-106633285D01*
X146762380Y-106871380D02*
X145762380Y-106871380D01*
X145762380Y-106490428D01*
X145810000Y-106395190D01*
X145857619Y-106347571D01*
X145952857Y-106299952D01*
X146095714Y-106299952D01*
X146190952Y-106347571D01*
X146238571Y-106395190D01*
X146286190Y-106490428D01*
X146286190Y-106871380D01*
X150582380Y-114680904D02*
X151391904Y-114680904D01*
X151487142Y-114633285D01*
X151534761Y-114585666D01*
X151582380Y-114490428D01*
X151582380Y-114299952D01*
X151534761Y-114204714D01*
X151487142Y-114157095D01*
X151391904Y-114109476D01*
X150582380Y-114109476D01*
X151582380Y-113109476D02*
X151582380Y-113680904D01*
X151582380Y-113395190D02*
X150582380Y-113395190D01*
X150725238Y-113490428D01*
X150820476Y-113585666D01*
X150868095Y-113680904D01*
G04 #@! TO.C,R8*
X146967619Y-109251595D02*
X146920000Y-109203976D01*
X146872380Y-109108738D01*
X146872380Y-108870642D01*
X146920000Y-108775404D01*
X146967619Y-108727785D01*
X147062857Y-108680166D01*
X147158095Y-108680166D01*
X147300952Y-108727785D01*
X147872380Y-109299214D01*
X147872380Y-108680166D01*
X146872380Y-108346833D02*
X146872380Y-107680166D01*
X147872380Y-108108738D01*
X146872380Y-107108738D02*
X146872380Y-107013500D01*
X146920000Y-106918261D01*
X146967619Y-106870642D01*
X147062857Y-106823023D01*
X147253333Y-106775404D01*
X147491428Y-106775404D01*
X147681904Y-106823023D01*
X147777142Y-106870642D01*
X147824761Y-106918261D01*
X147872380Y-107013500D01*
X147872380Y-107108738D01*
X147824761Y-107203976D01*
X147777142Y-107251595D01*
X147681904Y-107299214D01*
X147491428Y-107346833D01*
X147253333Y-107346833D01*
X147062857Y-107299214D01*
X146967619Y-107251595D01*
X146920000Y-107203976D01*
X146872380Y-107108738D01*
D14*
X148703095Y-108055166D02*
X148584047Y-108138500D01*
X148703095Y-108198023D02*
X148453095Y-108198023D01*
X148453095Y-108102785D01*
X148465000Y-108078976D01*
X148476904Y-108067071D01*
X148500714Y-108055166D01*
X148536428Y-108055166D01*
X148560238Y-108067071D01*
X148572142Y-108078976D01*
X148584047Y-108102785D01*
X148584047Y-108198023D01*
X148560238Y-107912309D02*
X148548333Y-107936119D01*
X148536428Y-107948023D01*
X148512619Y-107959928D01*
X148500714Y-107959928D01*
X148476904Y-107948023D01*
X148465000Y-107936119D01*
X148453095Y-107912309D01*
X148453095Y-107864690D01*
X148465000Y-107840880D01*
X148476904Y-107828976D01*
X148500714Y-107817071D01*
X148512619Y-107817071D01*
X148536428Y-107828976D01*
X148548333Y-107840880D01*
X148560238Y-107864690D01*
X148560238Y-107912309D01*
X148572142Y-107936119D01*
X148584047Y-107948023D01*
X148607857Y-107959928D01*
X148655476Y-107959928D01*
X148679285Y-107948023D01*
X148691190Y-107936119D01*
X148703095Y-107912309D01*
X148703095Y-107864690D01*
X148691190Y-107840880D01*
X148679285Y-107828976D01*
X148655476Y-107817071D01*
X148607857Y-107817071D01*
X148584047Y-107828976D01*
X148572142Y-107840880D01*
X148560238Y-107864690D01*
G04 #@! TO.C,R9*
D11*
X150396619Y-109251595D02*
X150349000Y-109203976D01*
X150301380Y-109108738D01*
X150301380Y-108870642D01*
X150349000Y-108775404D01*
X150396619Y-108727785D01*
X150491857Y-108680166D01*
X150587095Y-108680166D01*
X150729952Y-108727785D01*
X151301380Y-109299214D01*
X151301380Y-108680166D01*
X150301380Y-108346833D02*
X150301380Y-107680166D01*
X151301380Y-108108738D01*
X150301380Y-107108738D02*
X150301380Y-107013500D01*
X150349000Y-106918261D01*
X150396619Y-106870642D01*
X150491857Y-106823023D01*
X150682333Y-106775404D01*
X150920428Y-106775404D01*
X151110904Y-106823023D01*
X151206142Y-106870642D01*
X151253761Y-106918261D01*
X151301380Y-107013500D01*
X151301380Y-107108738D01*
X151253761Y-107203976D01*
X151206142Y-107251595D01*
X151110904Y-107299214D01*
X150920428Y-107346833D01*
X150682333Y-107346833D01*
X150491857Y-107299214D01*
X150396619Y-107251595D01*
X150349000Y-107203976D01*
X150301380Y-107108738D01*
D14*
X152132095Y-108055166D02*
X152013047Y-108138500D01*
X152132095Y-108198023D02*
X151882095Y-108198023D01*
X151882095Y-108102785D01*
X151894000Y-108078976D01*
X151905904Y-108067071D01*
X151929714Y-108055166D01*
X151965428Y-108055166D01*
X151989238Y-108067071D01*
X152001142Y-108078976D01*
X152013047Y-108102785D01*
X152013047Y-108198023D01*
X152132095Y-107936119D02*
X152132095Y-107888500D01*
X152120190Y-107864690D01*
X152108285Y-107852785D01*
X152072571Y-107828976D01*
X152024952Y-107817071D01*
X151929714Y-107817071D01*
X151905904Y-107828976D01*
X151894000Y-107840880D01*
X151882095Y-107864690D01*
X151882095Y-107912309D01*
X151894000Y-107936119D01*
X151905904Y-107948023D01*
X151929714Y-107959928D01*
X151989238Y-107959928D01*
X152013047Y-107948023D01*
X152024952Y-107936119D01*
X152036857Y-107912309D01*
X152036857Y-107864690D01*
X152024952Y-107840880D01*
X152013047Y-107828976D01*
X151989238Y-107817071D01*
G04 #@! TO.C,C17*
D11*
X155138571Y-102402880D02*
X154567142Y-102402880D01*
X154852857Y-102402880D02*
X154852857Y-101402880D01*
X154757619Y-101545738D01*
X154662380Y-101640976D01*
X154567142Y-101688595D01*
X155757619Y-101402880D02*
X155852857Y-101402880D01*
X155948095Y-101450500D01*
X155995714Y-101498119D01*
X156043333Y-101593357D01*
X156090952Y-101783833D01*
X156090952Y-102021928D01*
X156043333Y-102212404D01*
X155995714Y-102307642D01*
X155948095Y-102355261D01*
X155852857Y-102402880D01*
X155757619Y-102402880D01*
X155662380Y-102355261D01*
X155614761Y-102307642D01*
X155567142Y-102212404D01*
X155519523Y-102021928D01*
X155519523Y-101783833D01*
X155567142Y-101593357D01*
X155614761Y-101498119D01*
X155662380Y-101450500D01*
X155757619Y-101402880D01*
X156948095Y-101736214D02*
X156948095Y-102402880D01*
X156519523Y-101736214D02*
X156519523Y-102260023D01*
X156567142Y-102355261D01*
X156662380Y-102402880D01*
X156805238Y-102402880D01*
X156900476Y-102355261D01*
X156948095Y-102307642D01*
X157757619Y-101879071D02*
X157424285Y-101879071D01*
X157424285Y-102402880D02*
X157424285Y-101402880D01*
X157900476Y-101402880D01*
D16*
X155952857Y-100663357D02*
X155933809Y-100682404D01*
X155876666Y-100701452D01*
X155838571Y-100701452D01*
X155781428Y-100682404D01*
X155743333Y-100644309D01*
X155724285Y-100606214D01*
X155705238Y-100530023D01*
X155705238Y-100472880D01*
X155724285Y-100396690D01*
X155743333Y-100358595D01*
X155781428Y-100320500D01*
X155838571Y-100301452D01*
X155876666Y-100301452D01*
X155933809Y-100320500D01*
X155952857Y-100339547D01*
X156333809Y-100701452D02*
X156105238Y-100701452D01*
X156219523Y-100701452D02*
X156219523Y-100301452D01*
X156181428Y-100358595D01*
X156143333Y-100396690D01*
X156105238Y-100415738D01*
X156467142Y-100301452D02*
X156733809Y-100301452D01*
X156562380Y-100701452D01*
G04 #@! TD*
M02*
