G04 #@! TF.GenerationSoftware,KiCad,Pcbnew,5.0.1-33cea8e~68~ubuntu18.04.1*
G04 #@! TF.CreationDate,2018-11-10T13:26:22+01:00*
G04 #@! TF.ProjectId,Tiny-up5k,54696E792D7570356B2E6B696361645F,rev?*
G04 #@! TF.SameCoordinates,Original*
G04 #@! TF.FileFunction,Other,Fab,Top*
%FSLAX46Y46*%
G04 Gerber Fmt 4.6, Leading zero omitted, Abs format (unit mm)*
G04 Created by KiCad (PCBNEW 5.0.1-33cea8e~68~ubuntu18.04.1) date za 10 nov 2018 13:26:22 CET*
%MOMM*%
%LPD*%
G01*
G04 APERTURE LIST*
%ADD10C,0.100000*%
%ADD11C,0.150000*%
%ADD12C,0.075000*%
%ADD13C,0.050000*%
%ADD14C,0.040000*%
%ADD15C,0.105000*%
%ADD16C,0.060000*%
G04 APERTURE END LIST*
D10*
G04 #@! TO.C,L1*
X155093000Y-102025500D02*
X155093000Y-102825500D01*
X153493000Y-102025500D02*
X155093000Y-102025500D01*
X153493000Y-102825500D02*
X153493000Y-102025500D01*
X155093000Y-102825500D02*
X153493000Y-102825500D01*
G04 #@! TO.C,D1*
X146816000Y-107713500D02*
X147316000Y-107713500D01*
X146816000Y-107613500D02*
X147316000Y-107613500D01*
X146816000Y-108513500D02*
X146816000Y-107513500D01*
X147316000Y-108513500D02*
X146816000Y-108513500D01*
X147316000Y-107513500D02*
X147316000Y-108513500D01*
X146816000Y-107513500D02*
X147316000Y-107513500D01*
G04 #@! TO.C,D2*
X153293000Y-107513500D02*
X153793000Y-107513500D01*
X153793000Y-107513500D02*
X153793000Y-108513500D01*
X153793000Y-108513500D02*
X153293000Y-108513500D01*
X153293000Y-108513500D02*
X153293000Y-107513500D01*
X153293000Y-107613500D02*
X153793000Y-107613500D01*
X153293000Y-107713500D02*
X153793000Y-107713500D01*
G04 #@! TO.C,U2*
X154210000Y-106452000D02*
X154210000Y-103352000D01*
X154210000Y-103352000D02*
X156010000Y-103352000D01*
X156010000Y-105802000D02*
X156010000Y-103352000D01*
X154210000Y-106452000D02*
X155360000Y-106452000D01*
X156010000Y-105802000D02*
X155360000Y-106452000D01*
G04 #@! TO.C,U4*
X146758000Y-104063000D02*
X147408000Y-103413000D01*
X148558000Y-103413000D02*
X147408000Y-103413000D01*
X146758000Y-104063000D02*
X146758000Y-106513000D01*
X148558000Y-106513000D02*
X146758000Y-106513000D01*
X148558000Y-103413000D02*
X148558000Y-106513000D01*
G04 #@! TO.C,SW1*
X149630000Y-128473100D02*
X152630000Y-128473100D01*
X152630000Y-128473100D02*
X152630000Y-130973100D01*
X152630000Y-130973100D02*
X149630000Y-130973100D01*
X149630000Y-130973100D02*
X149630000Y-128473100D01*
X151880000Y-129723100D02*
G75*
G03X151880000Y-129723100I-750000J0D01*
G01*
D11*
G04 #@! TO.C,U5*
X151630000Y-125460000D02*
X149630000Y-125460000D01*
X149630000Y-125460000D02*
X149630000Y-123460000D01*
X149630000Y-123460000D02*
X152630000Y-123460000D01*
X152630000Y-123460000D02*
X152630000Y-124460000D01*
X152630000Y-124460000D02*
X151630000Y-125460000D01*
D10*
G04 #@! TO.C,U3*
X149630000Y-119824000D02*
X152630000Y-119824000D01*
X152630000Y-119824000D02*
X152730000Y-119924000D01*
X152730000Y-119924000D02*
X152730000Y-122224000D01*
X152730000Y-122224000D02*
X152630000Y-122324000D01*
X152630000Y-122324000D02*
X149630000Y-122324000D01*
X149630000Y-122324000D02*
X149530000Y-122224000D01*
X149530000Y-122224000D02*
X149530000Y-119924000D01*
X149530000Y-119924000D02*
X149630000Y-119824000D01*
X149530000Y-121324000D02*
X150530000Y-122324000D01*
G04 #@! TO.C,U6*
X147449000Y-95184000D02*
X147449000Y-100734000D01*
X154149000Y-96484000D02*
X148149000Y-96484000D01*
X154849000Y-95184000D02*
X147449000Y-95184000D01*
X154849000Y-100734000D02*
X147449000Y-100734000D01*
X154849000Y-95184000D02*
X154849000Y-100734000D01*
X152449000Y-100884000D02*
X152649000Y-101084000D01*
X152249000Y-101084000D02*
X152449000Y-100884000D01*
X152649000Y-101294000D02*
X152249000Y-101294000D01*
X152649000Y-101294000D02*
X152649000Y-101084000D01*
X152249000Y-101294000D02*
X152249000Y-101084000D01*
G04 #@! TO.C,U1*
X154630000Y-111419000D02*
X154630000Y-117419000D01*
X154630000Y-117419000D02*
X147630000Y-117419000D01*
X147630000Y-117419000D02*
X147630000Y-110419000D01*
X147630000Y-110419000D02*
X153630000Y-110419000D01*
X153630000Y-110419000D02*
X154630000Y-111419000D01*
G04 #@! TO.C,R8*
X148340000Y-108513500D02*
X148340000Y-107513500D01*
X148840000Y-108513500D02*
X148340000Y-108513500D01*
X148840000Y-107513500D02*
X148840000Y-108513500D01*
X148340000Y-107513500D02*
X148840000Y-107513500D01*
G04 #@! TO.C,R9*
X151769000Y-107513500D02*
X152269000Y-107513500D01*
X152269000Y-107513500D02*
X152269000Y-108513500D01*
X152269000Y-108513500D02*
X151769000Y-108513500D01*
X151769000Y-108513500D02*
X151769000Y-107513500D01*
G04 #@! TO.C,C17*
X155410000Y-100920500D02*
X155410000Y-100120500D01*
X155410000Y-100120500D02*
X157010000Y-100120500D01*
X157010000Y-100120500D02*
X157010000Y-100920500D01*
X157010000Y-100920500D02*
X155410000Y-100920500D01*
G04 #@! TD*
G04 #@! TO.C,L1*
D12*
X154243000Y-102561214D02*
X154100142Y-102561214D01*
X154100142Y-102261214D01*
X154500142Y-102561214D02*
X154328714Y-102561214D01*
X154414428Y-102561214D02*
X154414428Y-102261214D01*
X154385857Y-102304071D01*
X154357285Y-102332642D01*
X154328714Y-102346928D01*
D13*
X154040619Y-101761214D02*
X154069190Y-101770738D01*
X154078714Y-101780261D01*
X154088238Y-101799309D01*
X154088238Y-101827880D01*
X154078714Y-101846928D01*
X154069190Y-101856452D01*
X154050142Y-101865976D01*
X153973952Y-101865976D01*
X153973952Y-101665976D01*
X154040619Y-101665976D01*
X154059666Y-101675500D01*
X154069190Y-101685023D01*
X154078714Y-101704071D01*
X154078714Y-101723119D01*
X154069190Y-101742166D01*
X154059666Y-101751690D01*
X154040619Y-101761214D01*
X153973952Y-101761214D01*
X154250142Y-101856452D02*
X154231095Y-101865976D01*
X154193000Y-101865976D01*
X154173952Y-101856452D01*
X154164428Y-101837404D01*
X154164428Y-101761214D01*
X154173952Y-101742166D01*
X154193000Y-101732642D01*
X154231095Y-101732642D01*
X154250142Y-101742166D01*
X154259666Y-101761214D01*
X154259666Y-101780261D01*
X154164428Y-101799309D01*
X154431095Y-101865976D02*
X154431095Y-101761214D01*
X154421571Y-101742166D01*
X154402523Y-101732642D01*
X154364428Y-101732642D01*
X154345380Y-101742166D01*
X154431095Y-101856452D02*
X154412047Y-101865976D01*
X154364428Y-101865976D01*
X154345380Y-101856452D01*
X154335857Y-101837404D01*
X154335857Y-101818357D01*
X154345380Y-101799309D01*
X154364428Y-101789785D01*
X154412047Y-101789785D01*
X154431095Y-101780261D01*
X154612047Y-101865976D02*
X154612047Y-101665976D01*
X154612047Y-101856452D02*
X154593000Y-101865976D01*
X154554904Y-101865976D01*
X154535857Y-101856452D01*
X154526333Y-101846928D01*
X154516809Y-101827880D01*
X154516809Y-101770738D01*
X154526333Y-101751690D01*
X154535857Y-101742166D01*
X154554904Y-101732642D01*
X154593000Y-101732642D01*
X154612047Y-101742166D01*
G04 #@! TO.C,D1*
D11*
X143256166Y-108402380D02*
X143256166Y-107402380D01*
X143637119Y-107402380D01*
X143732357Y-107450000D01*
X143779976Y-107497619D01*
X143827595Y-107592857D01*
X143827595Y-107735714D01*
X143779976Y-107830952D01*
X143732357Y-107878571D01*
X143637119Y-107926190D01*
X143256166Y-107926190D01*
X144160928Y-107402380D02*
X144399023Y-108402380D01*
X144589500Y-107688095D01*
X144779976Y-108402380D01*
X145018071Y-107402380D01*
X145970452Y-108402380D02*
X145637119Y-107926190D01*
X145399023Y-108402380D02*
X145399023Y-107402380D01*
X145779976Y-107402380D01*
X145875214Y-107450000D01*
X145922833Y-107497619D01*
X145970452Y-107592857D01*
X145970452Y-107735714D01*
X145922833Y-107830952D01*
X145875214Y-107878571D01*
X145779976Y-107926190D01*
X145399023Y-107926190D01*
D14*
X147179095Y-108198023D02*
X146929095Y-108198023D01*
X146929095Y-108138500D01*
X146941000Y-108102785D01*
X146964809Y-108078976D01*
X146988619Y-108067071D01*
X147036238Y-108055166D01*
X147071952Y-108055166D01*
X147119571Y-108067071D01*
X147143380Y-108078976D01*
X147167190Y-108102785D01*
X147179095Y-108138500D01*
X147179095Y-108198023D01*
X147179095Y-107817071D02*
X147179095Y-107959928D01*
X147179095Y-107888500D02*
X146929095Y-107888500D01*
X146964809Y-107912309D01*
X146988619Y-107936119D01*
X147000523Y-107959928D01*
G04 #@! TO.C,D2*
D11*
X154567095Y-107465880D02*
X154567095Y-108275404D01*
X154614714Y-108370642D01*
X154662333Y-108418261D01*
X154757571Y-108465880D01*
X154948047Y-108465880D01*
X155043285Y-108418261D01*
X155090904Y-108370642D01*
X155138523Y-108275404D01*
X155138523Y-107465880D01*
X155567095Y-108418261D02*
X155709952Y-108465880D01*
X155948047Y-108465880D01*
X156043285Y-108418261D01*
X156090904Y-108370642D01*
X156138523Y-108275404D01*
X156138523Y-108180166D01*
X156090904Y-108084928D01*
X156043285Y-108037309D01*
X155948047Y-107989690D01*
X155757571Y-107942071D01*
X155662333Y-107894452D01*
X155614714Y-107846833D01*
X155567095Y-107751595D01*
X155567095Y-107656357D01*
X155614714Y-107561119D01*
X155662333Y-107513500D01*
X155757571Y-107465880D01*
X155995666Y-107465880D01*
X156138523Y-107513500D01*
X157138523Y-108465880D02*
X156805190Y-107989690D01*
X156567095Y-108465880D02*
X156567095Y-107465880D01*
X156948047Y-107465880D01*
X157043285Y-107513500D01*
X157090904Y-107561119D01*
X157138523Y-107656357D01*
X157138523Y-107799214D01*
X157090904Y-107894452D01*
X157043285Y-107942071D01*
X156948047Y-107989690D01*
X156567095Y-107989690D01*
D14*
X153656095Y-108198023D02*
X153406095Y-108198023D01*
X153406095Y-108138500D01*
X153418000Y-108102785D01*
X153441809Y-108078976D01*
X153465619Y-108067071D01*
X153513238Y-108055166D01*
X153548952Y-108055166D01*
X153596571Y-108067071D01*
X153620380Y-108078976D01*
X153644190Y-108102785D01*
X153656095Y-108138500D01*
X153656095Y-108198023D01*
X153429904Y-107959928D02*
X153418000Y-107948023D01*
X153406095Y-107924214D01*
X153406095Y-107864690D01*
X153418000Y-107840880D01*
X153429904Y-107828976D01*
X153453714Y-107817071D01*
X153477523Y-107817071D01*
X153513238Y-107828976D01*
X153656095Y-107971833D01*
X153656095Y-107817071D01*
G04 #@! TO.C,U2*
D11*
X156806095Y-105354380D02*
X156806095Y-104354380D01*
X157139428Y-105068666D01*
X157472761Y-104354380D01*
X157472761Y-105354380D01*
X157948952Y-105354380D02*
X157948952Y-104354380D01*
X158996571Y-105259142D02*
X158948952Y-105306761D01*
X158806095Y-105354380D01*
X158710857Y-105354380D01*
X158568000Y-105306761D01*
X158472761Y-105211523D01*
X158425142Y-105116285D01*
X158377523Y-104925809D01*
X158377523Y-104782952D01*
X158425142Y-104592476D01*
X158472761Y-104497238D01*
X158568000Y-104402000D01*
X158710857Y-104354380D01*
X158806095Y-104354380D01*
X158948952Y-104402000D01*
X158996571Y-104449619D01*
X159901333Y-104354380D02*
X159425142Y-104354380D01*
X159377523Y-104830571D01*
X159425142Y-104782952D01*
X159520380Y-104735333D01*
X159758476Y-104735333D01*
X159853714Y-104782952D01*
X159901333Y-104830571D01*
X159948952Y-104925809D01*
X159948952Y-105163904D01*
X159901333Y-105259142D01*
X159853714Y-105306761D01*
X159758476Y-105354380D01*
X159520380Y-105354380D01*
X159425142Y-105306761D01*
X159377523Y-105259142D01*
X160853714Y-104354380D02*
X160377523Y-104354380D01*
X160329904Y-104830571D01*
X160377523Y-104782952D01*
X160472761Y-104735333D01*
X160710857Y-104735333D01*
X160806095Y-104782952D01*
X160853714Y-104830571D01*
X160901333Y-104925809D01*
X160901333Y-105163904D01*
X160853714Y-105259142D01*
X160806095Y-105306761D01*
X160710857Y-105354380D01*
X160472761Y-105354380D01*
X160377523Y-105306761D01*
X160329904Y-105259142D01*
X161520380Y-104354380D02*
X161615619Y-104354380D01*
X161710857Y-104402000D01*
X161758476Y-104449619D01*
X161806095Y-104544857D01*
X161853714Y-104735333D01*
X161853714Y-104973428D01*
X161806095Y-105163904D01*
X161758476Y-105259142D01*
X161710857Y-105306761D01*
X161615619Y-105354380D01*
X161520380Y-105354380D01*
X161425142Y-105306761D01*
X161377523Y-105259142D01*
X161329904Y-105163904D01*
X161282285Y-104973428D01*
X161282285Y-104735333D01*
X161329904Y-104544857D01*
X161377523Y-104449619D01*
X161425142Y-104402000D01*
X161520380Y-104354380D01*
X162710857Y-104687714D02*
X162710857Y-105354380D01*
X162472761Y-104306761D02*
X162234666Y-105021047D01*
X162853714Y-105021047D01*
X163234666Y-104973428D02*
X163996571Y-104973428D01*
X164377523Y-104354380D02*
X164996571Y-104354380D01*
X164663238Y-104735333D01*
X164806095Y-104735333D01*
X164901333Y-104782952D01*
X164948952Y-104830571D01*
X164996571Y-104925809D01*
X164996571Y-105163904D01*
X164948952Y-105259142D01*
X164901333Y-105306761D01*
X164806095Y-105354380D01*
X164520380Y-105354380D01*
X164425142Y-105306761D01*
X164377523Y-105259142D01*
X165425142Y-105259142D02*
X165472761Y-105306761D01*
X165425142Y-105354380D01*
X165377523Y-105306761D01*
X165425142Y-105259142D01*
X165425142Y-105354380D01*
X165806095Y-104354380D02*
X166425142Y-104354380D01*
X166091809Y-104735333D01*
X166234666Y-104735333D01*
X166329904Y-104782952D01*
X166377523Y-104830571D01*
X166425142Y-104925809D01*
X166425142Y-105163904D01*
X166377523Y-105259142D01*
X166329904Y-105306761D01*
X166234666Y-105354380D01*
X165948952Y-105354380D01*
X165853714Y-105306761D01*
X165806095Y-105259142D01*
X167044190Y-104878190D02*
X167044190Y-105354380D01*
X166710857Y-104354380D02*
X167044190Y-104878190D01*
X167377523Y-104354380D01*
X167710857Y-105354380D02*
X167710857Y-104354380D01*
X168044190Y-105068666D01*
X168377523Y-104354380D01*
X168377523Y-105354380D01*
X169329904Y-104354380D02*
X168853714Y-104354380D01*
X168806095Y-104830571D01*
X168853714Y-104782952D01*
X168948952Y-104735333D01*
X169187047Y-104735333D01*
X169282285Y-104782952D01*
X169329904Y-104830571D01*
X169377523Y-104925809D01*
X169377523Y-105163904D01*
X169329904Y-105259142D01*
X169282285Y-105306761D01*
X169187047Y-105354380D01*
X168948952Y-105354380D01*
X168853714Y-105306761D01*
X168806095Y-105259142D01*
D12*
X154836190Y-105282952D02*
X155240952Y-105282952D01*
X155288571Y-105259142D01*
X155312380Y-105235333D01*
X155336190Y-105187714D01*
X155336190Y-105092476D01*
X155312380Y-105044857D01*
X155288571Y-105021047D01*
X155240952Y-104997238D01*
X154836190Y-104997238D01*
X154883809Y-104782952D02*
X154860000Y-104759142D01*
X154836190Y-104711523D01*
X154836190Y-104592476D01*
X154860000Y-104544857D01*
X154883809Y-104521047D01*
X154931428Y-104497238D01*
X154979047Y-104497238D01*
X155050476Y-104521047D01*
X155336190Y-104806761D01*
X155336190Y-104497238D01*
G04 #@! TO.C,U4*
D11*
X132231595Y-105481380D02*
X132231595Y-104481380D01*
X132564928Y-105195666D01*
X132898261Y-104481380D01*
X132898261Y-105481380D01*
X133374452Y-105481380D02*
X133374452Y-104481380D01*
X134422071Y-105386142D02*
X134374452Y-105433761D01*
X134231595Y-105481380D01*
X134136357Y-105481380D01*
X133993500Y-105433761D01*
X133898261Y-105338523D01*
X133850642Y-105243285D01*
X133803023Y-105052809D01*
X133803023Y-104909952D01*
X133850642Y-104719476D01*
X133898261Y-104624238D01*
X133993500Y-104529000D01*
X134136357Y-104481380D01*
X134231595Y-104481380D01*
X134374452Y-104529000D01*
X134422071Y-104576619D01*
X135326833Y-104481380D02*
X134850642Y-104481380D01*
X134803023Y-104957571D01*
X134850642Y-104909952D01*
X134945880Y-104862333D01*
X135183976Y-104862333D01*
X135279214Y-104909952D01*
X135326833Y-104957571D01*
X135374452Y-105052809D01*
X135374452Y-105290904D01*
X135326833Y-105386142D01*
X135279214Y-105433761D01*
X135183976Y-105481380D01*
X134945880Y-105481380D01*
X134850642Y-105433761D01*
X134803023Y-105386142D01*
X136279214Y-104481380D02*
X135803023Y-104481380D01*
X135755404Y-104957571D01*
X135803023Y-104909952D01*
X135898261Y-104862333D01*
X136136357Y-104862333D01*
X136231595Y-104909952D01*
X136279214Y-104957571D01*
X136326833Y-105052809D01*
X136326833Y-105290904D01*
X136279214Y-105386142D01*
X136231595Y-105433761D01*
X136136357Y-105481380D01*
X135898261Y-105481380D01*
X135803023Y-105433761D01*
X135755404Y-105386142D01*
X136945880Y-104481380D02*
X137041119Y-104481380D01*
X137136357Y-104529000D01*
X137183976Y-104576619D01*
X137231595Y-104671857D01*
X137279214Y-104862333D01*
X137279214Y-105100428D01*
X137231595Y-105290904D01*
X137183976Y-105386142D01*
X137136357Y-105433761D01*
X137041119Y-105481380D01*
X136945880Y-105481380D01*
X136850642Y-105433761D01*
X136803023Y-105386142D01*
X136755404Y-105290904D01*
X136707785Y-105100428D01*
X136707785Y-104862333D01*
X136755404Y-104671857D01*
X136803023Y-104576619D01*
X136850642Y-104529000D01*
X136945880Y-104481380D01*
X138136357Y-104814714D02*
X138136357Y-105481380D01*
X137898261Y-104433761D02*
X137660166Y-105148047D01*
X138279214Y-105148047D01*
X138660166Y-105100428D02*
X139422071Y-105100428D01*
X140422071Y-105481380D02*
X139850642Y-105481380D01*
X140136357Y-105481380D02*
X140136357Y-104481380D01*
X140041119Y-104624238D01*
X139945880Y-104719476D01*
X139850642Y-104767095D01*
X140850642Y-105386142D02*
X140898261Y-105433761D01*
X140850642Y-105481380D01*
X140803023Y-105433761D01*
X140850642Y-105386142D01*
X140850642Y-105481380D01*
X141279214Y-104576619D02*
X141326833Y-104529000D01*
X141422071Y-104481380D01*
X141660166Y-104481380D01*
X141755404Y-104529000D01*
X141803023Y-104576619D01*
X141850642Y-104671857D01*
X141850642Y-104767095D01*
X141803023Y-104909952D01*
X141231595Y-105481380D01*
X141850642Y-105481380D01*
X142469690Y-105005190D02*
X142469690Y-105481380D01*
X142136357Y-104481380D02*
X142469690Y-105005190D01*
X142803023Y-104481380D01*
X143136357Y-105481380D02*
X143136357Y-104481380D01*
X143469690Y-105195666D01*
X143803023Y-104481380D01*
X143803023Y-105481380D01*
X144755404Y-104481380D02*
X144279214Y-104481380D01*
X144231595Y-104957571D01*
X144279214Y-104909952D01*
X144374452Y-104862333D01*
X144612547Y-104862333D01*
X144707785Y-104909952D01*
X144755404Y-104957571D01*
X144803023Y-105052809D01*
X144803023Y-105290904D01*
X144755404Y-105386142D01*
X144707785Y-105433761D01*
X144612547Y-105481380D01*
X144374452Y-105481380D01*
X144279214Y-105433761D01*
X144231595Y-105386142D01*
D12*
X147384190Y-105343952D02*
X147788952Y-105343952D01*
X147836571Y-105320142D01*
X147860380Y-105296333D01*
X147884190Y-105248714D01*
X147884190Y-105153476D01*
X147860380Y-105105857D01*
X147836571Y-105082047D01*
X147788952Y-105058238D01*
X147384190Y-105058238D01*
X147550857Y-104605857D02*
X147884190Y-104605857D01*
X147360380Y-104724904D02*
X147717523Y-104843952D01*
X147717523Y-104534428D01*
G04 #@! TO.C,SW1*
D11*
X148082380Y-132627861D02*
X148225238Y-132675480D01*
X148463333Y-132675480D01*
X148558571Y-132627861D01*
X148606190Y-132580242D01*
X148653809Y-132485004D01*
X148653809Y-132389766D01*
X148606190Y-132294528D01*
X148558571Y-132246909D01*
X148463333Y-132199290D01*
X148272857Y-132151671D01*
X148177619Y-132104052D01*
X148130000Y-132056433D01*
X148082380Y-131961195D01*
X148082380Y-131865957D01*
X148130000Y-131770719D01*
X148177619Y-131723100D01*
X148272857Y-131675480D01*
X148510952Y-131675480D01*
X148653809Y-131723100D01*
X148987142Y-131675480D02*
X149225238Y-132675480D01*
X149415714Y-131961195D01*
X149606190Y-132675480D01*
X149844285Y-131675480D01*
X149987142Y-132770719D02*
X150749047Y-132770719D01*
X150987142Y-132675480D02*
X150987142Y-131675480D01*
X151368095Y-131675480D01*
X151463333Y-131723100D01*
X151510952Y-131770719D01*
X151558571Y-131865957D01*
X151558571Y-132008814D01*
X151510952Y-132104052D01*
X151463333Y-132151671D01*
X151368095Y-132199290D01*
X150987142Y-132199290D01*
X152415714Y-132008814D02*
X152415714Y-132675480D01*
X151987142Y-132008814D02*
X151987142Y-132532623D01*
X152034761Y-132627861D01*
X152130000Y-132675480D01*
X152272857Y-132675480D01*
X152368095Y-132627861D01*
X152415714Y-132580242D01*
X152844285Y-132627861D02*
X152939523Y-132675480D01*
X153130000Y-132675480D01*
X153225238Y-132627861D01*
X153272857Y-132532623D01*
X153272857Y-132485004D01*
X153225238Y-132389766D01*
X153130000Y-132342147D01*
X152987142Y-132342147D01*
X152891904Y-132294528D01*
X152844285Y-132199290D01*
X152844285Y-132151671D01*
X152891904Y-132056433D01*
X152987142Y-132008814D01*
X153130000Y-132008814D01*
X153225238Y-132056433D01*
X153701428Y-132675480D02*
X153701428Y-131675480D01*
X154130000Y-132675480D02*
X154130000Y-132151671D01*
X154082380Y-132056433D01*
X153987142Y-132008814D01*
X153844285Y-132008814D01*
X153749047Y-132056433D01*
X153701428Y-132104052D01*
X149669666Y-127722261D02*
X149812523Y-127769880D01*
X150050619Y-127769880D01*
X150145857Y-127722261D01*
X150193476Y-127674642D01*
X150241095Y-127579404D01*
X150241095Y-127484166D01*
X150193476Y-127388928D01*
X150145857Y-127341309D01*
X150050619Y-127293690D01*
X149860142Y-127246071D01*
X149764904Y-127198452D01*
X149717285Y-127150833D01*
X149669666Y-127055595D01*
X149669666Y-126960357D01*
X149717285Y-126865119D01*
X149764904Y-126817500D01*
X149860142Y-126769880D01*
X150098238Y-126769880D01*
X150241095Y-126817500D01*
X150574428Y-126769880D02*
X150812523Y-127769880D01*
X151003000Y-127055595D01*
X151193476Y-127769880D01*
X151431571Y-126769880D01*
X152336333Y-127769880D02*
X151764904Y-127769880D01*
X152050619Y-127769880D02*
X152050619Y-126769880D01*
X151955380Y-126912738D01*
X151860142Y-127007976D01*
X151764904Y-127055595D01*
G04 #@! TO.C,U5*
X146185547Y-126198261D02*
X146328404Y-126245880D01*
X146566500Y-126245880D01*
X146661738Y-126198261D01*
X146709357Y-126150642D01*
X146756976Y-126055404D01*
X146756976Y-125960166D01*
X146709357Y-125864928D01*
X146661738Y-125817309D01*
X146566500Y-125769690D01*
X146376023Y-125722071D01*
X146280785Y-125674452D01*
X146233166Y-125626833D01*
X146185547Y-125531595D01*
X146185547Y-125436357D01*
X146233166Y-125341119D01*
X146280785Y-125293500D01*
X146376023Y-125245880D01*
X146614119Y-125245880D01*
X146756976Y-125293500D01*
X147137928Y-126198261D02*
X147280785Y-126245880D01*
X147518880Y-126245880D01*
X147614119Y-126198261D01*
X147661738Y-126150642D01*
X147709357Y-126055404D01*
X147709357Y-125960166D01*
X147661738Y-125864928D01*
X147614119Y-125817309D01*
X147518880Y-125769690D01*
X147328404Y-125722071D01*
X147233166Y-125674452D01*
X147185547Y-125626833D01*
X147137928Y-125531595D01*
X147137928Y-125436357D01*
X147185547Y-125341119D01*
X147233166Y-125293500D01*
X147328404Y-125245880D01*
X147566500Y-125245880D01*
X147709357Y-125293500D01*
X147995071Y-125245880D02*
X148566500Y-125245880D01*
X148280785Y-126245880D02*
X148280785Y-125245880D01*
X148852214Y-125341119D02*
X148899833Y-125293500D01*
X148995071Y-125245880D01*
X149233166Y-125245880D01*
X149328404Y-125293500D01*
X149376023Y-125341119D01*
X149423642Y-125436357D01*
X149423642Y-125531595D01*
X149376023Y-125674452D01*
X148804595Y-126245880D01*
X149423642Y-126245880D01*
X150328404Y-125245880D02*
X149852214Y-125245880D01*
X149804595Y-125722071D01*
X149852214Y-125674452D01*
X149947452Y-125626833D01*
X150185547Y-125626833D01*
X150280785Y-125674452D01*
X150328404Y-125722071D01*
X150376023Y-125817309D01*
X150376023Y-126055404D01*
X150328404Y-126150642D01*
X150280785Y-126198261D01*
X150185547Y-126245880D01*
X149947452Y-126245880D01*
X149852214Y-126198261D01*
X149804595Y-126150642D01*
X150661738Y-125245880D02*
X150995071Y-126245880D01*
X151328404Y-125245880D01*
X151995071Y-125722071D02*
X151661738Y-125722071D01*
X151661738Y-126245880D02*
X151661738Y-125245880D01*
X152137928Y-125245880D01*
X152709357Y-125245880D02*
X152804595Y-125245880D01*
X152899833Y-125293500D01*
X152947452Y-125341119D01*
X152995071Y-125436357D01*
X153042690Y-125626833D01*
X153042690Y-125864928D01*
X152995071Y-126055404D01*
X152947452Y-126150642D01*
X152899833Y-126198261D01*
X152804595Y-126245880D01*
X152709357Y-126245880D01*
X152614119Y-126198261D01*
X152566500Y-126150642D01*
X152518880Y-126055404D01*
X152471261Y-125864928D01*
X152471261Y-125626833D01*
X152518880Y-125436357D01*
X152566500Y-125341119D01*
X152614119Y-125293500D01*
X152709357Y-125245880D01*
X153995071Y-126245880D02*
X153423642Y-126245880D01*
X153709357Y-126245880D02*
X153709357Y-125245880D01*
X153614119Y-125388738D01*
X153518880Y-125483976D01*
X153423642Y-125531595D01*
X154852214Y-125245880D02*
X154661738Y-125245880D01*
X154566500Y-125293500D01*
X154518880Y-125341119D01*
X154423642Y-125483976D01*
X154376023Y-125674452D01*
X154376023Y-126055404D01*
X154423642Y-126150642D01*
X154471261Y-126198261D01*
X154566500Y-126245880D01*
X154756976Y-126245880D01*
X154852214Y-126198261D01*
X154899833Y-126150642D01*
X154947452Y-126055404D01*
X154947452Y-125817309D01*
X154899833Y-125722071D01*
X154852214Y-125674452D01*
X154756976Y-125626833D01*
X154566500Y-125626833D01*
X154471261Y-125674452D01*
X154423642Y-125722071D01*
X154376023Y-125817309D01*
X155709357Y-125722071D02*
X155852214Y-125769690D01*
X155899833Y-125817309D01*
X155947452Y-125912547D01*
X155947452Y-126055404D01*
X155899833Y-126150642D01*
X155852214Y-126198261D01*
X155756976Y-126245880D01*
X155376023Y-126245880D01*
X155376023Y-125245880D01*
X155709357Y-125245880D01*
X155804595Y-125293500D01*
X155852214Y-125341119D01*
X155899833Y-125436357D01*
X155899833Y-125531595D01*
X155852214Y-125626833D01*
X155804595Y-125674452D01*
X155709357Y-125722071D01*
X155376023Y-125722071D01*
D15*
X150596666Y-124076666D02*
X150596666Y-124643333D01*
X150630000Y-124710000D01*
X150663333Y-124743333D01*
X150730000Y-124776666D01*
X150863333Y-124776666D01*
X150930000Y-124743333D01*
X150963333Y-124710000D01*
X150996666Y-124643333D01*
X150996666Y-124076666D01*
X151663333Y-124076666D02*
X151330000Y-124076666D01*
X151296666Y-124410000D01*
X151330000Y-124376666D01*
X151396666Y-124343333D01*
X151563333Y-124343333D01*
X151630000Y-124376666D01*
X151663333Y-124410000D01*
X151696666Y-124476666D01*
X151696666Y-124643333D01*
X151663333Y-124710000D01*
X151630000Y-124743333D01*
X151563333Y-124776666D01*
X151396666Y-124776666D01*
X151330000Y-124743333D01*
X151296666Y-124710000D01*
G04 #@! TO.C,U3*
D11*
X141836357Y-120149880D02*
X141836357Y-119149880D01*
X142074452Y-119149880D01*
X142217309Y-119197500D01*
X142312547Y-119292738D01*
X142360166Y-119387976D01*
X142407785Y-119578452D01*
X142407785Y-119721309D01*
X142360166Y-119911785D01*
X142312547Y-120007023D01*
X142217309Y-120102261D01*
X142074452Y-120149880D01*
X141836357Y-120149880D01*
X142788738Y-120102261D02*
X142931595Y-120149880D01*
X143169690Y-120149880D01*
X143264928Y-120102261D01*
X143312547Y-120054642D01*
X143360166Y-119959404D01*
X143360166Y-119864166D01*
X143312547Y-119768928D01*
X143264928Y-119721309D01*
X143169690Y-119673690D01*
X142979214Y-119626071D01*
X142883976Y-119578452D01*
X142836357Y-119530833D01*
X142788738Y-119435595D01*
X142788738Y-119340357D01*
X142836357Y-119245119D01*
X142883976Y-119197500D01*
X142979214Y-119149880D01*
X143217309Y-119149880D01*
X143360166Y-119197500D01*
X144360166Y-120054642D02*
X144312547Y-120102261D01*
X144169690Y-120149880D01*
X144074452Y-120149880D01*
X143931595Y-120102261D01*
X143836357Y-120007023D01*
X143788738Y-119911785D01*
X143741119Y-119721309D01*
X143741119Y-119578452D01*
X143788738Y-119387976D01*
X143836357Y-119292738D01*
X143931595Y-119197500D01*
X144074452Y-119149880D01*
X144169690Y-119149880D01*
X144312547Y-119197500D01*
X144360166Y-119245119D01*
X145217309Y-119149880D02*
X145026833Y-119149880D01*
X144931595Y-119197500D01*
X144883976Y-119245119D01*
X144788738Y-119387976D01*
X144741119Y-119578452D01*
X144741119Y-119959404D01*
X144788738Y-120054642D01*
X144836357Y-120102261D01*
X144931595Y-120149880D01*
X145122071Y-120149880D01*
X145217309Y-120102261D01*
X145264928Y-120054642D01*
X145312547Y-119959404D01*
X145312547Y-119721309D01*
X145264928Y-119626071D01*
X145217309Y-119578452D01*
X145122071Y-119530833D01*
X144931595Y-119530833D01*
X144836357Y-119578452D01*
X144788738Y-119626071D01*
X144741119Y-119721309D01*
X145931595Y-119149880D02*
X146026833Y-119149880D01*
X146122071Y-119197500D01*
X146169690Y-119245119D01*
X146217309Y-119340357D01*
X146264928Y-119530833D01*
X146264928Y-119768928D01*
X146217309Y-119959404D01*
X146169690Y-120054642D01*
X146122071Y-120102261D01*
X146026833Y-120149880D01*
X145931595Y-120149880D01*
X145836357Y-120102261D01*
X145788738Y-120054642D01*
X145741119Y-119959404D01*
X145693500Y-119768928D01*
X145693500Y-119530833D01*
X145741119Y-119340357D01*
X145788738Y-119245119D01*
X145836357Y-119197500D01*
X145931595Y-119149880D01*
X146883976Y-119149880D02*
X146979214Y-119149880D01*
X147074452Y-119197500D01*
X147122071Y-119245119D01*
X147169690Y-119340357D01*
X147217309Y-119530833D01*
X147217309Y-119768928D01*
X147169690Y-119959404D01*
X147122071Y-120054642D01*
X147074452Y-120102261D01*
X146979214Y-120149880D01*
X146883976Y-120149880D01*
X146788738Y-120102261D01*
X146741119Y-120054642D01*
X146693500Y-119959404D01*
X146645880Y-119768928D01*
X146645880Y-119530833D01*
X146693500Y-119340357D01*
X146741119Y-119245119D01*
X146788738Y-119197500D01*
X146883976Y-119149880D01*
X148169690Y-120149880D02*
X147598261Y-120149880D01*
X147883976Y-120149880D02*
X147883976Y-119149880D01*
X147788738Y-119292738D01*
X147693500Y-119387976D01*
X147598261Y-119435595D01*
X149169690Y-120054642D02*
X149122071Y-120102261D01*
X148979214Y-120149880D01*
X148883976Y-120149880D01*
X148741119Y-120102261D01*
X148645880Y-120007023D01*
X148598261Y-119911785D01*
X148550642Y-119721309D01*
X148550642Y-119578452D01*
X148598261Y-119387976D01*
X148645880Y-119292738D01*
X148741119Y-119197500D01*
X148883976Y-119149880D01*
X148979214Y-119149880D01*
X149122071Y-119197500D01*
X149169690Y-119245119D01*
X149598261Y-120149880D02*
X149598261Y-119149880D01*
X150026833Y-119245119D02*
X150074452Y-119197500D01*
X150169690Y-119149880D01*
X150407785Y-119149880D01*
X150503023Y-119197500D01*
X150550642Y-119245119D01*
X150598261Y-119340357D01*
X150598261Y-119435595D01*
X150550642Y-119578452D01*
X149979214Y-120149880D01*
X150598261Y-120149880D01*
X150979214Y-119864166D02*
X151455404Y-119864166D01*
X150883976Y-120149880D02*
X151217309Y-119149880D01*
X151550642Y-120149880D01*
X151883976Y-119768928D02*
X152645880Y-119768928D01*
X153312547Y-119149880D02*
X153407785Y-119149880D01*
X153503023Y-119197500D01*
X153550642Y-119245119D01*
X153598261Y-119340357D01*
X153645880Y-119530833D01*
X153645880Y-119768928D01*
X153598261Y-119959404D01*
X153550642Y-120054642D01*
X153503023Y-120102261D01*
X153407785Y-120149880D01*
X153312547Y-120149880D01*
X153217309Y-120102261D01*
X153169690Y-120054642D01*
X153122071Y-119959404D01*
X153074452Y-119768928D01*
X153074452Y-119530833D01*
X153122071Y-119340357D01*
X153169690Y-119245119D01*
X153217309Y-119197500D01*
X153312547Y-119149880D01*
X154598261Y-120149880D02*
X154026833Y-120149880D01*
X154312547Y-120149880D02*
X154312547Y-119149880D01*
X154217309Y-119292738D01*
X154122071Y-119387976D01*
X154026833Y-119435595D01*
X155455404Y-119149880D02*
X155264928Y-119149880D01*
X155169690Y-119197500D01*
X155122071Y-119245119D01*
X155026833Y-119387976D01*
X154979214Y-119578452D01*
X154979214Y-119959404D01*
X155026833Y-120054642D01*
X155074452Y-120102261D01*
X155169690Y-120149880D01*
X155360166Y-120149880D01*
X155455404Y-120102261D01*
X155503023Y-120054642D01*
X155550642Y-119959404D01*
X155550642Y-119721309D01*
X155503023Y-119626071D01*
X155455404Y-119578452D01*
X155360166Y-119530833D01*
X155169690Y-119530833D01*
X155074452Y-119578452D01*
X155026833Y-119626071D01*
X154979214Y-119721309D01*
X155979214Y-120054642D02*
X156026833Y-120102261D01*
X155979214Y-120149880D01*
X155931595Y-120102261D01*
X155979214Y-120054642D01*
X155979214Y-120149880D01*
X156645880Y-119149880D02*
X156741119Y-119149880D01*
X156836357Y-119197500D01*
X156883976Y-119245119D01*
X156931595Y-119340357D01*
X156979214Y-119530833D01*
X156979214Y-119768928D01*
X156931595Y-119959404D01*
X156883976Y-120054642D01*
X156836357Y-120102261D01*
X156741119Y-120149880D01*
X156645880Y-120149880D01*
X156550642Y-120102261D01*
X156503023Y-120054642D01*
X156455404Y-119959404D01*
X156407785Y-119768928D01*
X156407785Y-119530833D01*
X156455404Y-119340357D01*
X156503023Y-119245119D01*
X156550642Y-119197500D01*
X156645880Y-119149880D01*
X157598261Y-119149880D02*
X157693500Y-119149880D01*
X157788738Y-119197500D01*
X157836357Y-119245119D01*
X157883976Y-119340357D01*
X157931595Y-119530833D01*
X157931595Y-119768928D01*
X157883976Y-119959404D01*
X157836357Y-120054642D01*
X157788738Y-120102261D01*
X157693500Y-120149880D01*
X157598261Y-120149880D01*
X157503023Y-120102261D01*
X157455404Y-120054642D01*
X157407785Y-119959404D01*
X157360166Y-119768928D01*
X157360166Y-119530833D01*
X157407785Y-119340357D01*
X157455404Y-119245119D01*
X157503023Y-119197500D01*
X157598261Y-119149880D01*
X158550642Y-119149880D02*
X158645880Y-119149880D01*
X158741119Y-119197500D01*
X158788738Y-119245119D01*
X158836357Y-119340357D01*
X158883976Y-119530833D01*
X158883976Y-119768928D01*
X158836357Y-119959404D01*
X158788738Y-120054642D01*
X158741119Y-120102261D01*
X158645880Y-120149880D01*
X158550642Y-120149880D01*
X158455404Y-120102261D01*
X158407785Y-120054642D01*
X158360166Y-119959404D01*
X158312547Y-119768928D01*
X158312547Y-119530833D01*
X158360166Y-119340357D01*
X158407785Y-119245119D01*
X158455404Y-119197500D01*
X158550642Y-119149880D01*
X159503023Y-119149880D02*
X159598261Y-119149880D01*
X159693500Y-119197500D01*
X159741119Y-119245119D01*
X159788738Y-119340357D01*
X159836357Y-119530833D01*
X159836357Y-119768928D01*
X159788738Y-119959404D01*
X159741119Y-120054642D01*
X159693500Y-120102261D01*
X159598261Y-120149880D01*
X159503023Y-120149880D01*
X159407785Y-120102261D01*
X159360166Y-120054642D01*
X159312547Y-119959404D01*
X159264928Y-119768928D01*
X159264928Y-119530833D01*
X159312547Y-119340357D01*
X159360166Y-119245119D01*
X159407785Y-119197500D01*
X159503023Y-119149880D01*
X160122071Y-119149880D02*
X160693500Y-119149880D01*
X160407785Y-120149880D02*
X160407785Y-119149880D01*
D15*
X150596666Y-120690666D02*
X150596666Y-121257333D01*
X150630000Y-121324000D01*
X150663333Y-121357333D01*
X150730000Y-121390666D01*
X150863333Y-121390666D01*
X150930000Y-121357333D01*
X150963333Y-121324000D01*
X150996666Y-121257333D01*
X150996666Y-120690666D01*
X151263333Y-120690666D02*
X151696666Y-120690666D01*
X151463333Y-120957333D01*
X151563333Y-120957333D01*
X151630000Y-120990666D01*
X151663333Y-121024000D01*
X151696666Y-121090666D01*
X151696666Y-121257333D01*
X151663333Y-121324000D01*
X151630000Y-121357333D01*
X151563333Y-121390666D01*
X151363333Y-121390666D01*
X151296666Y-121357333D01*
X151263333Y-121324000D01*
G04 #@! TO.C,U6*
D11*
X148101380Y-93386380D02*
X148101380Y-94195904D01*
X148149000Y-94291142D01*
X148196619Y-94338761D01*
X148291857Y-94386380D01*
X148482333Y-94386380D01*
X148577571Y-94338761D01*
X148625190Y-94291142D01*
X148672809Y-94195904D01*
X148672809Y-93386380D01*
X149101380Y-94338761D02*
X149244238Y-94386380D01*
X149482333Y-94386380D01*
X149577571Y-94338761D01*
X149625190Y-94291142D01*
X149672809Y-94195904D01*
X149672809Y-94100666D01*
X149625190Y-94005428D01*
X149577571Y-93957809D01*
X149482333Y-93910190D01*
X149291857Y-93862571D01*
X149196619Y-93814952D01*
X149149000Y-93767333D01*
X149101380Y-93672095D01*
X149101380Y-93576857D01*
X149149000Y-93481619D01*
X149196619Y-93434000D01*
X149291857Y-93386380D01*
X149529952Y-93386380D01*
X149672809Y-93434000D01*
X150434714Y-93862571D02*
X150577571Y-93910190D01*
X150625190Y-93957809D01*
X150672809Y-94053047D01*
X150672809Y-94195904D01*
X150625190Y-94291142D01*
X150577571Y-94338761D01*
X150482333Y-94386380D01*
X150101380Y-94386380D01*
X150101380Y-93386380D01*
X150434714Y-93386380D01*
X150529952Y-93434000D01*
X150577571Y-93481619D01*
X150625190Y-93576857D01*
X150625190Y-93672095D01*
X150577571Y-93767333D01*
X150529952Y-93814952D01*
X150434714Y-93862571D01*
X150101380Y-93862571D01*
X150863285Y-94481619D02*
X151625190Y-94481619D01*
X152053761Y-93386380D02*
X152244238Y-93386380D01*
X152339476Y-93434000D01*
X152434714Y-93529238D01*
X152482333Y-93719714D01*
X152482333Y-94053047D01*
X152434714Y-94243523D01*
X152339476Y-94338761D01*
X152244238Y-94386380D01*
X152053761Y-94386380D01*
X151958523Y-94338761D01*
X151863285Y-94243523D01*
X151815666Y-94053047D01*
X151815666Y-93719714D01*
X151863285Y-93529238D01*
X151958523Y-93434000D01*
X152053761Y-93386380D01*
X152768047Y-93386380D02*
X153339476Y-93386380D01*
X153053761Y-94386380D02*
X153053761Y-93386380D01*
X154196619Y-93434000D02*
X154101380Y-93386380D01*
X153958523Y-93386380D01*
X153815666Y-93434000D01*
X153720428Y-93529238D01*
X153672809Y-93624476D01*
X153625190Y-93814952D01*
X153625190Y-93957809D01*
X153672809Y-94148285D01*
X153720428Y-94243523D01*
X153815666Y-94338761D01*
X153958523Y-94386380D01*
X154053761Y-94386380D01*
X154196619Y-94338761D01*
X154244238Y-94291142D01*
X154244238Y-93957809D01*
X154053761Y-93957809D01*
X150387095Y-97736380D02*
X150387095Y-98545904D01*
X150434714Y-98641142D01*
X150482333Y-98688761D01*
X150577571Y-98736380D01*
X150768047Y-98736380D01*
X150863285Y-98688761D01*
X150910904Y-98641142D01*
X150958523Y-98545904D01*
X150958523Y-97736380D01*
X151863285Y-97736380D02*
X151672809Y-97736380D01*
X151577571Y-97784000D01*
X151529952Y-97831619D01*
X151434714Y-97974476D01*
X151387095Y-98164952D01*
X151387095Y-98545904D01*
X151434714Y-98641142D01*
X151482333Y-98688761D01*
X151577571Y-98736380D01*
X151768047Y-98736380D01*
X151863285Y-98688761D01*
X151910904Y-98641142D01*
X151958523Y-98545904D01*
X151958523Y-98307809D01*
X151910904Y-98212571D01*
X151863285Y-98164952D01*
X151768047Y-98117333D01*
X151577571Y-98117333D01*
X151482333Y-98164952D01*
X151434714Y-98212571D01*
X151387095Y-98307809D01*
G04 #@! TO.C,U1*
X143495071Y-116466880D02*
X143495071Y-115466880D01*
X144542690Y-116371642D02*
X144495071Y-116419261D01*
X144352214Y-116466880D01*
X144256976Y-116466880D01*
X144114119Y-116419261D01*
X144018880Y-116324023D01*
X143971261Y-116228785D01*
X143923642Y-116038309D01*
X143923642Y-115895452D01*
X143971261Y-115704976D01*
X144018880Y-115609738D01*
X144114119Y-115514500D01*
X144256976Y-115466880D01*
X144352214Y-115466880D01*
X144495071Y-115514500D01*
X144542690Y-115562119D01*
X144971261Y-115943071D02*
X145304595Y-115943071D01*
X145447452Y-116466880D02*
X144971261Y-116466880D01*
X144971261Y-115466880D01*
X145447452Y-115466880D01*
X146304595Y-115800214D02*
X146304595Y-116466880D01*
X146066500Y-115419261D02*
X145828404Y-116133547D01*
X146447452Y-116133547D01*
X147018880Y-115466880D02*
X147114119Y-115466880D01*
X147209357Y-115514500D01*
X147256976Y-115562119D01*
X147304595Y-115657357D01*
X147352214Y-115847833D01*
X147352214Y-116085928D01*
X147304595Y-116276404D01*
X147256976Y-116371642D01*
X147209357Y-116419261D01*
X147114119Y-116466880D01*
X147018880Y-116466880D01*
X146923642Y-116419261D01*
X146876023Y-116371642D01*
X146828404Y-116276404D01*
X146780785Y-116085928D01*
X146780785Y-115847833D01*
X146828404Y-115657357D01*
X146876023Y-115562119D01*
X146923642Y-115514500D01*
X147018880Y-115466880D01*
X147780785Y-115466880D02*
X147780785Y-116276404D01*
X147828404Y-116371642D01*
X147876023Y-116419261D01*
X147971261Y-116466880D01*
X148161738Y-116466880D01*
X148256976Y-116419261D01*
X148304595Y-116371642D01*
X148352214Y-116276404D01*
X148352214Y-115466880D01*
X148828404Y-116466880D02*
X148828404Y-115466880D01*
X149209357Y-115466880D01*
X149304595Y-115514500D01*
X149352214Y-115562119D01*
X149399833Y-115657357D01*
X149399833Y-115800214D01*
X149352214Y-115895452D01*
X149304595Y-115943071D01*
X149209357Y-115990690D01*
X148828404Y-115990690D01*
X150304595Y-115466880D02*
X149828404Y-115466880D01*
X149780785Y-115943071D01*
X149828404Y-115895452D01*
X149923642Y-115847833D01*
X150161738Y-115847833D01*
X150256976Y-115895452D01*
X150304595Y-115943071D01*
X150352214Y-116038309D01*
X150352214Y-116276404D01*
X150304595Y-116371642D01*
X150256976Y-116419261D01*
X150161738Y-116466880D01*
X149923642Y-116466880D01*
X149828404Y-116419261D01*
X149780785Y-116371642D01*
X150780785Y-116466880D02*
X150780785Y-115466880D01*
X151352214Y-116466880D02*
X150923642Y-115895452D01*
X151352214Y-115466880D02*
X150780785Y-116038309D01*
X151780785Y-116085928D02*
X152542690Y-116085928D01*
X152971261Y-116419261D02*
X153114119Y-116466880D01*
X153352214Y-116466880D01*
X153447452Y-116419261D01*
X153495071Y-116371642D01*
X153542690Y-116276404D01*
X153542690Y-116181166D01*
X153495071Y-116085928D01*
X153447452Y-116038309D01*
X153352214Y-115990690D01*
X153161738Y-115943071D01*
X153066500Y-115895452D01*
X153018880Y-115847833D01*
X152971261Y-115752595D01*
X152971261Y-115657357D01*
X153018880Y-115562119D01*
X153066500Y-115514500D01*
X153161738Y-115466880D01*
X153399833Y-115466880D01*
X153542690Y-115514500D01*
X154495071Y-115514500D02*
X154399833Y-115466880D01*
X154256976Y-115466880D01*
X154114119Y-115514500D01*
X154018880Y-115609738D01*
X153971261Y-115704976D01*
X153923642Y-115895452D01*
X153923642Y-116038309D01*
X153971261Y-116228785D01*
X154018880Y-116324023D01*
X154114119Y-116419261D01*
X154256976Y-116466880D01*
X154352214Y-116466880D01*
X154495071Y-116419261D01*
X154542690Y-116371642D01*
X154542690Y-116038309D01*
X154352214Y-116038309D01*
X155399833Y-115800214D02*
X155399833Y-116466880D01*
X155161738Y-115419261D02*
X154923642Y-116133547D01*
X155542690Y-116133547D01*
X156066500Y-115895452D02*
X155971261Y-115847833D01*
X155923642Y-115800214D01*
X155876023Y-115704976D01*
X155876023Y-115657357D01*
X155923642Y-115562119D01*
X155971261Y-115514500D01*
X156066500Y-115466880D01*
X156256976Y-115466880D01*
X156352214Y-115514500D01*
X156399833Y-115562119D01*
X156447452Y-115657357D01*
X156447452Y-115704976D01*
X156399833Y-115800214D01*
X156352214Y-115847833D01*
X156256976Y-115895452D01*
X156066500Y-115895452D01*
X155971261Y-115943071D01*
X155923642Y-115990690D01*
X155876023Y-116085928D01*
X155876023Y-116276404D01*
X155923642Y-116371642D01*
X155971261Y-116419261D01*
X156066500Y-116466880D01*
X156256976Y-116466880D01*
X156352214Y-116419261D01*
X156399833Y-116371642D01*
X156447452Y-116276404D01*
X156447452Y-116085928D01*
X156399833Y-115990690D01*
X156352214Y-115943071D01*
X156256976Y-115895452D01*
X156876023Y-116466880D02*
X156876023Y-115466880D01*
X157209357Y-115466880D02*
X157780785Y-115466880D01*
X157495071Y-116466880D02*
X157495071Y-115466880D01*
X158685547Y-116466880D02*
X158352214Y-115990690D01*
X158114119Y-116466880D02*
X158114119Y-115466880D01*
X158495071Y-115466880D01*
X158590309Y-115514500D01*
X158637928Y-115562119D01*
X158685547Y-115657357D01*
X158685547Y-115800214D01*
X158637928Y-115895452D01*
X158590309Y-115943071D01*
X158495071Y-115990690D01*
X158114119Y-115990690D01*
X150582380Y-114680904D02*
X151391904Y-114680904D01*
X151487142Y-114633285D01*
X151534761Y-114585666D01*
X151582380Y-114490428D01*
X151582380Y-114299952D01*
X151534761Y-114204714D01*
X151487142Y-114157095D01*
X151391904Y-114109476D01*
X150582380Y-114109476D01*
X151582380Y-113109476D02*
X151582380Y-113680904D01*
X151582380Y-113395190D02*
X150582380Y-113395190D01*
X150725238Y-113490428D01*
X150820476Y-113585666D01*
X150868095Y-113680904D01*
G04 #@! TO.C,R8*
X149185380Y-108711904D02*
X149185380Y-108902380D01*
X149233000Y-108997619D01*
X149280619Y-109045238D01*
X149423476Y-109140476D01*
X149613952Y-109188095D01*
X149994904Y-109188095D01*
X150090142Y-109140476D01*
X150137761Y-109092857D01*
X150185380Y-108997619D01*
X150185380Y-108807142D01*
X150137761Y-108711904D01*
X150090142Y-108664285D01*
X149994904Y-108616666D01*
X149756809Y-108616666D01*
X149661571Y-108664285D01*
X149613952Y-108711904D01*
X149566333Y-108807142D01*
X149566333Y-108997619D01*
X149613952Y-109092857D01*
X149661571Y-109140476D01*
X149756809Y-109188095D01*
X149613952Y-108045238D02*
X149566333Y-108140476D01*
X149518714Y-108188095D01*
X149423476Y-108235714D01*
X149375857Y-108235714D01*
X149280619Y-108188095D01*
X149233000Y-108140476D01*
X149185380Y-108045238D01*
X149185380Y-107854761D01*
X149233000Y-107759523D01*
X149280619Y-107711904D01*
X149375857Y-107664285D01*
X149423476Y-107664285D01*
X149518714Y-107711904D01*
X149566333Y-107759523D01*
X149613952Y-107854761D01*
X149613952Y-108045238D01*
X149661571Y-108140476D01*
X149709190Y-108188095D01*
X149804428Y-108235714D01*
X149994904Y-108235714D01*
X150090142Y-108188095D01*
X150137761Y-108140476D01*
X150185380Y-108045238D01*
X150185380Y-107854761D01*
X150137761Y-107759523D01*
X150090142Y-107711904D01*
X149994904Y-107664285D01*
X149804428Y-107664285D01*
X149709190Y-107711904D01*
X149661571Y-107759523D01*
X149613952Y-107854761D01*
X149185380Y-107045238D02*
X149185380Y-106950000D01*
X149233000Y-106854761D01*
X149280619Y-106807142D01*
X149375857Y-106759523D01*
X149566333Y-106711904D01*
X149804428Y-106711904D01*
X149994904Y-106759523D01*
X150090142Y-106807142D01*
X150137761Y-106854761D01*
X150185380Y-106950000D01*
X150185380Y-107045238D01*
X150137761Y-107140476D01*
X150090142Y-107188095D01*
X149994904Y-107235714D01*
X149804428Y-107283333D01*
X149566333Y-107283333D01*
X149375857Y-107235714D01*
X149280619Y-107188095D01*
X149233000Y-107140476D01*
X149185380Y-107045238D01*
D14*
X148703095Y-108055166D02*
X148584047Y-108138500D01*
X148703095Y-108198023D02*
X148453095Y-108198023D01*
X148453095Y-108102785D01*
X148465000Y-108078976D01*
X148476904Y-108067071D01*
X148500714Y-108055166D01*
X148536428Y-108055166D01*
X148560238Y-108067071D01*
X148572142Y-108078976D01*
X148584047Y-108102785D01*
X148584047Y-108198023D01*
X148560238Y-107912309D02*
X148548333Y-107936119D01*
X148536428Y-107948023D01*
X148512619Y-107959928D01*
X148500714Y-107959928D01*
X148476904Y-107948023D01*
X148465000Y-107936119D01*
X148453095Y-107912309D01*
X148453095Y-107864690D01*
X148465000Y-107840880D01*
X148476904Y-107828976D01*
X148500714Y-107817071D01*
X148512619Y-107817071D01*
X148536428Y-107828976D01*
X148548333Y-107840880D01*
X148560238Y-107864690D01*
X148560238Y-107912309D01*
X148572142Y-107936119D01*
X148584047Y-107948023D01*
X148607857Y-107959928D01*
X148655476Y-107959928D01*
X148679285Y-107948023D01*
X148691190Y-107936119D01*
X148703095Y-107912309D01*
X148703095Y-107864690D01*
X148691190Y-107840880D01*
X148679285Y-107828976D01*
X148655476Y-107817071D01*
X148607857Y-107817071D01*
X148584047Y-107828976D01*
X148572142Y-107840880D01*
X148560238Y-107864690D01*
G04 #@! TO.C,R9*
D11*
X150391880Y-108648404D02*
X150391880Y-108838880D01*
X150439500Y-108934119D01*
X150487119Y-108981738D01*
X150629976Y-109076976D01*
X150820452Y-109124595D01*
X151201404Y-109124595D01*
X151296642Y-109076976D01*
X151344261Y-109029357D01*
X151391880Y-108934119D01*
X151391880Y-108743642D01*
X151344261Y-108648404D01*
X151296642Y-108600785D01*
X151201404Y-108553166D01*
X150963309Y-108553166D01*
X150868071Y-108600785D01*
X150820452Y-108648404D01*
X150772833Y-108743642D01*
X150772833Y-108934119D01*
X150820452Y-109029357D01*
X150868071Y-109076976D01*
X150963309Y-109124595D01*
X150820452Y-107981738D02*
X150772833Y-108076976D01*
X150725214Y-108124595D01*
X150629976Y-108172214D01*
X150582357Y-108172214D01*
X150487119Y-108124595D01*
X150439500Y-108076976D01*
X150391880Y-107981738D01*
X150391880Y-107791261D01*
X150439500Y-107696023D01*
X150487119Y-107648404D01*
X150582357Y-107600785D01*
X150629976Y-107600785D01*
X150725214Y-107648404D01*
X150772833Y-107696023D01*
X150820452Y-107791261D01*
X150820452Y-107981738D01*
X150868071Y-108076976D01*
X150915690Y-108124595D01*
X151010928Y-108172214D01*
X151201404Y-108172214D01*
X151296642Y-108124595D01*
X151344261Y-108076976D01*
X151391880Y-107981738D01*
X151391880Y-107791261D01*
X151344261Y-107696023D01*
X151296642Y-107648404D01*
X151201404Y-107600785D01*
X151010928Y-107600785D01*
X150915690Y-107648404D01*
X150868071Y-107696023D01*
X150820452Y-107791261D01*
X150391880Y-106981738D02*
X150391880Y-106886500D01*
X150439500Y-106791261D01*
X150487119Y-106743642D01*
X150582357Y-106696023D01*
X150772833Y-106648404D01*
X151010928Y-106648404D01*
X151201404Y-106696023D01*
X151296642Y-106743642D01*
X151344261Y-106791261D01*
X151391880Y-106886500D01*
X151391880Y-106981738D01*
X151344261Y-107076976D01*
X151296642Y-107124595D01*
X151201404Y-107172214D01*
X151010928Y-107219833D01*
X150772833Y-107219833D01*
X150582357Y-107172214D01*
X150487119Y-107124595D01*
X150439500Y-107076976D01*
X150391880Y-106981738D01*
D14*
X152132095Y-108055166D02*
X152013047Y-108138500D01*
X152132095Y-108198023D02*
X151882095Y-108198023D01*
X151882095Y-108102785D01*
X151894000Y-108078976D01*
X151905904Y-108067071D01*
X151929714Y-108055166D01*
X151965428Y-108055166D01*
X151989238Y-108067071D01*
X152001142Y-108078976D01*
X152013047Y-108102785D01*
X152013047Y-108198023D01*
X152132095Y-107936119D02*
X152132095Y-107888500D01*
X152120190Y-107864690D01*
X152108285Y-107852785D01*
X152072571Y-107828976D01*
X152024952Y-107817071D01*
X151929714Y-107817071D01*
X151905904Y-107828976D01*
X151894000Y-107840880D01*
X151882095Y-107864690D01*
X151882095Y-107912309D01*
X151894000Y-107936119D01*
X151905904Y-107948023D01*
X151929714Y-107959928D01*
X151989238Y-107959928D01*
X152013047Y-107948023D01*
X152024952Y-107936119D01*
X152036857Y-107912309D01*
X152036857Y-107864690D01*
X152024952Y-107840880D01*
X152013047Y-107828976D01*
X151989238Y-107817071D01*
G04 #@! TO.C,C17*
D11*
X158758071Y-100972880D02*
X158186642Y-100972880D01*
X158472357Y-100972880D02*
X158472357Y-99972880D01*
X158377119Y-100115738D01*
X158281880Y-100210976D01*
X158186642Y-100258595D01*
X159377119Y-99972880D02*
X159472357Y-99972880D01*
X159567595Y-100020500D01*
X159615214Y-100068119D01*
X159662833Y-100163357D01*
X159710452Y-100353833D01*
X159710452Y-100591928D01*
X159662833Y-100782404D01*
X159615214Y-100877642D01*
X159567595Y-100925261D01*
X159472357Y-100972880D01*
X159377119Y-100972880D01*
X159281880Y-100925261D01*
X159234261Y-100877642D01*
X159186642Y-100782404D01*
X159139023Y-100591928D01*
X159139023Y-100353833D01*
X159186642Y-100163357D01*
X159234261Y-100068119D01*
X159281880Y-100020500D01*
X159377119Y-99972880D01*
X160567595Y-100306214D02*
X160567595Y-100972880D01*
X160139023Y-100306214D02*
X160139023Y-100830023D01*
X160186642Y-100925261D01*
X160281880Y-100972880D01*
X160424738Y-100972880D01*
X160519976Y-100925261D01*
X160567595Y-100877642D01*
X161377119Y-100449071D02*
X161043785Y-100449071D01*
X161043785Y-100972880D02*
X161043785Y-99972880D01*
X161519976Y-99972880D01*
D16*
X155952857Y-100663357D02*
X155933809Y-100682404D01*
X155876666Y-100701452D01*
X155838571Y-100701452D01*
X155781428Y-100682404D01*
X155743333Y-100644309D01*
X155724285Y-100606214D01*
X155705238Y-100530023D01*
X155705238Y-100472880D01*
X155724285Y-100396690D01*
X155743333Y-100358595D01*
X155781428Y-100320500D01*
X155838571Y-100301452D01*
X155876666Y-100301452D01*
X155933809Y-100320500D01*
X155952857Y-100339547D01*
X156333809Y-100701452D02*
X156105238Y-100701452D01*
X156219523Y-100701452D02*
X156219523Y-100301452D01*
X156181428Y-100358595D01*
X156143333Y-100396690D01*
X156105238Y-100415738D01*
X156467142Y-100301452D02*
X156733809Y-100301452D01*
X156562380Y-100701452D01*
G04 #@! TD*
M02*
