G04 #@! TF.GenerationSoftware,KiCad,Pcbnew,5.0.1-33cea8e~66~ubuntu18.04.1*
G04 #@! TF.CreationDate,2018-10-18T22:19:59+02:00*
G04 #@! TF.ProjectId,Tiny-up5k,54696E792D7570356B2E6B696361645F,rev?*
G04 #@! TF.SameCoordinates,Original*
G04 #@! TF.FileFunction,Legend,Bot*
G04 #@! TF.FilePolarity,Positive*
%FSLAX46Y46*%
G04 Gerber Fmt 4.6, Leading zero omitted, Abs format (unit mm)*
G04 Created by KiCad (PCBNEW 5.0.1-33cea8e~66~ubuntu18.04.1) date do 18 okt 2018 22:19:59 CEST*
%MOMM*%
%LPD*%
G01*
G04 APERTURE LIST*
%ADD10C,0.300000*%
%ADD11C,0.175000*%
%ADD12C,0.200000*%
%ADD13C,0.120000*%
%ADD14C,0.150000*%
G04 APERTURE END LIST*
D10*
X154750428Y-114735857D02*
X154750428Y-113878714D01*
X153250428Y-114307285D02*
X154750428Y-114307285D01*
X153250428Y-113378714D02*
X154250428Y-113378714D01*
X154750428Y-113378714D02*
X154679000Y-113450142D01*
X154607571Y-113378714D01*
X154679000Y-113307285D01*
X154750428Y-113378714D01*
X154607571Y-113378714D01*
X154250428Y-112664428D02*
X153250428Y-112664428D01*
X154107571Y-112664428D02*
X154179000Y-112593000D01*
X154250428Y-112450142D01*
X154250428Y-112235857D01*
X154179000Y-112093000D01*
X154036142Y-112021571D01*
X153250428Y-112021571D01*
X154250428Y-111450142D02*
X153250428Y-111093000D01*
X154250428Y-110735857D02*
X153250428Y-111093000D01*
X152893285Y-111235857D01*
X152821857Y-111307285D01*
X152750428Y-111450142D01*
X153821857Y-110164428D02*
X153821857Y-109021571D01*
X154250428Y-107664428D02*
X153250428Y-107664428D01*
X154250428Y-108307285D02*
X153464714Y-108307285D01*
X153321857Y-108235857D01*
X153250428Y-108093000D01*
X153250428Y-107878714D01*
X153321857Y-107735857D01*
X153393285Y-107664428D01*
X154250428Y-106950142D02*
X152750428Y-106950142D01*
X154179000Y-106950142D02*
X154250428Y-106807285D01*
X154250428Y-106521571D01*
X154179000Y-106378714D01*
X154107571Y-106307285D01*
X153964714Y-106235857D01*
X153536142Y-106235857D01*
X153393285Y-106307285D01*
X153321857Y-106378714D01*
X153250428Y-106521571D01*
X153250428Y-106807285D01*
X153321857Y-106950142D01*
X154750428Y-104878714D02*
X154750428Y-105593000D01*
X154036142Y-105664428D01*
X154107571Y-105593000D01*
X154179000Y-105450142D01*
X154179000Y-105093000D01*
X154107571Y-104950142D01*
X154036142Y-104878714D01*
X153893285Y-104807285D01*
X153536142Y-104807285D01*
X153393285Y-104878714D01*
X153321857Y-104950142D01*
X153250428Y-105093000D01*
X153250428Y-105450142D01*
X153321857Y-105593000D01*
X153393285Y-105664428D01*
X153250428Y-104164428D02*
X154750428Y-104164428D01*
X153821857Y-104021571D02*
X153250428Y-103593000D01*
X154250428Y-103593000D02*
X153679000Y-104164428D01*
X152200428Y-111200142D02*
X152200428Y-111057285D01*
X152129000Y-110914428D01*
X152057571Y-110843000D01*
X151914714Y-110771571D01*
X151629000Y-110700142D01*
X151271857Y-110700142D01*
X150986142Y-110771571D01*
X150843285Y-110843000D01*
X150771857Y-110914428D01*
X150700428Y-111057285D01*
X150700428Y-111200142D01*
X150771857Y-111343000D01*
X150843285Y-111414428D01*
X150986142Y-111485857D01*
X151271857Y-111557285D01*
X151629000Y-111557285D01*
X151914714Y-111485857D01*
X152057571Y-111414428D01*
X152129000Y-111343000D01*
X152200428Y-111200142D01*
X150700428Y-110200142D02*
X151700428Y-109414428D01*
X151700428Y-110200142D02*
X150700428Y-109414428D01*
X152200428Y-108557285D02*
X152200428Y-108414428D01*
X152129000Y-108271571D01*
X152057571Y-108200142D01*
X151914714Y-108128714D01*
X151629000Y-108057285D01*
X151271857Y-108057285D01*
X150986142Y-108128714D01*
X150843285Y-108200142D01*
X150771857Y-108271571D01*
X150700428Y-108414428D01*
X150700428Y-108557285D01*
X150771857Y-108700142D01*
X150843285Y-108771571D01*
X150986142Y-108843000D01*
X151271857Y-108914428D01*
X151629000Y-108914428D01*
X151914714Y-108843000D01*
X152057571Y-108771571D01*
X152129000Y-108700142D01*
X152200428Y-108557285D01*
X150700428Y-106628714D02*
X150700428Y-107485857D01*
X150700428Y-107057285D02*
X152200428Y-107057285D01*
X151986142Y-107200142D01*
X151843285Y-107343000D01*
X151771857Y-107485857D01*
D11*
X145390000Y-98332433D02*
X145423333Y-98399100D01*
X145423333Y-98499100D01*
X145390000Y-98599100D01*
X145323333Y-98665766D01*
X145256666Y-98699100D01*
X145123333Y-98732433D01*
X145023333Y-98732433D01*
X144890000Y-98699100D01*
X144823333Y-98665766D01*
X144756666Y-98599100D01*
X144723333Y-98499100D01*
X144723333Y-98432433D01*
X144756666Y-98332433D01*
X144790000Y-98299100D01*
X145023333Y-98299100D01*
X145023333Y-98432433D01*
X144723333Y-97999100D02*
X145423333Y-97999100D01*
X144723333Y-97599100D01*
X145423333Y-97599100D01*
X144723333Y-97265766D02*
X145423333Y-97265766D01*
X145423333Y-97099100D01*
X145390000Y-96999100D01*
X145323333Y-96932433D01*
X145256666Y-96899100D01*
X145123333Y-96865766D01*
X145023333Y-96865766D01*
X144890000Y-96899100D01*
X144823333Y-96932433D01*
X144756666Y-96999100D01*
X144723333Y-97099100D01*
X144723333Y-97265766D01*
D12*
X144678095Y-100110528D02*
X144678095Y-100567671D01*
X144678095Y-100339100D02*
X145478095Y-100339100D01*
X145363809Y-100415290D01*
X145287619Y-100491480D01*
X145249523Y-100567671D01*
X145401904Y-103107671D02*
X145440000Y-103069576D01*
X145478095Y-102993385D01*
X145478095Y-102802909D01*
X145440000Y-102726719D01*
X145401904Y-102688623D01*
X145325714Y-102650528D01*
X145249523Y-102650528D01*
X145135238Y-102688623D01*
X144678095Y-103145766D01*
X144678095Y-102650528D01*
X154781119Y-127247690D02*
X154666833Y-127209595D01*
X154476357Y-127209595D01*
X154400166Y-127247690D01*
X154362071Y-127285785D01*
X154323976Y-127361976D01*
X154323976Y-127438166D01*
X154362071Y-127514357D01*
X154400166Y-127552452D01*
X154476357Y-127590547D01*
X154628738Y-127628642D01*
X154704928Y-127666738D01*
X154743023Y-127704833D01*
X154781119Y-127781023D01*
X154781119Y-127857214D01*
X154743023Y-127933404D01*
X154704928Y-127971500D01*
X154628738Y-128009595D01*
X154438261Y-128009595D01*
X154323976Y-127971500D01*
X153981119Y-127209595D02*
X153981119Y-128009595D01*
X153790642Y-128009595D01*
X153676357Y-127971500D01*
X153600166Y-127895309D01*
X153562071Y-127819119D01*
X153523976Y-127666738D01*
X153523976Y-127552452D01*
X153562071Y-127400071D01*
X153600166Y-127323880D01*
X153676357Y-127247690D01*
X153790642Y-127209595D01*
X153981119Y-127209595D01*
X153028738Y-128009595D02*
X152876357Y-128009595D01*
X152800166Y-127971500D01*
X152723976Y-127895309D01*
X152685880Y-127742928D01*
X152685880Y-127476261D01*
X152723976Y-127323880D01*
X152800166Y-127247690D01*
X152876357Y-127209595D01*
X153028738Y-127209595D01*
X153104928Y-127247690D01*
X153181119Y-127323880D01*
X153219214Y-127476261D01*
X153219214Y-127742928D01*
X153181119Y-127895309D01*
X153104928Y-127971500D01*
X153028738Y-128009595D01*
D11*
X157615333Y-98515766D02*
X156915333Y-98282433D01*
X157615333Y-98049100D01*
X156915333Y-97815766D02*
X157382000Y-97815766D01*
X157615333Y-97815766D02*
X157582000Y-97849100D01*
X157548666Y-97815766D01*
X157582000Y-97782433D01*
X157615333Y-97815766D01*
X157548666Y-97815766D01*
X157382000Y-97482433D02*
X156915333Y-97482433D01*
X157315333Y-97482433D02*
X157348666Y-97449100D01*
X157382000Y-97382433D01*
X157382000Y-97282433D01*
X157348666Y-97215766D01*
X157282000Y-97182433D01*
X156915333Y-97182433D01*
X157582000Y-100872433D02*
X157615333Y-100939100D01*
X157615333Y-101039100D01*
X157582000Y-101139100D01*
X157515333Y-101205766D01*
X157448666Y-101239100D01*
X157315333Y-101272433D01*
X157215333Y-101272433D01*
X157082000Y-101239100D01*
X157015333Y-101205766D01*
X156948666Y-101139100D01*
X156915333Y-101039100D01*
X156915333Y-100972433D01*
X156948666Y-100872433D01*
X156982000Y-100839100D01*
X157215333Y-100839100D01*
X157215333Y-100972433D01*
X156915333Y-100539100D02*
X157615333Y-100539100D01*
X156915333Y-100139100D01*
X157615333Y-100139100D01*
X156915333Y-99805766D02*
X157615333Y-99805766D01*
X157615333Y-99639100D01*
X157582000Y-99539100D01*
X157515333Y-99472433D01*
X157448666Y-99439100D01*
X157315333Y-99405766D01*
X157215333Y-99405766D01*
X157082000Y-99439100D01*
X157015333Y-99472433D01*
X156948666Y-99539100D01*
X156915333Y-99639100D01*
X156915333Y-99805766D01*
X157615333Y-103879100D02*
X157615333Y-103445766D01*
X157348666Y-103679100D01*
X157348666Y-103579100D01*
X157315333Y-103512433D01*
X157282000Y-103479100D01*
X157215333Y-103445766D01*
X157048666Y-103445766D01*
X156982000Y-103479100D01*
X156948666Y-103512433D01*
X156915333Y-103579100D01*
X156915333Y-103779100D01*
X156948666Y-103845766D01*
X156982000Y-103879100D01*
X156982000Y-103145766D02*
X156948666Y-103112433D01*
X156915333Y-103145766D01*
X156948666Y-103179100D01*
X156982000Y-103145766D01*
X156915333Y-103145766D01*
X157615333Y-102879100D02*
X157615333Y-102445766D01*
X157348666Y-102679100D01*
X157348666Y-102579100D01*
X157315333Y-102512433D01*
X157282000Y-102479100D01*
X157215333Y-102445766D01*
X157048666Y-102445766D01*
X156982000Y-102479100D01*
X156948666Y-102512433D01*
X156915333Y-102579100D01*
X156915333Y-102779100D01*
X156948666Y-102845766D01*
X156982000Y-102879100D01*
X157382000Y-102212433D02*
X156915333Y-102045766D01*
X157382000Y-101879100D01*
D12*
X154489047Y-125418809D02*
X154374761Y-125456904D01*
X154184285Y-125456904D01*
X154108095Y-125418809D01*
X154070000Y-125380714D01*
X154031904Y-125304523D01*
X154031904Y-125228333D01*
X154070000Y-125152142D01*
X154108095Y-125114047D01*
X154184285Y-125075952D01*
X154336666Y-125037857D01*
X154412857Y-124999761D01*
X154450952Y-124961666D01*
X154489047Y-124885476D01*
X154489047Y-124809285D01*
X154450952Y-124733095D01*
X154412857Y-124695000D01*
X154336666Y-124656904D01*
X154146190Y-124656904D01*
X154031904Y-124695000D01*
X153689047Y-125456904D02*
X153689047Y-124656904D01*
X153498571Y-124656904D01*
X153384285Y-124695000D01*
X153308095Y-124771190D01*
X153270000Y-124847380D01*
X153231904Y-124999761D01*
X153231904Y-125114047D01*
X153270000Y-125266428D01*
X153308095Y-125342619D01*
X153384285Y-125418809D01*
X153498571Y-125456904D01*
X153689047Y-125456904D01*
X152889047Y-125456904D02*
X152889047Y-124656904D01*
X154762071Y-130498809D02*
X154647785Y-130536904D01*
X154457309Y-130536904D01*
X154381119Y-130498809D01*
X154343023Y-130460714D01*
X154304928Y-130384523D01*
X154304928Y-130308333D01*
X154343023Y-130232142D01*
X154381119Y-130194047D01*
X154457309Y-130155952D01*
X154609690Y-130117857D01*
X154685880Y-130079761D01*
X154723976Y-130041666D01*
X154762071Y-129965476D01*
X154762071Y-129889285D01*
X154723976Y-129813095D01*
X154685880Y-129775000D01*
X154609690Y-129736904D01*
X154419214Y-129736904D01*
X154304928Y-129775000D01*
X153504928Y-130460714D02*
X153543023Y-130498809D01*
X153657309Y-130536904D01*
X153733500Y-130536904D01*
X153847785Y-130498809D01*
X153923976Y-130422619D01*
X153962071Y-130346428D01*
X154000166Y-130194047D01*
X154000166Y-130079761D01*
X153962071Y-129927380D01*
X153923976Y-129851190D01*
X153847785Y-129775000D01*
X153733500Y-129736904D01*
X153657309Y-129736904D01*
X153543023Y-129775000D01*
X153504928Y-129813095D01*
X153162071Y-130536904D02*
X153162071Y-129736904D01*
X152704928Y-130536904D02*
X153047785Y-130079761D01*
X152704928Y-129736904D02*
X153162071Y-130194047D01*
X149199523Y-129902000D02*
X149275714Y-129863904D01*
X149390000Y-129863904D01*
X149504285Y-129902000D01*
X149580476Y-129978190D01*
X149618571Y-130054380D01*
X149656666Y-130206761D01*
X149656666Y-130321047D01*
X149618571Y-130473428D01*
X149580476Y-130549619D01*
X149504285Y-130625809D01*
X149390000Y-130663904D01*
X149313809Y-130663904D01*
X149199523Y-130625809D01*
X149161428Y-130587714D01*
X149161428Y-130321047D01*
X149313809Y-130321047D01*
X148818571Y-130663904D02*
X148818571Y-129863904D01*
X148361428Y-130663904D01*
X148361428Y-129863904D01*
X147980476Y-130663904D02*
X147980476Y-129863904D01*
X147790000Y-129863904D01*
X147675714Y-129902000D01*
X147599523Y-129978190D01*
X147561428Y-130054380D01*
X147523333Y-130206761D01*
X147523333Y-130321047D01*
X147561428Y-130473428D01*
X147599523Y-130549619D01*
X147675714Y-130625809D01*
X147790000Y-130663904D01*
X147980476Y-130663904D01*
X149580476Y-127323904D02*
X149085238Y-127323904D01*
X149351904Y-127628666D01*
X149237619Y-127628666D01*
X149161428Y-127666761D01*
X149123333Y-127704857D01*
X149085238Y-127781047D01*
X149085238Y-127971523D01*
X149123333Y-128047714D01*
X149161428Y-128085809D01*
X149237619Y-128123904D01*
X149466190Y-128123904D01*
X149542380Y-128085809D01*
X149580476Y-128047714D01*
X148856666Y-127323904D02*
X148590000Y-128123904D01*
X148323333Y-127323904D01*
X148132857Y-127323904D02*
X147637619Y-127323904D01*
X147904285Y-127628666D01*
X147790000Y-127628666D01*
X147713809Y-127666761D01*
X147675714Y-127704857D01*
X147637619Y-127781047D01*
X147637619Y-127971523D01*
X147675714Y-128047714D01*
X147713809Y-128085809D01*
X147790000Y-128123904D01*
X148018571Y-128123904D01*
X148094761Y-128085809D01*
X148132857Y-128047714D01*
X149199523Y-125609309D02*
X149085238Y-125647404D01*
X148894761Y-125647404D01*
X148818571Y-125609309D01*
X148780476Y-125571214D01*
X148742380Y-125495023D01*
X148742380Y-125418833D01*
X148780476Y-125342642D01*
X148818571Y-125304547D01*
X148894761Y-125266452D01*
X149047142Y-125228357D01*
X149123333Y-125190261D01*
X149161428Y-125152166D01*
X149199523Y-125075976D01*
X149199523Y-124999785D01*
X149161428Y-124923595D01*
X149123333Y-124885500D01*
X149047142Y-124847404D01*
X148856666Y-124847404D01*
X148742380Y-124885500D01*
X148437619Y-125609309D02*
X148323333Y-125647404D01*
X148132857Y-125647404D01*
X148056666Y-125609309D01*
X148018571Y-125571214D01*
X147980476Y-125495023D01*
X147980476Y-125418833D01*
X148018571Y-125342642D01*
X148056666Y-125304547D01*
X148132857Y-125266452D01*
X148285238Y-125228357D01*
X148361428Y-125190261D01*
X148399523Y-125152166D01*
X148437619Y-125075976D01*
X148437619Y-124999785D01*
X148399523Y-124923595D01*
X148361428Y-124885500D01*
X148285238Y-124847404D01*
X148094761Y-124847404D01*
X147980476Y-124885500D01*
X145478095Y-105685766D02*
X145478095Y-105190528D01*
X145173333Y-105457195D01*
X145173333Y-105342909D01*
X145135238Y-105266719D01*
X145097142Y-105228623D01*
X145020952Y-105190528D01*
X144830476Y-105190528D01*
X144754285Y-105228623D01*
X144716190Y-105266719D01*
X144678095Y-105342909D01*
X144678095Y-105571480D01*
X144716190Y-105647671D01*
X144754285Y-105685766D01*
X145211428Y-107806719D02*
X144678095Y-107806719D01*
X145516190Y-107997195D02*
X144944761Y-108187671D01*
X144944761Y-107692433D01*
X145478095Y-110308623D02*
X145478095Y-110689576D01*
X145097142Y-110727671D01*
X145135238Y-110689576D01*
X145173333Y-110613385D01*
X145173333Y-110422909D01*
X145135238Y-110346719D01*
X145097142Y-110308623D01*
X145020952Y-110270528D01*
X144830476Y-110270528D01*
X144754285Y-110308623D01*
X144716190Y-110346719D01*
X144678095Y-110422909D01*
X144678095Y-110613385D01*
X144716190Y-110689576D01*
X144754285Y-110727671D01*
X145478095Y-112886719D02*
X145478095Y-113039100D01*
X145440000Y-113115290D01*
X145401904Y-113153385D01*
X145287619Y-113229576D01*
X145135238Y-113267671D01*
X144830476Y-113267671D01*
X144754285Y-113229576D01*
X144716190Y-113191480D01*
X144678095Y-113115290D01*
X144678095Y-112962909D01*
X144716190Y-112886719D01*
X144754285Y-112848623D01*
X144830476Y-112810528D01*
X145020952Y-112810528D01*
X145097142Y-112848623D01*
X145135238Y-112886719D01*
X145173333Y-112962909D01*
X145173333Y-113115290D01*
X145135238Y-113191480D01*
X145097142Y-113229576D01*
X145020952Y-113267671D01*
X145478095Y-115845766D02*
X145478095Y-115312433D01*
X144678095Y-115655290D01*
X145135238Y-118195290D02*
X145173333Y-118271480D01*
X145211428Y-118309576D01*
X145287619Y-118347671D01*
X145325714Y-118347671D01*
X145401904Y-118309576D01*
X145440000Y-118271480D01*
X145478095Y-118195290D01*
X145478095Y-118042909D01*
X145440000Y-117966719D01*
X145401904Y-117928623D01*
X145325714Y-117890528D01*
X145287619Y-117890528D01*
X145211428Y-117928623D01*
X145173333Y-117966719D01*
X145135238Y-118042909D01*
X145135238Y-118195290D01*
X145097142Y-118271480D01*
X145059047Y-118309576D01*
X144982857Y-118347671D01*
X144830476Y-118347671D01*
X144754285Y-118309576D01*
X144716190Y-118271480D01*
X144678095Y-118195290D01*
X144678095Y-118042909D01*
X144716190Y-117966719D01*
X144754285Y-117928623D01*
X144830476Y-117890528D01*
X144982857Y-117890528D01*
X145059047Y-117928623D01*
X145097142Y-117966719D01*
X145135238Y-118042909D01*
X144678095Y-120811480D02*
X144678095Y-120659100D01*
X144716190Y-120582909D01*
X144754285Y-120544814D01*
X144868571Y-120468623D01*
X145020952Y-120430528D01*
X145325714Y-120430528D01*
X145401904Y-120468623D01*
X145440000Y-120506719D01*
X145478095Y-120582909D01*
X145478095Y-120735290D01*
X145440000Y-120811480D01*
X145401904Y-120849576D01*
X145325714Y-120887671D01*
X145135238Y-120887671D01*
X145059047Y-120849576D01*
X145020952Y-120811480D01*
X144982857Y-120735290D01*
X144982857Y-120582909D01*
X145020952Y-120506719D01*
X145059047Y-120468623D01*
X145135238Y-120430528D01*
X144678095Y-123351480D02*
X144678095Y-123808623D01*
X144678095Y-123580052D02*
X145478095Y-123580052D01*
X145363809Y-123656242D01*
X145287619Y-123732433D01*
X145249523Y-123808623D01*
X145478095Y-122856242D02*
X145478095Y-122780052D01*
X145440000Y-122703861D01*
X145401904Y-122665766D01*
X145325714Y-122627671D01*
X145173333Y-122589576D01*
X144982857Y-122589576D01*
X144830476Y-122627671D01*
X144754285Y-122665766D01*
X144716190Y-122703861D01*
X144678095Y-122780052D01*
X144678095Y-122856242D01*
X144716190Y-122932433D01*
X144754285Y-122970528D01*
X144830476Y-123008623D01*
X144982857Y-123046719D01*
X145173333Y-123046719D01*
X145325714Y-123008623D01*
X145401904Y-122970528D01*
X145440000Y-122932433D01*
X145478095Y-122856242D01*
X144678095Y-125891480D02*
X144678095Y-126348623D01*
X144678095Y-126120052D02*
X145478095Y-126120052D01*
X145363809Y-126196242D01*
X145287619Y-126272433D01*
X145249523Y-126348623D01*
X144678095Y-125129576D02*
X144678095Y-125586719D01*
X144678095Y-125358147D02*
X145478095Y-125358147D01*
X145363809Y-125434338D01*
X145287619Y-125510528D01*
X145249523Y-125586719D01*
X144678095Y-128431480D02*
X144678095Y-128888623D01*
X144678095Y-128660052D02*
X145478095Y-128660052D01*
X145363809Y-128736242D01*
X145287619Y-128812433D01*
X145249523Y-128888623D01*
X145401904Y-128126719D02*
X145440000Y-128088623D01*
X145478095Y-128012433D01*
X145478095Y-127821957D01*
X145440000Y-127745766D01*
X145401904Y-127707671D01*
X145325714Y-127669576D01*
X145249523Y-127669576D01*
X145135238Y-127707671D01*
X144678095Y-128164814D01*
X144678095Y-127669576D01*
X144678095Y-130971480D02*
X144678095Y-131428623D01*
X144678095Y-131200052D02*
X145478095Y-131200052D01*
X145363809Y-131276242D01*
X145287619Y-131352433D01*
X145249523Y-131428623D01*
X145478095Y-130704814D02*
X145478095Y-130209576D01*
X145173333Y-130476242D01*
X145173333Y-130361957D01*
X145135238Y-130285766D01*
X145097142Y-130247671D01*
X145020952Y-130209576D01*
X144830476Y-130209576D01*
X144754285Y-130247671D01*
X144716190Y-130285766D01*
X144678095Y-130361957D01*
X144678095Y-130590528D01*
X144716190Y-130666719D01*
X144754285Y-130704814D01*
X157593904Y-106028623D02*
X157632000Y-105990528D01*
X157670095Y-105914338D01*
X157670095Y-105723861D01*
X157632000Y-105647671D01*
X157593904Y-105609576D01*
X157517714Y-105571480D01*
X157441523Y-105571480D01*
X157327238Y-105609576D01*
X156870095Y-106066719D01*
X156870095Y-105571480D01*
X157403428Y-104885766D02*
X156870095Y-104885766D01*
X157708190Y-105076242D02*
X157136761Y-105266719D01*
X157136761Y-104771480D01*
X157593904Y-108568623D02*
X157632000Y-108530528D01*
X157670095Y-108454338D01*
X157670095Y-108263861D01*
X157632000Y-108187671D01*
X157593904Y-108149576D01*
X157517714Y-108111480D01*
X157441523Y-108111480D01*
X157327238Y-108149576D01*
X156870095Y-108606719D01*
X156870095Y-108111480D01*
X157670095Y-107844814D02*
X157670095Y-107349576D01*
X157365333Y-107616242D01*
X157365333Y-107501957D01*
X157327238Y-107425766D01*
X157289142Y-107387671D01*
X157212952Y-107349576D01*
X157022476Y-107349576D01*
X156946285Y-107387671D01*
X156908190Y-107425766D01*
X156870095Y-107501957D01*
X156870095Y-107730528D01*
X156908190Y-107806719D01*
X156946285Y-107844814D01*
X157593904Y-111108623D02*
X157632000Y-111070528D01*
X157670095Y-110994338D01*
X157670095Y-110803861D01*
X157632000Y-110727671D01*
X157593904Y-110689576D01*
X157517714Y-110651480D01*
X157441523Y-110651480D01*
X157327238Y-110689576D01*
X156870095Y-111146719D01*
X156870095Y-110651480D01*
X157593904Y-110346719D02*
X157632000Y-110308623D01*
X157670095Y-110232433D01*
X157670095Y-110041957D01*
X157632000Y-109965766D01*
X157593904Y-109927671D01*
X157517714Y-109889576D01*
X157441523Y-109889576D01*
X157327238Y-109927671D01*
X156870095Y-110384814D01*
X156870095Y-109889576D01*
X157593904Y-113648623D02*
X157632000Y-113610528D01*
X157670095Y-113534338D01*
X157670095Y-113343861D01*
X157632000Y-113267671D01*
X157593904Y-113229576D01*
X157517714Y-113191480D01*
X157441523Y-113191480D01*
X157327238Y-113229576D01*
X156870095Y-113686719D01*
X156870095Y-113191480D01*
X156870095Y-112429576D02*
X156870095Y-112886719D01*
X156870095Y-112658147D02*
X157670095Y-112658147D01*
X157555809Y-112734338D01*
X157479619Y-112810528D01*
X157441523Y-112886719D01*
X157593904Y-116188623D02*
X157632000Y-116150528D01*
X157670095Y-116074338D01*
X157670095Y-115883861D01*
X157632000Y-115807671D01*
X157593904Y-115769576D01*
X157517714Y-115731480D01*
X157441523Y-115731480D01*
X157327238Y-115769576D01*
X156870095Y-116226719D01*
X156870095Y-115731480D01*
X157670095Y-115236242D02*
X157670095Y-115160052D01*
X157632000Y-115083861D01*
X157593904Y-115045766D01*
X157517714Y-115007671D01*
X157365333Y-114969576D01*
X157174857Y-114969576D01*
X157022476Y-115007671D01*
X156946285Y-115045766D01*
X156908190Y-115083861D01*
X156870095Y-115160052D01*
X156870095Y-115236242D01*
X156908190Y-115312433D01*
X156946285Y-115350528D01*
X157022476Y-115388623D01*
X157174857Y-115426719D01*
X157365333Y-115426719D01*
X157517714Y-115388623D01*
X157593904Y-115350528D01*
X157632000Y-115312433D01*
X157670095Y-115236242D01*
X156870095Y-118271480D02*
X156870095Y-118728623D01*
X156870095Y-118500052D02*
X157670095Y-118500052D01*
X157555809Y-118576242D01*
X157479619Y-118652433D01*
X157441523Y-118728623D01*
X156870095Y-117890528D02*
X156870095Y-117738147D01*
X156908190Y-117661957D01*
X156946285Y-117623861D01*
X157060571Y-117547671D01*
X157212952Y-117509576D01*
X157517714Y-117509576D01*
X157593904Y-117547671D01*
X157632000Y-117585766D01*
X157670095Y-117661957D01*
X157670095Y-117814338D01*
X157632000Y-117890528D01*
X157593904Y-117928623D01*
X157517714Y-117966719D01*
X157327238Y-117966719D01*
X157251047Y-117928623D01*
X157212952Y-117890528D01*
X157174857Y-117814338D01*
X157174857Y-117661957D01*
X157212952Y-117585766D01*
X157251047Y-117547671D01*
X157327238Y-117509576D01*
X156870095Y-120811480D02*
X156870095Y-121268623D01*
X156870095Y-121040052D02*
X157670095Y-121040052D01*
X157555809Y-121116242D01*
X157479619Y-121192433D01*
X157441523Y-121268623D01*
X157327238Y-120354338D02*
X157365333Y-120430528D01*
X157403428Y-120468623D01*
X157479619Y-120506719D01*
X157517714Y-120506719D01*
X157593904Y-120468623D01*
X157632000Y-120430528D01*
X157670095Y-120354338D01*
X157670095Y-120201957D01*
X157632000Y-120125766D01*
X157593904Y-120087671D01*
X157517714Y-120049576D01*
X157479619Y-120049576D01*
X157403428Y-120087671D01*
X157365333Y-120125766D01*
X157327238Y-120201957D01*
X157327238Y-120354338D01*
X157289142Y-120430528D01*
X157251047Y-120468623D01*
X157174857Y-120506719D01*
X157022476Y-120506719D01*
X156946285Y-120468623D01*
X156908190Y-120430528D01*
X156870095Y-120354338D01*
X156870095Y-120201957D01*
X156908190Y-120125766D01*
X156946285Y-120087671D01*
X157022476Y-120049576D01*
X157174857Y-120049576D01*
X157251047Y-120087671D01*
X157289142Y-120125766D01*
X157327238Y-120201957D01*
X156870095Y-123351480D02*
X156870095Y-123808623D01*
X156870095Y-123580052D02*
X157670095Y-123580052D01*
X157555809Y-123656242D01*
X157479619Y-123732433D01*
X157441523Y-123808623D01*
X157670095Y-123084814D02*
X157670095Y-122551480D01*
X156870095Y-122894338D01*
X156870095Y-125891480D02*
X156870095Y-126348623D01*
X156870095Y-126120052D02*
X157670095Y-126120052D01*
X157555809Y-126196242D01*
X157479619Y-126272433D01*
X157441523Y-126348623D01*
X157670095Y-125205766D02*
X157670095Y-125358147D01*
X157632000Y-125434338D01*
X157593904Y-125472433D01*
X157479619Y-125548623D01*
X157327238Y-125586719D01*
X157022476Y-125586719D01*
X156946285Y-125548623D01*
X156908190Y-125510528D01*
X156870095Y-125434338D01*
X156870095Y-125281957D01*
X156908190Y-125205766D01*
X156946285Y-125167671D01*
X157022476Y-125129576D01*
X157212952Y-125129576D01*
X157289142Y-125167671D01*
X157327238Y-125205766D01*
X157365333Y-125281957D01*
X157365333Y-125434338D01*
X157327238Y-125510528D01*
X157289142Y-125548623D01*
X157212952Y-125586719D01*
X156870095Y-128431480D02*
X156870095Y-128888623D01*
X156870095Y-128660052D02*
X157670095Y-128660052D01*
X157555809Y-128736242D01*
X157479619Y-128812433D01*
X157441523Y-128888623D01*
X157670095Y-127707671D02*
X157670095Y-128088623D01*
X157289142Y-128126719D01*
X157327238Y-128088623D01*
X157365333Y-128012433D01*
X157365333Y-127821957D01*
X157327238Y-127745766D01*
X157289142Y-127707671D01*
X157212952Y-127669576D01*
X157022476Y-127669576D01*
X156946285Y-127707671D01*
X156908190Y-127745766D01*
X156870095Y-127821957D01*
X156870095Y-128012433D01*
X156908190Y-128088623D01*
X156946285Y-128126719D01*
X156870095Y-130971480D02*
X156870095Y-131428623D01*
X156870095Y-131200052D02*
X157670095Y-131200052D01*
X157555809Y-131276242D01*
X157479619Y-131352433D01*
X157441523Y-131428623D01*
X157403428Y-130285766D02*
X156870095Y-130285766D01*
X157708190Y-130476242D02*
X157136761Y-130666719D01*
X157136761Y-130171480D01*
D13*
G04 #@! TO.C,J5*
X148545000Y-130685000D02*
X148545000Y-129665000D01*
X153745000Y-130685000D02*
X153745000Y-129665000D01*
X148545000Y-128145000D02*
X148545000Y-127125000D01*
X153745000Y-128145000D02*
X153745000Y-127125000D01*
G04 #@! TO.C,C12*
D14*
X150439357Y-112561642D02*
X150486976Y-112609261D01*
X150629833Y-112656880D01*
X150725071Y-112656880D01*
X150867928Y-112609261D01*
X150963166Y-112514023D01*
X151010785Y-112418785D01*
X151058404Y-112228309D01*
X151058404Y-112085452D01*
X151010785Y-111894976D01*
X150963166Y-111799738D01*
X150867928Y-111704500D01*
X150725071Y-111656880D01*
X150629833Y-111656880D01*
X150486976Y-111704500D01*
X150439357Y-111752119D01*
X149486976Y-112656880D02*
X150058404Y-112656880D01*
X149772690Y-112656880D02*
X149772690Y-111656880D01*
X149867928Y-111799738D01*
X149963166Y-111894976D01*
X150058404Y-111942595D01*
X149106023Y-111752119D02*
X149058404Y-111704500D01*
X148963166Y-111656880D01*
X148725071Y-111656880D01*
X148629833Y-111704500D01*
X148582214Y-111752119D01*
X148534595Y-111847357D01*
X148534595Y-111942595D01*
X148582214Y-112085452D01*
X149153642Y-112656880D01*
X148534595Y-112656880D01*
G04 #@! TO.C,C1*
X156102666Y-105450242D02*
X156150285Y-105497861D01*
X156293142Y-105545480D01*
X156388380Y-105545480D01*
X156531238Y-105497861D01*
X156626476Y-105402623D01*
X156674095Y-105307385D01*
X156721714Y-105116909D01*
X156721714Y-104974052D01*
X156674095Y-104783576D01*
X156626476Y-104688338D01*
X156531238Y-104593100D01*
X156388380Y-104545480D01*
X156293142Y-104545480D01*
X156150285Y-104593100D01*
X156102666Y-104640719D01*
X155150285Y-105545480D02*
X155721714Y-105545480D01*
X155436000Y-105545480D02*
X155436000Y-104545480D01*
X155531238Y-104688338D01*
X155626476Y-104783576D01*
X155721714Y-104831195D01*
G04 #@! TO.C,C2*
X156102666Y-109050242D02*
X156150285Y-109097861D01*
X156293142Y-109145480D01*
X156388380Y-109145480D01*
X156531238Y-109097861D01*
X156626476Y-109002623D01*
X156674095Y-108907385D01*
X156721714Y-108716909D01*
X156721714Y-108574052D01*
X156674095Y-108383576D01*
X156626476Y-108288338D01*
X156531238Y-108193100D01*
X156388380Y-108145480D01*
X156293142Y-108145480D01*
X156150285Y-108193100D01*
X156102666Y-108240719D01*
X155721714Y-108240719D02*
X155674095Y-108193100D01*
X155578857Y-108145480D01*
X155340761Y-108145480D01*
X155245523Y-108193100D01*
X155197904Y-108240719D01*
X155150285Y-108335957D01*
X155150285Y-108431195D01*
X155197904Y-108574052D01*
X155769333Y-109145480D01*
X155150285Y-109145480D01*
G04 #@! TO.C,C4*
X156102666Y-107850242D02*
X156150285Y-107897861D01*
X156293142Y-107945480D01*
X156388380Y-107945480D01*
X156531238Y-107897861D01*
X156626476Y-107802623D01*
X156674095Y-107707385D01*
X156721714Y-107516909D01*
X156721714Y-107374052D01*
X156674095Y-107183576D01*
X156626476Y-107088338D01*
X156531238Y-106993100D01*
X156388380Y-106945480D01*
X156293142Y-106945480D01*
X156150285Y-106993100D01*
X156102666Y-107040719D01*
X155245523Y-107278814D02*
X155245523Y-107945480D01*
X155483619Y-106897861D02*
X155721714Y-107612147D01*
X155102666Y-107612147D01*
G04 #@! TO.C,C5*
X155002666Y-119964142D02*
X155050285Y-120011761D01*
X155193142Y-120059380D01*
X155288380Y-120059380D01*
X155431238Y-120011761D01*
X155526476Y-119916523D01*
X155574095Y-119821285D01*
X155621714Y-119630809D01*
X155621714Y-119487952D01*
X155574095Y-119297476D01*
X155526476Y-119202238D01*
X155431238Y-119107000D01*
X155288380Y-119059380D01*
X155193142Y-119059380D01*
X155050285Y-119107000D01*
X155002666Y-119154619D01*
X154097904Y-119059380D02*
X154574095Y-119059380D01*
X154621714Y-119535571D01*
X154574095Y-119487952D01*
X154478857Y-119440333D01*
X154240761Y-119440333D01*
X154145523Y-119487952D01*
X154097904Y-119535571D01*
X154050285Y-119630809D01*
X154050285Y-119868904D01*
X154097904Y-119964142D01*
X154145523Y-120011761D01*
X154240761Y-120059380D01*
X154478857Y-120059380D01*
X154574095Y-120011761D01*
X154621714Y-119964142D01*
G04 #@! TO.C,C6*
X148121642Y-119594333D02*
X148169261Y-119546714D01*
X148216880Y-119403857D01*
X148216880Y-119308619D01*
X148169261Y-119165761D01*
X148074023Y-119070523D01*
X147978785Y-119022904D01*
X147788309Y-118975285D01*
X147645452Y-118975285D01*
X147454976Y-119022904D01*
X147359738Y-119070523D01*
X147264500Y-119165761D01*
X147216880Y-119308619D01*
X147216880Y-119403857D01*
X147264500Y-119546714D01*
X147312119Y-119594333D01*
X147216880Y-120451476D02*
X147216880Y-120261000D01*
X147264500Y-120165761D01*
X147312119Y-120118142D01*
X147454976Y-120022904D01*
X147645452Y-119975285D01*
X148026404Y-119975285D01*
X148121642Y-120022904D01*
X148169261Y-120070523D01*
X148216880Y-120165761D01*
X148216880Y-120356238D01*
X148169261Y-120451476D01*
X148121642Y-120499095D01*
X148026404Y-120546714D01*
X147788309Y-120546714D01*
X147693071Y-120499095D01*
X147645452Y-120451476D01*
X147597833Y-120356238D01*
X147597833Y-120165761D01*
X147645452Y-120070523D01*
X147693071Y-120022904D01*
X147788309Y-119975285D01*
G04 #@! TO.C,C8*
X147613666Y-116689142D02*
X147661285Y-116736761D01*
X147804142Y-116784380D01*
X147899380Y-116784380D01*
X148042238Y-116736761D01*
X148137476Y-116641523D01*
X148185095Y-116546285D01*
X148232714Y-116355809D01*
X148232714Y-116212952D01*
X148185095Y-116022476D01*
X148137476Y-115927238D01*
X148042238Y-115832000D01*
X147899380Y-115784380D01*
X147804142Y-115784380D01*
X147661285Y-115832000D01*
X147613666Y-115879619D01*
X147042238Y-116212952D02*
X147137476Y-116165333D01*
X147185095Y-116117714D01*
X147232714Y-116022476D01*
X147232714Y-115974857D01*
X147185095Y-115879619D01*
X147137476Y-115832000D01*
X147042238Y-115784380D01*
X146851761Y-115784380D01*
X146756523Y-115832000D01*
X146708904Y-115879619D01*
X146661285Y-115974857D01*
X146661285Y-116022476D01*
X146708904Y-116117714D01*
X146756523Y-116165333D01*
X146851761Y-116212952D01*
X147042238Y-116212952D01*
X147137476Y-116260571D01*
X147185095Y-116308190D01*
X147232714Y-116403428D01*
X147232714Y-116593904D01*
X147185095Y-116689142D01*
X147137476Y-116736761D01*
X147042238Y-116784380D01*
X146851761Y-116784380D01*
X146756523Y-116736761D01*
X146708904Y-116689142D01*
X146661285Y-116593904D01*
X146661285Y-116403428D01*
X146708904Y-116308190D01*
X146756523Y-116260571D01*
X146851761Y-116212952D01*
G04 #@! TO.C,C9*
X153455642Y-116736833D02*
X153503261Y-116689214D01*
X153550880Y-116546357D01*
X153550880Y-116451119D01*
X153503261Y-116308261D01*
X153408023Y-116213023D01*
X153312785Y-116165404D01*
X153122309Y-116117785D01*
X152979452Y-116117785D01*
X152788976Y-116165404D01*
X152693738Y-116213023D01*
X152598500Y-116308261D01*
X152550880Y-116451119D01*
X152550880Y-116546357D01*
X152598500Y-116689214D01*
X152646119Y-116736833D01*
X153550880Y-117213023D02*
X153550880Y-117403500D01*
X153503261Y-117498738D01*
X153455642Y-117546357D01*
X153312785Y-117641595D01*
X153122309Y-117689214D01*
X152741357Y-117689214D01*
X152646119Y-117641595D01*
X152598500Y-117593976D01*
X152550880Y-117498738D01*
X152550880Y-117308261D01*
X152598500Y-117213023D01*
X152646119Y-117165404D01*
X152741357Y-117117785D01*
X152979452Y-117117785D01*
X153074690Y-117165404D01*
X153122309Y-117213023D01*
X153169928Y-117308261D01*
X153169928Y-117498738D01*
X153122309Y-117593976D01*
X153074690Y-117641595D01*
X152979452Y-117689214D01*
G04 #@! TO.C,C10*
X149486857Y-108942142D02*
X149534476Y-108989761D01*
X149677333Y-109037380D01*
X149772571Y-109037380D01*
X149915428Y-108989761D01*
X150010666Y-108894523D01*
X150058285Y-108799285D01*
X150105904Y-108608809D01*
X150105904Y-108465952D01*
X150058285Y-108275476D01*
X150010666Y-108180238D01*
X149915428Y-108085000D01*
X149772571Y-108037380D01*
X149677333Y-108037380D01*
X149534476Y-108085000D01*
X149486857Y-108132619D01*
X148534476Y-109037380D02*
X149105904Y-109037380D01*
X148820190Y-109037380D02*
X148820190Y-108037380D01*
X148915428Y-108180238D01*
X149010666Y-108275476D01*
X149105904Y-108323095D01*
X147915428Y-108037380D02*
X147820190Y-108037380D01*
X147724952Y-108085000D01*
X147677333Y-108132619D01*
X147629714Y-108227857D01*
X147582095Y-108418333D01*
X147582095Y-108656428D01*
X147629714Y-108846904D01*
X147677333Y-108942142D01*
X147724952Y-108989761D01*
X147820190Y-109037380D01*
X147915428Y-109037380D01*
X148010666Y-108989761D01*
X148058285Y-108942142D01*
X148105904Y-108846904D01*
X148153523Y-108656428D01*
X148153523Y-108418333D01*
X148105904Y-108227857D01*
X148058285Y-108132619D01*
X148010666Y-108085000D01*
X147915428Y-108037380D01*
G04 #@! TO.C,C11*
X149423357Y-110783642D02*
X149470976Y-110831261D01*
X149613833Y-110878880D01*
X149709071Y-110878880D01*
X149851928Y-110831261D01*
X149947166Y-110736023D01*
X149994785Y-110640785D01*
X150042404Y-110450309D01*
X150042404Y-110307452D01*
X149994785Y-110116976D01*
X149947166Y-110021738D01*
X149851928Y-109926500D01*
X149709071Y-109878880D01*
X149613833Y-109878880D01*
X149470976Y-109926500D01*
X149423357Y-109974119D01*
X148470976Y-110878880D02*
X149042404Y-110878880D01*
X148756690Y-110878880D02*
X148756690Y-109878880D01*
X148851928Y-110021738D01*
X148947166Y-110116976D01*
X149042404Y-110164595D01*
X147518595Y-110878880D02*
X148090023Y-110878880D01*
X147804309Y-110878880D02*
X147804309Y-109878880D01*
X147899547Y-110021738D01*
X147994785Y-110116976D01*
X148090023Y-110164595D01*
G04 #@! TO.C,C13*
X151995142Y-115879642D02*
X152042761Y-115832023D01*
X152090380Y-115689166D01*
X152090380Y-115593928D01*
X152042761Y-115451071D01*
X151947523Y-115355833D01*
X151852285Y-115308214D01*
X151661809Y-115260595D01*
X151518952Y-115260595D01*
X151328476Y-115308214D01*
X151233238Y-115355833D01*
X151138000Y-115451071D01*
X151090380Y-115593928D01*
X151090380Y-115689166D01*
X151138000Y-115832023D01*
X151185619Y-115879642D01*
X152090380Y-116832023D02*
X152090380Y-116260595D01*
X152090380Y-116546309D02*
X151090380Y-116546309D01*
X151233238Y-116451071D01*
X151328476Y-116355833D01*
X151376095Y-116260595D01*
X151090380Y-117165357D02*
X151090380Y-117784404D01*
X151471333Y-117451071D01*
X151471333Y-117593928D01*
X151518952Y-117689166D01*
X151566571Y-117736785D01*
X151661809Y-117784404D01*
X151899904Y-117784404D01*
X151995142Y-117736785D01*
X152042761Y-117689166D01*
X152090380Y-117593928D01*
X152090380Y-117308214D01*
X152042761Y-117212976D01*
X151995142Y-117165357D01*
G04 #@! TO.C,C14*
X151287857Y-122277142D02*
X151335476Y-122324761D01*
X151478333Y-122372380D01*
X151573571Y-122372380D01*
X151716428Y-122324761D01*
X151811666Y-122229523D01*
X151859285Y-122134285D01*
X151906904Y-121943809D01*
X151906904Y-121800952D01*
X151859285Y-121610476D01*
X151811666Y-121515238D01*
X151716428Y-121420000D01*
X151573571Y-121372380D01*
X151478333Y-121372380D01*
X151335476Y-121420000D01*
X151287857Y-121467619D01*
X150335476Y-122372380D02*
X150906904Y-122372380D01*
X150621190Y-122372380D02*
X150621190Y-121372380D01*
X150716428Y-121515238D01*
X150811666Y-121610476D01*
X150906904Y-121658095D01*
X149478333Y-121705714D02*
X149478333Y-122372380D01*
X149716428Y-121324761D02*
X149954523Y-122039047D01*
X149335476Y-122039047D01*
G04 #@! TO.C,R1*
X150121880Y-100353833D02*
X149645690Y-100020500D01*
X150121880Y-99782404D02*
X149121880Y-99782404D01*
X149121880Y-100163357D01*
X149169500Y-100258595D01*
X149217119Y-100306214D01*
X149312357Y-100353833D01*
X149455214Y-100353833D01*
X149550452Y-100306214D01*
X149598071Y-100258595D01*
X149645690Y-100163357D01*
X149645690Y-99782404D01*
X150121880Y-101306214D02*
X150121880Y-100734785D01*
X150121880Y-101020500D02*
X149121880Y-101020500D01*
X149264738Y-100925261D01*
X149359976Y-100830023D01*
X149407595Y-100734785D01*
G04 #@! TO.C,R2*
X151582380Y-100290333D02*
X151106190Y-99957000D01*
X151582380Y-99718904D02*
X150582380Y-99718904D01*
X150582380Y-100099857D01*
X150630000Y-100195095D01*
X150677619Y-100242714D01*
X150772857Y-100290333D01*
X150915714Y-100290333D01*
X151010952Y-100242714D01*
X151058571Y-100195095D01*
X151106190Y-100099857D01*
X151106190Y-99718904D01*
X150677619Y-100671285D02*
X150630000Y-100718904D01*
X150582380Y-100814142D01*
X150582380Y-101052238D01*
X150630000Y-101147476D01*
X150677619Y-101195095D01*
X150772857Y-101242714D01*
X150868095Y-101242714D01*
X151010952Y-101195095D01*
X151582380Y-100623666D01*
X151582380Y-101242714D01*
G04 #@! TO.C,R3*
X152979380Y-100353833D02*
X152503190Y-100020500D01*
X152979380Y-99782404D02*
X151979380Y-99782404D01*
X151979380Y-100163357D01*
X152027000Y-100258595D01*
X152074619Y-100306214D01*
X152169857Y-100353833D01*
X152312714Y-100353833D01*
X152407952Y-100306214D01*
X152455571Y-100258595D01*
X152503190Y-100163357D01*
X152503190Y-99782404D01*
X151979380Y-100687166D02*
X151979380Y-101306214D01*
X152360333Y-100972880D01*
X152360333Y-101115738D01*
X152407952Y-101210976D01*
X152455571Y-101258595D01*
X152550809Y-101306214D01*
X152788904Y-101306214D01*
X152884142Y-101258595D01*
X152931761Y-101210976D01*
X152979380Y-101115738D01*
X152979380Y-100830023D01*
X152931761Y-100734785D01*
X152884142Y-100687166D01*
G04 #@! TO.C,R4*
X150375880Y-116482833D02*
X149899690Y-116149500D01*
X150375880Y-115911404D02*
X149375880Y-115911404D01*
X149375880Y-116292357D01*
X149423500Y-116387595D01*
X149471119Y-116435214D01*
X149566357Y-116482833D01*
X149709214Y-116482833D01*
X149804452Y-116435214D01*
X149852071Y-116387595D01*
X149899690Y-116292357D01*
X149899690Y-115911404D01*
X149709214Y-117339976D02*
X150375880Y-117339976D01*
X149328261Y-117101880D02*
X150042547Y-116863785D01*
X150042547Y-117482833D01*
G04 #@! TO.C,R5*
X148375666Y-124404380D02*
X148709000Y-123928190D01*
X148947095Y-124404380D02*
X148947095Y-123404380D01*
X148566142Y-123404380D01*
X148470904Y-123452000D01*
X148423285Y-123499619D01*
X148375666Y-123594857D01*
X148375666Y-123737714D01*
X148423285Y-123832952D01*
X148470904Y-123880571D01*
X148566142Y-123928190D01*
X148947095Y-123928190D01*
X147470904Y-123404380D02*
X147947095Y-123404380D01*
X147994714Y-123880571D01*
X147947095Y-123832952D01*
X147851857Y-123785333D01*
X147613761Y-123785333D01*
X147518523Y-123832952D01*
X147470904Y-123880571D01*
X147423285Y-123975809D01*
X147423285Y-124213904D01*
X147470904Y-124309142D01*
X147518523Y-124356761D01*
X147613761Y-124404380D01*
X147851857Y-124404380D01*
X147947095Y-124356761D01*
X147994714Y-124309142D01*
G04 #@! TO.C,R6*
X153138166Y-124785380D02*
X153471500Y-124309190D01*
X153709595Y-124785380D02*
X153709595Y-123785380D01*
X153328642Y-123785380D01*
X153233404Y-123833000D01*
X153185785Y-123880619D01*
X153138166Y-123975857D01*
X153138166Y-124118714D01*
X153185785Y-124213952D01*
X153233404Y-124261571D01*
X153328642Y-124309190D01*
X153709595Y-124309190D01*
X152281023Y-123785380D02*
X152471500Y-123785380D01*
X152566738Y-123833000D01*
X152614357Y-123880619D01*
X152709595Y-124023476D01*
X152757214Y-124213952D01*
X152757214Y-124594904D01*
X152709595Y-124690142D01*
X152661976Y-124737761D01*
X152566738Y-124785380D01*
X152376261Y-124785380D01*
X152281023Y-124737761D01*
X152233404Y-124690142D01*
X152185785Y-124594904D01*
X152185785Y-124356809D01*
X152233404Y-124261571D01*
X152281023Y-124213952D01*
X152376261Y-124166333D01*
X152566738Y-124166333D01*
X152661976Y-124213952D01*
X152709595Y-124261571D01*
X152757214Y-124356809D01*
G04 #@! TO.C,R7*
X147237380Y-122076333D02*
X146761190Y-121743000D01*
X147237380Y-121504904D02*
X146237380Y-121504904D01*
X146237380Y-121885857D01*
X146285000Y-121981095D01*
X146332619Y-122028714D01*
X146427857Y-122076333D01*
X146570714Y-122076333D01*
X146665952Y-122028714D01*
X146713571Y-121981095D01*
X146761190Y-121885857D01*
X146761190Y-121504904D01*
X146237380Y-122409666D02*
X146237380Y-123076333D01*
X147237380Y-122647761D01*
G04 #@! TO.C,R10*
X153169857Y-123070880D02*
X153503190Y-122594690D01*
X153741285Y-123070880D02*
X153741285Y-122070880D01*
X153360333Y-122070880D01*
X153265095Y-122118500D01*
X153217476Y-122166119D01*
X153169857Y-122261357D01*
X153169857Y-122404214D01*
X153217476Y-122499452D01*
X153265095Y-122547071D01*
X153360333Y-122594690D01*
X153741285Y-122594690D01*
X152217476Y-123070880D02*
X152788904Y-123070880D01*
X152503190Y-123070880D02*
X152503190Y-122070880D01*
X152598428Y-122213738D01*
X152693666Y-122308976D01*
X152788904Y-122356595D01*
X151598428Y-122070880D02*
X151503190Y-122070880D01*
X151407952Y-122118500D01*
X151360333Y-122166119D01*
X151312714Y-122261357D01*
X151265095Y-122451833D01*
X151265095Y-122689928D01*
X151312714Y-122880404D01*
X151360333Y-122975642D01*
X151407952Y-123023261D01*
X151503190Y-123070880D01*
X151598428Y-123070880D01*
X151693666Y-123023261D01*
X151741285Y-122975642D01*
X151788904Y-122880404D01*
X151836523Y-122689928D01*
X151836523Y-122451833D01*
X151788904Y-122261357D01*
X151741285Y-122166119D01*
X151693666Y-122118500D01*
X151598428Y-122070880D01*
G04 #@! TD*
M02*
