G04 #@! TF.GenerationSoftware,KiCad,Pcbnew,5.0.1-33cea8e~66~ubuntu18.04.1*
G04 #@! TF.CreationDate,2018-10-18T22:19:59+02:00*
G04 #@! TF.ProjectId,Tiny-up5k,54696E792D7570356B2E6B696361645F,rev?*
G04 #@! TF.SameCoordinates,Original*
G04 #@! TF.FileFunction,Legend,Top*
G04 #@! TF.FilePolarity,Positive*
%FSLAX46Y46*%
G04 Gerber Fmt 4.6, Leading zero omitted, Abs format (unit mm)*
G04 Created by KiCad (PCBNEW 5.0.1-33cea8e~66~ubuntu18.04.1) date do 18 okt 2018 22:19:59 CEST*
%MOMM*%
%LPD*%
G01*
G04 APERTURE LIST*
%ADD10C,0.250000*%
%ADD11C,0.175000*%
%ADD12C,0.100000*%
%ADD13C,0.120000*%
%ADD14C,0.150000*%
G04 APERTURE END LIST*
D10*
X155603214Y-112577619D02*
X155650833Y-112530000D01*
X155746071Y-112482380D01*
X155984166Y-112482380D01*
X156079404Y-112530000D01*
X156127023Y-112577619D01*
X156174642Y-112672857D01*
X156174642Y-112768095D01*
X156127023Y-112910952D01*
X155555595Y-113482380D01*
X156174642Y-113482380D01*
X157127023Y-113482380D02*
X156555595Y-113482380D01*
X156841309Y-113482380D02*
X156841309Y-112482380D01*
X156746071Y-112625238D01*
X156650833Y-112720476D01*
X156555595Y-112768095D01*
D11*
X156116250Y-97080666D02*
X156349583Y-97780666D01*
X156582916Y-97080666D01*
X156816250Y-97780666D02*
X156816250Y-97314000D01*
X156816250Y-97080666D02*
X156782916Y-97114000D01*
X156816250Y-97147333D01*
X156849583Y-97114000D01*
X156816250Y-97080666D01*
X156816250Y-97147333D01*
X157149583Y-97314000D02*
X157149583Y-97780666D01*
X157149583Y-97380666D02*
X157182916Y-97347333D01*
X157249583Y-97314000D01*
X157349583Y-97314000D01*
X157416250Y-97347333D01*
X157449583Y-97414000D01*
X157449583Y-97780666D01*
X155266250Y-102486666D02*
X155699583Y-102486666D01*
X155466250Y-102753333D01*
X155566250Y-102753333D01*
X155632916Y-102786666D01*
X155666250Y-102820000D01*
X155699583Y-102886666D01*
X155699583Y-103053333D01*
X155666250Y-103120000D01*
X155632916Y-103153333D01*
X155566250Y-103186666D01*
X155366250Y-103186666D01*
X155299583Y-103153333D01*
X155266250Y-103120000D01*
X155999583Y-103120000D02*
X156032916Y-103153333D01*
X155999583Y-103186666D01*
X155966250Y-103153333D01*
X155999583Y-103120000D01*
X155999583Y-103186666D01*
X156266250Y-102486666D02*
X156699583Y-102486666D01*
X156466250Y-102753333D01*
X156566250Y-102753333D01*
X156632916Y-102786666D01*
X156666250Y-102820000D01*
X156699583Y-102886666D01*
X156699583Y-103053333D01*
X156666250Y-103120000D01*
X156632916Y-103153333D01*
X156566250Y-103186666D01*
X156366250Y-103186666D01*
X156299583Y-103153333D01*
X156266250Y-103120000D01*
X156932916Y-102720000D02*
X157099583Y-103186666D01*
X157266250Y-102720000D01*
D10*
X155603214Y-104703619D02*
X155650833Y-104656000D01*
X155746071Y-104608380D01*
X155984166Y-104608380D01*
X156079404Y-104656000D01*
X156127023Y-104703619D01*
X156174642Y-104798857D01*
X156174642Y-104894095D01*
X156127023Y-105036952D01*
X155555595Y-105608380D01*
X156174642Y-105608380D01*
X157031785Y-104941714D02*
X157031785Y-105608380D01*
X156793690Y-104560761D02*
X156555595Y-105275047D01*
X157174642Y-105275047D01*
X155603214Y-108259619D02*
X155650833Y-108212000D01*
X155746071Y-108164380D01*
X155984166Y-108164380D01*
X156079404Y-108212000D01*
X156127023Y-108259619D01*
X156174642Y-108354857D01*
X156174642Y-108450095D01*
X156127023Y-108592952D01*
X155555595Y-109164380D01*
X156174642Y-109164380D01*
X156507976Y-108164380D02*
X157127023Y-108164380D01*
X156793690Y-108545333D01*
X156936547Y-108545333D01*
X157031785Y-108592952D01*
X157079404Y-108640571D01*
X157127023Y-108735809D01*
X157127023Y-108973904D01*
X157079404Y-109069142D01*
X157031785Y-109116761D01*
X156936547Y-109164380D01*
X156650833Y-109164380D01*
X156555595Y-109116761D01*
X156507976Y-109069142D01*
X155603214Y-110545619D02*
X155650833Y-110498000D01*
X155746071Y-110450380D01*
X155984166Y-110450380D01*
X156079404Y-110498000D01*
X156127023Y-110545619D01*
X156174642Y-110640857D01*
X156174642Y-110736095D01*
X156127023Y-110878952D01*
X155555595Y-111450380D01*
X156174642Y-111450380D01*
X156555595Y-110545619D02*
X156603214Y-110498000D01*
X156698452Y-110450380D01*
X156936547Y-110450380D01*
X157031785Y-110498000D01*
X157079404Y-110545619D01*
X157127023Y-110640857D01*
X157127023Y-110736095D01*
X157079404Y-110878952D01*
X156507976Y-111450380D01*
X157127023Y-111450380D01*
X155603214Y-115117619D02*
X155650833Y-115070000D01*
X155746071Y-115022380D01*
X155984166Y-115022380D01*
X156079404Y-115070000D01*
X156127023Y-115117619D01*
X156174642Y-115212857D01*
X156174642Y-115308095D01*
X156127023Y-115450952D01*
X155555595Y-116022380D01*
X156174642Y-116022380D01*
X156793690Y-115022380D02*
X156888928Y-115022380D01*
X156984166Y-115070000D01*
X157031785Y-115117619D01*
X157079404Y-115212857D01*
X157127023Y-115403333D01*
X157127023Y-115641428D01*
X157079404Y-115831904D01*
X157031785Y-115927142D01*
X156984166Y-115974761D01*
X156888928Y-116022380D01*
X156793690Y-116022380D01*
X156698452Y-115974761D01*
X156650833Y-115927142D01*
X156603214Y-115831904D01*
X156555595Y-115641428D01*
X156555595Y-115403333D01*
X156603214Y-115212857D01*
X156650833Y-115117619D01*
X156698452Y-115070000D01*
X156793690Y-115022380D01*
X156174642Y-118562380D02*
X155603214Y-118562380D01*
X155888928Y-118562380D02*
X155888928Y-117562380D01*
X155793690Y-117705238D01*
X155698452Y-117800476D01*
X155603214Y-117848095D01*
X156650833Y-118562380D02*
X156841309Y-118562380D01*
X156936547Y-118514761D01*
X156984166Y-118467142D01*
X157079404Y-118324285D01*
X157127023Y-118133809D01*
X157127023Y-117752857D01*
X157079404Y-117657619D01*
X157031785Y-117610000D01*
X156936547Y-117562380D01*
X156746071Y-117562380D01*
X156650833Y-117610000D01*
X156603214Y-117657619D01*
X156555595Y-117752857D01*
X156555595Y-117990952D01*
X156603214Y-118086190D01*
X156650833Y-118133809D01*
X156746071Y-118181428D01*
X156936547Y-118181428D01*
X157031785Y-118133809D01*
X157079404Y-118086190D01*
X157127023Y-117990952D01*
X156174642Y-121102380D02*
X155603214Y-121102380D01*
X155888928Y-121102380D02*
X155888928Y-120102380D01*
X155793690Y-120245238D01*
X155698452Y-120340476D01*
X155603214Y-120388095D01*
X156746071Y-120530952D02*
X156650833Y-120483333D01*
X156603214Y-120435714D01*
X156555595Y-120340476D01*
X156555595Y-120292857D01*
X156603214Y-120197619D01*
X156650833Y-120150000D01*
X156746071Y-120102380D01*
X156936547Y-120102380D01*
X157031785Y-120150000D01*
X157079404Y-120197619D01*
X157127023Y-120292857D01*
X157127023Y-120340476D01*
X157079404Y-120435714D01*
X157031785Y-120483333D01*
X156936547Y-120530952D01*
X156746071Y-120530952D01*
X156650833Y-120578571D01*
X156603214Y-120626190D01*
X156555595Y-120721428D01*
X156555595Y-120911904D01*
X156603214Y-121007142D01*
X156650833Y-121054761D01*
X156746071Y-121102380D01*
X156936547Y-121102380D01*
X157031785Y-121054761D01*
X157079404Y-121007142D01*
X157127023Y-120911904D01*
X157127023Y-120721428D01*
X157079404Y-120626190D01*
X157031785Y-120578571D01*
X156936547Y-120530952D01*
X156174642Y-123642380D02*
X155603214Y-123642380D01*
X155888928Y-123642380D02*
X155888928Y-122642380D01*
X155793690Y-122785238D01*
X155698452Y-122880476D01*
X155603214Y-122928095D01*
X156507976Y-122642380D02*
X157174642Y-122642380D01*
X156746071Y-123642380D01*
X156174642Y-126182380D02*
X155603214Y-126182380D01*
X155888928Y-126182380D02*
X155888928Y-125182380D01*
X155793690Y-125325238D01*
X155698452Y-125420476D01*
X155603214Y-125468095D01*
X157031785Y-125182380D02*
X156841309Y-125182380D01*
X156746071Y-125230000D01*
X156698452Y-125277619D01*
X156603214Y-125420476D01*
X156555595Y-125610952D01*
X156555595Y-125991904D01*
X156603214Y-126087142D01*
X156650833Y-126134761D01*
X156746071Y-126182380D01*
X156936547Y-126182380D01*
X157031785Y-126134761D01*
X157079404Y-126087142D01*
X157127023Y-125991904D01*
X157127023Y-125753809D01*
X157079404Y-125658571D01*
X157031785Y-125610952D01*
X156936547Y-125563333D01*
X156746071Y-125563333D01*
X156650833Y-125610952D01*
X156603214Y-125658571D01*
X156555595Y-125753809D01*
X156174642Y-128722380D02*
X155603214Y-128722380D01*
X155888928Y-128722380D02*
X155888928Y-127722380D01*
X155793690Y-127865238D01*
X155698452Y-127960476D01*
X155603214Y-128008095D01*
X157079404Y-127722380D02*
X156603214Y-127722380D01*
X156555595Y-128198571D01*
X156603214Y-128150952D01*
X156698452Y-128103333D01*
X156936547Y-128103333D01*
X157031785Y-128150952D01*
X157079404Y-128198571D01*
X157127023Y-128293809D01*
X157127023Y-128531904D01*
X157079404Y-128627142D01*
X157031785Y-128674761D01*
X156936547Y-128722380D01*
X156698452Y-128722380D01*
X156603214Y-128674761D01*
X156555595Y-128627142D01*
X156174642Y-131262380D02*
X155603214Y-131262380D01*
X155888928Y-131262380D02*
X155888928Y-130262380D01*
X155793690Y-130405238D01*
X155698452Y-130500476D01*
X155603214Y-130548095D01*
X157031785Y-130595714D02*
X157031785Y-131262380D01*
X156793690Y-130214761D02*
X156555595Y-130929047D01*
X157174642Y-130929047D01*
X145704404Y-131262380D02*
X145132976Y-131262380D01*
X145418690Y-131262380D02*
X145418690Y-130262380D01*
X145323452Y-130405238D01*
X145228214Y-130500476D01*
X145132976Y-130548095D01*
X146037738Y-130262380D02*
X146656785Y-130262380D01*
X146323452Y-130643333D01*
X146466309Y-130643333D01*
X146561547Y-130690952D01*
X146609166Y-130738571D01*
X146656785Y-130833809D01*
X146656785Y-131071904D01*
X146609166Y-131167142D01*
X146561547Y-131214761D01*
X146466309Y-131262380D01*
X146180595Y-131262380D01*
X146085357Y-131214761D01*
X146037738Y-131167142D01*
X145704404Y-128722380D02*
X145132976Y-128722380D01*
X145418690Y-128722380D02*
X145418690Y-127722380D01*
X145323452Y-127865238D01*
X145228214Y-127960476D01*
X145132976Y-128008095D01*
X146085357Y-127817619D02*
X146132976Y-127770000D01*
X146228214Y-127722380D01*
X146466309Y-127722380D01*
X146561547Y-127770000D01*
X146609166Y-127817619D01*
X146656785Y-127912857D01*
X146656785Y-128008095D01*
X146609166Y-128150952D01*
X146037738Y-128722380D01*
X146656785Y-128722380D01*
X145704404Y-126182380D02*
X145132976Y-126182380D01*
X145418690Y-126182380D02*
X145418690Y-125182380D01*
X145323452Y-125325238D01*
X145228214Y-125420476D01*
X145132976Y-125468095D01*
X146656785Y-126182380D02*
X146085357Y-126182380D01*
X146371071Y-126182380D02*
X146371071Y-125182380D01*
X146275833Y-125325238D01*
X146180595Y-125420476D01*
X146085357Y-125468095D01*
X145704404Y-123642380D02*
X145132976Y-123642380D01*
X145418690Y-123642380D02*
X145418690Y-122642380D01*
X145323452Y-122785238D01*
X145228214Y-122880476D01*
X145132976Y-122928095D01*
X146323452Y-122642380D02*
X146418690Y-122642380D01*
X146513928Y-122690000D01*
X146561547Y-122737619D01*
X146609166Y-122832857D01*
X146656785Y-123023333D01*
X146656785Y-123261428D01*
X146609166Y-123451904D01*
X146561547Y-123547142D01*
X146513928Y-123594761D01*
X146418690Y-123642380D01*
X146323452Y-123642380D01*
X146228214Y-123594761D01*
X146180595Y-123547142D01*
X146132976Y-123451904D01*
X146085357Y-123261428D01*
X146085357Y-123023333D01*
X146132976Y-122832857D01*
X146180595Y-122737619D01*
X146228214Y-122690000D01*
X146323452Y-122642380D01*
X145228214Y-121102380D02*
X145418690Y-121102380D01*
X145513928Y-121054761D01*
X145561547Y-121007142D01*
X145656785Y-120864285D01*
X145704404Y-120673809D01*
X145704404Y-120292857D01*
X145656785Y-120197619D01*
X145609166Y-120150000D01*
X145513928Y-120102380D01*
X145323452Y-120102380D01*
X145228214Y-120150000D01*
X145180595Y-120197619D01*
X145132976Y-120292857D01*
X145132976Y-120530952D01*
X145180595Y-120626190D01*
X145228214Y-120673809D01*
X145323452Y-120721428D01*
X145513928Y-120721428D01*
X145609166Y-120673809D01*
X145656785Y-120626190D01*
X145704404Y-120530952D01*
X145323452Y-117990952D02*
X145228214Y-117943333D01*
X145180595Y-117895714D01*
X145132976Y-117800476D01*
X145132976Y-117752857D01*
X145180595Y-117657619D01*
X145228214Y-117610000D01*
X145323452Y-117562380D01*
X145513928Y-117562380D01*
X145609166Y-117610000D01*
X145656785Y-117657619D01*
X145704404Y-117752857D01*
X145704404Y-117800476D01*
X145656785Y-117895714D01*
X145609166Y-117943333D01*
X145513928Y-117990952D01*
X145323452Y-117990952D01*
X145228214Y-118038571D01*
X145180595Y-118086190D01*
X145132976Y-118181428D01*
X145132976Y-118371904D01*
X145180595Y-118467142D01*
X145228214Y-118514761D01*
X145323452Y-118562380D01*
X145513928Y-118562380D01*
X145609166Y-118514761D01*
X145656785Y-118467142D01*
X145704404Y-118371904D01*
X145704404Y-118181428D01*
X145656785Y-118086190D01*
X145609166Y-118038571D01*
X145513928Y-117990952D01*
X145085357Y-115022380D02*
X145752023Y-115022380D01*
X145323452Y-116022380D01*
X145609166Y-112482380D02*
X145418690Y-112482380D01*
X145323452Y-112530000D01*
X145275833Y-112577619D01*
X145180595Y-112720476D01*
X145132976Y-112910952D01*
X145132976Y-113291904D01*
X145180595Y-113387142D01*
X145228214Y-113434761D01*
X145323452Y-113482380D01*
X145513928Y-113482380D01*
X145609166Y-113434761D01*
X145656785Y-113387142D01*
X145704404Y-113291904D01*
X145704404Y-113053809D01*
X145656785Y-112958571D01*
X145609166Y-112910952D01*
X145513928Y-112863333D01*
X145323452Y-112863333D01*
X145228214Y-112910952D01*
X145180595Y-112958571D01*
X145132976Y-113053809D01*
X145656785Y-109942380D02*
X145180595Y-109942380D01*
X145132976Y-110418571D01*
X145180595Y-110370952D01*
X145275833Y-110323333D01*
X145513928Y-110323333D01*
X145609166Y-110370952D01*
X145656785Y-110418571D01*
X145704404Y-110513809D01*
X145704404Y-110751904D01*
X145656785Y-110847142D01*
X145609166Y-110894761D01*
X145513928Y-110942380D01*
X145275833Y-110942380D01*
X145180595Y-110894761D01*
X145132976Y-110847142D01*
X145609166Y-107735714D02*
X145609166Y-108402380D01*
X145371071Y-107354761D02*
X145132976Y-108069047D01*
X145752023Y-108069047D01*
X145085357Y-104862380D02*
X145704404Y-104862380D01*
X145371071Y-105243333D01*
X145513928Y-105243333D01*
X145609166Y-105290952D01*
X145656785Y-105338571D01*
X145704404Y-105433809D01*
X145704404Y-105671904D01*
X145656785Y-105767142D01*
X145609166Y-105814761D01*
X145513928Y-105862380D01*
X145228214Y-105862380D01*
X145132976Y-105814761D01*
X145085357Y-105767142D01*
X145132976Y-102417619D02*
X145180595Y-102370000D01*
X145275833Y-102322380D01*
X145513928Y-102322380D01*
X145609166Y-102370000D01*
X145656785Y-102417619D01*
X145704404Y-102512857D01*
X145704404Y-102608095D01*
X145656785Y-102750952D01*
X145085357Y-103322380D01*
X145704404Y-103322380D01*
X145704404Y-100782380D02*
X145132976Y-100782380D01*
X145418690Y-100782380D02*
X145418690Y-99782380D01*
X145323452Y-99925238D01*
X145228214Y-100020476D01*
X145132976Y-100068095D01*
X145704404Y-97290000D02*
X145609166Y-97242380D01*
X145466309Y-97242380D01*
X145323452Y-97290000D01*
X145228214Y-97385238D01*
X145180595Y-97480476D01*
X145132976Y-97670952D01*
X145132976Y-97813809D01*
X145180595Y-98004285D01*
X145228214Y-98099523D01*
X145323452Y-98194761D01*
X145466309Y-98242380D01*
X145561547Y-98242380D01*
X145704404Y-98194761D01*
X145752023Y-98147142D01*
X145752023Y-97813809D01*
X145561547Y-97813809D01*
D12*
G04 #@! TO.C,D1*
X149021000Y-106837000D02*
G75*
G03X149021000Y-106837000I-50000J0D01*
G01*
G04 #@! TO.C,D2*
X153085000Y-106860000D02*
G75*
G03X153085000Y-106860000I-50000J0D01*
G01*
D13*
G04 #@! TO.C,U2*
X154210000Y-106512000D02*
X156660000Y-106512000D01*
X156010000Y-103292000D02*
X154210000Y-103292000D01*
G04 #@! TO.C,U4*
X146758000Y-106573000D02*
X148558000Y-106573000D01*
X148558000Y-103353000D02*
X146108000Y-103353000D01*
G04 #@! TO.C,SW1*
X149480000Y-130823100D02*
X149480000Y-131123100D01*
X149480000Y-131123100D02*
X152780000Y-131123100D01*
X152780000Y-131123100D02*
X152780000Y-130823100D01*
X149480000Y-128623100D02*
X149480000Y-128323100D01*
X149480000Y-128323100D02*
X152780000Y-128323100D01*
X152780000Y-128323100D02*
X152780000Y-128623100D01*
D14*
G04 #@! TO.C,U5*
X152205000Y-123335000D02*
X150055000Y-123335000D01*
X153030000Y-125585000D02*
X150055000Y-125585000D01*
D13*
G04 #@! TO.C,U6*
X154959000Y-100844000D02*
X154299000Y-100844000D01*
X154959000Y-99114000D02*
X154959000Y-100844000D01*
X147339000Y-96544000D02*
X147339000Y-96754000D01*
X154959000Y-96544000D02*
X154959000Y-96754000D01*
X147339000Y-99114000D02*
X147339000Y-100844000D01*
X147339000Y-100844000D02*
X147989000Y-100844000D01*
X152909000Y-101544000D02*
X152459000Y-101544000D01*
X152909000Y-101544000D02*
X152909000Y-101154000D01*
G04 #@! TO.C,U1*
X154740000Y-117054000D02*
X154740000Y-117529000D01*
X154740000Y-117529000D02*
X154265000Y-117529000D01*
X147520000Y-110784000D02*
X147520000Y-110309000D01*
X147520000Y-110309000D02*
X147995000Y-110309000D01*
X147520000Y-117054000D02*
X147520000Y-117529000D01*
X147520000Y-117529000D02*
X147995000Y-117529000D01*
X154740000Y-110784000D02*
X154740000Y-110309000D01*
G04 #@! TO.C,C17*
X156047221Y-100010500D02*
X156372779Y-100010500D01*
X156047221Y-101030500D02*
X156372779Y-101030500D01*
G04 #@! TO.C,C3*
D14*
X150328333Y-110747142D02*
X150280714Y-110794761D01*
X150137857Y-110842380D01*
X150042619Y-110842380D01*
X149899761Y-110794761D01*
X149804523Y-110699523D01*
X149756904Y-110604285D01*
X149709285Y-110413809D01*
X149709285Y-110270952D01*
X149756904Y-110080476D01*
X149804523Y-109985238D01*
X149899761Y-109890000D01*
X150042619Y-109842380D01*
X150137857Y-109842380D01*
X150280714Y-109890000D01*
X150328333Y-109937619D01*
X150661666Y-109842380D02*
X151280714Y-109842380D01*
X150947380Y-110223333D01*
X151090238Y-110223333D01*
X151185476Y-110270952D01*
X151233095Y-110318571D01*
X151280714Y-110413809D01*
X151280714Y-110651904D01*
X151233095Y-110747142D01*
X151185476Y-110794761D01*
X151090238Y-110842380D01*
X150804523Y-110842380D01*
X150709285Y-110794761D01*
X150661666Y-110747142D01*
G04 #@! TO.C,D1*
X148343880Y-107926095D02*
X147343880Y-107926095D01*
X147343880Y-107688000D01*
X147391500Y-107545142D01*
X147486738Y-107449904D01*
X147581976Y-107402285D01*
X147772452Y-107354666D01*
X147915309Y-107354666D01*
X148105785Y-107402285D01*
X148201023Y-107449904D01*
X148296261Y-107545142D01*
X148343880Y-107688000D01*
X148343880Y-107926095D01*
X148343880Y-106402285D02*
X148343880Y-106973714D01*
X148343880Y-106688000D02*
X147343880Y-106688000D01*
X147486738Y-106783238D01*
X147581976Y-106878476D01*
X147629595Y-106973714D01*
G04 #@! TO.C,D2*
X154820880Y-109640595D02*
X153820880Y-109640595D01*
X153820880Y-109402500D01*
X153868500Y-109259642D01*
X153963738Y-109164404D01*
X154058976Y-109116785D01*
X154249452Y-109069166D01*
X154392309Y-109069166D01*
X154582785Y-109116785D01*
X154678023Y-109164404D01*
X154773261Y-109259642D01*
X154820880Y-109402500D01*
X154820880Y-109640595D01*
X153916119Y-108688214D02*
X153868500Y-108640595D01*
X153820880Y-108545357D01*
X153820880Y-108307261D01*
X153868500Y-108212023D01*
X153916119Y-108164404D01*
X154011357Y-108116785D01*
X154106595Y-108116785D01*
X154249452Y-108164404D01*
X154820880Y-108735833D01*
X154820880Y-108116785D01*
G04 #@! TO.C,U2*
X151701595Y-103973380D02*
X151701595Y-104782904D01*
X151749214Y-104878142D01*
X151796833Y-104925761D01*
X151892071Y-104973380D01*
X152082547Y-104973380D01*
X152177785Y-104925761D01*
X152225404Y-104878142D01*
X152273023Y-104782904D01*
X152273023Y-103973380D01*
X152701595Y-104068619D02*
X152749214Y-104021000D01*
X152844452Y-103973380D01*
X153082547Y-103973380D01*
X153177785Y-104021000D01*
X153225404Y-104068619D01*
X153273023Y-104163857D01*
X153273023Y-104259095D01*
X153225404Y-104401952D01*
X152653976Y-104973380D01*
X153273023Y-104973380D01*
G04 #@! TO.C,U4*
X146896095Y-101515380D02*
X146896095Y-102324904D01*
X146943714Y-102420142D01*
X146991333Y-102467761D01*
X147086571Y-102515380D01*
X147277047Y-102515380D01*
X147372285Y-102467761D01*
X147419904Y-102420142D01*
X147467523Y-102324904D01*
X147467523Y-101515380D01*
X148372285Y-101848714D02*
X148372285Y-102515380D01*
X148134190Y-101467761D02*
X147896095Y-102182047D01*
X148515142Y-102182047D01*
G04 #@! TO.C,SW1*
X149790666Y-127658761D02*
X149933523Y-127706380D01*
X150171619Y-127706380D01*
X150266857Y-127658761D01*
X150314476Y-127611142D01*
X150362095Y-127515904D01*
X150362095Y-127420666D01*
X150314476Y-127325428D01*
X150266857Y-127277809D01*
X150171619Y-127230190D01*
X149981142Y-127182571D01*
X149885904Y-127134952D01*
X149838285Y-127087333D01*
X149790666Y-126992095D01*
X149790666Y-126896857D01*
X149838285Y-126801619D01*
X149885904Y-126754000D01*
X149981142Y-126706380D01*
X150219238Y-126706380D01*
X150362095Y-126754000D01*
X150695428Y-126706380D02*
X150933523Y-127706380D01*
X151124000Y-126992095D01*
X151314476Y-127706380D01*
X151552571Y-126706380D01*
X152457333Y-127706380D02*
X151885904Y-127706380D01*
X152171619Y-127706380D02*
X152171619Y-126706380D01*
X152076380Y-126849238D01*
X151981142Y-126944476D01*
X151885904Y-126992095D01*
G04 #@! TO.C,U5*
X153733595Y-123848880D02*
X153733595Y-124658404D01*
X153781214Y-124753642D01*
X153828833Y-124801261D01*
X153924071Y-124848880D01*
X154114547Y-124848880D01*
X154209785Y-124801261D01*
X154257404Y-124753642D01*
X154305023Y-124658404D01*
X154305023Y-123848880D01*
X155257404Y-123848880D02*
X154781214Y-123848880D01*
X154733595Y-124325071D01*
X154781214Y-124277452D01*
X154876452Y-124229833D01*
X155114547Y-124229833D01*
X155209785Y-124277452D01*
X155257404Y-124325071D01*
X155305023Y-124420309D01*
X155305023Y-124658404D01*
X155257404Y-124753642D01*
X155209785Y-124801261D01*
X155114547Y-124848880D01*
X154876452Y-124848880D01*
X154781214Y-124801261D01*
X154733595Y-124753642D01*
G04 #@! TO.C,U3*
X150368095Y-118076380D02*
X150368095Y-118885904D01*
X150415714Y-118981142D01*
X150463333Y-119028761D01*
X150558571Y-119076380D01*
X150749047Y-119076380D01*
X150844285Y-119028761D01*
X150891904Y-118981142D01*
X150939523Y-118885904D01*
X150939523Y-118076380D01*
X151320476Y-118076380D02*
X151939523Y-118076380D01*
X151606190Y-118457333D01*
X151749047Y-118457333D01*
X151844285Y-118504952D01*
X151891904Y-118552571D01*
X151939523Y-118647809D01*
X151939523Y-118885904D01*
X151891904Y-118981142D01*
X151844285Y-119028761D01*
X151749047Y-119076380D01*
X151463333Y-119076380D01*
X151368095Y-119028761D01*
X151320476Y-118981142D01*
G04 #@! TO.C,U6*
X150387095Y-101886380D02*
X150387095Y-102695904D01*
X150434714Y-102791142D01*
X150482333Y-102838761D01*
X150577571Y-102886380D01*
X150768047Y-102886380D01*
X150863285Y-102838761D01*
X150910904Y-102791142D01*
X150958523Y-102695904D01*
X150958523Y-101886380D01*
X151863285Y-101886380D02*
X151672809Y-101886380D01*
X151577571Y-101934000D01*
X151529952Y-101981619D01*
X151434714Y-102124476D01*
X151387095Y-102314952D01*
X151387095Y-102695904D01*
X151434714Y-102791142D01*
X151482333Y-102838761D01*
X151577571Y-102886380D01*
X151768047Y-102886380D01*
X151863285Y-102838761D01*
X151910904Y-102791142D01*
X151958523Y-102695904D01*
X151958523Y-102457809D01*
X151910904Y-102362571D01*
X151863285Y-102314952D01*
X151768047Y-102267333D01*
X151577571Y-102267333D01*
X151482333Y-102314952D01*
X151434714Y-102362571D01*
X151387095Y-102457809D01*
G04 #@! TO.C,U1*
X155402380Y-114680904D02*
X156211904Y-114680904D01*
X156307142Y-114633285D01*
X156354761Y-114585666D01*
X156402380Y-114490428D01*
X156402380Y-114299952D01*
X156354761Y-114204714D01*
X156307142Y-114157095D01*
X156211904Y-114109476D01*
X155402380Y-114109476D01*
X156402380Y-113109476D02*
X156402380Y-113680904D01*
X156402380Y-113395190D02*
X155402380Y-113395190D01*
X155545238Y-113490428D01*
X155640476Y-113585666D01*
X155688095Y-113680904D01*
G04 #@! TO.C,R8*
X150693380Y-106148166D02*
X150217190Y-106481500D01*
X150693380Y-106719595D02*
X149693380Y-106719595D01*
X149693380Y-106338642D01*
X149741000Y-106243404D01*
X149788619Y-106195785D01*
X149883857Y-106148166D01*
X150026714Y-106148166D01*
X150121952Y-106195785D01*
X150169571Y-106243404D01*
X150217190Y-106338642D01*
X150217190Y-106719595D01*
X150121952Y-105576738D02*
X150074333Y-105671976D01*
X150026714Y-105719595D01*
X149931476Y-105767214D01*
X149883857Y-105767214D01*
X149788619Y-105719595D01*
X149741000Y-105671976D01*
X149693380Y-105576738D01*
X149693380Y-105386261D01*
X149741000Y-105291023D01*
X149788619Y-105243404D01*
X149883857Y-105195785D01*
X149931476Y-105195785D01*
X150026714Y-105243404D01*
X150074333Y-105291023D01*
X150121952Y-105386261D01*
X150121952Y-105576738D01*
X150169571Y-105671976D01*
X150217190Y-105719595D01*
X150312428Y-105767214D01*
X150502904Y-105767214D01*
X150598142Y-105719595D01*
X150645761Y-105671976D01*
X150693380Y-105576738D01*
X150693380Y-105386261D01*
X150645761Y-105291023D01*
X150598142Y-105243404D01*
X150502904Y-105195785D01*
X150312428Y-105195785D01*
X150217190Y-105243404D01*
X150169571Y-105291023D01*
X150121952Y-105386261D01*
G04 #@! TO.C,R9*
X152534880Y-106211666D02*
X152058690Y-106545000D01*
X152534880Y-106783095D02*
X151534880Y-106783095D01*
X151534880Y-106402142D01*
X151582500Y-106306904D01*
X151630119Y-106259285D01*
X151725357Y-106211666D01*
X151868214Y-106211666D01*
X151963452Y-106259285D01*
X152011071Y-106306904D01*
X152058690Y-106402142D01*
X152058690Y-106783095D01*
X152534880Y-105735476D02*
X152534880Y-105545000D01*
X152487261Y-105449761D01*
X152439642Y-105402142D01*
X152296785Y-105306904D01*
X152106309Y-105259285D01*
X151725357Y-105259285D01*
X151630119Y-105306904D01*
X151582500Y-105354523D01*
X151534880Y-105449761D01*
X151534880Y-105640238D01*
X151582500Y-105735476D01*
X151630119Y-105783095D01*
X151725357Y-105830714D01*
X151963452Y-105830714D01*
X152058690Y-105783095D01*
X152106309Y-105735476D01*
X152153928Y-105640238D01*
X152153928Y-105449761D01*
X152106309Y-105354523D01*
X152058690Y-105306904D01*
X151963452Y-105259285D01*
G04 #@! TO.C,C17*
X155630642Y-102020642D02*
X155583023Y-102068261D01*
X155440166Y-102115880D01*
X155344928Y-102115880D01*
X155202071Y-102068261D01*
X155106833Y-101973023D01*
X155059214Y-101877785D01*
X155011595Y-101687309D01*
X155011595Y-101544452D01*
X155059214Y-101353976D01*
X155106833Y-101258738D01*
X155202071Y-101163500D01*
X155344928Y-101115880D01*
X155440166Y-101115880D01*
X155583023Y-101163500D01*
X155630642Y-101211119D01*
X156583023Y-102115880D02*
X156011595Y-102115880D01*
X156297309Y-102115880D02*
X156297309Y-101115880D01*
X156202071Y-101258738D01*
X156106833Y-101353976D01*
X156011595Y-101401595D01*
X156916357Y-101115880D02*
X157583023Y-101115880D01*
X157154452Y-102115880D01*
G04 #@! TD*
M02*
