G04 #@! TF.GenerationSoftware,KiCad,Pcbnew,5.0.1-33cea8e~66~ubuntu18.04.1*
G04 #@! TF.CreationDate,2018-10-16T23:10:54+02:00*
G04 #@! TF.ProjectId,TinyFPGA-BX,54696E79465047412D42582E6B696361,rev?*
G04 #@! TF.SameCoordinates,Original*
G04 #@! TF.FileFunction,Paste,Bot*
G04 #@! TF.FilePolarity,Positive*
%FSLAX46Y46*%
G04 Gerber Fmt 4.6, Leading zero omitted, Abs format (unit mm)*
G04 Created by KiCad (PCBNEW 5.0.1-33cea8e~66~ubuntu18.04.1) date di 16 okt 2018 23:10:54 CEST*
%MOMM*%
%LPD*%
G01*
G04 APERTURE LIST*
%ADD10C,0.100000*%
%ADD11C,0.590000*%
%ADD12R,3.150000X1.000000*%
%ADD13R,0.400000X0.600000*%
%ADD14R,0.600000X0.400000*%
%ADD15R,0.380000X0.600000*%
G04 APERTURE END LIST*
D10*
G04 #@! TO.C,C12*
G36*
X147989958Y-111948710D02*
X148004276Y-111950834D01*
X148018317Y-111954351D01*
X148031946Y-111959228D01*
X148045031Y-111965417D01*
X148057447Y-111972858D01*
X148069073Y-111981481D01*
X148079798Y-111991202D01*
X148089519Y-112001927D01*
X148098142Y-112013553D01*
X148105583Y-112025969D01*
X148111772Y-112039054D01*
X148116649Y-112052683D01*
X148120166Y-112066724D01*
X148122290Y-112081042D01*
X148123000Y-112095500D01*
X148123000Y-112440500D01*
X148122290Y-112454958D01*
X148120166Y-112469276D01*
X148116649Y-112483317D01*
X148111772Y-112496946D01*
X148105583Y-112510031D01*
X148098142Y-112522447D01*
X148089519Y-112534073D01*
X148079798Y-112544798D01*
X148069073Y-112554519D01*
X148057447Y-112563142D01*
X148045031Y-112570583D01*
X148031946Y-112576772D01*
X148018317Y-112581649D01*
X148004276Y-112585166D01*
X147989958Y-112587290D01*
X147975500Y-112588000D01*
X147680500Y-112588000D01*
X147666042Y-112587290D01*
X147651724Y-112585166D01*
X147637683Y-112581649D01*
X147624054Y-112576772D01*
X147610969Y-112570583D01*
X147598553Y-112563142D01*
X147586927Y-112554519D01*
X147576202Y-112544798D01*
X147566481Y-112534073D01*
X147557858Y-112522447D01*
X147550417Y-112510031D01*
X147544228Y-112496946D01*
X147539351Y-112483317D01*
X147535834Y-112469276D01*
X147533710Y-112454958D01*
X147533000Y-112440500D01*
X147533000Y-112095500D01*
X147533710Y-112081042D01*
X147535834Y-112066724D01*
X147539351Y-112052683D01*
X147544228Y-112039054D01*
X147550417Y-112025969D01*
X147557858Y-112013553D01*
X147566481Y-112001927D01*
X147576202Y-111991202D01*
X147586927Y-111981481D01*
X147598553Y-111972858D01*
X147610969Y-111965417D01*
X147624054Y-111959228D01*
X147637683Y-111954351D01*
X147651724Y-111950834D01*
X147666042Y-111948710D01*
X147680500Y-111948000D01*
X147975500Y-111948000D01*
X147989958Y-111948710D01*
X147989958Y-111948710D01*
G37*
D11*
X147828000Y-112268000D03*
D10*
G36*
X147019958Y-111948710D02*
X147034276Y-111950834D01*
X147048317Y-111954351D01*
X147061946Y-111959228D01*
X147075031Y-111965417D01*
X147087447Y-111972858D01*
X147099073Y-111981481D01*
X147109798Y-111991202D01*
X147119519Y-112001927D01*
X147128142Y-112013553D01*
X147135583Y-112025969D01*
X147141772Y-112039054D01*
X147146649Y-112052683D01*
X147150166Y-112066724D01*
X147152290Y-112081042D01*
X147153000Y-112095500D01*
X147153000Y-112440500D01*
X147152290Y-112454958D01*
X147150166Y-112469276D01*
X147146649Y-112483317D01*
X147141772Y-112496946D01*
X147135583Y-112510031D01*
X147128142Y-112522447D01*
X147119519Y-112534073D01*
X147109798Y-112544798D01*
X147099073Y-112554519D01*
X147087447Y-112563142D01*
X147075031Y-112570583D01*
X147061946Y-112576772D01*
X147048317Y-112581649D01*
X147034276Y-112585166D01*
X147019958Y-112587290D01*
X147005500Y-112588000D01*
X146710500Y-112588000D01*
X146696042Y-112587290D01*
X146681724Y-112585166D01*
X146667683Y-112581649D01*
X146654054Y-112576772D01*
X146640969Y-112570583D01*
X146628553Y-112563142D01*
X146616927Y-112554519D01*
X146606202Y-112544798D01*
X146596481Y-112534073D01*
X146587858Y-112522447D01*
X146580417Y-112510031D01*
X146574228Y-112496946D01*
X146569351Y-112483317D01*
X146565834Y-112469276D01*
X146563710Y-112454958D01*
X146563000Y-112440500D01*
X146563000Y-112095500D01*
X146563710Y-112081042D01*
X146565834Y-112066724D01*
X146569351Y-112052683D01*
X146574228Y-112039054D01*
X146580417Y-112025969D01*
X146587858Y-112013553D01*
X146596481Y-112001927D01*
X146606202Y-111991202D01*
X146616927Y-111981481D01*
X146628553Y-111972858D01*
X146640969Y-111965417D01*
X146654054Y-111959228D01*
X146667683Y-111954351D01*
X146681724Y-111950834D01*
X146696042Y-111948710D01*
X146710500Y-111948000D01*
X147005500Y-111948000D01*
X147019958Y-111948710D01*
X147019958Y-111948710D01*
G37*
D11*
X146858000Y-112268000D03*
G04 #@! TD*
D12*
G04 #@! TO.C,J5*
X148620000Y-131445000D03*
X153670000Y-131445000D03*
X148620000Y-128905000D03*
X153670000Y-128905000D03*
X148620000Y-126365000D03*
X153670000Y-126365000D03*
G04 #@! TD*
D13*
G04 #@! TO.C,R6*
X155332000Y-124206000D03*
X154432000Y-124206000D03*
G04 #@! TD*
D14*
G04 #@! TO.C,R7*
X147955000Y-121793000D03*
X147955000Y-122693000D03*
G04 #@! TD*
D15*
G04 #@! TO.C,R5*
X147135000Y-124841000D03*
X146235000Y-124841000D03*
G04 #@! TD*
D14*
G04 #@! TO.C,R4*
X149987000Y-119253000D03*
X149987000Y-118353000D03*
G04 #@! TD*
G04 #@! TO.C,R1*
X149860000Y-102356500D03*
X149860000Y-103256500D03*
G04 #@! TD*
G04 #@! TO.C,R2*
X151003000Y-103262000D03*
X151003000Y-102362000D03*
G04 #@! TD*
G04 #@! TO.C,R3*
X152082500Y-103262000D03*
X152082500Y-102362000D03*
G04 #@! TD*
D13*
G04 #@! TO.C,R10*
X155332000Y-122555000D03*
X154432000Y-122555000D03*
G04 #@! TD*
D10*
G04 #@! TO.C,C1*
G36*
X155612958Y-103603810D02*
X155627276Y-103605934D01*
X155641317Y-103609451D01*
X155654946Y-103614328D01*
X155668031Y-103620517D01*
X155680447Y-103627958D01*
X155692073Y-103636581D01*
X155702798Y-103646302D01*
X155712519Y-103657027D01*
X155721142Y-103668653D01*
X155728583Y-103681069D01*
X155734772Y-103694154D01*
X155739649Y-103707783D01*
X155743166Y-103721824D01*
X155745290Y-103736142D01*
X155746000Y-103750600D01*
X155746000Y-104095600D01*
X155745290Y-104110058D01*
X155743166Y-104124376D01*
X155739649Y-104138417D01*
X155734772Y-104152046D01*
X155728583Y-104165131D01*
X155721142Y-104177547D01*
X155712519Y-104189173D01*
X155702798Y-104199898D01*
X155692073Y-104209619D01*
X155680447Y-104218242D01*
X155668031Y-104225683D01*
X155654946Y-104231872D01*
X155641317Y-104236749D01*
X155627276Y-104240266D01*
X155612958Y-104242390D01*
X155598500Y-104243100D01*
X155303500Y-104243100D01*
X155289042Y-104242390D01*
X155274724Y-104240266D01*
X155260683Y-104236749D01*
X155247054Y-104231872D01*
X155233969Y-104225683D01*
X155221553Y-104218242D01*
X155209927Y-104209619D01*
X155199202Y-104199898D01*
X155189481Y-104189173D01*
X155180858Y-104177547D01*
X155173417Y-104165131D01*
X155167228Y-104152046D01*
X155162351Y-104138417D01*
X155158834Y-104124376D01*
X155156710Y-104110058D01*
X155156000Y-104095600D01*
X155156000Y-103750600D01*
X155156710Y-103736142D01*
X155158834Y-103721824D01*
X155162351Y-103707783D01*
X155167228Y-103694154D01*
X155173417Y-103681069D01*
X155180858Y-103668653D01*
X155189481Y-103657027D01*
X155199202Y-103646302D01*
X155209927Y-103636581D01*
X155221553Y-103627958D01*
X155233969Y-103620517D01*
X155247054Y-103614328D01*
X155260683Y-103609451D01*
X155274724Y-103605934D01*
X155289042Y-103603810D01*
X155303500Y-103603100D01*
X155598500Y-103603100D01*
X155612958Y-103603810D01*
X155612958Y-103603810D01*
G37*
D11*
X155451000Y-103923100D03*
D10*
G36*
X156582958Y-103603810D02*
X156597276Y-103605934D01*
X156611317Y-103609451D01*
X156624946Y-103614328D01*
X156638031Y-103620517D01*
X156650447Y-103627958D01*
X156662073Y-103636581D01*
X156672798Y-103646302D01*
X156682519Y-103657027D01*
X156691142Y-103668653D01*
X156698583Y-103681069D01*
X156704772Y-103694154D01*
X156709649Y-103707783D01*
X156713166Y-103721824D01*
X156715290Y-103736142D01*
X156716000Y-103750600D01*
X156716000Y-104095600D01*
X156715290Y-104110058D01*
X156713166Y-104124376D01*
X156709649Y-104138417D01*
X156704772Y-104152046D01*
X156698583Y-104165131D01*
X156691142Y-104177547D01*
X156682519Y-104189173D01*
X156672798Y-104199898D01*
X156662073Y-104209619D01*
X156650447Y-104218242D01*
X156638031Y-104225683D01*
X156624946Y-104231872D01*
X156611317Y-104236749D01*
X156597276Y-104240266D01*
X156582958Y-104242390D01*
X156568500Y-104243100D01*
X156273500Y-104243100D01*
X156259042Y-104242390D01*
X156244724Y-104240266D01*
X156230683Y-104236749D01*
X156217054Y-104231872D01*
X156203969Y-104225683D01*
X156191553Y-104218242D01*
X156179927Y-104209619D01*
X156169202Y-104199898D01*
X156159481Y-104189173D01*
X156150858Y-104177547D01*
X156143417Y-104165131D01*
X156137228Y-104152046D01*
X156132351Y-104138417D01*
X156128834Y-104124376D01*
X156126710Y-104110058D01*
X156126000Y-104095600D01*
X156126000Y-103750600D01*
X156126710Y-103736142D01*
X156128834Y-103721824D01*
X156132351Y-103707783D01*
X156137228Y-103694154D01*
X156143417Y-103681069D01*
X156150858Y-103668653D01*
X156159481Y-103657027D01*
X156169202Y-103646302D01*
X156179927Y-103636581D01*
X156191553Y-103627958D01*
X156203969Y-103620517D01*
X156217054Y-103614328D01*
X156230683Y-103609451D01*
X156244724Y-103605934D01*
X156259042Y-103603810D01*
X156273500Y-103603100D01*
X156568500Y-103603100D01*
X156582958Y-103603810D01*
X156582958Y-103603810D01*
G37*
D11*
X156421000Y-103923100D03*
G04 #@! TD*
D10*
G04 #@! TO.C,C2*
G36*
X156582958Y-107203810D02*
X156597276Y-107205934D01*
X156611317Y-107209451D01*
X156624946Y-107214328D01*
X156638031Y-107220517D01*
X156650447Y-107227958D01*
X156662073Y-107236581D01*
X156672798Y-107246302D01*
X156682519Y-107257027D01*
X156691142Y-107268653D01*
X156698583Y-107281069D01*
X156704772Y-107294154D01*
X156709649Y-107307783D01*
X156713166Y-107321824D01*
X156715290Y-107336142D01*
X156716000Y-107350600D01*
X156716000Y-107695600D01*
X156715290Y-107710058D01*
X156713166Y-107724376D01*
X156709649Y-107738417D01*
X156704772Y-107752046D01*
X156698583Y-107765131D01*
X156691142Y-107777547D01*
X156682519Y-107789173D01*
X156672798Y-107799898D01*
X156662073Y-107809619D01*
X156650447Y-107818242D01*
X156638031Y-107825683D01*
X156624946Y-107831872D01*
X156611317Y-107836749D01*
X156597276Y-107840266D01*
X156582958Y-107842390D01*
X156568500Y-107843100D01*
X156273500Y-107843100D01*
X156259042Y-107842390D01*
X156244724Y-107840266D01*
X156230683Y-107836749D01*
X156217054Y-107831872D01*
X156203969Y-107825683D01*
X156191553Y-107818242D01*
X156179927Y-107809619D01*
X156169202Y-107799898D01*
X156159481Y-107789173D01*
X156150858Y-107777547D01*
X156143417Y-107765131D01*
X156137228Y-107752046D01*
X156132351Y-107738417D01*
X156128834Y-107724376D01*
X156126710Y-107710058D01*
X156126000Y-107695600D01*
X156126000Y-107350600D01*
X156126710Y-107336142D01*
X156128834Y-107321824D01*
X156132351Y-107307783D01*
X156137228Y-107294154D01*
X156143417Y-107281069D01*
X156150858Y-107268653D01*
X156159481Y-107257027D01*
X156169202Y-107246302D01*
X156179927Y-107236581D01*
X156191553Y-107227958D01*
X156203969Y-107220517D01*
X156217054Y-107214328D01*
X156230683Y-107209451D01*
X156244724Y-107205934D01*
X156259042Y-107203810D01*
X156273500Y-107203100D01*
X156568500Y-107203100D01*
X156582958Y-107203810D01*
X156582958Y-107203810D01*
G37*
D11*
X156421000Y-107523100D03*
D10*
G36*
X155612958Y-107203810D02*
X155627276Y-107205934D01*
X155641317Y-107209451D01*
X155654946Y-107214328D01*
X155668031Y-107220517D01*
X155680447Y-107227958D01*
X155692073Y-107236581D01*
X155702798Y-107246302D01*
X155712519Y-107257027D01*
X155721142Y-107268653D01*
X155728583Y-107281069D01*
X155734772Y-107294154D01*
X155739649Y-107307783D01*
X155743166Y-107321824D01*
X155745290Y-107336142D01*
X155746000Y-107350600D01*
X155746000Y-107695600D01*
X155745290Y-107710058D01*
X155743166Y-107724376D01*
X155739649Y-107738417D01*
X155734772Y-107752046D01*
X155728583Y-107765131D01*
X155721142Y-107777547D01*
X155712519Y-107789173D01*
X155702798Y-107799898D01*
X155692073Y-107809619D01*
X155680447Y-107818242D01*
X155668031Y-107825683D01*
X155654946Y-107831872D01*
X155641317Y-107836749D01*
X155627276Y-107840266D01*
X155612958Y-107842390D01*
X155598500Y-107843100D01*
X155303500Y-107843100D01*
X155289042Y-107842390D01*
X155274724Y-107840266D01*
X155260683Y-107836749D01*
X155247054Y-107831872D01*
X155233969Y-107825683D01*
X155221553Y-107818242D01*
X155209927Y-107809619D01*
X155199202Y-107799898D01*
X155189481Y-107789173D01*
X155180858Y-107777547D01*
X155173417Y-107765131D01*
X155167228Y-107752046D01*
X155162351Y-107738417D01*
X155158834Y-107724376D01*
X155156710Y-107710058D01*
X155156000Y-107695600D01*
X155156000Y-107350600D01*
X155156710Y-107336142D01*
X155158834Y-107321824D01*
X155162351Y-107307783D01*
X155167228Y-107294154D01*
X155173417Y-107281069D01*
X155180858Y-107268653D01*
X155189481Y-107257027D01*
X155199202Y-107246302D01*
X155209927Y-107236581D01*
X155221553Y-107227958D01*
X155233969Y-107220517D01*
X155247054Y-107214328D01*
X155260683Y-107209451D01*
X155274724Y-107205934D01*
X155289042Y-107203810D01*
X155303500Y-107203100D01*
X155598500Y-107203100D01*
X155612958Y-107203810D01*
X155612958Y-107203810D01*
G37*
D11*
X155451000Y-107523100D03*
G04 #@! TD*
D10*
G04 #@! TO.C,C4*
G36*
X156582958Y-106003810D02*
X156597276Y-106005934D01*
X156611317Y-106009451D01*
X156624946Y-106014328D01*
X156638031Y-106020517D01*
X156650447Y-106027958D01*
X156662073Y-106036581D01*
X156672798Y-106046302D01*
X156682519Y-106057027D01*
X156691142Y-106068653D01*
X156698583Y-106081069D01*
X156704772Y-106094154D01*
X156709649Y-106107783D01*
X156713166Y-106121824D01*
X156715290Y-106136142D01*
X156716000Y-106150600D01*
X156716000Y-106495600D01*
X156715290Y-106510058D01*
X156713166Y-106524376D01*
X156709649Y-106538417D01*
X156704772Y-106552046D01*
X156698583Y-106565131D01*
X156691142Y-106577547D01*
X156682519Y-106589173D01*
X156672798Y-106599898D01*
X156662073Y-106609619D01*
X156650447Y-106618242D01*
X156638031Y-106625683D01*
X156624946Y-106631872D01*
X156611317Y-106636749D01*
X156597276Y-106640266D01*
X156582958Y-106642390D01*
X156568500Y-106643100D01*
X156273500Y-106643100D01*
X156259042Y-106642390D01*
X156244724Y-106640266D01*
X156230683Y-106636749D01*
X156217054Y-106631872D01*
X156203969Y-106625683D01*
X156191553Y-106618242D01*
X156179927Y-106609619D01*
X156169202Y-106599898D01*
X156159481Y-106589173D01*
X156150858Y-106577547D01*
X156143417Y-106565131D01*
X156137228Y-106552046D01*
X156132351Y-106538417D01*
X156128834Y-106524376D01*
X156126710Y-106510058D01*
X156126000Y-106495600D01*
X156126000Y-106150600D01*
X156126710Y-106136142D01*
X156128834Y-106121824D01*
X156132351Y-106107783D01*
X156137228Y-106094154D01*
X156143417Y-106081069D01*
X156150858Y-106068653D01*
X156159481Y-106057027D01*
X156169202Y-106046302D01*
X156179927Y-106036581D01*
X156191553Y-106027958D01*
X156203969Y-106020517D01*
X156217054Y-106014328D01*
X156230683Y-106009451D01*
X156244724Y-106005934D01*
X156259042Y-106003810D01*
X156273500Y-106003100D01*
X156568500Y-106003100D01*
X156582958Y-106003810D01*
X156582958Y-106003810D01*
G37*
D11*
X156421000Y-106323100D03*
D10*
G36*
X155612958Y-106003810D02*
X155627276Y-106005934D01*
X155641317Y-106009451D01*
X155654946Y-106014328D01*
X155668031Y-106020517D01*
X155680447Y-106027958D01*
X155692073Y-106036581D01*
X155702798Y-106046302D01*
X155712519Y-106057027D01*
X155721142Y-106068653D01*
X155728583Y-106081069D01*
X155734772Y-106094154D01*
X155739649Y-106107783D01*
X155743166Y-106121824D01*
X155745290Y-106136142D01*
X155746000Y-106150600D01*
X155746000Y-106495600D01*
X155745290Y-106510058D01*
X155743166Y-106524376D01*
X155739649Y-106538417D01*
X155734772Y-106552046D01*
X155728583Y-106565131D01*
X155721142Y-106577547D01*
X155712519Y-106589173D01*
X155702798Y-106599898D01*
X155692073Y-106609619D01*
X155680447Y-106618242D01*
X155668031Y-106625683D01*
X155654946Y-106631872D01*
X155641317Y-106636749D01*
X155627276Y-106640266D01*
X155612958Y-106642390D01*
X155598500Y-106643100D01*
X155303500Y-106643100D01*
X155289042Y-106642390D01*
X155274724Y-106640266D01*
X155260683Y-106636749D01*
X155247054Y-106631872D01*
X155233969Y-106625683D01*
X155221553Y-106618242D01*
X155209927Y-106609619D01*
X155199202Y-106599898D01*
X155189481Y-106589173D01*
X155180858Y-106577547D01*
X155173417Y-106565131D01*
X155167228Y-106552046D01*
X155162351Y-106538417D01*
X155158834Y-106524376D01*
X155156710Y-106510058D01*
X155156000Y-106495600D01*
X155156000Y-106150600D01*
X155156710Y-106136142D01*
X155158834Y-106121824D01*
X155162351Y-106107783D01*
X155167228Y-106094154D01*
X155173417Y-106081069D01*
X155180858Y-106068653D01*
X155189481Y-106057027D01*
X155199202Y-106046302D01*
X155209927Y-106036581D01*
X155221553Y-106027958D01*
X155233969Y-106020517D01*
X155247054Y-106014328D01*
X155260683Y-106009451D01*
X155274724Y-106005934D01*
X155289042Y-106003810D01*
X155303500Y-106003100D01*
X155598500Y-106003100D01*
X155612958Y-106003810D01*
X155612958Y-106003810D01*
G37*
D11*
X155451000Y-106323100D03*
G04 #@! TD*
D10*
G04 #@! TO.C,C5*
G36*
X154512958Y-120457710D02*
X154527276Y-120459834D01*
X154541317Y-120463351D01*
X154554946Y-120468228D01*
X154568031Y-120474417D01*
X154580447Y-120481858D01*
X154592073Y-120490481D01*
X154602798Y-120500202D01*
X154612519Y-120510927D01*
X154621142Y-120522553D01*
X154628583Y-120534969D01*
X154634772Y-120548054D01*
X154639649Y-120561683D01*
X154643166Y-120575724D01*
X154645290Y-120590042D01*
X154646000Y-120604500D01*
X154646000Y-120949500D01*
X154645290Y-120963958D01*
X154643166Y-120978276D01*
X154639649Y-120992317D01*
X154634772Y-121005946D01*
X154628583Y-121019031D01*
X154621142Y-121031447D01*
X154612519Y-121043073D01*
X154602798Y-121053798D01*
X154592073Y-121063519D01*
X154580447Y-121072142D01*
X154568031Y-121079583D01*
X154554946Y-121085772D01*
X154541317Y-121090649D01*
X154527276Y-121094166D01*
X154512958Y-121096290D01*
X154498500Y-121097000D01*
X154203500Y-121097000D01*
X154189042Y-121096290D01*
X154174724Y-121094166D01*
X154160683Y-121090649D01*
X154147054Y-121085772D01*
X154133969Y-121079583D01*
X154121553Y-121072142D01*
X154109927Y-121063519D01*
X154099202Y-121053798D01*
X154089481Y-121043073D01*
X154080858Y-121031447D01*
X154073417Y-121019031D01*
X154067228Y-121005946D01*
X154062351Y-120992317D01*
X154058834Y-120978276D01*
X154056710Y-120963958D01*
X154056000Y-120949500D01*
X154056000Y-120604500D01*
X154056710Y-120590042D01*
X154058834Y-120575724D01*
X154062351Y-120561683D01*
X154067228Y-120548054D01*
X154073417Y-120534969D01*
X154080858Y-120522553D01*
X154089481Y-120510927D01*
X154099202Y-120500202D01*
X154109927Y-120490481D01*
X154121553Y-120481858D01*
X154133969Y-120474417D01*
X154147054Y-120468228D01*
X154160683Y-120463351D01*
X154174724Y-120459834D01*
X154189042Y-120457710D01*
X154203500Y-120457000D01*
X154498500Y-120457000D01*
X154512958Y-120457710D01*
X154512958Y-120457710D01*
G37*
D11*
X154351000Y-120777000D03*
D10*
G36*
X155482958Y-120457710D02*
X155497276Y-120459834D01*
X155511317Y-120463351D01*
X155524946Y-120468228D01*
X155538031Y-120474417D01*
X155550447Y-120481858D01*
X155562073Y-120490481D01*
X155572798Y-120500202D01*
X155582519Y-120510927D01*
X155591142Y-120522553D01*
X155598583Y-120534969D01*
X155604772Y-120548054D01*
X155609649Y-120561683D01*
X155613166Y-120575724D01*
X155615290Y-120590042D01*
X155616000Y-120604500D01*
X155616000Y-120949500D01*
X155615290Y-120963958D01*
X155613166Y-120978276D01*
X155609649Y-120992317D01*
X155604772Y-121005946D01*
X155598583Y-121019031D01*
X155591142Y-121031447D01*
X155582519Y-121043073D01*
X155572798Y-121053798D01*
X155562073Y-121063519D01*
X155550447Y-121072142D01*
X155538031Y-121079583D01*
X155524946Y-121085772D01*
X155511317Y-121090649D01*
X155497276Y-121094166D01*
X155482958Y-121096290D01*
X155468500Y-121097000D01*
X155173500Y-121097000D01*
X155159042Y-121096290D01*
X155144724Y-121094166D01*
X155130683Y-121090649D01*
X155117054Y-121085772D01*
X155103969Y-121079583D01*
X155091553Y-121072142D01*
X155079927Y-121063519D01*
X155069202Y-121053798D01*
X155059481Y-121043073D01*
X155050858Y-121031447D01*
X155043417Y-121019031D01*
X155037228Y-121005946D01*
X155032351Y-120992317D01*
X155028834Y-120978276D01*
X155026710Y-120963958D01*
X155026000Y-120949500D01*
X155026000Y-120604500D01*
X155026710Y-120590042D01*
X155028834Y-120575724D01*
X155032351Y-120561683D01*
X155037228Y-120548054D01*
X155043417Y-120534969D01*
X155050858Y-120522553D01*
X155059481Y-120510927D01*
X155069202Y-120500202D01*
X155079927Y-120490481D01*
X155091553Y-120481858D01*
X155103969Y-120474417D01*
X155117054Y-120468228D01*
X155130683Y-120463351D01*
X155144724Y-120459834D01*
X155159042Y-120457710D01*
X155173500Y-120457000D01*
X155468500Y-120457000D01*
X155482958Y-120457710D01*
X155482958Y-120457710D01*
G37*
D11*
X155321000Y-120777000D03*
G04 #@! TD*
D10*
G04 #@! TO.C,C6*
G36*
X149030958Y-118981710D02*
X149045276Y-118983834D01*
X149059317Y-118987351D01*
X149072946Y-118992228D01*
X149086031Y-118998417D01*
X149098447Y-119005858D01*
X149110073Y-119014481D01*
X149120798Y-119024202D01*
X149130519Y-119034927D01*
X149139142Y-119046553D01*
X149146583Y-119058969D01*
X149152772Y-119072054D01*
X149157649Y-119085683D01*
X149161166Y-119099724D01*
X149163290Y-119114042D01*
X149164000Y-119128500D01*
X149164000Y-119423500D01*
X149163290Y-119437958D01*
X149161166Y-119452276D01*
X149157649Y-119466317D01*
X149152772Y-119479946D01*
X149146583Y-119493031D01*
X149139142Y-119505447D01*
X149130519Y-119517073D01*
X149120798Y-119527798D01*
X149110073Y-119537519D01*
X149098447Y-119546142D01*
X149086031Y-119553583D01*
X149072946Y-119559772D01*
X149059317Y-119564649D01*
X149045276Y-119568166D01*
X149030958Y-119570290D01*
X149016500Y-119571000D01*
X148671500Y-119571000D01*
X148657042Y-119570290D01*
X148642724Y-119568166D01*
X148628683Y-119564649D01*
X148615054Y-119559772D01*
X148601969Y-119553583D01*
X148589553Y-119546142D01*
X148577927Y-119537519D01*
X148567202Y-119527798D01*
X148557481Y-119517073D01*
X148548858Y-119505447D01*
X148541417Y-119493031D01*
X148535228Y-119479946D01*
X148530351Y-119466317D01*
X148526834Y-119452276D01*
X148524710Y-119437958D01*
X148524000Y-119423500D01*
X148524000Y-119128500D01*
X148524710Y-119114042D01*
X148526834Y-119099724D01*
X148530351Y-119085683D01*
X148535228Y-119072054D01*
X148541417Y-119058969D01*
X148548858Y-119046553D01*
X148557481Y-119034927D01*
X148567202Y-119024202D01*
X148577927Y-119014481D01*
X148589553Y-119005858D01*
X148601969Y-118998417D01*
X148615054Y-118992228D01*
X148628683Y-118987351D01*
X148642724Y-118983834D01*
X148657042Y-118981710D01*
X148671500Y-118981000D01*
X149016500Y-118981000D01*
X149030958Y-118981710D01*
X149030958Y-118981710D01*
G37*
D11*
X148844000Y-119276000D03*
D10*
G36*
X149030958Y-119951710D02*
X149045276Y-119953834D01*
X149059317Y-119957351D01*
X149072946Y-119962228D01*
X149086031Y-119968417D01*
X149098447Y-119975858D01*
X149110073Y-119984481D01*
X149120798Y-119994202D01*
X149130519Y-120004927D01*
X149139142Y-120016553D01*
X149146583Y-120028969D01*
X149152772Y-120042054D01*
X149157649Y-120055683D01*
X149161166Y-120069724D01*
X149163290Y-120084042D01*
X149164000Y-120098500D01*
X149164000Y-120393500D01*
X149163290Y-120407958D01*
X149161166Y-120422276D01*
X149157649Y-120436317D01*
X149152772Y-120449946D01*
X149146583Y-120463031D01*
X149139142Y-120475447D01*
X149130519Y-120487073D01*
X149120798Y-120497798D01*
X149110073Y-120507519D01*
X149098447Y-120516142D01*
X149086031Y-120523583D01*
X149072946Y-120529772D01*
X149059317Y-120534649D01*
X149045276Y-120538166D01*
X149030958Y-120540290D01*
X149016500Y-120541000D01*
X148671500Y-120541000D01*
X148657042Y-120540290D01*
X148642724Y-120538166D01*
X148628683Y-120534649D01*
X148615054Y-120529772D01*
X148601969Y-120523583D01*
X148589553Y-120516142D01*
X148577927Y-120507519D01*
X148567202Y-120497798D01*
X148557481Y-120487073D01*
X148548858Y-120475447D01*
X148541417Y-120463031D01*
X148535228Y-120449946D01*
X148530351Y-120436317D01*
X148526834Y-120422276D01*
X148524710Y-120407958D01*
X148524000Y-120393500D01*
X148524000Y-120098500D01*
X148524710Y-120084042D01*
X148526834Y-120069724D01*
X148530351Y-120055683D01*
X148535228Y-120042054D01*
X148541417Y-120028969D01*
X148548858Y-120016553D01*
X148557481Y-120004927D01*
X148567202Y-119994202D01*
X148577927Y-119984481D01*
X148589553Y-119975858D01*
X148601969Y-119968417D01*
X148615054Y-119962228D01*
X148628683Y-119957351D01*
X148642724Y-119953834D01*
X148657042Y-119951710D01*
X148671500Y-119951000D01*
X149016500Y-119951000D01*
X149030958Y-119951710D01*
X149030958Y-119951710D01*
G37*
D11*
X148844000Y-120246000D03*
G04 #@! TD*
D10*
G04 #@! TO.C,C8*
G36*
X147227958Y-117155710D02*
X147242276Y-117157834D01*
X147256317Y-117161351D01*
X147269946Y-117166228D01*
X147283031Y-117172417D01*
X147295447Y-117179858D01*
X147307073Y-117188481D01*
X147317798Y-117198202D01*
X147327519Y-117208927D01*
X147336142Y-117220553D01*
X147343583Y-117232969D01*
X147349772Y-117246054D01*
X147354649Y-117259683D01*
X147358166Y-117273724D01*
X147360290Y-117288042D01*
X147361000Y-117302500D01*
X147361000Y-117647500D01*
X147360290Y-117661958D01*
X147358166Y-117676276D01*
X147354649Y-117690317D01*
X147349772Y-117703946D01*
X147343583Y-117717031D01*
X147336142Y-117729447D01*
X147327519Y-117741073D01*
X147317798Y-117751798D01*
X147307073Y-117761519D01*
X147295447Y-117770142D01*
X147283031Y-117777583D01*
X147269946Y-117783772D01*
X147256317Y-117788649D01*
X147242276Y-117792166D01*
X147227958Y-117794290D01*
X147213500Y-117795000D01*
X146918500Y-117795000D01*
X146904042Y-117794290D01*
X146889724Y-117792166D01*
X146875683Y-117788649D01*
X146862054Y-117783772D01*
X146848969Y-117777583D01*
X146836553Y-117770142D01*
X146824927Y-117761519D01*
X146814202Y-117751798D01*
X146804481Y-117741073D01*
X146795858Y-117729447D01*
X146788417Y-117717031D01*
X146782228Y-117703946D01*
X146777351Y-117690317D01*
X146773834Y-117676276D01*
X146771710Y-117661958D01*
X146771000Y-117647500D01*
X146771000Y-117302500D01*
X146771710Y-117288042D01*
X146773834Y-117273724D01*
X146777351Y-117259683D01*
X146782228Y-117246054D01*
X146788417Y-117232969D01*
X146795858Y-117220553D01*
X146804481Y-117208927D01*
X146814202Y-117198202D01*
X146824927Y-117188481D01*
X146836553Y-117179858D01*
X146848969Y-117172417D01*
X146862054Y-117166228D01*
X146875683Y-117161351D01*
X146889724Y-117157834D01*
X146904042Y-117155710D01*
X146918500Y-117155000D01*
X147213500Y-117155000D01*
X147227958Y-117155710D01*
X147227958Y-117155710D01*
G37*
D11*
X147066000Y-117475000D03*
D10*
G36*
X148197958Y-117155710D02*
X148212276Y-117157834D01*
X148226317Y-117161351D01*
X148239946Y-117166228D01*
X148253031Y-117172417D01*
X148265447Y-117179858D01*
X148277073Y-117188481D01*
X148287798Y-117198202D01*
X148297519Y-117208927D01*
X148306142Y-117220553D01*
X148313583Y-117232969D01*
X148319772Y-117246054D01*
X148324649Y-117259683D01*
X148328166Y-117273724D01*
X148330290Y-117288042D01*
X148331000Y-117302500D01*
X148331000Y-117647500D01*
X148330290Y-117661958D01*
X148328166Y-117676276D01*
X148324649Y-117690317D01*
X148319772Y-117703946D01*
X148313583Y-117717031D01*
X148306142Y-117729447D01*
X148297519Y-117741073D01*
X148287798Y-117751798D01*
X148277073Y-117761519D01*
X148265447Y-117770142D01*
X148253031Y-117777583D01*
X148239946Y-117783772D01*
X148226317Y-117788649D01*
X148212276Y-117792166D01*
X148197958Y-117794290D01*
X148183500Y-117795000D01*
X147888500Y-117795000D01*
X147874042Y-117794290D01*
X147859724Y-117792166D01*
X147845683Y-117788649D01*
X147832054Y-117783772D01*
X147818969Y-117777583D01*
X147806553Y-117770142D01*
X147794927Y-117761519D01*
X147784202Y-117751798D01*
X147774481Y-117741073D01*
X147765858Y-117729447D01*
X147758417Y-117717031D01*
X147752228Y-117703946D01*
X147747351Y-117690317D01*
X147743834Y-117676276D01*
X147741710Y-117661958D01*
X147741000Y-117647500D01*
X147741000Y-117302500D01*
X147741710Y-117288042D01*
X147743834Y-117273724D01*
X147747351Y-117259683D01*
X147752228Y-117246054D01*
X147758417Y-117232969D01*
X147765858Y-117220553D01*
X147774481Y-117208927D01*
X147784202Y-117198202D01*
X147794927Y-117188481D01*
X147806553Y-117179858D01*
X147818969Y-117172417D01*
X147832054Y-117166228D01*
X147845683Y-117161351D01*
X147859724Y-117157834D01*
X147874042Y-117155710D01*
X147888500Y-117155000D01*
X148183500Y-117155000D01*
X148197958Y-117155710D01*
X148197958Y-117155710D01*
G37*
D11*
X148036000Y-117475000D03*
G04 #@! TD*
D10*
G04 #@! TO.C,C9*
G36*
X152840958Y-119189710D02*
X152855276Y-119191834D01*
X152869317Y-119195351D01*
X152882946Y-119200228D01*
X152896031Y-119206417D01*
X152908447Y-119213858D01*
X152920073Y-119222481D01*
X152930798Y-119232202D01*
X152940519Y-119242927D01*
X152949142Y-119254553D01*
X152956583Y-119266969D01*
X152962772Y-119280054D01*
X152967649Y-119293683D01*
X152971166Y-119307724D01*
X152973290Y-119322042D01*
X152974000Y-119336500D01*
X152974000Y-119631500D01*
X152973290Y-119645958D01*
X152971166Y-119660276D01*
X152967649Y-119674317D01*
X152962772Y-119687946D01*
X152956583Y-119701031D01*
X152949142Y-119713447D01*
X152940519Y-119725073D01*
X152930798Y-119735798D01*
X152920073Y-119745519D01*
X152908447Y-119754142D01*
X152896031Y-119761583D01*
X152882946Y-119767772D01*
X152869317Y-119772649D01*
X152855276Y-119776166D01*
X152840958Y-119778290D01*
X152826500Y-119779000D01*
X152481500Y-119779000D01*
X152467042Y-119778290D01*
X152452724Y-119776166D01*
X152438683Y-119772649D01*
X152425054Y-119767772D01*
X152411969Y-119761583D01*
X152399553Y-119754142D01*
X152387927Y-119745519D01*
X152377202Y-119735798D01*
X152367481Y-119725073D01*
X152358858Y-119713447D01*
X152351417Y-119701031D01*
X152345228Y-119687946D01*
X152340351Y-119674317D01*
X152336834Y-119660276D01*
X152334710Y-119645958D01*
X152334000Y-119631500D01*
X152334000Y-119336500D01*
X152334710Y-119322042D01*
X152336834Y-119307724D01*
X152340351Y-119293683D01*
X152345228Y-119280054D01*
X152351417Y-119266969D01*
X152358858Y-119254553D01*
X152367481Y-119242927D01*
X152377202Y-119232202D01*
X152387927Y-119222481D01*
X152399553Y-119213858D01*
X152411969Y-119206417D01*
X152425054Y-119200228D01*
X152438683Y-119195351D01*
X152452724Y-119191834D01*
X152467042Y-119189710D01*
X152481500Y-119189000D01*
X152826500Y-119189000D01*
X152840958Y-119189710D01*
X152840958Y-119189710D01*
G37*
D11*
X152654000Y-119484000D03*
D10*
G36*
X152840958Y-118219710D02*
X152855276Y-118221834D01*
X152869317Y-118225351D01*
X152882946Y-118230228D01*
X152896031Y-118236417D01*
X152908447Y-118243858D01*
X152920073Y-118252481D01*
X152930798Y-118262202D01*
X152940519Y-118272927D01*
X152949142Y-118284553D01*
X152956583Y-118296969D01*
X152962772Y-118310054D01*
X152967649Y-118323683D01*
X152971166Y-118337724D01*
X152973290Y-118352042D01*
X152974000Y-118366500D01*
X152974000Y-118661500D01*
X152973290Y-118675958D01*
X152971166Y-118690276D01*
X152967649Y-118704317D01*
X152962772Y-118717946D01*
X152956583Y-118731031D01*
X152949142Y-118743447D01*
X152940519Y-118755073D01*
X152930798Y-118765798D01*
X152920073Y-118775519D01*
X152908447Y-118784142D01*
X152896031Y-118791583D01*
X152882946Y-118797772D01*
X152869317Y-118802649D01*
X152855276Y-118806166D01*
X152840958Y-118808290D01*
X152826500Y-118809000D01*
X152481500Y-118809000D01*
X152467042Y-118808290D01*
X152452724Y-118806166D01*
X152438683Y-118802649D01*
X152425054Y-118797772D01*
X152411969Y-118791583D01*
X152399553Y-118784142D01*
X152387927Y-118775519D01*
X152377202Y-118765798D01*
X152367481Y-118755073D01*
X152358858Y-118743447D01*
X152351417Y-118731031D01*
X152345228Y-118717946D01*
X152340351Y-118704317D01*
X152336834Y-118690276D01*
X152334710Y-118675958D01*
X152334000Y-118661500D01*
X152334000Y-118366500D01*
X152334710Y-118352042D01*
X152336834Y-118337724D01*
X152340351Y-118323683D01*
X152345228Y-118310054D01*
X152351417Y-118296969D01*
X152358858Y-118284553D01*
X152367481Y-118272927D01*
X152377202Y-118262202D01*
X152387927Y-118252481D01*
X152399553Y-118243858D01*
X152411969Y-118236417D01*
X152425054Y-118230228D01*
X152438683Y-118225351D01*
X152452724Y-118221834D01*
X152467042Y-118219710D01*
X152481500Y-118219000D01*
X152826500Y-118219000D01*
X152840958Y-118219710D01*
X152840958Y-118219710D01*
G37*
D11*
X152654000Y-118514000D03*
G04 #@! TD*
D10*
G04 #@! TO.C,C10*
G36*
X146211958Y-108265710D02*
X146226276Y-108267834D01*
X146240317Y-108271351D01*
X146253946Y-108276228D01*
X146267031Y-108282417D01*
X146279447Y-108289858D01*
X146291073Y-108298481D01*
X146301798Y-108308202D01*
X146311519Y-108318927D01*
X146320142Y-108330553D01*
X146327583Y-108342969D01*
X146333772Y-108356054D01*
X146338649Y-108369683D01*
X146342166Y-108383724D01*
X146344290Y-108398042D01*
X146345000Y-108412500D01*
X146345000Y-108757500D01*
X146344290Y-108771958D01*
X146342166Y-108786276D01*
X146338649Y-108800317D01*
X146333772Y-108813946D01*
X146327583Y-108827031D01*
X146320142Y-108839447D01*
X146311519Y-108851073D01*
X146301798Y-108861798D01*
X146291073Y-108871519D01*
X146279447Y-108880142D01*
X146267031Y-108887583D01*
X146253946Y-108893772D01*
X146240317Y-108898649D01*
X146226276Y-108902166D01*
X146211958Y-108904290D01*
X146197500Y-108905000D01*
X145902500Y-108905000D01*
X145888042Y-108904290D01*
X145873724Y-108902166D01*
X145859683Y-108898649D01*
X145846054Y-108893772D01*
X145832969Y-108887583D01*
X145820553Y-108880142D01*
X145808927Y-108871519D01*
X145798202Y-108861798D01*
X145788481Y-108851073D01*
X145779858Y-108839447D01*
X145772417Y-108827031D01*
X145766228Y-108813946D01*
X145761351Y-108800317D01*
X145757834Y-108786276D01*
X145755710Y-108771958D01*
X145755000Y-108757500D01*
X145755000Y-108412500D01*
X145755710Y-108398042D01*
X145757834Y-108383724D01*
X145761351Y-108369683D01*
X145766228Y-108356054D01*
X145772417Y-108342969D01*
X145779858Y-108330553D01*
X145788481Y-108318927D01*
X145798202Y-108308202D01*
X145808927Y-108298481D01*
X145820553Y-108289858D01*
X145832969Y-108282417D01*
X145846054Y-108276228D01*
X145859683Y-108271351D01*
X145873724Y-108267834D01*
X145888042Y-108265710D01*
X145902500Y-108265000D01*
X146197500Y-108265000D01*
X146211958Y-108265710D01*
X146211958Y-108265710D01*
G37*
D11*
X146050000Y-108585000D03*
D10*
G36*
X147181958Y-108265710D02*
X147196276Y-108267834D01*
X147210317Y-108271351D01*
X147223946Y-108276228D01*
X147237031Y-108282417D01*
X147249447Y-108289858D01*
X147261073Y-108298481D01*
X147271798Y-108308202D01*
X147281519Y-108318927D01*
X147290142Y-108330553D01*
X147297583Y-108342969D01*
X147303772Y-108356054D01*
X147308649Y-108369683D01*
X147312166Y-108383724D01*
X147314290Y-108398042D01*
X147315000Y-108412500D01*
X147315000Y-108757500D01*
X147314290Y-108771958D01*
X147312166Y-108786276D01*
X147308649Y-108800317D01*
X147303772Y-108813946D01*
X147297583Y-108827031D01*
X147290142Y-108839447D01*
X147281519Y-108851073D01*
X147271798Y-108861798D01*
X147261073Y-108871519D01*
X147249447Y-108880142D01*
X147237031Y-108887583D01*
X147223946Y-108893772D01*
X147210317Y-108898649D01*
X147196276Y-108902166D01*
X147181958Y-108904290D01*
X147167500Y-108905000D01*
X146872500Y-108905000D01*
X146858042Y-108904290D01*
X146843724Y-108902166D01*
X146829683Y-108898649D01*
X146816054Y-108893772D01*
X146802969Y-108887583D01*
X146790553Y-108880142D01*
X146778927Y-108871519D01*
X146768202Y-108861798D01*
X146758481Y-108851073D01*
X146749858Y-108839447D01*
X146742417Y-108827031D01*
X146736228Y-108813946D01*
X146731351Y-108800317D01*
X146727834Y-108786276D01*
X146725710Y-108771958D01*
X146725000Y-108757500D01*
X146725000Y-108412500D01*
X146725710Y-108398042D01*
X146727834Y-108383724D01*
X146731351Y-108369683D01*
X146736228Y-108356054D01*
X146742417Y-108342969D01*
X146749858Y-108330553D01*
X146758481Y-108318927D01*
X146768202Y-108308202D01*
X146778927Y-108298481D01*
X146790553Y-108289858D01*
X146802969Y-108282417D01*
X146816054Y-108276228D01*
X146829683Y-108271351D01*
X146843724Y-108267834D01*
X146858042Y-108265710D01*
X146872500Y-108265000D01*
X147167500Y-108265000D01*
X147181958Y-108265710D01*
X147181958Y-108265710D01*
G37*
D11*
X147020000Y-108585000D03*
G04 #@! TD*
D10*
G04 #@! TO.C,C11*
G36*
X147181958Y-110043710D02*
X147196276Y-110045834D01*
X147210317Y-110049351D01*
X147223946Y-110054228D01*
X147237031Y-110060417D01*
X147249447Y-110067858D01*
X147261073Y-110076481D01*
X147271798Y-110086202D01*
X147281519Y-110096927D01*
X147290142Y-110108553D01*
X147297583Y-110120969D01*
X147303772Y-110134054D01*
X147308649Y-110147683D01*
X147312166Y-110161724D01*
X147314290Y-110176042D01*
X147315000Y-110190500D01*
X147315000Y-110535500D01*
X147314290Y-110549958D01*
X147312166Y-110564276D01*
X147308649Y-110578317D01*
X147303772Y-110591946D01*
X147297583Y-110605031D01*
X147290142Y-110617447D01*
X147281519Y-110629073D01*
X147271798Y-110639798D01*
X147261073Y-110649519D01*
X147249447Y-110658142D01*
X147237031Y-110665583D01*
X147223946Y-110671772D01*
X147210317Y-110676649D01*
X147196276Y-110680166D01*
X147181958Y-110682290D01*
X147167500Y-110683000D01*
X146872500Y-110683000D01*
X146858042Y-110682290D01*
X146843724Y-110680166D01*
X146829683Y-110676649D01*
X146816054Y-110671772D01*
X146802969Y-110665583D01*
X146790553Y-110658142D01*
X146778927Y-110649519D01*
X146768202Y-110639798D01*
X146758481Y-110629073D01*
X146749858Y-110617447D01*
X146742417Y-110605031D01*
X146736228Y-110591946D01*
X146731351Y-110578317D01*
X146727834Y-110564276D01*
X146725710Y-110549958D01*
X146725000Y-110535500D01*
X146725000Y-110190500D01*
X146725710Y-110176042D01*
X146727834Y-110161724D01*
X146731351Y-110147683D01*
X146736228Y-110134054D01*
X146742417Y-110120969D01*
X146749858Y-110108553D01*
X146758481Y-110096927D01*
X146768202Y-110086202D01*
X146778927Y-110076481D01*
X146790553Y-110067858D01*
X146802969Y-110060417D01*
X146816054Y-110054228D01*
X146829683Y-110049351D01*
X146843724Y-110045834D01*
X146858042Y-110043710D01*
X146872500Y-110043000D01*
X147167500Y-110043000D01*
X147181958Y-110043710D01*
X147181958Y-110043710D01*
G37*
D11*
X147020000Y-110363000D03*
D10*
G36*
X146211958Y-110043710D02*
X146226276Y-110045834D01*
X146240317Y-110049351D01*
X146253946Y-110054228D01*
X146267031Y-110060417D01*
X146279447Y-110067858D01*
X146291073Y-110076481D01*
X146301798Y-110086202D01*
X146311519Y-110096927D01*
X146320142Y-110108553D01*
X146327583Y-110120969D01*
X146333772Y-110134054D01*
X146338649Y-110147683D01*
X146342166Y-110161724D01*
X146344290Y-110176042D01*
X146345000Y-110190500D01*
X146345000Y-110535500D01*
X146344290Y-110549958D01*
X146342166Y-110564276D01*
X146338649Y-110578317D01*
X146333772Y-110591946D01*
X146327583Y-110605031D01*
X146320142Y-110617447D01*
X146311519Y-110629073D01*
X146301798Y-110639798D01*
X146291073Y-110649519D01*
X146279447Y-110658142D01*
X146267031Y-110665583D01*
X146253946Y-110671772D01*
X146240317Y-110676649D01*
X146226276Y-110680166D01*
X146211958Y-110682290D01*
X146197500Y-110683000D01*
X145902500Y-110683000D01*
X145888042Y-110682290D01*
X145873724Y-110680166D01*
X145859683Y-110676649D01*
X145846054Y-110671772D01*
X145832969Y-110665583D01*
X145820553Y-110658142D01*
X145808927Y-110649519D01*
X145798202Y-110639798D01*
X145788481Y-110629073D01*
X145779858Y-110617447D01*
X145772417Y-110605031D01*
X145766228Y-110591946D01*
X145761351Y-110578317D01*
X145757834Y-110564276D01*
X145755710Y-110549958D01*
X145755000Y-110535500D01*
X145755000Y-110190500D01*
X145755710Y-110176042D01*
X145757834Y-110161724D01*
X145761351Y-110147683D01*
X145766228Y-110134054D01*
X145772417Y-110120969D01*
X145779858Y-110108553D01*
X145788481Y-110096927D01*
X145798202Y-110086202D01*
X145808927Y-110076481D01*
X145820553Y-110067858D01*
X145832969Y-110060417D01*
X145846054Y-110054228D01*
X145859683Y-110049351D01*
X145873724Y-110045834D01*
X145888042Y-110043710D01*
X145902500Y-110043000D01*
X146197500Y-110043000D01*
X146211958Y-110043710D01*
X146211958Y-110043710D01*
G37*
D11*
X146050000Y-110363000D03*
G04 #@! TD*
D10*
G04 #@! TO.C,C13*
G36*
X151570958Y-118196710D02*
X151585276Y-118198834D01*
X151599317Y-118202351D01*
X151612946Y-118207228D01*
X151626031Y-118213417D01*
X151638447Y-118220858D01*
X151650073Y-118229481D01*
X151660798Y-118239202D01*
X151670519Y-118249927D01*
X151679142Y-118261553D01*
X151686583Y-118273969D01*
X151692772Y-118287054D01*
X151697649Y-118300683D01*
X151701166Y-118314724D01*
X151703290Y-118329042D01*
X151704000Y-118343500D01*
X151704000Y-118638500D01*
X151703290Y-118652958D01*
X151701166Y-118667276D01*
X151697649Y-118681317D01*
X151692772Y-118694946D01*
X151686583Y-118708031D01*
X151679142Y-118720447D01*
X151670519Y-118732073D01*
X151660798Y-118742798D01*
X151650073Y-118752519D01*
X151638447Y-118761142D01*
X151626031Y-118768583D01*
X151612946Y-118774772D01*
X151599317Y-118779649D01*
X151585276Y-118783166D01*
X151570958Y-118785290D01*
X151556500Y-118786000D01*
X151211500Y-118786000D01*
X151197042Y-118785290D01*
X151182724Y-118783166D01*
X151168683Y-118779649D01*
X151155054Y-118774772D01*
X151141969Y-118768583D01*
X151129553Y-118761142D01*
X151117927Y-118752519D01*
X151107202Y-118742798D01*
X151097481Y-118732073D01*
X151088858Y-118720447D01*
X151081417Y-118708031D01*
X151075228Y-118694946D01*
X151070351Y-118681317D01*
X151066834Y-118667276D01*
X151064710Y-118652958D01*
X151064000Y-118638500D01*
X151064000Y-118343500D01*
X151064710Y-118329042D01*
X151066834Y-118314724D01*
X151070351Y-118300683D01*
X151075228Y-118287054D01*
X151081417Y-118273969D01*
X151088858Y-118261553D01*
X151097481Y-118249927D01*
X151107202Y-118239202D01*
X151117927Y-118229481D01*
X151129553Y-118220858D01*
X151141969Y-118213417D01*
X151155054Y-118207228D01*
X151168683Y-118202351D01*
X151182724Y-118198834D01*
X151197042Y-118196710D01*
X151211500Y-118196000D01*
X151556500Y-118196000D01*
X151570958Y-118196710D01*
X151570958Y-118196710D01*
G37*
D11*
X151384000Y-118491000D03*
D10*
G36*
X151570958Y-119166710D02*
X151585276Y-119168834D01*
X151599317Y-119172351D01*
X151612946Y-119177228D01*
X151626031Y-119183417D01*
X151638447Y-119190858D01*
X151650073Y-119199481D01*
X151660798Y-119209202D01*
X151670519Y-119219927D01*
X151679142Y-119231553D01*
X151686583Y-119243969D01*
X151692772Y-119257054D01*
X151697649Y-119270683D01*
X151701166Y-119284724D01*
X151703290Y-119299042D01*
X151704000Y-119313500D01*
X151704000Y-119608500D01*
X151703290Y-119622958D01*
X151701166Y-119637276D01*
X151697649Y-119651317D01*
X151692772Y-119664946D01*
X151686583Y-119678031D01*
X151679142Y-119690447D01*
X151670519Y-119702073D01*
X151660798Y-119712798D01*
X151650073Y-119722519D01*
X151638447Y-119731142D01*
X151626031Y-119738583D01*
X151612946Y-119744772D01*
X151599317Y-119749649D01*
X151585276Y-119753166D01*
X151570958Y-119755290D01*
X151556500Y-119756000D01*
X151211500Y-119756000D01*
X151197042Y-119755290D01*
X151182724Y-119753166D01*
X151168683Y-119749649D01*
X151155054Y-119744772D01*
X151141969Y-119738583D01*
X151129553Y-119731142D01*
X151117927Y-119722519D01*
X151107202Y-119712798D01*
X151097481Y-119702073D01*
X151088858Y-119690447D01*
X151081417Y-119678031D01*
X151075228Y-119664946D01*
X151070351Y-119651317D01*
X151066834Y-119637276D01*
X151064710Y-119622958D01*
X151064000Y-119608500D01*
X151064000Y-119313500D01*
X151064710Y-119299042D01*
X151066834Y-119284724D01*
X151070351Y-119270683D01*
X151075228Y-119257054D01*
X151081417Y-119243969D01*
X151088858Y-119231553D01*
X151097481Y-119219927D01*
X151107202Y-119209202D01*
X151117927Y-119199481D01*
X151129553Y-119190858D01*
X151141969Y-119183417D01*
X151155054Y-119177228D01*
X151168683Y-119172351D01*
X151182724Y-119168834D01*
X151197042Y-119166710D01*
X151211500Y-119166000D01*
X151556500Y-119166000D01*
X151570958Y-119166710D01*
X151570958Y-119166710D01*
G37*
D11*
X151384000Y-119461000D03*
G04 #@! TD*
D10*
G04 #@! TO.C,C14*
G36*
X151291958Y-120330710D02*
X151306276Y-120332834D01*
X151320317Y-120336351D01*
X151333946Y-120341228D01*
X151347031Y-120347417D01*
X151359447Y-120354858D01*
X151371073Y-120363481D01*
X151381798Y-120373202D01*
X151391519Y-120383927D01*
X151400142Y-120395553D01*
X151407583Y-120407969D01*
X151413772Y-120421054D01*
X151418649Y-120434683D01*
X151422166Y-120448724D01*
X151424290Y-120463042D01*
X151425000Y-120477500D01*
X151425000Y-120822500D01*
X151424290Y-120836958D01*
X151422166Y-120851276D01*
X151418649Y-120865317D01*
X151413772Y-120878946D01*
X151407583Y-120892031D01*
X151400142Y-120904447D01*
X151391519Y-120916073D01*
X151381798Y-120926798D01*
X151371073Y-120936519D01*
X151359447Y-120945142D01*
X151347031Y-120952583D01*
X151333946Y-120958772D01*
X151320317Y-120963649D01*
X151306276Y-120967166D01*
X151291958Y-120969290D01*
X151277500Y-120970000D01*
X150982500Y-120970000D01*
X150968042Y-120969290D01*
X150953724Y-120967166D01*
X150939683Y-120963649D01*
X150926054Y-120958772D01*
X150912969Y-120952583D01*
X150900553Y-120945142D01*
X150888927Y-120936519D01*
X150878202Y-120926798D01*
X150868481Y-120916073D01*
X150859858Y-120904447D01*
X150852417Y-120892031D01*
X150846228Y-120878946D01*
X150841351Y-120865317D01*
X150837834Y-120851276D01*
X150835710Y-120836958D01*
X150835000Y-120822500D01*
X150835000Y-120477500D01*
X150835710Y-120463042D01*
X150837834Y-120448724D01*
X150841351Y-120434683D01*
X150846228Y-120421054D01*
X150852417Y-120407969D01*
X150859858Y-120395553D01*
X150868481Y-120383927D01*
X150878202Y-120373202D01*
X150888927Y-120363481D01*
X150900553Y-120354858D01*
X150912969Y-120347417D01*
X150926054Y-120341228D01*
X150939683Y-120336351D01*
X150953724Y-120332834D01*
X150968042Y-120330710D01*
X150982500Y-120330000D01*
X151277500Y-120330000D01*
X151291958Y-120330710D01*
X151291958Y-120330710D01*
G37*
D11*
X151130000Y-120650000D03*
D10*
G36*
X150321958Y-120330710D02*
X150336276Y-120332834D01*
X150350317Y-120336351D01*
X150363946Y-120341228D01*
X150377031Y-120347417D01*
X150389447Y-120354858D01*
X150401073Y-120363481D01*
X150411798Y-120373202D01*
X150421519Y-120383927D01*
X150430142Y-120395553D01*
X150437583Y-120407969D01*
X150443772Y-120421054D01*
X150448649Y-120434683D01*
X150452166Y-120448724D01*
X150454290Y-120463042D01*
X150455000Y-120477500D01*
X150455000Y-120822500D01*
X150454290Y-120836958D01*
X150452166Y-120851276D01*
X150448649Y-120865317D01*
X150443772Y-120878946D01*
X150437583Y-120892031D01*
X150430142Y-120904447D01*
X150421519Y-120916073D01*
X150411798Y-120926798D01*
X150401073Y-120936519D01*
X150389447Y-120945142D01*
X150377031Y-120952583D01*
X150363946Y-120958772D01*
X150350317Y-120963649D01*
X150336276Y-120967166D01*
X150321958Y-120969290D01*
X150307500Y-120970000D01*
X150012500Y-120970000D01*
X149998042Y-120969290D01*
X149983724Y-120967166D01*
X149969683Y-120963649D01*
X149956054Y-120958772D01*
X149942969Y-120952583D01*
X149930553Y-120945142D01*
X149918927Y-120936519D01*
X149908202Y-120926798D01*
X149898481Y-120916073D01*
X149889858Y-120904447D01*
X149882417Y-120892031D01*
X149876228Y-120878946D01*
X149871351Y-120865317D01*
X149867834Y-120851276D01*
X149865710Y-120836958D01*
X149865000Y-120822500D01*
X149865000Y-120477500D01*
X149865710Y-120463042D01*
X149867834Y-120448724D01*
X149871351Y-120434683D01*
X149876228Y-120421054D01*
X149882417Y-120407969D01*
X149889858Y-120395553D01*
X149898481Y-120383927D01*
X149908202Y-120373202D01*
X149918927Y-120363481D01*
X149930553Y-120354858D01*
X149942969Y-120347417D01*
X149956054Y-120341228D01*
X149969683Y-120336351D01*
X149983724Y-120332834D01*
X149998042Y-120330710D01*
X150012500Y-120330000D01*
X150307500Y-120330000D01*
X150321958Y-120330710D01*
X150321958Y-120330710D01*
G37*
D11*
X150160000Y-120650000D03*
G04 #@! TD*
D10*
G04 #@! TO.C,C17*
G36*
X156777958Y-101605710D02*
X156792276Y-101607834D01*
X156806317Y-101611351D01*
X156819946Y-101616228D01*
X156833031Y-101622417D01*
X156845447Y-101629858D01*
X156857073Y-101638481D01*
X156867798Y-101648202D01*
X156877519Y-101658927D01*
X156886142Y-101670553D01*
X156893583Y-101682969D01*
X156899772Y-101696054D01*
X156904649Y-101709683D01*
X156908166Y-101723724D01*
X156910290Y-101738042D01*
X156911000Y-101752500D01*
X156911000Y-102047500D01*
X156910290Y-102061958D01*
X156908166Y-102076276D01*
X156904649Y-102090317D01*
X156899772Y-102103946D01*
X156893583Y-102117031D01*
X156886142Y-102129447D01*
X156877519Y-102141073D01*
X156867798Y-102151798D01*
X156857073Y-102161519D01*
X156845447Y-102170142D01*
X156833031Y-102177583D01*
X156819946Y-102183772D01*
X156806317Y-102188649D01*
X156792276Y-102192166D01*
X156777958Y-102194290D01*
X156763500Y-102195000D01*
X156418500Y-102195000D01*
X156404042Y-102194290D01*
X156389724Y-102192166D01*
X156375683Y-102188649D01*
X156362054Y-102183772D01*
X156348969Y-102177583D01*
X156336553Y-102170142D01*
X156324927Y-102161519D01*
X156314202Y-102151798D01*
X156304481Y-102141073D01*
X156295858Y-102129447D01*
X156288417Y-102117031D01*
X156282228Y-102103946D01*
X156277351Y-102090317D01*
X156273834Y-102076276D01*
X156271710Y-102061958D01*
X156271000Y-102047500D01*
X156271000Y-101752500D01*
X156271710Y-101738042D01*
X156273834Y-101723724D01*
X156277351Y-101709683D01*
X156282228Y-101696054D01*
X156288417Y-101682969D01*
X156295858Y-101670553D01*
X156304481Y-101658927D01*
X156314202Y-101648202D01*
X156324927Y-101638481D01*
X156336553Y-101629858D01*
X156348969Y-101622417D01*
X156362054Y-101616228D01*
X156375683Y-101611351D01*
X156389724Y-101607834D01*
X156404042Y-101605710D01*
X156418500Y-101605000D01*
X156763500Y-101605000D01*
X156777958Y-101605710D01*
X156777958Y-101605710D01*
G37*
D11*
X156591000Y-101900000D03*
D10*
G36*
X156777958Y-102575710D02*
X156792276Y-102577834D01*
X156806317Y-102581351D01*
X156819946Y-102586228D01*
X156833031Y-102592417D01*
X156845447Y-102599858D01*
X156857073Y-102608481D01*
X156867798Y-102618202D01*
X156877519Y-102628927D01*
X156886142Y-102640553D01*
X156893583Y-102652969D01*
X156899772Y-102666054D01*
X156904649Y-102679683D01*
X156908166Y-102693724D01*
X156910290Y-102708042D01*
X156911000Y-102722500D01*
X156911000Y-103017500D01*
X156910290Y-103031958D01*
X156908166Y-103046276D01*
X156904649Y-103060317D01*
X156899772Y-103073946D01*
X156893583Y-103087031D01*
X156886142Y-103099447D01*
X156877519Y-103111073D01*
X156867798Y-103121798D01*
X156857073Y-103131519D01*
X156845447Y-103140142D01*
X156833031Y-103147583D01*
X156819946Y-103153772D01*
X156806317Y-103158649D01*
X156792276Y-103162166D01*
X156777958Y-103164290D01*
X156763500Y-103165000D01*
X156418500Y-103165000D01*
X156404042Y-103164290D01*
X156389724Y-103162166D01*
X156375683Y-103158649D01*
X156362054Y-103153772D01*
X156348969Y-103147583D01*
X156336553Y-103140142D01*
X156324927Y-103131519D01*
X156314202Y-103121798D01*
X156304481Y-103111073D01*
X156295858Y-103099447D01*
X156288417Y-103087031D01*
X156282228Y-103073946D01*
X156277351Y-103060317D01*
X156273834Y-103046276D01*
X156271710Y-103031958D01*
X156271000Y-103017500D01*
X156271000Y-102722500D01*
X156271710Y-102708042D01*
X156273834Y-102693724D01*
X156277351Y-102679683D01*
X156282228Y-102666054D01*
X156288417Y-102652969D01*
X156295858Y-102640553D01*
X156304481Y-102628927D01*
X156314202Y-102618202D01*
X156324927Y-102608481D01*
X156336553Y-102599858D01*
X156348969Y-102592417D01*
X156362054Y-102586228D01*
X156375683Y-102581351D01*
X156389724Y-102577834D01*
X156404042Y-102575710D01*
X156418500Y-102575000D01*
X156763500Y-102575000D01*
X156777958Y-102575710D01*
X156777958Y-102575710D01*
G37*
D11*
X156591000Y-102870000D03*
G04 #@! TD*
M02*
