G04 #@! TF.GenerationSoftware,KiCad,Pcbnew,5.0.1-33cea8e~66~ubuntu18.04.1*
G04 #@! TF.CreationDate,2018-10-16T23:10:54+02:00*
G04 #@! TF.ProjectId,TinyFPGA-BX,54696E79465047412D42582E6B696361,rev?*
G04 #@! TF.SameCoordinates,Original*
G04 #@! TF.FileFunction,Copper,L2,Bot,Signal*
G04 #@! TF.FilePolarity,Positive*
%FSLAX46Y46*%
G04 Gerber Fmt 4.6, Leading zero omitted, Abs format (unit mm)*
G04 Created by KiCad (PCBNEW 5.0.1-33cea8e~66~ubuntu18.04.1) date di 16 okt 2018 23:10:54 CEST*
%MOMM*%
%LPD*%
G01*
G04 APERTURE LIST*
G04 #@! TA.AperFunction,Conductor*
%ADD10C,0.100000*%
G04 #@! TD*
G04 #@! TA.AperFunction,SMDPad,CuDef*
%ADD11C,0.590000*%
G04 #@! TD*
G04 #@! TA.AperFunction,ComponentPad*
%ADD12R,1.700000X1.700000*%
G04 #@! TD*
G04 #@! TA.AperFunction,ComponentPad*
%ADD13O,1.700000X1.700000*%
G04 #@! TD*
G04 #@! TA.AperFunction,SMDPad,CuDef*
%ADD14R,3.150000X1.000000*%
G04 #@! TD*
G04 #@! TA.AperFunction,SMDPad,CuDef*
%ADD15R,0.400000X0.600000*%
G04 #@! TD*
G04 #@! TA.AperFunction,SMDPad,CuDef*
%ADD16R,0.600000X0.400000*%
G04 #@! TD*
G04 #@! TA.AperFunction,ComponentPad*
%ADD17C,1.700000*%
G04 #@! TD*
G04 #@! TA.AperFunction,SMDPad,CuDef*
%ADD18R,0.380000X0.600000*%
G04 #@! TD*
G04 #@! TA.AperFunction,ComponentPad*
%ADD19O,1.050000X1.900000*%
G04 #@! TD*
G04 #@! TA.AperFunction,ViaPad*
%ADD20C,0.500000*%
G04 #@! TD*
G04 #@! TA.AperFunction,Conductor*
%ADD21C,0.150000*%
G04 #@! TD*
G04 #@! TA.AperFunction,Conductor*
%ADD22C,0.200000*%
G04 #@! TD*
G04 #@! TA.AperFunction,Conductor*
%ADD23C,0.254000*%
G04 #@! TD*
G04 APERTURE END LIST*
D10*
G04 #@! TO.N,GND*
G04 #@! TO.C,C12*
G36*
X147989958Y-111948710D02*
X148004276Y-111950834D01*
X148018317Y-111954351D01*
X148031946Y-111959228D01*
X148045031Y-111965417D01*
X148057447Y-111972858D01*
X148069073Y-111981481D01*
X148079798Y-111991202D01*
X148089519Y-112001927D01*
X148098142Y-112013553D01*
X148105583Y-112025969D01*
X148111772Y-112039054D01*
X148116649Y-112052683D01*
X148120166Y-112066724D01*
X148122290Y-112081042D01*
X148123000Y-112095500D01*
X148123000Y-112440500D01*
X148122290Y-112454958D01*
X148120166Y-112469276D01*
X148116649Y-112483317D01*
X148111772Y-112496946D01*
X148105583Y-112510031D01*
X148098142Y-112522447D01*
X148089519Y-112534073D01*
X148079798Y-112544798D01*
X148069073Y-112554519D01*
X148057447Y-112563142D01*
X148045031Y-112570583D01*
X148031946Y-112576772D01*
X148018317Y-112581649D01*
X148004276Y-112585166D01*
X147989958Y-112587290D01*
X147975500Y-112588000D01*
X147680500Y-112588000D01*
X147666042Y-112587290D01*
X147651724Y-112585166D01*
X147637683Y-112581649D01*
X147624054Y-112576772D01*
X147610969Y-112570583D01*
X147598553Y-112563142D01*
X147586927Y-112554519D01*
X147576202Y-112544798D01*
X147566481Y-112534073D01*
X147557858Y-112522447D01*
X147550417Y-112510031D01*
X147544228Y-112496946D01*
X147539351Y-112483317D01*
X147535834Y-112469276D01*
X147533710Y-112454958D01*
X147533000Y-112440500D01*
X147533000Y-112095500D01*
X147533710Y-112081042D01*
X147535834Y-112066724D01*
X147539351Y-112052683D01*
X147544228Y-112039054D01*
X147550417Y-112025969D01*
X147557858Y-112013553D01*
X147566481Y-112001927D01*
X147576202Y-111991202D01*
X147586927Y-111981481D01*
X147598553Y-111972858D01*
X147610969Y-111965417D01*
X147624054Y-111959228D01*
X147637683Y-111954351D01*
X147651724Y-111950834D01*
X147666042Y-111948710D01*
X147680500Y-111948000D01*
X147975500Y-111948000D01*
X147989958Y-111948710D01*
X147989958Y-111948710D01*
G37*
D11*
G04 #@! TD*
G04 #@! TO.P,C12,2*
G04 #@! TO.N,GND*
X147828000Y-112268000D03*
D10*
G04 #@! TO.N,SPI_VCCIO1*
G04 #@! TO.C,C12*
G36*
X147019958Y-111948710D02*
X147034276Y-111950834D01*
X147048317Y-111954351D01*
X147061946Y-111959228D01*
X147075031Y-111965417D01*
X147087447Y-111972858D01*
X147099073Y-111981481D01*
X147109798Y-111991202D01*
X147119519Y-112001927D01*
X147128142Y-112013553D01*
X147135583Y-112025969D01*
X147141772Y-112039054D01*
X147146649Y-112052683D01*
X147150166Y-112066724D01*
X147152290Y-112081042D01*
X147153000Y-112095500D01*
X147153000Y-112440500D01*
X147152290Y-112454958D01*
X147150166Y-112469276D01*
X147146649Y-112483317D01*
X147141772Y-112496946D01*
X147135583Y-112510031D01*
X147128142Y-112522447D01*
X147119519Y-112534073D01*
X147109798Y-112544798D01*
X147099073Y-112554519D01*
X147087447Y-112563142D01*
X147075031Y-112570583D01*
X147061946Y-112576772D01*
X147048317Y-112581649D01*
X147034276Y-112585166D01*
X147019958Y-112587290D01*
X147005500Y-112588000D01*
X146710500Y-112588000D01*
X146696042Y-112587290D01*
X146681724Y-112585166D01*
X146667683Y-112581649D01*
X146654054Y-112576772D01*
X146640969Y-112570583D01*
X146628553Y-112563142D01*
X146616927Y-112554519D01*
X146606202Y-112544798D01*
X146596481Y-112534073D01*
X146587858Y-112522447D01*
X146580417Y-112510031D01*
X146574228Y-112496946D01*
X146569351Y-112483317D01*
X146565834Y-112469276D01*
X146563710Y-112454958D01*
X146563000Y-112440500D01*
X146563000Y-112095500D01*
X146563710Y-112081042D01*
X146565834Y-112066724D01*
X146569351Y-112052683D01*
X146574228Y-112039054D01*
X146580417Y-112025969D01*
X146587858Y-112013553D01*
X146596481Y-112001927D01*
X146606202Y-111991202D01*
X146616927Y-111981481D01*
X146628553Y-111972858D01*
X146640969Y-111965417D01*
X146654054Y-111959228D01*
X146667683Y-111954351D01*
X146681724Y-111950834D01*
X146696042Y-111948710D01*
X146710500Y-111948000D01*
X147005500Y-111948000D01*
X147019958Y-111948710D01*
X147019958Y-111948710D01*
G37*
D11*
G04 #@! TD*
G04 #@! TO.P,C12,1*
G04 #@! TO.N,SPI_VCCIO1*
X146858000Y-112268000D03*
D12*
G04 #@! TO.P,J1,1*
G04 #@! TO.N,GND*
X143516000Y-97799100D03*
D13*
G04 #@! TO.P,J1,2*
G04 #@! TO.N,HL_02*
X143516000Y-100339100D03*
G04 #@! TO.P,J1,3*
G04 #@! TO.N,HL_03*
X143516000Y-102879100D03*
G04 #@! TO.P,J1,4*
G04 #@! TO.N,HL_04*
X143516000Y-105419100D03*
G04 #@! TO.P,J1,5*
G04 #@! TO.N,HL_05*
X143516000Y-107959100D03*
G04 #@! TO.P,J1,6*
G04 #@! TO.N,HL_06*
X143516000Y-110499100D03*
G04 #@! TO.P,J1,7*
G04 #@! TO.N,HL_07*
X143516000Y-113039100D03*
G04 #@! TO.P,J1,8*
G04 #@! TO.N,HL_08*
X143516000Y-115579100D03*
G04 #@! TO.P,J1,9*
G04 #@! TO.N,HL_09*
X143516000Y-118119100D03*
G04 #@! TO.P,J1,10*
G04 #@! TO.N,HL_10*
X143516000Y-120659100D03*
G04 #@! TO.P,J1,11*
G04 #@! TO.N,HL_11*
X143516000Y-123199100D03*
G04 #@! TO.P,J1,12*
G04 #@! TO.N,HL_12*
X143516000Y-125739100D03*
G04 #@! TO.P,J1,13*
G04 #@! TO.N,HL_13*
X143516000Y-128279100D03*
G04 #@! TO.P,J1,14*
G04 #@! TO.N,HL_14*
X143516000Y-130819100D03*
G04 #@! TD*
D14*
G04 #@! TO.P,J5,1*
G04 #@! TO.N,GND*
X148620000Y-131445000D03*
G04 #@! TO.P,J5,2*
G04 #@! TO.N,SCK*
X153670000Y-131445000D03*
G04 #@! TO.P,J5,3*
G04 #@! TO.N,SPI_VCCIO1*
X148620000Y-128905000D03*
G04 #@! TO.P,J5,4*
G04 #@! TO.N,SDO*
X153670000Y-128905000D03*
G04 #@! TO.P,J5,5*
G04 #@! TO.N,SS*
X148620000Y-126365000D03*
G04 #@! TO.P,J5,6*
G04 #@! TO.N,SDI*
X153670000Y-126365000D03*
G04 #@! TD*
D15*
G04 #@! TO.P,R6,1*
G04 #@! TO.N,SPI_VCCIO1*
X155332000Y-124206000D03*
G04 #@! TO.P,R6,2*
G04 #@! TO.N,CRESET_B*
X154432000Y-124206000D03*
G04 #@! TD*
D16*
G04 #@! TO.P,R7,1*
G04 #@! TO.N,SPI_VCCIO1*
X147955000Y-121793000D03*
G04 #@! TO.P,R7,2*
G04 #@! TO.N,Net-(R7-Pad2)*
X147955000Y-122693000D03*
G04 #@! TD*
D17*
G04 #@! TO.P,J2,1*
G04 #@! TO.N,+5V*
X158756000Y-97799100D03*
D13*
G04 #@! TO.P,J2,2*
G04 #@! TO.N,GND*
X158756000Y-100339100D03*
G04 #@! TO.P,J2,3*
G04 #@! TO.N,SPI_VCCIO1*
X158756000Y-102879100D03*
G04 #@! TO.P,J2,4*
G04 #@! TO.N,HR_04*
X158756000Y-105419100D03*
G04 #@! TO.P,J2,5*
G04 #@! TO.N,HR_05*
X158756000Y-107959100D03*
G04 #@! TO.P,J2,6*
G04 #@! TO.N,HR_06*
X158756000Y-110499100D03*
G04 #@! TO.P,J2,7*
G04 #@! TO.N,HR_07*
X158756000Y-113039100D03*
G04 #@! TO.P,J2,8*
G04 #@! TO.N,HR_08*
X158756000Y-115579100D03*
G04 #@! TO.P,J2,9*
G04 #@! TO.N,HR_09*
X158756000Y-118119100D03*
G04 #@! TO.P,J2,10*
G04 #@! TO.N,HR_10*
X158756000Y-120659100D03*
G04 #@! TO.P,J2,11*
G04 #@! TO.N,HR_11*
X158756000Y-123199100D03*
G04 #@! TO.P,J2,12*
G04 #@! TO.N,HR_12*
X158756000Y-125739100D03*
G04 #@! TO.P,J2,13*
G04 #@! TO.N,HR_13*
X158756000Y-128279100D03*
G04 #@! TO.P,J2,14*
G04 #@! TO.N,HR_14*
X158756000Y-130819100D03*
G04 #@! TD*
D18*
G04 #@! TO.P,R5,1*
G04 #@! TO.N,SPI_VCCIO1*
X147135000Y-124841000D03*
G04 #@! TO.P,R5,2*
G04 #@! TO.N,SS*
X146235000Y-124841000D03*
G04 #@! TD*
D16*
G04 #@! TO.P,R4,1*
G04 #@! TO.N,VCCPLL*
X149987000Y-119253000D03*
G04 #@! TO.P,R4,2*
G04 #@! TO.N,VCC_CORE*
X149987000Y-118353000D03*
G04 #@! TD*
G04 #@! TO.P,R1,1*
G04 #@! TO.N,Net-(J3-Pad3)*
X149860000Y-102356500D03*
G04 #@! TO.P,R1,2*
G04 #@! TO.N,USB_PU*
X149860000Y-103256500D03*
G04 #@! TD*
G04 #@! TO.P,R2,1*
G04 #@! TO.N,USB_P*
X151003000Y-103262000D03*
G04 #@! TO.P,R2,2*
G04 #@! TO.N,Net-(J3-Pad3)*
X151003000Y-102362000D03*
G04 #@! TD*
G04 #@! TO.P,R3,1*
G04 #@! TO.N,USB_N*
X152082500Y-103262000D03*
G04 #@! TO.P,R3,2*
G04 #@! TO.N,Net-(J3-Pad2)*
X152082500Y-102362000D03*
G04 #@! TD*
D15*
G04 #@! TO.P,R10,1*
G04 #@! TO.N,SPI_VCCIO1*
X155332000Y-122555000D03*
G04 #@! TO.P,R10,2*
G04 #@! TO.N,Net-(R10-Pad2)*
X154432000Y-122555000D03*
G04 #@! TD*
D10*
G04 #@! TO.N,+5V*
G04 #@! TO.C,C1*
G36*
X155612958Y-103603810D02*
X155627276Y-103605934D01*
X155641317Y-103609451D01*
X155654946Y-103614328D01*
X155668031Y-103620517D01*
X155680447Y-103627958D01*
X155692073Y-103636581D01*
X155702798Y-103646302D01*
X155712519Y-103657027D01*
X155721142Y-103668653D01*
X155728583Y-103681069D01*
X155734772Y-103694154D01*
X155739649Y-103707783D01*
X155743166Y-103721824D01*
X155745290Y-103736142D01*
X155746000Y-103750600D01*
X155746000Y-104095600D01*
X155745290Y-104110058D01*
X155743166Y-104124376D01*
X155739649Y-104138417D01*
X155734772Y-104152046D01*
X155728583Y-104165131D01*
X155721142Y-104177547D01*
X155712519Y-104189173D01*
X155702798Y-104199898D01*
X155692073Y-104209619D01*
X155680447Y-104218242D01*
X155668031Y-104225683D01*
X155654946Y-104231872D01*
X155641317Y-104236749D01*
X155627276Y-104240266D01*
X155612958Y-104242390D01*
X155598500Y-104243100D01*
X155303500Y-104243100D01*
X155289042Y-104242390D01*
X155274724Y-104240266D01*
X155260683Y-104236749D01*
X155247054Y-104231872D01*
X155233969Y-104225683D01*
X155221553Y-104218242D01*
X155209927Y-104209619D01*
X155199202Y-104199898D01*
X155189481Y-104189173D01*
X155180858Y-104177547D01*
X155173417Y-104165131D01*
X155167228Y-104152046D01*
X155162351Y-104138417D01*
X155158834Y-104124376D01*
X155156710Y-104110058D01*
X155156000Y-104095600D01*
X155156000Y-103750600D01*
X155156710Y-103736142D01*
X155158834Y-103721824D01*
X155162351Y-103707783D01*
X155167228Y-103694154D01*
X155173417Y-103681069D01*
X155180858Y-103668653D01*
X155189481Y-103657027D01*
X155199202Y-103646302D01*
X155209927Y-103636581D01*
X155221553Y-103627958D01*
X155233969Y-103620517D01*
X155247054Y-103614328D01*
X155260683Y-103609451D01*
X155274724Y-103605934D01*
X155289042Y-103603810D01*
X155303500Y-103603100D01*
X155598500Y-103603100D01*
X155612958Y-103603810D01*
X155612958Y-103603810D01*
G37*
D11*
G04 #@! TD*
G04 #@! TO.P,C1,1*
G04 #@! TO.N,+5V*
X155451000Y-103923100D03*
D10*
G04 #@! TO.N,GND*
G04 #@! TO.C,C1*
G36*
X156582958Y-103603810D02*
X156597276Y-103605934D01*
X156611317Y-103609451D01*
X156624946Y-103614328D01*
X156638031Y-103620517D01*
X156650447Y-103627958D01*
X156662073Y-103636581D01*
X156672798Y-103646302D01*
X156682519Y-103657027D01*
X156691142Y-103668653D01*
X156698583Y-103681069D01*
X156704772Y-103694154D01*
X156709649Y-103707783D01*
X156713166Y-103721824D01*
X156715290Y-103736142D01*
X156716000Y-103750600D01*
X156716000Y-104095600D01*
X156715290Y-104110058D01*
X156713166Y-104124376D01*
X156709649Y-104138417D01*
X156704772Y-104152046D01*
X156698583Y-104165131D01*
X156691142Y-104177547D01*
X156682519Y-104189173D01*
X156672798Y-104199898D01*
X156662073Y-104209619D01*
X156650447Y-104218242D01*
X156638031Y-104225683D01*
X156624946Y-104231872D01*
X156611317Y-104236749D01*
X156597276Y-104240266D01*
X156582958Y-104242390D01*
X156568500Y-104243100D01*
X156273500Y-104243100D01*
X156259042Y-104242390D01*
X156244724Y-104240266D01*
X156230683Y-104236749D01*
X156217054Y-104231872D01*
X156203969Y-104225683D01*
X156191553Y-104218242D01*
X156179927Y-104209619D01*
X156169202Y-104199898D01*
X156159481Y-104189173D01*
X156150858Y-104177547D01*
X156143417Y-104165131D01*
X156137228Y-104152046D01*
X156132351Y-104138417D01*
X156128834Y-104124376D01*
X156126710Y-104110058D01*
X156126000Y-104095600D01*
X156126000Y-103750600D01*
X156126710Y-103736142D01*
X156128834Y-103721824D01*
X156132351Y-103707783D01*
X156137228Y-103694154D01*
X156143417Y-103681069D01*
X156150858Y-103668653D01*
X156159481Y-103657027D01*
X156169202Y-103646302D01*
X156179927Y-103636581D01*
X156191553Y-103627958D01*
X156203969Y-103620517D01*
X156217054Y-103614328D01*
X156230683Y-103609451D01*
X156244724Y-103605934D01*
X156259042Y-103603810D01*
X156273500Y-103603100D01*
X156568500Y-103603100D01*
X156582958Y-103603810D01*
X156582958Y-103603810D01*
G37*
D11*
G04 #@! TD*
G04 #@! TO.P,C1,2*
G04 #@! TO.N,GND*
X156421000Y-103923100D03*
D10*
G04 #@! TO.N,GND*
G04 #@! TO.C,C2*
G36*
X156582958Y-107203810D02*
X156597276Y-107205934D01*
X156611317Y-107209451D01*
X156624946Y-107214328D01*
X156638031Y-107220517D01*
X156650447Y-107227958D01*
X156662073Y-107236581D01*
X156672798Y-107246302D01*
X156682519Y-107257027D01*
X156691142Y-107268653D01*
X156698583Y-107281069D01*
X156704772Y-107294154D01*
X156709649Y-107307783D01*
X156713166Y-107321824D01*
X156715290Y-107336142D01*
X156716000Y-107350600D01*
X156716000Y-107695600D01*
X156715290Y-107710058D01*
X156713166Y-107724376D01*
X156709649Y-107738417D01*
X156704772Y-107752046D01*
X156698583Y-107765131D01*
X156691142Y-107777547D01*
X156682519Y-107789173D01*
X156672798Y-107799898D01*
X156662073Y-107809619D01*
X156650447Y-107818242D01*
X156638031Y-107825683D01*
X156624946Y-107831872D01*
X156611317Y-107836749D01*
X156597276Y-107840266D01*
X156582958Y-107842390D01*
X156568500Y-107843100D01*
X156273500Y-107843100D01*
X156259042Y-107842390D01*
X156244724Y-107840266D01*
X156230683Y-107836749D01*
X156217054Y-107831872D01*
X156203969Y-107825683D01*
X156191553Y-107818242D01*
X156179927Y-107809619D01*
X156169202Y-107799898D01*
X156159481Y-107789173D01*
X156150858Y-107777547D01*
X156143417Y-107765131D01*
X156137228Y-107752046D01*
X156132351Y-107738417D01*
X156128834Y-107724376D01*
X156126710Y-107710058D01*
X156126000Y-107695600D01*
X156126000Y-107350600D01*
X156126710Y-107336142D01*
X156128834Y-107321824D01*
X156132351Y-107307783D01*
X156137228Y-107294154D01*
X156143417Y-107281069D01*
X156150858Y-107268653D01*
X156159481Y-107257027D01*
X156169202Y-107246302D01*
X156179927Y-107236581D01*
X156191553Y-107227958D01*
X156203969Y-107220517D01*
X156217054Y-107214328D01*
X156230683Y-107209451D01*
X156244724Y-107205934D01*
X156259042Y-107203810D01*
X156273500Y-107203100D01*
X156568500Y-107203100D01*
X156582958Y-107203810D01*
X156582958Y-107203810D01*
G37*
D11*
G04 #@! TD*
G04 #@! TO.P,C2,2*
G04 #@! TO.N,GND*
X156421000Y-107523100D03*
D10*
G04 #@! TO.N,SPI_VCCIO1*
G04 #@! TO.C,C2*
G36*
X155612958Y-107203810D02*
X155627276Y-107205934D01*
X155641317Y-107209451D01*
X155654946Y-107214328D01*
X155668031Y-107220517D01*
X155680447Y-107227958D01*
X155692073Y-107236581D01*
X155702798Y-107246302D01*
X155712519Y-107257027D01*
X155721142Y-107268653D01*
X155728583Y-107281069D01*
X155734772Y-107294154D01*
X155739649Y-107307783D01*
X155743166Y-107321824D01*
X155745290Y-107336142D01*
X155746000Y-107350600D01*
X155746000Y-107695600D01*
X155745290Y-107710058D01*
X155743166Y-107724376D01*
X155739649Y-107738417D01*
X155734772Y-107752046D01*
X155728583Y-107765131D01*
X155721142Y-107777547D01*
X155712519Y-107789173D01*
X155702798Y-107799898D01*
X155692073Y-107809619D01*
X155680447Y-107818242D01*
X155668031Y-107825683D01*
X155654946Y-107831872D01*
X155641317Y-107836749D01*
X155627276Y-107840266D01*
X155612958Y-107842390D01*
X155598500Y-107843100D01*
X155303500Y-107843100D01*
X155289042Y-107842390D01*
X155274724Y-107840266D01*
X155260683Y-107836749D01*
X155247054Y-107831872D01*
X155233969Y-107825683D01*
X155221553Y-107818242D01*
X155209927Y-107809619D01*
X155199202Y-107799898D01*
X155189481Y-107789173D01*
X155180858Y-107777547D01*
X155173417Y-107765131D01*
X155167228Y-107752046D01*
X155162351Y-107738417D01*
X155158834Y-107724376D01*
X155156710Y-107710058D01*
X155156000Y-107695600D01*
X155156000Y-107350600D01*
X155156710Y-107336142D01*
X155158834Y-107321824D01*
X155162351Y-107307783D01*
X155167228Y-107294154D01*
X155173417Y-107281069D01*
X155180858Y-107268653D01*
X155189481Y-107257027D01*
X155199202Y-107246302D01*
X155209927Y-107236581D01*
X155221553Y-107227958D01*
X155233969Y-107220517D01*
X155247054Y-107214328D01*
X155260683Y-107209451D01*
X155274724Y-107205934D01*
X155289042Y-107203810D01*
X155303500Y-107203100D01*
X155598500Y-107203100D01*
X155612958Y-107203810D01*
X155612958Y-107203810D01*
G37*
D11*
G04 #@! TD*
G04 #@! TO.P,C2,1*
G04 #@! TO.N,SPI_VCCIO1*
X155451000Y-107523100D03*
D10*
G04 #@! TO.N,GND*
G04 #@! TO.C,C4*
G36*
X156582958Y-106003810D02*
X156597276Y-106005934D01*
X156611317Y-106009451D01*
X156624946Y-106014328D01*
X156638031Y-106020517D01*
X156650447Y-106027958D01*
X156662073Y-106036581D01*
X156672798Y-106046302D01*
X156682519Y-106057027D01*
X156691142Y-106068653D01*
X156698583Y-106081069D01*
X156704772Y-106094154D01*
X156709649Y-106107783D01*
X156713166Y-106121824D01*
X156715290Y-106136142D01*
X156716000Y-106150600D01*
X156716000Y-106495600D01*
X156715290Y-106510058D01*
X156713166Y-106524376D01*
X156709649Y-106538417D01*
X156704772Y-106552046D01*
X156698583Y-106565131D01*
X156691142Y-106577547D01*
X156682519Y-106589173D01*
X156672798Y-106599898D01*
X156662073Y-106609619D01*
X156650447Y-106618242D01*
X156638031Y-106625683D01*
X156624946Y-106631872D01*
X156611317Y-106636749D01*
X156597276Y-106640266D01*
X156582958Y-106642390D01*
X156568500Y-106643100D01*
X156273500Y-106643100D01*
X156259042Y-106642390D01*
X156244724Y-106640266D01*
X156230683Y-106636749D01*
X156217054Y-106631872D01*
X156203969Y-106625683D01*
X156191553Y-106618242D01*
X156179927Y-106609619D01*
X156169202Y-106599898D01*
X156159481Y-106589173D01*
X156150858Y-106577547D01*
X156143417Y-106565131D01*
X156137228Y-106552046D01*
X156132351Y-106538417D01*
X156128834Y-106524376D01*
X156126710Y-106510058D01*
X156126000Y-106495600D01*
X156126000Y-106150600D01*
X156126710Y-106136142D01*
X156128834Y-106121824D01*
X156132351Y-106107783D01*
X156137228Y-106094154D01*
X156143417Y-106081069D01*
X156150858Y-106068653D01*
X156159481Y-106057027D01*
X156169202Y-106046302D01*
X156179927Y-106036581D01*
X156191553Y-106027958D01*
X156203969Y-106020517D01*
X156217054Y-106014328D01*
X156230683Y-106009451D01*
X156244724Y-106005934D01*
X156259042Y-106003810D01*
X156273500Y-106003100D01*
X156568500Y-106003100D01*
X156582958Y-106003810D01*
X156582958Y-106003810D01*
G37*
D11*
G04 #@! TD*
G04 #@! TO.P,C4,2*
G04 #@! TO.N,GND*
X156421000Y-106323100D03*
D10*
G04 #@! TO.N,SPI_VCCIO1*
G04 #@! TO.C,C4*
G36*
X155612958Y-106003810D02*
X155627276Y-106005934D01*
X155641317Y-106009451D01*
X155654946Y-106014328D01*
X155668031Y-106020517D01*
X155680447Y-106027958D01*
X155692073Y-106036581D01*
X155702798Y-106046302D01*
X155712519Y-106057027D01*
X155721142Y-106068653D01*
X155728583Y-106081069D01*
X155734772Y-106094154D01*
X155739649Y-106107783D01*
X155743166Y-106121824D01*
X155745290Y-106136142D01*
X155746000Y-106150600D01*
X155746000Y-106495600D01*
X155745290Y-106510058D01*
X155743166Y-106524376D01*
X155739649Y-106538417D01*
X155734772Y-106552046D01*
X155728583Y-106565131D01*
X155721142Y-106577547D01*
X155712519Y-106589173D01*
X155702798Y-106599898D01*
X155692073Y-106609619D01*
X155680447Y-106618242D01*
X155668031Y-106625683D01*
X155654946Y-106631872D01*
X155641317Y-106636749D01*
X155627276Y-106640266D01*
X155612958Y-106642390D01*
X155598500Y-106643100D01*
X155303500Y-106643100D01*
X155289042Y-106642390D01*
X155274724Y-106640266D01*
X155260683Y-106636749D01*
X155247054Y-106631872D01*
X155233969Y-106625683D01*
X155221553Y-106618242D01*
X155209927Y-106609619D01*
X155199202Y-106599898D01*
X155189481Y-106589173D01*
X155180858Y-106577547D01*
X155173417Y-106565131D01*
X155167228Y-106552046D01*
X155162351Y-106538417D01*
X155158834Y-106524376D01*
X155156710Y-106510058D01*
X155156000Y-106495600D01*
X155156000Y-106150600D01*
X155156710Y-106136142D01*
X155158834Y-106121824D01*
X155162351Y-106107783D01*
X155167228Y-106094154D01*
X155173417Y-106081069D01*
X155180858Y-106068653D01*
X155189481Y-106057027D01*
X155199202Y-106046302D01*
X155209927Y-106036581D01*
X155221553Y-106027958D01*
X155233969Y-106020517D01*
X155247054Y-106014328D01*
X155260683Y-106009451D01*
X155274724Y-106005934D01*
X155289042Y-106003810D01*
X155303500Y-106003100D01*
X155598500Y-106003100D01*
X155612958Y-106003810D01*
X155612958Y-106003810D01*
G37*
D11*
G04 #@! TD*
G04 #@! TO.P,C4,1*
G04 #@! TO.N,SPI_VCCIO1*
X155451000Y-106323100D03*
D10*
G04 #@! TO.N,GND*
G04 #@! TO.C,C5*
G36*
X154512958Y-120457710D02*
X154527276Y-120459834D01*
X154541317Y-120463351D01*
X154554946Y-120468228D01*
X154568031Y-120474417D01*
X154580447Y-120481858D01*
X154592073Y-120490481D01*
X154602798Y-120500202D01*
X154612519Y-120510927D01*
X154621142Y-120522553D01*
X154628583Y-120534969D01*
X154634772Y-120548054D01*
X154639649Y-120561683D01*
X154643166Y-120575724D01*
X154645290Y-120590042D01*
X154646000Y-120604500D01*
X154646000Y-120949500D01*
X154645290Y-120963958D01*
X154643166Y-120978276D01*
X154639649Y-120992317D01*
X154634772Y-121005946D01*
X154628583Y-121019031D01*
X154621142Y-121031447D01*
X154612519Y-121043073D01*
X154602798Y-121053798D01*
X154592073Y-121063519D01*
X154580447Y-121072142D01*
X154568031Y-121079583D01*
X154554946Y-121085772D01*
X154541317Y-121090649D01*
X154527276Y-121094166D01*
X154512958Y-121096290D01*
X154498500Y-121097000D01*
X154203500Y-121097000D01*
X154189042Y-121096290D01*
X154174724Y-121094166D01*
X154160683Y-121090649D01*
X154147054Y-121085772D01*
X154133969Y-121079583D01*
X154121553Y-121072142D01*
X154109927Y-121063519D01*
X154099202Y-121053798D01*
X154089481Y-121043073D01*
X154080858Y-121031447D01*
X154073417Y-121019031D01*
X154067228Y-121005946D01*
X154062351Y-120992317D01*
X154058834Y-120978276D01*
X154056710Y-120963958D01*
X154056000Y-120949500D01*
X154056000Y-120604500D01*
X154056710Y-120590042D01*
X154058834Y-120575724D01*
X154062351Y-120561683D01*
X154067228Y-120548054D01*
X154073417Y-120534969D01*
X154080858Y-120522553D01*
X154089481Y-120510927D01*
X154099202Y-120500202D01*
X154109927Y-120490481D01*
X154121553Y-120481858D01*
X154133969Y-120474417D01*
X154147054Y-120468228D01*
X154160683Y-120463351D01*
X154174724Y-120459834D01*
X154189042Y-120457710D01*
X154203500Y-120457000D01*
X154498500Y-120457000D01*
X154512958Y-120457710D01*
X154512958Y-120457710D01*
G37*
D11*
G04 #@! TD*
G04 #@! TO.P,C5,2*
G04 #@! TO.N,GND*
X154351000Y-120777000D03*
D10*
G04 #@! TO.N,SPI_VCCIO1*
G04 #@! TO.C,C5*
G36*
X155482958Y-120457710D02*
X155497276Y-120459834D01*
X155511317Y-120463351D01*
X155524946Y-120468228D01*
X155538031Y-120474417D01*
X155550447Y-120481858D01*
X155562073Y-120490481D01*
X155572798Y-120500202D01*
X155582519Y-120510927D01*
X155591142Y-120522553D01*
X155598583Y-120534969D01*
X155604772Y-120548054D01*
X155609649Y-120561683D01*
X155613166Y-120575724D01*
X155615290Y-120590042D01*
X155616000Y-120604500D01*
X155616000Y-120949500D01*
X155615290Y-120963958D01*
X155613166Y-120978276D01*
X155609649Y-120992317D01*
X155604772Y-121005946D01*
X155598583Y-121019031D01*
X155591142Y-121031447D01*
X155582519Y-121043073D01*
X155572798Y-121053798D01*
X155562073Y-121063519D01*
X155550447Y-121072142D01*
X155538031Y-121079583D01*
X155524946Y-121085772D01*
X155511317Y-121090649D01*
X155497276Y-121094166D01*
X155482958Y-121096290D01*
X155468500Y-121097000D01*
X155173500Y-121097000D01*
X155159042Y-121096290D01*
X155144724Y-121094166D01*
X155130683Y-121090649D01*
X155117054Y-121085772D01*
X155103969Y-121079583D01*
X155091553Y-121072142D01*
X155079927Y-121063519D01*
X155069202Y-121053798D01*
X155059481Y-121043073D01*
X155050858Y-121031447D01*
X155043417Y-121019031D01*
X155037228Y-121005946D01*
X155032351Y-120992317D01*
X155028834Y-120978276D01*
X155026710Y-120963958D01*
X155026000Y-120949500D01*
X155026000Y-120604500D01*
X155026710Y-120590042D01*
X155028834Y-120575724D01*
X155032351Y-120561683D01*
X155037228Y-120548054D01*
X155043417Y-120534969D01*
X155050858Y-120522553D01*
X155059481Y-120510927D01*
X155069202Y-120500202D01*
X155079927Y-120490481D01*
X155091553Y-120481858D01*
X155103969Y-120474417D01*
X155117054Y-120468228D01*
X155130683Y-120463351D01*
X155144724Y-120459834D01*
X155159042Y-120457710D01*
X155173500Y-120457000D01*
X155468500Y-120457000D01*
X155482958Y-120457710D01*
X155482958Y-120457710D01*
G37*
D11*
G04 #@! TD*
G04 #@! TO.P,C5,1*
G04 #@! TO.N,SPI_VCCIO1*
X155321000Y-120777000D03*
D10*
G04 #@! TO.N,VCCPLL*
G04 #@! TO.C,C6*
G36*
X149030958Y-118981710D02*
X149045276Y-118983834D01*
X149059317Y-118987351D01*
X149072946Y-118992228D01*
X149086031Y-118998417D01*
X149098447Y-119005858D01*
X149110073Y-119014481D01*
X149120798Y-119024202D01*
X149130519Y-119034927D01*
X149139142Y-119046553D01*
X149146583Y-119058969D01*
X149152772Y-119072054D01*
X149157649Y-119085683D01*
X149161166Y-119099724D01*
X149163290Y-119114042D01*
X149164000Y-119128500D01*
X149164000Y-119423500D01*
X149163290Y-119437958D01*
X149161166Y-119452276D01*
X149157649Y-119466317D01*
X149152772Y-119479946D01*
X149146583Y-119493031D01*
X149139142Y-119505447D01*
X149130519Y-119517073D01*
X149120798Y-119527798D01*
X149110073Y-119537519D01*
X149098447Y-119546142D01*
X149086031Y-119553583D01*
X149072946Y-119559772D01*
X149059317Y-119564649D01*
X149045276Y-119568166D01*
X149030958Y-119570290D01*
X149016500Y-119571000D01*
X148671500Y-119571000D01*
X148657042Y-119570290D01*
X148642724Y-119568166D01*
X148628683Y-119564649D01*
X148615054Y-119559772D01*
X148601969Y-119553583D01*
X148589553Y-119546142D01*
X148577927Y-119537519D01*
X148567202Y-119527798D01*
X148557481Y-119517073D01*
X148548858Y-119505447D01*
X148541417Y-119493031D01*
X148535228Y-119479946D01*
X148530351Y-119466317D01*
X148526834Y-119452276D01*
X148524710Y-119437958D01*
X148524000Y-119423500D01*
X148524000Y-119128500D01*
X148524710Y-119114042D01*
X148526834Y-119099724D01*
X148530351Y-119085683D01*
X148535228Y-119072054D01*
X148541417Y-119058969D01*
X148548858Y-119046553D01*
X148557481Y-119034927D01*
X148567202Y-119024202D01*
X148577927Y-119014481D01*
X148589553Y-119005858D01*
X148601969Y-118998417D01*
X148615054Y-118992228D01*
X148628683Y-118987351D01*
X148642724Y-118983834D01*
X148657042Y-118981710D01*
X148671500Y-118981000D01*
X149016500Y-118981000D01*
X149030958Y-118981710D01*
X149030958Y-118981710D01*
G37*
D11*
G04 #@! TD*
G04 #@! TO.P,C6,1*
G04 #@! TO.N,VCCPLL*
X148844000Y-119276000D03*
D10*
G04 #@! TO.N,GND*
G04 #@! TO.C,C6*
G36*
X149030958Y-119951710D02*
X149045276Y-119953834D01*
X149059317Y-119957351D01*
X149072946Y-119962228D01*
X149086031Y-119968417D01*
X149098447Y-119975858D01*
X149110073Y-119984481D01*
X149120798Y-119994202D01*
X149130519Y-120004927D01*
X149139142Y-120016553D01*
X149146583Y-120028969D01*
X149152772Y-120042054D01*
X149157649Y-120055683D01*
X149161166Y-120069724D01*
X149163290Y-120084042D01*
X149164000Y-120098500D01*
X149164000Y-120393500D01*
X149163290Y-120407958D01*
X149161166Y-120422276D01*
X149157649Y-120436317D01*
X149152772Y-120449946D01*
X149146583Y-120463031D01*
X149139142Y-120475447D01*
X149130519Y-120487073D01*
X149120798Y-120497798D01*
X149110073Y-120507519D01*
X149098447Y-120516142D01*
X149086031Y-120523583D01*
X149072946Y-120529772D01*
X149059317Y-120534649D01*
X149045276Y-120538166D01*
X149030958Y-120540290D01*
X149016500Y-120541000D01*
X148671500Y-120541000D01*
X148657042Y-120540290D01*
X148642724Y-120538166D01*
X148628683Y-120534649D01*
X148615054Y-120529772D01*
X148601969Y-120523583D01*
X148589553Y-120516142D01*
X148577927Y-120507519D01*
X148567202Y-120497798D01*
X148557481Y-120487073D01*
X148548858Y-120475447D01*
X148541417Y-120463031D01*
X148535228Y-120449946D01*
X148530351Y-120436317D01*
X148526834Y-120422276D01*
X148524710Y-120407958D01*
X148524000Y-120393500D01*
X148524000Y-120098500D01*
X148524710Y-120084042D01*
X148526834Y-120069724D01*
X148530351Y-120055683D01*
X148535228Y-120042054D01*
X148541417Y-120028969D01*
X148548858Y-120016553D01*
X148557481Y-120004927D01*
X148567202Y-119994202D01*
X148577927Y-119984481D01*
X148589553Y-119975858D01*
X148601969Y-119968417D01*
X148615054Y-119962228D01*
X148628683Y-119957351D01*
X148642724Y-119953834D01*
X148657042Y-119951710D01*
X148671500Y-119951000D01*
X149016500Y-119951000D01*
X149030958Y-119951710D01*
X149030958Y-119951710D01*
G37*
D11*
G04 #@! TD*
G04 #@! TO.P,C6,2*
G04 #@! TO.N,GND*
X148844000Y-120246000D03*
D10*
G04 #@! TO.N,SPI_VCCIO1*
G04 #@! TO.C,C8*
G36*
X147227958Y-117155710D02*
X147242276Y-117157834D01*
X147256317Y-117161351D01*
X147269946Y-117166228D01*
X147283031Y-117172417D01*
X147295447Y-117179858D01*
X147307073Y-117188481D01*
X147317798Y-117198202D01*
X147327519Y-117208927D01*
X147336142Y-117220553D01*
X147343583Y-117232969D01*
X147349772Y-117246054D01*
X147354649Y-117259683D01*
X147358166Y-117273724D01*
X147360290Y-117288042D01*
X147361000Y-117302500D01*
X147361000Y-117647500D01*
X147360290Y-117661958D01*
X147358166Y-117676276D01*
X147354649Y-117690317D01*
X147349772Y-117703946D01*
X147343583Y-117717031D01*
X147336142Y-117729447D01*
X147327519Y-117741073D01*
X147317798Y-117751798D01*
X147307073Y-117761519D01*
X147295447Y-117770142D01*
X147283031Y-117777583D01*
X147269946Y-117783772D01*
X147256317Y-117788649D01*
X147242276Y-117792166D01*
X147227958Y-117794290D01*
X147213500Y-117795000D01*
X146918500Y-117795000D01*
X146904042Y-117794290D01*
X146889724Y-117792166D01*
X146875683Y-117788649D01*
X146862054Y-117783772D01*
X146848969Y-117777583D01*
X146836553Y-117770142D01*
X146824927Y-117761519D01*
X146814202Y-117751798D01*
X146804481Y-117741073D01*
X146795858Y-117729447D01*
X146788417Y-117717031D01*
X146782228Y-117703946D01*
X146777351Y-117690317D01*
X146773834Y-117676276D01*
X146771710Y-117661958D01*
X146771000Y-117647500D01*
X146771000Y-117302500D01*
X146771710Y-117288042D01*
X146773834Y-117273724D01*
X146777351Y-117259683D01*
X146782228Y-117246054D01*
X146788417Y-117232969D01*
X146795858Y-117220553D01*
X146804481Y-117208927D01*
X146814202Y-117198202D01*
X146824927Y-117188481D01*
X146836553Y-117179858D01*
X146848969Y-117172417D01*
X146862054Y-117166228D01*
X146875683Y-117161351D01*
X146889724Y-117157834D01*
X146904042Y-117155710D01*
X146918500Y-117155000D01*
X147213500Y-117155000D01*
X147227958Y-117155710D01*
X147227958Y-117155710D01*
G37*
D11*
G04 #@! TD*
G04 #@! TO.P,C8,1*
G04 #@! TO.N,SPI_VCCIO1*
X147066000Y-117475000D03*
D10*
G04 #@! TO.N,GND*
G04 #@! TO.C,C8*
G36*
X148197958Y-117155710D02*
X148212276Y-117157834D01*
X148226317Y-117161351D01*
X148239946Y-117166228D01*
X148253031Y-117172417D01*
X148265447Y-117179858D01*
X148277073Y-117188481D01*
X148287798Y-117198202D01*
X148297519Y-117208927D01*
X148306142Y-117220553D01*
X148313583Y-117232969D01*
X148319772Y-117246054D01*
X148324649Y-117259683D01*
X148328166Y-117273724D01*
X148330290Y-117288042D01*
X148331000Y-117302500D01*
X148331000Y-117647500D01*
X148330290Y-117661958D01*
X148328166Y-117676276D01*
X148324649Y-117690317D01*
X148319772Y-117703946D01*
X148313583Y-117717031D01*
X148306142Y-117729447D01*
X148297519Y-117741073D01*
X148287798Y-117751798D01*
X148277073Y-117761519D01*
X148265447Y-117770142D01*
X148253031Y-117777583D01*
X148239946Y-117783772D01*
X148226317Y-117788649D01*
X148212276Y-117792166D01*
X148197958Y-117794290D01*
X148183500Y-117795000D01*
X147888500Y-117795000D01*
X147874042Y-117794290D01*
X147859724Y-117792166D01*
X147845683Y-117788649D01*
X147832054Y-117783772D01*
X147818969Y-117777583D01*
X147806553Y-117770142D01*
X147794927Y-117761519D01*
X147784202Y-117751798D01*
X147774481Y-117741073D01*
X147765858Y-117729447D01*
X147758417Y-117717031D01*
X147752228Y-117703946D01*
X147747351Y-117690317D01*
X147743834Y-117676276D01*
X147741710Y-117661958D01*
X147741000Y-117647500D01*
X147741000Y-117302500D01*
X147741710Y-117288042D01*
X147743834Y-117273724D01*
X147747351Y-117259683D01*
X147752228Y-117246054D01*
X147758417Y-117232969D01*
X147765858Y-117220553D01*
X147774481Y-117208927D01*
X147784202Y-117198202D01*
X147794927Y-117188481D01*
X147806553Y-117179858D01*
X147818969Y-117172417D01*
X147832054Y-117166228D01*
X147845683Y-117161351D01*
X147859724Y-117157834D01*
X147874042Y-117155710D01*
X147888500Y-117155000D01*
X148183500Y-117155000D01*
X148197958Y-117155710D01*
X148197958Y-117155710D01*
G37*
D11*
G04 #@! TD*
G04 #@! TO.P,C8,2*
G04 #@! TO.N,GND*
X148036000Y-117475000D03*
D10*
G04 #@! TO.N,GND*
G04 #@! TO.C,C9*
G36*
X152840958Y-119189710D02*
X152855276Y-119191834D01*
X152869317Y-119195351D01*
X152882946Y-119200228D01*
X152896031Y-119206417D01*
X152908447Y-119213858D01*
X152920073Y-119222481D01*
X152930798Y-119232202D01*
X152940519Y-119242927D01*
X152949142Y-119254553D01*
X152956583Y-119266969D01*
X152962772Y-119280054D01*
X152967649Y-119293683D01*
X152971166Y-119307724D01*
X152973290Y-119322042D01*
X152974000Y-119336500D01*
X152974000Y-119631500D01*
X152973290Y-119645958D01*
X152971166Y-119660276D01*
X152967649Y-119674317D01*
X152962772Y-119687946D01*
X152956583Y-119701031D01*
X152949142Y-119713447D01*
X152940519Y-119725073D01*
X152930798Y-119735798D01*
X152920073Y-119745519D01*
X152908447Y-119754142D01*
X152896031Y-119761583D01*
X152882946Y-119767772D01*
X152869317Y-119772649D01*
X152855276Y-119776166D01*
X152840958Y-119778290D01*
X152826500Y-119779000D01*
X152481500Y-119779000D01*
X152467042Y-119778290D01*
X152452724Y-119776166D01*
X152438683Y-119772649D01*
X152425054Y-119767772D01*
X152411969Y-119761583D01*
X152399553Y-119754142D01*
X152387927Y-119745519D01*
X152377202Y-119735798D01*
X152367481Y-119725073D01*
X152358858Y-119713447D01*
X152351417Y-119701031D01*
X152345228Y-119687946D01*
X152340351Y-119674317D01*
X152336834Y-119660276D01*
X152334710Y-119645958D01*
X152334000Y-119631500D01*
X152334000Y-119336500D01*
X152334710Y-119322042D01*
X152336834Y-119307724D01*
X152340351Y-119293683D01*
X152345228Y-119280054D01*
X152351417Y-119266969D01*
X152358858Y-119254553D01*
X152367481Y-119242927D01*
X152377202Y-119232202D01*
X152387927Y-119222481D01*
X152399553Y-119213858D01*
X152411969Y-119206417D01*
X152425054Y-119200228D01*
X152438683Y-119195351D01*
X152452724Y-119191834D01*
X152467042Y-119189710D01*
X152481500Y-119189000D01*
X152826500Y-119189000D01*
X152840958Y-119189710D01*
X152840958Y-119189710D01*
G37*
D11*
G04 #@! TD*
G04 #@! TO.P,C9,2*
G04 #@! TO.N,GND*
X152654000Y-119484000D03*
D10*
G04 #@! TO.N,SPI_VCCIO1*
G04 #@! TO.C,C9*
G36*
X152840958Y-118219710D02*
X152855276Y-118221834D01*
X152869317Y-118225351D01*
X152882946Y-118230228D01*
X152896031Y-118236417D01*
X152908447Y-118243858D01*
X152920073Y-118252481D01*
X152930798Y-118262202D01*
X152940519Y-118272927D01*
X152949142Y-118284553D01*
X152956583Y-118296969D01*
X152962772Y-118310054D01*
X152967649Y-118323683D01*
X152971166Y-118337724D01*
X152973290Y-118352042D01*
X152974000Y-118366500D01*
X152974000Y-118661500D01*
X152973290Y-118675958D01*
X152971166Y-118690276D01*
X152967649Y-118704317D01*
X152962772Y-118717946D01*
X152956583Y-118731031D01*
X152949142Y-118743447D01*
X152940519Y-118755073D01*
X152930798Y-118765798D01*
X152920073Y-118775519D01*
X152908447Y-118784142D01*
X152896031Y-118791583D01*
X152882946Y-118797772D01*
X152869317Y-118802649D01*
X152855276Y-118806166D01*
X152840958Y-118808290D01*
X152826500Y-118809000D01*
X152481500Y-118809000D01*
X152467042Y-118808290D01*
X152452724Y-118806166D01*
X152438683Y-118802649D01*
X152425054Y-118797772D01*
X152411969Y-118791583D01*
X152399553Y-118784142D01*
X152387927Y-118775519D01*
X152377202Y-118765798D01*
X152367481Y-118755073D01*
X152358858Y-118743447D01*
X152351417Y-118731031D01*
X152345228Y-118717946D01*
X152340351Y-118704317D01*
X152336834Y-118690276D01*
X152334710Y-118675958D01*
X152334000Y-118661500D01*
X152334000Y-118366500D01*
X152334710Y-118352042D01*
X152336834Y-118337724D01*
X152340351Y-118323683D01*
X152345228Y-118310054D01*
X152351417Y-118296969D01*
X152358858Y-118284553D01*
X152367481Y-118272927D01*
X152377202Y-118262202D01*
X152387927Y-118252481D01*
X152399553Y-118243858D01*
X152411969Y-118236417D01*
X152425054Y-118230228D01*
X152438683Y-118225351D01*
X152452724Y-118221834D01*
X152467042Y-118219710D01*
X152481500Y-118219000D01*
X152826500Y-118219000D01*
X152840958Y-118219710D01*
X152840958Y-118219710D01*
G37*
D11*
G04 #@! TD*
G04 #@! TO.P,C9,1*
G04 #@! TO.N,SPI_VCCIO1*
X152654000Y-118514000D03*
D10*
G04 #@! TO.N,GND*
G04 #@! TO.C,C10*
G36*
X146211958Y-108265710D02*
X146226276Y-108267834D01*
X146240317Y-108271351D01*
X146253946Y-108276228D01*
X146267031Y-108282417D01*
X146279447Y-108289858D01*
X146291073Y-108298481D01*
X146301798Y-108308202D01*
X146311519Y-108318927D01*
X146320142Y-108330553D01*
X146327583Y-108342969D01*
X146333772Y-108356054D01*
X146338649Y-108369683D01*
X146342166Y-108383724D01*
X146344290Y-108398042D01*
X146345000Y-108412500D01*
X146345000Y-108757500D01*
X146344290Y-108771958D01*
X146342166Y-108786276D01*
X146338649Y-108800317D01*
X146333772Y-108813946D01*
X146327583Y-108827031D01*
X146320142Y-108839447D01*
X146311519Y-108851073D01*
X146301798Y-108861798D01*
X146291073Y-108871519D01*
X146279447Y-108880142D01*
X146267031Y-108887583D01*
X146253946Y-108893772D01*
X146240317Y-108898649D01*
X146226276Y-108902166D01*
X146211958Y-108904290D01*
X146197500Y-108905000D01*
X145902500Y-108905000D01*
X145888042Y-108904290D01*
X145873724Y-108902166D01*
X145859683Y-108898649D01*
X145846054Y-108893772D01*
X145832969Y-108887583D01*
X145820553Y-108880142D01*
X145808927Y-108871519D01*
X145798202Y-108861798D01*
X145788481Y-108851073D01*
X145779858Y-108839447D01*
X145772417Y-108827031D01*
X145766228Y-108813946D01*
X145761351Y-108800317D01*
X145757834Y-108786276D01*
X145755710Y-108771958D01*
X145755000Y-108757500D01*
X145755000Y-108412500D01*
X145755710Y-108398042D01*
X145757834Y-108383724D01*
X145761351Y-108369683D01*
X145766228Y-108356054D01*
X145772417Y-108342969D01*
X145779858Y-108330553D01*
X145788481Y-108318927D01*
X145798202Y-108308202D01*
X145808927Y-108298481D01*
X145820553Y-108289858D01*
X145832969Y-108282417D01*
X145846054Y-108276228D01*
X145859683Y-108271351D01*
X145873724Y-108267834D01*
X145888042Y-108265710D01*
X145902500Y-108265000D01*
X146197500Y-108265000D01*
X146211958Y-108265710D01*
X146211958Y-108265710D01*
G37*
D11*
G04 #@! TD*
G04 #@! TO.P,C10,2*
G04 #@! TO.N,GND*
X146050000Y-108585000D03*
D10*
G04 #@! TO.N,SPI_VCCIO1*
G04 #@! TO.C,C10*
G36*
X147181958Y-108265710D02*
X147196276Y-108267834D01*
X147210317Y-108271351D01*
X147223946Y-108276228D01*
X147237031Y-108282417D01*
X147249447Y-108289858D01*
X147261073Y-108298481D01*
X147271798Y-108308202D01*
X147281519Y-108318927D01*
X147290142Y-108330553D01*
X147297583Y-108342969D01*
X147303772Y-108356054D01*
X147308649Y-108369683D01*
X147312166Y-108383724D01*
X147314290Y-108398042D01*
X147315000Y-108412500D01*
X147315000Y-108757500D01*
X147314290Y-108771958D01*
X147312166Y-108786276D01*
X147308649Y-108800317D01*
X147303772Y-108813946D01*
X147297583Y-108827031D01*
X147290142Y-108839447D01*
X147281519Y-108851073D01*
X147271798Y-108861798D01*
X147261073Y-108871519D01*
X147249447Y-108880142D01*
X147237031Y-108887583D01*
X147223946Y-108893772D01*
X147210317Y-108898649D01*
X147196276Y-108902166D01*
X147181958Y-108904290D01*
X147167500Y-108905000D01*
X146872500Y-108905000D01*
X146858042Y-108904290D01*
X146843724Y-108902166D01*
X146829683Y-108898649D01*
X146816054Y-108893772D01*
X146802969Y-108887583D01*
X146790553Y-108880142D01*
X146778927Y-108871519D01*
X146768202Y-108861798D01*
X146758481Y-108851073D01*
X146749858Y-108839447D01*
X146742417Y-108827031D01*
X146736228Y-108813946D01*
X146731351Y-108800317D01*
X146727834Y-108786276D01*
X146725710Y-108771958D01*
X146725000Y-108757500D01*
X146725000Y-108412500D01*
X146725710Y-108398042D01*
X146727834Y-108383724D01*
X146731351Y-108369683D01*
X146736228Y-108356054D01*
X146742417Y-108342969D01*
X146749858Y-108330553D01*
X146758481Y-108318927D01*
X146768202Y-108308202D01*
X146778927Y-108298481D01*
X146790553Y-108289858D01*
X146802969Y-108282417D01*
X146816054Y-108276228D01*
X146829683Y-108271351D01*
X146843724Y-108267834D01*
X146858042Y-108265710D01*
X146872500Y-108265000D01*
X147167500Y-108265000D01*
X147181958Y-108265710D01*
X147181958Y-108265710D01*
G37*
D11*
G04 #@! TD*
G04 #@! TO.P,C10,1*
G04 #@! TO.N,SPI_VCCIO1*
X147020000Y-108585000D03*
D10*
G04 #@! TO.N,SPI_VCCIO1*
G04 #@! TO.C,C11*
G36*
X147181958Y-110043710D02*
X147196276Y-110045834D01*
X147210317Y-110049351D01*
X147223946Y-110054228D01*
X147237031Y-110060417D01*
X147249447Y-110067858D01*
X147261073Y-110076481D01*
X147271798Y-110086202D01*
X147281519Y-110096927D01*
X147290142Y-110108553D01*
X147297583Y-110120969D01*
X147303772Y-110134054D01*
X147308649Y-110147683D01*
X147312166Y-110161724D01*
X147314290Y-110176042D01*
X147315000Y-110190500D01*
X147315000Y-110535500D01*
X147314290Y-110549958D01*
X147312166Y-110564276D01*
X147308649Y-110578317D01*
X147303772Y-110591946D01*
X147297583Y-110605031D01*
X147290142Y-110617447D01*
X147281519Y-110629073D01*
X147271798Y-110639798D01*
X147261073Y-110649519D01*
X147249447Y-110658142D01*
X147237031Y-110665583D01*
X147223946Y-110671772D01*
X147210317Y-110676649D01*
X147196276Y-110680166D01*
X147181958Y-110682290D01*
X147167500Y-110683000D01*
X146872500Y-110683000D01*
X146858042Y-110682290D01*
X146843724Y-110680166D01*
X146829683Y-110676649D01*
X146816054Y-110671772D01*
X146802969Y-110665583D01*
X146790553Y-110658142D01*
X146778927Y-110649519D01*
X146768202Y-110639798D01*
X146758481Y-110629073D01*
X146749858Y-110617447D01*
X146742417Y-110605031D01*
X146736228Y-110591946D01*
X146731351Y-110578317D01*
X146727834Y-110564276D01*
X146725710Y-110549958D01*
X146725000Y-110535500D01*
X146725000Y-110190500D01*
X146725710Y-110176042D01*
X146727834Y-110161724D01*
X146731351Y-110147683D01*
X146736228Y-110134054D01*
X146742417Y-110120969D01*
X146749858Y-110108553D01*
X146758481Y-110096927D01*
X146768202Y-110086202D01*
X146778927Y-110076481D01*
X146790553Y-110067858D01*
X146802969Y-110060417D01*
X146816054Y-110054228D01*
X146829683Y-110049351D01*
X146843724Y-110045834D01*
X146858042Y-110043710D01*
X146872500Y-110043000D01*
X147167500Y-110043000D01*
X147181958Y-110043710D01*
X147181958Y-110043710D01*
G37*
D11*
G04 #@! TD*
G04 #@! TO.P,C11,1*
G04 #@! TO.N,SPI_VCCIO1*
X147020000Y-110363000D03*
D10*
G04 #@! TO.N,GND*
G04 #@! TO.C,C11*
G36*
X146211958Y-110043710D02*
X146226276Y-110045834D01*
X146240317Y-110049351D01*
X146253946Y-110054228D01*
X146267031Y-110060417D01*
X146279447Y-110067858D01*
X146291073Y-110076481D01*
X146301798Y-110086202D01*
X146311519Y-110096927D01*
X146320142Y-110108553D01*
X146327583Y-110120969D01*
X146333772Y-110134054D01*
X146338649Y-110147683D01*
X146342166Y-110161724D01*
X146344290Y-110176042D01*
X146345000Y-110190500D01*
X146345000Y-110535500D01*
X146344290Y-110549958D01*
X146342166Y-110564276D01*
X146338649Y-110578317D01*
X146333772Y-110591946D01*
X146327583Y-110605031D01*
X146320142Y-110617447D01*
X146311519Y-110629073D01*
X146301798Y-110639798D01*
X146291073Y-110649519D01*
X146279447Y-110658142D01*
X146267031Y-110665583D01*
X146253946Y-110671772D01*
X146240317Y-110676649D01*
X146226276Y-110680166D01*
X146211958Y-110682290D01*
X146197500Y-110683000D01*
X145902500Y-110683000D01*
X145888042Y-110682290D01*
X145873724Y-110680166D01*
X145859683Y-110676649D01*
X145846054Y-110671772D01*
X145832969Y-110665583D01*
X145820553Y-110658142D01*
X145808927Y-110649519D01*
X145798202Y-110639798D01*
X145788481Y-110629073D01*
X145779858Y-110617447D01*
X145772417Y-110605031D01*
X145766228Y-110591946D01*
X145761351Y-110578317D01*
X145757834Y-110564276D01*
X145755710Y-110549958D01*
X145755000Y-110535500D01*
X145755000Y-110190500D01*
X145755710Y-110176042D01*
X145757834Y-110161724D01*
X145761351Y-110147683D01*
X145766228Y-110134054D01*
X145772417Y-110120969D01*
X145779858Y-110108553D01*
X145788481Y-110096927D01*
X145798202Y-110086202D01*
X145808927Y-110076481D01*
X145820553Y-110067858D01*
X145832969Y-110060417D01*
X145846054Y-110054228D01*
X145859683Y-110049351D01*
X145873724Y-110045834D01*
X145888042Y-110043710D01*
X145902500Y-110043000D01*
X146197500Y-110043000D01*
X146211958Y-110043710D01*
X146211958Y-110043710D01*
G37*
D11*
G04 #@! TD*
G04 #@! TO.P,C11,2*
G04 #@! TO.N,GND*
X146050000Y-110363000D03*
D10*
G04 #@! TO.N,VCC_CORE*
G04 #@! TO.C,C13*
G36*
X151570958Y-118196710D02*
X151585276Y-118198834D01*
X151599317Y-118202351D01*
X151612946Y-118207228D01*
X151626031Y-118213417D01*
X151638447Y-118220858D01*
X151650073Y-118229481D01*
X151660798Y-118239202D01*
X151670519Y-118249927D01*
X151679142Y-118261553D01*
X151686583Y-118273969D01*
X151692772Y-118287054D01*
X151697649Y-118300683D01*
X151701166Y-118314724D01*
X151703290Y-118329042D01*
X151704000Y-118343500D01*
X151704000Y-118638500D01*
X151703290Y-118652958D01*
X151701166Y-118667276D01*
X151697649Y-118681317D01*
X151692772Y-118694946D01*
X151686583Y-118708031D01*
X151679142Y-118720447D01*
X151670519Y-118732073D01*
X151660798Y-118742798D01*
X151650073Y-118752519D01*
X151638447Y-118761142D01*
X151626031Y-118768583D01*
X151612946Y-118774772D01*
X151599317Y-118779649D01*
X151585276Y-118783166D01*
X151570958Y-118785290D01*
X151556500Y-118786000D01*
X151211500Y-118786000D01*
X151197042Y-118785290D01*
X151182724Y-118783166D01*
X151168683Y-118779649D01*
X151155054Y-118774772D01*
X151141969Y-118768583D01*
X151129553Y-118761142D01*
X151117927Y-118752519D01*
X151107202Y-118742798D01*
X151097481Y-118732073D01*
X151088858Y-118720447D01*
X151081417Y-118708031D01*
X151075228Y-118694946D01*
X151070351Y-118681317D01*
X151066834Y-118667276D01*
X151064710Y-118652958D01*
X151064000Y-118638500D01*
X151064000Y-118343500D01*
X151064710Y-118329042D01*
X151066834Y-118314724D01*
X151070351Y-118300683D01*
X151075228Y-118287054D01*
X151081417Y-118273969D01*
X151088858Y-118261553D01*
X151097481Y-118249927D01*
X151107202Y-118239202D01*
X151117927Y-118229481D01*
X151129553Y-118220858D01*
X151141969Y-118213417D01*
X151155054Y-118207228D01*
X151168683Y-118202351D01*
X151182724Y-118198834D01*
X151197042Y-118196710D01*
X151211500Y-118196000D01*
X151556500Y-118196000D01*
X151570958Y-118196710D01*
X151570958Y-118196710D01*
G37*
D11*
G04 #@! TD*
G04 #@! TO.P,C13,1*
G04 #@! TO.N,VCC_CORE*
X151384000Y-118491000D03*
D10*
G04 #@! TO.N,GND*
G04 #@! TO.C,C13*
G36*
X151570958Y-119166710D02*
X151585276Y-119168834D01*
X151599317Y-119172351D01*
X151612946Y-119177228D01*
X151626031Y-119183417D01*
X151638447Y-119190858D01*
X151650073Y-119199481D01*
X151660798Y-119209202D01*
X151670519Y-119219927D01*
X151679142Y-119231553D01*
X151686583Y-119243969D01*
X151692772Y-119257054D01*
X151697649Y-119270683D01*
X151701166Y-119284724D01*
X151703290Y-119299042D01*
X151704000Y-119313500D01*
X151704000Y-119608500D01*
X151703290Y-119622958D01*
X151701166Y-119637276D01*
X151697649Y-119651317D01*
X151692772Y-119664946D01*
X151686583Y-119678031D01*
X151679142Y-119690447D01*
X151670519Y-119702073D01*
X151660798Y-119712798D01*
X151650073Y-119722519D01*
X151638447Y-119731142D01*
X151626031Y-119738583D01*
X151612946Y-119744772D01*
X151599317Y-119749649D01*
X151585276Y-119753166D01*
X151570958Y-119755290D01*
X151556500Y-119756000D01*
X151211500Y-119756000D01*
X151197042Y-119755290D01*
X151182724Y-119753166D01*
X151168683Y-119749649D01*
X151155054Y-119744772D01*
X151141969Y-119738583D01*
X151129553Y-119731142D01*
X151117927Y-119722519D01*
X151107202Y-119712798D01*
X151097481Y-119702073D01*
X151088858Y-119690447D01*
X151081417Y-119678031D01*
X151075228Y-119664946D01*
X151070351Y-119651317D01*
X151066834Y-119637276D01*
X151064710Y-119622958D01*
X151064000Y-119608500D01*
X151064000Y-119313500D01*
X151064710Y-119299042D01*
X151066834Y-119284724D01*
X151070351Y-119270683D01*
X151075228Y-119257054D01*
X151081417Y-119243969D01*
X151088858Y-119231553D01*
X151097481Y-119219927D01*
X151107202Y-119209202D01*
X151117927Y-119199481D01*
X151129553Y-119190858D01*
X151141969Y-119183417D01*
X151155054Y-119177228D01*
X151168683Y-119172351D01*
X151182724Y-119168834D01*
X151197042Y-119166710D01*
X151211500Y-119166000D01*
X151556500Y-119166000D01*
X151570958Y-119166710D01*
X151570958Y-119166710D01*
G37*
D11*
G04 #@! TD*
G04 #@! TO.P,C13,2*
G04 #@! TO.N,GND*
X151384000Y-119461000D03*
D10*
G04 #@! TO.N,GND*
G04 #@! TO.C,C14*
G36*
X151291958Y-120330710D02*
X151306276Y-120332834D01*
X151320317Y-120336351D01*
X151333946Y-120341228D01*
X151347031Y-120347417D01*
X151359447Y-120354858D01*
X151371073Y-120363481D01*
X151381798Y-120373202D01*
X151391519Y-120383927D01*
X151400142Y-120395553D01*
X151407583Y-120407969D01*
X151413772Y-120421054D01*
X151418649Y-120434683D01*
X151422166Y-120448724D01*
X151424290Y-120463042D01*
X151425000Y-120477500D01*
X151425000Y-120822500D01*
X151424290Y-120836958D01*
X151422166Y-120851276D01*
X151418649Y-120865317D01*
X151413772Y-120878946D01*
X151407583Y-120892031D01*
X151400142Y-120904447D01*
X151391519Y-120916073D01*
X151381798Y-120926798D01*
X151371073Y-120936519D01*
X151359447Y-120945142D01*
X151347031Y-120952583D01*
X151333946Y-120958772D01*
X151320317Y-120963649D01*
X151306276Y-120967166D01*
X151291958Y-120969290D01*
X151277500Y-120970000D01*
X150982500Y-120970000D01*
X150968042Y-120969290D01*
X150953724Y-120967166D01*
X150939683Y-120963649D01*
X150926054Y-120958772D01*
X150912969Y-120952583D01*
X150900553Y-120945142D01*
X150888927Y-120936519D01*
X150878202Y-120926798D01*
X150868481Y-120916073D01*
X150859858Y-120904447D01*
X150852417Y-120892031D01*
X150846228Y-120878946D01*
X150841351Y-120865317D01*
X150837834Y-120851276D01*
X150835710Y-120836958D01*
X150835000Y-120822500D01*
X150835000Y-120477500D01*
X150835710Y-120463042D01*
X150837834Y-120448724D01*
X150841351Y-120434683D01*
X150846228Y-120421054D01*
X150852417Y-120407969D01*
X150859858Y-120395553D01*
X150868481Y-120383927D01*
X150878202Y-120373202D01*
X150888927Y-120363481D01*
X150900553Y-120354858D01*
X150912969Y-120347417D01*
X150926054Y-120341228D01*
X150939683Y-120336351D01*
X150953724Y-120332834D01*
X150968042Y-120330710D01*
X150982500Y-120330000D01*
X151277500Y-120330000D01*
X151291958Y-120330710D01*
X151291958Y-120330710D01*
G37*
D11*
G04 #@! TD*
G04 #@! TO.P,C14,2*
G04 #@! TO.N,GND*
X151130000Y-120650000D03*
D10*
G04 #@! TO.N,VCCPLL*
G04 #@! TO.C,C14*
G36*
X150321958Y-120330710D02*
X150336276Y-120332834D01*
X150350317Y-120336351D01*
X150363946Y-120341228D01*
X150377031Y-120347417D01*
X150389447Y-120354858D01*
X150401073Y-120363481D01*
X150411798Y-120373202D01*
X150421519Y-120383927D01*
X150430142Y-120395553D01*
X150437583Y-120407969D01*
X150443772Y-120421054D01*
X150448649Y-120434683D01*
X150452166Y-120448724D01*
X150454290Y-120463042D01*
X150455000Y-120477500D01*
X150455000Y-120822500D01*
X150454290Y-120836958D01*
X150452166Y-120851276D01*
X150448649Y-120865317D01*
X150443772Y-120878946D01*
X150437583Y-120892031D01*
X150430142Y-120904447D01*
X150421519Y-120916073D01*
X150411798Y-120926798D01*
X150401073Y-120936519D01*
X150389447Y-120945142D01*
X150377031Y-120952583D01*
X150363946Y-120958772D01*
X150350317Y-120963649D01*
X150336276Y-120967166D01*
X150321958Y-120969290D01*
X150307500Y-120970000D01*
X150012500Y-120970000D01*
X149998042Y-120969290D01*
X149983724Y-120967166D01*
X149969683Y-120963649D01*
X149956054Y-120958772D01*
X149942969Y-120952583D01*
X149930553Y-120945142D01*
X149918927Y-120936519D01*
X149908202Y-120926798D01*
X149898481Y-120916073D01*
X149889858Y-120904447D01*
X149882417Y-120892031D01*
X149876228Y-120878946D01*
X149871351Y-120865317D01*
X149867834Y-120851276D01*
X149865710Y-120836958D01*
X149865000Y-120822500D01*
X149865000Y-120477500D01*
X149865710Y-120463042D01*
X149867834Y-120448724D01*
X149871351Y-120434683D01*
X149876228Y-120421054D01*
X149882417Y-120407969D01*
X149889858Y-120395553D01*
X149898481Y-120383927D01*
X149908202Y-120373202D01*
X149918927Y-120363481D01*
X149930553Y-120354858D01*
X149942969Y-120347417D01*
X149956054Y-120341228D01*
X149969683Y-120336351D01*
X149983724Y-120332834D01*
X149998042Y-120330710D01*
X150012500Y-120330000D01*
X150307500Y-120330000D01*
X150321958Y-120330710D01*
X150321958Y-120330710D01*
G37*
D11*
G04 #@! TD*
G04 #@! TO.P,C14,1*
G04 #@! TO.N,VCCPLL*
X150160000Y-120650000D03*
D10*
G04 #@! TO.N,+5V*
G04 #@! TO.C,C17*
G36*
X156777958Y-101605710D02*
X156792276Y-101607834D01*
X156806317Y-101611351D01*
X156819946Y-101616228D01*
X156833031Y-101622417D01*
X156845447Y-101629858D01*
X156857073Y-101638481D01*
X156867798Y-101648202D01*
X156877519Y-101658927D01*
X156886142Y-101670553D01*
X156893583Y-101682969D01*
X156899772Y-101696054D01*
X156904649Y-101709683D01*
X156908166Y-101723724D01*
X156910290Y-101738042D01*
X156911000Y-101752500D01*
X156911000Y-102047500D01*
X156910290Y-102061958D01*
X156908166Y-102076276D01*
X156904649Y-102090317D01*
X156899772Y-102103946D01*
X156893583Y-102117031D01*
X156886142Y-102129447D01*
X156877519Y-102141073D01*
X156867798Y-102151798D01*
X156857073Y-102161519D01*
X156845447Y-102170142D01*
X156833031Y-102177583D01*
X156819946Y-102183772D01*
X156806317Y-102188649D01*
X156792276Y-102192166D01*
X156777958Y-102194290D01*
X156763500Y-102195000D01*
X156418500Y-102195000D01*
X156404042Y-102194290D01*
X156389724Y-102192166D01*
X156375683Y-102188649D01*
X156362054Y-102183772D01*
X156348969Y-102177583D01*
X156336553Y-102170142D01*
X156324927Y-102161519D01*
X156314202Y-102151798D01*
X156304481Y-102141073D01*
X156295858Y-102129447D01*
X156288417Y-102117031D01*
X156282228Y-102103946D01*
X156277351Y-102090317D01*
X156273834Y-102076276D01*
X156271710Y-102061958D01*
X156271000Y-102047500D01*
X156271000Y-101752500D01*
X156271710Y-101738042D01*
X156273834Y-101723724D01*
X156277351Y-101709683D01*
X156282228Y-101696054D01*
X156288417Y-101682969D01*
X156295858Y-101670553D01*
X156304481Y-101658927D01*
X156314202Y-101648202D01*
X156324927Y-101638481D01*
X156336553Y-101629858D01*
X156348969Y-101622417D01*
X156362054Y-101616228D01*
X156375683Y-101611351D01*
X156389724Y-101607834D01*
X156404042Y-101605710D01*
X156418500Y-101605000D01*
X156763500Y-101605000D01*
X156777958Y-101605710D01*
X156777958Y-101605710D01*
G37*
D11*
G04 #@! TD*
G04 #@! TO.P,C17,1*
G04 #@! TO.N,+5V*
X156591000Y-101900000D03*
D10*
G04 #@! TO.N,GND*
G04 #@! TO.C,C17*
G36*
X156777958Y-102575710D02*
X156792276Y-102577834D01*
X156806317Y-102581351D01*
X156819946Y-102586228D01*
X156833031Y-102592417D01*
X156845447Y-102599858D01*
X156857073Y-102608481D01*
X156867798Y-102618202D01*
X156877519Y-102628927D01*
X156886142Y-102640553D01*
X156893583Y-102652969D01*
X156899772Y-102666054D01*
X156904649Y-102679683D01*
X156908166Y-102693724D01*
X156910290Y-102708042D01*
X156911000Y-102722500D01*
X156911000Y-103017500D01*
X156910290Y-103031958D01*
X156908166Y-103046276D01*
X156904649Y-103060317D01*
X156899772Y-103073946D01*
X156893583Y-103087031D01*
X156886142Y-103099447D01*
X156877519Y-103111073D01*
X156867798Y-103121798D01*
X156857073Y-103131519D01*
X156845447Y-103140142D01*
X156833031Y-103147583D01*
X156819946Y-103153772D01*
X156806317Y-103158649D01*
X156792276Y-103162166D01*
X156777958Y-103164290D01*
X156763500Y-103165000D01*
X156418500Y-103165000D01*
X156404042Y-103164290D01*
X156389724Y-103162166D01*
X156375683Y-103158649D01*
X156362054Y-103153772D01*
X156348969Y-103147583D01*
X156336553Y-103140142D01*
X156324927Y-103131519D01*
X156314202Y-103121798D01*
X156304481Y-103111073D01*
X156295858Y-103099447D01*
X156288417Y-103087031D01*
X156282228Y-103073946D01*
X156277351Y-103060317D01*
X156273834Y-103046276D01*
X156271710Y-103031958D01*
X156271000Y-103017500D01*
X156271000Y-102722500D01*
X156271710Y-102708042D01*
X156273834Y-102693724D01*
X156277351Y-102679683D01*
X156282228Y-102666054D01*
X156288417Y-102652969D01*
X156295858Y-102640553D01*
X156304481Y-102628927D01*
X156314202Y-102618202D01*
X156324927Y-102608481D01*
X156336553Y-102599858D01*
X156348969Y-102592417D01*
X156362054Y-102586228D01*
X156375683Y-102581351D01*
X156389724Y-102577834D01*
X156404042Y-102575710D01*
X156418500Y-102575000D01*
X156763500Y-102575000D01*
X156777958Y-102575710D01*
X156777958Y-102575710D01*
G37*
D11*
G04 #@! TD*
G04 #@! TO.P,C17,2*
G04 #@! TO.N,GND*
X156591000Y-102870000D03*
D19*
G04 #@! TO.P,J3,6*
G04 #@! TO.N,GND*
X154596000Y-98171000D03*
X147446000Y-98171000D03*
G04 #@! TD*
D20*
G04 #@! TO.N,Net-(J3-Pad2)*
X151765000Y-101854000D03*
G04 #@! TO.N,Net-(J3-Pad3)*
X151003000Y-101854000D03*
G04 #@! TO.N,+5V*
X154686000Y-101727000D03*
X154940000Y-104648000D03*
G04 #@! TO.N,CLK*
X153968843Y-118192157D03*
X153924000Y-119761000D03*
G04 #@! TO.N,SCK*
X145713000Y-112566000D03*
X146939000Y-123952000D03*
X149098000Y-127337000D03*
G04 #@! TO.N,CRESET_B*
X156318000Y-125349000D03*
X150368000Y-109982000D03*
X146304000Y-111619000D03*
X144780000Y-111633000D03*
X144689393Y-130211393D03*
G04 #@! TO.N,SDI*
X145288000Y-112141000D03*
X145288000Y-112141000D03*
X145669000Y-129794000D03*
X153670000Y-125275000D03*
G04 #@! TO.N,SS*
X146304000Y-113030000D03*
X146196000Y-122555000D03*
X146281761Y-123847239D03*
X150749000Y-126365000D03*
G04 #@! TO.N,GND*
X152908000Y-114935000D03*
X149479000Y-114681000D03*
X149733000Y-112268000D03*
X152654000Y-113538000D03*
X157193029Y-103980029D03*
X151130000Y-113919000D03*
X151130000Y-113919000D03*
X147828000Y-104902000D03*
X151257000Y-121666000D03*
X157353000Y-105156000D03*
X151130000Y-130175000D03*
X153416000Y-121412000D03*
X151511000Y-128651000D03*
X151384000Y-125730000D03*
X150749000Y-108400000D03*
G04 #@! TO.N,SDO*
X146812000Y-113430000D03*
X146431000Y-121920000D03*
X148082000Y-123571000D03*
X148082000Y-124968000D03*
X151511000Y-127127000D03*
G04 #@! TO.N,USB_P*
X155944834Y-111855869D03*
G04 #@! TO.N,USB_N*
X156475166Y-111367834D03*
G04 #@! TO.N,USB_PU*
X155327568Y-111705165D03*
G04 #@! TO.N,LED*
X153585000Y-106849521D03*
G04 #@! TO.N,SPI_VCCIO1*
X147066000Y-117475000D03*
X154559000Y-107061000D03*
X152400000Y-118110000D03*
X147955000Y-108331000D03*
X144145000Y-111760000D03*
X147828000Y-121031000D03*
X148936343Y-125256657D03*
X151130000Y-122428000D03*
X150749000Y-125603000D03*
X147082000Y-116967000D03*
G04 #@! TO.N,VCC_CORE*
X149868907Y-104131093D03*
X150622000Y-118491000D03*
X151892000Y-108892002D03*
X151892000Y-109982000D03*
G04 #@! TO.N,VCCPLL*
X149225000Y-118491000D03*
G04 #@! TO.N,HL_11*
X147066000Y-116332000D03*
X146303999Y-117771998D03*
G04 #@! TO.N,HR_04*
X154704521Y-107643087D03*
X154057922Y-108705078D03*
G04 #@! TO.N,HR_05*
X154495937Y-109115132D03*
G04 #@! TO.N,HR_06*
X154905991Y-109553148D03*
G04 #@! TO.N,HR_07*
X155089394Y-112255869D03*
X156464000Y-112268000D03*
G04 #@! TO.N,Net-(R7-Pad2)*
X148844000Y-124610000D03*
G04 #@! TO.N,Net-(R10-Pad2)*
X154305000Y-123317000D03*
G04 #@! TD*
D10*
G04 #@! TO.N,Net-(J3-Pad2)*
X152082500Y-102362000D02*
X152082500Y-102171500D01*
X152082500Y-102171500D02*
X151765000Y-101854000D01*
G04 #@! TO.N,Net-(J3-Pad3)*
X151003000Y-102362000D02*
X151003000Y-101854000D01*
X150997500Y-102356500D02*
X151003000Y-102362000D01*
X149860000Y-102356500D02*
X150997500Y-102356500D01*
G04 #@! TO.N,+5V*
X156591000Y-99964100D02*
X158756000Y-97799100D01*
X156591000Y-101900000D02*
X156591000Y-99964100D01*
X156418000Y-101727000D02*
X156591000Y-101900000D01*
X154686000Y-101727000D02*
X156418000Y-101727000D01*
X155451000Y-103923100D02*
X155451000Y-104137000D01*
X155451000Y-104137000D02*
X154940000Y-104648000D01*
G04 #@! TO.N,CLK*
X153968843Y-118192157D02*
X153968843Y-119716157D01*
X153968843Y-119716157D02*
X153924000Y-119761000D01*
G04 #@! TO.N,SCK*
X145713000Y-112919553D02*
X145796000Y-113002553D01*
X145713000Y-112566000D02*
X145713000Y-112919553D01*
X145713000Y-112919553D02*
X145903999Y-113110552D01*
X146939000Y-123938792D02*
X146939000Y-123952000D01*
X145903999Y-123043999D02*
X146044207Y-123043999D01*
X146044207Y-123043999D02*
X146939000Y-123938792D01*
X145903999Y-113118003D02*
X145415000Y-113607002D01*
X145903999Y-113110552D02*
X145903999Y-113118003D01*
X145415000Y-122555000D02*
X145903999Y-123043999D01*
X145415000Y-113607002D02*
X145415000Y-122555000D01*
X152595000Y-131445000D02*
X153670000Y-131445000D01*
X151995000Y-130845000D02*
X152595000Y-131445000D01*
X151995000Y-129770000D02*
X151995000Y-130845000D01*
X149811999Y-127586999D02*
X151995000Y-129770000D01*
X149347999Y-127586999D02*
X149811999Y-127586999D01*
X149098000Y-127337000D02*
X149347999Y-127586999D01*
G04 #@! TO.N,CRESET_B*
X156318000Y-125349000D02*
X156064000Y-125095000D01*
D21*
X150368000Y-109982000D02*
X149098000Y-111252000D01*
X149098000Y-111252000D02*
X148731000Y-111619000D01*
X148731000Y-111619000D02*
X146304000Y-111619000D01*
X144780000Y-111633000D02*
X144780000Y-129993786D01*
X144907000Y-129993786D02*
X144689393Y-130211393D01*
D10*
X155964447Y-125349000D02*
X156318000Y-125349000D01*
X155475000Y-125349000D02*
X155964447Y-125349000D01*
X154432000Y-124306000D02*
X155475000Y-125349000D01*
X154432000Y-124206000D02*
X154432000Y-124306000D01*
D21*
G04 #@! TO.N,SDI*
X145161000Y-113269000D02*
X145161000Y-129457000D01*
X145332000Y-129457000D02*
X145669000Y-129794000D01*
X153670000Y-125275000D02*
X153670000Y-126365000D01*
D10*
X145332000Y-129457000D02*
X145161000Y-129457000D01*
X145288000Y-113142000D02*
X145288000Y-112141000D01*
X145161000Y-113269000D02*
X145288000Y-113142000D01*
G04 #@! TO.N,SS*
X146281761Y-124794239D02*
X146235000Y-124841000D01*
X146281761Y-123847239D02*
X146281761Y-124794239D01*
X147545000Y-126365000D02*
X148620000Y-126365000D01*
X146235000Y-125055000D02*
X147545000Y-126365000D01*
X146235000Y-124841000D02*
X146235000Y-125055000D01*
X148620000Y-126365000D02*
X150749000Y-126365000D01*
X146054001Y-113279999D02*
X146304000Y-113030000D01*
X146054001Y-113406999D02*
X146054001Y-113279999D01*
X145669000Y-113792000D02*
X146054001Y-113406999D01*
X145669000Y-122155000D02*
X145669000Y-113792000D01*
X146196000Y-122555000D02*
X145796000Y-122155000D01*
X145796000Y-122155000D02*
X145669000Y-122155000D01*
D21*
G04 #@! TO.N,GND*
X156591000Y-103753100D02*
X156421000Y-103923100D01*
X156591000Y-102870000D02*
X156591000Y-103753100D01*
X156477929Y-103980029D02*
X156421000Y-103923100D01*
X157193029Y-103980029D02*
X156477929Y-103980029D01*
X151130000Y-120650000D02*
X151130000Y-121539000D01*
X151130000Y-121539000D02*
X151257000Y-121666000D01*
D10*
X151384000Y-120396000D02*
X151130000Y-120650000D01*
X151384000Y-119461000D02*
X151384000Y-120396000D01*
X152631000Y-119461000D02*
X152654000Y-119484000D01*
X151384000Y-119461000D02*
X152631000Y-119461000D01*
X151257000Y-120777000D02*
X151130000Y-120650000D01*
X154351000Y-120777000D02*
X151257000Y-120777000D01*
X156421000Y-106323100D02*
X157353000Y-105391100D01*
X157353000Y-105391100D02*
X157353000Y-105156000D01*
X156421000Y-107103100D02*
X156421000Y-106323100D01*
X156421000Y-107523100D02*
X156421000Y-107103100D01*
X149860000Y-131445000D02*
X148620000Y-131445000D01*
X151130000Y-130175000D02*
X149860000Y-131445000D01*
X151384000Y-119461000D02*
X153335000Y-121412000D01*
X153335000Y-121412000D02*
X153416000Y-121412000D01*
X151384000Y-126661998D02*
X151384000Y-125730000D01*
X151110999Y-126934999D02*
X151384000Y-126661998D01*
X151511000Y-128651000D02*
X151110999Y-128250999D01*
X151110999Y-128250999D02*
X151110999Y-126934999D01*
G04 #@! TO.N,SDO*
X146458447Y-113430000D02*
X146050000Y-113838447D01*
X146812000Y-113430000D02*
X146458447Y-113430000D01*
X146003553Y-113838447D02*
X145923000Y-113919000D01*
X146050000Y-113838447D02*
X146003553Y-113838447D01*
X145903999Y-113938001D02*
X145903999Y-121773999D01*
X145923000Y-113919000D02*
X145903999Y-113938001D01*
X145903999Y-121773999D02*
X146050000Y-121920000D01*
X146050000Y-121920000D02*
X146431000Y-121920000D01*
X148082000Y-123571000D02*
X148082000Y-124968000D01*
X153670000Y-128305000D02*
X153670000Y-128905000D01*
X152492000Y-127127000D02*
X153670000Y-128305000D01*
X151511000Y-127127000D02*
X152492000Y-127127000D01*
D22*
G04 #@! TO.N,USB_P*
X155151902Y-110893101D02*
X155875184Y-111616383D01*
X151317750Y-107237687D02*
X154973164Y-110893101D01*
X151003000Y-103262000D02*
X151003000Y-103712001D01*
X151003000Y-103712001D02*
X151317750Y-104026751D01*
X151317750Y-104026751D02*
X151317750Y-107237687D01*
X154973164Y-110893101D02*
X155151902Y-110893101D01*
D10*
X155875184Y-111786219D02*
X155944834Y-111855869D01*
X155875184Y-111616383D02*
X155875184Y-111786219D01*
D22*
G04 #@! TO.N,USB_N*
X151767750Y-107051304D02*
X155159556Y-110443110D01*
X151767750Y-104026751D02*
X151767750Y-107051304D01*
X152082500Y-103262000D02*
X152082500Y-103712001D01*
X152082500Y-103712001D02*
X151767750Y-104026751D01*
X155159556Y-110443110D02*
X155338309Y-110443110D01*
X155338309Y-110443110D02*
X156263033Y-111367834D01*
X156263033Y-111367834D02*
X156475166Y-111367834D01*
D10*
G04 #@! TO.N,USB_PU*
X149860000Y-103556500D02*
X150570500Y-104267000D01*
X149860000Y-103256500D02*
X149860000Y-103556500D01*
X150570500Y-104267000D02*
X151067740Y-104267000D01*
X151067740Y-104267000D02*
X151067740Y-107379740D01*
X151067740Y-107379740D02*
X151067740Y-107445337D01*
X151067740Y-107445337D02*
X155327568Y-111705165D01*
D21*
G04 #@! TO.N,SPI_VCCIO1*
X157906001Y-103729099D02*
X157890901Y-103729099D01*
X158756000Y-102879100D02*
X157906001Y-103729099D01*
X157890901Y-103883199D02*
X155451000Y-106323100D01*
X157890901Y-103729099D02*
X157890901Y-103883199D01*
X154988900Y-107061000D02*
X155451000Y-107523100D01*
X154559000Y-107061000D02*
X154988900Y-107061000D01*
X155451000Y-106323100D02*
X155451000Y-107523100D01*
D10*
X155321000Y-122544000D02*
X155332000Y-122555000D01*
X155321000Y-120777000D02*
X155321000Y-122544000D01*
X155332000Y-122555000D02*
X155332000Y-124206000D01*
X152654000Y-118514000D02*
X152654000Y-118364000D01*
X152654000Y-118364000D02*
X152400000Y-118110000D01*
X152988168Y-118848168D02*
X152654000Y-118514000D01*
X153124010Y-118984010D02*
X152988168Y-118848168D01*
X153124010Y-119553012D02*
X153124010Y-118984010D01*
X153731999Y-120161001D02*
X153124010Y-119553012D01*
X155125001Y-120161001D02*
X153731999Y-120161001D01*
X155321000Y-120357000D02*
X155125001Y-120161001D01*
X155321000Y-120777000D02*
X155321000Y-120357000D01*
D21*
X147274000Y-108331000D02*
X147020000Y-108585000D01*
X147955000Y-108331000D02*
X147274000Y-108331000D01*
X147020000Y-108585000D02*
X147020000Y-110363000D01*
D10*
X144272000Y-111675998D02*
X144272000Y-111760000D01*
X145819000Y-111511998D02*
X145819000Y-111848000D01*
X146633830Y-110697168D02*
X145819000Y-111511998D01*
X146685832Y-110697168D02*
X146633830Y-110697168D01*
X147020000Y-110363000D02*
X146685832Y-110697168D01*
X146463000Y-112268000D02*
X146858000Y-112268000D01*
X145940998Y-111848000D02*
X146360998Y-112268000D01*
X146360998Y-112268000D02*
X146463000Y-112268000D01*
X145819000Y-111848000D02*
X145940998Y-111848000D01*
X147855000Y-121793000D02*
X147955000Y-121793000D01*
X147066000Y-121004000D02*
X147855000Y-121793000D01*
X147066000Y-117475000D02*
X147066000Y-121004000D01*
X147828000Y-121666000D02*
X147955000Y-121793000D01*
X147828000Y-121031000D02*
X147828000Y-121666000D01*
X147135000Y-124951000D02*
X147135000Y-124841000D01*
X147552001Y-125368001D02*
X147135000Y-124951000D01*
X148471446Y-125368001D02*
X147552001Y-125368001D01*
X148582790Y-125256657D02*
X148471446Y-125368001D01*
X148936343Y-125256657D02*
X148582790Y-125256657D01*
X151130000Y-122428000D02*
X150749000Y-122809000D01*
X150749000Y-122809000D02*
X150749000Y-125603000D01*
X144521999Y-112009999D02*
X144272000Y-111760000D01*
X144521999Y-128753103D02*
X144521999Y-112009999D01*
X143996001Y-129279101D02*
X144521999Y-128753103D01*
X143575997Y-129279101D02*
X143996001Y-129279101D01*
X142515999Y-130339099D02*
X143575997Y-129279101D01*
X142515999Y-131299101D02*
X142515999Y-130339099D01*
X143080988Y-131864090D02*
X142515999Y-131299101D01*
X144585910Y-131864090D02*
X143080988Y-131864090D01*
X147545000Y-128905000D02*
X144585910Y-131864090D01*
X148620000Y-128905000D02*
X147545000Y-128905000D01*
X147466001Y-116582999D02*
X147082000Y-116967000D01*
X146858000Y-112268000D02*
X147466001Y-112876001D01*
X147466001Y-112876001D02*
X147466001Y-116582999D01*
X144394999Y-111256001D02*
X144394999Y-111510001D01*
X144418001Y-111232999D02*
X144394999Y-111256001D01*
X145203999Y-111232999D02*
X144418001Y-111232999D01*
X144394999Y-111510001D02*
X144145000Y-111760000D01*
X145819000Y-111848000D02*
X145203999Y-111232999D01*
D21*
G04 #@! TO.N,VCC_CORE*
X150366380Y-104381092D02*
X150506288Y-104521000D01*
X149868907Y-104131093D02*
X150118906Y-104381092D01*
X150118906Y-104381092D02*
X150366380Y-104381092D01*
X150506288Y-104521000D02*
X150842730Y-104521000D01*
X150842730Y-104521000D02*
X150842730Y-107538539D01*
X150842730Y-107538539D02*
X151892000Y-108587809D01*
X150125000Y-118491000D02*
X149987000Y-118353000D01*
X151384000Y-118491000D02*
X150622000Y-118491000D01*
X150622000Y-118491000D02*
X150125000Y-118491000D01*
X151892000Y-109220000D02*
X151892000Y-109982000D01*
X151892000Y-117983000D02*
X151384000Y-118491000D01*
X151892000Y-109982000D02*
X151892000Y-117983000D01*
X151892000Y-108587809D02*
X151892000Y-108892002D01*
X151892000Y-108892002D02*
X151892000Y-109220000D01*
D10*
G04 #@! TO.N,VCCPLL*
X150160000Y-119426000D02*
X149987000Y-119253000D01*
X150160000Y-120650000D02*
X150160000Y-119426000D01*
X148925000Y-119253000D02*
X148844000Y-119334000D01*
X149987000Y-119253000D02*
X148925000Y-119253000D01*
X148844000Y-119276000D02*
X148844000Y-118872000D01*
X148844000Y-118872000D02*
X149225000Y-118491000D01*
G04 #@! TO.N,HL_11*
X147066000Y-116332000D02*
X146303999Y-117094001D01*
X146303999Y-117094001D02*
X146303999Y-117771998D01*
D21*
G04 #@! TO.N,HR_04*
X154704521Y-107643087D02*
X154704521Y-108058479D01*
X154704521Y-108058479D02*
X154057922Y-108705078D01*
D10*
G04 #@! TO.N,HR_05*
X157906001Y-108809099D02*
X158756000Y-107959100D01*
X154745936Y-108865133D02*
X157849967Y-108865133D01*
X157849967Y-108865133D02*
X157906001Y-108809099D01*
X154495937Y-109115132D02*
X154745936Y-108865133D01*
G04 #@! TO.N,HR_06*
X157810048Y-109553148D02*
X158756000Y-110499100D01*
X154905991Y-109553148D02*
X157810048Y-109553148D01*
G04 #@! TO.N,HR_07*
X155089394Y-112255869D02*
X156451869Y-112255869D01*
X156451869Y-112255869D02*
X156464000Y-112268000D01*
G04 #@! TO.N,Net-(R7-Pad2)*
X148844000Y-123482000D02*
X148844000Y-124610000D01*
X147955000Y-122693000D02*
X148055000Y-122693000D01*
X148055000Y-122693000D02*
X148844000Y-123482000D01*
G04 #@! TO.N,Net-(R10-Pad2)*
X154305000Y-122682000D02*
X154432000Y-122555000D01*
X154305000Y-123317000D02*
X154305000Y-122682000D01*
G04 #@! TD*
D23*
G04 #@! TO.N,GND*
G36*
X151618000Y-129926158D02*
X151618001Y-130807873D01*
X151610616Y-130845000D01*
X151639875Y-130992097D01*
X151702169Y-131085327D01*
X151702171Y-131085329D01*
X151723200Y-131116801D01*
X151754672Y-131137830D01*
X151761594Y-131144752D01*
X151761594Y-131687100D01*
X150786350Y-131687100D01*
X150671250Y-131572000D01*
X148747000Y-131572000D01*
X148747000Y-131592000D01*
X148493000Y-131592000D01*
X148493000Y-131572000D01*
X146568750Y-131572000D01*
X146453650Y-131687100D01*
X145296058Y-131687100D01*
X146164468Y-130818690D01*
X146410000Y-130818690D01*
X146410000Y-131159250D01*
X146568750Y-131318000D01*
X148493000Y-131318000D01*
X148493000Y-130468750D01*
X148747000Y-130468750D01*
X148747000Y-131318000D01*
X150671250Y-131318000D01*
X150830000Y-131159250D01*
X150830000Y-130818690D01*
X150733327Y-130585301D01*
X150554698Y-130406673D01*
X150321309Y-130310000D01*
X148905750Y-130310000D01*
X148747000Y-130468750D01*
X148493000Y-130468750D01*
X148334250Y-130310000D01*
X146918691Y-130310000D01*
X146685302Y-130406673D01*
X146506673Y-130585301D01*
X146410000Y-130818690D01*
X146164468Y-130818690D01*
X147244753Y-129738406D01*
X150195000Y-129738406D01*
X150322589Y-129713027D01*
X150430754Y-129640754D01*
X150503027Y-129532589D01*
X150528406Y-129405000D01*
X150528406Y-128836564D01*
X151618000Y-129926158D01*
X151618000Y-129926158D01*
G37*
X151618000Y-129926158D02*
X151618001Y-130807873D01*
X151610616Y-130845000D01*
X151639875Y-130992097D01*
X151702169Y-131085327D01*
X151702171Y-131085329D01*
X151723200Y-131116801D01*
X151754672Y-131137830D01*
X151761594Y-131144752D01*
X151761594Y-131687100D01*
X150786350Y-131687100D01*
X150671250Y-131572000D01*
X148747000Y-131572000D01*
X148747000Y-131592000D01*
X148493000Y-131592000D01*
X148493000Y-131572000D01*
X146568750Y-131572000D01*
X146453650Y-131687100D01*
X145296058Y-131687100D01*
X146164468Y-130818690D01*
X146410000Y-130818690D01*
X146410000Y-131159250D01*
X146568750Y-131318000D01*
X148493000Y-131318000D01*
X148493000Y-130468750D01*
X148747000Y-130468750D01*
X148747000Y-131318000D01*
X150671250Y-131318000D01*
X150830000Y-131159250D01*
X150830000Y-130818690D01*
X150733327Y-130585301D01*
X150554698Y-130406673D01*
X150321309Y-130310000D01*
X148905750Y-130310000D01*
X148747000Y-130468750D01*
X148493000Y-130468750D01*
X148334250Y-130310000D01*
X146918691Y-130310000D01*
X146685302Y-130406673D01*
X146506673Y-130585301D01*
X146410000Y-130818690D01*
X146164468Y-130818690D01*
X147244753Y-129738406D01*
X150195000Y-129738406D01*
X150322589Y-129713027D01*
X150430754Y-129640754D01*
X150503027Y-129532589D01*
X150528406Y-129405000D01*
X150528406Y-128836564D01*
X151618000Y-129926158D01*
G36*
X154750568Y-111661323D02*
X154750568Y-111778694D01*
X154600237Y-111929025D01*
X154512394Y-112141097D01*
X154512394Y-112370641D01*
X154600237Y-112582713D01*
X154762550Y-112745026D01*
X154974622Y-112832869D01*
X155204166Y-112832869D01*
X155416238Y-112745026D01*
X155528395Y-112632869D01*
X156012868Y-112632869D01*
X156137156Y-112757157D01*
X156349228Y-112845000D01*
X156578772Y-112845000D01*
X156790844Y-112757157D01*
X156953157Y-112594844D01*
X157041000Y-112382772D01*
X157041000Y-112153228D01*
X156953157Y-111941156D01*
X156835501Y-111823500D01*
X156964323Y-111694678D01*
X157052166Y-111482606D01*
X157052166Y-111253062D01*
X156964323Y-111040990D01*
X156802010Y-110878677D01*
X156589938Y-110790834D01*
X156360394Y-110790834D01*
X156310549Y-110811480D01*
X155669984Y-110170917D01*
X155646159Y-110135260D01*
X155504916Y-110040885D01*
X155380363Y-110016110D01*
X155380362Y-110016110D01*
X155338309Y-110007745D01*
X155329760Y-110009445D01*
X155297727Y-109977413D01*
X155344992Y-109930148D01*
X157653890Y-109930148D01*
X157693878Y-109970136D01*
X157647291Y-110039858D01*
X157555942Y-110499100D01*
X157647291Y-110958342D01*
X157907431Y-111347669D01*
X158296758Y-111607809D01*
X158640080Y-111676100D01*
X158871920Y-111676100D01*
X159215242Y-111607809D01*
X159604569Y-111347669D01*
X159624000Y-111318588D01*
X159624000Y-112219612D01*
X159604569Y-112190531D01*
X159215242Y-111930391D01*
X158871920Y-111862100D01*
X158640080Y-111862100D01*
X158296758Y-111930391D01*
X157907431Y-112190531D01*
X157647291Y-112579858D01*
X157555942Y-113039100D01*
X157647291Y-113498342D01*
X157907431Y-113887669D01*
X158296758Y-114147809D01*
X158640080Y-114216100D01*
X158871920Y-114216100D01*
X159215242Y-114147809D01*
X159604569Y-113887669D01*
X159624000Y-113858588D01*
X159624001Y-114759612D01*
X159604569Y-114730531D01*
X159215242Y-114470391D01*
X158871920Y-114402100D01*
X158640080Y-114402100D01*
X158296758Y-114470391D01*
X157907431Y-114730531D01*
X157647291Y-115119858D01*
X157555942Y-115579100D01*
X157647291Y-116038342D01*
X157907431Y-116427669D01*
X158296758Y-116687809D01*
X158640080Y-116756100D01*
X158871920Y-116756100D01*
X159215242Y-116687809D01*
X159604569Y-116427669D01*
X159624001Y-116398588D01*
X159624001Y-117299612D01*
X159604569Y-117270531D01*
X159215242Y-117010391D01*
X158871920Y-116942100D01*
X158640080Y-116942100D01*
X158296758Y-117010391D01*
X157907431Y-117270531D01*
X157647291Y-117659858D01*
X157555942Y-118119100D01*
X157647291Y-118578342D01*
X157907431Y-118967669D01*
X158296758Y-119227809D01*
X158640080Y-119296100D01*
X158871920Y-119296100D01*
X159215242Y-119227809D01*
X159604569Y-118967669D01*
X159624001Y-118938588D01*
X159624001Y-119839613D01*
X159604569Y-119810531D01*
X159215242Y-119550391D01*
X158871920Y-119482100D01*
X158640080Y-119482100D01*
X158296758Y-119550391D01*
X157907431Y-119810531D01*
X157647291Y-120199858D01*
X157555942Y-120659100D01*
X157647291Y-121118342D01*
X157907431Y-121507669D01*
X158296758Y-121767809D01*
X158640080Y-121836100D01*
X158871920Y-121836100D01*
X159215242Y-121767809D01*
X159604569Y-121507669D01*
X159624001Y-121478587D01*
X159624001Y-122379613D01*
X159604569Y-122350531D01*
X159215242Y-122090391D01*
X158871920Y-122022100D01*
X158640080Y-122022100D01*
X158296758Y-122090391D01*
X157907431Y-122350531D01*
X157647291Y-122739858D01*
X157555942Y-123199100D01*
X157647291Y-123658342D01*
X157907431Y-124047669D01*
X158296758Y-124307809D01*
X158640080Y-124376100D01*
X158871920Y-124376100D01*
X159215242Y-124307809D01*
X159604569Y-124047669D01*
X159624001Y-124018587D01*
X159624001Y-124919613D01*
X159604569Y-124890531D01*
X159215242Y-124630391D01*
X158871920Y-124562100D01*
X158640080Y-124562100D01*
X158296758Y-124630391D01*
X157907431Y-124890531D01*
X157647291Y-125279858D01*
X157555942Y-125739100D01*
X157647291Y-126198342D01*
X157907431Y-126587669D01*
X158296758Y-126847809D01*
X158640080Y-126916100D01*
X158871920Y-126916100D01*
X159215242Y-126847809D01*
X159604569Y-126587669D01*
X159624001Y-126558587D01*
X159624001Y-127459613D01*
X159604569Y-127430531D01*
X159215242Y-127170391D01*
X158871920Y-127102100D01*
X158640080Y-127102100D01*
X158296758Y-127170391D01*
X157907431Y-127430531D01*
X157647291Y-127819858D01*
X157555942Y-128279100D01*
X157647291Y-128738342D01*
X157907431Y-129127669D01*
X158296758Y-129387809D01*
X158640080Y-129456100D01*
X158871920Y-129456100D01*
X159215242Y-129387809D01*
X159604569Y-129127669D01*
X159624001Y-129098587D01*
X159624001Y-129999613D01*
X159604569Y-129970531D01*
X159215242Y-129710391D01*
X158871920Y-129642100D01*
X158640080Y-129642100D01*
X158296758Y-129710391D01*
X157907431Y-129970531D01*
X157647291Y-130359858D01*
X157555942Y-130819100D01*
X157647291Y-131278342D01*
X157907431Y-131667669D01*
X157936512Y-131687100D01*
X155578406Y-131687100D01*
X155578406Y-130945000D01*
X155553027Y-130817411D01*
X155480754Y-130709246D01*
X155372589Y-130636973D01*
X155245000Y-130611594D01*
X152372000Y-130611594D01*
X152372000Y-129807122D01*
X152379384Y-129770000D01*
X152373100Y-129738406D01*
X155245000Y-129738406D01*
X155372589Y-129713027D01*
X155480754Y-129640754D01*
X155553027Y-129532589D01*
X155578406Y-129405000D01*
X155578406Y-128405000D01*
X155553027Y-128277411D01*
X155480754Y-128169246D01*
X155372589Y-128096973D01*
X155245000Y-128071594D01*
X153967456Y-128071594D01*
X153941801Y-128033199D01*
X153910327Y-128012169D01*
X153096564Y-127198406D01*
X155245000Y-127198406D01*
X155372589Y-127173027D01*
X155480754Y-127100754D01*
X155553027Y-126992589D01*
X155578406Y-126865000D01*
X155578406Y-125865000D01*
X155553027Y-125737411D01*
X155545402Y-125726000D01*
X155878999Y-125726000D01*
X155991156Y-125838157D01*
X156203228Y-125926000D01*
X156432772Y-125926000D01*
X156644844Y-125838157D01*
X156807157Y-125675844D01*
X156895000Y-125463772D01*
X156895000Y-125234228D01*
X156807157Y-125022156D01*
X156644844Y-124859843D01*
X156432772Y-124772000D01*
X156259176Y-124772000D01*
X156211097Y-124739875D01*
X156064000Y-124710616D01*
X155916903Y-124739875D01*
X155792199Y-124823199D01*
X155708875Y-124947903D01*
X155704082Y-124972000D01*
X155631159Y-124972000D01*
X155498565Y-124839406D01*
X155532000Y-124839406D01*
X155659589Y-124814027D01*
X155767754Y-124741754D01*
X155840027Y-124633589D01*
X155865406Y-124506000D01*
X155865406Y-123906000D01*
X155840027Y-123778411D01*
X155767754Y-123670246D01*
X155709000Y-123630988D01*
X155709000Y-123130012D01*
X155767754Y-123090754D01*
X155840027Y-122982589D01*
X155865406Y-122855000D01*
X155865406Y-122255000D01*
X155840027Y-122127411D01*
X155767754Y-122019246D01*
X155698000Y-121972638D01*
X155698000Y-121363420D01*
X155808552Y-121289552D01*
X155912799Y-121133535D01*
X155949406Y-120949500D01*
X155949406Y-120604500D01*
X155912799Y-120420465D01*
X155808552Y-120264448D01*
X155652535Y-120160201D01*
X155641441Y-120157994D01*
X155592801Y-120085199D01*
X155561324Y-120064167D01*
X155417833Y-119920675D01*
X155396802Y-119889200D01*
X155272099Y-119805876D01*
X155162127Y-119784001D01*
X155162123Y-119784001D01*
X155125001Y-119776617D01*
X155087879Y-119784001D01*
X154501000Y-119784001D01*
X154501000Y-119646228D01*
X154413157Y-119434156D01*
X154345843Y-119366842D01*
X154345843Y-118631158D01*
X154458000Y-118519001D01*
X154545843Y-118306929D01*
X154545843Y-118077385D01*
X154458000Y-117865313D01*
X154295687Y-117703000D01*
X154083615Y-117615157D01*
X153854071Y-117615157D01*
X153641999Y-117703000D01*
X153479686Y-117865313D01*
X153391843Y-118077385D01*
X153391843Y-118306929D01*
X153479686Y-118519001D01*
X153591843Y-118631158D01*
X153591844Y-119021272D01*
X153512327Y-118829302D01*
X153396972Y-118713946D01*
X153395811Y-118712209D01*
X153394074Y-118711048D01*
X153333699Y-118650673D01*
X153316852Y-118643695D01*
X153307406Y-118634248D01*
X153307406Y-118366500D01*
X153270799Y-118182465D01*
X153166552Y-118026448D01*
X153010535Y-117922201D01*
X152941024Y-117908374D01*
X152889157Y-117783156D01*
X152726844Y-117620843D01*
X152514772Y-117533000D01*
X152294000Y-117533000D01*
X152294000Y-110396001D01*
X152381157Y-110308844D01*
X152469000Y-110096772D01*
X152469000Y-109867228D01*
X152381157Y-109655156D01*
X152294000Y-109567999D01*
X152294000Y-109306003D01*
X152344624Y-109255379D01*
X154750568Y-111661323D01*
X154750568Y-111661323D01*
G37*
X154750568Y-111661323D02*
X154750568Y-111778694D01*
X154600237Y-111929025D01*
X154512394Y-112141097D01*
X154512394Y-112370641D01*
X154600237Y-112582713D01*
X154762550Y-112745026D01*
X154974622Y-112832869D01*
X155204166Y-112832869D01*
X155416238Y-112745026D01*
X155528395Y-112632869D01*
X156012868Y-112632869D01*
X156137156Y-112757157D01*
X156349228Y-112845000D01*
X156578772Y-112845000D01*
X156790844Y-112757157D01*
X156953157Y-112594844D01*
X157041000Y-112382772D01*
X157041000Y-112153228D01*
X156953157Y-111941156D01*
X156835501Y-111823500D01*
X156964323Y-111694678D01*
X157052166Y-111482606D01*
X157052166Y-111253062D01*
X156964323Y-111040990D01*
X156802010Y-110878677D01*
X156589938Y-110790834D01*
X156360394Y-110790834D01*
X156310549Y-110811480D01*
X155669984Y-110170917D01*
X155646159Y-110135260D01*
X155504916Y-110040885D01*
X155380363Y-110016110D01*
X155380362Y-110016110D01*
X155338309Y-110007745D01*
X155329760Y-110009445D01*
X155297727Y-109977413D01*
X155344992Y-109930148D01*
X157653890Y-109930148D01*
X157693878Y-109970136D01*
X157647291Y-110039858D01*
X157555942Y-110499100D01*
X157647291Y-110958342D01*
X157907431Y-111347669D01*
X158296758Y-111607809D01*
X158640080Y-111676100D01*
X158871920Y-111676100D01*
X159215242Y-111607809D01*
X159604569Y-111347669D01*
X159624000Y-111318588D01*
X159624000Y-112219612D01*
X159604569Y-112190531D01*
X159215242Y-111930391D01*
X158871920Y-111862100D01*
X158640080Y-111862100D01*
X158296758Y-111930391D01*
X157907431Y-112190531D01*
X157647291Y-112579858D01*
X157555942Y-113039100D01*
X157647291Y-113498342D01*
X157907431Y-113887669D01*
X158296758Y-114147809D01*
X158640080Y-114216100D01*
X158871920Y-114216100D01*
X159215242Y-114147809D01*
X159604569Y-113887669D01*
X159624000Y-113858588D01*
X159624001Y-114759612D01*
X159604569Y-114730531D01*
X159215242Y-114470391D01*
X158871920Y-114402100D01*
X158640080Y-114402100D01*
X158296758Y-114470391D01*
X157907431Y-114730531D01*
X157647291Y-115119858D01*
X157555942Y-115579100D01*
X157647291Y-116038342D01*
X157907431Y-116427669D01*
X158296758Y-116687809D01*
X158640080Y-116756100D01*
X158871920Y-116756100D01*
X159215242Y-116687809D01*
X159604569Y-116427669D01*
X159624001Y-116398588D01*
X159624001Y-117299612D01*
X159604569Y-117270531D01*
X159215242Y-117010391D01*
X158871920Y-116942100D01*
X158640080Y-116942100D01*
X158296758Y-117010391D01*
X157907431Y-117270531D01*
X157647291Y-117659858D01*
X157555942Y-118119100D01*
X157647291Y-118578342D01*
X157907431Y-118967669D01*
X158296758Y-119227809D01*
X158640080Y-119296100D01*
X158871920Y-119296100D01*
X159215242Y-119227809D01*
X159604569Y-118967669D01*
X159624001Y-118938588D01*
X159624001Y-119839613D01*
X159604569Y-119810531D01*
X159215242Y-119550391D01*
X158871920Y-119482100D01*
X158640080Y-119482100D01*
X158296758Y-119550391D01*
X157907431Y-119810531D01*
X157647291Y-120199858D01*
X157555942Y-120659100D01*
X157647291Y-121118342D01*
X157907431Y-121507669D01*
X158296758Y-121767809D01*
X158640080Y-121836100D01*
X158871920Y-121836100D01*
X159215242Y-121767809D01*
X159604569Y-121507669D01*
X159624001Y-121478587D01*
X159624001Y-122379613D01*
X159604569Y-122350531D01*
X159215242Y-122090391D01*
X158871920Y-122022100D01*
X158640080Y-122022100D01*
X158296758Y-122090391D01*
X157907431Y-122350531D01*
X157647291Y-122739858D01*
X157555942Y-123199100D01*
X157647291Y-123658342D01*
X157907431Y-124047669D01*
X158296758Y-124307809D01*
X158640080Y-124376100D01*
X158871920Y-124376100D01*
X159215242Y-124307809D01*
X159604569Y-124047669D01*
X159624001Y-124018587D01*
X159624001Y-124919613D01*
X159604569Y-124890531D01*
X159215242Y-124630391D01*
X158871920Y-124562100D01*
X158640080Y-124562100D01*
X158296758Y-124630391D01*
X157907431Y-124890531D01*
X157647291Y-125279858D01*
X157555942Y-125739100D01*
X157647291Y-126198342D01*
X157907431Y-126587669D01*
X158296758Y-126847809D01*
X158640080Y-126916100D01*
X158871920Y-126916100D01*
X159215242Y-126847809D01*
X159604569Y-126587669D01*
X159624001Y-126558587D01*
X159624001Y-127459613D01*
X159604569Y-127430531D01*
X159215242Y-127170391D01*
X158871920Y-127102100D01*
X158640080Y-127102100D01*
X158296758Y-127170391D01*
X157907431Y-127430531D01*
X157647291Y-127819858D01*
X157555942Y-128279100D01*
X157647291Y-128738342D01*
X157907431Y-129127669D01*
X158296758Y-129387809D01*
X158640080Y-129456100D01*
X158871920Y-129456100D01*
X159215242Y-129387809D01*
X159604569Y-129127669D01*
X159624001Y-129098587D01*
X159624001Y-129999613D01*
X159604569Y-129970531D01*
X159215242Y-129710391D01*
X158871920Y-129642100D01*
X158640080Y-129642100D01*
X158296758Y-129710391D01*
X157907431Y-129970531D01*
X157647291Y-130359858D01*
X157555942Y-130819100D01*
X157647291Y-131278342D01*
X157907431Y-131667669D01*
X157936512Y-131687100D01*
X155578406Y-131687100D01*
X155578406Y-130945000D01*
X155553027Y-130817411D01*
X155480754Y-130709246D01*
X155372589Y-130636973D01*
X155245000Y-130611594D01*
X152372000Y-130611594D01*
X152372000Y-129807122D01*
X152379384Y-129770000D01*
X152373100Y-129738406D01*
X155245000Y-129738406D01*
X155372589Y-129713027D01*
X155480754Y-129640754D01*
X155553027Y-129532589D01*
X155578406Y-129405000D01*
X155578406Y-128405000D01*
X155553027Y-128277411D01*
X155480754Y-128169246D01*
X155372589Y-128096973D01*
X155245000Y-128071594D01*
X153967456Y-128071594D01*
X153941801Y-128033199D01*
X153910327Y-128012169D01*
X153096564Y-127198406D01*
X155245000Y-127198406D01*
X155372589Y-127173027D01*
X155480754Y-127100754D01*
X155553027Y-126992589D01*
X155578406Y-126865000D01*
X155578406Y-125865000D01*
X155553027Y-125737411D01*
X155545402Y-125726000D01*
X155878999Y-125726000D01*
X155991156Y-125838157D01*
X156203228Y-125926000D01*
X156432772Y-125926000D01*
X156644844Y-125838157D01*
X156807157Y-125675844D01*
X156895000Y-125463772D01*
X156895000Y-125234228D01*
X156807157Y-125022156D01*
X156644844Y-124859843D01*
X156432772Y-124772000D01*
X156259176Y-124772000D01*
X156211097Y-124739875D01*
X156064000Y-124710616D01*
X155916903Y-124739875D01*
X155792199Y-124823199D01*
X155708875Y-124947903D01*
X155704082Y-124972000D01*
X155631159Y-124972000D01*
X155498565Y-124839406D01*
X155532000Y-124839406D01*
X155659589Y-124814027D01*
X155767754Y-124741754D01*
X155840027Y-124633589D01*
X155865406Y-124506000D01*
X155865406Y-123906000D01*
X155840027Y-123778411D01*
X155767754Y-123670246D01*
X155709000Y-123630988D01*
X155709000Y-123130012D01*
X155767754Y-123090754D01*
X155840027Y-122982589D01*
X155865406Y-122855000D01*
X155865406Y-122255000D01*
X155840027Y-122127411D01*
X155767754Y-122019246D01*
X155698000Y-121972638D01*
X155698000Y-121363420D01*
X155808552Y-121289552D01*
X155912799Y-121133535D01*
X155949406Y-120949500D01*
X155949406Y-120604500D01*
X155912799Y-120420465D01*
X155808552Y-120264448D01*
X155652535Y-120160201D01*
X155641441Y-120157994D01*
X155592801Y-120085199D01*
X155561324Y-120064167D01*
X155417833Y-119920675D01*
X155396802Y-119889200D01*
X155272099Y-119805876D01*
X155162127Y-119784001D01*
X155162123Y-119784001D01*
X155125001Y-119776617D01*
X155087879Y-119784001D01*
X154501000Y-119784001D01*
X154501000Y-119646228D01*
X154413157Y-119434156D01*
X154345843Y-119366842D01*
X154345843Y-118631158D01*
X154458000Y-118519001D01*
X154545843Y-118306929D01*
X154545843Y-118077385D01*
X154458000Y-117865313D01*
X154295687Y-117703000D01*
X154083615Y-117615157D01*
X153854071Y-117615157D01*
X153641999Y-117703000D01*
X153479686Y-117865313D01*
X153391843Y-118077385D01*
X153391843Y-118306929D01*
X153479686Y-118519001D01*
X153591843Y-118631158D01*
X153591844Y-119021272D01*
X153512327Y-118829302D01*
X153396972Y-118713946D01*
X153395811Y-118712209D01*
X153394074Y-118711048D01*
X153333699Y-118650673D01*
X153316852Y-118643695D01*
X153307406Y-118634248D01*
X153307406Y-118366500D01*
X153270799Y-118182465D01*
X153166552Y-118026448D01*
X153010535Y-117922201D01*
X152941024Y-117908374D01*
X152889157Y-117783156D01*
X152726844Y-117620843D01*
X152514772Y-117533000D01*
X152294000Y-117533000D01*
X152294000Y-110396001D01*
X152381157Y-110308844D01*
X152469000Y-110096772D01*
X152469000Y-109867228D01*
X152381157Y-109655156D01*
X152294000Y-109567999D01*
X152294000Y-109306003D01*
X152344624Y-109255379D01*
X154750568Y-111661323D01*
G36*
X150934000Y-127012228D02*
X150934000Y-127241772D01*
X151021843Y-127453844D01*
X151184156Y-127616157D01*
X151396228Y-127704000D01*
X151625772Y-127704000D01*
X151837844Y-127616157D01*
X151950001Y-127504000D01*
X152335842Y-127504000D01*
X152903436Y-128071594D01*
X152095000Y-128071594D01*
X151967411Y-128096973D01*
X151859246Y-128169246D01*
X151786973Y-128277411D01*
X151761594Y-128405000D01*
X151761594Y-129003436D01*
X150104831Y-127346673D01*
X150083800Y-127315198D01*
X149959097Y-127231874D01*
X149849125Y-127209999D01*
X149849121Y-127209999D01*
X149811999Y-127202615D01*
X149774877Y-127209999D01*
X149669935Y-127209999D01*
X149665133Y-127198406D01*
X150195000Y-127198406D01*
X150322589Y-127173027D01*
X150430754Y-127100754D01*
X150503027Y-126992589D01*
X150522311Y-126895642D01*
X150634228Y-126942000D01*
X150863772Y-126942000D01*
X150983659Y-126892341D01*
X150934000Y-127012228D01*
X150934000Y-127012228D01*
G37*
X150934000Y-127012228D02*
X150934000Y-127241772D01*
X151021843Y-127453844D01*
X151184156Y-127616157D01*
X151396228Y-127704000D01*
X151625772Y-127704000D01*
X151837844Y-127616157D01*
X151950001Y-127504000D01*
X152335842Y-127504000D01*
X152903436Y-128071594D01*
X152095000Y-128071594D01*
X151967411Y-128096973D01*
X151859246Y-128169246D01*
X151786973Y-128277411D01*
X151761594Y-128405000D01*
X151761594Y-129003436D01*
X150104831Y-127346673D01*
X150083800Y-127315198D01*
X149959097Y-127231874D01*
X149849125Y-127209999D01*
X149849121Y-127209999D01*
X149811999Y-127202615D01*
X149774877Y-127209999D01*
X149669935Y-127209999D01*
X149665133Y-127198406D01*
X150195000Y-127198406D01*
X150322589Y-127173027D01*
X150430754Y-127100754D01*
X150503027Y-126992589D01*
X150522311Y-126895642D01*
X150634228Y-126942000D01*
X150863772Y-126942000D01*
X150983659Y-126892341D01*
X150934000Y-127012228D01*
G36*
X146422901Y-97184755D02*
X146286000Y-97619000D01*
X146286000Y-98044000D01*
X147319000Y-98044000D01*
X147319000Y-98024000D01*
X147573000Y-98024000D01*
X147573000Y-98044000D01*
X148606000Y-98044000D01*
X148606000Y-97619000D01*
X148469099Y-97184755D01*
X148256272Y-96931100D01*
X153785728Y-96931100D01*
X153572901Y-97184755D01*
X153436000Y-97619000D01*
X153436000Y-98044000D01*
X154469000Y-98044000D01*
X154469000Y-98024000D01*
X154723000Y-98024000D01*
X154723000Y-98044000D01*
X155756000Y-98044000D01*
X155756000Y-97619000D01*
X155619099Y-97184755D01*
X155406272Y-96931100D01*
X157959470Y-96931100D01*
X157758187Y-97132383D01*
X157579000Y-97564980D01*
X157579000Y-98033220D01*
X157699004Y-98322937D01*
X156350672Y-99671270D01*
X156319200Y-99692299D01*
X156298171Y-99723771D01*
X156298169Y-99723773D01*
X156235875Y-99817003D01*
X156206616Y-99964100D01*
X156214001Y-100001227D01*
X156214000Y-101321875D01*
X156171908Y-101350000D01*
X155125001Y-101350000D01*
X155012844Y-101237843D01*
X154800772Y-101150000D01*
X154571228Y-101150000D01*
X154359156Y-101237843D01*
X154196843Y-101400156D01*
X154109000Y-101612228D01*
X154109000Y-101841772D01*
X154196843Y-102053844D01*
X154359156Y-102216157D01*
X154571228Y-102304000D01*
X154800772Y-102304000D01*
X155012844Y-102216157D01*
X155125001Y-102104000D01*
X155843974Y-102104000D01*
X155732673Y-102215302D01*
X155636000Y-102448691D01*
X155636000Y-102584250D01*
X155794750Y-102743000D01*
X156464000Y-102743000D01*
X156464000Y-102723000D01*
X156718000Y-102723000D01*
X156718000Y-102743000D01*
X157387250Y-102743000D01*
X157546000Y-102584250D01*
X157546000Y-102448691D01*
X157449327Y-102215302D01*
X157270699Y-102036673D01*
X157244406Y-102025782D01*
X157244406Y-101752500D01*
X157207799Y-101568465D01*
X157103552Y-101412448D01*
X156968000Y-101321875D01*
X156968000Y-100120258D01*
X157461923Y-99626335D01*
X157314524Y-99982210D01*
X157435845Y-100212100D01*
X158629000Y-100212100D01*
X158629000Y-100192100D01*
X158883000Y-100192100D01*
X158883000Y-100212100D01*
X158903000Y-100212100D01*
X158903000Y-100466100D01*
X158883000Y-100466100D01*
X158883000Y-100486100D01*
X158629000Y-100486100D01*
X158629000Y-100466100D01*
X157435845Y-100466100D01*
X157314524Y-100695990D01*
X157484355Y-101106024D01*
X157874642Y-101534283D01*
X158353406Y-101759123D01*
X158296758Y-101770391D01*
X157907431Y-102030531D01*
X157647291Y-102419858D01*
X157555942Y-102879100D01*
X157647291Y-103338342D01*
X157679651Y-103386772D01*
X157601076Y-103439274D01*
X157512226Y-103572247D01*
X157482153Y-103723433D01*
X157351000Y-103854586D01*
X157351000Y-103796098D01*
X157192252Y-103796098D01*
X157351000Y-103637350D01*
X157351000Y-103623026D01*
X157449327Y-103524698D01*
X157546000Y-103291309D01*
X157546000Y-103155750D01*
X157387250Y-102997000D01*
X156912080Y-102997000D01*
X156842309Y-102968100D01*
X156706750Y-102968100D01*
X156548000Y-103126850D01*
X156548000Y-103796100D01*
X156568000Y-103796100D01*
X156568000Y-104050100D01*
X156548000Y-104050100D01*
X156548000Y-104070100D01*
X156294000Y-104070100D01*
X156294000Y-104050100D01*
X156274000Y-104050100D01*
X156274000Y-103800000D01*
X156305250Y-103800000D01*
X156464000Y-103641250D01*
X156464000Y-102997000D01*
X156164150Y-102997000D01*
X156135250Y-102968100D01*
X155999691Y-102968100D01*
X155929920Y-102997000D01*
X155794750Y-102997000D01*
X155636000Y-103155750D01*
X155636000Y-103195074D01*
X155587673Y-103243401D01*
X155576782Y-103269694D01*
X155303500Y-103269694D01*
X155119465Y-103306301D01*
X154963448Y-103410548D01*
X154859201Y-103566565D01*
X154822594Y-103750600D01*
X154822594Y-104072091D01*
X154613156Y-104158843D01*
X154450843Y-104321156D01*
X154363000Y-104533228D01*
X154363000Y-104762772D01*
X154450843Y-104974844D01*
X154613156Y-105137157D01*
X154825228Y-105225000D01*
X155054772Y-105225000D01*
X155266844Y-105137157D01*
X155429157Y-104974844D01*
X155517000Y-104762772D01*
X155517000Y-104604159D01*
X155544653Y-104576506D01*
X155576782Y-104576506D01*
X155587673Y-104602799D01*
X155766302Y-104781427D01*
X155999691Y-104878100D01*
X156135250Y-104878100D01*
X156293998Y-104719352D01*
X156293998Y-104878100D01*
X156327486Y-104878100D01*
X155535893Y-105669694D01*
X155303500Y-105669694D01*
X155119465Y-105706301D01*
X154963448Y-105810548D01*
X154859201Y-105966565D01*
X154822594Y-106150600D01*
X154822594Y-106495600D01*
X154833442Y-106550138D01*
X154673772Y-106484000D01*
X154444228Y-106484000D01*
X154232156Y-106571843D01*
X154134834Y-106669165D01*
X154074157Y-106522677D01*
X153911844Y-106360364D01*
X153699772Y-106272521D01*
X153470228Y-106272521D01*
X153258156Y-106360364D01*
X153095843Y-106522677D01*
X153008000Y-106734749D01*
X153008000Y-106964293D01*
X153095843Y-107176365D01*
X153258156Y-107338678D01*
X153470228Y-107426521D01*
X153699772Y-107426521D01*
X153911844Y-107338678D01*
X154009166Y-107241356D01*
X154069843Y-107387844D01*
X154151770Y-107469771D01*
X154127521Y-107528315D01*
X154127521Y-107757859D01*
X154215364Y-107969931D01*
X154219960Y-107974527D01*
X154066409Y-108128078D01*
X153943150Y-108128078D01*
X153731078Y-108215921D01*
X153633657Y-108313342D01*
X152194750Y-106874436D01*
X152194750Y-104203619D01*
X152354695Y-104043675D01*
X152390350Y-104019851D01*
X152484725Y-103878608D01*
X152506168Y-103770807D01*
X152510089Y-103770027D01*
X152618254Y-103697754D01*
X152690527Y-103589589D01*
X152715906Y-103462000D01*
X152715906Y-103062000D01*
X152690527Y-102934411D01*
X152618254Y-102826246D01*
X152596933Y-102812000D01*
X152618254Y-102797754D01*
X152690527Y-102689589D01*
X152715906Y-102562000D01*
X152715906Y-102162000D01*
X152690527Y-102034411D01*
X152618254Y-101926246D01*
X152510089Y-101853973D01*
X152382500Y-101828594D01*
X152342000Y-101828594D01*
X152342000Y-101739228D01*
X152254157Y-101527156D01*
X152091844Y-101364843D01*
X151879772Y-101277000D01*
X151650228Y-101277000D01*
X151438156Y-101364843D01*
X151384000Y-101418999D01*
X151329844Y-101364843D01*
X151117772Y-101277000D01*
X150888228Y-101277000D01*
X150676156Y-101364843D01*
X150513843Y-101527156D01*
X150426000Y-101739228D01*
X150426000Y-101966013D01*
X150395754Y-101920746D01*
X150287589Y-101848473D01*
X150160000Y-101823094D01*
X149560000Y-101823094D01*
X149432411Y-101848473D01*
X149324246Y-101920746D01*
X149251973Y-102028911D01*
X149226594Y-102156500D01*
X149226594Y-102556500D01*
X149251973Y-102684089D01*
X149324246Y-102792254D01*
X149345567Y-102806500D01*
X149324246Y-102820746D01*
X149251973Y-102928911D01*
X149226594Y-103056500D01*
X149226594Y-103456500D01*
X149251973Y-103584089D01*
X149324246Y-103692254D01*
X149424655Y-103759344D01*
X149379750Y-103804249D01*
X149291907Y-104016321D01*
X149291907Y-104245865D01*
X149379750Y-104457937D01*
X149542063Y-104620250D01*
X149754135Y-104708093D01*
X149884719Y-104708093D01*
X149962054Y-104759767D01*
X150079316Y-104783092D01*
X150079321Y-104783092D01*
X150118906Y-104790966D01*
X150158491Y-104783092D01*
X150197932Y-104783092D01*
X150216463Y-104810825D01*
X150349436Y-104899675D01*
X150440730Y-104917835D01*
X150440731Y-107498949D01*
X150432856Y-107538539D01*
X150464056Y-107695391D01*
X150530479Y-107794801D01*
X150530482Y-107794804D01*
X150552906Y-107828364D01*
X150586466Y-107850788D01*
X151372966Y-108637288D01*
X151315000Y-108777230D01*
X151315000Y-109006774D01*
X151402843Y-109218846D01*
X151490000Y-109306003D01*
X151490000Y-109567999D01*
X151402843Y-109655156D01*
X151315000Y-109867228D01*
X151315000Y-110096772D01*
X151402843Y-110308844D01*
X151490000Y-110396001D01*
X151490001Y-117816486D01*
X151443893Y-117862594D01*
X151211500Y-117862594D01*
X151027465Y-117899201D01*
X150902549Y-117982667D01*
X150736772Y-117914000D01*
X150517896Y-117914000D01*
X150414589Y-117844973D01*
X150287000Y-117819594D01*
X149687000Y-117819594D01*
X149559411Y-117844973D01*
X149451246Y-117917246D01*
X149428780Y-117950868D01*
X149339772Y-117914000D01*
X149110228Y-117914000D01*
X148939784Y-117984600D01*
X148966000Y-117921310D01*
X148966000Y-117760750D01*
X148807250Y-117602000D01*
X148163000Y-117602000D01*
X148163000Y-118271250D01*
X148321750Y-118430000D01*
X148457309Y-118430000D01*
X148660607Y-118345791D01*
X148648000Y-118376228D01*
X148648000Y-118534842D01*
X148603671Y-118579170D01*
X148572200Y-118600199D01*
X148551171Y-118631671D01*
X148551169Y-118631673D01*
X148520456Y-118677639D01*
X148487465Y-118684201D01*
X148331448Y-118788448D01*
X148227201Y-118944465D01*
X148190594Y-119128500D01*
X148190594Y-119401782D01*
X148164301Y-119412673D01*
X147985673Y-119591302D01*
X147889000Y-119824691D01*
X147889000Y-119960250D01*
X148047750Y-120119000D01*
X148717000Y-120119000D01*
X148717000Y-120099000D01*
X148971000Y-120099000D01*
X148971000Y-120119000D01*
X148991000Y-120119000D01*
X148991000Y-120373000D01*
X148971000Y-120373000D01*
X148971000Y-121017250D01*
X149129750Y-121176000D01*
X149290310Y-121176000D01*
X149523699Y-121079327D01*
X149579532Y-121023493D01*
X149672448Y-121162552D01*
X149828465Y-121266799D01*
X150012500Y-121303406D01*
X150285782Y-121303406D01*
X150296673Y-121329699D01*
X150475302Y-121508327D01*
X150708691Y-121605000D01*
X150844250Y-121605000D01*
X151003000Y-121446250D01*
X151003000Y-120777000D01*
X151257000Y-120777000D01*
X151257000Y-121446250D01*
X151415750Y-121605000D01*
X151551309Y-121605000D01*
X151784698Y-121508327D01*
X151963327Y-121329699D01*
X152060000Y-121096310D01*
X152060000Y-121062750D01*
X153421000Y-121062750D01*
X153421000Y-121223310D01*
X153517673Y-121456699D01*
X153696302Y-121635327D01*
X153929691Y-121732000D01*
X154065250Y-121732000D01*
X154224000Y-121573250D01*
X154224000Y-120904000D01*
X153579750Y-120904000D01*
X153421000Y-121062750D01*
X152060000Y-121062750D01*
X152060000Y-120935750D01*
X151901250Y-120777000D01*
X151257000Y-120777000D01*
X151003000Y-120777000D01*
X150983000Y-120777000D01*
X150983000Y-120523000D01*
X151003000Y-120523000D01*
X151003000Y-120503000D01*
X151257000Y-120503000D01*
X151257000Y-120523000D01*
X151901250Y-120523000D01*
X152060000Y-120364250D01*
X152060000Y-120352825D01*
X152207690Y-120414000D01*
X152368250Y-120414000D01*
X152527000Y-120255250D01*
X152527000Y-119611000D01*
X152203250Y-119611000D01*
X152180250Y-119588000D01*
X151511000Y-119588000D01*
X151511000Y-119608000D01*
X151257000Y-119608000D01*
X151257000Y-119588000D01*
X151237000Y-119588000D01*
X151237000Y-119334000D01*
X151257000Y-119334000D01*
X151257000Y-119314000D01*
X151511000Y-119314000D01*
X151511000Y-119334000D01*
X151834750Y-119334000D01*
X151857750Y-119357000D01*
X152527000Y-119357000D01*
X152527000Y-119337000D01*
X152747010Y-119337000D01*
X152747010Y-119515889D01*
X152739626Y-119553012D01*
X152747010Y-119590134D01*
X152747010Y-119590137D01*
X152768885Y-119700109D01*
X152781000Y-119718240D01*
X152781000Y-120255250D01*
X152939750Y-120414000D01*
X153100310Y-120414000D01*
X153333699Y-120317327D01*
X153344433Y-120306593D01*
X153421000Y-120383161D01*
X153421000Y-120491250D01*
X153579750Y-120650000D01*
X154224000Y-120650000D01*
X154224000Y-120630000D01*
X154478000Y-120630000D01*
X154478000Y-120650000D01*
X154498000Y-120650000D01*
X154498000Y-120904000D01*
X154478000Y-120904000D01*
X154478000Y-121573250D01*
X154636750Y-121732000D01*
X154772309Y-121732000D01*
X154944001Y-121660883D01*
X154944001Y-121987338D01*
X154896246Y-122019246D01*
X154882000Y-122040567D01*
X154867754Y-122019246D01*
X154759589Y-121946973D01*
X154632000Y-121921594D01*
X154232000Y-121921594D01*
X154104411Y-121946973D01*
X153996246Y-122019246D01*
X153923973Y-122127411D01*
X153898594Y-122255000D01*
X153898594Y-122855000D01*
X153907289Y-122898710D01*
X153815843Y-122990156D01*
X153728000Y-123202228D01*
X153728000Y-123431772D01*
X153815843Y-123643844D01*
X153934562Y-123762563D01*
X153923973Y-123778411D01*
X153898594Y-123906000D01*
X153898594Y-124506000D01*
X153923973Y-124633589D01*
X153996246Y-124741754D01*
X154104411Y-124814027D01*
X154232000Y-124839406D01*
X154432248Y-124839406D01*
X155124435Y-125531594D01*
X154188255Y-125531594D01*
X154247000Y-125389772D01*
X154247000Y-125160228D01*
X154159157Y-124948156D01*
X153996844Y-124785843D01*
X153784772Y-124698000D01*
X153555228Y-124698000D01*
X153343156Y-124785843D01*
X153180843Y-124948156D01*
X153093000Y-125160228D01*
X153093000Y-125389772D01*
X153151745Y-125531594D01*
X152095000Y-125531594D01*
X151967411Y-125556973D01*
X151859246Y-125629246D01*
X151786973Y-125737411D01*
X151761594Y-125865000D01*
X151761594Y-126606259D01*
X151625772Y-126550000D01*
X151396228Y-126550000D01*
X151276341Y-126599659D01*
X151326000Y-126479772D01*
X151326000Y-126250228D01*
X151238157Y-126038156D01*
X151184001Y-125984000D01*
X151238157Y-125929844D01*
X151326000Y-125717772D01*
X151326000Y-125488228D01*
X151238157Y-125276156D01*
X151126000Y-125163999D01*
X151126000Y-123005000D01*
X151244772Y-123005000D01*
X151456844Y-122917157D01*
X151619157Y-122754844D01*
X151707000Y-122542772D01*
X151707000Y-122313228D01*
X151619157Y-122101156D01*
X151456844Y-121938843D01*
X151244772Y-121851000D01*
X151015228Y-121851000D01*
X150803156Y-121938843D01*
X150640843Y-122101156D01*
X150553000Y-122313228D01*
X150553000Y-122471842D01*
X150508673Y-122516168D01*
X150477199Y-122537199D01*
X150393875Y-122661903D01*
X150372000Y-122771875D01*
X150372000Y-122771878D01*
X150364616Y-122809000D01*
X150372000Y-122846123D01*
X150372001Y-125163998D01*
X150259843Y-125276156D01*
X150172000Y-125488228D01*
X150172000Y-125531594D01*
X149447001Y-125531594D01*
X149513343Y-125371429D01*
X149513343Y-125141885D01*
X149425500Y-124929813D01*
X149362263Y-124866576D01*
X149421000Y-124724772D01*
X149421000Y-124495228D01*
X149333157Y-124283156D01*
X149221000Y-124170999D01*
X149221000Y-123519126D01*
X149228385Y-123482000D01*
X149202949Y-123354125D01*
X149199125Y-123334902D01*
X149115801Y-123210199D01*
X149084327Y-123189169D01*
X148588406Y-122693248D01*
X148588406Y-122493000D01*
X148563027Y-122365411D01*
X148490754Y-122257246D01*
X148469433Y-122243000D01*
X148490754Y-122228754D01*
X148563027Y-122120589D01*
X148588406Y-121993000D01*
X148588406Y-121593000D01*
X148563027Y-121465411D01*
X148490754Y-121357246D01*
X148382589Y-121284973D01*
X148350024Y-121278495D01*
X148393242Y-121174158D01*
X148397690Y-121176000D01*
X148558250Y-121176000D01*
X148717000Y-121017250D01*
X148717000Y-120373000D01*
X148047750Y-120373000D01*
X147959727Y-120461023D01*
X147942772Y-120454000D01*
X147713228Y-120454000D01*
X147501156Y-120541843D01*
X147443000Y-120599999D01*
X147443000Y-118358883D01*
X147614691Y-118430000D01*
X147750250Y-118430000D01*
X147909000Y-118271250D01*
X147909000Y-117602000D01*
X147889000Y-117602000D01*
X147889000Y-117348000D01*
X147909000Y-117348000D01*
X147909000Y-116678750D01*
X148163000Y-116678750D01*
X148163000Y-117348000D01*
X148807250Y-117348000D01*
X148966000Y-117189250D01*
X148966000Y-117028690D01*
X148869327Y-116795301D01*
X148690698Y-116616673D01*
X148457309Y-116520000D01*
X148321750Y-116520000D01*
X148163000Y-116678750D01*
X147909000Y-116678750D01*
X147844224Y-116613974D01*
X147850385Y-116583000D01*
X147843001Y-116545879D01*
X147843001Y-113223000D01*
X147955002Y-113223000D01*
X147955002Y-113064252D01*
X148113750Y-113223000D01*
X148249309Y-113223000D01*
X148482698Y-113126327D01*
X148661327Y-112947699D01*
X148758000Y-112714310D01*
X148758000Y-112553750D01*
X148599250Y-112395000D01*
X147955000Y-112395000D01*
X147955000Y-112415000D01*
X147701000Y-112415000D01*
X147701000Y-112395000D01*
X147681000Y-112395000D01*
X147681000Y-112141000D01*
X147701000Y-112141000D01*
X147701000Y-112121000D01*
X147955000Y-112121000D01*
X147955000Y-112141000D01*
X148599250Y-112141000D01*
X148714632Y-112025618D01*
X148731000Y-112028874D01*
X148770585Y-112021000D01*
X148770590Y-112021000D01*
X148887852Y-111997675D01*
X149020825Y-111908825D01*
X149043251Y-111875262D01*
X149410251Y-111508263D01*
X149410253Y-111508260D01*
X150359514Y-110559000D01*
X150482772Y-110559000D01*
X150694844Y-110471157D01*
X150857157Y-110308844D01*
X150945000Y-110096772D01*
X150945000Y-109867228D01*
X150857157Y-109655156D01*
X150694844Y-109492843D01*
X150482772Y-109405000D01*
X150253228Y-109405000D01*
X150041156Y-109492843D01*
X149878843Y-109655156D01*
X149791000Y-109867228D01*
X149791000Y-109990486D01*
X148841740Y-110939747D01*
X148841737Y-110939749D01*
X148564487Y-111217000D01*
X146718001Y-111217000D01*
X146713513Y-111212512D01*
X146883327Y-111042699D01*
X146894218Y-111016406D01*
X147167500Y-111016406D01*
X147351535Y-110979799D01*
X147507552Y-110875552D01*
X147611799Y-110719535D01*
X147648406Y-110535500D01*
X147648406Y-110190500D01*
X147611799Y-110006465D01*
X147507552Y-109850448D01*
X147422000Y-109793284D01*
X147422000Y-109154716D01*
X147507552Y-109097552D01*
X147611799Y-108941535D01*
X147635350Y-108823137D01*
X147840228Y-108908000D01*
X148069772Y-108908000D01*
X148281844Y-108820157D01*
X148444157Y-108657844D01*
X148532000Y-108445772D01*
X148532000Y-108216228D01*
X148444157Y-108004156D01*
X148281844Y-107841843D01*
X148069772Y-107754000D01*
X147840228Y-107754000D01*
X147628156Y-107841843D01*
X147540999Y-107929000D01*
X147313584Y-107929000D01*
X147273999Y-107921126D01*
X147234414Y-107929000D01*
X147234410Y-107929000D01*
X147194435Y-107936952D01*
X147167500Y-107931594D01*
X146894218Y-107931594D01*
X146883327Y-107905301D01*
X146704698Y-107726673D01*
X146471309Y-107630000D01*
X146335750Y-107630000D01*
X146177000Y-107788750D01*
X146177000Y-108458000D01*
X146197000Y-108458000D01*
X146197000Y-108712000D01*
X146177000Y-108712000D01*
X146177000Y-109381250D01*
X146269750Y-109474000D01*
X146177000Y-109566750D01*
X146177000Y-110236000D01*
X146197000Y-110236000D01*
X146197000Y-110490000D01*
X146177000Y-110490000D01*
X146177000Y-110510000D01*
X145923000Y-110510000D01*
X145923000Y-110490000D01*
X145278750Y-110490000D01*
X145120000Y-110648750D01*
X145120000Y-110809310D01*
X145139339Y-110855999D01*
X144645066Y-110855999D01*
X144716058Y-110499100D01*
X144624709Y-110039858D01*
X144364569Y-109650531D01*
X143975242Y-109390391D01*
X143631920Y-109322100D01*
X143400080Y-109322100D01*
X143056758Y-109390391D01*
X142667431Y-109650531D01*
X142648000Y-109679612D01*
X142648000Y-108778588D01*
X142667431Y-108807669D01*
X143056758Y-109067809D01*
X143400080Y-109136100D01*
X143631920Y-109136100D01*
X143975242Y-109067809D01*
X144270161Y-108870750D01*
X145120000Y-108870750D01*
X145120000Y-109031310D01*
X145216673Y-109264699D01*
X145395302Y-109443327D01*
X145469353Y-109474000D01*
X145395302Y-109504673D01*
X145216673Y-109683301D01*
X145120000Y-109916690D01*
X145120000Y-110077250D01*
X145278750Y-110236000D01*
X145923000Y-110236000D01*
X145923000Y-109566750D01*
X145830250Y-109474000D01*
X145923000Y-109381250D01*
X145923000Y-108712000D01*
X145278750Y-108712000D01*
X145120000Y-108870750D01*
X144270161Y-108870750D01*
X144364569Y-108807669D01*
X144624709Y-108418342D01*
X144680335Y-108138690D01*
X145120000Y-108138690D01*
X145120000Y-108299250D01*
X145278750Y-108458000D01*
X145923000Y-108458000D01*
X145923000Y-107788750D01*
X145764250Y-107630000D01*
X145628691Y-107630000D01*
X145395302Y-107726673D01*
X145216673Y-107905301D01*
X145120000Y-108138690D01*
X144680335Y-108138690D01*
X144716058Y-107959100D01*
X144624709Y-107499858D01*
X144364569Y-107110531D01*
X143975242Y-106850391D01*
X143631920Y-106782100D01*
X143400080Y-106782100D01*
X143056758Y-106850391D01*
X142667431Y-107110531D01*
X142648000Y-107139612D01*
X142648000Y-106238588D01*
X142667431Y-106267669D01*
X143056758Y-106527809D01*
X143400080Y-106596100D01*
X143631920Y-106596100D01*
X143975242Y-106527809D01*
X144364569Y-106267669D01*
X144624709Y-105878342D01*
X144716058Y-105419100D01*
X144624709Y-104959858D01*
X144364569Y-104570531D01*
X143975242Y-104310391D01*
X143631920Y-104242100D01*
X143400080Y-104242100D01*
X143056758Y-104310391D01*
X142667431Y-104570531D01*
X142648000Y-104599612D01*
X142648000Y-103698588D01*
X142667431Y-103727669D01*
X143056758Y-103987809D01*
X143400080Y-104056100D01*
X143631920Y-104056100D01*
X143975242Y-103987809D01*
X144364569Y-103727669D01*
X144624709Y-103338342D01*
X144716058Y-102879100D01*
X144624709Y-102419858D01*
X144364569Y-102030531D01*
X143975242Y-101770391D01*
X143631920Y-101702100D01*
X143400080Y-101702100D01*
X143056758Y-101770391D01*
X142667431Y-102030531D01*
X142648000Y-102059612D01*
X142648000Y-101158588D01*
X142667431Y-101187669D01*
X143056758Y-101447809D01*
X143400080Y-101516100D01*
X143631920Y-101516100D01*
X143975242Y-101447809D01*
X144364569Y-101187669D01*
X144624709Y-100798342D01*
X144716058Y-100339100D01*
X144624709Y-99879858D01*
X144364569Y-99490531D01*
X144055623Y-99284100D01*
X144492309Y-99284100D01*
X144725698Y-99187427D01*
X144904327Y-99008799D01*
X145001000Y-98775410D01*
X145001000Y-98298000D01*
X146286000Y-98298000D01*
X146286000Y-98723000D01*
X146422901Y-99157245D01*
X146715559Y-99506046D01*
X147140190Y-99714964D01*
X147319000Y-99589163D01*
X147319000Y-98298000D01*
X147573000Y-98298000D01*
X147573000Y-99589163D01*
X147751810Y-99714964D01*
X148176441Y-99506046D01*
X148469099Y-99157245D01*
X148606000Y-98723000D01*
X148606000Y-98298000D01*
X153436000Y-98298000D01*
X153436000Y-98723000D01*
X153572901Y-99157245D01*
X153865559Y-99506046D01*
X154290190Y-99714964D01*
X154469000Y-99589163D01*
X154469000Y-98298000D01*
X154723000Y-98298000D01*
X154723000Y-99589163D01*
X154901810Y-99714964D01*
X155326441Y-99506046D01*
X155619099Y-99157245D01*
X155756000Y-98723000D01*
X155756000Y-98298000D01*
X154723000Y-98298000D01*
X154469000Y-98298000D01*
X153436000Y-98298000D01*
X148606000Y-98298000D01*
X147573000Y-98298000D01*
X147319000Y-98298000D01*
X146286000Y-98298000D01*
X145001000Y-98298000D01*
X145001000Y-98084850D01*
X144842250Y-97926100D01*
X143643000Y-97926100D01*
X143643000Y-97946100D01*
X143389000Y-97946100D01*
X143389000Y-97926100D01*
X143369000Y-97926100D01*
X143369000Y-97672100D01*
X143389000Y-97672100D01*
X143389000Y-97652100D01*
X143643000Y-97652100D01*
X143643000Y-97672100D01*
X144842250Y-97672100D01*
X145001000Y-97513350D01*
X145001000Y-96931100D01*
X146635728Y-96931100D01*
X146422901Y-97184755D01*
X146422901Y-97184755D01*
G37*
X146422901Y-97184755D02*
X146286000Y-97619000D01*
X146286000Y-98044000D01*
X147319000Y-98044000D01*
X147319000Y-98024000D01*
X147573000Y-98024000D01*
X147573000Y-98044000D01*
X148606000Y-98044000D01*
X148606000Y-97619000D01*
X148469099Y-97184755D01*
X148256272Y-96931100D01*
X153785728Y-96931100D01*
X153572901Y-97184755D01*
X153436000Y-97619000D01*
X153436000Y-98044000D01*
X154469000Y-98044000D01*
X154469000Y-98024000D01*
X154723000Y-98024000D01*
X154723000Y-98044000D01*
X155756000Y-98044000D01*
X155756000Y-97619000D01*
X155619099Y-97184755D01*
X155406272Y-96931100D01*
X157959470Y-96931100D01*
X157758187Y-97132383D01*
X157579000Y-97564980D01*
X157579000Y-98033220D01*
X157699004Y-98322937D01*
X156350672Y-99671270D01*
X156319200Y-99692299D01*
X156298171Y-99723771D01*
X156298169Y-99723773D01*
X156235875Y-99817003D01*
X156206616Y-99964100D01*
X156214001Y-100001227D01*
X156214000Y-101321875D01*
X156171908Y-101350000D01*
X155125001Y-101350000D01*
X155012844Y-101237843D01*
X154800772Y-101150000D01*
X154571228Y-101150000D01*
X154359156Y-101237843D01*
X154196843Y-101400156D01*
X154109000Y-101612228D01*
X154109000Y-101841772D01*
X154196843Y-102053844D01*
X154359156Y-102216157D01*
X154571228Y-102304000D01*
X154800772Y-102304000D01*
X155012844Y-102216157D01*
X155125001Y-102104000D01*
X155843974Y-102104000D01*
X155732673Y-102215302D01*
X155636000Y-102448691D01*
X155636000Y-102584250D01*
X155794750Y-102743000D01*
X156464000Y-102743000D01*
X156464000Y-102723000D01*
X156718000Y-102723000D01*
X156718000Y-102743000D01*
X157387250Y-102743000D01*
X157546000Y-102584250D01*
X157546000Y-102448691D01*
X157449327Y-102215302D01*
X157270699Y-102036673D01*
X157244406Y-102025782D01*
X157244406Y-101752500D01*
X157207799Y-101568465D01*
X157103552Y-101412448D01*
X156968000Y-101321875D01*
X156968000Y-100120258D01*
X157461923Y-99626335D01*
X157314524Y-99982210D01*
X157435845Y-100212100D01*
X158629000Y-100212100D01*
X158629000Y-100192100D01*
X158883000Y-100192100D01*
X158883000Y-100212100D01*
X158903000Y-100212100D01*
X158903000Y-100466100D01*
X158883000Y-100466100D01*
X158883000Y-100486100D01*
X158629000Y-100486100D01*
X158629000Y-100466100D01*
X157435845Y-100466100D01*
X157314524Y-100695990D01*
X157484355Y-101106024D01*
X157874642Y-101534283D01*
X158353406Y-101759123D01*
X158296758Y-101770391D01*
X157907431Y-102030531D01*
X157647291Y-102419858D01*
X157555942Y-102879100D01*
X157647291Y-103338342D01*
X157679651Y-103386772D01*
X157601076Y-103439274D01*
X157512226Y-103572247D01*
X157482153Y-103723433D01*
X157351000Y-103854586D01*
X157351000Y-103796098D01*
X157192252Y-103796098D01*
X157351000Y-103637350D01*
X157351000Y-103623026D01*
X157449327Y-103524698D01*
X157546000Y-103291309D01*
X157546000Y-103155750D01*
X157387250Y-102997000D01*
X156912080Y-102997000D01*
X156842309Y-102968100D01*
X156706750Y-102968100D01*
X156548000Y-103126850D01*
X156548000Y-103796100D01*
X156568000Y-103796100D01*
X156568000Y-104050100D01*
X156548000Y-104050100D01*
X156548000Y-104070100D01*
X156294000Y-104070100D01*
X156294000Y-104050100D01*
X156274000Y-104050100D01*
X156274000Y-103800000D01*
X156305250Y-103800000D01*
X156464000Y-103641250D01*
X156464000Y-102997000D01*
X156164150Y-102997000D01*
X156135250Y-102968100D01*
X155999691Y-102968100D01*
X155929920Y-102997000D01*
X155794750Y-102997000D01*
X155636000Y-103155750D01*
X155636000Y-103195074D01*
X155587673Y-103243401D01*
X155576782Y-103269694D01*
X155303500Y-103269694D01*
X155119465Y-103306301D01*
X154963448Y-103410548D01*
X154859201Y-103566565D01*
X154822594Y-103750600D01*
X154822594Y-104072091D01*
X154613156Y-104158843D01*
X154450843Y-104321156D01*
X154363000Y-104533228D01*
X154363000Y-104762772D01*
X154450843Y-104974844D01*
X154613156Y-105137157D01*
X154825228Y-105225000D01*
X155054772Y-105225000D01*
X155266844Y-105137157D01*
X155429157Y-104974844D01*
X155517000Y-104762772D01*
X155517000Y-104604159D01*
X155544653Y-104576506D01*
X155576782Y-104576506D01*
X155587673Y-104602799D01*
X155766302Y-104781427D01*
X155999691Y-104878100D01*
X156135250Y-104878100D01*
X156293998Y-104719352D01*
X156293998Y-104878100D01*
X156327486Y-104878100D01*
X155535893Y-105669694D01*
X155303500Y-105669694D01*
X155119465Y-105706301D01*
X154963448Y-105810548D01*
X154859201Y-105966565D01*
X154822594Y-106150600D01*
X154822594Y-106495600D01*
X154833442Y-106550138D01*
X154673772Y-106484000D01*
X154444228Y-106484000D01*
X154232156Y-106571843D01*
X154134834Y-106669165D01*
X154074157Y-106522677D01*
X153911844Y-106360364D01*
X153699772Y-106272521D01*
X153470228Y-106272521D01*
X153258156Y-106360364D01*
X153095843Y-106522677D01*
X153008000Y-106734749D01*
X153008000Y-106964293D01*
X153095843Y-107176365D01*
X153258156Y-107338678D01*
X153470228Y-107426521D01*
X153699772Y-107426521D01*
X153911844Y-107338678D01*
X154009166Y-107241356D01*
X154069843Y-107387844D01*
X154151770Y-107469771D01*
X154127521Y-107528315D01*
X154127521Y-107757859D01*
X154215364Y-107969931D01*
X154219960Y-107974527D01*
X154066409Y-108128078D01*
X153943150Y-108128078D01*
X153731078Y-108215921D01*
X153633657Y-108313342D01*
X152194750Y-106874436D01*
X152194750Y-104203619D01*
X152354695Y-104043675D01*
X152390350Y-104019851D01*
X152484725Y-103878608D01*
X152506168Y-103770807D01*
X152510089Y-103770027D01*
X152618254Y-103697754D01*
X152690527Y-103589589D01*
X152715906Y-103462000D01*
X152715906Y-103062000D01*
X152690527Y-102934411D01*
X152618254Y-102826246D01*
X152596933Y-102812000D01*
X152618254Y-102797754D01*
X152690527Y-102689589D01*
X152715906Y-102562000D01*
X152715906Y-102162000D01*
X152690527Y-102034411D01*
X152618254Y-101926246D01*
X152510089Y-101853973D01*
X152382500Y-101828594D01*
X152342000Y-101828594D01*
X152342000Y-101739228D01*
X152254157Y-101527156D01*
X152091844Y-101364843D01*
X151879772Y-101277000D01*
X151650228Y-101277000D01*
X151438156Y-101364843D01*
X151384000Y-101418999D01*
X151329844Y-101364843D01*
X151117772Y-101277000D01*
X150888228Y-101277000D01*
X150676156Y-101364843D01*
X150513843Y-101527156D01*
X150426000Y-101739228D01*
X150426000Y-101966013D01*
X150395754Y-101920746D01*
X150287589Y-101848473D01*
X150160000Y-101823094D01*
X149560000Y-101823094D01*
X149432411Y-101848473D01*
X149324246Y-101920746D01*
X149251973Y-102028911D01*
X149226594Y-102156500D01*
X149226594Y-102556500D01*
X149251973Y-102684089D01*
X149324246Y-102792254D01*
X149345567Y-102806500D01*
X149324246Y-102820746D01*
X149251973Y-102928911D01*
X149226594Y-103056500D01*
X149226594Y-103456500D01*
X149251973Y-103584089D01*
X149324246Y-103692254D01*
X149424655Y-103759344D01*
X149379750Y-103804249D01*
X149291907Y-104016321D01*
X149291907Y-104245865D01*
X149379750Y-104457937D01*
X149542063Y-104620250D01*
X149754135Y-104708093D01*
X149884719Y-104708093D01*
X149962054Y-104759767D01*
X150079316Y-104783092D01*
X150079321Y-104783092D01*
X150118906Y-104790966D01*
X150158491Y-104783092D01*
X150197932Y-104783092D01*
X150216463Y-104810825D01*
X150349436Y-104899675D01*
X150440730Y-104917835D01*
X150440731Y-107498949D01*
X150432856Y-107538539D01*
X150464056Y-107695391D01*
X150530479Y-107794801D01*
X150530482Y-107794804D01*
X150552906Y-107828364D01*
X150586466Y-107850788D01*
X151372966Y-108637288D01*
X151315000Y-108777230D01*
X151315000Y-109006774D01*
X151402843Y-109218846D01*
X151490000Y-109306003D01*
X151490000Y-109567999D01*
X151402843Y-109655156D01*
X151315000Y-109867228D01*
X151315000Y-110096772D01*
X151402843Y-110308844D01*
X151490000Y-110396001D01*
X151490001Y-117816486D01*
X151443893Y-117862594D01*
X151211500Y-117862594D01*
X151027465Y-117899201D01*
X150902549Y-117982667D01*
X150736772Y-117914000D01*
X150517896Y-117914000D01*
X150414589Y-117844973D01*
X150287000Y-117819594D01*
X149687000Y-117819594D01*
X149559411Y-117844973D01*
X149451246Y-117917246D01*
X149428780Y-117950868D01*
X149339772Y-117914000D01*
X149110228Y-117914000D01*
X148939784Y-117984600D01*
X148966000Y-117921310D01*
X148966000Y-117760750D01*
X148807250Y-117602000D01*
X148163000Y-117602000D01*
X148163000Y-118271250D01*
X148321750Y-118430000D01*
X148457309Y-118430000D01*
X148660607Y-118345791D01*
X148648000Y-118376228D01*
X148648000Y-118534842D01*
X148603671Y-118579170D01*
X148572200Y-118600199D01*
X148551171Y-118631671D01*
X148551169Y-118631673D01*
X148520456Y-118677639D01*
X148487465Y-118684201D01*
X148331448Y-118788448D01*
X148227201Y-118944465D01*
X148190594Y-119128500D01*
X148190594Y-119401782D01*
X148164301Y-119412673D01*
X147985673Y-119591302D01*
X147889000Y-119824691D01*
X147889000Y-119960250D01*
X148047750Y-120119000D01*
X148717000Y-120119000D01*
X148717000Y-120099000D01*
X148971000Y-120099000D01*
X148971000Y-120119000D01*
X148991000Y-120119000D01*
X148991000Y-120373000D01*
X148971000Y-120373000D01*
X148971000Y-121017250D01*
X149129750Y-121176000D01*
X149290310Y-121176000D01*
X149523699Y-121079327D01*
X149579532Y-121023493D01*
X149672448Y-121162552D01*
X149828465Y-121266799D01*
X150012500Y-121303406D01*
X150285782Y-121303406D01*
X150296673Y-121329699D01*
X150475302Y-121508327D01*
X150708691Y-121605000D01*
X150844250Y-121605000D01*
X151003000Y-121446250D01*
X151003000Y-120777000D01*
X151257000Y-120777000D01*
X151257000Y-121446250D01*
X151415750Y-121605000D01*
X151551309Y-121605000D01*
X151784698Y-121508327D01*
X151963327Y-121329699D01*
X152060000Y-121096310D01*
X152060000Y-121062750D01*
X153421000Y-121062750D01*
X153421000Y-121223310D01*
X153517673Y-121456699D01*
X153696302Y-121635327D01*
X153929691Y-121732000D01*
X154065250Y-121732000D01*
X154224000Y-121573250D01*
X154224000Y-120904000D01*
X153579750Y-120904000D01*
X153421000Y-121062750D01*
X152060000Y-121062750D01*
X152060000Y-120935750D01*
X151901250Y-120777000D01*
X151257000Y-120777000D01*
X151003000Y-120777000D01*
X150983000Y-120777000D01*
X150983000Y-120523000D01*
X151003000Y-120523000D01*
X151003000Y-120503000D01*
X151257000Y-120503000D01*
X151257000Y-120523000D01*
X151901250Y-120523000D01*
X152060000Y-120364250D01*
X152060000Y-120352825D01*
X152207690Y-120414000D01*
X152368250Y-120414000D01*
X152527000Y-120255250D01*
X152527000Y-119611000D01*
X152203250Y-119611000D01*
X152180250Y-119588000D01*
X151511000Y-119588000D01*
X151511000Y-119608000D01*
X151257000Y-119608000D01*
X151257000Y-119588000D01*
X151237000Y-119588000D01*
X151237000Y-119334000D01*
X151257000Y-119334000D01*
X151257000Y-119314000D01*
X151511000Y-119314000D01*
X151511000Y-119334000D01*
X151834750Y-119334000D01*
X151857750Y-119357000D01*
X152527000Y-119357000D01*
X152527000Y-119337000D01*
X152747010Y-119337000D01*
X152747010Y-119515889D01*
X152739626Y-119553012D01*
X152747010Y-119590134D01*
X152747010Y-119590137D01*
X152768885Y-119700109D01*
X152781000Y-119718240D01*
X152781000Y-120255250D01*
X152939750Y-120414000D01*
X153100310Y-120414000D01*
X153333699Y-120317327D01*
X153344433Y-120306593D01*
X153421000Y-120383161D01*
X153421000Y-120491250D01*
X153579750Y-120650000D01*
X154224000Y-120650000D01*
X154224000Y-120630000D01*
X154478000Y-120630000D01*
X154478000Y-120650000D01*
X154498000Y-120650000D01*
X154498000Y-120904000D01*
X154478000Y-120904000D01*
X154478000Y-121573250D01*
X154636750Y-121732000D01*
X154772309Y-121732000D01*
X154944001Y-121660883D01*
X154944001Y-121987338D01*
X154896246Y-122019246D01*
X154882000Y-122040567D01*
X154867754Y-122019246D01*
X154759589Y-121946973D01*
X154632000Y-121921594D01*
X154232000Y-121921594D01*
X154104411Y-121946973D01*
X153996246Y-122019246D01*
X153923973Y-122127411D01*
X153898594Y-122255000D01*
X153898594Y-122855000D01*
X153907289Y-122898710D01*
X153815843Y-122990156D01*
X153728000Y-123202228D01*
X153728000Y-123431772D01*
X153815843Y-123643844D01*
X153934562Y-123762563D01*
X153923973Y-123778411D01*
X153898594Y-123906000D01*
X153898594Y-124506000D01*
X153923973Y-124633589D01*
X153996246Y-124741754D01*
X154104411Y-124814027D01*
X154232000Y-124839406D01*
X154432248Y-124839406D01*
X155124435Y-125531594D01*
X154188255Y-125531594D01*
X154247000Y-125389772D01*
X154247000Y-125160228D01*
X154159157Y-124948156D01*
X153996844Y-124785843D01*
X153784772Y-124698000D01*
X153555228Y-124698000D01*
X153343156Y-124785843D01*
X153180843Y-124948156D01*
X153093000Y-125160228D01*
X153093000Y-125389772D01*
X153151745Y-125531594D01*
X152095000Y-125531594D01*
X151967411Y-125556973D01*
X151859246Y-125629246D01*
X151786973Y-125737411D01*
X151761594Y-125865000D01*
X151761594Y-126606259D01*
X151625772Y-126550000D01*
X151396228Y-126550000D01*
X151276341Y-126599659D01*
X151326000Y-126479772D01*
X151326000Y-126250228D01*
X151238157Y-126038156D01*
X151184001Y-125984000D01*
X151238157Y-125929844D01*
X151326000Y-125717772D01*
X151326000Y-125488228D01*
X151238157Y-125276156D01*
X151126000Y-125163999D01*
X151126000Y-123005000D01*
X151244772Y-123005000D01*
X151456844Y-122917157D01*
X151619157Y-122754844D01*
X151707000Y-122542772D01*
X151707000Y-122313228D01*
X151619157Y-122101156D01*
X151456844Y-121938843D01*
X151244772Y-121851000D01*
X151015228Y-121851000D01*
X150803156Y-121938843D01*
X150640843Y-122101156D01*
X150553000Y-122313228D01*
X150553000Y-122471842D01*
X150508673Y-122516168D01*
X150477199Y-122537199D01*
X150393875Y-122661903D01*
X150372000Y-122771875D01*
X150372000Y-122771878D01*
X150364616Y-122809000D01*
X150372000Y-122846123D01*
X150372001Y-125163998D01*
X150259843Y-125276156D01*
X150172000Y-125488228D01*
X150172000Y-125531594D01*
X149447001Y-125531594D01*
X149513343Y-125371429D01*
X149513343Y-125141885D01*
X149425500Y-124929813D01*
X149362263Y-124866576D01*
X149421000Y-124724772D01*
X149421000Y-124495228D01*
X149333157Y-124283156D01*
X149221000Y-124170999D01*
X149221000Y-123519126D01*
X149228385Y-123482000D01*
X149202949Y-123354125D01*
X149199125Y-123334902D01*
X149115801Y-123210199D01*
X149084327Y-123189169D01*
X148588406Y-122693248D01*
X148588406Y-122493000D01*
X148563027Y-122365411D01*
X148490754Y-122257246D01*
X148469433Y-122243000D01*
X148490754Y-122228754D01*
X148563027Y-122120589D01*
X148588406Y-121993000D01*
X148588406Y-121593000D01*
X148563027Y-121465411D01*
X148490754Y-121357246D01*
X148382589Y-121284973D01*
X148350024Y-121278495D01*
X148393242Y-121174158D01*
X148397690Y-121176000D01*
X148558250Y-121176000D01*
X148717000Y-121017250D01*
X148717000Y-120373000D01*
X148047750Y-120373000D01*
X147959727Y-120461023D01*
X147942772Y-120454000D01*
X147713228Y-120454000D01*
X147501156Y-120541843D01*
X147443000Y-120599999D01*
X147443000Y-118358883D01*
X147614691Y-118430000D01*
X147750250Y-118430000D01*
X147909000Y-118271250D01*
X147909000Y-117602000D01*
X147889000Y-117602000D01*
X147889000Y-117348000D01*
X147909000Y-117348000D01*
X147909000Y-116678750D01*
X148163000Y-116678750D01*
X148163000Y-117348000D01*
X148807250Y-117348000D01*
X148966000Y-117189250D01*
X148966000Y-117028690D01*
X148869327Y-116795301D01*
X148690698Y-116616673D01*
X148457309Y-116520000D01*
X148321750Y-116520000D01*
X148163000Y-116678750D01*
X147909000Y-116678750D01*
X147844224Y-116613974D01*
X147850385Y-116583000D01*
X147843001Y-116545879D01*
X147843001Y-113223000D01*
X147955002Y-113223000D01*
X147955002Y-113064252D01*
X148113750Y-113223000D01*
X148249309Y-113223000D01*
X148482698Y-113126327D01*
X148661327Y-112947699D01*
X148758000Y-112714310D01*
X148758000Y-112553750D01*
X148599250Y-112395000D01*
X147955000Y-112395000D01*
X147955000Y-112415000D01*
X147701000Y-112415000D01*
X147701000Y-112395000D01*
X147681000Y-112395000D01*
X147681000Y-112141000D01*
X147701000Y-112141000D01*
X147701000Y-112121000D01*
X147955000Y-112121000D01*
X147955000Y-112141000D01*
X148599250Y-112141000D01*
X148714632Y-112025618D01*
X148731000Y-112028874D01*
X148770585Y-112021000D01*
X148770590Y-112021000D01*
X148887852Y-111997675D01*
X149020825Y-111908825D01*
X149043251Y-111875262D01*
X149410251Y-111508263D01*
X149410253Y-111508260D01*
X150359514Y-110559000D01*
X150482772Y-110559000D01*
X150694844Y-110471157D01*
X150857157Y-110308844D01*
X150945000Y-110096772D01*
X150945000Y-109867228D01*
X150857157Y-109655156D01*
X150694844Y-109492843D01*
X150482772Y-109405000D01*
X150253228Y-109405000D01*
X150041156Y-109492843D01*
X149878843Y-109655156D01*
X149791000Y-109867228D01*
X149791000Y-109990486D01*
X148841740Y-110939747D01*
X148841737Y-110939749D01*
X148564487Y-111217000D01*
X146718001Y-111217000D01*
X146713513Y-111212512D01*
X146883327Y-111042699D01*
X146894218Y-111016406D01*
X147167500Y-111016406D01*
X147351535Y-110979799D01*
X147507552Y-110875552D01*
X147611799Y-110719535D01*
X147648406Y-110535500D01*
X147648406Y-110190500D01*
X147611799Y-110006465D01*
X147507552Y-109850448D01*
X147422000Y-109793284D01*
X147422000Y-109154716D01*
X147507552Y-109097552D01*
X147611799Y-108941535D01*
X147635350Y-108823137D01*
X147840228Y-108908000D01*
X148069772Y-108908000D01*
X148281844Y-108820157D01*
X148444157Y-108657844D01*
X148532000Y-108445772D01*
X148532000Y-108216228D01*
X148444157Y-108004156D01*
X148281844Y-107841843D01*
X148069772Y-107754000D01*
X147840228Y-107754000D01*
X147628156Y-107841843D01*
X147540999Y-107929000D01*
X147313584Y-107929000D01*
X147273999Y-107921126D01*
X147234414Y-107929000D01*
X147234410Y-107929000D01*
X147194435Y-107936952D01*
X147167500Y-107931594D01*
X146894218Y-107931594D01*
X146883327Y-107905301D01*
X146704698Y-107726673D01*
X146471309Y-107630000D01*
X146335750Y-107630000D01*
X146177000Y-107788750D01*
X146177000Y-108458000D01*
X146197000Y-108458000D01*
X146197000Y-108712000D01*
X146177000Y-108712000D01*
X146177000Y-109381250D01*
X146269750Y-109474000D01*
X146177000Y-109566750D01*
X146177000Y-110236000D01*
X146197000Y-110236000D01*
X146197000Y-110490000D01*
X146177000Y-110490000D01*
X146177000Y-110510000D01*
X145923000Y-110510000D01*
X145923000Y-110490000D01*
X145278750Y-110490000D01*
X145120000Y-110648750D01*
X145120000Y-110809310D01*
X145139339Y-110855999D01*
X144645066Y-110855999D01*
X144716058Y-110499100D01*
X144624709Y-110039858D01*
X144364569Y-109650531D01*
X143975242Y-109390391D01*
X143631920Y-109322100D01*
X143400080Y-109322100D01*
X143056758Y-109390391D01*
X142667431Y-109650531D01*
X142648000Y-109679612D01*
X142648000Y-108778588D01*
X142667431Y-108807669D01*
X143056758Y-109067809D01*
X143400080Y-109136100D01*
X143631920Y-109136100D01*
X143975242Y-109067809D01*
X144270161Y-108870750D01*
X145120000Y-108870750D01*
X145120000Y-109031310D01*
X145216673Y-109264699D01*
X145395302Y-109443327D01*
X145469353Y-109474000D01*
X145395302Y-109504673D01*
X145216673Y-109683301D01*
X145120000Y-109916690D01*
X145120000Y-110077250D01*
X145278750Y-110236000D01*
X145923000Y-110236000D01*
X145923000Y-109566750D01*
X145830250Y-109474000D01*
X145923000Y-109381250D01*
X145923000Y-108712000D01*
X145278750Y-108712000D01*
X145120000Y-108870750D01*
X144270161Y-108870750D01*
X144364569Y-108807669D01*
X144624709Y-108418342D01*
X144680335Y-108138690D01*
X145120000Y-108138690D01*
X145120000Y-108299250D01*
X145278750Y-108458000D01*
X145923000Y-108458000D01*
X145923000Y-107788750D01*
X145764250Y-107630000D01*
X145628691Y-107630000D01*
X145395302Y-107726673D01*
X145216673Y-107905301D01*
X145120000Y-108138690D01*
X144680335Y-108138690D01*
X144716058Y-107959100D01*
X144624709Y-107499858D01*
X144364569Y-107110531D01*
X143975242Y-106850391D01*
X143631920Y-106782100D01*
X143400080Y-106782100D01*
X143056758Y-106850391D01*
X142667431Y-107110531D01*
X142648000Y-107139612D01*
X142648000Y-106238588D01*
X142667431Y-106267669D01*
X143056758Y-106527809D01*
X143400080Y-106596100D01*
X143631920Y-106596100D01*
X143975242Y-106527809D01*
X144364569Y-106267669D01*
X144624709Y-105878342D01*
X144716058Y-105419100D01*
X144624709Y-104959858D01*
X144364569Y-104570531D01*
X143975242Y-104310391D01*
X143631920Y-104242100D01*
X143400080Y-104242100D01*
X143056758Y-104310391D01*
X142667431Y-104570531D01*
X142648000Y-104599612D01*
X142648000Y-103698588D01*
X142667431Y-103727669D01*
X143056758Y-103987809D01*
X143400080Y-104056100D01*
X143631920Y-104056100D01*
X143975242Y-103987809D01*
X144364569Y-103727669D01*
X144624709Y-103338342D01*
X144716058Y-102879100D01*
X144624709Y-102419858D01*
X144364569Y-102030531D01*
X143975242Y-101770391D01*
X143631920Y-101702100D01*
X143400080Y-101702100D01*
X143056758Y-101770391D01*
X142667431Y-102030531D01*
X142648000Y-102059612D01*
X142648000Y-101158588D01*
X142667431Y-101187669D01*
X143056758Y-101447809D01*
X143400080Y-101516100D01*
X143631920Y-101516100D01*
X143975242Y-101447809D01*
X144364569Y-101187669D01*
X144624709Y-100798342D01*
X144716058Y-100339100D01*
X144624709Y-99879858D01*
X144364569Y-99490531D01*
X144055623Y-99284100D01*
X144492309Y-99284100D01*
X144725698Y-99187427D01*
X144904327Y-99008799D01*
X145001000Y-98775410D01*
X145001000Y-98298000D01*
X146286000Y-98298000D01*
X146286000Y-98723000D01*
X146422901Y-99157245D01*
X146715559Y-99506046D01*
X147140190Y-99714964D01*
X147319000Y-99589163D01*
X147319000Y-98298000D01*
X147573000Y-98298000D01*
X147573000Y-99589163D01*
X147751810Y-99714964D01*
X148176441Y-99506046D01*
X148469099Y-99157245D01*
X148606000Y-98723000D01*
X148606000Y-98298000D01*
X153436000Y-98298000D01*
X153436000Y-98723000D01*
X153572901Y-99157245D01*
X153865559Y-99506046D01*
X154290190Y-99714964D01*
X154469000Y-99589163D01*
X154469000Y-98298000D01*
X154723000Y-98298000D01*
X154723000Y-99589163D01*
X154901810Y-99714964D01*
X155326441Y-99506046D01*
X155619099Y-99157245D01*
X155756000Y-98723000D01*
X155756000Y-98298000D01*
X154723000Y-98298000D01*
X154469000Y-98298000D01*
X153436000Y-98298000D01*
X148606000Y-98298000D01*
X147573000Y-98298000D01*
X147319000Y-98298000D01*
X146286000Y-98298000D01*
X145001000Y-98298000D01*
X145001000Y-98084850D01*
X144842250Y-97926100D01*
X143643000Y-97926100D01*
X143643000Y-97946100D01*
X143389000Y-97946100D01*
X143389000Y-97926100D01*
X143369000Y-97926100D01*
X143369000Y-97672100D01*
X143389000Y-97672100D01*
X143389000Y-97652100D01*
X143643000Y-97652100D01*
X143643000Y-97672100D01*
X144842250Y-97672100D01*
X145001000Y-97513350D01*
X145001000Y-96931100D01*
X146635728Y-96931100D01*
X146422901Y-97184755D01*
G36*
X159624000Y-104599612D02*
X159604569Y-104570531D01*
X159215242Y-104310391D01*
X158871920Y-104242100D01*
X158640080Y-104242100D01*
X158296758Y-104310391D01*
X157907431Y-104570531D01*
X157647291Y-104959858D01*
X157555942Y-105419100D01*
X157647291Y-105878342D01*
X157907431Y-106267669D01*
X158296758Y-106527809D01*
X158640080Y-106596100D01*
X158871920Y-106596100D01*
X159215242Y-106527809D01*
X159604569Y-106267669D01*
X159624000Y-106238588D01*
X159624000Y-107139612D01*
X159604569Y-107110531D01*
X159215242Y-106850391D01*
X158871920Y-106782100D01*
X158640080Y-106782100D01*
X158296758Y-106850391D01*
X157907431Y-107110531D01*
X157647291Y-107499858D01*
X157555942Y-107959100D01*
X157647291Y-108418342D01*
X157693878Y-108488064D01*
X157693809Y-108488133D01*
X154843381Y-108488133D01*
X154960785Y-108370729D01*
X154994346Y-108348304D01*
X155016770Y-108314744D01*
X155016772Y-108314742D01*
X155080018Y-108220087D01*
X155083196Y-108215331D01*
X155100695Y-108127357D01*
X155119465Y-108139899D01*
X155303500Y-108176506D01*
X155576782Y-108176506D01*
X155587673Y-108202799D01*
X155766302Y-108381427D01*
X155999691Y-108478100D01*
X156135250Y-108478100D01*
X156294000Y-108319350D01*
X156294000Y-107650100D01*
X156548000Y-107650100D01*
X156548000Y-108319350D01*
X156706750Y-108478100D01*
X156842309Y-108478100D01*
X157075698Y-108381427D01*
X157254327Y-108202799D01*
X157351000Y-107969410D01*
X157351000Y-107808850D01*
X157192250Y-107650100D01*
X156548000Y-107650100D01*
X156294000Y-107650100D01*
X156274000Y-107650100D01*
X156274000Y-107396100D01*
X156294000Y-107396100D01*
X156294000Y-106450100D01*
X156548000Y-106450100D01*
X156548000Y-107396100D01*
X157192250Y-107396100D01*
X157351000Y-107237350D01*
X157351000Y-107076790D01*
X157287339Y-106923100D01*
X157351000Y-106769410D01*
X157351000Y-106608850D01*
X157192250Y-106450100D01*
X156548000Y-106450100D01*
X156294000Y-106450100D01*
X156274000Y-106450100D01*
X156274000Y-106196100D01*
X156294000Y-106196100D01*
X156294000Y-106176100D01*
X156548000Y-106176100D01*
X156548000Y-106196100D01*
X157192250Y-106196100D01*
X157351000Y-106037350D01*
X157351000Y-105876790D01*
X157254327Y-105643401D01*
X157075698Y-105464773D01*
X156935792Y-105406822D01*
X158147165Y-104195448D01*
X158180726Y-104173024D01*
X158203150Y-104139464D01*
X158203152Y-104139462D01*
X158269575Y-104040052D01*
X158269576Y-104040051D01*
X158281937Y-103977906D01*
X158296758Y-103987809D01*
X158640080Y-104056100D01*
X158871920Y-104056100D01*
X159215242Y-103987809D01*
X159604569Y-103727669D01*
X159624000Y-103698588D01*
X159624000Y-104599612D01*
X159624000Y-104599612D01*
G37*
X159624000Y-104599612D02*
X159604569Y-104570531D01*
X159215242Y-104310391D01*
X158871920Y-104242100D01*
X158640080Y-104242100D01*
X158296758Y-104310391D01*
X157907431Y-104570531D01*
X157647291Y-104959858D01*
X157555942Y-105419100D01*
X157647291Y-105878342D01*
X157907431Y-106267669D01*
X158296758Y-106527809D01*
X158640080Y-106596100D01*
X158871920Y-106596100D01*
X159215242Y-106527809D01*
X159604569Y-106267669D01*
X159624000Y-106238588D01*
X159624000Y-107139612D01*
X159604569Y-107110531D01*
X159215242Y-106850391D01*
X158871920Y-106782100D01*
X158640080Y-106782100D01*
X158296758Y-106850391D01*
X157907431Y-107110531D01*
X157647291Y-107499858D01*
X157555942Y-107959100D01*
X157647291Y-108418342D01*
X157693878Y-108488064D01*
X157693809Y-108488133D01*
X154843381Y-108488133D01*
X154960785Y-108370729D01*
X154994346Y-108348304D01*
X155016770Y-108314744D01*
X155016772Y-108314742D01*
X155080018Y-108220087D01*
X155083196Y-108215331D01*
X155100695Y-108127357D01*
X155119465Y-108139899D01*
X155303500Y-108176506D01*
X155576782Y-108176506D01*
X155587673Y-108202799D01*
X155766302Y-108381427D01*
X155999691Y-108478100D01*
X156135250Y-108478100D01*
X156294000Y-108319350D01*
X156294000Y-107650100D01*
X156548000Y-107650100D01*
X156548000Y-108319350D01*
X156706750Y-108478100D01*
X156842309Y-108478100D01*
X157075698Y-108381427D01*
X157254327Y-108202799D01*
X157351000Y-107969410D01*
X157351000Y-107808850D01*
X157192250Y-107650100D01*
X156548000Y-107650100D01*
X156294000Y-107650100D01*
X156274000Y-107650100D01*
X156274000Y-107396100D01*
X156294000Y-107396100D01*
X156294000Y-106450100D01*
X156548000Y-106450100D01*
X156548000Y-107396100D01*
X157192250Y-107396100D01*
X157351000Y-107237350D01*
X157351000Y-107076790D01*
X157287339Y-106923100D01*
X157351000Y-106769410D01*
X157351000Y-106608850D01*
X157192250Y-106450100D01*
X156548000Y-106450100D01*
X156294000Y-106450100D01*
X156274000Y-106450100D01*
X156274000Y-106196100D01*
X156294000Y-106196100D01*
X156294000Y-106176100D01*
X156548000Y-106176100D01*
X156548000Y-106196100D01*
X157192250Y-106196100D01*
X157351000Y-106037350D01*
X157351000Y-105876790D01*
X157254327Y-105643401D01*
X157075698Y-105464773D01*
X156935792Y-105406822D01*
X158147165Y-104195448D01*
X158180726Y-104173024D01*
X158203150Y-104139464D01*
X158203152Y-104139462D01*
X158269575Y-104040052D01*
X158269576Y-104040051D01*
X158281937Y-103977906D01*
X158296758Y-103987809D01*
X158640080Y-104056100D01*
X158871920Y-104056100D01*
X159215242Y-103987809D01*
X159604569Y-103727669D01*
X159624000Y-103698588D01*
X159624000Y-104599612D01*
G04 #@! TD*
M02*
