G04 #@! TF.GenerationSoftware,KiCad,Pcbnew,5.0.1-33cea8e~66~ubuntu18.04.1*
G04 #@! TF.CreationDate,2018-10-16T23:10:54+02:00*
G04 #@! TF.ProjectId,TinyFPGA-BX,54696E79465047412D42582E6B696361,rev?*
G04 #@! TF.SameCoordinates,Original*
G04 #@! TF.FileFunction,Soldermask,Top*
G04 #@! TF.FilePolarity,Negative*
%FSLAX46Y46*%
G04 Gerber Fmt 4.6, Leading zero omitted, Abs format (unit mm)*
G04 Created by KiCad (PCBNEW 5.0.1-33cea8e~66~ubuntu18.04.1) date di 16 okt 2018 23:10:54 CEST*
%MOMM*%
%LPD*%
G01*
G04 APERTURE LIST*
%ADD10C,0.100000*%
G04 APERTURE END LIST*
D10*
G36*
X158932432Y-129932122D02*
X159102081Y-129983585D01*
X159258433Y-130067156D01*
X159395475Y-130179625D01*
X159507944Y-130316667D01*
X159591515Y-130473019D01*
X159642978Y-130642668D01*
X159660354Y-130819100D01*
X159642978Y-130995532D01*
X159591515Y-131165181D01*
X159507944Y-131321533D01*
X159395475Y-131458575D01*
X159258433Y-131571044D01*
X159102081Y-131654615D01*
X158932432Y-131706078D01*
X158800211Y-131719100D01*
X158711789Y-131719100D01*
X158579568Y-131706078D01*
X158409919Y-131654615D01*
X158253567Y-131571044D01*
X158116525Y-131458575D01*
X158004056Y-131321533D01*
X157920485Y-131165181D01*
X157869022Y-130995532D01*
X157851646Y-130819100D01*
X157869022Y-130642668D01*
X157920485Y-130473019D01*
X158004056Y-130316667D01*
X158116525Y-130179625D01*
X158253567Y-130067156D01*
X158409919Y-129983585D01*
X158579568Y-129932122D01*
X158711789Y-129919100D01*
X158800211Y-129919100D01*
X158932432Y-129932122D01*
X158932432Y-129932122D01*
G37*
G36*
X143692432Y-129932122D02*
X143862081Y-129983585D01*
X144018433Y-130067156D01*
X144155475Y-130179625D01*
X144267944Y-130316667D01*
X144351515Y-130473019D01*
X144402978Y-130642668D01*
X144420354Y-130819100D01*
X144402978Y-130995532D01*
X144351515Y-131165181D01*
X144267944Y-131321533D01*
X144155475Y-131458575D01*
X144018433Y-131571044D01*
X143862081Y-131654615D01*
X143692432Y-131706078D01*
X143560211Y-131719100D01*
X143471789Y-131719100D01*
X143339568Y-131706078D01*
X143169919Y-131654615D01*
X143013567Y-131571044D01*
X142876525Y-131458575D01*
X142764056Y-131321533D01*
X142680485Y-131165181D01*
X142629022Y-130995532D01*
X142611646Y-130819100D01*
X142629022Y-130642668D01*
X142680485Y-130473019D01*
X142764056Y-130316667D01*
X142876525Y-130179625D01*
X143013567Y-130067156D01*
X143169919Y-129983585D01*
X143339568Y-129932122D01*
X143471789Y-129919100D01*
X143560211Y-129919100D01*
X143692432Y-129932122D01*
X143692432Y-129932122D01*
G37*
G36*
X149930000Y-130623100D02*
X148930000Y-130623100D01*
X148930000Y-128823100D01*
X149930000Y-128823100D01*
X149930000Y-130623100D01*
X149930000Y-130623100D01*
G37*
G36*
X153330000Y-130623100D02*
X152330000Y-130623100D01*
X152330000Y-128823100D01*
X153330000Y-128823100D01*
X153330000Y-130623100D01*
X153330000Y-130623100D01*
G37*
G36*
X158932432Y-127392122D02*
X159102081Y-127443585D01*
X159258433Y-127527156D01*
X159395475Y-127639625D01*
X159507944Y-127776667D01*
X159591515Y-127933019D01*
X159642978Y-128102668D01*
X159660354Y-128279100D01*
X159642978Y-128455532D01*
X159591515Y-128625181D01*
X159507944Y-128781533D01*
X159395475Y-128918575D01*
X159258433Y-129031044D01*
X159102081Y-129114615D01*
X158932432Y-129166078D01*
X158800211Y-129179100D01*
X158711789Y-129179100D01*
X158579568Y-129166078D01*
X158409919Y-129114615D01*
X158253567Y-129031044D01*
X158116525Y-128918575D01*
X158004056Y-128781533D01*
X157920485Y-128625181D01*
X157869022Y-128455532D01*
X157851646Y-128279100D01*
X157869022Y-128102668D01*
X157920485Y-127933019D01*
X158004056Y-127776667D01*
X158116525Y-127639625D01*
X158253567Y-127527156D01*
X158409919Y-127443585D01*
X158579568Y-127392122D01*
X158711789Y-127379100D01*
X158800211Y-127379100D01*
X158932432Y-127392122D01*
X158932432Y-127392122D01*
G37*
G36*
X143692432Y-127392122D02*
X143862081Y-127443585D01*
X144018433Y-127527156D01*
X144155475Y-127639625D01*
X144267944Y-127776667D01*
X144351515Y-127933019D01*
X144402978Y-128102668D01*
X144420354Y-128279100D01*
X144402978Y-128455532D01*
X144351515Y-128625181D01*
X144267944Y-128781533D01*
X144155475Y-128918575D01*
X144018433Y-129031044D01*
X143862081Y-129114615D01*
X143692432Y-129166078D01*
X143560211Y-129179100D01*
X143471789Y-129179100D01*
X143339568Y-129166078D01*
X143169919Y-129114615D01*
X143013567Y-129031044D01*
X142876525Y-128918575D01*
X142764056Y-128781533D01*
X142680485Y-128625181D01*
X142629022Y-128455532D01*
X142611646Y-128279100D01*
X142629022Y-128102668D01*
X142680485Y-127933019D01*
X142764056Y-127776667D01*
X142876525Y-127639625D01*
X143013567Y-127527156D01*
X143169919Y-127443585D01*
X143339568Y-127392122D01*
X143471789Y-127379100D01*
X143560211Y-127379100D01*
X143692432Y-127392122D01*
X143692432Y-127392122D01*
G37*
G36*
X143692432Y-124852122D02*
X143862081Y-124903585D01*
X144018433Y-124987156D01*
X144155475Y-125099625D01*
X144267944Y-125236667D01*
X144351515Y-125393019D01*
X144402978Y-125562668D01*
X144420354Y-125739100D01*
X144402978Y-125915532D01*
X144351515Y-126085181D01*
X144267944Y-126241533D01*
X144155475Y-126378575D01*
X144018433Y-126491044D01*
X143862081Y-126574615D01*
X143692432Y-126626078D01*
X143560211Y-126639100D01*
X143471789Y-126639100D01*
X143339568Y-126626078D01*
X143169919Y-126574615D01*
X143013567Y-126491044D01*
X142876525Y-126378575D01*
X142764056Y-126241533D01*
X142680485Y-126085181D01*
X142629022Y-125915532D01*
X142611646Y-125739100D01*
X142629022Y-125562668D01*
X142680485Y-125393019D01*
X142764056Y-125236667D01*
X142876525Y-125099625D01*
X143013567Y-124987156D01*
X143169919Y-124903585D01*
X143339568Y-124852122D01*
X143471789Y-124839100D01*
X143560211Y-124839100D01*
X143692432Y-124852122D01*
X143692432Y-124852122D01*
G37*
G36*
X158932432Y-124852122D02*
X159102081Y-124903585D01*
X159258433Y-124987156D01*
X159395475Y-125099625D01*
X159507944Y-125236667D01*
X159591515Y-125393019D01*
X159642978Y-125562668D01*
X159660354Y-125739100D01*
X159642978Y-125915532D01*
X159591515Y-126085181D01*
X159507944Y-126241533D01*
X159395475Y-126378575D01*
X159258433Y-126491044D01*
X159102081Y-126574615D01*
X158932432Y-126626078D01*
X158800211Y-126639100D01*
X158711789Y-126639100D01*
X158579568Y-126626078D01*
X158409919Y-126574615D01*
X158253567Y-126491044D01*
X158116525Y-126378575D01*
X158004056Y-126241533D01*
X157920485Y-126085181D01*
X157869022Y-125915532D01*
X157851646Y-125739100D01*
X157869022Y-125562668D01*
X157920485Y-125393019D01*
X158004056Y-125236667D01*
X158116525Y-125099625D01*
X158253567Y-124987156D01*
X158409919Y-124903585D01*
X158579568Y-124852122D01*
X158711789Y-124839100D01*
X158800211Y-124839100D01*
X158932432Y-124852122D01*
X158932432Y-124852122D01*
G37*
G36*
X150105000Y-123560000D02*
X150107402Y-123584386D01*
X150114515Y-123607835D01*
X150126066Y-123629446D01*
X150141612Y-123648388D01*
X150160554Y-123663934D01*
X150182165Y-123675485D01*
X150205614Y-123682598D01*
X150230000Y-123685000D01*
X152030000Y-123685000D01*
X152054386Y-123682598D01*
X152077835Y-123675485D01*
X152099446Y-123663934D01*
X152118388Y-123648388D01*
X152133934Y-123629446D01*
X152145485Y-123607835D01*
X152152598Y-123584386D01*
X152155000Y-123560000D01*
X152155000Y-123510000D01*
X153005000Y-123510000D01*
X153005000Y-125410000D01*
X152155000Y-125410000D01*
X152155000Y-125360000D01*
X152152598Y-125335614D01*
X152145485Y-125312165D01*
X152133934Y-125290554D01*
X152118388Y-125271612D01*
X152099446Y-125256066D01*
X152077835Y-125244515D01*
X152054386Y-125237402D01*
X152030000Y-125235000D01*
X150230000Y-125235000D01*
X150205614Y-125237402D01*
X150182165Y-125244515D01*
X150160554Y-125256066D01*
X150141612Y-125271612D01*
X150126066Y-125290554D01*
X150114515Y-125312165D01*
X150107402Y-125335614D01*
X150105000Y-125360000D01*
X150105000Y-125410000D01*
X149255000Y-125410000D01*
X149255000Y-123510000D01*
X150105000Y-123510000D01*
X150105000Y-123560000D01*
X150105000Y-123560000D01*
G37*
G36*
X158932432Y-122312122D02*
X159102081Y-122363585D01*
X159258433Y-122447156D01*
X159395475Y-122559625D01*
X159507944Y-122696667D01*
X159591515Y-122853019D01*
X159642978Y-123022668D01*
X159660354Y-123199100D01*
X159642978Y-123375532D01*
X159591515Y-123545181D01*
X159507944Y-123701533D01*
X159395475Y-123838575D01*
X159258433Y-123951044D01*
X159102081Y-124034615D01*
X158932432Y-124086078D01*
X158800211Y-124099100D01*
X158711789Y-124099100D01*
X158579568Y-124086078D01*
X158409919Y-124034615D01*
X158253567Y-123951044D01*
X158116525Y-123838575D01*
X158004056Y-123701533D01*
X157920485Y-123545181D01*
X157869022Y-123375532D01*
X157851646Y-123199100D01*
X157869022Y-123022668D01*
X157920485Y-122853019D01*
X158004056Y-122696667D01*
X158116525Y-122559625D01*
X158253567Y-122447156D01*
X158409919Y-122363585D01*
X158579568Y-122312122D01*
X158711789Y-122299100D01*
X158800211Y-122299100D01*
X158932432Y-122312122D01*
X158932432Y-122312122D01*
G37*
G36*
X143692432Y-122312122D02*
X143862081Y-122363585D01*
X144018433Y-122447156D01*
X144155475Y-122559625D01*
X144267944Y-122696667D01*
X144351515Y-122853019D01*
X144402978Y-123022668D01*
X144420354Y-123199100D01*
X144402978Y-123375532D01*
X144351515Y-123545181D01*
X144267944Y-123701533D01*
X144155475Y-123838575D01*
X144018433Y-123951044D01*
X143862081Y-124034615D01*
X143692432Y-124086078D01*
X143560211Y-124099100D01*
X143471789Y-124099100D01*
X143339568Y-124086078D01*
X143169919Y-124034615D01*
X143013567Y-123951044D01*
X142876525Y-123838575D01*
X142764056Y-123701533D01*
X142680485Y-123545181D01*
X142629022Y-123375532D01*
X142611646Y-123199100D01*
X142629022Y-123022668D01*
X142680485Y-122853019D01*
X142764056Y-122696667D01*
X142876525Y-122559625D01*
X143013567Y-122447156D01*
X143169919Y-122363585D01*
X143339568Y-122312122D01*
X143471789Y-122299100D01*
X143560211Y-122299100D01*
X143692432Y-122312122D01*
X143692432Y-122312122D01*
G37*
G36*
X153150000Y-122824000D02*
X151650000Y-122824000D01*
X151650000Y-121524000D01*
X153150000Y-121524000D01*
X153150000Y-122824000D01*
X153150000Y-122824000D01*
G37*
G36*
X150610000Y-122824000D02*
X149110000Y-122824000D01*
X149110000Y-121524000D01*
X150610000Y-121524000D01*
X150610000Y-122824000D01*
X150610000Y-122824000D01*
G37*
G36*
X143692432Y-119772122D02*
X143862081Y-119823585D01*
X144018433Y-119907156D01*
X144155475Y-120019625D01*
X144267944Y-120156667D01*
X144351515Y-120313019D01*
X144402978Y-120482668D01*
X144420354Y-120659100D01*
X144402978Y-120835532D01*
X144351515Y-121005181D01*
X144267944Y-121161533D01*
X144155475Y-121298575D01*
X144018433Y-121411044D01*
X143862081Y-121494615D01*
X143692432Y-121546078D01*
X143560211Y-121559100D01*
X143471789Y-121559100D01*
X143339568Y-121546078D01*
X143169919Y-121494615D01*
X143013567Y-121411044D01*
X142876525Y-121298575D01*
X142764056Y-121161533D01*
X142680485Y-121005181D01*
X142629022Y-120835532D01*
X142611646Y-120659100D01*
X142629022Y-120482668D01*
X142680485Y-120313019D01*
X142764056Y-120156667D01*
X142876525Y-120019625D01*
X143013567Y-119907156D01*
X143169919Y-119823585D01*
X143339568Y-119772122D01*
X143471789Y-119759100D01*
X143560211Y-119759100D01*
X143692432Y-119772122D01*
X143692432Y-119772122D01*
G37*
G36*
X158932432Y-119772122D02*
X159102081Y-119823585D01*
X159258433Y-119907156D01*
X159395475Y-120019625D01*
X159507944Y-120156667D01*
X159591515Y-120313019D01*
X159642978Y-120482668D01*
X159660354Y-120659100D01*
X159642978Y-120835532D01*
X159591515Y-121005181D01*
X159507944Y-121161533D01*
X159395475Y-121298575D01*
X159258433Y-121411044D01*
X159102081Y-121494615D01*
X158932432Y-121546078D01*
X158800211Y-121559100D01*
X158711789Y-121559100D01*
X158579568Y-121546078D01*
X158409919Y-121494615D01*
X158253567Y-121411044D01*
X158116525Y-121298575D01*
X158004056Y-121161533D01*
X157920485Y-121005181D01*
X157869022Y-120835532D01*
X157851646Y-120659100D01*
X157869022Y-120482668D01*
X157920485Y-120313019D01*
X158004056Y-120156667D01*
X158116525Y-120019625D01*
X158253567Y-119907156D01*
X158409919Y-119823585D01*
X158579568Y-119772122D01*
X158711789Y-119759100D01*
X158800211Y-119759100D01*
X158932432Y-119772122D01*
X158932432Y-119772122D01*
G37*
G36*
X150610000Y-120624000D02*
X149110000Y-120624000D01*
X149110000Y-119324000D01*
X150610000Y-119324000D01*
X150610000Y-120624000D01*
X150610000Y-120624000D01*
G37*
G36*
X153150000Y-120624000D02*
X151650000Y-120624000D01*
X151650000Y-119324000D01*
X153150000Y-119324000D01*
X153150000Y-120624000D01*
X153150000Y-120624000D01*
G37*
G36*
X143692432Y-117232122D02*
X143862081Y-117283585D01*
X144018433Y-117367156D01*
X144155475Y-117479625D01*
X144267944Y-117616667D01*
X144351515Y-117773019D01*
X144402978Y-117942668D01*
X144420354Y-118119100D01*
X144402978Y-118295532D01*
X144351515Y-118465181D01*
X144267944Y-118621533D01*
X144155475Y-118758575D01*
X144018433Y-118871044D01*
X143862081Y-118954615D01*
X143692432Y-119006078D01*
X143560211Y-119019100D01*
X143471789Y-119019100D01*
X143339568Y-119006078D01*
X143169919Y-118954615D01*
X143013567Y-118871044D01*
X142876525Y-118758575D01*
X142764056Y-118621533D01*
X142680485Y-118465181D01*
X142629022Y-118295532D01*
X142611646Y-118119100D01*
X142629022Y-117942668D01*
X142680485Y-117773019D01*
X142764056Y-117616667D01*
X142876525Y-117479625D01*
X143013567Y-117367156D01*
X143169919Y-117283585D01*
X143339568Y-117232122D01*
X143471789Y-117219100D01*
X143560211Y-117219100D01*
X143692432Y-117232122D01*
X143692432Y-117232122D01*
G37*
G36*
X158932432Y-117232122D02*
X159102081Y-117283585D01*
X159258433Y-117367156D01*
X159395475Y-117479625D01*
X159507944Y-117616667D01*
X159591515Y-117773019D01*
X159642978Y-117942668D01*
X159660354Y-118119100D01*
X159642978Y-118295532D01*
X159591515Y-118465181D01*
X159507944Y-118621533D01*
X159395475Y-118758575D01*
X159258433Y-118871044D01*
X159102081Y-118954615D01*
X158932432Y-119006078D01*
X158800211Y-119019100D01*
X158711789Y-119019100D01*
X158579568Y-119006078D01*
X158409919Y-118954615D01*
X158253567Y-118871044D01*
X158116525Y-118758575D01*
X158004056Y-118621533D01*
X157920485Y-118465181D01*
X157869022Y-118295532D01*
X157851646Y-118119100D01*
X157869022Y-117942668D01*
X157920485Y-117773019D01*
X158004056Y-117616667D01*
X158116525Y-117479625D01*
X158253567Y-117367156D01*
X158409919Y-117283585D01*
X158579568Y-117232122D01*
X158711789Y-117219100D01*
X158800211Y-117219100D01*
X158932432Y-117232122D01*
X158932432Y-117232122D01*
G37*
G36*
X154080000Y-110844000D02*
X154082402Y-110868386D01*
X154089515Y-110891835D01*
X154101066Y-110913446D01*
X154116612Y-110932388D01*
X154135554Y-110947934D01*
X154157165Y-110959485D01*
X154180614Y-110966598D01*
X154205000Y-110969000D01*
X154830000Y-110969000D01*
X154830000Y-116869000D01*
X154205000Y-116869000D01*
X154180614Y-116871402D01*
X154157165Y-116878515D01*
X154135554Y-116890066D01*
X154116612Y-116905612D01*
X154101066Y-116924554D01*
X154089515Y-116946165D01*
X154082402Y-116969614D01*
X154080000Y-116994000D01*
X154080000Y-117619000D01*
X148180000Y-117619000D01*
X148180000Y-116994000D01*
X148177598Y-116969614D01*
X148170485Y-116946165D01*
X148158934Y-116924554D01*
X148143388Y-116905612D01*
X148124446Y-116890066D01*
X148102835Y-116878515D01*
X148079386Y-116871402D01*
X148055000Y-116869000D01*
X147430000Y-116869000D01*
X147430000Y-110969000D01*
X148055000Y-110969000D01*
X148079386Y-110966598D01*
X148102835Y-110959485D01*
X148124446Y-110947934D01*
X148143388Y-110932388D01*
X148158934Y-110913446D01*
X148170485Y-110891835D01*
X148177598Y-110868386D01*
X148180000Y-110844000D01*
X148180000Y-110219000D01*
X154080000Y-110219000D01*
X154080000Y-110844000D01*
X154080000Y-110844000D01*
G37*
G36*
X158932432Y-114692122D02*
X159102081Y-114743585D01*
X159258433Y-114827156D01*
X159395475Y-114939625D01*
X159507944Y-115076667D01*
X159591515Y-115233019D01*
X159642978Y-115402668D01*
X159660354Y-115579100D01*
X159642978Y-115755532D01*
X159591515Y-115925181D01*
X159507944Y-116081533D01*
X159395475Y-116218575D01*
X159258433Y-116331044D01*
X159102081Y-116414615D01*
X158932432Y-116466078D01*
X158800211Y-116479100D01*
X158711789Y-116479100D01*
X158579568Y-116466078D01*
X158409919Y-116414615D01*
X158253567Y-116331044D01*
X158116525Y-116218575D01*
X158004056Y-116081533D01*
X157920485Y-115925181D01*
X157869022Y-115755532D01*
X157851646Y-115579100D01*
X157869022Y-115402668D01*
X157920485Y-115233019D01*
X158004056Y-115076667D01*
X158116525Y-114939625D01*
X158253567Y-114827156D01*
X158409919Y-114743585D01*
X158579568Y-114692122D01*
X158711789Y-114679100D01*
X158800211Y-114679100D01*
X158932432Y-114692122D01*
X158932432Y-114692122D01*
G37*
G36*
X143692432Y-114692122D02*
X143862081Y-114743585D01*
X144018433Y-114827156D01*
X144155475Y-114939625D01*
X144267944Y-115076667D01*
X144351515Y-115233019D01*
X144402978Y-115402668D01*
X144420354Y-115579100D01*
X144402978Y-115755532D01*
X144351515Y-115925181D01*
X144267944Y-116081533D01*
X144155475Y-116218575D01*
X144018433Y-116331044D01*
X143862081Y-116414615D01*
X143692432Y-116466078D01*
X143560211Y-116479100D01*
X143471789Y-116479100D01*
X143339568Y-116466078D01*
X143169919Y-116414615D01*
X143013567Y-116331044D01*
X142876525Y-116218575D01*
X142764056Y-116081533D01*
X142680485Y-115925181D01*
X142629022Y-115755532D01*
X142611646Y-115579100D01*
X142629022Y-115402668D01*
X142680485Y-115233019D01*
X142764056Y-115076667D01*
X142876525Y-114939625D01*
X143013567Y-114827156D01*
X143169919Y-114743585D01*
X143339568Y-114692122D01*
X143471789Y-114679100D01*
X143560211Y-114679100D01*
X143692432Y-114692122D01*
X143692432Y-114692122D01*
G37*
G36*
X158932432Y-112152122D02*
X159102081Y-112203585D01*
X159258433Y-112287156D01*
X159395475Y-112399625D01*
X159507944Y-112536667D01*
X159591515Y-112693019D01*
X159642978Y-112862668D01*
X159660354Y-113039100D01*
X159642978Y-113215532D01*
X159591515Y-113385181D01*
X159507944Y-113541533D01*
X159395475Y-113678575D01*
X159258433Y-113791044D01*
X159102081Y-113874615D01*
X158932432Y-113926078D01*
X158800211Y-113939100D01*
X158711789Y-113939100D01*
X158579568Y-113926078D01*
X158409919Y-113874615D01*
X158253567Y-113791044D01*
X158116525Y-113678575D01*
X158004056Y-113541533D01*
X157920485Y-113385181D01*
X157869022Y-113215532D01*
X157851646Y-113039100D01*
X157869022Y-112862668D01*
X157920485Y-112693019D01*
X158004056Y-112536667D01*
X158116525Y-112399625D01*
X158253567Y-112287156D01*
X158409919Y-112203585D01*
X158579568Y-112152122D01*
X158711789Y-112139100D01*
X158800211Y-112139100D01*
X158932432Y-112152122D01*
X158932432Y-112152122D01*
G37*
G36*
X143692432Y-112152122D02*
X143862081Y-112203585D01*
X144018433Y-112287156D01*
X144155475Y-112399625D01*
X144267944Y-112536667D01*
X144351515Y-112693019D01*
X144402978Y-112862668D01*
X144420354Y-113039100D01*
X144402978Y-113215532D01*
X144351515Y-113385181D01*
X144267944Y-113541533D01*
X144155475Y-113678575D01*
X144018433Y-113791044D01*
X143862081Y-113874615D01*
X143692432Y-113926078D01*
X143560211Y-113939100D01*
X143471789Y-113939100D01*
X143339568Y-113926078D01*
X143169919Y-113874615D01*
X143013567Y-113791044D01*
X142876525Y-113678575D01*
X142764056Y-113541533D01*
X142680485Y-113385181D01*
X142629022Y-113215532D01*
X142611646Y-113039100D01*
X142629022Y-112862668D01*
X142680485Y-112693019D01*
X142764056Y-112536667D01*
X142876525Y-112399625D01*
X143013567Y-112287156D01*
X143169919Y-112203585D01*
X143339568Y-112152122D01*
X143471789Y-112139100D01*
X143560211Y-112139100D01*
X143692432Y-112152122D01*
X143692432Y-112152122D01*
G37*
G36*
X158932432Y-109612122D02*
X159102081Y-109663585D01*
X159258433Y-109747156D01*
X159395475Y-109859625D01*
X159507944Y-109996667D01*
X159591515Y-110153019D01*
X159642978Y-110322668D01*
X159660354Y-110499100D01*
X159642978Y-110675532D01*
X159591515Y-110845181D01*
X159507944Y-111001533D01*
X159395475Y-111138575D01*
X159258433Y-111251044D01*
X159102081Y-111334615D01*
X158932432Y-111386078D01*
X158800211Y-111399100D01*
X158711789Y-111399100D01*
X158579568Y-111386078D01*
X158409919Y-111334615D01*
X158253567Y-111251044D01*
X158116525Y-111138575D01*
X158004056Y-111001533D01*
X157920485Y-110845181D01*
X157869022Y-110675532D01*
X157851646Y-110499100D01*
X157869022Y-110322668D01*
X157920485Y-110153019D01*
X158004056Y-109996667D01*
X158116525Y-109859625D01*
X158253567Y-109747156D01*
X158409919Y-109663585D01*
X158579568Y-109612122D01*
X158711789Y-109599100D01*
X158800211Y-109599100D01*
X158932432Y-109612122D01*
X158932432Y-109612122D01*
G37*
G36*
X143692432Y-109612122D02*
X143862081Y-109663585D01*
X144018433Y-109747156D01*
X144155475Y-109859625D01*
X144267944Y-109996667D01*
X144351515Y-110153019D01*
X144402978Y-110322668D01*
X144420354Y-110499100D01*
X144402978Y-110675532D01*
X144351515Y-110845181D01*
X144267944Y-111001533D01*
X144155475Y-111138575D01*
X144018433Y-111251044D01*
X143862081Y-111334615D01*
X143692432Y-111386078D01*
X143560211Y-111399100D01*
X143471789Y-111399100D01*
X143339568Y-111386078D01*
X143169919Y-111334615D01*
X143013567Y-111251044D01*
X142876525Y-111138575D01*
X142764056Y-111001533D01*
X142680485Y-110845181D01*
X142629022Y-110675532D01*
X142611646Y-110499100D01*
X142629022Y-110322668D01*
X142680485Y-110153019D01*
X142764056Y-109996667D01*
X142876525Y-109859625D01*
X143013567Y-109747156D01*
X143169919Y-109663585D01*
X143339568Y-109612122D01*
X143471789Y-109599100D01*
X143560211Y-109599100D01*
X143692432Y-109612122D01*
X143692432Y-109612122D01*
G37*
G36*
X150337000Y-108661327D02*
X150318779Y-108671066D01*
X150299837Y-108686612D01*
X150284291Y-108705554D01*
X150272740Y-108727165D01*
X150265627Y-108750614D01*
X150263225Y-108775000D01*
X150265627Y-108799386D01*
X150272740Y-108822835D01*
X150284291Y-108844446D01*
X150299837Y-108863388D01*
X150308927Y-108871627D01*
X150322352Y-108882644D01*
X150335961Y-108899227D01*
X150346067Y-108918134D01*
X150352294Y-108938660D01*
X150355000Y-108966138D01*
X150355000Y-109473862D01*
X150352294Y-109501340D01*
X150346067Y-109521866D01*
X150335961Y-109540773D01*
X150322354Y-109557354D01*
X150305773Y-109570961D01*
X150286866Y-109581067D01*
X150266340Y-109587294D01*
X150238862Y-109590000D01*
X149781138Y-109590000D01*
X149753660Y-109587294D01*
X149733134Y-109581067D01*
X149714227Y-109570961D01*
X149697646Y-109557354D01*
X149684039Y-109540773D01*
X149673933Y-109521866D01*
X149667706Y-109501340D01*
X149665000Y-109473862D01*
X149665000Y-108966138D01*
X149667706Y-108938660D01*
X149673933Y-108918134D01*
X149684039Y-108899227D01*
X149697648Y-108882644D01*
X149711073Y-108871627D01*
X149728400Y-108854300D01*
X149742014Y-108833926D01*
X149751392Y-108811287D01*
X149756173Y-108787254D01*
X149756173Y-108762749D01*
X149751393Y-108738716D01*
X149742016Y-108716077D01*
X149728402Y-108695702D01*
X149711075Y-108678375D01*
X149690701Y-108664761D01*
X149668062Y-108655383D01*
X149644029Y-108650602D01*
X149637000Y-108650257D01*
X149637000Y-108150000D01*
X150337000Y-108150000D01*
X150337000Y-108661327D01*
X150337000Y-108661327D01*
G37*
G36*
X151236340Y-108852706D02*
X151256866Y-108858933D01*
X151275773Y-108869039D01*
X151292354Y-108882646D01*
X151305961Y-108899227D01*
X151316067Y-108918134D01*
X151322294Y-108938660D01*
X151325000Y-108966138D01*
X151325000Y-109473862D01*
X151322294Y-109501340D01*
X151316067Y-109521866D01*
X151305961Y-109540773D01*
X151292354Y-109557354D01*
X151275773Y-109570961D01*
X151256866Y-109581067D01*
X151236340Y-109587294D01*
X151208862Y-109590000D01*
X150751138Y-109590000D01*
X150723660Y-109587294D01*
X150703134Y-109581067D01*
X150684227Y-109570961D01*
X150667646Y-109557354D01*
X150654039Y-109540773D01*
X150643933Y-109521866D01*
X150637706Y-109501340D01*
X150635000Y-109473862D01*
X150635000Y-108966138D01*
X150637706Y-108938660D01*
X150643933Y-108918134D01*
X150654039Y-108899227D01*
X150667646Y-108882646D01*
X150684227Y-108869039D01*
X150703134Y-108858933D01*
X150723660Y-108852706D01*
X150751138Y-108850000D01*
X151208862Y-108850000D01*
X151236340Y-108852706D01*
X151236340Y-108852706D01*
G37*
G36*
X158932432Y-107072122D02*
X159102081Y-107123585D01*
X159258433Y-107207156D01*
X159395475Y-107319625D01*
X159507944Y-107456667D01*
X159591515Y-107613019D01*
X159642978Y-107782668D01*
X159660354Y-107959100D01*
X159642978Y-108135532D01*
X159591515Y-108305181D01*
X159507944Y-108461533D01*
X159395475Y-108598575D01*
X159258433Y-108711044D01*
X159102081Y-108794615D01*
X158932432Y-108846078D01*
X158800211Y-108859100D01*
X158711789Y-108859100D01*
X158579568Y-108846078D01*
X158409919Y-108794615D01*
X158253567Y-108711044D01*
X158116525Y-108598575D01*
X158004056Y-108461533D01*
X157920485Y-108305181D01*
X157869022Y-108135532D01*
X157851646Y-107959100D01*
X157869022Y-107782668D01*
X157920485Y-107613019D01*
X158004056Y-107456667D01*
X158116525Y-107319625D01*
X158253567Y-107207156D01*
X158409919Y-107123585D01*
X158579568Y-107072122D01*
X158711789Y-107059100D01*
X158800211Y-107059100D01*
X158932432Y-107072122D01*
X158932432Y-107072122D01*
G37*
G36*
X143692432Y-107072122D02*
X143862081Y-107123585D01*
X144018433Y-107207156D01*
X144155475Y-107319625D01*
X144267944Y-107456667D01*
X144351515Y-107613019D01*
X144402978Y-107782668D01*
X144420354Y-107959100D01*
X144402978Y-108135532D01*
X144351515Y-108305181D01*
X144267944Y-108461533D01*
X144155475Y-108598575D01*
X144018433Y-108711044D01*
X143862081Y-108794615D01*
X143692432Y-108846078D01*
X143560211Y-108859100D01*
X143471789Y-108859100D01*
X143339568Y-108846078D01*
X143169919Y-108794615D01*
X143013567Y-108711044D01*
X142876525Y-108598575D01*
X142764056Y-108461533D01*
X142680485Y-108305181D01*
X142629022Y-108135532D01*
X142611646Y-107959100D01*
X142629022Y-107782668D01*
X142680485Y-107613019D01*
X142764056Y-107456667D01*
X142876525Y-107319625D01*
X143013567Y-107207156D01*
X143169919Y-107123585D01*
X143339568Y-107072122D01*
X143471789Y-107059100D01*
X143560211Y-107059100D01*
X143692432Y-107072122D01*
X143692432Y-107072122D01*
G37*
G36*
X153316340Y-108092706D02*
X153336866Y-108098933D01*
X153355773Y-108109039D01*
X153372354Y-108122646D01*
X153385961Y-108139227D01*
X153396067Y-108158134D01*
X153402294Y-108178660D01*
X153405000Y-108206138D01*
X153405000Y-108663862D01*
X153402294Y-108691340D01*
X153396067Y-108711866D01*
X153385961Y-108730773D01*
X153372354Y-108747354D01*
X153355773Y-108760961D01*
X153336866Y-108771067D01*
X153316340Y-108777294D01*
X153288862Y-108780000D01*
X152781138Y-108780000D01*
X152753660Y-108777294D01*
X152733134Y-108771067D01*
X152714227Y-108760961D01*
X152697646Y-108747354D01*
X152684039Y-108730773D01*
X152673933Y-108711866D01*
X152667706Y-108691340D01*
X152665000Y-108663862D01*
X152665000Y-108206138D01*
X152667706Y-108178660D01*
X152673933Y-108158134D01*
X152684039Y-108139227D01*
X152697646Y-108122646D01*
X152714227Y-108109039D01*
X152733134Y-108098933D01*
X152753660Y-108092706D01*
X152781138Y-108090000D01*
X153288862Y-108090000D01*
X153316340Y-108092706D01*
X153316340Y-108092706D01*
G37*
G36*
X149252340Y-108069706D02*
X149272866Y-108075933D01*
X149291773Y-108086039D01*
X149308354Y-108099646D01*
X149321961Y-108116227D01*
X149332067Y-108135134D01*
X149338294Y-108155660D01*
X149341000Y-108183138D01*
X149341000Y-108640862D01*
X149338294Y-108668340D01*
X149332067Y-108688866D01*
X149321961Y-108707773D01*
X149308354Y-108724354D01*
X149291773Y-108737961D01*
X149272866Y-108748067D01*
X149252340Y-108754294D01*
X149224862Y-108757000D01*
X148717138Y-108757000D01*
X148689660Y-108754294D01*
X148669134Y-108748067D01*
X148650227Y-108737961D01*
X148633646Y-108724354D01*
X148620039Y-108707773D01*
X148609933Y-108688866D01*
X148603706Y-108668340D01*
X148601000Y-108640862D01*
X148601000Y-108183138D01*
X148603706Y-108155660D01*
X148609933Y-108135134D01*
X148620039Y-108116227D01*
X148633646Y-108099646D01*
X148650227Y-108086039D01*
X148669134Y-108075933D01*
X148689660Y-108069706D01*
X148717138Y-108067000D01*
X149224862Y-108067000D01*
X149252340Y-108069706D01*
X149252340Y-108069706D01*
G37*
G36*
X152369000Y-108592000D02*
X151669000Y-108592000D01*
X151669000Y-108092000D01*
X152369000Y-108092000D01*
X152369000Y-108592000D01*
X152369000Y-108592000D01*
G37*
G36*
X153316340Y-107122706D02*
X153336866Y-107128933D01*
X153355773Y-107139039D01*
X153372354Y-107152646D01*
X153385961Y-107169227D01*
X153396067Y-107188134D01*
X153402294Y-107208660D01*
X153405000Y-107236138D01*
X153405000Y-107693862D01*
X153402294Y-107721340D01*
X153396067Y-107741866D01*
X153385961Y-107760773D01*
X153372354Y-107777354D01*
X153355773Y-107790961D01*
X153336866Y-107801067D01*
X153316340Y-107807294D01*
X153288862Y-107810000D01*
X152781138Y-107810000D01*
X152753660Y-107807294D01*
X152733134Y-107801067D01*
X152714227Y-107790961D01*
X152697646Y-107777354D01*
X152684039Y-107760773D01*
X152673933Y-107741866D01*
X152667706Y-107721340D01*
X152665000Y-107693862D01*
X152665000Y-107236138D01*
X152667706Y-107208660D01*
X152673933Y-107188134D01*
X152684039Y-107169227D01*
X152697646Y-107152646D01*
X152714227Y-107139039D01*
X152733134Y-107128933D01*
X152753660Y-107122706D01*
X152781138Y-107120000D01*
X153288862Y-107120000D01*
X153316340Y-107122706D01*
X153316340Y-107122706D01*
G37*
G36*
X149252340Y-107099706D02*
X149272866Y-107105933D01*
X149291773Y-107116039D01*
X149308354Y-107129646D01*
X149321961Y-107146227D01*
X149332067Y-107165134D01*
X149338294Y-107185660D01*
X149341000Y-107213138D01*
X149341000Y-107670862D01*
X149338294Y-107698340D01*
X149332067Y-107718866D01*
X149321961Y-107737773D01*
X149308354Y-107754354D01*
X149291773Y-107767961D01*
X149272866Y-107778067D01*
X149252340Y-107784294D01*
X149224862Y-107787000D01*
X148717138Y-107787000D01*
X148689660Y-107784294D01*
X148669134Y-107778067D01*
X148650227Y-107767961D01*
X148633646Y-107754354D01*
X148620039Y-107737773D01*
X148609933Y-107718866D01*
X148603706Y-107698340D01*
X148601000Y-107670862D01*
X148601000Y-107213138D01*
X148603706Y-107185660D01*
X148609933Y-107165134D01*
X148620039Y-107146227D01*
X148633646Y-107129646D01*
X148650227Y-107116039D01*
X148669134Y-107105933D01*
X148689660Y-107099706D01*
X148717138Y-107097000D01*
X149224862Y-107097000D01*
X149252340Y-107099706D01*
X149252340Y-107099706D01*
G37*
G36*
X150337000Y-107750000D02*
X149637000Y-107750000D01*
X149637000Y-107250000D01*
X150337000Y-107250000D01*
X150337000Y-107750000D01*
X150337000Y-107750000D01*
G37*
G36*
X152369000Y-107692000D02*
X151669000Y-107692000D01*
X151669000Y-107192000D01*
X152369000Y-107192000D01*
X152369000Y-107692000D01*
X152369000Y-107692000D01*
G37*
G36*
X158932432Y-104532122D02*
X159102081Y-104583585D01*
X159258433Y-104667156D01*
X159395475Y-104779625D01*
X159507944Y-104916667D01*
X159591515Y-105073019D01*
X159642978Y-105242668D01*
X159660354Y-105419100D01*
X159642978Y-105595532D01*
X159591515Y-105765181D01*
X159507944Y-105921533D01*
X159395475Y-106058575D01*
X159258433Y-106171044D01*
X159102081Y-106254615D01*
X158932432Y-106306078D01*
X158800211Y-106319100D01*
X158711789Y-106319100D01*
X158579568Y-106306078D01*
X158409919Y-106254615D01*
X158253567Y-106171044D01*
X158116525Y-106058575D01*
X158004056Y-105921533D01*
X157920485Y-105765181D01*
X157869022Y-105595532D01*
X157851646Y-105419100D01*
X157869022Y-105242668D01*
X157920485Y-105073019D01*
X158004056Y-104916667D01*
X158116525Y-104779625D01*
X158253567Y-104667156D01*
X158409919Y-104583585D01*
X158579568Y-104532122D01*
X158711789Y-104519100D01*
X158800211Y-104519100D01*
X158932432Y-104532122D01*
X158932432Y-104532122D01*
G37*
G36*
X143692432Y-104532122D02*
X143862081Y-104583585D01*
X144018433Y-104667156D01*
X144155475Y-104779625D01*
X144267944Y-104916667D01*
X144351515Y-105073019D01*
X144402978Y-105242668D01*
X144420354Y-105419100D01*
X144402978Y-105595532D01*
X144351515Y-105765181D01*
X144267944Y-105921533D01*
X144155475Y-106058575D01*
X144018433Y-106171044D01*
X143862081Y-106254615D01*
X143692432Y-106306078D01*
X143560211Y-106319100D01*
X143471789Y-106319100D01*
X143339568Y-106306078D01*
X143169919Y-106254615D01*
X143013567Y-106171044D01*
X142876525Y-106058575D01*
X142764056Y-105921533D01*
X142680485Y-105765181D01*
X142629022Y-105595532D01*
X142611646Y-105419100D01*
X142629022Y-105242668D01*
X142680485Y-105073019D01*
X142764056Y-104916667D01*
X142876525Y-104779625D01*
X143013567Y-104667156D01*
X143169919Y-104583585D01*
X143339568Y-104532122D01*
X143471789Y-104519100D01*
X143560211Y-104519100D01*
X143692432Y-104532122D01*
X143692432Y-104532122D01*
G37*
G36*
X147138000Y-106288000D02*
X145978000Y-106288000D01*
X145978000Y-103638000D01*
X147138000Y-103638000D01*
X147138000Y-106288000D01*
X147138000Y-106288000D01*
G37*
G36*
X149338000Y-106288000D02*
X148178000Y-106288000D01*
X148178000Y-105538000D01*
X149338000Y-105538000D01*
X149338000Y-106288000D01*
X149338000Y-106288000D01*
G37*
G36*
X154590000Y-106227000D02*
X153430000Y-106227000D01*
X153430000Y-105477000D01*
X154590000Y-105477000D01*
X154590000Y-106227000D01*
X154590000Y-106227000D01*
G37*
G36*
X156790000Y-106227000D02*
X155630000Y-106227000D01*
X155630000Y-103577000D01*
X156790000Y-103577000D01*
X156790000Y-106227000D01*
X156790000Y-106227000D01*
G37*
G36*
X149338000Y-104388000D02*
X148178000Y-104388000D01*
X148178000Y-103638000D01*
X149338000Y-103638000D01*
X149338000Y-104388000D01*
X149338000Y-104388000D01*
G37*
G36*
X154590000Y-104327000D02*
X153430000Y-104327000D01*
X153430000Y-103577000D01*
X154590000Y-103577000D01*
X154590000Y-104327000D01*
X154590000Y-104327000D01*
G37*
G36*
X158932432Y-101992122D02*
X159102081Y-102043585D01*
X159258433Y-102127156D01*
X159395475Y-102239625D01*
X159507944Y-102376667D01*
X159591515Y-102533019D01*
X159642978Y-102702668D01*
X159660354Y-102879100D01*
X159642978Y-103055532D01*
X159591515Y-103225181D01*
X159507944Y-103381533D01*
X159395475Y-103518575D01*
X159258433Y-103631044D01*
X159102081Y-103714615D01*
X158932432Y-103766078D01*
X158800211Y-103779100D01*
X158711789Y-103779100D01*
X158579568Y-103766078D01*
X158409919Y-103714615D01*
X158253567Y-103631044D01*
X158116525Y-103518575D01*
X158004056Y-103381533D01*
X157920485Y-103225181D01*
X157869022Y-103055532D01*
X157851646Y-102879100D01*
X157869022Y-102702668D01*
X157920485Y-102533019D01*
X158004056Y-102376667D01*
X158116525Y-102239625D01*
X158253567Y-102127156D01*
X158409919Y-102043585D01*
X158579568Y-101992122D01*
X158711789Y-101979100D01*
X158800211Y-101979100D01*
X158932432Y-101992122D01*
X158932432Y-101992122D01*
G37*
G36*
X143692432Y-101992122D02*
X143862081Y-102043585D01*
X144018433Y-102127156D01*
X144155475Y-102239625D01*
X144267944Y-102376667D01*
X144351515Y-102533019D01*
X144402978Y-102702668D01*
X144420354Y-102879100D01*
X144402978Y-103055532D01*
X144351515Y-103225181D01*
X144267944Y-103381533D01*
X144155475Y-103518575D01*
X144018433Y-103631044D01*
X143862081Y-103714615D01*
X143692432Y-103766078D01*
X143560211Y-103779100D01*
X143471789Y-103779100D01*
X143339568Y-103766078D01*
X143169919Y-103714615D01*
X143013567Y-103631044D01*
X142876525Y-103518575D01*
X142764056Y-103381533D01*
X142680485Y-103225181D01*
X142629022Y-103055532D01*
X142611646Y-102879100D01*
X142629022Y-102702668D01*
X142680485Y-102533019D01*
X142764056Y-102376667D01*
X142876525Y-102239625D01*
X143013567Y-102127156D01*
X143169919Y-102043585D01*
X143339568Y-101992122D01*
X143471789Y-101979100D01*
X143560211Y-101979100D01*
X143692432Y-101992122D01*
X143692432Y-101992122D01*
G37*
G36*
X153474000Y-103116000D02*
X152874000Y-103116000D01*
X152874000Y-102116000D01*
X153474000Y-102116000D01*
X153474000Y-103116000D01*
X153474000Y-103116000D01*
G37*
G36*
X154974000Y-103116000D02*
X154374000Y-103116000D01*
X154374000Y-102116000D01*
X154974000Y-102116000D01*
X154974000Y-103116000D01*
X154974000Y-103116000D01*
G37*
G36*
X149326000Y-99946000D02*
X149328402Y-99970386D01*
X149335515Y-99993835D01*
X149347066Y-100015446D01*
X149362612Y-100034388D01*
X149381554Y-100049934D01*
X149403165Y-100061485D01*
X149426614Y-100068598D01*
X149451000Y-100071000D01*
X152591000Y-100071000D01*
X152615386Y-100068598D01*
X152638835Y-100061485D01*
X152660446Y-100049934D01*
X152679388Y-100034388D01*
X152694934Y-100015446D01*
X152706485Y-99993835D01*
X152713598Y-99970386D01*
X152716000Y-99946000D01*
X152716000Y-99626000D01*
X153966000Y-99626000D01*
X153966000Y-101176000D01*
X152696000Y-101176000D01*
X152671614Y-101178402D01*
X152648165Y-101185515D01*
X152626554Y-101197066D01*
X152607612Y-101212612D01*
X152592066Y-101231554D01*
X152580515Y-101253165D01*
X152573402Y-101276614D01*
X152571000Y-101301000D01*
X152571000Y-101571000D01*
X149471000Y-101571000D01*
X149471000Y-101301000D01*
X149468598Y-101276614D01*
X149461485Y-101253165D01*
X149449934Y-101231554D01*
X149434388Y-101212612D01*
X149415446Y-101197066D01*
X149393835Y-101185515D01*
X149370386Y-101178402D01*
X149346000Y-101176000D01*
X148076000Y-101176000D01*
X148076000Y-99626000D01*
X149326000Y-99626000D01*
X149326000Y-99946000D01*
X149326000Y-99946000D01*
G37*
G36*
X158932432Y-99452122D02*
X159102081Y-99503585D01*
X159258433Y-99587156D01*
X159395475Y-99699625D01*
X159507944Y-99836667D01*
X159591515Y-99993019D01*
X159642978Y-100162668D01*
X159660354Y-100339100D01*
X159642978Y-100515532D01*
X159591515Y-100685181D01*
X159507944Y-100841533D01*
X159395475Y-100978575D01*
X159258433Y-101091044D01*
X159102081Y-101174615D01*
X158932432Y-101226078D01*
X158800211Y-101239100D01*
X158711789Y-101239100D01*
X158579568Y-101226078D01*
X158409919Y-101174615D01*
X158253567Y-101091044D01*
X158116525Y-100978575D01*
X158004056Y-100841533D01*
X157920485Y-100685181D01*
X157869022Y-100515532D01*
X157851646Y-100339100D01*
X157869022Y-100162668D01*
X157920485Y-99993019D01*
X158004056Y-99836667D01*
X158116525Y-99699625D01*
X158253567Y-99587156D01*
X158409919Y-99503585D01*
X158579568Y-99452122D01*
X158711789Y-99439100D01*
X158800211Y-99439100D01*
X158932432Y-99452122D01*
X158932432Y-99452122D01*
G37*
G36*
X143692432Y-99452122D02*
X143862081Y-99503585D01*
X144018433Y-99587156D01*
X144155475Y-99699625D01*
X144267944Y-99836667D01*
X144351515Y-99993019D01*
X144402978Y-100162668D01*
X144420354Y-100339100D01*
X144402978Y-100515532D01*
X144351515Y-100685181D01*
X144267944Y-100841533D01*
X144155475Y-100978575D01*
X144018433Y-101091044D01*
X143862081Y-101174615D01*
X143692432Y-101226078D01*
X143560211Y-101239100D01*
X143471789Y-101239100D01*
X143339568Y-101226078D01*
X143169919Y-101174615D01*
X143013567Y-101091044D01*
X142876525Y-100978575D01*
X142764056Y-100841533D01*
X142680485Y-100685181D01*
X142629022Y-100515532D01*
X142611646Y-100339100D01*
X142629022Y-100162668D01*
X142680485Y-99993019D01*
X142764056Y-99836667D01*
X142876525Y-99699625D01*
X143013567Y-99587156D01*
X143169919Y-99503585D01*
X143339568Y-99452122D01*
X143471789Y-99439100D01*
X143560211Y-99439100D01*
X143692432Y-99452122D01*
X143692432Y-99452122D01*
G37*
G36*
X154708715Y-97179319D02*
X154708718Y-97179320D01*
X154708719Y-97179320D01*
X154817107Y-97212199D01*
X154817109Y-97212200D01*
X154916999Y-97265593D01*
X154967891Y-97307358D01*
X155004554Y-97337446D01*
X155033560Y-97372791D01*
X155076407Y-97425000D01*
X155076408Y-97425002D01*
X155129801Y-97524892D01*
X155162680Y-97633280D01*
X155162681Y-97633284D01*
X155171000Y-97717750D01*
X155171000Y-98624250D01*
X155162681Y-98708716D01*
X155129800Y-98817110D01*
X155076407Y-98917000D01*
X155004554Y-99004554D01*
X154917000Y-99076407D01*
X154916998Y-99076408D01*
X154817108Y-99129801D01*
X154708720Y-99162680D01*
X154708719Y-99162680D01*
X154708716Y-99162681D01*
X154596000Y-99173782D01*
X154483285Y-99162681D01*
X154483282Y-99162680D01*
X154483281Y-99162680D01*
X154374893Y-99129801D01*
X154275003Y-99076408D01*
X154275001Y-99076407D01*
X154187447Y-99004554D01*
X154115594Y-98917000D01*
X154062201Y-98817110D01*
X154029320Y-98708716D01*
X154021000Y-98624249D01*
X154021000Y-97717751D01*
X154029319Y-97633285D01*
X154029320Y-97633281D01*
X154062199Y-97524893D01*
X154115592Y-97425003D01*
X154115593Y-97425001D01*
X154187444Y-97337449D01*
X154187446Y-97337446D01*
X154275002Y-97265592D01*
X154275001Y-97265592D01*
X154275003Y-97265591D01*
X154374890Y-97212200D01*
X154374892Y-97212199D01*
X154483280Y-97179320D01*
X154483281Y-97179320D01*
X154483284Y-97179319D01*
X154596000Y-97168218D01*
X154708715Y-97179319D01*
X154708715Y-97179319D01*
G37*
G36*
X147558716Y-97179319D02*
X147558719Y-97179320D01*
X147558720Y-97179320D01*
X147667108Y-97212199D01*
X147667110Y-97212200D01*
X147767000Y-97265593D01*
X147854554Y-97337446D01*
X147926407Y-97425000D01*
X147926408Y-97425002D01*
X147979801Y-97524892D01*
X148012680Y-97633280D01*
X148012681Y-97633284D01*
X148021000Y-97717750D01*
X148021000Y-98624250D01*
X148012681Y-98708716D01*
X147979800Y-98817110D01*
X147926409Y-98916997D01*
X147918030Y-98927207D01*
X147854554Y-99004554D01*
X147817891Y-99034642D01*
X147766999Y-99076407D01*
X147766997Y-99076408D01*
X147667107Y-99129801D01*
X147558719Y-99162680D01*
X147558718Y-99162680D01*
X147558715Y-99162681D01*
X147446000Y-99173782D01*
X147333284Y-99162681D01*
X147333281Y-99162680D01*
X147333280Y-99162680D01*
X147224892Y-99129801D01*
X147224890Y-99129800D01*
X147125003Y-99076409D01*
X147114793Y-99068030D01*
X147037446Y-99004554D01*
X146965594Y-98917000D01*
X146965593Y-98916999D01*
X146912200Y-98817109D01*
X146879321Y-98708720D01*
X146879320Y-98708719D01*
X146879320Y-98708718D01*
X146879319Y-98708715D01*
X146871000Y-98624249D01*
X146871000Y-97717751D01*
X146879320Y-97633284D01*
X146879321Y-97633280D01*
X146912200Y-97524892D01*
X146965593Y-97425002D01*
X146965594Y-97425000D01*
X147037447Y-97337446D01*
X147125001Y-97265593D01*
X147224891Y-97212200D01*
X147224893Y-97212199D01*
X147333281Y-97179320D01*
X147333282Y-97179320D01*
X147333285Y-97179319D01*
X147446000Y-97168218D01*
X147558716Y-97179319D01*
X147558716Y-97179319D01*
G37*
G36*
X150821000Y-99171000D02*
X148971000Y-99171000D01*
X148971000Y-97171000D01*
X150821000Y-97171000D01*
X150821000Y-99171000D01*
X150821000Y-99171000D01*
G37*
G36*
X153071000Y-99171000D02*
X151221000Y-99171000D01*
X151221000Y-97171000D01*
X153071000Y-97171000D01*
X153071000Y-99171000D01*
X153071000Y-99171000D01*
G37*
G36*
X159018521Y-96933686D02*
X159182309Y-97001529D01*
X159329720Y-97100026D01*
X159455074Y-97225380D01*
X159553571Y-97372791D01*
X159621414Y-97536579D01*
X159656000Y-97710456D01*
X159656000Y-97887744D01*
X159621414Y-98061621D01*
X159553571Y-98225409D01*
X159455074Y-98372820D01*
X159329720Y-98498174D01*
X159182309Y-98596671D01*
X159018521Y-98664514D01*
X158844644Y-98699100D01*
X158667356Y-98699100D01*
X158493479Y-98664514D01*
X158329691Y-98596671D01*
X158182280Y-98498174D01*
X158056926Y-98372820D01*
X157958429Y-98225409D01*
X157890586Y-98061621D01*
X157856000Y-97887744D01*
X157856000Y-97710456D01*
X157890586Y-97536579D01*
X157958429Y-97372791D01*
X158056926Y-97225380D01*
X158182280Y-97100026D01*
X158329691Y-97001529D01*
X158493479Y-96933686D01*
X158667356Y-96899100D01*
X158844644Y-96899100D01*
X159018521Y-96933686D01*
X159018521Y-96933686D01*
G37*
G36*
X144416000Y-98699100D02*
X142616000Y-98699100D01*
X142616000Y-96899100D01*
X144416000Y-96899100D01*
X144416000Y-98699100D01*
X144416000Y-98699100D01*
G37*
M02*
