G04 #@! TF.GenerationSoftware,KiCad,Pcbnew,5.0.1-33cea8e~66~ubuntu18.04.1*
G04 #@! TF.CreationDate,2018-10-16T23:10:54+02:00*
G04 #@! TF.ProjectId,TinyFPGA-BX,54696E79465047412D42582E6B696361,rev?*
G04 #@! TF.SameCoordinates,Original*
G04 #@! TF.FileFunction,Paste,Top*
G04 #@! TF.FilePolarity,Positive*
%FSLAX46Y46*%
G04 Gerber Fmt 4.6, Leading zero omitted, Abs format (unit mm)*
G04 Created by KiCad (PCBNEW 5.0.1-33cea8e~66~ubuntu18.04.1) date di 16 okt 2018 23:10:54 CEST*
%MOMM*%
%LPD*%
G01*
G04 APERTURE LIST*
%ADD10R,0.500000X0.900000*%
%ADD11R,0.600000X0.400000*%
%ADD12R,0.300000X0.550000*%
%ADD13R,0.550000X0.300000*%
%ADD14R,1.120000X1.120000*%
%ADD15C,0.100000*%
%ADD16C,0.590000*%
%ADD17R,1.750000X1.900000*%
%ADD18R,0.400000X1.400000*%
%ADD19R,1.150000X1.450000*%
%ADD20R,1.060000X0.650000*%
%ADD21R,0.900000X1.700000*%
%ADD22R,1.400000X1.200000*%
%ADD23R,0.750000X0.300000*%
%ADD24R,0.710000X0.580000*%
G04 APERTURE END LIST*
D10*
G04 #@! TO.C,L1*
X154674000Y-102616000D03*
X153174000Y-102616000D03*
G04 #@! TD*
D11*
G04 #@! TO.C,R9*
X152019000Y-107442000D03*
X152019000Y-108342000D03*
G04 #@! TD*
G04 #@! TO.C,R8*
X149987000Y-107500000D03*
X149987000Y-108400000D03*
G04 #@! TD*
D12*
G04 #@! TO.C,U1*
X153880000Y-110544000D03*
X153380000Y-110544000D03*
X152880000Y-110544000D03*
X152380000Y-110544000D03*
X151880000Y-110544000D03*
X151380000Y-110544000D03*
X150880000Y-110544000D03*
X150380000Y-110544000D03*
X149880000Y-110544000D03*
X149380000Y-110544000D03*
X148880000Y-110544000D03*
X148380000Y-110544000D03*
D13*
X147755000Y-111169000D03*
X147755000Y-111669000D03*
X147755000Y-112169000D03*
X147755000Y-112669000D03*
X147755000Y-113169000D03*
X147755000Y-113669000D03*
X147755000Y-114169000D03*
X147755000Y-114669000D03*
X147755000Y-115169000D03*
X147755000Y-115669000D03*
X147755000Y-116169000D03*
X147755000Y-116669000D03*
D12*
X148380000Y-117294000D03*
X148880000Y-117294000D03*
X149380000Y-117294000D03*
X149880000Y-117294000D03*
X150380000Y-117294000D03*
X150880000Y-117294000D03*
X151380000Y-117294000D03*
X151880000Y-117294000D03*
X152380000Y-117294000D03*
X152880000Y-117294000D03*
X153380000Y-117294000D03*
X153880000Y-117294000D03*
D13*
X154505000Y-116669000D03*
X154505000Y-116169000D03*
X154505000Y-115669000D03*
X154505000Y-115169000D03*
X154505000Y-114669000D03*
X154505000Y-114169000D03*
X154505000Y-113669000D03*
X154505000Y-113169000D03*
X154505000Y-112669000D03*
X154505000Y-112169000D03*
X154505000Y-111669000D03*
X154505000Y-111169000D03*
D14*
X153230000Y-111819000D03*
X151830000Y-111819000D03*
X150430000Y-111819000D03*
X149030000Y-111819000D03*
X153230000Y-113219000D03*
X151830000Y-113219000D03*
X150430000Y-113219000D03*
X149030000Y-113219000D03*
X153230000Y-114619000D03*
X151830000Y-114619000D03*
X150430000Y-114619000D03*
X149030000Y-114619000D03*
X153230000Y-116019000D03*
X151830000Y-116019000D03*
X150430000Y-116019000D03*
X149030000Y-116019000D03*
G04 #@! TD*
D15*
G04 #@! TO.C,C3*
G36*
X151141958Y-108900710D02*
X151156276Y-108902834D01*
X151170317Y-108906351D01*
X151183946Y-108911228D01*
X151197031Y-108917417D01*
X151209447Y-108924858D01*
X151221073Y-108933481D01*
X151231798Y-108943202D01*
X151241519Y-108953927D01*
X151250142Y-108965553D01*
X151257583Y-108977969D01*
X151263772Y-108991054D01*
X151268649Y-109004683D01*
X151272166Y-109018724D01*
X151274290Y-109033042D01*
X151275000Y-109047500D01*
X151275000Y-109392500D01*
X151274290Y-109406958D01*
X151272166Y-109421276D01*
X151268649Y-109435317D01*
X151263772Y-109448946D01*
X151257583Y-109462031D01*
X151250142Y-109474447D01*
X151241519Y-109486073D01*
X151231798Y-109496798D01*
X151221073Y-109506519D01*
X151209447Y-109515142D01*
X151197031Y-109522583D01*
X151183946Y-109528772D01*
X151170317Y-109533649D01*
X151156276Y-109537166D01*
X151141958Y-109539290D01*
X151127500Y-109540000D01*
X150832500Y-109540000D01*
X150818042Y-109539290D01*
X150803724Y-109537166D01*
X150789683Y-109533649D01*
X150776054Y-109528772D01*
X150762969Y-109522583D01*
X150750553Y-109515142D01*
X150738927Y-109506519D01*
X150728202Y-109496798D01*
X150718481Y-109486073D01*
X150709858Y-109474447D01*
X150702417Y-109462031D01*
X150696228Y-109448946D01*
X150691351Y-109435317D01*
X150687834Y-109421276D01*
X150685710Y-109406958D01*
X150685000Y-109392500D01*
X150685000Y-109047500D01*
X150685710Y-109033042D01*
X150687834Y-109018724D01*
X150691351Y-109004683D01*
X150696228Y-108991054D01*
X150702417Y-108977969D01*
X150709858Y-108965553D01*
X150718481Y-108953927D01*
X150728202Y-108943202D01*
X150738927Y-108933481D01*
X150750553Y-108924858D01*
X150762969Y-108917417D01*
X150776054Y-108911228D01*
X150789683Y-108906351D01*
X150803724Y-108902834D01*
X150818042Y-108900710D01*
X150832500Y-108900000D01*
X151127500Y-108900000D01*
X151141958Y-108900710D01*
X151141958Y-108900710D01*
G37*
D16*
X150980000Y-109220000D03*
D15*
G36*
X150171958Y-108900710D02*
X150186276Y-108902834D01*
X150200317Y-108906351D01*
X150213946Y-108911228D01*
X150227031Y-108917417D01*
X150239447Y-108924858D01*
X150251073Y-108933481D01*
X150261798Y-108943202D01*
X150271519Y-108953927D01*
X150280142Y-108965553D01*
X150287583Y-108977969D01*
X150293772Y-108991054D01*
X150298649Y-109004683D01*
X150302166Y-109018724D01*
X150304290Y-109033042D01*
X150305000Y-109047500D01*
X150305000Y-109392500D01*
X150304290Y-109406958D01*
X150302166Y-109421276D01*
X150298649Y-109435317D01*
X150293772Y-109448946D01*
X150287583Y-109462031D01*
X150280142Y-109474447D01*
X150271519Y-109486073D01*
X150261798Y-109496798D01*
X150251073Y-109506519D01*
X150239447Y-109515142D01*
X150227031Y-109522583D01*
X150213946Y-109528772D01*
X150200317Y-109533649D01*
X150186276Y-109537166D01*
X150171958Y-109539290D01*
X150157500Y-109540000D01*
X149862500Y-109540000D01*
X149848042Y-109539290D01*
X149833724Y-109537166D01*
X149819683Y-109533649D01*
X149806054Y-109528772D01*
X149792969Y-109522583D01*
X149780553Y-109515142D01*
X149768927Y-109506519D01*
X149758202Y-109496798D01*
X149748481Y-109486073D01*
X149739858Y-109474447D01*
X149732417Y-109462031D01*
X149726228Y-109448946D01*
X149721351Y-109435317D01*
X149717834Y-109421276D01*
X149715710Y-109406958D01*
X149715000Y-109392500D01*
X149715000Y-109047500D01*
X149715710Y-109033042D01*
X149717834Y-109018724D01*
X149721351Y-109004683D01*
X149726228Y-108991054D01*
X149732417Y-108977969D01*
X149739858Y-108965553D01*
X149748481Y-108953927D01*
X149758202Y-108943202D01*
X149768927Y-108933481D01*
X149780553Y-108924858D01*
X149792969Y-108917417D01*
X149806054Y-108911228D01*
X149819683Y-108906351D01*
X149833724Y-108902834D01*
X149848042Y-108900710D01*
X149862500Y-108900000D01*
X150157500Y-108900000D01*
X150171958Y-108900710D01*
X150171958Y-108900710D01*
G37*
D16*
X150010000Y-109220000D03*
G04 #@! TD*
D15*
G04 #@! TO.C,D1*
G36*
X149157958Y-108117710D02*
X149172276Y-108119834D01*
X149186317Y-108123351D01*
X149199946Y-108128228D01*
X149213031Y-108134417D01*
X149225447Y-108141858D01*
X149237073Y-108150481D01*
X149247798Y-108160202D01*
X149257519Y-108170927D01*
X149266142Y-108182553D01*
X149273583Y-108194969D01*
X149279772Y-108208054D01*
X149284649Y-108221683D01*
X149288166Y-108235724D01*
X149290290Y-108250042D01*
X149291000Y-108264500D01*
X149291000Y-108559500D01*
X149290290Y-108573958D01*
X149288166Y-108588276D01*
X149284649Y-108602317D01*
X149279772Y-108615946D01*
X149273583Y-108629031D01*
X149266142Y-108641447D01*
X149257519Y-108653073D01*
X149247798Y-108663798D01*
X149237073Y-108673519D01*
X149225447Y-108682142D01*
X149213031Y-108689583D01*
X149199946Y-108695772D01*
X149186317Y-108700649D01*
X149172276Y-108704166D01*
X149157958Y-108706290D01*
X149143500Y-108707000D01*
X148798500Y-108707000D01*
X148784042Y-108706290D01*
X148769724Y-108704166D01*
X148755683Y-108700649D01*
X148742054Y-108695772D01*
X148728969Y-108689583D01*
X148716553Y-108682142D01*
X148704927Y-108673519D01*
X148694202Y-108663798D01*
X148684481Y-108653073D01*
X148675858Y-108641447D01*
X148668417Y-108629031D01*
X148662228Y-108615946D01*
X148657351Y-108602317D01*
X148653834Y-108588276D01*
X148651710Y-108573958D01*
X148651000Y-108559500D01*
X148651000Y-108264500D01*
X148651710Y-108250042D01*
X148653834Y-108235724D01*
X148657351Y-108221683D01*
X148662228Y-108208054D01*
X148668417Y-108194969D01*
X148675858Y-108182553D01*
X148684481Y-108170927D01*
X148694202Y-108160202D01*
X148704927Y-108150481D01*
X148716553Y-108141858D01*
X148728969Y-108134417D01*
X148742054Y-108128228D01*
X148755683Y-108123351D01*
X148769724Y-108119834D01*
X148784042Y-108117710D01*
X148798500Y-108117000D01*
X149143500Y-108117000D01*
X149157958Y-108117710D01*
X149157958Y-108117710D01*
G37*
D16*
X148971000Y-108412000D03*
D15*
G36*
X149157958Y-107147710D02*
X149172276Y-107149834D01*
X149186317Y-107153351D01*
X149199946Y-107158228D01*
X149213031Y-107164417D01*
X149225447Y-107171858D01*
X149237073Y-107180481D01*
X149247798Y-107190202D01*
X149257519Y-107200927D01*
X149266142Y-107212553D01*
X149273583Y-107224969D01*
X149279772Y-107238054D01*
X149284649Y-107251683D01*
X149288166Y-107265724D01*
X149290290Y-107280042D01*
X149291000Y-107294500D01*
X149291000Y-107589500D01*
X149290290Y-107603958D01*
X149288166Y-107618276D01*
X149284649Y-107632317D01*
X149279772Y-107645946D01*
X149273583Y-107659031D01*
X149266142Y-107671447D01*
X149257519Y-107683073D01*
X149247798Y-107693798D01*
X149237073Y-107703519D01*
X149225447Y-107712142D01*
X149213031Y-107719583D01*
X149199946Y-107725772D01*
X149186317Y-107730649D01*
X149172276Y-107734166D01*
X149157958Y-107736290D01*
X149143500Y-107737000D01*
X148798500Y-107737000D01*
X148784042Y-107736290D01*
X148769724Y-107734166D01*
X148755683Y-107730649D01*
X148742054Y-107725772D01*
X148728969Y-107719583D01*
X148716553Y-107712142D01*
X148704927Y-107703519D01*
X148694202Y-107693798D01*
X148684481Y-107683073D01*
X148675858Y-107671447D01*
X148668417Y-107659031D01*
X148662228Y-107645946D01*
X148657351Y-107632317D01*
X148653834Y-107618276D01*
X148651710Y-107603958D01*
X148651000Y-107589500D01*
X148651000Y-107294500D01*
X148651710Y-107280042D01*
X148653834Y-107265724D01*
X148657351Y-107251683D01*
X148662228Y-107238054D01*
X148668417Y-107224969D01*
X148675858Y-107212553D01*
X148684481Y-107200927D01*
X148694202Y-107190202D01*
X148704927Y-107180481D01*
X148716553Y-107171858D01*
X148728969Y-107164417D01*
X148742054Y-107158228D01*
X148755683Y-107153351D01*
X148769724Y-107149834D01*
X148784042Y-107147710D01*
X148798500Y-107147000D01*
X149143500Y-107147000D01*
X149157958Y-107147710D01*
X149157958Y-107147710D01*
G37*
D16*
X148971000Y-107442000D03*
G04 #@! TD*
D15*
G04 #@! TO.C,D2*
G36*
X153221958Y-107170710D02*
X153236276Y-107172834D01*
X153250317Y-107176351D01*
X153263946Y-107181228D01*
X153277031Y-107187417D01*
X153289447Y-107194858D01*
X153301073Y-107203481D01*
X153311798Y-107213202D01*
X153321519Y-107223927D01*
X153330142Y-107235553D01*
X153337583Y-107247969D01*
X153343772Y-107261054D01*
X153348649Y-107274683D01*
X153352166Y-107288724D01*
X153354290Y-107303042D01*
X153355000Y-107317500D01*
X153355000Y-107612500D01*
X153354290Y-107626958D01*
X153352166Y-107641276D01*
X153348649Y-107655317D01*
X153343772Y-107668946D01*
X153337583Y-107682031D01*
X153330142Y-107694447D01*
X153321519Y-107706073D01*
X153311798Y-107716798D01*
X153301073Y-107726519D01*
X153289447Y-107735142D01*
X153277031Y-107742583D01*
X153263946Y-107748772D01*
X153250317Y-107753649D01*
X153236276Y-107757166D01*
X153221958Y-107759290D01*
X153207500Y-107760000D01*
X152862500Y-107760000D01*
X152848042Y-107759290D01*
X152833724Y-107757166D01*
X152819683Y-107753649D01*
X152806054Y-107748772D01*
X152792969Y-107742583D01*
X152780553Y-107735142D01*
X152768927Y-107726519D01*
X152758202Y-107716798D01*
X152748481Y-107706073D01*
X152739858Y-107694447D01*
X152732417Y-107682031D01*
X152726228Y-107668946D01*
X152721351Y-107655317D01*
X152717834Y-107641276D01*
X152715710Y-107626958D01*
X152715000Y-107612500D01*
X152715000Y-107317500D01*
X152715710Y-107303042D01*
X152717834Y-107288724D01*
X152721351Y-107274683D01*
X152726228Y-107261054D01*
X152732417Y-107247969D01*
X152739858Y-107235553D01*
X152748481Y-107223927D01*
X152758202Y-107213202D01*
X152768927Y-107203481D01*
X152780553Y-107194858D01*
X152792969Y-107187417D01*
X152806054Y-107181228D01*
X152819683Y-107176351D01*
X152833724Y-107172834D01*
X152848042Y-107170710D01*
X152862500Y-107170000D01*
X153207500Y-107170000D01*
X153221958Y-107170710D01*
X153221958Y-107170710D01*
G37*
D16*
X153035000Y-107465000D03*
D15*
G36*
X153221958Y-108140710D02*
X153236276Y-108142834D01*
X153250317Y-108146351D01*
X153263946Y-108151228D01*
X153277031Y-108157417D01*
X153289447Y-108164858D01*
X153301073Y-108173481D01*
X153311798Y-108183202D01*
X153321519Y-108193927D01*
X153330142Y-108205553D01*
X153337583Y-108217969D01*
X153343772Y-108231054D01*
X153348649Y-108244683D01*
X153352166Y-108258724D01*
X153354290Y-108273042D01*
X153355000Y-108287500D01*
X153355000Y-108582500D01*
X153354290Y-108596958D01*
X153352166Y-108611276D01*
X153348649Y-108625317D01*
X153343772Y-108638946D01*
X153337583Y-108652031D01*
X153330142Y-108664447D01*
X153321519Y-108676073D01*
X153311798Y-108686798D01*
X153301073Y-108696519D01*
X153289447Y-108705142D01*
X153277031Y-108712583D01*
X153263946Y-108718772D01*
X153250317Y-108723649D01*
X153236276Y-108727166D01*
X153221958Y-108729290D01*
X153207500Y-108730000D01*
X152862500Y-108730000D01*
X152848042Y-108729290D01*
X152833724Y-108727166D01*
X152819683Y-108723649D01*
X152806054Y-108718772D01*
X152792969Y-108712583D01*
X152780553Y-108705142D01*
X152768927Y-108696519D01*
X152758202Y-108686798D01*
X152748481Y-108676073D01*
X152739858Y-108664447D01*
X152732417Y-108652031D01*
X152726228Y-108638946D01*
X152721351Y-108625317D01*
X152717834Y-108611276D01*
X152715710Y-108596958D01*
X152715000Y-108582500D01*
X152715000Y-108287500D01*
X152715710Y-108273042D01*
X152717834Y-108258724D01*
X152721351Y-108244683D01*
X152726228Y-108231054D01*
X152732417Y-108217969D01*
X152739858Y-108205553D01*
X152748481Y-108193927D01*
X152758202Y-108183202D01*
X152768927Y-108173481D01*
X152780553Y-108164858D01*
X152792969Y-108157417D01*
X152806054Y-108151228D01*
X152819683Y-108146351D01*
X152833724Y-108142834D01*
X152848042Y-108140710D01*
X152862500Y-108140000D01*
X153207500Y-108140000D01*
X153221958Y-108140710D01*
X153221958Y-108140710D01*
G37*
D16*
X153035000Y-108435000D03*
G04 #@! TD*
D17*
G04 #@! TO.C,J3*
X149896000Y-98171000D03*
D18*
X151671000Y-100821000D03*
X152321000Y-100821000D03*
X149721000Y-100821000D03*
X150371000Y-100821000D03*
X151021000Y-100821000D03*
D17*
X152146000Y-98171000D03*
D19*
X148701000Y-100401000D03*
X153341000Y-100401000D03*
G04 #@! TD*
D20*
G04 #@! TO.C,U2*
X154010000Y-105852000D03*
X154010000Y-103952000D03*
X156210000Y-103952000D03*
X156210000Y-104902000D03*
X156210000Y-105852000D03*
G04 #@! TD*
G04 #@! TO.C,U4*
X146558000Y-104013000D03*
X146558000Y-104963000D03*
X146558000Y-105913000D03*
X148758000Y-105913000D03*
X148758000Y-104013000D03*
G04 #@! TD*
D21*
G04 #@! TO.C,SW1*
X149430000Y-129723100D03*
X152830000Y-129723100D03*
G04 #@! TD*
D22*
G04 #@! TO.C,U3*
X149860000Y-122174000D03*
X152400000Y-122174000D03*
X152400000Y-119974000D03*
X149860000Y-119974000D03*
G04 #@! TD*
D23*
G04 #@! TO.C,U5*
X152580000Y-125210000D03*
X152580000Y-124710000D03*
X152580000Y-124210000D03*
X152580000Y-123710000D03*
X149680000Y-123710000D03*
X149680000Y-124210000D03*
X149680000Y-124710000D03*
X149680000Y-125210000D03*
D24*
X151567500Y-124097500D03*
X150692500Y-124097500D03*
X150692500Y-124822500D03*
X151567500Y-124822500D03*
G04 #@! TD*
M02*
