G04 #@! TF.GenerationSoftware,KiCad,Pcbnew,5.0.1-33cea8e~66~ubuntu18.04.1*
G04 #@! TF.CreationDate,2018-10-16T23:10:54+02:00*
G04 #@! TF.ProjectId,TinyFPGA-BX,54696E79465047412D42582E6B696361,rev?*
G04 #@! TF.SameCoordinates,Original*
G04 #@! TF.FileFunction,Soldermask,Bot*
G04 #@! TF.FilePolarity,Negative*
%FSLAX46Y46*%
G04 Gerber Fmt 4.6, Leading zero omitted, Abs format (unit mm)*
G04 Created by KiCad (PCBNEW 5.0.1-33cea8e~66~ubuntu18.04.1) date di 16 okt 2018 23:10:54 CEST*
%MOMM*%
%LPD*%
G01*
G04 APERTURE LIST*
%ADD10C,0.100000*%
G04 APERTURE END LIST*
D10*
G36*
X155295000Y-131995000D02*
X152045000Y-131995000D01*
X152045000Y-130895000D01*
X155295000Y-130895000D01*
X155295000Y-131995000D01*
X155295000Y-131995000D01*
G37*
G36*
X150245000Y-131995000D02*
X146995000Y-131995000D01*
X146995000Y-130895000D01*
X150245000Y-130895000D01*
X150245000Y-131995000D01*
X150245000Y-131995000D01*
G37*
G36*
X143692432Y-129932122D02*
X143862081Y-129983585D01*
X144018433Y-130067156D01*
X144155475Y-130179625D01*
X144267944Y-130316667D01*
X144351515Y-130473019D01*
X144402978Y-130642668D01*
X144420354Y-130819100D01*
X144402978Y-130995532D01*
X144351515Y-131165181D01*
X144267944Y-131321533D01*
X144155475Y-131458575D01*
X144018433Y-131571044D01*
X143862081Y-131654615D01*
X143692432Y-131706078D01*
X143560211Y-131719100D01*
X143471789Y-131719100D01*
X143339568Y-131706078D01*
X143169919Y-131654615D01*
X143013567Y-131571044D01*
X142876525Y-131458575D01*
X142764056Y-131321533D01*
X142680485Y-131165181D01*
X142629022Y-130995532D01*
X142611646Y-130819100D01*
X142629022Y-130642668D01*
X142680485Y-130473019D01*
X142764056Y-130316667D01*
X142876525Y-130179625D01*
X143013567Y-130067156D01*
X143169919Y-129983585D01*
X143339568Y-129932122D01*
X143471789Y-129919100D01*
X143560211Y-129919100D01*
X143692432Y-129932122D01*
X143692432Y-129932122D01*
G37*
G36*
X158932432Y-129932122D02*
X159102081Y-129983585D01*
X159258433Y-130067156D01*
X159395475Y-130179625D01*
X159507944Y-130316667D01*
X159591515Y-130473019D01*
X159642978Y-130642668D01*
X159660354Y-130819100D01*
X159642978Y-130995532D01*
X159591515Y-131165181D01*
X159507944Y-131321533D01*
X159395475Y-131458575D01*
X159258433Y-131571044D01*
X159102081Y-131654615D01*
X158932432Y-131706078D01*
X158800211Y-131719100D01*
X158711789Y-131719100D01*
X158579568Y-131706078D01*
X158409919Y-131654615D01*
X158253567Y-131571044D01*
X158116525Y-131458575D01*
X158004056Y-131321533D01*
X157920485Y-131165181D01*
X157869022Y-130995532D01*
X157851646Y-130819100D01*
X157869022Y-130642668D01*
X157920485Y-130473019D01*
X158004056Y-130316667D01*
X158116525Y-130179625D01*
X158253567Y-130067156D01*
X158409919Y-129983585D01*
X158579568Y-129932122D01*
X158711789Y-129919100D01*
X158800211Y-129919100D01*
X158932432Y-129932122D01*
X158932432Y-129932122D01*
G37*
G36*
X155295000Y-129455000D02*
X152045000Y-129455000D01*
X152045000Y-128355000D01*
X155295000Y-128355000D01*
X155295000Y-129455000D01*
X155295000Y-129455000D01*
G37*
G36*
X150245000Y-129455000D02*
X146995000Y-129455000D01*
X146995000Y-128355000D01*
X150245000Y-128355000D01*
X150245000Y-129455000D01*
X150245000Y-129455000D01*
G37*
G36*
X158932432Y-127392122D02*
X159102081Y-127443585D01*
X159258433Y-127527156D01*
X159395475Y-127639625D01*
X159507944Y-127776667D01*
X159591515Y-127933019D01*
X159642978Y-128102668D01*
X159660354Y-128279100D01*
X159642978Y-128455532D01*
X159591515Y-128625181D01*
X159507944Y-128781533D01*
X159395475Y-128918575D01*
X159258433Y-129031044D01*
X159102081Y-129114615D01*
X158932432Y-129166078D01*
X158800211Y-129179100D01*
X158711789Y-129179100D01*
X158579568Y-129166078D01*
X158409919Y-129114615D01*
X158253567Y-129031044D01*
X158116525Y-128918575D01*
X158004056Y-128781533D01*
X157920485Y-128625181D01*
X157869022Y-128455532D01*
X157851646Y-128279100D01*
X157869022Y-128102668D01*
X157920485Y-127933019D01*
X158004056Y-127776667D01*
X158116525Y-127639625D01*
X158253567Y-127527156D01*
X158409919Y-127443585D01*
X158579568Y-127392122D01*
X158711789Y-127379100D01*
X158800211Y-127379100D01*
X158932432Y-127392122D01*
X158932432Y-127392122D01*
G37*
G36*
X143692432Y-127392122D02*
X143862081Y-127443585D01*
X144018433Y-127527156D01*
X144155475Y-127639625D01*
X144267944Y-127776667D01*
X144351515Y-127933019D01*
X144402978Y-128102668D01*
X144420354Y-128279100D01*
X144402978Y-128455532D01*
X144351515Y-128625181D01*
X144267944Y-128781533D01*
X144155475Y-128918575D01*
X144018433Y-129031044D01*
X143862081Y-129114615D01*
X143692432Y-129166078D01*
X143560211Y-129179100D01*
X143471789Y-129179100D01*
X143339568Y-129166078D01*
X143169919Y-129114615D01*
X143013567Y-129031044D01*
X142876525Y-128918575D01*
X142764056Y-128781533D01*
X142680485Y-128625181D01*
X142629022Y-128455532D01*
X142611646Y-128279100D01*
X142629022Y-128102668D01*
X142680485Y-127933019D01*
X142764056Y-127776667D01*
X142876525Y-127639625D01*
X143013567Y-127527156D01*
X143169919Y-127443585D01*
X143339568Y-127392122D01*
X143471789Y-127379100D01*
X143560211Y-127379100D01*
X143692432Y-127392122D01*
X143692432Y-127392122D01*
G37*
G36*
X155295000Y-126915000D02*
X152045000Y-126915000D01*
X152045000Y-125815000D01*
X155295000Y-125815000D01*
X155295000Y-126915000D01*
X155295000Y-126915000D01*
G37*
G36*
X150245000Y-126915000D02*
X146995000Y-126915000D01*
X146995000Y-125815000D01*
X150245000Y-125815000D01*
X150245000Y-126915000D01*
X150245000Y-126915000D01*
G37*
G36*
X143692432Y-124852122D02*
X143862081Y-124903585D01*
X144018433Y-124987156D01*
X144155475Y-125099625D01*
X144267944Y-125236667D01*
X144351515Y-125393019D01*
X144402978Y-125562668D01*
X144420354Y-125739100D01*
X144402978Y-125915532D01*
X144351515Y-126085181D01*
X144267944Y-126241533D01*
X144155475Y-126378575D01*
X144018433Y-126491044D01*
X143862081Y-126574615D01*
X143692432Y-126626078D01*
X143560211Y-126639100D01*
X143471789Y-126639100D01*
X143339568Y-126626078D01*
X143169919Y-126574615D01*
X143013567Y-126491044D01*
X142876525Y-126378575D01*
X142764056Y-126241533D01*
X142680485Y-126085181D01*
X142629022Y-125915532D01*
X142611646Y-125739100D01*
X142629022Y-125562668D01*
X142680485Y-125393019D01*
X142764056Y-125236667D01*
X142876525Y-125099625D01*
X143013567Y-124987156D01*
X143169919Y-124903585D01*
X143339568Y-124852122D01*
X143471789Y-124839100D01*
X143560211Y-124839100D01*
X143692432Y-124852122D01*
X143692432Y-124852122D01*
G37*
G36*
X158932432Y-124852122D02*
X159102081Y-124903585D01*
X159258433Y-124987156D01*
X159395475Y-125099625D01*
X159507944Y-125236667D01*
X159591515Y-125393019D01*
X159642978Y-125562668D01*
X159660354Y-125739100D01*
X159642978Y-125915532D01*
X159591515Y-126085181D01*
X159507944Y-126241533D01*
X159395475Y-126378575D01*
X159258433Y-126491044D01*
X159102081Y-126574615D01*
X158932432Y-126626078D01*
X158800211Y-126639100D01*
X158711789Y-126639100D01*
X158579568Y-126626078D01*
X158409919Y-126574615D01*
X158253567Y-126491044D01*
X158116525Y-126378575D01*
X158004056Y-126241533D01*
X157920485Y-126085181D01*
X157869022Y-125915532D01*
X157851646Y-125739100D01*
X157869022Y-125562668D01*
X157920485Y-125393019D01*
X158004056Y-125236667D01*
X158116525Y-125099625D01*
X158253567Y-124987156D01*
X158409919Y-124903585D01*
X158579568Y-124852122D01*
X158711789Y-124839100D01*
X158800211Y-124839100D01*
X158932432Y-124852122D01*
X158932432Y-124852122D01*
G37*
G36*
X146475000Y-125191000D02*
X145995000Y-125191000D01*
X145995000Y-124491000D01*
X146475000Y-124491000D01*
X146475000Y-125191000D01*
X146475000Y-125191000D01*
G37*
G36*
X147375000Y-125191000D02*
X146895000Y-125191000D01*
X146895000Y-124491000D01*
X147375000Y-124491000D01*
X147375000Y-125191000D01*
X147375000Y-125191000D01*
G37*
G36*
X155582000Y-124556000D02*
X155082000Y-124556000D01*
X155082000Y-123856000D01*
X155582000Y-123856000D01*
X155582000Y-124556000D01*
X155582000Y-124556000D01*
G37*
G36*
X154682000Y-124556000D02*
X154182000Y-124556000D01*
X154182000Y-123856000D01*
X154682000Y-123856000D01*
X154682000Y-124556000D01*
X154682000Y-124556000D01*
G37*
G36*
X158932432Y-122312122D02*
X159102081Y-122363585D01*
X159258433Y-122447156D01*
X159395475Y-122559625D01*
X159507944Y-122696667D01*
X159591515Y-122853019D01*
X159642978Y-123022668D01*
X159660354Y-123199100D01*
X159642978Y-123375532D01*
X159591515Y-123545181D01*
X159507944Y-123701533D01*
X159395475Y-123838575D01*
X159258433Y-123951044D01*
X159102081Y-124034615D01*
X158932432Y-124086078D01*
X158800211Y-124099100D01*
X158711789Y-124099100D01*
X158579568Y-124086078D01*
X158409919Y-124034615D01*
X158253567Y-123951044D01*
X158116525Y-123838575D01*
X158004056Y-123701533D01*
X157920485Y-123545181D01*
X157869022Y-123375532D01*
X157851646Y-123199100D01*
X157869022Y-123022668D01*
X157920485Y-122853019D01*
X158004056Y-122696667D01*
X158116525Y-122559625D01*
X158253567Y-122447156D01*
X158409919Y-122363585D01*
X158579568Y-122312122D01*
X158711789Y-122299100D01*
X158800211Y-122299100D01*
X158932432Y-122312122D01*
X158932432Y-122312122D01*
G37*
G36*
X143692432Y-122312122D02*
X143862081Y-122363585D01*
X144018433Y-122447156D01*
X144155475Y-122559625D01*
X144267944Y-122696667D01*
X144351515Y-122853019D01*
X144402978Y-123022668D01*
X144420354Y-123199100D01*
X144402978Y-123375532D01*
X144351515Y-123545181D01*
X144267944Y-123701533D01*
X144155475Y-123838575D01*
X144018433Y-123951044D01*
X143862081Y-124034615D01*
X143692432Y-124086078D01*
X143560211Y-124099100D01*
X143471789Y-124099100D01*
X143339568Y-124086078D01*
X143169919Y-124034615D01*
X143013567Y-123951044D01*
X142876525Y-123838575D01*
X142764056Y-123701533D01*
X142680485Y-123545181D01*
X142629022Y-123375532D01*
X142611646Y-123199100D01*
X142629022Y-123022668D01*
X142680485Y-122853019D01*
X142764056Y-122696667D01*
X142876525Y-122559625D01*
X143013567Y-122447156D01*
X143169919Y-122363585D01*
X143339568Y-122312122D01*
X143471789Y-122299100D01*
X143560211Y-122299100D01*
X143692432Y-122312122D01*
X143692432Y-122312122D01*
G37*
G36*
X148305000Y-122943000D02*
X147605000Y-122943000D01*
X147605000Y-122443000D01*
X148305000Y-122443000D01*
X148305000Y-122943000D01*
X148305000Y-122943000D01*
G37*
G36*
X154682000Y-122905000D02*
X154182000Y-122905000D01*
X154182000Y-122205000D01*
X154682000Y-122205000D01*
X154682000Y-122905000D01*
X154682000Y-122905000D01*
G37*
G36*
X155582000Y-122905000D02*
X155082000Y-122905000D01*
X155082000Y-122205000D01*
X155582000Y-122205000D01*
X155582000Y-122905000D01*
X155582000Y-122905000D01*
G37*
G36*
X148305000Y-122043000D02*
X147605000Y-122043000D01*
X147605000Y-121543000D01*
X148305000Y-121543000D01*
X148305000Y-122043000D01*
X148305000Y-122043000D01*
G37*
G36*
X143692432Y-119772122D02*
X143862081Y-119823585D01*
X144018433Y-119907156D01*
X144155475Y-120019625D01*
X144267944Y-120156667D01*
X144351515Y-120313019D01*
X144402978Y-120482668D01*
X144420354Y-120659100D01*
X144402978Y-120835532D01*
X144351515Y-121005181D01*
X144267944Y-121161533D01*
X144155475Y-121298575D01*
X144018433Y-121411044D01*
X143862081Y-121494615D01*
X143692432Y-121546078D01*
X143560211Y-121559100D01*
X143471789Y-121559100D01*
X143339568Y-121546078D01*
X143169919Y-121494615D01*
X143013567Y-121411044D01*
X142876525Y-121298575D01*
X142764056Y-121161533D01*
X142680485Y-121005181D01*
X142629022Y-120835532D01*
X142611646Y-120659100D01*
X142629022Y-120482668D01*
X142680485Y-120313019D01*
X142764056Y-120156667D01*
X142876525Y-120019625D01*
X143013567Y-119907156D01*
X143169919Y-119823585D01*
X143339568Y-119772122D01*
X143471789Y-119759100D01*
X143560211Y-119759100D01*
X143692432Y-119772122D01*
X143692432Y-119772122D01*
G37*
G36*
X158932432Y-119772122D02*
X159102081Y-119823585D01*
X159258433Y-119907156D01*
X159395475Y-120019625D01*
X159507944Y-120156667D01*
X159591515Y-120313019D01*
X159642978Y-120482668D01*
X159660354Y-120659100D01*
X159642978Y-120835532D01*
X159591515Y-121005181D01*
X159507944Y-121161533D01*
X159395475Y-121298575D01*
X159258433Y-121411044D01*
X159102081Y-121494615D01*
X158932432Y-121546078D01*
X158800211Y-121559100D01*
X158711789Y-121559100D01*
X158579568Y-121546078D01*
X158409919Y-121494615D01*
X158253567Y-121411044D01*
X158116525Y-121298575D01*
X158004056Y-121161533D01*
X157920485Y-121005181D01*
X157869022Y-120835532D01*
X157851646Y-120659100D01*
X157869022Y-120482668D01*
X157920485Y-120313019D01*
X158004056Y-120156667D01*
X158116525Y-120019625D01*
X158253567Y-119907156D01*
X158409919Y-119823585D01*
X158579568Y-119772122D01*
X158711789Y-119759100D01*
X158800211Y-119759100D01*
X158932432Y-119772122D01*
X158932432Y-119772122D01*
G37*
G36*
X154607340Y-120409706D02*
X154627866Y-120415933D01*
X154646773Y-120426039D01*
X154663354Y-120439646D01*
X154676961Y-120456227D01*
X154687067Y-120475134D01*
X154693294Y-120495660D01*
X154696000Y-120523138D01*
X154696000Y-121030862D01*
X154693294Y-121058340D01*
X154687067Y-121078866D01*
X154676961Y-121097773D01*
X154663354Y-121114354D01*
X154646773Y-121127961D01*
X154627866Y-121138067D01*
X154607340Y-121144294D01*
X154579862Y-121147000D01*
X154122138Y-121147000D01*
X154094660Y-121144294D01*
X154074134Y-121138067D01*
X154055227Y-121127961D01*
X154038646Y-121114354D01*
X154025039Y-121097773D01*
X154014933Y-121078866D01*
X154008706Y-121058340D01*
X154006000Y-121030862D01*
X154006000Y-120523138D01*
X154008706Y-120495660D01*
X154014933Y-120475134D01*
X154025039Y-120456227D01*
X154038646Y-120439646D01*
X154055227Y-120426039D01*
X154074134Y-120415933D01*
X154094660Y-120409706D01*
X154122138Y-120407000D01*
X154579862Y-120407000D01*
X154607340Y-120409706D01*
X154607340Y-120409706D01*
G37*
G36*
X155577340Y-120409706D02*
X155597866Y-120415933D01*
X155616773Y-120426039D01*
X155633354Y-120439646D01*
X155646961Y-120456227D01*
X155657067Y-120475134D01*
X155663294Y-120495660D01*
X155666000Y-120523138D01*
X155666000Y-121030862D01*
X155663294Y-121058340D01*
X155657067Y-121078866D01*
X155646961Y-121097773D01*
X155633354Y-121114354D01*
X155616773Y-121127961D01*
X155597866Y-121138067D01*
X155577340Y-121144294D01*
X155549862Y-121147000D01*
X155092138Y-121147000D01*
X155064660Y-121144294D01*
X155044134Y-121138067D01*
X155025227Y-121127961D01*
X155008646Y-121114354D01*
X154995039Y-121097773D01*
X154984933Y-121078866D01*
X154978706Y-121058340D01*
X154976000Y-121030862D01*
X154976000Y-120523138D01*
X154978706Y-120495660D01*
X154984933Y-120475134D01*
X154995039Y-120456227D01*
X155008646Y-120439646D01*
X155025227Y-120426039D01*
X155044134Y-120415933D01*
X155064660Y-120409706D01*
X155092138Y-120407000D01*
X155549862Y-120407000D01*
X155577340Y-120409706D01*
X155577340Y-120409706D01*
G37*
G36*
X150416340Y-120282706D02*
X150436866Y-120288933D01*
X150455773Y-120299039D01*
X150472354Y-120312646D01*
X150485961Y-120329227D01*
X150496067Y-120348134D01*
X150502294Y-120368660D01*
X150505000Y-120396138D01*
X150505000Y-120903862D01*
X150502294Y-120931340D01*
X150496067Y-120951866D01*
X150485961Y-120970773D01*
X150472354Y-120987354D01*
X150455773Y-121000961D01*
X150436866Y-121011067D01*
X150416340Y-121017294D01*
X150388862Y-121020000D01*
X149931138Y-121020000D01*
X149903660Y-121017294D01*
X149883134Y-121011067D01*
X149864227Y-121000961D01*
X149847646Y-120987354D01*
X149834039Y-120970773D01*
X149823933Y-120951866D01*
X149817706Y-120931340D01*
X149815000Y-120903862D01*
X149815000Y-120396138D01*
X149817706Y-120368660D01*
X149823933Y-120348134D01*
X149834039Y-120329227D01*
X149847646Y-120312646D01*
X149864227Y-120299039D01*
X149883134Y-120288933D01*
X149903660Y-120282706D01*
X149931138Y-120280000D01*
X150388862Y-120280000D01*
X150416340Y-120282706D01*
X150416340Y-120282706D01*
G37*
G36*
X151386340Y-120282706D02*
X151406866Y-120288933D01*
X151425773Y-120299039D01*
X151442354Y-120312646D01*
X151455961Y-120329227D01*
X151466067Y-120348134D01*
X151472294Y-120368660D01*
X151475000Y-120396138D01*
X151475000Y-120903862D01*
X151472294Y-120931340D01*
X151466067Y-120951866D01*
X151455961Y-120970773D01*
X151442354Y-120987354D01*
X151425773Y-121000961D01*
X151406866Y-121011067D01*
X151386340Y-121017294D01*
X151358862Y-121020000D01*
X150901138Y-121020000D01*
X150873660Y-121017294D01*
X150853134Y-121011067D01*
X150834227Y-121000961D01*
X150817646Y-120987354D01*
X150804039Y-120970773D01*
X150793933Y-120951866D01*
X150787706Y-120931340D01*
X150785000Y-120903862D01*
X150785000Y-120396138D01*
X150787706Y-120368660D01*
X150793933Y-120348134D01*
X150804039Y-120329227D01*
X150817646Y-120312646D01*
X150834227Y-120299039D01*
X150853134Y-120288933D01*
X150873660Y-120282706D01*
X150901138Y-120280000D01*
X151358862Y-120280000D01*
X151386340Y-120282706D01*
X151386340Y-120282706D01*
G37*
G36*
X149125340Y-119903706D02*
X149145866Y-119909933D01*
X149164773Y-119920039D01*
X149181354Y-119933646D01*
X149194961Y-119950227D01*
X149205067Y-119969134D01*
X149211294Y-119989660D01*
X149214000Y-120017138D01*
X149214000Y-120474862D01*
X149211294Y-120502340D01*
X149205067Y-120522866D01*
X149194961Y-120541773D01*
X149181354Y-120558354D01*
X149164773Y-120571961D01*
X149145866Y-120582067D01*
X149125340Y-120588294D01*
X149097862Y-120591000D01*
X148590138Y-120591000D01*
X148562660Y-120588294D01*
X148542134Y-120582067D01*
X148523227Y-120571961D01*
X148506646Y-120558354D01*
X148493039Y-120541773D01*
X148482933Y-120522866D01*
X148476706Y-120502340D01*
X148474000Y-120474862D01*
X148474000Y-120017138D01*
X148476706Y-119989660D01*
X148482933Y-119969134D01*
X148493039Y-119950227D01*
X148506646Y-119933646D01*
X148523227Y-119920039D01*
X148542134Y-119909933D01*
X148562660Y-119903706D01*
X148590138Y-119901000D01*
X149097862Y-119901000D01*
X149125340Y-119903706D01*
X149125340Y-119903706D01*
G37*
G36*
X152935340Y-119141706D02*
X152955866Y-119147933D01*
X152974773Y-119158039D01*
X152991354Y-119171646D01*
X153004961Y-119188227D01*
X153015067Y-119207134D01*
X153021294Y-119227660D01*
X153024000Y-119255138D01*
X153024000Y-119712862D01*
X153021294Y-119740340D01*
X153015067Y-119760866D01*
X153004961Y-119779773D01*
X152991354Y-119796354D01*
X152974773Y-119809961D01*
X152955866Y-119820067D01*
X152935340Y-119826294D01*
X152907862Y-119829000D01*
X152400138Y-119829000D01*
X152372660Y-119826294D01*
X152352134Y-119820067D01*
X152333227Y-119809961D01*
X152316646Y-119796354D01*
X152303039Y-119779773D01*
X152292933Y-119760866D01*
X152286706Y-119740340D01*
X152284000Y-119712862D01*
X152284000Y-119255138D01*
X152286706Y-119227660D01*
X152292933Y-119207134D01*
X152303039Y-119188227D01*
X152316646Y-119171646D01*
X152333227Y-119158039D01*
X152352134Y-119147933D01*
X152372660Y-119141706D01*
X152400138Y-119139000D01*
X152907862Y-119139000D01*
X152935340Y-119141706D01*
X152935340Y-119141706D01*
G37*
G36*
X151665340Y-119118706D02*
X151685866Y-119124933D01*
X151704773Y-119135039D01*
X151721354Y-119148646D01*
X151734961Y-119165227D01*
X151745067Y-119184134D01*
X151751294Y-119204660D01*
X151754000Y-119232138D01*
X151754000Y-119689862D01*
X151751294Y-119717340D01*
X151745067Y-119737866D01*
X151734961Y-119756773D01*
X151721354Y-119773354D01*
X151704773Y-119786961D01*
X151685866Y-119797067D01*
X151665340Y-119803294D01*
X151637862Y-119806000D01*
X151130138Y-119806000D01*
X151102660Y-119803294D01*
X151082134Y-119797067D01*
X151063227Y-119786961D01*
X151046646Y-119773354D01*
X151033039Y-119756773D01*
X151022933Y-119737866D01*
X151016706Y-119717340D01*
X151014000Y-119689862D01*
X151014000Y-119232138D01*
X151016706Y-119204660D01*
X151022933Y-119184134D01*
X151033039Y-119165227D01*
X151046646Y-119148646D01*
X151063227Y-119135039D01*
X151082134Y-119124933D01*
X151102660Y-119118706D01*
X151130138Y-119116000D01*
X151637862Y-119116000D01*
X151665340Y-119118706D01*
X151665340Y-119118706D01*
G37*
G36*
X149125340Y-118933706D02*
X149145866Y-118939933D01*
X149164773Y-118950039D01*
X149181354Y-118963646D01*
X149194961Y-118980227D01*
X149205067Y-118999134D01*
X149211294Y-119019660D01*
X149214000Y-119047138D01*
X149214000Y-119504862D01*
X149211294Y-119532340D01*
X149205067Y-119552866D01*
X149194961Y-119571773D01*
X149181354Y-119588354D01*
X149164773Y-119601961D01*
X149145866Y-119612067D01*
X149125340Y-119618294D01*
X149097862Y-119621000D01*
X148590138Y-119621000D01*
X148562660Y-119618294D01*
X148542134Y-119612067D01*
X148523227Y-119601961D01*
X148506646Y-119588354D01*
X148493039Y-119571773D01*
X148482933Y-119552866D01*
X148476706Y-119532340D01*
X148474000Y-119504862D01*
X148474000Y-119047138D01*
X148476706Y-119019660D01*
X148482933Y-118999134D01*
X148493039Y-118980227D01*
X148506646Y-118963646D01*
X148523227Y-118950039D01*
X148542134Y-118939933D01*
X148562660Y-118933706D01*
X148590138Y-118931000D01*
X149097862Y-118931000D01*
X149125340Y-118933706D01*
X149125340Y-118933706D01*
G37*
G36*
X150337000Y-119503000D02*
X149637000Y-119503000D01*
X149637000Y-119003000D01*
X150337000Y-119003000D01*
X150337000Y-119503000D01*
X150337000Y-119503000D01*
G37*
G36*
X143692432Y-117232122D02*
X143862081Y-117283585D01*
X144018433Y-117367156D01*
X144155475Y-117479625D01*
X144267944Y-117616667D01*
X144351515Y-117773019D01*
X144402978Y-117942668D01*
X144420354Y-118119100D01*
X144402978Y-118295532D01*
X144351515Y-118465181D01*
X144267944Y-118621533D01*
X144155475Y-118758575D01*
X144018433Y-118871044D01*
X143862081Y-118954615D01*
X143692432Y-119006078D01*
X143560211Y-119019100D01*
X143471789Y-119019100D01*
X143339568Y-119006078D01*
X143169919Y-118954615D01*
X143013567Y-118871044D01*
X142876525Y-118758575D01*
X142764056Y-118621533D01*
X142680485Y-118465181D01*
X142629022Y-118295532D01*
X142611646Y-118119100D01*
X142629022Y-117942668D01*
X142680485Y-117773019D01*
X142764056Y-117616667D01*
X142876525Y-117479625D01*
X143013567Y-117367156D01*
X143169919Y-117283585D01*
X143339568Y-117232122D01*
X143471789Y-117219100D01*
X143560211Y-117219100D01*
X143692432Y-117232122D01*
X143692432Y-117232122D01*
G37*
G36*
X158932432Y-117232122D02*
X159102081Y-117283585D01*
X159258433Y-117367156D01*
X159395475Y-117479625D01*
X159507944Y-117616667D01*
X159591515Y-117773019D01*
X159642978Y-117942668D01*
X159660354Y-118119100D01*
X159642978Y-118295532D01*
X159591515Y-118465181D01*
X159507944Y-118621533D01*
X159395475Y-118758575D01*
X159258433Y-118871044D01*
X159102081Y-118954615D01*
X158932432Y-119006078D01*
X158800211Y-119019100D01*
X158711789Y-119019100D01*
X158579568Y-119006078D01*
X158409919Y-118954615D01*
X158253567Y-118871044D01*
X158116525Y-118758575D01*
X158004056Y-118621533D01*
X157920485Y-118465181D01*
X157869022Y-118295532D01*
X157851646Y-118119100D01*
X157869022Y-117942668D01*
X157920485Y-117773019D01*
X158004056Y-117616667D01*
X158116525Y-117479625D01*
X158253567Y-117367156D01*
X158409919Y-117283585D01*
X158579568Y-117232122D01*
X158711789Y-117219100D01*
X158800211Y-117219100D01*
X158932432Y-117232122D01*
X158932432Y-117232122D01*
G37*
G36*
X152935340Y-118171706D02*
X152955866Y-118177933D01*
X152974773Y-118188039D01*
X152991354Y-118201646D01*
X153004961Y-118218227D01*
X153015067Y-118237134D01*
X153021294Y-118257660D01*
X153024000Y-118285138D01*
X153024000Y-118742862D01*
X153021294Y-118770340D01*
X153015067Y-118790866D01*
X153004961Y-118809773D01*
X152991354Y-118826354D01*
X152974773Y-118839961D01*
X152955866Y-118850067D01*
X152935340Y-118856294D01*
X152907862Y-118859000D01*
X152400138Y-118859000D01*
X152372660Y-118856294D01*
X152352134Y-118850067D01*
X152333227Y-118839961D01*
X152316646Y-118826354D01*
X152303039Y-118809773D01*
X152292933Y-118790866D01*
X152286706Y-118770340D01*
X152284000Y-118742862D01*
X152284000Y-118285138D01*
X152286706Y-118257660D01*
X152292933Y-118237134D01*
X152303039Y-118218227D01*
X152316646Y-118201646D01*
X152333227Y-118188039D01*
X152352134Y-118177933D01*
X152372660Y-118171706D01*
X152400138Y-118169000D01*
X152907862Y-118169000D01*
X152935340Y-118171706D01*
X152935340Y-118171706D01*
G37*
G36*
X151665340Y-118148706D02*
X151685866Y-118154933D01*
X151704773Y-118165039D01*
X151721354Y-118178646D01*
X151734961Y-118195227D01*
X151745067Y-118214134D01*
X151751294Y-118234660D01*
X151754000Y-118262138D01*
X151754000Y-118719862D01*
X151751294Y-118747340D01*
X151745067Y-118767866D01*
X151734961Y-118786773D01*
X151721354Y-118803354D01*
X151704773Y-118816961D01*
X151685866Y-118827067D01*
X151665340Y-118833294D01*
X151637862Y-118836000D01*
X151130138Y-118836000D01*
X151102660Y-118833294D01*
X151082134Y-118827067D01*
X151063227Y-118816961D01*
X151046646Y-118803354D01*
X151033039Y-118786773D01*
X151022933Y-118767866D01*
X151016706Y-118747340D01*
X151014000Y-118719862D01*
X151014000Y-118262138D01*
X151016706Y-118234660D01*
X151022933Y-118214134D01*
X151033039Y-118195227D01*
X151046646Y-118178646D01*
X151063227Y-118165039D01*
X151082134Y-118154933D01*
X151102660Y-118148706D01*
X151130138Y-118146000D01*
X151637862Y-118146000D01*
X151665340Y-118148706D01*
X151665340Y-118148706D01*
G37*
G36*
X150337000Y-118603000D02*
X149637000Y-118603000D01*
X149637000Y-118103000D01*
X150337000Y-118103000D01*
X150337000Y-118603000D01*
X150337000Y-118603000D01*
G37*
G36*
X148292340Y-117107706D02*
X148312866Y-117113933D01*
X148331773Y-117124039D01*
X148348354Y-117137646D01*
X148361961Y-117154227D01*
X148372067Y-117173134D01*
X148378294Y-117193660D01*
X148381000Y-117221138D01*
X148381000Y-117728862D01*
X148378294Y-117756340D01*
X148372067Y-117776866D01*
X148361961Y-117795773D01*
X148348354Y-117812354D01*
X148331773Y-117825961D01*
X148312866Y-117836067D01*
X148292340Y-117842294D01*
X148264862Y-117845000D01*
X147807138Y-117845000D01*
X147779660Y-117842294D01*
X147759134Y-117836067D01*
X147740227Y-117825961D01*
X147723646Y-117812354D01*
X147710039Y-117795773D01*
X147699933Y-117776866D01*
X147693706Y-117756340D01*
X147691000Y-117728862D01*
X147691000Y-117221138D01*
X147693706Y-117193660D01*
X147699933Y-117173134D01*
X147710039Y-117154227D01*
X147723646Y-117137646D01*
X147740227Y-117124039D01*
X147759134Y-117113933D01*
X147779660Y-117107706D01*
X147807138Y-117105000D01*
X148264862Y-117105000D01*
X148292340Y-117107706D01*
X148292340Y-117107706D01*
G37*
G36*
X147322340Y-117107706D02*
X147342866Y-117113933D01*
X147361773Y-117124039D01*
X147378354Y-117137646D01*
X147391961Y-117154227D01*
X147402067Y-117173134D01*
X147408294Y-117193660D01*
X147411000Y-117221138D01*
X147411000Y-117728862D01*
X147408294Y-117756340D01*
X147402067Y-117776866D01*
X147391961Y-117795773D01*
X147378354Y-117812354D01*
X147361773Y-117825961D01*
X147342866Y-117836067D01*
X147322340Y-117842294D01*
X147294862Y-117845000D01*
X146837138Y-117845000D01*
X146809660Y-117842294D01*
X146789134Y-117836067D01*
X146770227Y-117825961D01*
X146753646Y-117812354D01*
X146740039Y-117795773D01*
X146729933Y-117776866D01*
X146723706Y-117756340D01*
X146721000Y-117728862D01*
X146721000Y-117221138D01*
X146723706Y-117193660D01*
X146729933Y-117173134D01*
X146740039Y-117154227D01*
X146753646Y-117137646D01*
X146770227Y-117124039D01*
X146789134Y-117113933D01*
X146809660Y-117107706D01*
X146837138Y-117105000D01*
X147294862Y-117105000D01*
X147322340Y-117107706D01*
X147322340Y-117107706D01*
G37*
G36*
X143692432Y-114692122D02*
X143862081Y-114743585D01*
X144018433Y-114827156D01*
X144155475Y-114939625D01*
X144267944Y-115076667D01*
X144351515Y-115233019D01*
X144402978Y-115402668D01*
X144420354Y-115579100D01*
X144402978Y-115755532D01*
X144351515Y-115925181D01*
X144267944Y-116081533D01*
X144155475Y-116218575D01*
X144018433Y-116331044D01*
X143862081Y-116414615D01*
X143692432Y-116466078D01*
X143560211Y-116479100D01*
X143471789Y-116479100D01*
X143339568Y-116466078D01*
X143169919Y-116414615D01*
X143013567Y-116331044D01*
X142876525Y-116218575D01*
X142764056Y-116081533D01*
X142680485Y-115925181D01*
X142629022Y-115755532D01*
X142611646Y-115579100D01*
X142629022Y-115402668D01*
X142680485Y-115233019D01*
X142764056Y-115076667D01*
X142876525Y-114939625D01*
X143013567Y-114827156D01*
X143169919Y-114743585D01*
X143339568Y-114692122D01*
X143471789Y-114679100D01*
X143560211Y-114679100D01*
X143692432Y-114692122D01*
X143692432Y-114692122D01*
G37*
G36*
X158932432Y-114692122D02*
X159102081Y-114743585D01*
X159258433Y-114827156D01*
X159395475Y-114939625D01*
X159507944Y-115076667D01*
X159591515Y-115233019D01*
X159642978Y-115402668D01*
X159660354Y-115579100D01*
X159642978Y-115755532D01*
X159591515Y-115925181D01*
X159507944Y-116081533D01*
X159395475Y-116218575D01*
X159258433Y-116331044D01*
X159102081Y-116414615D01*
X158932432Y-116466078D01*
X158800211Y-116479100D01*
X158711789Y-116479100D01*
X158579568Y-116466078D01*
X158409919Y-116414615D01*
X158253567Y-116331044D01*
X158116525Y-116218575D01*
X158004056Y-116081533D01*
X157920485Y-115925181D01*
X157869022Y-115755532D01*
X157851646Y-115579100D01*
X157869022Y-115402668D01*
X157920485Y-115233019D01*
X158004056Y-115076667D01*
X158116525Y-114939625D01*
X158253567Y-114827156D01*
X158409919Y-114743585D01*
X158579568Y-114692122D01*
X158711789Y-114679100D01*
X158800211Y-114679100D01*
X158932432Y-114692122D01*
X158932432Y-114692122D01*
G37*
G36*
X143692432Y-112152122D02*
X143862081Y-112203585D01*
X144018433Y-112287156D01*
X144155475Y-112399625D01*
X144267944Y-112536667D01*
X144351515Y-112693019D01*
X144402978Y-112862668D01*
X144420354Y-113039100D01*
X144402978Y-113215532D01*
X144351515Y-113385181D01*
X144267944Y-113541533D01*
X144155475Y-113678575D01*
X144018433Y-113791044D01*
X143862081Y-113874615D01*
X143692432Y-113926078D01*
X143560211Y-113939100D01*
X143471789Y-113939100D01*
X143339568Y-113926078D01*
X143169919Y-113874615D01*
X143013567Y-113791044D01*
X142876525Y-113678575D01*
X142764056Y-113541533D01*
X142680485Y-113385181D01*
X142629022Y-113215532D01*
X142611646Y-113039100D01*
X142629022Y-112862668D01*
X142680485Y-112693019D01*
X142764056Y-112536667D01*
X142876525Y-112399625D01*
X143013567Y-112287156D01*
X143169919Y-112203585D01*
X143339568Y-112152122D01*
X143471789Y-112139100D01*
X143560211Y-112139100D01*
X143692432Y-112152122D01*
X143692432Y-112152122D01*
G37*
G36*
X158932432Y-112152122D02*
X159102081Y-112203585D01*
X159258433Y-112287156D01*
X159395475Y-112399625D01*
X159507944Y-112536667D01*
X159591515Y-112693019D01*
X159642978Y-112862668D01*
X159660354Y-113039100D01*
X159642978Y-113215532D01*
X159591515Y-113385181D01*
X159507944Y-113541533D01*
X159395475Y-113678575D01*
X159258433Y-113791044D01*
X159102081Y-113874615D01*
X158932432Y-113926078D01*
X158800211Y-113939100D01*
X158711789Y-113939100D01*
X158579568Y-113926078D01*
X158409919Y-113874615D01*
X158253567Y-113791044D01*
X158116525Y-113678575D01*
X158004056Y-113541533D01*
X157920485Y-113385181D01*
X157869022Y-113215532D01*
X157851646Y-113039100D01*
X157869022Y-112862668D01*
X157920485Y-112693019D01*
X158004056Y-112536667D01*
X158116525Y-112399625D01*
X158253567Y-112287156D01*
X158409919Y-112203585D01*
X158579568Y-112152122D01*
X158711789Y-112139100D01*
X158800211Y-112139100D01*
X158932432Y-112152122D01*
X158932432Y-112152122D01*
G37*
G36*
X148084340Y-111900706D02*
X148104866Y-111906933D01*
X148123773Y-111917039D01*
X148140354Y-111930646D01*
X148153961Y-111947227D01*
X148164067Y-111966134D01*
X148170294Y-111986660D01*
X148173000Y-112014138D01*
X148173000Y-112521862D01*
X148170294Y-112549340D01*
X148164067Y-112569866D01*
X148153961Y-112588773D01*
X148140354Y-112605354D01*
X148123773Y-112618961D01*
X148104866Y-112629067D01*
X148084340Y-112635294D01*
X148056862Y-112638000D01*
X147599138Y-112638000D01*
X147571660Y-112635294D01*
X147551134Y-112629067D01*
X147532227Y-112618961D01*
X147515646Y-112605354D01*
X147502039Y-112588773D01*
X147491933Y-112569866D01*
X147485706Y-112549340D01*
X147483000Y-112521862D01*
X147483000Y-112014138D01*
X147485706Y-111986660D01*
X147491933Y-111966134D01*
X147502039Y-111947227D01*
X147515646Y-111930646D01*
X147532227Y-111917039D01*
X147551134Y-111906933D01*
X147571660Y-111900706D01*
X147599138Y-111898000D01*
X148056862Y-111898000D01*
X148084340Y-111900706D01*
X148084340Y-111900706D01*
G37*
G36*
X147114340Y-111900706D02*
X147134866Y-111906933D01*
X147153773Y-111917039D01*
X147170354Y-111930646D01*
X147183961Y-111947227D01*
X147194067Y-111966134D01*
X147200294Y-111986660D01*
X147203000Y-112014138D01*
X147203000Y-112521862D01*
X147200294Y-112549340D01*
X147194067Y-112569866D01*
X147183961Y-112588773D01*
X147170354Y-112605354D01*
X147153773Y-112618961D01*
X147134866Y-112629067D01*
X147114340Y-112635294D01*
X147086862Y-112638000D01*
X146629138Y-112638000D01*
X146601660Y-112635294D01*
X146581134Y-112629067D01*
X146562227Y-112618961D01*
X146545646Y-112605354D01*
X146532039Y-112588773D01*
X146521933Y-112569866D01*
X146515706Y-112549340D01*
X146513000Y-112521862D01*
X146513000Y-112014138D01*
X146515706Y-111986660D01*
X146521933Y-111966134D01*
X146532039Y-111947227D01*
X146545646Y-111930646D01*
X146562227Y-111917039D01*
X146581134Y-111906933D01*
X146601660Y-111900706D01*
X146629138Y-111898000D01*
X147086862Y-111898000D01*
X147114340Y-111900706D01*
X147114340Y-111900706D01*
G37*
G36*
X158932432Y-109612122D02*
X159102081Y-109663585D01*
X159258433Y-109747156D01*
X159395475Y-109859625D01*
X159507944Y-109996667D01*
X159591515Y-110153019D01*
X159642978Y-110322668D01*
X159660354Y-110499100D01*
X159642978Y-110675532D01*
X159591515Y-110845181D01*
X159507944Y-111001533D01*
X159395475Y-111138575D01*
X159258433Y-111251044D01*
X159102081Y-111334615D01*
X158932432Y-111386078D01*
X158800211Y-111399100D01*
X158711789Y-111399100D01*
X158579568Y-111386078D01*
X158409919Y-111334615D01*
X158253567Y-111251044D01*
X158116525Y-111138575D01*
X158004056Y-111001533D01*
X157920485Y-110845181D01*
X157869022Y-110675532D01*
X157851646Y-110499100D01*
X157869022Y-110322668D01*
X157920485Y-110153019D01*
X158004056Y-109996667D01*
X158116525Y-109859625D01*
X158253567Y-109747156D01*
X158409919Y-109663585D01*
X158579568Y-109612122D01*
X158711789Y-109599100D01*
X158800211Y-109599100D01*
X158932432Y-109612122D01*
X158932432Y-109612122D01*
G37*
G36*
X143692432Y-109612122D02*
X143862081Y-109663585D01*
X144018433Y-109747156D01*
X144155475Y-109859625D01*
X144267944Y-109996667D01*
X144351515Y-110153019D01*
X144402978Y-110322668D01*
X144420354Y-110499100D01*
X144402978Y-110675532D01*
X144351515Y-110845181D01*
X144267944Y-111001533D01*
X144155475Y-111138575D01*
X144018433Y-111251044D01*
X143862081Y-111334615D01*
X143692432Y-111386078D01*
X143560211Y-111399100D01*
X143471789Y-111399100D01*
X143339568Y-111386078D01*
X143169919Y-111334615D01*
X143013567Y-111251044D01*
X142876525Y-111138575D01*
X142764056Y-111001533D01*
X142680485Y-110845181D01*
X142629022Y-110675532D01*
X142611646Y-110499100D01*
X142629022Y-110322668D01*
X142680485Y-110153019D01*
X142764056Y-109996667D01*
X142876525Y-109859625D01*
X143013567Y-109747156D01*
X143169919Y-109663585D01*
X143339568Y-109612122D01*
X143471789Y-109599100D01*
X143560211Y-109599100D01*
X143692432Y-109612122D01*
X143692432Y-109612122D01*
G37*
G36*
X146306340Y-109995706D02*
X146326866Y-110001933D01*
X146345773Y-110012039D01*
X146362354Y-110025646D01*
X146375961Y-110042227D01*
X146386067Y-110061134D01*
X146392294Y-110081660D01*
X146395000Y-110109138D01*
X146395000Y-110616862D01*
X146392294Y-110644340D01*
X146386067Y-110664866D01*
X146375961Y-110683773D01*
X146362354Y-110700354D01*
X146345773Y-110713961D01*
X146326866Y-110724067D01*
X146306340Y-110730294D01*
X146278862Y-110733000D01*
X145821138Y-110733000D01*
X145793660Y-110730294D01*
X145773134Y-110724067D01*
X145754227Y-110713961D01*
X145737646Y-110700354D01*
X145724039Y-110683773D01*
X145713933Y-110664866D01*
X145707706Y-110644340D01*
X145705000Y-110616862D01*
X145705000Y-110109138D01*
X145707706Y-110081660D01*
X145713933Y-110061134D01*
X145724039Y-110042227D01*
X145737646Y-110025646D01*
X145754227Y-110012039D01*
X145773134Y-110001933D01*
X145793660Y-109995706D01*
X145821138Y-109993000D01*
X146278862Y-109993000D01*
X146306340Y-109995706D01*
X146306340Y-109995706D01*
G37*
G36*
X147276340Y-109995706D02*
X147296866Y-110001933D01*
X147315773Y-110012039D01*
X147332354Y-110025646D01*
X147345961Y-110042227D01*
X147356067Y-110061134D01*
X147362294Y-110081660D01*
X147365000Y-110109138D01*
X147365000Y-110616862D01*
X147362294Y-110644340D01*
X147356067Y-110664866D01*
X147345961Y-110683773D01*
X147332354Y-110700354D01*
X147315773Y-110713961D01*
X147296866Y-110724067D01*
X147276340Y-110730294D01*
X147248862Y-110733000D01*
X146791138Y-110733000D01*
X146763660Y-110730294D01*
X146743134Y-110724067D01*
X146724227Y-110713961D01*
X146707646Y-110700354D01*
X146694039Y-110683773D01*
X146683933Y-110664866D01*
X146677706Y-110644340D01*
X146675000Y-110616862D01*
X146675000Y-110109138D01*
X146677706Y-110081660D01*
X146683933Y-110061134D01*
X146694039Y-110042227D01*
X146707646Y-110025646D01*
X146724227Y-110012039D01*
X146743134Y-110001933D01*
X146763660Y-109995706D01*
X146791138Y-109993000D01*
X147248862Y-109993000D01*
X147276340Y-109995706D01*
X147276340Y-109995706D01*
G37*
G36*
X146306340Y-108217706D02*
X146326866Y-108223933D01*
X146345773Y-108234039D01*
X146362354Y-108247646D01*
X146375961Y-108264227D01*
X146386067Y-108283134D01*
X146392294Y-108303660D01*
X146395000Y-108331138D01*
X146395000Y-108838862D01*
X146392294Y-108866340D01*
X146386067Y-108886866D01*
X146375961Y-108905773D01*
X146362354Y-108922354D01*
X146345773Y-108935961D01*
X146326866Y-108946067D01*
X146306340Y-108952294D01*
X146278862Y-108955000D01*
X145821138Y-108955000D01*
X145793660Y-108952294D01*
X145773134Y-108946067D01*
X145754227Y-108935961D01*
X145737646Y-108922354D01*
X145724039Y-108905773D01*
X145713933Y-108886866D01*
X145707706Y-108866340D01*
X145705000Y-108838862D01*
X145705000Y-108331138D01*
X145707706Y-108303660D01*
X145713933Y-108283134D01*
X145724039Y-108264227D01*
X145737646Y-108247646D01*
X145754227Y-108234039D01*
X145773134Y-108223933D01*
X145793660Y-108217706D01*
X145821138Y-108215000D01*
X146278862Y-108215000D01*
X146306340Y-108217706D01*
X146306340Y-108217706D01*
G37*
G36*
X147276340Y-108217706D02*
X147296866Y-108223933D01*
X147315773Y-108234039D01*
X147332354Y-108247646D01*
X147345961Y-108264227D01*
X147356067Y-108283134D01*
X147362294Y-108303660D01*
X147365000Y-108331138D01*
X147365000Y-108838862D01*
X147362294Y-108866340D01*
X147356067Y-108886866D01*
X147345961Y-108905773D01*
X147332354Y-108922354D01*
X147315773Y-108935961D01*
X147296866Y-108946067D01*
X147276340Y-108952294D01*
X147248862Y-108955000D01*
X146791138Y-108955000D01*
X146763660Y-108952294D01*
X146743134Y-108946067D01*
X146724227Y-108935961D01*
X146707646Y-108922354D01*
X146694039Y-108905773D01*
X146683933Y-108886866D01*
X146677706Y-108866340D01*
X146675000Y-108838862D01*
X146675000Y-108331138D01*
X146677706Y-108303660D01*
X146683933Y-108283134D01*
X146694039Y-108264227D01*
X146707646Y-108247646D01*
X146724227Y-108234039D01*
X146743134Y-108223933D01*
X146763660Y-108217706D01*
X146791138Y-108215000D01*
X147248862Y-108215000D01*
X147276340Y-108217706D01*
X147276340Y-108217706D01*
G37*
G36*
X143692432Y-107072122D02*
X143862081Y-107123585D01*
X144018433Y-107207156D01*
X144155475Y-107319625D01*
X144267944Y-107456667D01*
X144351515Y-107613019D01*
X144402978Y-107782668D01*
X144420354Y-107959100D01*
X144402978Y-108135532D01*
X144351515Y-108305181D01*
X144267944Y-108461533D01*
X144155475Y-108598575D01*
X144018433Y-108711044D01*
X143862081Y-108794615D01*
X143692432Y-108846078D01*
X143560211Y-108859100D01*
X143471789Y-108859100D01*
X143339568Y-108846078D01*
X143169919Y-108794615D01*
X143013567Y-108711044D01*
X142876525Y-108598575D01*
X142764056Y-108461533D01*
X142680485Y-108305181D01*
X142629022Y-108135532D01*
X142611646Y-107959100D01*
X142629022Y-107782668D01*
X142680485Y-107613019D01*
X142764056Y-107456667D01*
X142876525Y-107319625D01*
X143013567Y-107207156D01*
X143169919Y-107123585D01*
X143339568Y-107072122D01*
X143471789Y-107059100D01*
X143560211Y-107059100D01*
X143692432Y-107072122D01*
X143692432Y-107072122D01*
G37*
G36*
X158932432Y-107072122D02*
X159102081Y-107123585D01*
X159258433Y-107207156D01*
X159395475Y-107319625D01*
X159507944Y-107456667D01*
X159591515Y-107613019D01*
X159642978Y-107782668D01*
X159660354Y-107959100D01*
X159642978Y-108135532D01*
X159591515Y-108305181D01*
X159507944Y-108461533D01*
X159395475Y-108598575D01*
X159258433Y-108711044D01*
X159102081Y-108794615D01*
X158932432Y-108846078D01*
X158800211Y-108859100D01*
X158711789Y-108859100D01*
X158579568Y-108846078D01*
X158409919Y-108794615D01*
X158253567Y-108711044D01*
X158116525Y-108598575D01*
X158004056Y-108461533D01*
X157920485Y-108305181D01*
X157869022Y-108135532D01*
X157851646Y-107959100D01*
X157869022Y-107782668D01*
X157920485Y-107613019D01*
X158004056Y-107456667D01*
X158116525Y-107319625D01*
X158253567Y-107207156D01*
X158409919Y-107123585D01*
X158579568Y-107072122D01*
X158711789Y-107059100D01*
X158800211Y-107059100D01*
X158932432Y-107072122D01*
X158932432Y-107072122D01*
G37*
G36*
X156677340Y-107155806D02*
X156697866Y-107162033D01*
X156716773Y-107172139D01*
X156733354Y-107185746D01*
X156746961Y-107202327D01*
X156757067Y-107221234D01*
X156763294Y-107241760D01*
X156766000Y-107269238D01*
X156766000Y-107776962D01*
X156763294Y-107804440D01*
X156757067Y-107824966D01*
X156746961Y-107843873D01*
X156733354Y-107860454D01*
X156716773Y-107874061D01*
X156697866Y-107884167D01*
X156677340Y-107890394D01*
X156649862Y-107893100D01*
X156192138Y-107893100D01*
X156164660Y-107890394D01*
X156144134Y-107884167D01*
X156125227Y-107874061D01*
X156108646Y-107860454D01*
X156095039Y-107843873D01*
X156084933Y-107824966D01*
X156078706Y-107804440D01*
X156076000Y-107776962D01*
X156076000Y-107269238D01*
X156078706Y-107241760D01*
X156084933Y-107221234D01*
X156095039Y-107202327D01*
X156108646Y-107185746D01*
X156125227Y-107172139D01*
X156144134Y-107162033D01*
X156164660Y-107155806D01*
X156192138Y-107153100D01*
X156649862Y-107153100D01*
X156677340Y-107155806D01*
X156677340Y-107155806D01*
G37*
G36*
X155707340Y-107155806D02*
X155727866Y-107162033D01*
X155746773Y-107172139D01*
X155763354Y-107185746D01*
X155776961Y-107202327D01*
X155787067Y-107221234D01*
X155793294Y-107241760D01*
X155796000Y-107269238D01*
X155796000Y-107776962D01*
X155793294Y-107804440D01*
X155787067Y-107824966D01*
X155776961Y-107843873D01*
X155763354Y-107860454D01*
X155746773Y-107874061D01*
X155727866Y-107884167D01*
X155707340Y-107890394D01*
X155679862Y-107893100D01*
X155222138Y-107893100D01*
X155194660Y-107890394D01*
X155174134Y-107884167D01*
X155155227Y-107874061D01*
X155138646Y-107860454D01*
X155125039Y-107843873D01*
X155114933Y-107824966D01*
X155108706Y-107804440D01*
X155106000Y-107776962D01*
X155106000Y-107269238D01*
X155108706Y-107241760D01*
X155114933Y-107221234D01*
X155125039Y-107202327D01*
X155138646Y-107185746D01*
X155155227Y-107172139D01*
X155174134Y-107162033D01*
X155194660Y-107155806D01*
X155222138Y-107153100D01*
X155679862Y-107153100D01*
X155707340Y-107155806D01*
X155707340Y-107155806D01*
G37*
G36*
X155707340Y-105955806D02*
X155727866Y-105962033D01*
X155746773Y-105972139D01*
X155763354Y-105985746D01*
X155776961Y-106002327D01*
X155787067Y-106021234D01*
X155793294Y-106041760D01*
X155796000Y-106069238D01*
X155796000Y-106576962D01*
X155793294Y-106604440D01*
X155787067Y-106624966D01*
X155776961Y-106643873D01*
X155763354Y-106660454D01*
X155746773Y-106674061D01*
X155727866Y-106684167D01*
X155707340Y-106690394D01*
X155679862Y-106693100D01*
X155222138Y-106693100D01*
X155194660Y-106690394D01*
X155174134Y-106684167D01*
X155155227Y-106674061D01*
X155138646Y-106660454D01*
X155125039Y-106643873D01*
X155114933Y-106624966D01*
X155108706Y-106604440D01*
X155106000Y-106576962D01*
X155106000Y-106069238D01*
X155108706Y-106041760D01*
X155114933Y-106021234D01*
X155125039Y-106002327D01*
X155138646Y-105985746D01*
X155155227Y-105972139D01*
X155174134Y-105962033D01*
X155194660Y-105955806D01*
X155222138Y-105953100D01*
X155679862Y-105953100D01*
X155707340Y-105955806D01*
X155707340Y-105955806D01*
G37*
G36*
X156677340Y-105955806D02*
X156697866Y-105962033D01*
X156716773Y-105972139D01*
X156733354Y-105985746D01*
X156746961Y-106002327D01*
X156757067Y-106021234D01*
X156763294Y-106041760D01*
X156766000Y-106069238D01*
X156766000Y-106576962D01*
X156763294Y-106604440D01*
X156757067Y-106624966D01*
X156746961Y-106643873D01*
X156733354Y-106660454D01*
X156716773Y-106674061D01*
X156697866Y-106684167D01*
X156677340Y-106690394D01*
X156649862Y-106693100D01*
X156192138Y-106693100D01*
X156164660Y-106690394D01*
X156144134Y-106684167D01*
X156125227Y-106674061D01*
X156108646Y-106660454D01*
X156095039Y-106643873D01*
X156084933Y-106624966D01*
X156078706Y-106604440D01*
X156076000Y-106576962D01*
X156076000Y-106069238D01*
X156078706Y-106041760D01*
X156084933Y-106021234D01*
X156095039Y-106002327D01*
X156108646Y-105985746D01*
X156125227Y-105972139D01*
X156144134Y-105962033D01*
X156164660Y-105955806D01*
X156192138Y-105953100D01*
X156649862Y-105953100D01*
X156677340Y-105955806D01*
X156677340Y-105955806D01*
G37*
G36*
X143692432Y-104532122D02*
X143862081Y-104583585D01*
X144018433Y-104667156D01*
X144155475Y-104779625D01*
X144267944Y-104916667D01*
X144351515Y-105073019D01*
X144402978Y-105242668D01*
X144420354Y-105419100D01*
X144402978Y-105595532D01*
X144351515Y-105765181D01*
X144267944Y-105921533D01*
X144155475Y-106058575D01*
X144018433Y-106171044D01*
X143862081Y-106254615D01*
X143692432Y-106306078D01*
X143560211Y-106319100D01*
X143471789Y-106319100D01*
X143339568Y-106306078D01*
X143169919Y-106254615D01*
X143013567Y-106171044D01*
X142876525Y-106058575D01*
X142764056Y-105921533D01*
X142680485Y-105765181D01*
X142629022Y-105595532D01*
X142611646Y-105419100D01*
X142629022Y-105242668D01*
X142680485Y-105073019D01*
X142764056Y-104916667D01*
X142876525Y-104779625D01*
X143013567Y-104667156D01*
X143169919Y-104583585D01*
X143339568Y-104532122D01*
X143471789Y-104519100D01*
X143560211Y-104519100D01*
X143692432Y-104532122D01*
X143692432Y-104532122D01*
G37*
G36*
X158932432Y-104532122D02*
X159102081Y-104583585D01*
X159258433Y-104667156D01*
X159395475Y-104779625D01*
X159507944Y-104916667D01*
X159591515Y-105073019D01*
X159642978Y-105242668D01*
X159660354Y-105419100D01*
X159642978Y-105595532D01*
X159591515Y-105765181D01*
X159507944Y-105921533D01*
X159395475Y-106058575D01*
X159258433Y-106171044D01*
X159102081Y-106254615D01*
X158932432Y-106306078D01*
X158800211Y-106319100D01*
X158711789Y-106319100D01*
X158579568Y-106306078D01*
X158409919Y-106254615D01*
X158253567Y-106171044D01*
X158116525Y-106058575D01*
X158004056Y-105921533D01*
X157920485Y-105765181D01*
X157869022Y-105595532D01*
X157851646Y-105419100D01*
X157869022Y-105242668D01*
X157920485Y-105073019D01*
X158004056Y-104916667D01*
X158116525Y-104779625D01*
X158253567Y-104667156D01*
X158409919Y-104583585D01*
X158579568Y-104532122D01*
X158711789Y-104519100D01*
X158800211Y-104519100D01*
X158932432Y-104532122D01*
X158932432Y-104532122D01*
G37*
G36*
X155707340Y-103555806D02*
X155727866Y-103562033D01*
X155746773Y-103572139D01*
X155763354Y-103585746D01*
X155776961Y-103602327D01*
X155787067Y-103621234D01*
X155793294Y-103641760D01*
X155796000Y-103669238D01*
X155796000Y-104176962D01*
X155793294Y-104204440D01*
X155787067Y-104224966D01*
X155776961Y-104243873D01*
X155763354Y-104260454D01*
X155746773Y-104274061D01*
X155727866Y-104284167D01*
X155707340Y-104290394D01*
X155679862Y-104293100D01*
X155222138Y-104293100D01*
X155194660Y-104290394D01*
X155174134Y-104284167D01*
X155155227Y-104274061D01*
X155138646Y-104260454D01*
X155125039Y-104243873D01*
X155114933Y-104224966D01*
X155108706Y-104204440D01*
X155106000Y-104176962D01*
X155106000Y-103669238D01*
X155108706Y-103641760D01*
X155114933Y-103621234D01*
X155125039Y-103602327D01*
X155138646Y-103585746D01*
X155155227Y-103572139D01*
X155174134Y-103562033D01*
X155194660Y-103555806D01*
X155222138Y-103553100D01*
X155679862Y-103553100D01*
X155707340Y-103555806D01*
X155707340Y-103555806D01*
G37*
G36*
X156677340Y-103555806D02*
X156697866Y-103562033D01*
X156716773Y-103572139D01*
X156733354Y-103585746D01*
X156746961Y-103602327D01*
X156757067Y-103621234D01*
X156763294Y-103641760D01*
X156766000Y-103669238D01*
X156766000Y-104176962D01*
X156763294Y-104204440D01*
X156757067Y-104224966D01*
X156746961Y-104243873D01*
X156733354Y-104260454D01*
X156716773Y-104274061D01*
X156697866Y-104284167D01*
X156677340Y-104290394D01*
X156649862Y-104293100D01*
X156192138Y-104293100D01*
X156164660Y-104290394D01*
X156144134Y-104284167D01*
X156125227Y-104274061D01*
X156108646Y-104260454D01*
X156095039Y-104243873D01*
X156084933Y-104224966D01*
X156078706Y-104204440D01*
X156076000Y-104176962D01*
X156076000Y-103669238D01*
X156078706Y-103641760D01*
X156084933Y-103621234D01*
X156095039Y-103602327D01*
X156108646Y-103585746D01*
X156125227Y-103572139D01*
X156144134Y-103562033D01*
X156164660Y-103555806D01*
X156192138Y-103553100D01*
X156649862Y-103553100D01*
X156677340Y-103555806D01*
X156677340Y-103555806D01*
G37*
G36*
X158932432Y-101992122D02*
X159102081Y-102043585D01*
X159258433Y-102127156D01*
X159395475Y-102239625D01*
X159507944Y-102376667D01*
X159591515Y-102533019D01*
X159642978Y-102702668D01*
X159660354Y-102879100D01*
X159642978Y-103055532D01*
X159591515Y-103225181D01*
X159507944Y-103381533D01*
X159395475Y-103518575D01*
X159258433Y-103631044D01*
X159102081Y-103714615D01*
X158932432Y-103766078D01*
X158800211Y-103779100D01*
X158711789Y-103779100D01*
X158579568Y-103766078D01*
X158409919Y-103714615D01*
X158253567Y-103631044D01*
X158116525Y-103518575D01*
X158004056Y-103381533D01*
X157920485Y-103225181D01*
X157869022Y-103055532D01*
X157851646Y-102879100D01*
X157869022Y-102702668D01*
X157920485Y-102533019D01*
X158004056Y-102376667D01*
X158116525Y-102239625D01*
X158253567Y-102127156D01*
X158409919Y-102043585D01*
X158579568Y-101992122D01*
X158711789Y-101979100D01*
X158800211Y-101979100D01*
X158932432Y-101992122D01*
X158932432Y-101992122D01*
G37*
G36*
X143692432Y-101992122D02*
X143862081Y-102043585D01*
X144018433Y-102127156D01*
X144155475Y-102239625D01*
X144267944Y-102376667D01*
X144351515Y-102533019D01*
X144402978Y-102702668D01*
X144420354Y-102879100D01*
X144402978Y-103055532D01*
X144351515Y-103225181D01*
X144267944Y-103381533D01*
X144155475Y-103518575D01*
X144018433Y-103631044D01*
X143862081Y-103714615D01*
X143692432Y-103766078D01*
X143560211Y-103779100D01*
X143471789Y-103779100D01*
X143339568Y-103766078D01*
X143169919Y-103714615D01*
X143013567Y-103631044D01*
X142876525Y-103518575D01*
X142764056Y-103381533D01*
X142680485Y-103225181D01*
X142629022Y-103055532D01*
X142611646Y-102879100D01*
X142629022Y-102702668D01*
X142680485Y-102533019D01*
X142764056Y-102376667D01*
X142876525Y-102239625D01*
X143013567Y-102127156D01*
X143169919Y-102043585D01*
X143339568Y-101992122D01*
X143471789Y-101979100D01*
X143560211Y-101979100D01*
X143692432Y-101992122D01*
X143692432Y-101992122D01*
G37*
G36*
X151353000Y-103512000D02*
X150653000Y-103512000D01*
X150653000Y-103012000D01*
X151353000Y-103012000D01*
X151353000Y-103512000D01*
X151353000Y-103512000D01*
G37*
G36*
X152432500Y-103512000D02*
X151732500Y-103512000D01*
X151732500Y-103012000D01*
X152432500Y-103012000D01*
X152432500Y-103512000D01*
X152432500Y-103512000D01*
G37*
G36*
X150210000Y-103506500D02*
X149510000Y-103506500D01*
X149510000Y-103006500D01*
X150210000Y-103006500D01*
X150210000Y-103506500D01*
X150210000Y-103506500D01*
G37*
G36*
X156872340Y-102527706D02*
X156892866Y-102533933D01*
X156911773Y-102544039D01*
X156928354Y-102557646D01*
X156941961Y-102574227D01*
X156952067Y-102593134D01*
X156958294Y-102613660D01*
X156961000Y-102641138D01*
X156961000Y-103098862D01*
X156958294Y-103126340D01*
X156952067Y-103146866D01*
X156941961Y-103165773D01*
X156928354Y-103182354D01*
X156911773Y-103195961D01*
X156892866Y-103206067D01*
X156872340Y-103212294D01*
X156844862Y-103215000D01*
X156337138Y-103215000D01*
X156309660Y-103212294D01*
X156289134Y-103206067D01*
X156270227Y-103195961D01*
X156253646Y-103182354D01*
X156240039Y-103165773D01*
X156229933Y-103146866D01*
X156223706Y-103126340D01*
X156221000Y-103098862D01*
X156221000Y-102641138D01*
X156223706Y-102613660D01*
X156229933Y-102593134D01*
X156240039Y-102574227D01*
X156253646Y-102557646D01*
X156270227Y-102544039D01*
X156289134Y-102533933D01*
X156309660Y-102527706D01*
X156337138Y-102525000D01*
X156844862Y-102525000D01*
X156872340Y-102527706D01*
X156872340Y-102527706D01*
G37*
G36*
X152432500Y-102612000D02*
X151732500Y-102612000D01*
X151732500Y-102112000D01*
X152432500Y-102112000D01*
X152432500Y-102612000D01*
X152432500Y-102612000D01*
G37*
G36*
X151353000Y-102612000D02*
X150653000Y-102612000D01*
X150653000Y-102112000D01*
X151353000Y-102112000D01*
X151353000Y-102612000D01*
X151353000Y-102612000D01*
G37*
G36*
X150210000Y-102606500D02*
X149510000Y-102606500D01*
X149510000Y-102106500D01*
X150210000Y-102106500D01*
X150210000Y-102606500D01*
X150210000Y-102606500D01*
G37*
G36*
X156872340Y-101557706D02*
X156892866Y-101563933D01*
X156911773Y-101574039D01*
X156928354Y-101587646D01*
X156941961Y-101604227D01*
X156952067Y-101623134D01*
X156958294Y-101643660D01*
X156961000Y-101671138D01*
X156961000Y-102128862D01*
X156958294Y-102156340D01*
X156952067Y-102176866D01*
X156941961Y-102195773D01*
X156928354Y-102212354D01*
X156911773Y-102225961D01*
X156892866Y-102236067D01*
X156872340Y-102242294D01*
X156844862Y-102245000D01*
X156337138Y-102245000D01*
X156309660Y-102242294D01*
X156289134Y-102236067D01*
X156270227Y-102225961D01*
X156253646Y-102212354D01*
X156240039Y-102195773D01*
X156229933Y-102176866D01*
X156223706Y-102156340D01*
X156221000Y-102128862D01*
X156221000Y-101671138D01*
X156223706Y-101643660D01*
X156229933Y-101623134D01*
X156240039Y-101604227D01*
X156253646Y-101587646D01*
X156270227Y-101574039D01*
X156289134Y-101563933D01*
X156309660Y-101557706D01*
X156337138Y-101555000D01*
X156844862Y-101555000D01*
X156872340Y-101557706D01*
X156872340Y-101557706D01*
G37*
G36*
X158932432Y-99452122D02*
X159102081Y-99503585D01*
X159258433Y-99587156D01*
X159395475Y-99699625D01*
X159507944Y-99836667D01*
X159591515Y-99993019D01*
X159642978Y-100162668D01*
X159660354Y-100339100D01*
X159642978Y-100515532D01*
X159591515Y-100685181D01*
X159507944Y-100841533D01*
X159395475Y-100978575D01*
X159258433Y-101091044D01*
X159102081Y-101174615D01*
X158932432Y-101226078D01*
X158800211Y-101239100D01*
X158711789Y-101239100D01*
X158579568Y-101226078D01*
X158409919Y-101174615D01*
X158253567Y-101091044D01*
X158116525Y-100978575D01*
X158004056Y-100841533D01*
X157920485Y-100685181D01*
X157869022Y-100515532D01*
X157851646Y-100339100D01*
X157869022Y-100162668D01*
X157920485Y-99993019D01*
X158004056Y-99836667D01*
X158116525Y-99699625D01*
X158253567Y-99587156D01*
X158409919Y-99503585D01*
X158579568Y-99452122D01*
X158711789Y-99439100D01*
X158800211Y-99439100D01*
X158932432Y-99452122D01*
X158932432Y-99452122D01*
G37*
G36*
X143692432Y-99452122D02*
X143862081Y-99503585D01*
X144018433Y-99587156D01*
X144155475Y-99699625D01*
X144267944Y-99836667D01*
X144351515Y-99993019D01*
X144402978Y-100162668D01*
X144420354Y-100339100D01*
X144402978Y-100515532D01*
X144351515Y-100685181D01*
X144267944Y-100841533D01*
X144155475Y-100978575D01*
X144018433Y-101091044D01*
X143862081Y-101174615D01*
X143692432Y-101226078D01*
X143560211Y-101239100D01*
X143471789Y-101239100D01*
X143339568Y-101226078D01*
X143169919Y-101174615D01*
X143013567Y-101091044D01*
X142876525Y-100978575D01*
X142764056Y-100841533D01*
X142680485Y-100685181D01*
X142629022Y-100515532D01*
X142611646Y-100339100D01*
X142629022Y-100162668D01*
X142680485Y-99993019D01*
X142764056Y-99836667D01*
X142876525Y-99699625D01*
X143013567Y-99587156D01*
X143169919Y-99503585D01*
X143339568Y-99452122D01*
X143471789Y-99439100D01*
X143560211Y-99439100D01*
X143692432Y-99452122D01*
X143692432Y-99452122D01*
G37*
G36*
X147558716Y-97179319D02*
X147558719Y-97179320D01*
X147558720Y-97179320D01*
X147667108Y-97212199D01*
X147667110Y-97212200D01*
X147767000Y-97265593D01*
X147854554Y-97337446D01*
X147926407Y-97425000D01*
X147926408Y-97425002D01*
X147979801Y-97524892D01*
X148012680Y-97633280D01*
X148012681Y-97633284D01*
X148021000Y-97717750D01*
X148021000Y-98624250D01*
X148012681Y-98708716D01*
X147979800Y-98817110D01*
X147926409Y-98916997D01*
X147918030Y-98927207D01*
X147854554Y-99004554D01*
X147817891Y-99034642D01*
X147766999Y-99076407D01*
X147766997Y-99076408D01*
X147667107Y-99129801D01*
X147558719Y-99162680D01*
X147558718Y-99162680D01*
X147558715Y-99162681D01*
X147446000Y-99173782D01*
X147333284Y-99162681D01*
X147333281Y-99162680D01*
X147333280Y-99162680D01*
X147224892Y-99129801D01*
X147224890Y-99129800D01*
X147125003Y-99076409D01*
X147114793Y-99068030D01*
X147037446Y-99004554D01*
X146965594Y-98917000D01*
X146965593Y-98916999D01*
X146912200Y-98817109D01*
X146879321Y-98708720D01*
X146879320Y-98708719D01*
X146879320Y-98708718D01*
X146879319Y-98708715D01*
X146871000Y-98624249D01*
X146871000Y-97717751D01*
X146879320Y-97633284D01*
X146879321Y-97633280D01*
X146912200Y-97524892D01*
X146965593Y-97425002D01*
X146965594Y-97425000D01*
X147037447Y-97337446D01*
X147125001Y-97265593D01*
X147224891Y-97212200D01*
X147224893Y-97212199D01*
X147333281Y-97179320D01*
X147333282Y-97179320D01*
X147333285Y-97179319D01*
X147446000Y-97168218D01*
X147558716Y-97179319D01*
X147558716Y-97179319D01*
G37*
G36*
X154708715Y-97179319D02*
X154708718Y-97179320D01*
X154708719Y-97179320D01*
X154817107Y-97212199D01*
X154817109Y-97212200D01*
X154916999Y-97265593D01*
X154967891Y-97307358D01*
X155004554Y-97337446D01*
X155033560Y-97372791D01*
X155076407Y-97425000D01*
X155076408Y-97425002D01*
X155129801Y-97524892D01*
X155162680Y-97633280D01*
X155162681Y-97633284D01*
X155171000Y-97717750D01*
X155171000Y-98624250D01*
X155162681Y-98708716D01*
X155129800Y-98817110D01*
X155076407Y-98917000D01*
X155004554Y-99004554D01*
X154917000Y-99076407D01*
X154916998Y-99076408D01*
X154817108Y-99129801D01*
X154708720Y-99162680D01*
X154708719Y-99162680D01*
X154708716Y-99162681D01*
X154596000Y-99173782D01*
X154483285Y-99162681D01*
X154483282Y-99162680D01*
X154483281Y-99162680D01*
X154374893Y-99129801D01*
X154275003Y-99076408D01*
X154275001Y-99076407D01*
X154187447Y-99004554D01*
X154115594Y-98917000D01*
X154062201Y-98817110D01*
X154029320Y-98708716D01*
X154021000Y-98624249D01*
X154021000Y-97717751D01*
X154029319Y-97633285D01*
X154029320Y-97633281D01*
X154062199Y-97524893D01*
X154115592Y-97425003D01*
X154115593Y-97425001D01*
X154187444Y-97337449D01*
X154187446Y-97337446D01*
X154275002Y-97265592D01*
X154275001Y-97265592D01*
X154275003Y-97265591D01*
X154374890Y-97212200D01*
X154374892Y-97212199D01*
X154483280Y-97179320D01*
X154483281Y-97179320D01*
X154483284Y-97179319D01*
X154596000Y-97168218D01*
X154708715Y-97179319D01*
X154708715Y-97179319D01*
G37*
G36*
X159018521Y-96933686D02*
X159182309Y-97001529D01*
X159329720Y-97100026D01*
X159455074Y-97225380D01*
X159553571Y-97372791D01*
X159621414Y-97536579D01*
X159656000Y-97710456D01*
X159656000Y-97887744D01*
X159621414Y-98061621D01*
X159553571Y-98225409D01*
X159455074Y-98372820D01*
X159329720Y-98498174D01*
X159182309Y-98596671D01*
X159018521Y-98664514D01*
X158844644Y-98699100D01*
X158667356Y-98699100D01*
X158493479Y-98664514D01*
X158329691Y-98596671D01*
X158182280Y-98498174D01*
X158056926Y-98372820D01*
X157958429Y-98225409D01*
X157890586Y-98061621D01*
X157856000Y-97887744D01*
X157856000Y-97710456D01*
X157890586Y-97536579D01*
X157958429Y-97372791D01*
X158056926Y-97225380D01*
X158182280Y-97100026D01*
X158329691Y-97001529D01*
X158493479Y-96933686D01*
X158667356Y-96899100D01*
X158844644Y-96899100D01*
X159018521Y-96933686D01*
X159018521Y-96933686D01*
G37*
G36*
X144416000Y-98699100D02*
X142616000Y-98699100D01*
X142616000Y-96899100D01*
X144416000Y-96899100D01*
X144416000Y-98699100D01*
X144416000Y-98699100D01*
G37*
M02*
