G04 #@! TF.GenerationSoftware,KiCad,Pcbnew,5.0.1-33cea8e~66~ubuntu18.04.1*
G04 #@! TF.CreationDate,2018-10-16T23:10:54+02:00*
G04 #@! TF.ProjectId,TinyFPGA-BX,54696E79465047412D42582E6B696361,rev?*
G04 #@! TF.SameCoordinates,Original*
G04 #@! TF.FileFunction,Other,Fab,Top*
%FSLAX46Y46*%
G04 Gerber Fmt 4.6, Leading zero omitted, Abs format (unit mm)*
G04 Created by KiCad (PCBNEW 5.0.1-33cea8e~66~ubuntu18.04.1) date di 16 okt 2018 23:10:54 CEST*
%MOMM*%
%LPD*%
G01*
G04 APERTURE LIST*
%ADD10C,0.100000*%
%ADD11C,0.150000*%
%ADD12C,0.075000*%
%ADD13C,0.050000*%
%ADD14C,0.040000*%
%ADD15C,0.105000*%
G04 APERTURE END LIST*
D10*
G04 #@! TO.C,L1*
X154724000Y-102216000D02*
X154724000Y-103016000D01*
X153124000Y-102216000D02*
X154724000Y-102216000D01*
X153124000Y-103016000D02*
X153124000Y-102216000D01*
X154724000Y-103016000D02*
X153124000Y-103016000D01*
G04 #@! TO.C,R9*
X151769000Y-107392000D02*
X152269000Y-107392000D01*
X151769000Y-108392000D02*
X151769000Y-107392000D01*
X152269000Y-108392000D02*
X151769000Y-108392000D01*
X152269000Y-107392000D02*
X152269000Y-108392000D01*
G04 #@! TO.C,R8*
X149737000Y-107450000D02*
X150237000Y-107450000D01*
X149737000Y-108450000D02*
X149737000Y-107450000D01*
X150237000Y-108450000D02*
X149737000Y-108450000D01*
X150237000Y-107450000D02*
X150237000Y-108450000D01*
G04 #@! TO.C,U1*
X147630000Y-117419000D02*
X147630000Y-110419000D01*
X147630000Y-110419000D02*
X153630000Y-110419000D01*
X153630000Y-110419000D02*
X154630000Y-111419000D01*
X154630000Y-111419000D02*
X154630000Y-117419000D01*
X154630000Y-117419000D02*
X147630000Y-117419000D01*
G04 #@! TO.C,C3*
X150995000Y-108970000D02*
X150995000Y-109470000D01*
X150995000Y-109470000D02*
X149995000Y-109470000D01*
X149995000Y-109470000D02*
X149995000Y-108970000D01*
X149995000Y-108970000D02*
X150995000Y-108970000D01*
G04 #@! TO.C,D1*
X148721000Y-107627000D02*
X149221000Y-107627000D01*
X148721000Y-107527000D02*
X149221000Y-107527000D01*
X148721000Y-108427000D02*
X148721000Y-107427000D01*
X149221000Y-108427000D02*
X148721000Y-108427000D01*
X149221000Y-107427000D02*
X149221000Y-108427000D01*
X148721000Y-107427000D02*
X149221000Y-107427000D01*
G04 #@! TO.C,D2*
X152785000Y-107450000D02*
X153285000Y-107450000D01*
X153285000Y-107450000D02*
X153285000Y-108450000D01*
X153285000Y-108450000D02*
X152785000Y-108450000D01*
X152785000Y-108450000D02*
X152785000Y-107450000D01*
X152785000Y-107550000D02*
X153285000Y-107550000D01*
X152785000Y-107650000D02*
X153285000Y-107650000D01*
G04 #@! TO.C,J3*
X147321000Y-95421000D02*
X147321000Y-100971000D01*
X154021000Y-96721000D02*
X148021000Y-96721000D01*
X154721000Y-95421000D02*
X147321000Y-95421000D01*
X154721000Y-100971000D02*
X147321000Y-100971000D01*
X154721000Y-95421000D02*
X154721000Y-100971000D01*
X152321000Y-101121000D02*
X152521000Y-101321000D01*
X152121000Y-101321000D02*
X152321000Y-101121000D01*
X152521000Y-101531000D02*
X152121000Y-101531000D01*
X152521000Y-101531000D02*
X152521000Y-101321000D01*
X152121000Y-101531000D02*
X152121000Y-101321000D01*
G04 #@! TO.C,U2*
X154210000Y-106452000D02*
X154210000Y-103352000D01*
X154210000Y-103352000D02*
X156010000Y-103352000D01*
X156010000Y-105802000D02*
X156010000Y-103352000D01*
X154210000Y-106452000D02*
X155360000Y-106452000D01*
X156010000Y-105802000D02*
X155360000Y-106452000D01*
G04 #@! TO.C,U4*
X146758000Y-104063000D02*
X147408000Y-103413000D01*
X148558000Y-103413000D02*
X147408000Y-103413000D01*
X146758000Y-104063000D02*
X146758000Y-106513000D01*
X148558000Y-106513000D02*
X146758000Y-106513000D01*
X148558000Y-103413000D02*
X148558000Y-106513000D01*
G04 #@! TO.C,SW1*
X149630000Y-128473100D02*
X152630000Y-128473100D01*
X152630000Y-128473100D02*
X152630000Y-130973100D01*
X152630000Y-130973100D02*
X149630000Y-130973100D01*
X149630000Y-130973100D02*
X149630000Y-128473100D01*
X151880000Y-129723100D02*
G75*
G03X151880000Y-129723100I-750000J0D01*
G01*
G04 #@! TO.C,U3*
X148730000Y-119474000D02*
X153530000Y-119474000D01*
X153530000Y-119474000D02*
X153630000Y-119574000D01*
X153630000Y-119574000D02*
X153630000Y-122574000D01*
X153630000Y-122574000D02*
X153530000Y-122674000D01*
X153530000Y-122674000D02*
X148730000Y-122674000D01*
X148730000Y-122674000D02*
X148630000Y-122574000D01*
X148630000Y-122574000D02*
X148630000Y-119574000D01*
X148630000Y-119574000D02*
X148730000Y-119474000D01*
X148630000Y-121674000D02*
X149630000Y-122674000D01*
D11*
G04 #@! TO.C,U5*
X151630000Y-125460000D02*
X149630000Y-125460000D01*
X149630000Y-125460000D02*
X149630000Y-123460000D01*
X149630000Y-123460000D02*
X152630000Y-123460000D01*
X152630000Y-123460000D02*
X152630000Y-124460000D01*
X152630000Y-124460000D02*
X151630000Y-125460000D01*
G04 #@! TD*
G04 #@! TO.C,L1*
D12*
X153874000Y-102751714D02*
X153731142Y-102751714D01*
X153731142Y-102451714D01*
X154131142Y-102751714D02*
X153959714Y-102751714D01*
X154045428Y-102751714D02*
X154045428Y-102451714D01*
X154016857Y-102494571D01*
X153988285Y-102523142D01*
X153959714Y-102537428D01*
D13*
X153671619Y-101951714D02*
X153700190Y-101961238D01*
X153709714Y-101970761D01*
X153719238Y-101989809D01*
X153719238Y-102018380D01*
X153709714Y-102037428D01*
X153700190Y-102046952D01*
X153681142Y-102056476D01*
X153604952Y-102056476D01*
X153604952Y-101856476D01*
X153671619Y-101856476D01*
X153690666Y-101866000D01*
X153700190Y-101875523D01*
X153709714Y-101894571D01*
X153709714Y-101913619D01*
X153700190Y-101932666D01*
X153690666Y-101942190D01*
X153671619Y-101951714D01*
X153604952Y-101951714D01*
X153881142Y-102046952D02*
X153862095Y-102056476D01*
X153824000Y-102056476D01*
X153804952Y-102046952D01*
X153795428Y-102027904D01*
X153795428Y-101951714D01*
X153804952Y-101932666D01*
X153824000Y-101923142D01*
X153862095Y-101923142D01*
X153881142Y-101932666D01*
X153890666Y-101951714D01*
X153890666Y-101970761D01*
X153795428Y-101989809D01*
X154062095Y-102056476D02*
X154062095Y-101951714D01*
X154052571Y-101932666D01*
X154033523Y-101923142D01*
X153995428Y-101923142D01*
X153976380Y-101932666D01*
X154062095Y-102046952D02*
X154043047Y-102056476D01*
X153995428Y-102056476D01*
X153976380Y-102046952D01*
X153966857Y-102027904D01*
X153966857Y-102008857D01*
X153976380Y-101989809D01*
X153995428Y-101980285D01*
X154043047Y-101980285D01*
X154062095Y-101970761D01*
X154243047Y-102056476D02*
X154243047Y-101856476D01*
X154243047Y-102046952D02*
X154224000Y-102056476D01*
X154185904Y-102056476D01*
X154166857Y-102046952D01*
X154157333Y-102037428D01*
X154147809Y-102018380D01*
X154147809Y-101961238D01*
X154157333Y-101942190D01*
X154166857Y-101932666D01*
X154185904Y-101923142D01*
X154224000Y-101923142D01*
X154243047Y-101932666D01*
G04 #@! TO.C,R9*
X151228523Y-108139619D02*
X151219000Y-108130095D01*
X151209476Y-108111047D01*
X151209476Y-108063428D01*
X151219000Y-108044380D01*
X151228523Y-108034857D01*
X151247571Y-108025333D01*
X151266619Y-108025333D01*
X151295190Y-108034857D01*
X151409476Y-108149142D01*
X151409476Y-108025333D01*
X151209476Y-107958666D02*
X151209476Y-107825333D01*
X151409476Y-107911047D01*
X151209476Y-107711047D02*
X151209476Y-107692000D01*
X151219000Y-107672952D01*
X151228523Y-107663428D01*
X151247571Y-107653904D01*
X151285666Y-107644380D01*
X151333285Y-107644380D01*
X151371380Y-107653904D01*
X151390428Y-107663428D01*
X151399952Y-107672952D01*
X151409476Y-107692000D01*
X151409476Y-107711047D01*
X151399952Y-107730095D01*
X151390428Y-107739619D01*
X151371380Y-107749142D01*
X151333285Y-107758666D01*
X151285666Y-107758666D01*
X151247571Y-107749142D01*
X151228523Y-107739619D01*
X151219000Y-107730095D01*
X151209476Y-107711047D01*
X152109476Y-107925333D02*
X152014238Y-107992000D01*
X152109476Y-108039619D02*
X151909476Y-108039619D01*
X151909476Y-107963428D01*
X151919000Y-107944380D01*
X151928523Y-107934857D01*
X151947571Y-107925333D01*
X151976142Y-107925333D01*
X151995190Y-107934857D01*
X152004714Y-107944380D01*
X152014238Y-107963428D01*
X152014238Y-108039619D01*
X152109476Y-107830095D02*
X152109476Y-107792000D01*
X152099952Y-107772952D01*
X152090428Y-107763428D01*
X152061857Y-107744380D01*
X152023761Y-107734857D01*
X151947571Y-107734857D01*
X151928523Y-107744380D01*
X151919000Y-107753904D01*
X151909476Y-107772952D01*
X151909476Y-107811047D01*
X151919000Y-107830095D01*
X151928523Y-107839619D01*
X151947571Y-107849142D01*
X151995190Y-107849142D01*
X152014238Y-107839619D01*
X152023761Y-107830095D01*
X152033285Y-107811047D01*
X152033285Y-107772952D01*
X152023761Y-107753904D01*
X152014238Y-107744380D01*
X151995190Y-107734857D01*
G04 #@! TO.C,R8*
X149196523Y-108197619D02*
X149187000Y-108188095D01*
X149177476Y-108169047D01*
X149177476Y-108121428D01*
X149187000Y-108102380D01*
X149196523Y-108092857D01*
X149215571Y-108083333D01*
X149234619Y-108083333D01*
X149263190Y-108092857D01*
X149377476Y-108207142D01*
X149377476Y-108083333D01*
X149177476Y-108016666D02*
X149177476Y-107883333D01*
X149377476Y-107969047D01*
X149177476Y-107769047D02*
X149177476Y-107750000D01*
X149187000Y-107730952D01*
X149196523Y-107721428D01*
X149215571Y-107711904D01*
X149253666Y-107702380D01*
X149301285Y-107702380D01*
X149339380Y-107711904D01*
X149358428Y-107721428D01*
X149367952Y-107730952D01*
X149377476Y-107750000D01*
X149377476Y-107769047D01*
X149367952Y-107788095D01*
X149358428Y-107797619D01*
X149339380Y-107807142D01*
X149301285Y-107816666D01*
X149253666Y-107816666D01*
X149215571Y-107807142D01*
X149196523Y-107797619D01*
X149187000Y-107788095D01*
X149177476Y-107769047D01*
X150077476Y-107983333D02*
X149982238Y-108050000D01*
X150077476Y-108097619D02*
X149877476Y-108097619D01*
X149877476Y-108021428D01*
X149887000Y-108002380D01*
X149896523Y-107992857D01*
X149915571Y-107983333D01*
X149944142Y-107983333D01*
X149963190Y-107992857D01*
X149972714Y-108002380D01*
X149982238Y-108021428D01*
X149982238Y-108097619D01*
X149963190Y-107869047D02*
X149953666Y-107888095D01*
X149944142Y-107897619D01*
X149925095Y-107907142D01*
X149915571Y-107907142D01*
X149896523Y-107897619D01*
X149887000Y-107888095D01*
X149877476Y-107869047D01*
X149877476Y-107830952D01*
X149887000Y-107811904D01*
X149896523Y-107802380D01*
X149915571Y-107792857D01*
X149925095Y-107792857D01*
X149944142Y-107802380D01*
X149953666Y-107811904D01*
X149963190Y-107830952D01*
X149963190Y-107869047D01*
X149972714Y-107888095D01*
X149982238Y-107897619D01*
X150001285Y-107907142D01*
X150039380Y-107907142D01*
X150058428Y-107897619D01*
X150067952Y-107888095D01*
X150077476Y-107869047D01*
X150077476Y-107830952D01*
X150067952Y-107811904D01*
X150058428Y-107802380D01*
X150039380Y-107792857D01*
X150001285Y-107792857D01*
X149982238Y-107802380D01*
X149972714Y-107811904D01*
X149963190Y-107830952D01*
G04 #@! TO.C,U1*
D11*
X146932380Y-121490428D02*
X145932380Y-121490428D01*
X146837142Y-120442809D02*
X146884761Y-120490428D01*
X146932380Y-120633285D01*
X146932380Y-120728523D01*
X146884761Y-120871380D01*
X146789523Y-120966619D01*
X146694285Y-121014238D01*
X146503809Y-121061857D01*
X146360952Y-121061857D01*
X146170476Y-121014238D01*
X146075238Y-120966619D01*
X145980000Y-120871380D01*
X145932380Y-120728523D01*
X145932380Y-120633285D01*
X145980000Y-120490428D01*
X146027619Y-120442809D01*
X146408571Y-120014238D02*
X146408571Y-119680904D01*
X146932380Y-119538047D02*
X146932380Y-120014238D01*
X145932380Y-120014238D01*
X145932380Y-119538047D01*
X146265714Y-118680904D02*
X146932380Y-118680904D01*
X145884761Y-118919000D02*
X146599047Y-119157095D01*
X146599047Y-118538047D01*
X145932380Y-117966619D02*
X145932380Y-117871380D01*
X145980000Y-117776142D01*
X146027619Y-117728523D01*
X146122857Y-117680904D01*
X146313333Y-117633285D01*
X146551428Y-117633285D01*
X146741904Y-117680904D01*
X146837142Y-117728523D01*
X146884761Y-117776142D01*
X146932380Y-117871380D01*
X146932380Y-117966619D01*
X146884761Y-118061857D01*
X146837142Y-118109476D01*
X146741904Y-118157095D01*
X146551428Y-118204714D01*
X146313333Y-118204714D01*
X146122857Y-118157095D01*
X146027619Y-118109476D01*
X145980000Y-118061857D01*
X145932380Y-117966619D01*
X145932380Y-117204714D02*
X146741904Y-117204714D01*
X146837142Y-117157095D01*
X146884761Y-117109476D01*
X146932380Y-117014238D01*
X146932380Y-116823761D01*
X146884761Y-116728523D01*
X146837142Y-116680904D01*
X146741904Y-116633285D01*
X145932380Y-116633285D01*
X146932380Y-116157095D02*
X145932380Y-116157095D01*
X145932380Y-115776142D01*
X145980000Y-115680904D01*
X146027619Y-115633285D01*
X146122857Y-115585666D01*
X146265714Y-115585666D01*
X146360952Y-115633285D01*
X146408571Y-115680904D01*
X146456190Y-115776142D01*
X146456190Y-116157095D01*
X145932380Y-114680904D02*
X145932380Y-115157095D01*
X146408571Y-115204714D01*
X146360952Y-115157095D01*
X146313333Y-115061857D01*
X146313333Y-114823761D01*
X146360952Y-114728523D01*
X146408571Y-114680904D01*
X146503809Y-114633285D01*
X146741904Y-114633285D01*
X146837142Y-114680904D01*
X146884761Y-114728523D01*
X146932380Y-114823761D01*
X146932380Y-115061857D01*
X146884761Y-115157095D01*
X146837142Y-115204714D01*
X146932380Y-114204714D02*
X145932380Y-114204714D01*
X146932380Y-113633285D02*
X146360952Y-114061857D01*
X145932380Y-113633285D02*
X146503809Y-114204714D01*
X146551428Y-113204714D02*
X146551428Y-112442809D01*
X146884761Y-112014238D02*
X146932380Y-111871380D01*
X146932380Y-111633285D01*
X146884761Y-111538047D01*
X146837142Y-111490428D01*
X146741904Y-111442809D01*
X146646666Y-111442809D01*
X146551428Y-111490428D01*
X146503809Y-111538047D01*
X146456190Y-111633285D01*
X146408571Y-111823761D01*
X146360952Y-111919000D01*
X146313333Y-111966619D01*
X146218095Y-112014238D01*
X146122857Y-112014238D01*
X146027619Y-111966619D01*
X145980000Y-111919000D01*
X145932380Y-111823761D01*
X145932380Y-111585666D01*
X145980000Y-111442809D01*
X145980000Y-110490428D02*
X145932380Y-110585666D01*
X145932380Y-110728523D01*
X145980000Y-110871380D01*
X146075238Y-110966619D01*
X146170476Y-111014238D01*
X146360952Y-111061857D01*
X146503809Y-111061857D01*
X146694285Y-111014238D01*
X146789523Y-110966619D01*
X146884761Y-110871380D01*
X146932380Y-110728523D01*
X146932380Y-110633285D01*
X146884761Y-110490428D01*
X146837142Y-110442809D01*
X146503809Y-110442809D01*
X146503809Y-110633285D01*
X146265714Y-109585666D02*
X146932380Y-109585666D01*
X145884761Y-109823761D02*
X146599047Y-110061857D01*
X146599047Y-109442809D01*
X146360952Y-108919000D02*
X146313333Y-109014238D01*
X146265714Y-109061857D01*
X146170476Y-109109476D01*
X146122857Y-109109476D01*
X146027619Y-109061857D01*
X145980000Y-109014238D01*
X145932380Y-108919000D01*
X145932380Y-108728523D01*
X145980000Y-108633285D01*
X146027619Y-108585666D01*
X146122857Y-108538047D01*
X146170476Y-108538047D01*
X146265714Y-108585666D01*
X146313333Y-108633285D01*
X146360952Y-108728523D01*
X146360952Y-108919000D01*
X146408571Y-109014238D01*
X146456190Y-109061857D01*
X146551428Y-109109476D01*
X146741904Y-109109476D01*
X146837142Y-109061857D01*
X146884761Y-109014238D01*
X146932380Y-108919000D01*
X146932380Y-108728523D01*
X146884761Y-108633285D01*
X146837142Y-108585666D01*
X146741904Y-108538047D01*
X146551428Y-108538047D01*
X146456190Y-108585666D01*
X146408571Y-108633285D01*
X146360952Y-108728523D01*
X146932380Y-108109476D02*
X145932380Y-108109476D01*
X145932380Y-107776142D02*
X145932380Y-107204714D01*
X146932380Y-107490428D02*
X145932380Y-107490428D01*
X146932380Y-106299952D02*
X146456190Y-106633285D01*
X146932380Y-106871380D02*
X145932380Y-106871380D01*
X145932380Y-106490428D01*
X145980000Y-106395190D01*
X146027619Y-106347571D01*
X146122857Y-106299952D01*
X146265714Y-106299952D01*
X146360952Y-106347571D01*
X146408571Y-106395190D01*
X146456190Y-106490428D01*
X146456190Y-106871380D01*
X150582380Y-114680904D02*
X151391904Y-114680904D01*
X151487142Y-114633285D01*
X151534761Y-114585666D01*
X151582380Y-114490428D01*
X151582380Y-114299952D01*
X151534761Y-114204714D01*
X151487142Y-114157095D01*
X151391904Y-114109476D01*
X150582380Y-114109476D01*
X151582380Y-113109476D02*
X151582380Y-113680904D01*
X151582380Y-113395190D02*
X150582380Y-113395190D01*
X150725238Y-113490428D01*
X150820476Y-113585666D01*
X150868095Y-113680904D01*
G04 #@! TO.C,C3*
X149899761Y-108502380D02*
X149328333Y-108502380D01*
X149614047Y-108502380D02*
X149614047Y-107502380D01*
X149518809Y-107645238D01*
X149423571Y-107740476D01*
X149328333Y-107788095D01*
X150756904Y-107835714D02*
X150756904Y-108502380D01*
X150328333Y-107835714D02*
X150328333Y-108359523D01*
X150375952Y-108454761D01*
X150471190Y-108502380D01*
X150614047Y-108502380D01*
X150709285Y-108454761D01*
X150756904Y-108407142D01*
X151566428Y-107978571D02*
X151233095Y-107978571D01*
X151233095Y-108502380D02*
X151233095Y-107502380D01*
X151709285Y-107502380D01*
D14*
X150453333Y-109309285D02*
X150441428Y-109321190D01*
X150405714Y-109333095D01*
X150381904Y-109333095D01*
X150346190Y-109321190D01*
X150322380Y-109297380D01*
X150310476Y-109273571D01*
X150298571Y-109225952D01*
X150298571Y-109190238D01*
X150310476Y-109142619D01*
X150322380Y-109118809D01*
X150346190Y-109095000D01*
X150381904Y-109083095D01*
X150405714Y-109083095D01*
X150441428Y-109095000D01*
X150453333Y-109106904D01*
X150536666Y-109083095D02*
X150691428Y-109083095D01*
X150608095Y-109178333D01*
X150643809Y-109178333D01*
X150667619Y-109190238D01*
X150679523Y-109202142D01*
X150691428Y-109225952D01*
X150691428Y-109285476D01*
X150679523Y-109309285D01*
X150667619Y-109321190D01*
X150643809Y-109333095D01*
X150572380Y-109333095D01*
X150548571Y-109321190D01*
X150536666Y-109309285D01*
G04 #@! TO.C,D1*
D11*
X148253380Y-109260333D02*
X147253380Y-109260333D01*
X147253380Y-108879380D01*
X147301000Y-108784142D01*
X147348619Y-108736523D01*
X147443857Y-108688904D01*
X147586714Y-108688904D01*
X147681952Y-108736523D01*
X147729571Y-108784142D01*
X147777190Y-108879380D01*
X147777190Y-109260333D01*
X147253380Y-108355571D02*
X148253380Y-108117476D01*
X147539095Y-107927000D01*
X148253380Y-107736523D01*
X147253380Y-107498428D01*
X148253380Y-106546047D02*
X147777190Y-106879380D01*
X148253380Y-107117476D02*
X147253380Y-107117476D01*
X147253380Y-106736523D01*
X147301000Y-106641285D01*
X147348619Y-106593666D01*
X147443857Y-106546047D01*
X147586714Y-106546047D01*
X147681952Y-106593666D01*
X147729571Y-106641285D01*
X147777190Y-106736523D01*
X147777190Y-107117476D01*
D14*
X149084095Y-108111523D02*
X148834095Y-108111523D01*
X148834095Y-108052000D01*
X148846000Y-108016285D01*
X148869809Y-107992476D01*
X148893619Y-107980571D01*
X148941238Y-107968666D01*
X148976952Y-107968666D01*
X149024571Y-107980571D01*
X149048380Y-107992476D01*
X149072190Y-108016285D01*
X149084095Y-108052000D01*
X149084095Y-108111523D01*
X149084095Y-107730571D02*
X149084095Y-107873428D01*
X149084095Y-107802000D02*
X148834095Y-107802000D01*
X148869809Y-107825809D01*
X148893619Y-107849619D01*
X148905523Y-107873428D01*
G04 #@! TO.C,D2*
D11*
X151317380Y-109211904D02*
X152126904Y-109211904D01*
X152222142Y-109164285D01*
X152269761Y-109116666D01*
X152317380Y-109021428D01*
X152317380Y-108830952D01*
X152269761Y-108735714D01*
X152222142Y-108688095D01*
X152126904Y-108640476D01*
X151317380Y-108640476D01*
X152269761Y-108211904D02*
X152317380Y-108069047D01*
X152317380Y-107830952D01*
X152269761Y-107735714D01*
X152222142Y-107688095D01*
X152126904Y-107640476D01*
X152031666Y-107640476D01*
X151936428Y-107688095D01*
X151888809Y-107735714D01*
X151841190Y-107830952D01*
X151793571Y-108021428D01*
X151745952Y-108116666D01*
X151698333Y-108164285D01*
X151603095Y-108211904D01*
X151507857Y-108211904D01*
X151412619Y-108164285D01*
X151365000Y-108116666D01*
X151317380Y-108021428D01*
X151317380Y-107783333D01*
X151365000Y-107640476D01*
X152317380Y-106640476D02*
X151841190Y-106973809D01*
X152317380Y-107211904D02*
X151317380Y-107211904D01*
X151317380Y-106830952D01*
X151365000Y-106735714D01*
X151412619Y-106688095D01*
X151507857Y-106640476D01*
X151650714Y-106640476D01*
X151745952Y-106688095D01*
X151793571Y-106735714D01*
X151841190Y-106830952D01*
X151841190Y-107211904D01*
D14*
X153148095Y-108134523D02*
X152898095Y-108134523D01*
X152898095Y-108075000D01*
X152910000Y-108039285D01*
X152933809Y-108015476D01*
X152957619Y-108003571D01*
X153005238Y-107991666D01*
X153040952Y-107991666D01*
X153088571Y-108003571D01*
X153112380Y-108015476D01*
X153136190Y-108039285D01*
X153148095Y-108075000D01*
X153148095Y-108134523D01*
X152921904Y-107896428D02*
X152910000Y-107884523D01*
X152898095Y-107860714D01*
X152898095Y-107801190D01*
X152910000Y-107777380D01*
X152921904Y-107765476D01*
X152945714Y-107753571D01*
X152969523Y-107753571D01*
X153005238Y-107765476D01*
X153148095Y-107908333D01*
X153148095Y-107753571D01*
G04 #@! TO.C,J3*
D11*
X147973380Y-93623380D02*
X147973380Y-94432904D01*
X148021000Y-94528142D01*
X148068619Y-94575761D01*
X148163857Y-94623380D01*
X148354333Y-94623380D01*
X148449571Y-94575761D01*
X148497190Y-94528142D01*
X148544809Y-94432904D01*
X148544809Y-93623380D01*
X148973380Y-94575761D02*
X149116238Y-94623380D01*
X149354333Y-94623380D01*
X149449571Y-94575761D01*
X149497190Y-94528142D01*
X149544809Y-94432904D01*
X149544809Y-94337666D01*
X149497190Y-94242428D01*
X149449571Y-94194809D01*
X149354333Y-94147190D01*
X149163857Y-94099571D01*
X149068619Y-94051952D01*
X149021000Y-94004333D01*
X148973380Y-93909095D01*
X148973380Y-93813857D01*
X149021000Y-93718619D01*
X149068619Y-93671000D01*
X149163857Y-93623380D01*
X149401952Y-93623380D01*
X149544809Y-93671000D01*
X150306714Y-94099571D02*
X150449571Y-94147190D01*
X150497190Y-94194809D01*
X150544809Y-94290047D01*
X150544809Y-94432904D01*
X150497190Y-94528142D01*
X150449571Y-94575761D01*
X150354333Y-94623380D01*
X149973380Y-94623380D01*
X149973380Y-93623380D01*
X150306714Y-93623380D01*
X150401952Y-93671000D01*
X150449571Y-93718619D01*
X150497190Y-93813857D01*
X150497190Y-93909095D01*
X150449571Y-94004333D01*
X150401952Y-94051952D01*
X150306714Y-94099571D01*
X149973380Y-94099571D01*
X150735285Y-94718619D02*
X151497190Y-94718619D01*
X151925761Y-93623380D02*
X152116238Y-93623380D01*
X152211476Y-93671000D01*
X152306714Y-93766238D01*
X152354333Y-93956714D01*
X152354333Y-94290047D01*
X152306714Y-94480523D01*
X152211476Y-94575761D01*
X152116238Y-94623380D01*
X151925761Y-94623380D01*
X151830523Y-94575761D01*
X151735285Y-94480523D01*
X151687666Y-94290047D01*
X151687666Y-93956714D01*
X151735285Y-93766238D01*
X151830523Y-93671000D01*
X151925761Y-93623380D01*
X152640047Y-93623380D02*
X153211476Y-93623380D01*
X152925761Y-94623380D02*
X152925761Y-93623380D01*
X154068619Y-93671000D02*
X153973380Y-93623380D01*
X153830523Y-93623380D01*
X153687666Y-93671000D01*
X153592428Y-93766238D01*
X153544809Y-93861476D01*
X153497190Y-94051952D01*
X153497190Y-94194809D01*
X153544809Y-94385285D01*
X153592428Y-94480523D01*
X153687666Y-94575761D01*
X153830523Y-94623380D01*
X153925761Y-94623380D01*
X154068619Y-94575761D01*
X154116238Y-94528142D01*
X154116238Y-94194809D01*
X153925761Y-94194809D01*
X150687666Y-97973380D02*
X150687666Y-98687666D01*
X150640047Y-98830523D01*
X150544809Y-98925761D01*
X150401952Y-98973380D01*
X150306714Y-98973380D01*
X151068619Y-97973380D02*
X151687666Y-97973380D01*
X151354333Y-98354333D01*
X151497190Y-98354333D01*
X151592428Y-98401952D01*
X151640047Y-98449571D01*
X151687666Y-98544809D01*
X151687666Y-98782904D01*
X151640047Y-98878142D01*
X151592428Y-98925761D01*
X151497190Y-98973380D01*
X151211476Y-98973380D01*
X151116238Y-98925761D01*
X151068619Y-98878142D01*
G04 #@! TO.C,U2*
X148848095Y-102454380D02*
X148848095Y-101454380D01*
X149181428Y-102168666D01*
X149514761Y-101454380D01*
X149514761Y-102454380D01*
X149990952Y-102454380D02*
X149990952Y-101454380D01*
X151038571Y-102359142D02*
X150990952Y-102406761D01*
X150848095Y-102454380D01*
X150752857Y-102454380D01*
X150610000Y-102406761D01*
X150514761Y-102311523D01*
X150467142Y-102216285D01*
X150419523Y-102025809D01*
X150419523Y-101882952D01*
X150467142Y-101692476D01*
X150514761Y-101597238D01*
X150610000Y-101502000D01*
X150752857Y-101454380D01*
X150848095Y-101454380D01*
X150990952Y-101502000D01*
X151038571Y-101549619D01*
X151943333Y-101454380D02*
X151467142Y-101454380D01*
X151419523Y-101930571D01*
X151467142Y-101882952D01*
X151562380Y-101835333D01*
X151800476Y-101835333D01*
X151895714Y-101882952D01*
X151943333Y-101930571D01*
X151990952Y-102025809D01*
X151990952Y-102263904D01*
X151943333Y-102359142D01*
X151895714Y-102406761D01*
X151800476Y-102454380D01*
X151562380Y-102454380D01*
X151467142Y-102406761D01*
X151419523Y-102359142D01*
X152895714Y-101454380D02*
X152419523Y-101454380D01*
X152371904Y-101930571D01*
X152419523Y-101882952D01*
X152514761Y-101835333D01*
X152752857Y-101835333D01*
X152848095Y-101882952D01*
X152895714Y-101930571D01*
X152943333Y-102025809D01*
X152943333Y-102263904D01*
X152895714Y-102359142D01*
X152848095Y-102406761D01*
X152752857Y-102454380D01*
X152514761Y-102454380D01*
X152419523Y-102406761D01*
X152371904Y-102359142D01*
X153562380Y-101454380D02*
X153657619Y-101454380D01*
X153752857Y-101502000D01*
X153800476Y-101549619D01*
X153848095Y-101644857D01*
X153895714Y-101835333D01*
X153895714Y-102073428D01*
X153848095Y-102263904D01*
X153800476Y-102359142D01*
X153752857Y-102406761D01*
X153657619Y-102454380D01*
X153562380Y-102454380D01*
X153467142Y-102406761D01*
X153419523Y-102359142D01*
X153371904Y-102263904D01*
X153324285Y-102073428D01*
X153324285Y-101835333D01*
X153371904Y-101644857D01*
X153419523Y-101549619D01*
X153467142Y-101502000D01*
X153562380Y-101454380D01*
X154752857Y-101787714D02*
X154752857Y-102454380D01*
X154514761Y-101406761D02*
X154276666Y-102121047D01*
X154895714Y-102121047D01*
X155276666Y-102073428D02*
X156038571Y-102073428D01*
X156419523Y-101454380D02*
X157038571Y-101454380D01*
X156705238Y-101835333D01*
X156848095Y-101835333D01*
X156943333Y-101882952D01*
X156990952Y-101930571D01*
X157038571Y-102025809D01*
X157038571Y-102263904D01*
X156990952Y-102359142D01*
X156943333Y-102406761D01*
X156848095Y-102454380D01*
X156562380Y-102454380D01*
X156467142Y-102406761D01*
X156419523Y-102359142D01*
X157467142Y-102359142D02*
X157514761Y-102406761D01*
X157467142Y-102454380D01*
X157419523Y-102406761D01*
X157467142Y-102359142D01*
X157467142Y-102454380D01*
X157848095Y-101454380D02*
X158467142Y-101454380D01*
X158133809Y-101835333D01*
X158276666Y-101835333D01*
X158371904Y-101882952D01*
X158419523Y-101930571D01*
X158467142Y-102025809D01*
X158467142Y-102263904D01*
X158419523Y-102359142D01*
X158371904Y-102406761D01*
X158276666Y-102454380D01*
X157990952Y-102454380D01*
X157895714Y-102406761D01*
X157848095Y-102359142D01*
X159086190Y-101978190D02*
X159086190Y-102454380D01*
X158752857Y-101454380D02*
X159086190Y-101978190D01*
X159419523Y-101454380D01*
X159752857Y-102454380D02*
X159752857Y-101454380D01*
X160086190Y-102168666D01*
X160419523Y-101454380D01*
X160419523Y-102454380D01*
X161371904Y-101454380D02*
X160895714Y-101454380D01*
X160848095Y-101930571D01*
X160895714Y-101882952D01*
X160990952Y-101835333D01*
X161229047Y-101835333D01*
X161324285Y-101882952D01*
X161371904Y-101930571D01*
X161419523Y-102025809D01*
X161419523Y-102263904D01*
X161371904Y-102359142D01*
X161324285Y-102406761D01*
X161229047Y-102454380D01*
X160990952Y-102454380D01*
X160895714Y-102406761D01*
X160848095Y-102359142D01*
D12*
X154836190Y-105282952D02*
X155240952Y-105282952D01*
X155288571Y-105259142D01*
X155312380Y-105235333D01*
X155336190Y-105187714D01*
X155336190Y-105092476D01*
X155312380Y-105044857D01*
X155288571Y-105021047D01*
X155240952Y-104997238D01*
X154836190Y-104997238D01*
X154883809Y-104782952D02*
X154860000Y-104759142D01*
X154836190Y-104711523D01*
X154836190Y-104592476D01*
X154860000Y-104544857D01*
X154883809Y-104521047D01*
X154931428Y-104497238D01*
X154979047Y-104497238D01*
X155050476Y-104521047D01*
X155336190Y-104806761D01*
X155336190Y-104497238D01*
G04 #@! TO.C,U4*
D11*
X141396095Y-108315380D02*
X141396095Y-107315380D01*
X141729428Y-108029666D01*
X142062761Y-107315380D01*
X142062761Y-108315380D01*
X142538952Y-108315380D02*
X142538952Y-107315380D01*
X143586571Y-108220142D02*
X143538952Y-108267761D01*
X143396095Y-108315380D01*
X143300857Y-108315380D01*
X143158000Y-108267761D01*
X143062761Y-108172523D01*
X143015142Y-108077285D01*
X142967523Y-107886809D01*
X142967523Y-107743952D01*
X143015142Y-107553476D01*
X143062761Y-107458238D01*
X143158000Y-107363000D01*
X143300857Y-107315380D01*
X143396095Y-107315380D01*
X143538952Y-107363000D01*
X143586571Y-107410619D01*
X144491333Y-107315380D02*
X144015142Y-107315380D01*
X143967523Y-107791571D01*
X144015142Y-107743952D01*
X144110380Y-107696333D01*
X144348476Y-107696333D01*
X144443714Y-107743952D01*
X144491333Y-107791571D01*
X144538952Y-107886809D01*
X144538952Y-108124904D01*
X144491333Y-108220142D01*
X144443714Y-108267761D01*
X144348476Y-108315380D01*
X144110380Y-108315380D01*
X144015142Y-108267761D01*
X143967523Y-108220142D01*
X145443714Y-107315380D02*
X144967523Y-107315380D01*
X144919904Y-107791571D01*
X144967523Y-107743952D01*
X145062761Y-107696333D01*
X145300857Y-107696333D01*
X145396095Y-107743952D01*
X145443714Y-107791571D01*
X145491333Y-107886809D01*
X145491333Y-108124904D01*
X145443714Y-108220142D01*
X145396095Y-108267761D01*
X145300857Y-108315380D01*
X145062761Y-108315380D01*
X144967523Y-108267761D01*
X144919904Y-108220142D01*
X146110380Y-107315380D02*
X146205619Y-107315380D01*
X146300857Y-107363000D01*
X146348476Y-107410619D01*
X146396095Y-107505857D01*
X146443714Y-107696333D01*
X146443714Y-107934428D01*
X146396095Y-108124904D01*
X146348476Y-108220142D01*
X146300857Y-108267761D01*
X146205619Y-108315380D01*
X146110380Y-108315380D01*
X146015142Y-108267761D01*
X145967523Y-108220142D01*
X145919904Y-108124904D01*
X145872285Y-107934428D01*
X145872285Y-107696333D01*
X145919904Y-107505857D01*
X145967523Y-107410619D01*
X146015142Y-107363000D01*
X146110380Y-107315380D01*
X147300857Y-107648714D02*
X147300857Y-108315380D01*
X147062761Y-107267761D02*
X146824666Y-107982047D01*
X147443714Y-107982047D01*
X147824666Y-107934428D02*
X148586571Y-107934428D01*
X149586571Y-108315380D02*
X149015142Y-108315380D01*
X149300857Y-108315380D02*
X149300857Y-107315380D01*
X149205619Y-107458238D01*
X149110380Y-107553476D01*
X149015142Y-107601095D01*
X150015142Y-108220142D02*
X150062761Y-108267761D01*
X150015142Y-108315380D01*
X149967523Y-108267761D01*
X150015142Y-108220142D01*
X150015142Y-108315380D01*
X150443714Y-107410619D02*
X150491333Y-107363000D01*
X150586571Y-107315380D01*
X150824666Y-107315380D01*
X150919904Y-107363000D01*
X150967523Y-107410619D01*
X151015142Y-107505857D01*
X151015142Y-107601095D01*
X150967523Y-107743952D01*
X150396095Y-108315380D01*
X151015142Y-108315380D01*
X151634190Y-107839190D02*
X151634190Y-108315380D01*
X151300857Y-107315380D02*
X151634190Y-107839190D01*
X151967523Y-107315380D01*
X152300857Y-108315380D02*
X152300857Y-107315380D01*
X152634190Y-108029666D01*
X152967523Y-107315380D01*
X152967523Y-108315380D01*
X153919904Y-107315380D02*
X153443714Y-107315380D01*
X153396095Y-107791571D01*
X153443714Y-107743952D01*
X153538952Y-107696333D01*
X153777047Y-107696333D01*
X153872285Y-107743952D01*
X153919904Y-107791571D01*
X153967523Y-107886809D01*
X153967523Y-108124904D01*
X153919904Y-108220142D01*
X153872285Y-108267761D01*
X153777047Y-108315380D01*
X153538952Y-108315380D01*
X153443714Y-108267761D01*
X153396095Y-108220142D01*
D12*
X147384190Y-105343952D02*
X147788952Y-105343952D01*
X147836571Y-105320142D01*
X147860380Y-105296333D01*
X147884190Y-105248714D01*
X147884190Y-105153476D01*
X147860380Y-105105857D01*
X147836571Y-105082047D01*
X147788952Y-105058238D01*
X147384190Y-105058238D01*
X147550857Y-104605857D02*
X147884190Y-104605857D01*
X147360380Y-104724904D02*
X147717523Y-104843952D01*
X147717523Y-104534428D01*
G04 #@! TO.C,SW1*
D11*
X148082380Y-132627861D02*
X148225238Y-132675480D01*
X148463333Y-132675480D01*
X148558571Y-132627861D01*
X148606190Y-132580242D01*
X148653809Y-132485004D01*
X148653809Y-132389766D01*
X148606190Y-132294528D01*
X148558571Y-132246909D01*
X148463333Y-132199290D01*
X148272857Y-132151671D01*
X148177619Y-132104052D01*
X148130000Y-132056433D01*
X148082380Y-131961195D01*
X148082380Y-131865957D01*
X148130000Y-131770719D01*
X148177619Y-131723100D01*
X148272857Y-131675480D01*
X148510952Y-131675480D01*
X148653809Y-131723100D01*
X148987142Y-131675480D02*
X149225238Y-132675480D01*
X149415714Y-131961195D01*
X149606190Y-132675480D01*
X149844285Y-131675480D01*
X149987142Y-132770719D02*
X150749047Y-132770719D01*
X150987142Y-132675480D02*
X150987142Y-131675480D01*
X151368095Y-131675480D01*
X151463333Y-131723100D01*
X151510952Y-131770719D01*
X151558571Y-131865957D01*
X151558571Y-132008814D01*
X151510952Y-132104052D01*
X151463333Y-132151671D01*
X151368095Y-132199290D01*
X150987142Y-132199290D01*
X152415714Y-132008814D02*
X152415714Y-132675480D01*
X151987142Y-132008814D02*
X151987142Y-132532623D01*
X152034761Y-132627861D01*
X152130000Y-132675480D01*
X152272857Y-132675480D01*
X152368095Y-132627861D01*
X152415714Y-132580242D01*
X152844285Y-132627861D02*
X152939523Y-132675480D01*
X153130000Y-132675480D01*
X153225238Y-132627861D01*
X153272857Y-132532623D01*
X153272857Y-132485004D01*
X153225238Y-132389766D01*
X153130000Y-132342147D01*
X152987142Y-132342147D01*
X152891904Y-132294528D01*
X152844285Y-132199290D01*
X152844285Y-132151671D01*
X152891904Y-132056433D01*
X152987142Y-132008814D01*
X153130000Y-132008814D01*
X153225238Y-132056433D01*
X153701428Y-132675480D02*
X153701428Y-131675480D01*
X154130000Y-132675480D02*
X154130000Y-132151671D01*
X154082380Y-132056433D01*
X153987142Y-132008814D01*
X153844285Y-132008814D01*
X153749047Y-132056433D01*
X153701428Y-132104052D01*
X151568666Y-128039761D02*
X151711523Y-128087380D01*
X151949619Y-128087380D01*
X152044857Y-128039761D01*
X152092476Y-127992142D01*
X152140095Y-127896904D01*
X152140095Y-127801666D01*
X152092476Y-127706428D01*
X152044857Y-127658809D01*
X151949619Y-127611190D01*
X151759142Y-127563571D01*
X151663904Y-127515952D01*
X151616285Y-127468333D01*
X151568666Y-127373095D01*
X151568666Y-127277857D01*
X151616285Y-127182619D01*
X151663904Y-127135000D01*
X151759142Y-127087380D01*
X151997238Y-127087380D01*
X152140095Y-127135000D01*
X152473428Y-127087380D02*
X152711523Y-128087380D01*
X152902000Y-127373095D01*
X153092476Y-128087380D01*
X153330571Y-127087380D01*
X154235333Y-128087380D02*
X153663904Y-128087380D01*
X153949619Y-128087380D02*
X153949619Y-127087380D01*
X153854380Y-127230238D01*
X153759142Y-127325476D01*
X153663904Y-127373095D01*
G04 #@! TO.C,U3*
X141772857Y-124326380D02*
X141772857Y-123326380D01*
X142010952Y-123326380D01*
X142153809Y-123374000D01*
X142249047Y-123469238D01*
X142296666Y-123564476D01*
X142344285Y-123754952D01*
X142344285Y-123897809D01*
X142296666Y-124088285D01*
X142249047Y-124183523D01*
X142153809Y-124278761D01*
X142010952Y-124326380D01*
X141772857Y-124326380D01*
X142725238Y-124278761D02*
X142868095Y-124326380D01*
X143106190Y-124326380D01*
X143201428Y-124278761D01*
X143249047Y-124231142D01*
X143296666Y-124135904D01*
X143296666Y-124040666D01*
X143249047Y-123945428D01*
X143201428Y-123897809D01*
X143106190Y-123850190D01*
X142915714Y-123802571D01*
X142820476Y-123754952D01*
X142772857Y-123707333D01*
X142725238Y-123612095D01*
X142725238Y-123516857D01*
X142772857Y-123421619D01*
X142820476Y-123374000D01*
X142915714Y-123326380D01*
X143153809Y-123326380D01*
X143296666Y-123374000D01*
X144296666Y-124231142D02*
X144249047Y-124278761D01*
X144106190Y-124326380D01*
X144010952Y-124326380D01*
X143868095Y-124278761D01*
X143772857Y-124183523D01*
X143725238Y-124088285D01*
X143677619Y-123897809D01*
X143677619Y-123754952D01*
X143725238Y-123564476D01*
X143772857Y-123469238D01*
X143868095Y-123374000D01*
X144010952Y-123326380D01*
X144106190Y-123326380D01*
X144249047Y-123374000D01*
X144296666Y-123421619D01*
X145153809Y-123326380D02*
X144963333Y-123326380D01*
X144868095Y-123374000D01*
X144820476Y-123421619D01*
X144725238Y-123564476D01*
X144677619Y-123754952D01*
X144677619Y-124135904D01*
X144725238Y-124231142D01*
X144772857Y-124278761D01*
X144868095Y-124326380D01*
X145058571Y-124326380D01*
X145153809Y-124278761D01*
X145201428Y-124231142D01*
X145249047Y-124135904D01*
X145249047Y-123897809D01*
X145201428Y-123802571D01*
X145153809Y-123754952D01*
X145058571Y-123707333D01*
X144868095Y-123707333D01*
X144772857Y-123754952D01*
X144725238Y-123802571D01*
X144677619Y-123897809D01*
X145868095Y-123326380D02*
X145963333Y-123326380D01*
X146058571Y-123374000D01*
X146106190Y-123421619D01*
X146153809Y-123516857D01*
X146201428Y-123707333D01*
X146201428Y-123945428D01*
X146153809Y-124135904D01*
X146106190Y-124231142D01*
X146058571Y-124278761D01*
X145963333Y-124326380D01*
X145868095Y-124326380D01*
X145772857Y-124278761D01*
X145725238Y-124231142D01*
X145677619Y-124135904D01*
X145630000Y-123945428D01*
X145630000Y-123707333D01*
X145677619Y-123516857D01*
X145725238Y-123421619D01*
X145772857Y-123374000D01*
X145868095Y-123326380D01*
X146820476Y-123326380D02*
X146915714Y-123326380D01*
X147010952Y-123374000D01*
X147058571Y-123421619D01*
X147106190Y-123516857D01*
X147153809Y-123707333D01*
X147153809Y-123945428D01*
X147106190Y-124135904D01*
X147058571Y-124231142D01*
X147010952Y-124278761D01*
X146915714Y-124326380D01*
X146820476Y-124326380D01*
X146725238Y-124278761D01*
X146677619Y-124231142D01*
X146630000Y-124135904D01*
X146582380Y-123945428D01*
X146582380Y-123707333D01*
X146630000Y-123516857D01*
X146677619Y-123421619D01*
X146725238Y-123374000D01*
X146820476Y-123326380D01*
X148106190Y-124326380D02*
X147534761Y-124326380D01*
X147820476Y-124326380D02*
X147820476Y-123326380D01*
X147725238Y-123469238D01*
X147630000Y-123564476D01*
X147534761Y-123612095D01*
X149106190Y-124231142D02*
X149058571Y-124278761D01*
X148915714Y-124326380D01*
X148820476Y-124326380D01*
X148677619Y-124278761D01*
X148582380Y-124183523D01*
X148534761Y-124088285D01*
X148487142Y-123897809D01*
X148487142Y-123754952D01*
X148534761Y-123564476D01*
X148582380Y-123469238D01*
X148677619Y-123374000D01*
X148820476Y-123326380D01*
X148915714Y-123326380D01*
X149058571Y-123374000D01*
X149106190Y-123421619D01*
X149534761Y-124326380D02*
X149534761Y-123326380D01*
X149963333Y-123421619D02*
X150010952Y-123374000D01*
X150106190Y-123326380D01*
X150344285Y-123326380D01*
X150439523Y-123374000D01*
X150487142Y-123421619D01*
X150534761Y-123516857D01*
X150534761Y-123612095D01*
X150487142Y-123754952D01*
X149915714Y-124326380D01*
X150534761Y-124326380D01*
X150915714Y-124040666D02*
X151391904Y-124040666D01*
X150820476Y-124326380D02*
X151153809Y-123326380D01*
X151487142Y-124326380D01*
X151820476Y-123945428D02*
X152582380Y-123945428D01*
X153249047Y-123326380D02*
X153344285Y-123326380D01*
X153439523Y-123374000D01*
X153487142Y-123421619D01*
X153534761Y-123516857D01*
X153582380Y-123707333D01*
X153582380Y-123945428D01*
X153534761Y-124135904D01*
X153487142Y-124231142D01*
X153439523Y-124278761D01*
X153344285Y-124326380D01*
X153249047Y-124326380D01*
X153153809Y-124278761D01*
X153106190Y-124231142D01*
X153058571Y-124135904D01*
X153010952Y-123945428D01*
X153010952Y-123707333D01*
X153058571Y-123516857D01*
X153106190Y-123421619D01*
X153153809Y-123374000D01*
X153249047Y-123326380D01*
X154534761Y-124326380D02*
X153963333Y-124326380D01*
X154249047Y-124326380D02*
X154249047Y-123326380D01*
X154153809Y-123469238D01*
X154058571Y-123564476D01*
X153963333Y-123612095D01*
X155391904Y-123326380D02*
X155201428Y-123326380D01*
X155106190Y-123374000D01*
X155058571Y-123421619D01*
X154963333Y-123564476D01*
X154915714Y-123754952D01*
X154915714Y-124135904D01*
X154963333Y-124231142D01*
X155010952Y-124278761D01*
X155106190Y-124326380D01*
X155296666Y-124326380D01*
X155391904Y-124278761D01*
X155439523Y-124231142D01*
X155487142Y-124135904D01*
X155487142Y-123897809D01*
X155439523Y-123802571D01*
X155391904Y-123754952D01*
X155296666Y-123707333D01*
X155106190Y-123707333D01*
X155010952Y-123754952D01*
X154963333Y-123802571D01*
X154915714Y-123897809D01*
X155915714Y-124231142D02*
X155963333Y-124278761D01*
X155915714Y-124326380D01*
X155868095Y-124278761D01*
X155915714Y-124231142D01*
X155915714Y-124326380D01*
X156582380Y-123326380D02*
X156677619Y-123326380D01*
X156772857Y-123374000D01*
X156820476Y-123421619D01*
X156868095Y-123516857D01*
X156915714Y-123707333D01*
X156915714Y-123945428D01*
X156868095Y-124135904D01*
X156820476Y-124231142D01*
X156772857Y-124278761D01*
X156677619Y-124326380D01*
X156582380Y-124326380D01*
X156487142Y-124278761D01*
X156439523Y-124231142D01*
X156391904Y-124135904D01*
X156344285Y-123945428D01*
X156344285Y-123707333D01*
X156391904Y-123516857D01*
X156439523Y-123421619D01*
X156487142Y-123374000D01*
X156582380Y-123326380D01*
X157534761Y-123326380D02*
X157630000Y-123326380D01*
X157725238Y-123374000D01*
X157772857Y-123421619D01*
X157820476Y-123516857D01*
X157868095Y-123707333D01*
X157868095Y-123945428D01*
X157820476Y-124135904D01*
X157772857Y-124231142D01*
X157725238Y-124278761D01*
X157630000Y-124326380D01*
X157534761Y-124326380D01*
X157439523Y-124278761D01*
X157391904Y-124231142D01*
X157344285Y-124135904D01*
X157296666Y-123945428D01*
X157296666Y-123707333D01*
X157344285Y-123516857D01*
X157391904Y-123421619D01*
X157439523Y-123374000D01*
X157534761Y-123326380D01*
X158487142Y-123326380D02*
X158582380Y-123326380D01*
X158677619Y-123374000D01*
X158725238Y-123421619D01*
X158772857Y-123516857D01*
X158820476Y-123707333D01*
X158820476Y-123945428D01*
X158772857Y-124135904D01*
X158725238Y-124231142D01*
X158677619Y-124278761D01*
X158582380Y-124326380D01*
X158487142Y-124326380D01*
X158391904Y-124278761D01*
X158344285Y-124231142D01*
X158296666Y-124135904D01*
X158249047Y-123945428D01*
X158249047Y-123707333D01*
X158296666Y-123516857D01*
X158344285Y-123421619D01*
X158391904Y-123374000D01*
X158487142Y-123326380D01*
X159439523Y-123326380D02*
X159534761Y-123326380D01*
X159630000Y-123374000D01*
X159677619Y-123421619D01*
X159725238Y-123516857D01*
X159772857Y-123707333D01*
X159772857Y-123945428D01*
X159725238Y-124135904D01*
X159677619Y-124231142D01*
X159630000Y-124278761D01*
X159534761Y-124326380D01*
X159439523Y-124326380D01*
X159344285Y-124278761D01*
X159296666Y-124231142D01*
X159249047Y-124135904D01*
X159201428Y-123945428D01*
X159201428Y-123707333D01*
X159249047Y-123516857D01*
X159296666Y-123421619D01*
X159344285Y-123374000D01*
X159439523Y-123326380D01*
X160058571Y-123326380D02*
X160630000Y-123326380D01*
X160344285Y-124326380D02*
X160344285Y-123326380D01*
X150368095Y-120526380D02*
X150368095Y-121335904D01*
X150415714Y-121431142D01*
X150463333Y-121478761D01*
X150558571Y-121526380D01*
X150749047Y-121526380D01*
X150844285Y-121478761D01*
X150891904Y-121431142D01*
X150939523Y-121335904D01*
X150939523Y-120526380D01*
X151320476Y-120526380D02*
X151939523Y-120526380D01*
X151606190Y-120907333D01*
X151749047Y-120907333D01*
X151844285Y-120954952D01*
X151891904Y-121002571D01*
X151939523Y-121097809D01*
X151939523Y-121335904D01*
X151891904Y-121431142D01*
X151844285Y-121478761D01*
X151749047Y-121526380D01*
X151463333Y-121526380D01*
X151368095Y-121478761D01*
X151320476Y-121431142D01*
G04 #@! TO.C,U5*
X146725238Y-122576666D02*
X147201428Y-122576666D01*
X146630000Y-122862380D02*
X146963333Y-121862380D01*
X147296666Y-122862380D01*
X147487142Y-121862380D02*
X148058571Y-121862380D01*
X147772857Y-122862380D02*
X147772857Y-121862380D01*
X148344285Y-121957619D02*
X148391904Y-121910000D01*
X148487142Y-121862380D01*
X148725238Y-121862380D01*
X148820476Y-121910000D01*
X148868095Y-121957619D01*
X148915714Y-122052857D01*
X148915714Y-122148095D01*
X148868095Y-122290952D01*
X148296666Y-122862380D01*
X148915714Y-122862380D01*
X149820476Y-121862380D02*
X149344285Y-121862380D01*
X149296666Y-122338571D01*
X149344285Y-122290952D01*
X149439523Y-122243333D01*
X149677619Y-122243333D01*
X149772857Y-122290952D01*
X149820476Y-122338571D01*
X149868095Y-122433809D01*
X149868095Y-122671904D01*
X149820476Y-122767142D01*
X149772857Y-122814761D01*
X149677619Y-122862380D01*
X149439523Y-122862380D01*
X149344285Y-122814761D01*
X149296666Y-122767142D01*
X150201428Y-122862380D02*
X150725238Y-122195714D01*
X150201428Y-122195714D02*
X150725238Y-122862380D01*
X151010952Y-122862380D02*
X151534761Y-122195714D01*
X151010952Y-122195714D02*
X151534761Y-122862380D01*
X151820476Y-122862380D02*
X152344285Y-122195714D01*
X151820476Y-122195714D02*
X152344285Y-122862380D01*
X152725238Y-122481428D02*
X153487142Y-122481428D01*
X153963333Y-122862380D02*
X153963333Y-121862380D01*
X154296666Y-122576666D01*
X154630000Y-121862380D01*
X154630000Y-122862380D01*
X155058571Y-122576666D02*
X155534761Y-122576666D01*
X154963333Y-122862380D02*
X155296666Y-121862380D01*
X155630000Y-122862380D01*
D15*
X150596666Y-124076666D02*
X150596666Y-124643333D01*
X150630000Y-124710000D01*
X150663333Y-124743333D01*
X150730000Y-124776666D01*
X150863333Y-124776666D01*
X150930000Y-124743333D01*
X150963333Y-124710000D01*
X150996666Y-124643333D01*
X150996666Y-124076666D01*
X151663333Y-124076666D02*
X151330000Y-124076666D01*
X151296666Y-124410000D01*
X151330000Y-124376666D01*
X151396666Y-124343333D01*
X151563333Y-124343333D01*
X151630000Y-124376666D01*
X151663333Y-124410000D01*
X151696666Y-124476666D01*
X151696666Y-124643333D01*
X151663333Y-124710000D01*
X151630000Y-124743333D01*
X151563333Y-124776666D01*
X151396666Y-124776666D01*
X151330000Y-124743333D01*
X151296666Y-124710000D01*
G04 #@! TD*
M02*
