G04 #@! TF.GenerationSoftware,KiCad,Pcbnew,5.0.1-33cea8e~66~ubuntu18.04.1*
G04 #@! TF.CreationDate,2018-10-16T23:10:54+02:00*
G04 #@! TF.ProjectId,TinyFPGA-BX,54696E79465047412D42582E6B696361,rev?*
G04 #@! TF.SameCoordinates,Original*
G04 #@! TF.FileFunction,Other,Fab,Bot*
%FSLAX46Y46*%
G04 Gerber Fmt 4.6, Leading zero omitted, Abs format (unit mm)*
G04 Created by KiCad (PCBNEW 5.0.1-33cea8e~66~ubuntu18.04.1) date di 16 okt 2018 23:10:54 CEST*
%MOMM*%
%LPD*%
G01*
G04 APERTURE LIST*
%ADD10C,0.100000*%
%ADD11C,0.150000*%
%ADD12C,0.040000*%
%ADD13C,0.050000*%
%ADD14C,0.031750*%
G04 APERTURE END LIST*
D10*
G04 #@! TO.C,C12*
X147843000Y-112018000D02*
X146843000Y-112018000D01*
X147843000Y-112518000D02*
X147843000Y-112018000D01*
X146843000Y-112518000D02*
X147843000Y-112518000D01*
X146843000Y-112018000D02*
X146843000Y-112518000D01*
G04 #@! TO.C,J5*
X153685000Y-125095000D02*
X148605000Y-125095000D01*
X149555000Y-132715000D02*
X153685000Y-132715000D01*
X148605000Y-125095000D02*
X148605000Y-131765000D01*
X148605000Y-131765000D02*
X149555000Y-132715000D01*
X153685000Y-132715000D02*
X153685000Y-125095000D01*
X148605000Y-131765000D02*
X147545000Y-131765000D01*
X147545000Y-131765000D02*
X147545000Y-131125000D01*
X147545000Y-131125000D02*
X148605000Y-131125000D01*
X153685000Y-131765000D02*
X154745000Y-131765000D01*
X154745000Y-131765000D02*
X154745000Y-131125000D01*
X154745000Y-131125000D02*
X153685000Y-131125000D01*
X148605000Y-129225000D02*
X147545000Y-129225000D01*
X147545000Y-129225000D02*
X147545000Y-128585000D01*
X147545000Y-128585000D02*
X148605000Y-128585000D01*
X153685000Y-129225000D02*
X154745000Y-129225000D01*
X154745000Y-129225000D02*
X154745000Y-128585000D01*
X154745000Y-128585000D02*
X153685000Y-128585000D01*
X148605000Y-126685000D02*
X147545000Y-126685000D01*
X147545000Y-126685000D02*
X147545000Y-126045000D01*
X147545000Y-126045000D02*
X148605000Y-126045000D01*
X153685000Y-126685000D02*
X154745000Y-126685000D01*
X154745000Y-126685000D02*
X154745000Y-126045000D01*
X154745000Y-126045000D02*
X153685000Y-126045000D01*
G04 #@! TO.C,R6*
X155382000Y-124456000D02*
X155382000Y-123956000D01*
X154382000Y-124456000D02*
X155382000Y-124456000D01*
X154382000Y-123956000D02*
X154382000Y-124456000D01*
X155382000Y-123956000D02*
X154382000Y-123956000D01*
G04 #@! TO.C,R7*
X148205000Y-121743000D02*
X147705000Y-121743000D01*
X148205000Y-122743000D02*
X148205000Y-121743000D01*
X147705000Y-122743000D02*
X148205000Y-122743000D01*
X147705000Y-121743000D02*
X147705000Y-122743000D01*
G04 #@! TO.C,R5*
X147185000Y-125091000D02*
X147185000Y-124591000D01*
X146185000Y-125091000D02*
X147185000Y-125091000D01*
X146185000Y-124591000D02*
X146185000Y-125091000D01*
X147185000Y-124591000D02*
X146185000Y-124591000D01*
G04 #@! TO.C,R4*
X149737000Y-119303000D02*
X150237000Y-119303000D01*
X149737000Y-118303000D02*
X149737000Y-119303000D01*
X150237000Y-118303000D02*
X149737000Y-118303000D01*
X150237000Y-119303000D02*
X150237000Y-118303000D01*
G04 #@! TO.C,R1*
X150110000Y-102306500D02*
X149610000Y-102306500D01*
X150110000Y-103306500D02*
X150110000Y-102306500D01*
X149610000Y-103306500D02*
X150110000Y-103306500D01*
X149610000Y-102306500D02*
X149610000Y-103306500D01*
G04 #@! TO.C,R2*
X150753000Y-103312000D02*
X151253000Y-103312000D01*
X150753000Y-102312000D02*
X150753000Y-103312000D01*
X151253000Y-102312000D02*
X150753000Y-102312000D01*
X151253000Y-103312000D02*
X151253000Y-102312000D01*
G04 #@! TO.C,R3*
X151832500Y-103312000D02*
X152332500Y-103312000D01*
X151832500Y-102312000D02*
X151832500Y-103312000D01*
X152332500Y-102312000D02*
X151832500Y-102312000D01*
X152332500Y-103312000D02*
X152332500Y-102312000D01*
G04 #@! TO.C,R10*
X155382000Y-122805000D02*
X155382000Y-122305000D01*
X154382000Y-122805000D02*
X155382000Y-122805000D01*
X154382000Y-122305000D02*
X154382000Y-122805000D01*
X155382000Y-122305000D02*
X154382000Y-122305000D01*
G04 #@! TO.C,C1*
X155436000Y-103673100D02*
X155436000Y-104173100D01*
X155436000Y-104173100D02*
X156436000Y-104173100D01*
X156436000Y-104173100D02*
X156436000Y-103673100D01*
X156436000Y-103673100D02*
X155436000Y-103673100D01*
G04 #@! TO.C,C2*
X156436000Y-107273100D02*
X155436000Y-107273100D01*
X156436000Y-107773100D02*
X156436000Y-107273100D01*
X155436000Y-107773100D02*
X156436000Y-107773100D01*
X155436000Y-107273100D02*
X155436000Y-107773100D01*
G04 #@! TO.C,C4*
X156436000Y-106073100D02*
X155436000Y-106073100D01*
X156436000Y-106573100D02*
X156436000Y-106073100D01*
X155436000Y-106573100D02*
X156436000Y-106573100D01*
X155436000Y-106073100D02*
X155436000Y-106573100D01*
G04 #@! TO.C,C5*
X154336000Y-121027000D02*
X155336000Y-121027000D01*
X154336000Y-120527000D02*
X154336000Y-121027000D01*
X155336000Y-120527000D02*
X154336000Y-120527000D01*
X155336000Y-121027000D02*
X155336000Y-120527000D01*
G04 #@! TO.C,C6*
X149094000Y-119261000D02*
X148594000Y-119261000D01*
X148594000Y-119261000D02*
X148594000Y-120261000D01*
X148594000Y-120261000D02*
X149094000Y-120261000D01*
X149094000Y-120261000D02*
X149094000Y-119261000D01*
G04 #@! TO.C,C8*
X147051000Y-117225000D02*
X147051000Y-117725000D01*
X147051000Y-117725000D02*
X148051000Y-117725000D01*
X148051000Y-117725000D02*
X148051000Y-117225000D01*
X148051000Y-117225000D02*
X147051000Y-117225000D01*
G04 #@! TO.C,C9*
X152904000Y-119499000D02*
X152904000Y-118499000D01*
X152404000Y-119499000D02*
X152904000Y-119499000D01*
X152404000Y-118499000D02*
X152404000Y-119499000D01*
X152904000Y-118499000D02*
X152404000Y-118499000D01*
G04 #@! TO.C,C10*
X146035000Y-108835000D02*
X147035000Y-108835000D01*
X146035000Y-108335000D02*
X146035000Y-108835000D01*
X147035000Y-108335000D02*
X146035000Y-108335000D01*
X147035000Y-108835000D02*
X147035000Y-108335000D01*
G04 #@! TO.C,C11*
X147035000Y-110613000D02*
X147035000Y-110113000D01*
X147035000Y-110113000D02*
X146035000Y-110113000D01*
X146035000Y-110113000D02*
X146035000Y-110613000D01*
X146035000Y-110613000D02*
X147035000Y-110613000D01*
G04 #@! TO.C,C13*
X151634000Y-118476000D02*
X151134000Y-118476000D01*
X151134000Y-118476000D02*
X151134000Y-119476000D01*
X151134000Y-119476000D02*
X151634000Y-119476000D01*
X151634000Y-119476000D02*
X151634000Y-118476000D01*
G04 #@! TO.C,C14*
X151145000Y-120400000D02*
X150145000Y-120400000D01*
X151145000Y-120900000D02*
X151145000Y-120400000D01*
X150145000Y-120900000D02*
X151145000Y-120900000D01*
X150145000Y-120400000D02*
X150145000Y-120900000D01*
G04 #@! TO.C,C17*
X156841000Y-101885000D02*
X156341000Y-101885000D01*
X156341000Y-101885000D02*
X156341000Y-102885000D01*
X156341000Y-102885000D02*
X156841000Y-102885000D01*
X156841000Y-102885000D02*
X156841000Y-101885000D01*
G04 #@! TD*
G04 #@! TO.C,C12*
D11*
X148414428Y-111550380D02*
X148985857Y-111550380D01*
X148700142Y-111550380D02*
X148700142Y-110550380D01*
X148795380Y-110693238D01*
X148890619Y-110788476D01*
X148985857Y-110836095D01*
X147795380Y-110550380D02*
X147700142Y-110550380D01*
X147604904Y-110598000D01*
X147557285Y-110645619D01*
X147509666Y-110740857D01*
X147462047Y-110931333D01*
X147462047Y-111169428D01*
X147509666Y-111359904D01*
X147557285Y-111455142D01*
X147604904Y-111502761D01*
X147700142Y-111550380D01*
X147795380Y-111550380D01*
X147890619Y-111502761D01*
X147938238Y-111455142D01*
X147985857Y-111359904D01*
X148033476Y-111169428D01*
X148033476Y-110931333D01*
X147985857Y-110740857D01*
X147938238Y-110645619D01*
X147890619Y-110598000D01*
X147795380Y-110550380D01*
X147033476Y-110883714D02*
X147033476Y-111550380D01*
X147033476Y-110978952D02*
X146985857Y-110931333D01*
X146890619Y-110883714D01*
X146747761Y-110883714D01*
X146652523Y-110931333D01*
X146604904Y-111026571D01*
X146604904Y-111550380D01*
X145795380Y-111026571D02*
X146128714Y-111026571D01*
X146128714Y-111550380D02*
X146128714Y-110550380D01*
X145652523Y-110550380D01*
D12*
X147503714Y-112357285D02*
X147515619Y-112369190D01*
X147551333Y-112381095D01*
X147575142Y-112381095D01*
X147610857Y-112369190D01*
X147634666Y-112345380D01*
X147646571Y-112321571D01*
X147658476Y-112273952D01*
X147658476Y-112238238D01*
X147646571Y-112190619D01*
X147634666Y-112166809D01*
X147610857Y-112143000D01*
X147575142Y-112131095D01*
X147551333Y-112131095D01*
X147515619Y-112143000D01*
X147503714Y-112154904D01*
X147265619Y-112381095D02*
X147408476Y-112381095D01*
X147337047Y-112381095D02*
X147337047Y-112131095D01*
X147360857Y-112166809D01*
X147384666Y-112190619D01*
X147408476Y-112202523D01*
X147170380Y-112154904D02*
X147158476Y-112143000D01*
X147134666Y-112131095D01*
X147075142Y-112131095D01*
X147051333Y-112143000D01*
X147039428Y-112154904D01*
X147027523Y-112178714D01*
X147027523Y-112202523D01*
X147039428Y-112238238D01*
X147182285Y-112381095D01*
X147027523Y-112381095D01*
G04 #@! TO.C,J5*
D11*
X152621190Y-124487380D02*
X152621190Y-123487380D01*
X152240238Y-123487380D01*
X152145000Y-123535000D01*
X152097380Y-123582619D01*
X152049761Y-123677857D01*
X152049761Y-123820714D01*
X152097380Y-123915952D01*
X152145000Y-123963571D01*
X152240238Y-124011190D01*
X152621190Y-124011190D01*
X151621190Y-124487380D02*
X151621190Y-123820714D01*
X151621190Y-124011190D02*
X151573571Y-123915952D01*
X151525952Y-123868333D01*
X151430714Y-123820714D01*
X151335476Y-123820714D01*
X150859285Y-124487380D02*
X150954523Y-124439761D01*
X151002142Y-124392142D01*
X151049761Y-124296904D01*
X151049761Y-124011190D01*
X151002142Y-123915952D01*
X150954523Y-123868333D01*
X150859285Y-123820714D01*
X150716428Y-123820714D01*
X150621190Y-123868333D01*
X150573571Y-123915952D01*
X150525952Y-124011190D01*
X150525952Y-124296904D01*
X150573571Y-124392142D01*
X150621190Y-124439761D01*
X150716428Y-124487380D01*
X150859285Y-124487380D01*
X149668809Y-123820714D02*
X149668809Y-124630238D01*
X149716428Y-124725476D01*
X149764047Y-124773095D01*
X149859285Y-124820714D01*
X150002142Y-124820714D01*
X150097380Y-124773095D01*
X149668809Y-124439761D02*
X149764047Y-124487380D01*
X149954523Y-124487380D01*
X150049761Y-124439761D01*
X150097380Y-124392142D01*
X150145000Y-124296904D01*
X150145000Y-124011190D01*
X150097380Y-123915952D01*
X150049761Y-123868333D01*
X149954523Y-123820714D01*
X149764047Y-123820714D01*
X149668809Y-123868333D01*
X150597380Y-128571666D02*
X151311666Y-128571666D01*
X151454523Y-128524047D01*
X151549761Y-128428809D01*
X151597380Y-128285952D01*
X151597380Y-128190714D01*
X150597380Y-129524047D02*
X150597380Y-129047857D01*
X151073571Y-129000238D01*
X151025952Y-129047857D01*
X150978333Y-129143095D01*
X150978333Y-129381190D01*
X151025952Y-129476428D01*
X151073571Y-129524047D01*
X151168809Y-129571666D01*
X151406904Y-129571666D01*
X151502142Y-129524047D01*
X151549761Y-129476428D01*
X151597380Y-129381190D01*
X151597380Y-129143095D01*
X151549761Y-129047857D01*
X151502142Y-129000238D01*
G04 #@! TO.C,R6*
D13*
X155790333Y-124296476D02*
X155857000Y-124201238D01*
X155904619Y-124296476D02*
X155904619Y-124096476D01*
X155828428Y-124096476D01*
X155809380Y-124106000D01*
X155799857Y-124115523D01*
X155790333Y-124134571D01*
X155790333Y-124163142D01*
X155799857Y-124182190D01*
X155809380Y-124191714D01*
X155828428Y-124201238D01*
X155904619Y-124201238D01*
X155618904Y-124096476D02*
X155657000Y-124096476D01*
X155676047Y-124106000D01*
X155685571Y-124115523D01*
X155704619Y-124144095D01*
X155714142Y-124182190D01*
X155714142Y-124258380D01*
X155704619Y-124277428D01*
X155695095Y-124286952D01*
X155676047Y-124296476D01*
X155637952Y-124296476D01*
X155618904Y-124286952D01*
X155609380Y-124277428D01*
X155599857Y-124258380D01*
X155599857Y-124210761D01*
X155609380Y-124191714D01*
X155618904Y-124182190D01*
X155637952Y-124172666D01*
X155676047Y-124172666D01*
X155695095Y-124182190D01*
X155704619Y-124191714D01*
X155714142Y-124210761D01*
X154820095Y-124296476D02*
X154886761Y-124201238D01*
X154934380Y-124296476D02*
X154934380Y-124096476D01*
X154858190Y-124096476D01*
X154839142Y-124106000D01*
X154829619Y-124115523D01*
X154820095Y-124134571D01*
X154820095Y-124163142D01*
X154829619Y-124182190D01*
X154839142Y-124191714D01*
X154858190Y-124201238D01*
X154934380Y-124201238D01*
G04 #@! TO.C,R7*
X148095476Y-121334666D02*
X148000238Y-121268000D01*
X148095476Y-121220380D02*
X147895476Y-121220380D01*
X147895476Y-121296571D01*
X147905000Y-121315619D01*
X147914523Y-121325142D01*
X147933571Y-121334666D01*
X147962142Y-121334666D01*
X147981190Y-121325142D01*
X147990714Y-121315619D01*
X148000238Y-121296571D01*
X148000238Y-121220380D01*
X147895476Y-121401333D02*
X147895476Y-121534666D01*
X148095476Y-121448952D01*
X148045476Y-122123952D02*
X148045476Y-122009666D01*
X148045476Y-122066809D02*
X147845476Y-122066809D01*
X147874047Y-122047761D01*
X147893095Y-122028714D01*
X147902619Y-122009666D01*
X147845476Y-122247761D02*
X147845476Y-122266809D01*
X147855000Y-122285857D01*
X147864523Y-122295380D01*
X147883571Y-122304904D01*
X147921666Y-122314428D01*
X147969285Y-122314428D01*
X148007380Y-122304904D01*
X148026428Y-122295380D01*
X148035952Y-122285857D01*
X148045476Y-122266809D01*
X148045476Y-122247761D01*
X148035952Y-122228714D01*
X148026428Y-122219190D01*
X148007380Y-122209666D01*
X147969285Y-122200142D01*
X147921666Y-122200142D01*
X147883571Y-122209666D01*
X147864523Y-122219190D01*
X147855000Y-122228714D01*
X147845476Y-122247761D01*
X148045476Y-122400142D02*
X147845476Y-122400142D01*
X147969285Y-122419190D02*
X148045476Y-122476333D01*
X147912142Y-122476333D02*
X147988333Y-122400142D01*
G04 #@! TO.C,R5*
X147593333Y-124931476D02*
X147660000Y-124836238D01*
X147707619Y-124931476D02*
X147707619Y-124731476D01*
X147631428Y-124731476D01*
X147612380Y-124741000D01*
X147602857Y-124750523D01*
X147593333Y-124769571D01*
X147593333Y-124798142D01*
X147602857Y-124817190D01*
X147612380Y-124826714D01*
X147631428Y-124836238D01*
X147707619Y-124836238D01*
X147412380Y-124731476D02*
X147507619Y-124731476D01*
X147517142Y-124826714D01*
X147507619Y-124817190D01*
X147488571Y-124807666D01*
X147440952Y-124807666D01*
X147421904Y-124817190D01*
X147412380Y-124826714D01*
X147402857Y-124845761D01*
X147402857Y-124893380D01*
X147412380Y-124912428D01*
X147421904Y-124921952D01*
X147440952Y-124931476D01*
X147488571Y-124931476D01*
X147507619Y-124921952D01*
X147517142Y-124912428D01*
X146804047Y-124931476D02*
X146918333Y-124931476D01*
X146861190Y-124931476D02*
X146861190Y-124731476D01*
X146880238Y-124760047D01*
X146899285Y-124779095D01*
X146918333Y-124788619D01*
X146680238Y-124731476D02*
X146661190Y-124731476D01*
X146642142Y-124741000D01*
X146632619Y-124750523D01*
X146623095Y-124769571D01*
X146613571Y-124807666D01*
X146613571Y-124855285D01*
X146623095Y-124893380D01*
X146632619Y-124912428D01*
X146642142Y-124921952D01*
X146661190Y-124931476D01*
X146680238Y-124931476D01*
X146699285Y-124921952D01*
X146708809Y-124912428D01*
X146718333Y-124893380D01*
X146727857Y-124855285D01*
X146727857Y-124807666D01*
X146718333Y-124769571D01*
X146708809Y-124750523D01*
X146699285Y-124741000D01*
X146680238Y-124731476D01*
X146527857Y-124931476D02*
X146527857Y-124731476D01*
X146508809Y-124855285D02*
X146451666Y-124931476D01*
X146451666Y-124798142D02*
X146527857Y-124874333D01*
G04 #@! TO.C,R4*
X150077476Y-119569666D02*
X149982238Y-119503000D01*
X150077476Y-119455380D02*
X149877476Y-119455380D01*
X149877476Y-119531571D01*
X149887000Y-119550619D01*
X149896523Y-119560142D01*
X149915571Y-119569666D01*
X149944142Y-119569666D01*
X149963190Y-119560142D01*
X149972714Y-119550619D01*
X149982238Y-119531571D01*
X149982238Y-119455380D01*
X149944142Y-119741095D02*
X150077476Y-119741095D01*
X149867952Y-119693476D02*
X150010809Y-119645857D01*
X150010809Y-119769666D01*
X150077476Y-118669666D02*
X150077476Y-118555380D01*
X150077476Y-118612523D02*
X149877476Y-118612523D01*
X149906047Y-118593476D01*
X149925095Y-118574428D01*
X149934619Y-118555380D01*
X149877476Y-118793476D02*
X149877476Y-118812523D01*
X149887000Y-118831571D01*
X149896523Y-118841095D01*
X149915571Y-118850619D01*
X149953666Y-118860142D01*
X150001285Y-118860142D01*
X150039380Y-118850619D01*
X150058428Y-118841095D01*
X150067952Y-118831571D01*
X150077476Y-118812523D01*
X150077476Y-118793476D01*
X150067952Y-118774428D01*
X150058428Y-118764904D01*
X150039380Y-118755380D01*
X150001285Y-118745857D01*
X149953666Y-118745857D01*
X149915571Y-118755380D01*
X149896523Y-118764904D01*
X149887000Y-118774428D01*
X149877476Y-118793476D01*
X149877476Y-118983952D02*
X149877476Y-119003000D01*
X149887000Y-119022047D01*
X149896523Y-119031571D01*
X149915571Y-119041095D01*
X149953666Y-119050619D01*
X150001285Y-119050619D01*
X150039380Y-119041095D01*
X150058428Y-119031571D01*
X150067952Y-119022047D01*
X150077476Y-119003000D01*
X150077476Y-118983952D01*
X150067952Y-118964904D01*
X150058428Y-118955380D01*
X150039380Y-118945857D01*
X150001285Y-118936333D01*
X149953666Y-118936333D01*
X149915571Y-118945857D01*
X149896523Y-118955380D01*
X149887000Y-118964904D01*
X149877476Y-118983952D01*
G04 #@! TO.C,R1*
X149950476Y-103573166D02*
X149855238Y-103506500D01*
X149950476Y-103458880D02*
X149750476Y-103458880D01*
X149750476Y-103535071D01*
X149760000Y-103554119D01*
X149769523Y-103563642D01*
X149788571Y-103573166D01*
X149817142Y-103573166D01*
X149836190Y-103563642D01*
X149845714Y-103554119D01*
X149855238Y-103535071D01*
X149855238Y-103458880D01*
X149950476Y-103763642D02*
X149950476Y-103649357D01*
X149950476Y-103706500D02*
X149750476Y-103706500D01*
X149779047Y-103687452D01*
X149798095Y-103668404D01*
X149807619Y-103649357D01*
X149950476Y-102639833D02*
X149950476Y-102525547D01*
X149950476Y-102582690D02*
X149750476Y-102582690D01*
X149779047Y-102563642D01*
X149798095Y-102544595D01*
X149807619Y-102525547D01*
X149931428Y-102725547D02*
X149940952Y-102735071D01*
X149950476Y-102725547D01*
X149940952Y-102716023D01*
X149931428Y-102725547D01*
X149950476Y-102725547D01*
X149750476Y-102916023D02*
X149750476Y-102820785D01*
X149845714Y-102811261D01*
X149836190Y-102820785D01*
X149826666Y-102839833D01*
X149826666Y-102887452D01*
X149836190Y-102906500D01*
X149845714Y-102916023D01*
X149864761Y-102925547D01*
X149912380Y-102925547D01*
X149931428Y-102916023D01*
X149940952Y-102906500D01*
X149950476Y-102887452D01*
X149950476Y-102839833D01*
X149940952Y-102820785D01*
X149931428Y-102811261D01*
X149950476Y-103011261D02*
X149750476Y-103011261D01*
X149874285Y-103030309D02*
X149950476Y-103087452D01*
X149817142Y-103087452D02*
X149893333Y-103011261D01*
G04 #@! TO.C,R2*
X151093476Y-103578666D02*
X150998238Y-103512000D01*
X151093476Y-103464380D02*
X150893476Y-103464380D01*
X150893476Y-103540571D01*
X150903000Y-103559619D01*
X150912523Y-103569142D01*
X150931571Y-103578666D01*
X150960142Y-103578666D01*
X150979190Y-103569142D01*
X150988714Y-103559619D01*
X150998238Y-103540571D01*
X150998238Y-103464380D01*
X150912523Y-103654857D02*
X150903000Y-103664380D01*
X150893476Y-103683428D01*
X150893476Y-103731047D01*
X150903000Y-103750095D01*
X150912523Y-103759619D01*
X150931571Y-103769142D01*
X150950619Y-103769142D01*
X150979190Y-103759619D01*
X151093476Y-103645333D01*
X151093476Y-103769142D01*
X150893476Y-102754857D02*
X150893476Y-102716761D01*
X150903000Y-102697714D01*
X150912523Y-102688190D01*
X150941095Y-102669142D01*
X150979190Y-102659619D01*
X151055380Y-102659619D01*
X151074428Y-102669142D01*
X151083952Y-102678666D01*
X151093476Y-102697714D01*
X151093476Y-102735809D01*
X151083952Y-102754857D01*
X151074428Y-102764380D01*
X151055380Y-102773904D01*
X151007761Y-102773904D01*
X150988714Y-102764380D01*
X150979190Y-102754857D01*
X150969666Y-102735809D01*
X150969666Y-102697714D01*
X150979190Y-102678666D01*
X150988714Y-102669142D01*
X151007761Y-102659619D01*
X150979190Y-102888190D02*
X150969666Y-102869142D01*
X150960142Y-102859619D01*
X150941095Y-102850095D01*
X150931571Y-102850095D01*
X150912523Y-102859619D01*
X150903000Y-102869142D01*
X150893476Y-102888190D01*
X150893476Y-102926285D01*
X150903000Y-102945333D01*
X150912523Y-102954857D01*
X150931571Y-102964380D01*
X150941095Y-102964380D01*
X150960142Y-102954857D01*
X150969666Y-102945333D01*
X150979190Y-102926285D01*
X150979190Y-102888190D01*
X150988714Y-102869142D01*
X150998238Y-102859619D01*
X151017285Y-102850095D01*
X151055380Y-102850095D01*
X151074428Y-102859619D01*
X151083952Y-102869142D01*
X151093476Y-102888190D01*
X151093476Y-102926285D01*
X151083952Y-102945333D01*
X151074428Y-102954857D01*
X151055380Y-102964380D01*
X151017285Y-102964380D01*
X150998238Y-102954857D01*
X150988714Y-102945333D01*
X150979190Y-102926285D01*
G04 #@! TO.C,R3*
X152172976Y-103578666D02*
X152077738Y-103512000D01*
X152172976Y-103464380D02*
X151972976Y-103464380D01*
X151972976Y-103540571D01*
X151982500Y-103559619D01*
X151992023Y-103569142D01*
X152011071Y-103578666D01*
X152039642Y-103578666D01*
X152058690Y-103569142D01*
X152068214Y-103559619D01*
X152077738Y-103540571D01*
X152077738Y-103464380D01*
X151972976Y-103645333D02*
X151972976Y-103769142D01*
X152049166Y-103702476D01*
X152049166Y-103731047D01*
X152058690Y-103750095D01*
X152068214Y-103759619D01*
X152087261Y-103769142D01*
X152134880Y-103769142D01*
X152153928Y-103759619D01*
X152163452Y-103750095D01*
X152172976Y-103731047D01*
X152172976Y-103673904D01*
X152163452Y-103654857D01*
X152153928Y-103645333D01*
X151972976Y-102754857D02*
X151972976Y-102716761D01*
X151982500Y-102697714D01*
X151992023Y-102688190D01*
X152020595Y-102669142D01*
X152058690Y-102659619D01*
X152134880Y-102659619D01*
X152153928Y-102669142D01*
X152163452Y-102678666D01*
X152172976Y-102697714D01*
X152172976Y-102735809D01*
X152163452Y-102754857D01*
X152153928Y-102764380D01*
X152134880Y-102773904D01*
X152087261Y-102773904D01*
X152068214Y-102764380D01*
X152058690Y-102754857D01*
X152049166Y-102735809D01*
X152049166Y-102697714D01*
X152058690Y-102678666D01*
X152068214Y-102669142D01*
X152087261Y-102659619D01*
X152058690Y-102888190D02*
X152049166Y-102869142D01*
X152039642Y-102859619D01*
X152020595Y-102850095D01*
X152011071Y-102850095D01*
X151992023Y-102859619D01*
X151982500Y-102869142D01*
X151972976Y-102888190D01*
X151972976Y-102926285D01*
X151982500Y-102945333D01*
X151992023Y-102954857D01*
X152011071Y-102964380D01*
X152020595Y-102964380D01*
X152039642Y-102954857D01*
X152049166Y-102945333D01*
X152058690Y-102926285D01*
X152058690Y-102888190D01*
X152068214Y-102869142D01*
X152077738Y-102859619D01*
X152096785Y-102850095D01*
X152134880Y-102850095D01*
X152153928Y-102859619D01*
X152163452Y-102869142D01*
X152172976Y-102888190D01*
X152172976Y-102926285D01*
X152163452Y-102945333D01*
X152153928Y-102954857D01*
X152134880Y-102964380D01*
X152096785Y-102964380D01*
X152077738Y-102954857D01*
X152068214Y-102945333D01*
X152058690Y-102926285D01*
G04 #@! TO.C,R10*
D14*
X154953595Y-123082351D02*
X155026166Y-123082351D01*
X154989880Y-123082351D02*
X154989880Y-122955351D01*
X155001976Y-122973494D01*
X155014071Y-122985589D01*
X155026166Y-122991637D01*
X154874976Y-122955351D02*
X154862880Y-122955351D01*
X154850785Y-122961399D01*
X154844738Y-122967446D01*
X154838690Y-122979541D01*
X154832642Y-123003732D01*
X154832642Y-123033970D01*
X154838690Y-123058160D01*
X154844738Y-123070256D01*
X154850785Y-123076303D01*
X154862880Y-123082351D01*
X154874976Y-123082351D01*
X154887071Y-123076303D01*
X154893119Y-123070256D01*
X154899166Y-123058160D01*
X154905214Y-123033970D01*
X154905214Y-123003732D01*
X154899166Y-122979541D01*
X154893119Y-122967446D01*
X154887071Y-122961399D01*
X154874976Y-122955351D01*
X154778214Y-123082351D02*
X154778214Y-122955351D01*
X154766119Y-123033970D02*
X154729833Y-123082351D01*
X154729833Y-122997684D02*
X154778214Y-123046065D01*
X154973642Y-122142351D02*
X155015976Y-122081875D01*
X155046214Y-122142351D02*
X155046214Y-122015351D01*
X154997833Y-122015351D01*
X154985738Y-122021399D01*
X154979690Y-122027446D01*
X154973642Y-122039541D01*
X154973642Y-122057684D01*
X154979690Y-122069779D01*
X154985738Y-122075827D01*
X154997833Y-122081875D01*
X155046214Y-122081875D01*
X154852690Y-122142351D02*
X154925261Y-122142351D01*
X154888976Y-122142351D02*
X154888976Y-122015351D01*
X154901071Y-122033494D01*
X154913166Y-122045589D01*
X154925261Y-122051637D01*
X154774071Y-122015351D02*
X154761976Y-122015351D01*
X154749880Y-122021399D01*
X154743833Y-122027446D01*
X154737785Y-122039541D01*
X154731738Y-122063732D01*
X154731738Y-122093970D01*
X154737785Y-122118160D01*
X154743833Y-122130256D01*
X154749880Y-122136303D01*
X154761976Y-122142351D01*
X154774071Y-122142351D01*
X154786166Y-122136303D01*
X154792214Y-122130256D01*
X154798261Y-122118160D01*
X154804309Y-122093970D01*
X154804309Y-122063732D01*
X154798261Y-122039541D01*
X154792214Y-122027446D01*
X154786166Y-122021399D01*
X154774071Y-122015351D01*
G04 #@! TO.C,C1*
D11*
X156531238Y-103205480D02*
X157102666Y-103205480D01*
X156816952Y-103205480D02*
X156816952Y-102205480D01*
X156912190Y-102348338D01*
X157007428Y-102443576D01*
X157102666Y-102491195D01*
X155674095Y-102538814D02*
X155674095Y-103205480D01*
X156102666Y-102538814D02*
X156102666Y-103062623D01*
X156055047Y-103157861D01*
X155959809Y-103205480D01*
X155816952Y-103205480D01*
X155721714Y-103157861D01*
X155674095Y-103110242D01*
X154864571Y-102681671D02*
X155197904Y-102681671D01*
X155197904Y-103205480D02*
X155197904Y-102205480D01*
X154721714Y-102205480D01*
D12*
X155977666Y-104012385D02*
X155989571Y-104024290D01*
X156025285Y-104036195D01*
X156049095Y-104036195D01*
X156084809Y-104024290D01*
X156108619Y-104000480D01*
X156120523Y-103976671D01*
X156132428Y-103929052D01*
X156132428Y-103893338D01*
X156120523Y-103845719D01*
X156108619Y-103821909D01*
X156084809Y-103798100D01*
X156049095Y-103786195D01*
X156025285Y-103786195D01*
X155989571Y-103798100D01*
X155977666Y-103810004D01*
X155739571Y-104036195D02*
X155882428Y-104036195D01*
X155811000Y-104036195D02*
X155811000Y-103786195D01*
X155834809Y-103821909D01*
X155858619Y-103845719D01*
X155882428Y-103857623D01*
G04 #@! TO.C,C2*
D11*
X156531238Y-106805480D02*
X157102666Y-106805480D01*
X156816952Y-106805480D02*
X156816952Y-105805480D01*
X156912190Y-105948338D01*
X157007428Y-106043576D01*
X157102666Y-106091195D01*
X155674095Y-106138814D02*
X155674095Y-106805480D01*
X156102666Y-106138814D02*
X156102666Y-106662623D01*
X156055047Y-106757861D01*
X155959809Y-106805480D01*
X155816952Y-106805480D01*
X155721714Y-106757861D01*
X155674095Y-106710242D01*
X154864571Y-106281671D02*
X155197904Y-106281671D01*
X155197904Y-106805480D02*
X155197904Y-105805480D01*
X154721714Y-105805480D01*
D12*
X155977666Y-107612385D02*
X155989571Y-107624290D01*
X156025285Y-107636195D01*
X156049095Y-107636195D01*
X156084809Y-107624290D01*
X156108619Y-107600480D01*
X156120523Y-107576671D01*
X156132428Y-107529052D01*
X156132428Y-107493338D01*
X156120523Y-107445719D01*
X156108619Y-107421909D01*
X156084809Y-107398100D01*
X156049095Y-107386195D01*
X156025285Y-107386195D01*
X155989571Y-107398100D01*
X155977666Y-107410004D01*
X155882428Y-107410004D02*
X155870523Y-107398100D01*
X155846714Y-107386195D01*
X155787190Y-107386195D01*
X155763380Y-107398100D01*
X155751476Y-107410004D01*
X155739571Y-107433814D01*
X155739571Y-107457623D01*
X155751476Y-107493338D01*
X155894333Y-107636195D01*
X155739571Y-107636195D01*
G04 #@! TO.C,C4*
D11*
X156531238Y-105605480D02*
X157102666Y-105605480D01*
X156816952Y-105605480D02*
X156816952Y-104605480D01*
X156912190Y-104748338D01*
X157007428Y-104843576D01*
X157102666Y-104891195D01*
X155674095Y-104938814D02*
X155674095Y-105605480D01*
X156102666Y-104938814D02*
X156102666Y-105462623D01*
X156055047Y-105557861D01*
X155959809Y-105605480D01*
X155816952Y-105605480D01*
X155721714Y-105557861D01*
X155674095Y-105510242D01*
X154864571Y-105081671D02*
X155197904Y-105081671D01*
X155197904Y-105605480D02*
X155197904Y-104605480D01*
X154721714Y-104605480D01*
D12*
X155977666Y-106412385D02*
X155989571Y-106424290D01*
X156025285Y-106436195D01*
X156049095Y-106436195D01*
X156084809Y-106424290D01*
X156108619Y-106400480D01*
X156120523Y-106376671D01*
X156132428Y-106329052D01*
X156132428Y-106293338D01*
X156120523Y-106245719D01*
X156108619Y-106221909D01*
X156084809Y-106198100D01*
X156049095Y-106186195D01*
X156025285Y-106186195D01*
X155989571Y-106198100D01*
X155977666Y-106210004D01*
X155763380Y-106269528D02*
X155763380Y-106436195D01*
X155822904Y-106174290D02*
X155882428Y-106352861D01*
X155727666Y-106352861D01*
G04 #@! TO.C,C5*
D11*
X156383619Y-122399380D02*
X156955047Y-122399380D01*
X156669333Y-122399380D02*
X156669333Y-121399380D01*
X156764571Y-121542238D01*
X156859809Y-121637476D01*
X156955047Y-121685095D01*
X155764571Y-121399380D02*
X155669333Y-121399380D01*
X155574095Y-121447000D01*
X155526476Y-121494619D01*
X155478857Y-121589857D01*
X155431238Y-121780333D01*
X155431238Y-122018428D01*
X155478857Y-122208904D01*
X155526476Y-122304142D01*
X155574095Y-122351761D01*
X155669333Y-122399380D01*
X155764571Y-122399380D01*
X155859809Y-122351761D01*
X155907428Y-122304142D01*
X155955047Y-122208904D01*
X156002666Y-122018428D01*
X156002666Y-121780333D01*
X155955047Y-121589857D01*
X155907428Y-121494619D01*
X155859809Y-121447000D01*
X155764571Y-121399380D01*
X154812190Y-121399380D02*
X154716952Y-121399380D01*
X154621714Y-121447000D01*
X154574095Y-121494619D01*
X154526476Y-121589857D01*
X154478857Y-121780333D01*
X154478857Y-122018428D01*
X154526476Y-122208904D01*
X154574095Y-122304142D01*
X154621714Y-122351761D01*
X154716952Y-122399380D01*
X154812190Y-122399380D01*
X154907428Y-122351761D01*
X154955047Y-122304142D01*
X155002666Y-122208904D01*
X155050285Y-122018428D01*
X155050285Y-121780333D01*
X155002666Y-121589857D01*
X154955047Y-121494619D01*
X154907428Y-121447000D01*
X154812190Y-121399380D01*
X154050285Y-121732714D02*
X154050285Y-122399380D01*
X154050285Y-121827952D02*
X154002666Y-121780333D01*
X153907428Y-121732714D01*
X153764571Y-121732714D01*
X153669333Y-121780333D01*
X153621714Y-121875571D01*
X153621714Y-122399380D01*
X152812190Y-121875571D02*
X153145523Y-121875571D01*
X153145523Y-122399380D02*
X153145523Y-121399380D01*
X152669333Y-121399380D01*
D12*
X154877666Y-120866285D02*
X154889571Y-120878190D01*
X154925285Y-120890095D01*
X154949095Y-120890095D01*
X154984809Y-120878190D01*
X155008619Y-120854380D01*
X155020523Y-120830571D01*
X155032428Y-120782952D01*
X155032428Y-120747238D01*
X155020523Y-120699619D01*
X155008619Y-120675809D01*
X154984809Y-120652000D01*
X154949095Y-120640095D01*
X154925285Y-120640095D01*
X154889571Y-120652000D01*
X154877666Y-120663904D01*
X154651476Y-120640095D02*
X154770523Y-120640095D01*
X154782428Y-120759142D01*
X154770523Y-120747238D01*
X154746714Y-120735333D01*
X154687190Y-120735333D01*
X154663380Y-120747238D01*
X154651476Y-120759142D01*
X154639571Y-120782952D01*
X154639571Y-120842476D01*
X154651476Y-120866285D01*
X154663380Y-120878190D01*
X154687190Y-120890095D01*
X154746714Y-120890095D01*
X154770523Y-120878190D01*
X154782428Y-120866285D01*
G04 #@! TO.C,C6*
D11*
X150466380Y-118689571D02*
X150466380Y-118118142D01*
X150466380Y-118403857D02*
X149466380Y-118403857D01*
X149609238Y-118308619D01*
X149704476Y-118213380D01*
X149752095Y-118118142D01*
X149466380Y-119308619D02*
X149466380Y-119403857D01*
X149514000Y-119499095D01*
X149561619Y-119546714D01*
X149656857Y-119594333D01*
X149847333Y-119641952D01*
X150085428Y-119641952D01*
X150275904Y-119594333D01*
X150371142Y-119546714D01*
X150418761Y-119499095D01*
X150466380Y-119403857D01*
X150466380Y-119308619D01*
X150418761Y-119213380D01*
X150371142Y-119165761D01*
X150275904Y-119118142D01*
X150085428Y-119070523D01*
X149847333Y-119070523D01*
X149656857Y-119118142D01*
X149561619Y-119165761D01*
X149514000Y-119213380D01*
X149466380Y-119308619D01*
X149799714Y-120070523D02*
X150466380Y-120070523D01*
X149894952Y-120070523D02*
X149847333Y-120118142D01*
X149799714Y-120213380D01*
X149799714Y-120356238D01*
X149847333Y-120451476D01*
X149942571Y-120499095D01*
X150466380Y-120499095D01*
X149942571Y-121308619D02*
X149942571Y-120975285D01*
X150466380Y-120975285D02*
X149466380Y-120975285D01*
X149466380Y-121451476D01*
D12*
X148933285Y-119719333D02*
X148945190Y-119707428D01*
X148957095Y-119671714D01*
X148957095Y-119647904D01*
X148945190Y-119612190D01*
X148921380Y-119588380D01*
X148897571Y-119576476D01*
X148849952Y-119564571D01*
X148814238Y-119564571D01*
X148766619Y-119576476D01*
X148742809Y-119588380D01*
X148719000Y-119612190D01*
X148707095Y-119647904D01*
X148707095Y-119671714D01*
X148719000Y-119707428D01*
X148730904Y-119719333D01*
X148707095Y-119933619D02*
X148707095Y-119886000D01*
X148719000Y-119862190D01*
X148730904Y-119850285D01*
X148766619Y-119826476D01*
X148814238Y-119814571D01*
X148909476Y-119814571D01*
X148933285Y-119826476D01*
X148945190Y-119838380D01*
X148957095Y-119862190D01*
X148957095Y-119909809D01*
X148945190Y-119933619D01*
X148933285Y-119945523D01*
X148909476Y-119957428D01*
X148849952Y-119957428D01*
X148826142Y-119945523D01*
X148814238Y-119933619D01*
X148802333Y-119909809D01*
X148802333Y-119862190D01*
X148814238Y-119838380D01*
X148826142Y-119826476D01*
X148849952Y-119814571D01*
G04 #@! TO.C,C8*
D11*
X149098619Y-116757380D02*
X149670047Y-116757380D01*
X149384333Y-116757380D02*
X149384333Y-115757380D01*
X149479571Y-115900238D01*
X149574809Y-115995476D01*
X149670047Y-116043095D01*
X148479571Y-115757380D02*
X148384333Y-115757380D01*
X148289095Y-115805000D01*
X148241476Y-115852619D01*
X148193857Y-115947857D01*
X148146238Y-116138333D01*
X148146238Y-116376428D01*
X148193857Y-116566904D01*
X148241476Y-116662142D01*
X148289095Y-116709761D01*
X148384333Y-116757380D01*
X148479571Y-116757380D01*
X148574809Y-116709761D01*
X148622428Y-116662142D01*
X148670047Y-116566904D01*
X148717666Y-116376428D01*
X148717666Y-116138333D01*
X148670047Y-115947857D01*
X148622428Y-115852619D01*
X148574809Y-115805000D01*
X148479571Y-115757380D01*
X147527190Y-115757380D02*
X147431952Y-115757380D01*
X147336714Y-115805000D01*
X147289095Y-115852619D01*
X147241476Y-115947857D01*
X147193857Y-116138333D01*
X147193857Y-116376428D01*
X147241476Y-116566904D01*
X147289095Y-116662142D01*
X147336714Y-116709761D01*
X147431952Y-116757380D01*
X147527190Y-116757380D01*
X147622428Y-116709761D01*
X147670047Y-116662142D01*
X147717666Y-116566904D01*
X147765285Y-116376428D01*
X147765285Y-116138333D01*
X147717666Y-115947857D01*
X147670047Y-115852619D01*
X147622428Y-115805000D01*
X147527190Y-115757380D01*
X146765285Y-116090714D02*
X146765285Y-116757380D01*
X146765285Y-116185952D02*
X146717666Y-116138333D01*
X146622428Y-116090714D01*
X146479571Y-116090714D01*
X146384333Y-116138333D01*
X146336714Y-116233571D01*
X146336714Y-116757380D01*
X145527190Y-116233571D02*
X145860523Y-116233571D01*
X145860523Y-116757380D02*
X145860523Y-115757380D01*
X145384333Y-115757380D01*
D12*
X147592666Y-117564285D02*
X147604571Y-117576190D01*
X147640285Y-117588095D01*
X147664095Y-117588095D01*
X147699809Y-117576190D01*
X147723619Y-117552380D01*
X147735523Y-117528571D01*
X147747428Y-117480952D01*
X147747428Y-117445238D01*
X147735523Y-117397619D01*
X147723619Y-117373809D01*
X147699809Y-117350000D01*
X147664095Y-117338095D01*
X147640285Y-117338095D01*
X147604571Y-117350000D01*
X147592666Y-117361904D01*
X147449809Y-117445238D02*
X147473619Y-117433333D01*
X147485523Y-117421428D01*
X147497428Y-117397619D01*
X147497428Y-117385714D01*
X147485523Y-117361904D01*
X147473619Y-117350000D01*
X147449809Y-117338095D01*
X147402190Y-117338095D01*
X147378380Y-117350000D01*
X147366476Y-117361904D01*
X147354571Y-117385714D01*
X147354571Y-117397619D01*
X147366476Y-117421428D01*
X147378380Y-117433333D01*
X147402190Y-117445238D01*
X147449809Y-117445238D01*
X147473619Y-117457142D01*
X147485523Y-117469047D01*
X147497428Y-117492857D01*
X147497428Y-117540476D01*
X147485523Y-117564285D01*
X147473619Y-117576190D01*
X147449809Y-117588095D01*
X147402190Y-117588095D01*
X147378380Y-117576190D01*
X147366476Y-117564285D01*
X147354571Y-117540476D01*
X147354571Y-117492857D01*
X147366476Y-117469047D01*
X147378380Y-117457142D01*
X147402190Y-117445238D01*
G04 #@! TO.C,C9*
D11*
X154276380Y-117451380D02*
X154276380Y-116879952D01*
X154276380Y-117165666D02*
X153276380Y-117165666D01*
X153419238Y-117070428D01*
X153514476Y-116975190D01*
X153562095Y-116879952D01*
X153276380Y-118070428D02*
X153276380Y-118165666D01*
X153324000Y-118260904D01*
X153371619Y-118308523D01*
X153466857Y-118356142D01*
X153657333Y-118403761D01*
X153895428Y-118403761D01*
X154085904Y-118356142D01*
X154181142Y-118308523D01*
X154228761Y-118260904D01*
X154276380Y-118165666D01*
X154276380Y-118070428D01*
X154228761Y-117975190D01*
X154181142Y-117927571D01*
X154085904Y-117879952D01*
X153895428Y-117832333D01*
X153657333Y-117832333D01*
X153466857Y-117879952D01*
X153371619Y-117927571D01*
X153324000Y-117975190D01*
X153276380Y-118070428D01*
X153276380Y-119022809D02*
X153276380Y-119118047D01*
X153324000Y-119213285D01*
X153371619Y-119260904D01*
X153466857Y-119308523D01*
X153657333Y-119356142D01*
X153895428Y-119356142D01*
X154085904Y-119308523D01*
X154181142Y-119260904D01*
X154228761Y-119213285D01*
X154276380Y-119118047D01*
X154276380Y-119022809D01*
X154228761Y-118927571D01*
X154181142Y-118879952D01*
X154085904Y-118832333D01*
X153895428Y-118784714D01*
X153657333Y-118784714D01*
X153466857Y-118832333D01*
X153371619Y-118879952D01*
X153324000Y-118927571D01*
X153276380Y-119022809D01*
X153609714Y-119784714D02*
X154276380Y-119784714D01*
X153704952Y-119784714D02*
X153657333Y-119832333D01*
X153609714Y-119927571D01*
X153609714Y-120070428D01*
X153657333Y-120165666D01*
X153752571Y-120213285D01*
X154276380Y-120213285D01*
X153752571Y-121022809D02*
X153752571Y-120689476D01*
X154276380Y-120689476D02*
X153276380Y-120689476D01*
X153276380Y-121165666D01*
D12*
X152743285Y-118957333D02*
X152755190Y-118945428D01*
X152767095Y-118909714D01*
X152767095Y-118885904D01*
X152755190Y-118850190D01*
X152731380Y-118826380D01*
X152707571Y-118814476D01*
X152659952Y-118802571D01*
X152624238Y-118802571D01*
X152576619Y-118814476D01*
X152552809Y-118826380D01*
X152529000Y-118850190D01*
X152517095Y-118885904D01*
X152517095Y-118909714D01*
X152529000Y-118945428D01*
X152540904Y-118957333D01*
X152767095Y-119076380D02*
X152767095Y-119124000D01*
X152755190Y-119147809D01*
X152743285Y-119159714D01*
X152707571Y-119183523D01*
X152659952Y-119195428D01*
X152564714Y-119195428D01*
X152540904Y-119183523D01*
X152529000Y-119171619D01*
X152517095Y-119147809D01*
X152517095Y-119100190D01*
X152529000Y-119076380D01*
X152540904Y-119064476D01*
X152564714Y-119052571D01*
X152624238Y-119052571D01*
X152648047Y-119064476D01*
X152659952Y-119076380D01*
X152671857Y-119100190D01*
X152671857Y-119147809D01*
X152659952Y-119171619D01*
X152648047Y-119183523D01*
X152624238Y-119195428D01*
G04 #@! TO.C,C10*
D11*
X148082619Y-110207380D02*
X148654047Y-110207380D01*
X148368333Y-110207380D02*
X148368333Y-109207380D01*
X148463571Y-109350238D01*
X148558809Y-109445476D01*
X148654047Y-109493095D01*
X147463571Y-109207380D02*
X147368333Y-109207380D01*
X147273095Y-109255000D01*
X147225476Y-109302619D01*
X147177857Y-109397857D01*
X147130238Y-109588333D01*
X147130238Y-109826428D01*
X147177857Y-110016904D01*
X147225476Y-110112142D01*
X147273095Y-110159761D01*
X147368333Y-110207380D01*
X147463571Y-110207380D01*
X147558809Y-110159761D01*
X147606428Y-110112142D01*
X147654047Y-110016904D01*
X147701666Y-109826428D01*
X147701666Y-109588333D01*
X147654047Y-109397857D01*
X147606428Y-109302619D01*
X147558809Y-109255000D01*
X147463571Y-109207380D01*
X146511190Y-109207380D02*
X146415952Y-109207380D01*
X146320714Y-109255000D01*
X146273095Y-109302619D01*
X146225476Y-109397857D01*
X146177857Y-109588333D01*
X146177857Y-109826428D01*
X146225476Y-110016904D01*
X146273095Y-110112142D01*
X146320714Y-110159761D01*
X146415952Y-110207380D01*
X146511190Y-110207380D01*
X146606428Y-110159761D01*
X146654047Y-110112142D01*
X146701666Y-110016904D01*
X146749285Y-109826428D01*
X146749285Y-109588333D01*
X146701666Y-109397857D01*
X146654047Y-109302619D01*
X146606428Y-109255000D01*
X146511190Y-109207380D01*
X145749285Y-109540714D02*
X145749285Y-110207380D01*
X145749285Y-109635952D02*
X145701666Y-109588333D01*
X145606428Y-109540714D01*
X145463571Y-109540714D01*
X145368333Y-109588333D01*
X145320714Y-109683571D01*
X145320714Y-110207380D01*
X144511190Y-109683571D02*
X144844523Y-109683571D01*
X144844523Y-110207380D02*
X144844523Y-109207380D01*
X144368333Y-109207380D01*
D12*
X146695714Y-108674285D02*
X146707619Y-108686190D01*
X146743333Y-108698095D01*
X146767142Y-108698095D01*
X146802857Y-108686190D01*
X146826666Y-108662380D01*
X146838571Y-108638571D01*
X146850476Y-108590952D01*
X146850476Y-108555238D01*
X146838571Y-108507619D01*
X146826666Y-108483809D01*
X146802857Y-108460000D01*
X146767142Y-108448095D01*
X146743333Y-108448095D01*
X146707619Y-108460000D01*
X146695714Y-108471904D01*
X146457619Y-108698095D02*
X146600476Y-108698095D01*
X146529047Y-108698095D02*
X146529047Y-108448095D01*
X146552857Y-108483809D01*
X146576666Y-108507619D01*
X146600476Y-108519523D01*
X146302857Y-108448095D02*
X146279047Y-108448095D01*
X146255238Y-108460000D01*
X146243333Y-108471904D01*
X146231428Y-108495714D01*
X146219523Y-108543333D01*
X146219523Y-108602857D01*
X146231428Y-108650476D01*
X146243333Y-108674285D01*
X146255238Y-108686190D01*
X146279047Y-108698095D01*
X146302857Y-108698095D01*
X146326666Y-108686190D01*
X146338571Y-108674285D01*
X146350476Y-108650476D01*
X146362380Y-108602857D01*
X146362380Y-108543333D01*
X146350476Y-108495714D01*
X146338571Y-108471904D01*
X146326666Y-108460000D01*
X146302857Y-108448095D01*
G04 #@! TO.C,C11*
D11*
X148082619Y-111985380D02*
X148654047Y-111985380D01*
X148368333Y-111985380D02*
X148368333Y-110985380D01*
X148463571Y-111128238D01*
X148558809Y-111223476D01*
X148654047Y-111271095D01*
X147463571Y-110985380D02*
X147368333Y-110985380D01*
X147273095Y-111033000D01*
X147225476Y-111080619D01*
X147177857Y-111175857D01*
X147130238Y-111366333D01*
X147130238Y-111604428D01*
X147177857Y-111794904D01*
X147225476Y-111890142D01*
X147273095Y-111937761D01*
X147368333Y-111985380D01*
X147463571Y-111985380D01*
X147558809Y-111937761D01*
X147606428Y-111890142D01*
X147654047Y-111794904D01*
X147701666Y-111604428D01*
X147701666Y-111366333D01*
X147654047Y-111175857D01*
X147606428Y-111080619D01*
X147558809Y-111033000D01*
X147463571Y-110985380D01*
X146511190Y-110985380D02*
X146415952Y-110985380D01*
X146320714Y-111033000D01*
X146273095Y-111080619D01*
X146225476Y-111175857D01*
X146177857Y-111366333D01*
X146177857Y-111604428D01*
X146225476Y-111794904D01*
X146273095Y-111890142D01*
X146320714Y-111937761D01*
X146415952Y-111985380D01*
X146511190Y-111985380D01*
X146606428Y-111937761D01*
X146654047Y-111890142D01*
X146701666Y-111794904D01*
X146749285Y-111604428D01*
X146749285Y-111366333D01*
X146701666Y-111175857D01*
X146654047Y-111080619D01*
X146606428Y-111033000D01*
X146511190Y-110985380D01*
X145749285Y-111318714D02*
X145749285Y-111985380D01*
X145749285Y-111413952D02*
X145701666Y-111366333D01*
X145606428Y-111318714D01*
X145463571Y-111318714D01*
X145368333Y-111366333D01*
X145320714Y-111461571D01*
X145320714Y-111985380D01*
X144511190Y-111461571D02*
X144844523Y-111461571D01*
X144844523Y-111985380D02*
X144844523Y-110985380D01*
X144368333Y-110985380D01*
D12*
X146695714Y-110452285D02*
X146707619Y-110464190D01*
X146743333Y-110476095D01*
X146767142Y-110476095D01*
X146802857Y-110464190D01*
X146826666Y-110440380D01*
X146838571Y-110416571D01*
X146850476Y-110368952D01*
X146850476Y-110333238D01*
X146838571Y-110285619D01*
X146826666Y-110261809D01*
X146802857Y-110238000D01*
X146767142Y-110226095D01*
X146743333Y-110226095D01*
X146707619Y-110238000D01*
X146695714Y-110249904D01*
X146457619Y-110476095D02*
X146600476Y-110476095D01*
X146529047Y-110476095D02*
X146529047Y-110226095D01*
X146552857Y-110261809D01*
X146576666Y-110285619D01*
X146600476Y-110297523D01*
X146219523Y-110476095D02*
X146362380Y-110476095D01*
X146290952Y-110476095D02*
X146290952Y-110226095D01*
X146314761Y-110261809D01*
X146338571Y-110285619D01*
X146362380Y-110297523D01*
G04 #@! TO.C,C13*
D11*
X153006380Y-117904571D02*
X153006380Y-117333142D01*
X153006380Y-117618857D02*
X152006380Y-117618857D01*
X152149238Y-117523619D01*
X152244476Y-117428380D01*
X152292095Y-117333142D01*
X152006380Y-118523619D02*
X152006380Y-118618857D01*
X152054000Y-118714095D01*
X152101619Y-118761714D01*
X152196857Y-118809333D01*
X152387333Y-118856952D01*
X152625428Y-118856952D01*
X152815904Y-118809333D01*
X152911142Y-118761714D01*
X152958761Y-118714095D01*
X153006380Y-118618857D01*
X153006380Y-118523619D01*
X152958761Y-118428380D01*
X152911142Y-118380761D01*
X152815904Y-118333142D01*
X152625428Y-118285523D01*
X152387333Y-118285523D01*
X152196857Y-118333142D01*
X152101619Y-118380761D01*
X152054000Y-118428380D01*
X152006380Y-118523619D01*
X152339714Y-119285523D02*
X153006380Y-119285523D01*
X152434952Y-119285523D02*
X152387333Y-119333142D01*
X152339714Y-119428380D01*
X152339714Y-119571238D01*
X152387333Y-119666476D01*
X152482571Y-119714095D01*
X153006380Y-119714095D01*
X152482571Y-120523619D02*
X152482571Y-120190285D01*
X153006380Y-120190285D02*
X152006380Y-120190285D01*
X152006380Y-120666476D01*
D12*
X151473285Y-118815285D02*
X151485190Y-118803380D01*
X151497095Y-118767666D01*
X151497095Y-118743857D01*
X151485190Y-118708142D01*
X151461380Y-118684333D01*
X151437571Y-118672428D01*
X151389952Y-118660523D01*
X151354238Y-118660523D01*
X151306619Y-118672428D01*
X151282809Y-118684333D01*
X151259000Y-118708142D01*
X151247095Y-118743857D01*
X151247095Y-118767666D01*
X151259000Y-118803380D01*
X151270904Y-118815285D01*
X151497095Y-119053380D02*
X151497095Y-118910523D01*
X151497095Y-118981952D02*
X151247095Y-118981952D01*
X151282809Y-118958142D01*
X151306619Y-118934333D01*
X151318523Y-118910523D01*
X151247095Y-119136714D02*
X151247095Y-119291476D01*
X151342333Y-119208142D01*
X151342333Y-119243857D01*
X151354238Y-119267666D01*
X151366142Y-119279571D01*
X151389952Y-119291476D01*
X151449476Y-119291476D01*
X151473285Y-119279571D01*
X151485190Y-119267666D01*
X151497095Y-119243857D01*
X151497095Y-119172428D01*
X151485190Y-119148619D01*
X151473285Y-119136714D01*
G04 #@! TO.C,C14*
D11*
X151716428Y-119932380D02*
X152287857Y-119932380D01*
X152002142Y-119932380D02*
X152002142Y-118932380D01*
X152097380Y-119075238D01*
X152192619Y-119170476D01*
X152287857Y-119218095D01*
X151097380Y-118932380D02*
X151002142Y-118932380D01*
X150906904Y-118980000D01*
X150859285Y-119027619D01*
X150811666Y-119122857D01*
X150764047Y-119313333D01*
X150764047Y-119551428D01*
X150811666Y-119741904D01*
X150859285Y-119837142D01*
X150906904Y-119884761D01*
X151002142Y-119932380D01*
X151097380Y-119932380D01*
X151192619Y-119884761D01*
X151240238Y-119837142D01*
X151287857Y-119741904D01*
X151335476Y-119551428D01*
X151335476Y-119313333D01*
X151287857Y-119122857D01*
X151240238Y-119027619D01*
X151192619Y-118980000D01*
X151097380Y-118932380D01*
X150335476Y-119265714D02*
X150335476Y-119932380D01*
X150335476Y-119360952D02*
X150287857Y-119313333D01*
X150192619Y-119265714D01*
X150049761Y-119265714D01*
X149954523Y-119313333D01*
X149906904Y-119408571D01*
X149906904Y-119932380D01*
X149097380Y-119408571D02*
X149430714Y-119408571D01*
X149430714Y-119932380D02*
X149430714Y-118932380D01*
X148954523Y-118932380D01*
D12*
X150805714Y-120739285D02*
X150817619Y-120751190D01*
X150853333Y-120763095D01*
X150877142Y-120763095D01*
X150912857Y-120751190D01*
X150936666Y-120727380D01*
X150948571Y-120703571D01*
X150960476Y-120655952D01*
X150960476Y-120620238D01*
X150948571Y-120572619D01*
X150936666Y-120548809D01*
X150912857Y-120525000D01*
X150877142Y-120513095D01*
X150853333Y-120513095D01*
X150817619Y-120525000D01*
X150805714Y-120536904D01*
X150567619Y-120763095D02*
X150710476Y-120763095D01*
X150639047Y-120763095D02*
X150639047Y-120513095D01*
X150662857Y-120548809D01*
X150686666Y-120572619D01*
X150710476Y-120584523D01*
X150353333Y-120596428D02*
X150353333Y-120763095D01*
X150412857Y-120501190D02*
X150472380Y-120679761D01*
X150317619Y-120679761D01*
G04 #@! TO.C,C17*
D11*
X158213380Y-101313571D02*
X158213380Y-100742142D01*
X158213380Y-101027857D02*
X157213380Y-101027857D01*
X157356238Y-100932619D01*
X157451476Y-100837380D01*
X157499095Y-100742142D01*
X157213380Y-101932619D02*
X157213380Y-102027857D01*
X157261000Y-102123095D01*
X157308619Y-102170714D01*
X157403857Y-102218333D01*
X157594333Y-102265952D01*
X157832428Y-102265952D01*
X158022904Y-102218333D01*
X158118142Y-102170714D01*
X158165761Y-102123095D01*
X158213380Y-102027857D01*
X158213380Y-101932619D01*
X158165761Y-101837380D01*
X158118142Y-101789761D01*
X158022904Y-101742142D01*
X157832428Y-101694523D01*
X157594333Y-101694523D01*
X157403857Y-101742142D01*
X157308619Y-101789761D01*
X157261000Y-101837380D01*
X157213380Y-101932619D01*
X157546714Y-103123095D02*
X158213380Y-103123095D01*
X157546714Y-102694523D02*
X158070523Y-102694523D01*
X158165761Y-102742142D01*
X158213380Y-102837380D01*
X158213380Y-102980238D01*
X158165761Y-103075476D01*
X158118142Y-103123095D01*
X157689571Y-103932619D02*
X157689571Y-103599285D01*
X158213380Y-103599285D02*
X157213380Y-103599285D01*
X157213380Y-104075476D01*
D12*
X156680285Y-102224285D02*
X156692190Y-102212380D01*
X156704095Y-102176666D01*
X156704095Y-102152857D01*
X156692190Y-102117142D01*
X156668380Y-102093333D01*
X156644571Y-102081428D01*
X156596952Y-102069523D01*
X156561238Y-102069523D01*
X156513619Y-102081428D01*
X156489809Y-102093333D01*
X156466000Y-102117142D01*
X156454095Y-102152857D01*
X156454095Y-102176666D01*
X156466000Y-102212380D01*
X156477904Y-102224285D01*
X156704095Y-102462380D02*
X156704095Y-102319523D01*
X156704095Y-102390952D02*
X156454095Y-102390952D01*
X156489809Y-102367142D01*
X156513619Y-102343333D01*
X156525523Y-102319523D01*
X156454095Y-102545714D02*
X156454095Y-102712380D01*
X156704095Y-102605238D01*
G04 #@! TD*
M02*
